G04 MADE WITH FRITZING*
G04 WWW.FRITZING.ORG*
G04 DOUBLE SIDED*
G04 HOLES PLATED*
G04 CONTOUR ON CENTER OF CONTOUR VECTOR*
%ASAXBY*%
%FSLAX23Y23*%
%MOIN*%
%OFA0B0*%
%SFA1.0B1.0*%
%ADD10C,0.052000*%
%ADD11C,0.075000*%
%ADD12C,0.070000*%
%ADD13C,0.070866*%
%ADD14C,0.039370*%
%ADD15R,0.075000X0.075000*%
%ADD16C,0.024000*%
%ADD17R,0.001000X0.001000*%
%LNCOPPER0*%
G90*
G70*
G54D10*
X4118Y2435D03*
X4118Y2335D03*
X4118Y2235D03*
X4118Y2135D03*
X4118Y2035D03*
X4118Y1935D03*
X4118Y1835D03*
X4118Y1735D03*
X4418Y1735D03*
X4418Y1835D03*
X4418Y1935D03*
X4418Y2035D03*
X4418Y2135D03*
X4418Y2235D03*
X4418Y2335D03*
X4418Y2435D03*
X4118Y3735D03*
X4118Y3635D03*
X4118Y3535D03*
X4118Y3435D03*
X4118Y3335D03*
X4118Y3235D03*
X4118Y3135D03*
X4118Y3035D03*
X4418Y3035D03*
X4418Y3135D03*
X4418Y3235D03*
X4418Y3335D03*
X4418Y3435D03*
X4418Y3535D03*
X4418Y3635D03*
X4418Y3735D03*
X4118Y4835D03*
X4118Y4735D03*
X4118Y4635D03*
X4118Y4535D03*
X4118Y4435D03*
X4118Y4335D03*
X4118Y4235D03*
X4118Y4135D03*
X4418Y4135D03*
X4418Y4235D03*
X4418Y4335D03*
X4418Y4435D03*
X4418Y4535D03*
X4418Y4635D03*
X4418Y4735D03*
X4418Y4835D03*
X4118Y5835D03*
X4118Y5735D03*
X4118Y5635D03*
X4118Y5535D03*
X4118Y5435D03*
X4118Y5335D03*
X4118Y5235D03*
X4118Y5135D03*
X4418Y5135D03*
X4418Y5235D03*
X4418Y5335D03*
X4418Y5435D03*
X4418Y5535D03*
X4418Y5635D03*
X4418Y5735D03*
X4418Y5835D03*
G54D11*
X2418Y2535D03*
X2718Y2535D03*
X2418Y2435D03*
X2718Y2435D03*
X2418Y2335D03*
X2718Y2335D03*
X2418Y2235D03*
X2718Y2235D03*
X2418Y2135D03*
X2718Y2135D03*
X2418Y2035D03*
X2718Y2035D03*
X2418Y1935D03*
X2718Y1935D03*
X5518Y1535D03*
X5818Y1535D03*
X5518Y1435D03*
X5818Y1435D03*
X5518Y1335D03*
X5818Y1335D03*
X5518Y1235D03*
X5818Y1235D03*
X5518Y1135D03*
X5818Y1135D03*
X5518Y1035D03*
X5818Y1035D03*
X5518Y935D03*
X5818Y935D03*
X5518Y2935D03*
X5818Y2935D03*
X5518Y2835D03*
X5818Y2835D03*
X5518Y2735D03*
X5818Y2735D03*
X5518Y2635D03*
X5818Y2635D03*
X5518Y2535D03*
X5818Y2535D03*
X5518Y2435D03*
X5818Y2435D03*
X5518Y2335D03*
X5818Y2335D03*
X5518Y4435D03*
X5818Y4435D03*
X5518Y4335D03*
X5818Y4335D03*
X5518Y4235D03*
X5818Y4235D03*
X5518Y4135D03*
X5818Y4135D03*
X5518Y4035D03*
X5818Y4035D03*
X5518Y3935D03*
X5818Y3935D03*
X5518Y3835D03*
X5818Y3835D03*
X5518Y6135D03*
X5818Y6135D03*
X5518Y6035D03*
X5818Y6035D03*
X5518Y5935D03*
X5818Y5935D03*
X5518Y5835D03*
X5818Y5835D03*
X5518Y5735D03*
X5818Y5735D03*
X5518Y5635D03*
X5818Y5635D03*
X5518Y5535D03*
X5818Y5535D03*
X2418Y1235D03*
X2718Y1235D03*
X2418Y1135D03*
X2718Y1135D03*
X2418Y1035D03*
X2718Y1035D03*
X2418Y935D03*
X2718Y935D03*
X2418Y835D03*
X2718Y835D03*
X2418Y735D03*
X2718Y735D03*
X2418Y635D03*
X2718Y635D03*
X2418Y4235D03*
X2718Y4235D03*
X2418Y4135D03*
X2718Y4135D03*
X2418Y4035D03*
X2718Y4035D03*
X2418Y3935D03*
X2718Y3935D03*
X2418Y3835D03*
X2718Y3835D03*
X2418Y3735D03*
X2718Y3735D03*
X2418Y3635D03*
X2718Y3635D03*
X2418Y6135D03*
X2718Y6135D03*
X2418Y6035D03*
X2718Y6035D03*
X2418Y5935D03*
X2718Y5935D03*
X2418Y5835D03*
X2718Y5835D03*
X2418Y5735D03*
X2718Y5735D03*
X2418Y5635D03*
X2718Y5635D03*
X2418Y5535D03*
X2718Y5535D03*
G54D12*
X6518Y6435D03*
X6618Y6435D03*
X6518Y6235D03*
X6618Y6235D03*
X6518Y6035D03*
X6618Y6035D03*
X6518Y5835D03*
X6618Y5835D03*
X6518Y5635D03*
X6618Y5635D03*
X6518Y5435D03*
X6618Y5435D03*
X6518Y5035D03*
X6618Y5035D03*
X6518Y4835D03*
X6618Y4835D03*
X6518Y4635D03*
X6618Y4635D03*
X6518Y4435D03*
X6618Y4435D03*
X6518Y4235D03*
X6618Y4235D03*
X6518Y4035D03*
X6618Y4035D03*
X6518Y735D03*
X6618Y735D03*
X6518Y935D03*
X6618Y935D03*
X6518Y1135D03*
X6618Y1135D03*
X6518Y1335D03*
X6618Y1335D03*
X6518Y1535D03*
X6618Y1535D03*
X6518Y1735D03*
X6618Y1735D03*
X6518Y1935D03*
X6618Y1935D03*
X6518Y2135D03*
X6618Y2135D03*
X6518Y2835D03*
X6618Y2835D03*
X6518Y3035D03*
X6618Y3035D03*
X6518Y3235D03*
X6618Y3235D03*
X6518Y3435D03*
X6618Y3435D03*
X1418Y6435D03*
X1518Y6435D03*
X1418Y6235D03*
X1518Y6235D03*
X1418Y3635D03*
X1518Y3635D03*
X1418Y6035D03*
X1518Y6035D03*
X1418Y5835D03*
X1518Y5835D03*
X1418Y5635D03*
X1518Y5635D03*
X1418Y5435D03*
X1518Y5435D03*
X1418Y4635D03*
X1518Y4635D03*
X1418Y4435D03*
X1518Y4435D03*
X1418Y4235D03*
X1518Y4235D03*
X1418Y4035D03*
X1518Y4035D03*
X1418Y3835D03*
X1518Y3835D03*
X1418Y2835D03*
X1518Y2835D03*
X1418Y2635D03*
X1518Y2635D03*
X1418Y2435D03*
X1518Y2435D03*
X1418Y2235D03*
X1518Y2235D03*
X1418Y1835D03*
X1518Y1835D03*
X1418Y1635D03*
X1518Y1635D03*
X1418Y1435D03*
X1518Y1435D03*
X1418Y1235D03*
X1519Y1235D03*
X1418Y1035D03*
X1518Y1035D03*
X1418Y835D03*
X1518Y835D03*
X1418Y635D03*
X1518Y635D03*
X1418Y435D03*
X1518Y435D03*
G54D11*
X818Y435D03*
X1218Y435D03*
X218Y435D03*
X618Y435D03*
X218Y635D03*
X618Y635D03*
X218Y835D03*
X618Y835D03*
X218Y1035D03*
X618Y1035D03*
X219Y1235D03*
X619Y1235D03*
X218Y1435D03*
X618Y1435D03*
X218Y1635D03*
X618Y1635D03*
X218Y1835D03*
X618Y1835D03*
X218Y2235D03*
X618Y2235D03*
X218Y2435D03*
X618Y2435D03*
X218Y2635D03*
X618Y2635D03*
X218Y2835D03*
X618Y2835D03*
X218Y3635D03*
X618Y3635D03*
X218Y3835D03*
X618Y3835D03*
X218Y4035D03*
X618Y4035D03*
X218Y4235D03*
X618Y4235D03*
X218Y4435D03*
X618Y4435D03*
X218Y4635D03*
X618Y4635D03*
X218Y5435D03*
X618Y5435D03*
X218Y5635D03*
X618Y5635D03*
X218Y5835D03*
X618Y5835D03*
X218Y6035D03*
X618Y6035D03*
X218Y6235D03*
X618Y6235D03*
X218Y6435D03*
X618Y6435D03*
X7418Y735D03*
X7818Y735D03*
X7418Y935D03*
X7818Y935D03*
X7418Y1135D03*
X7818Y1135D03*
X7418Y1335D03*
X7818Y1335D03*
X7418Y1535D03*
X7818Y1535D03*
X7418Y1735D03*
X7818Y1735D03*
X7418Y1935D03*
X7818Y1935D03*
X7418Y2135D03*
X7818Y2135D03*
X7418Y2835D03*
X7818Y2835D03*
X7418Y3035D03*
X7818Y3035D03*
X7418Y3235D03*
X7818Y3235D03*
X7418Y3435D03*
X7818Y3435D03*
X7418Y4035D03*
X7818Y4035D03*
X7418Y4235D03*
X7818Y4235D03*
X7418Y4435D03*
X7818Y4435D03*
X7418Y4635D03*
X7818Y4635D03*
X7418Y4835D03*
X7818Y4835D03*
X7418Y5035D03*
X7818Y5035D03*
X7418Y5435D03*
X7818Y5435D03*
X7418Y5635D03*
X7818Y5635D03*
X7418Y5835D03*
X7818Y5835D03*
X7418Y6035D03*
X7818Y6035D03*
X7418Y6235D03*
X7818Y6235D03*
X7418Y6435D03*
X7818Y6435D03*
X818Y635D03*
X1218Y635D03*
X818Y835D03*
X1218Y835D03*
X818Y1035D03*
X1218Y1035D03*
X819Y1235D03*
X1219Y1235D03*
X818Y1435D03*
X1218Y1435D03*
X818Y1635D03*
X1218Y1635D03*
X818Y1835D03*
X1218Y1835D03*
X818Y2235D03*
X1218Y2235D03*
X818Y2435D03*
X1218Y2435D03*
X818Y2635D03*
X1218Y2635D03*
X818Y2835D03*
X1218Y2835D03*
X818Y3635D03*
X1218Y3635D03*
X818Y3835D03*
X1218Y3835D03*
X818Y4035D03*
X1218Y4035D03*
X818Y4235D03*
X1218Y4235D03*
X818Y4435D03*
X1218Y4435D03*
X818Y4635D03*
X1218Y4635D03*
X818Y5435D03*
X1218Y5435D03*
X818Y5635D03*
X1218Y5635D03*
X818Y5835D03*
X1218Y5835D03*
X818Y6035D03*
X1218Y6035D03*
X818Y6235D03*
X1218Y6235D03*
X818Y6435D03*
X1218Y6435D03*
X6818Y735D03*
X7218Y735D03*
X6818Y935D03*
X7218Y935D03*
X6818Y1135D03*
X7218Y1135D03*
X6818Y1335D03*
X7218Y1335D03*
X6818Y1535D03*
X7218Y1535D03*
X6818Y1735D03*
X7218Y1735D03*
X6818Y1935D03*
X7218Y1935D03*
X6818Y2135D03*
X7218Y2135D03*
X6818Y2835D03*
X7218Y2835D03*
X6818Y3035D03*
X7218Y3035D03*
X6818Y3235D03*
X7218Y3235D03*
X6818Y3435D03*
X7218Y3435D03*
X6818Y4035D03*
X7218Y4035D03*
X6818Y4235D03*
X7218Y4235D03*
X6818Y4435D03*
X7218Y4435D03*
X6818Y4635D03*
X7218Y4635D03*
X6818Y4835D03*
X7218Y4835D03*
X6818Y5035D03*
X7218Y5035D03*
X6818Y5435D03*
X7218Y5435D03*
X6818Y5635D03*
X7218Y5635D03*
X6818Y5835D03*
X7218Y5835D03*
X6818Y6035D03*
X7218Y6035D03*
X6818Y6235D03*
X7218Y6235D03*
X6818Y6435D03*
X7218Y6435D03*
G54D13*
X3018Y1035D03*
X3018Y835D03*
X3018Y635D03*
X2118Y735D03*
X2118Y935D03*
X2118Y1135D03*
X4318Y5735D03*
X4218Y5235D03*
X4318Y4735D03*
X4218Y4235D03*
X4318Y3635D03*
X4218Y3135D03*
X4318Y2335D03*
X4518Y1835D03*
X4218Y1835D03*
X3018Y1935D03*
X3018Y2135D03*
X5118Y2635D03*
X6218Y935D03*
X6218Y1135D03*
X6218Y1335D03*
X5218Y1035D03*
X5218Y1235D03*
X5218Y1435D03*
X5118Y2435D03*
X5018Y6735D03*
X3818Y6735D03*
X3418Y6735D03*
X1318Y335D03*
X1318Y535D03*
X1318Y735D03*
X1318Y935D03*
X1318Y1135D03*
X1318Y1335D03*
X1318Y1535D03*
X1318Y1735D03*
X1318Y2335D03*
X1318Y2535D03*
X1318Y2735D03*
X1318Y2935D03*
X1318Y3535D03*
X1318Y3735D03*
X1318Y3935D03*
X1318Y4135D03*
X1318Y4335D03*
X1318Y4535D03*
X1318Y5535D03*
X1318Y5735D03*
X1318Y5935D03*
X1318Y6135D03*
X1318Y6335D03*
X1318Y6535D03*
X6718Y635D03*
X6718Y835D03*
X6718Y1035D03*
X6718Y1235D03*
X6718Y1435D03*
X6718Y1635D03*
X6718Y1835D03*
X6718Y2035D03*
X6718Y2735D03*
X6718Y2935D03*
X6718Y3135D03*
X6718Y3335D03*
X6718Y3935D03*
X6718Y4135D03*
X6718Y4335D03*
X6718Y4535D03*
X6718Y4735D03*
X6718Y4935D03*
X6718Y5535D03*
X6718Y5735D03*
X6718Y5935D03*
X6718Y6135D03*
X6718Y6335D03*
X6718Y6535D03*
X1318Y5035D03*
X4018Y935D03*
X6118Y6835D03*
X718Y335D03*
X718Y535D03*
X718Y735D03*
X718Y935D03*
X718Y1135D03*
X718Y1335D03*
X718Y1535D03*
X718Y1735D03*
X718Y2335D03*
X718Y2535D03*
X718Y2735D03*
X718Y2935D03*
X718Y3535D03*
X718Y3735D03*
X718Y3935D03*
X718Y4135D03*
X718Y4335D03*
X718Y4535D03*
X718Y5535D03*
X718Y5735D03*
X718Y5935D03*
X718Y6135D03*
X718Y6335D03*
X718Y6535D03*
X7318Y635D03*
X7318Y835D03*
X7318Y1035D03*
X7318Y1235D03*
X7318Y1435D03*
X7318Y1635D03*
X7318Y1835D03*
X7318Y2035D03*
X7318Y2735D03*
X7318Y2935D03*
X7318Y3135D03*
X7318Y3335D03*
X7318Y3935D03*
X7318Y4135D03*
X7318Y4335D03*
X7318Y4535D03*
X7318Y4735D03*
X7318Y4935D03*
X7318Y5535D03*
X7318Y5735D03*
X7318Y5935D03*
X7318Y6135D03*
X7318Y6335D03*
X7318Y6535D03*
G54D14*
X5318Y6235D03*
X5218Y5935D03*
X6218Y5735D03*
X4618Y5035D03*
X6218Y5135D03*
X5318Y5135D03*
X5918Y4935D03*
X5218Y4935D03*
X4718Y4935D03*
X4718Y5135D03*
X5818Y4735D03*
X5318Y4732D03*
X5218Y4435D03*
X4918Y4435D03*
X5120Y4335D03*
X4718Y4435D03*
X4618Y4335D03*
X4916Y4335D03*
X6018Y5335D03*
X4718Y3035D03*
X4718Y4235D03*
X6218Y4035D03*
X6218Y3635D03*
X6018Y3535D03*
X6016Y2535D03*
X6016Y2137D03*
X5118Y2035D03*
X5919Y2234D03*
X6320Y2734D03*
X6016Y3237D03*
X6320Y3237D03*
X5318Y1935D03*
X5318Y2735D03*
X5218Y2535D03*
X5218Y1835D03*
X5118Y2235D03*
X5018Y2135D03*
X5118Y2835D03*
X4618Y2835D03*
X6418Y1735D03*
X6417Y1436D03*
X6417Y1235D03*
X5118Y735D03*
X3518Y5635D03*
X3518Y5435D03*
X3618Y5535D03*
X2218Y6035D03*
X2218Y5335D03*
X3318Y5335D03*
X3618Y5335D03*
X2118Y4635D03*
X2017Y4533D03*
X3518Y4535D03*
X3618Y4635D03*
X2018Y5835D03*
X2018Y5335D03*
X1718Y4835D03*
X2418Y4835D03*
X1918Y4835D03*
X2218Y4335D03*
X3618Y4435D03*
X3518Y4435D03*
X2218Y3535D03*
X3518Y3035D03*
X2218Y3035D03*
X3318Y3035D03*
X3718Y3335D03*
X3318Y3135D03*
X3118Y3835D03*
X3618Y3435D03*
X3718Y3535D03*
X3218Y4035D03*
X1918Y2035D03*
X1918Y1535D03*
X2118Y1935D03*
X3118Y1735D03*
X3718Y1735D03*
X1818Y2335D03*
X2818Y2635D03*
X1818Y2835D03*
X2518Y2833D03*
X2415Y2937D03*
X3918Y1935D03*
X3118Y2335D03*
X1818Y1735D03*
X1818Y1435D03*
X2319Y1435D03*
X3118Y2035D03*
X3818Y3735D03*
X3818Y2435D03*
X3120Y3435D03*
X3217Y3334D03*
X3317Y3234D03*
X2918Y3433D03*
X2918Y3335D03*
X2918Y3235D03*
X5218Y6335D03*
X3118Y1835D03*
X2320Y1837D03*
X3818Y4835D03*
G54D15*
X2418Y2535D03*
X5518Y1535D03*
X5518Y2935D03*
X5518Y4435D03*
X5518Y6135D03*
X2418Y1235D03*
X2418Y4235D03*
X2418Y6135D03*
G54D16*
X418Y6835D02*
X226Y6451D01*
D02*
X3618Y6835D02*
X418Y6835D01*
D02*
X218Y5435D02*
X218Y4652D01*
D02*
X218Y4635D02*
X218Y4452D01*
D02*
X218Y5617D02*
X218Y5452D01*
D02*
X218Y4435D02*
X218Y4252D01*
D02*
X218Y4235D02*
X218Y4052D01*
D02*
X218Y4035D02*
X218Y3852D01*
D02*
X218Y3835D02*
X218Y3652D01*
D02*
X218Y3635D02*
X218Y2852D01*
D02*
X218Y2835D02*
X218Y2652D01*
D02*
X218Y2635D02*
X218Y2452D01*
D02*
X218Y2435D02*
X218Y2252D01*
D02*
X218Y2235D02*
X218Y1852D01*
D02*
X218Y1835D02*
X218Y1652D01*
D02*
X218Y1635D02*
X218Y1452D01*
D02*
X218Y1435D02*
X218Y1252D01*
D02*
X219Y1235D02*
X218Y1052D01*
D02*
X218Y1035D02*
X218Y852D01*
D02*
X218Y835D02*
X218Y652D01*
D02*
X218Y635D02*
X218Y452D01*
D02*
X218Y6417D02*
X218Y6252D01*
D02*
X218Y6217D02*
X218Y6052D01*
D02*
X218Y6017D02*
X218Y5852D01*
D02*
X218Y5817D02*
X218Y5652D01*
D02*
X3818Y3743D02*
X3820Y4836D01*
D02*
X1325Y5049D02*
X1512Y5421D01*
D02*
X1512Y4648D02*
X1325Y5021D01*
D02*
X4519Y5836D02*
X4519Y4837D01*
D02*
X4519Y4837D02*
X4434Y4835D01*
D02*
X4432Y5836D02*
X4519Y5836D01*
D02*
X4516Y5834D02*
X4516Y6838D01*
D02*
X4416Y5837D02*
X4516Y5834D01*
D02*
X4516Y6838D02*
X6103Y6835D01*
D02*
X4519Y4837D02*
X4518Y3735D01*
D02*
X4518Y3735D02*
X4434Y3735D01*
D02*
X4434Y4835D02*
X4519Y4837D01*
D02*
X4518Y3735D02*
X4518Y2436D01*
D02*
X4518Y2436D02*
X4434Y2435D01*
D02*
X4434Y3735D02*
X4518Y3735D01*
D02*
X4017Y1636D02*
X4107Y1724D01*
D02*
X4018Y951D02*
X4017Y1636D01*
D02*
X4021Y3036D02*
X4019Y4035D01*
D02*
X4019Y4035D02*
X4107Y4124D01*
D02*
X4102Y3035D02*
X4021Y3036D01*
D02*
X4017Y1734D02*
X4019Y2936D01*
D02*
X4019Y2936D02*
X4107Y3024D01*
D02*
X4102Y1735D02*
X4017Y1734D01*
D02*
X3618Y6133D02*
X2736Y6135D01*
D02*
X3618Y6835D02*
X3618Y6133D01*
D02*
X4516Y6838D02*
X3618Y6835D01*
D02*
X6103Y6835D02*
X4516Y6838D01*
D02*
X2919Y2532D02*
X2919Y1238D01*
D02*
X2919Y1238D02*
X2736Y1235D01*
D02*
X2736Y2535D02*
X2919Y2532D01*
D02*
X2919Y3135D02*
X2819Y3135D01*
D02*
X2819Y3135D02*
X2819Y4236D01*
D02*
X2919Y2532D02*
X2919Y3135D01*
D02*
X2819Y4236D02*
X2736Y4235D01*
D02*
X2736Y2535D02*
X2919Y2532D01*
D02*
X3719Y4235D02*
X3719Y6134D01*
D02*
X3719Y6134D02*
X2736Y6135D01*
D02*
X2819Y4236D02*
X3719Y4235D01*
D02*
X2736Y4235D02*
X2819Y4236D01*
D02*
X6117Y6134D02*
X5836Y6135D01*
D02*
X6118Y6819D02*
X6117Y6134D01*
D02*
X6117Y6134D02*
X6120Y4436D01*
D02*
X6120Y4436D02*
X5836Y4435D01*
D02*
X5836Y6135D02*
X6117Y6134D01*
D02*
X6116Y4436D02*
X6121Y2933D01*
D02*
X6121Y2933D02*
X5836Y2935D01*
D02*
X5818Y4435D02*
X6116Y4436D01*
D02*
X6119Y1538D02*
X5836Y1535D01*
D02*
X5818Y2935D02*
X6121Y2933D01*
D02*
X6121Y2933D02*
X6119Y1538D01*
D02*
X5419Y934D02*
X5501Y935D01*
D02*
X4018Y935D02*
X5419Y934D01*
D02*
X4018Y536D02*
X2419Y536D01*
D02*
X2419Y536D02*
X2418Y617D01*
D02*
X4018Y935D02*
X4018Y536D01*
D02*
X5419Y934D02*
X5419Y2334D01*
D02*
X5419Y2334D02*
X5501Y2335D01*
D02*
X5518Y935D02*
X5419Y934D01*
D02*
X5419Y3835D02*
X5018Y3835D01*
D02*
X5419Y2334D02*
X5419Y3835D01*
D02*
X5018Y3835D02*
X5501Y3835D01*
D02*
X5518Y2335D02*
X5419Y2334D01*
D02*
X5020Y3834D02*
X5020Y4836D01*
D02*
X5419Y4837D02*
X5418Y5535D01*
D02*
X5418Y5535D02*
X5501Y5535D01*
D02*
X5518Y3835D02*
X5020Y3834D01*
D02*
X5020Y4836D02*
X5419Y4837D01*
D02*
X2218Y1933D02*
X2402Y1933D01*
D02*
X2218Y1837D02*
X2218Y1933D01*
D02*
X2020Y634D02*
X2020Y1836D01*
D02*
X2020Y1836D02*
X2218Y1837D01*
D02*
X2401Y635D02*
X2020Y634D01*
D02*
X2218Y1933D02*
X2218Y1837D01*
D02*
X2218Y1837D02*
X2020Y1836D01*
D02*
X2020Y1836D02*
X2020Y3637D01*
D02*
X2020Y3637D02*
X2401Y3635D01*
D02*
X2420Y1933D02*
X2218Y1933D01*
D02*
X2020Y3637D02*
X2017Y4433D01*
D02*
X1820Y4433D02*
X1820Y5234D01*
D02*
X2017Y4433D02*
X1820Y4433D01*
D02*
X1820Y5234D02*
X2420Y5234D01*
D02*
X2418Y3635D02*
X2020Y3637D01*
D02*
X2420Y5234D02*
X2418Y5517D01*
D02*
X6518Y4050D02*
X6518Y4220D01*
D02*
X6518Y4250D02*
X6518Y4420D01*
D02*
X6518Y4450D02*
X6518Y4620D01*
D02*
X6518Y4650D02*
X6518Y4820D01*
D02*
X6518Y4850D02*
X6518Y5020D01*
D02*
X6518Y5050D02*
X6518Y5420D01*
D02*
X6518Y6250D02*
X6518Y6420D01*
D02*
X6518Y6050D02*
X6518Y6220D01*
D02*
X6518Y5850D02*
X6518Y6020D01*
D02*
X6518Y5650D02*
X6518Y5820D01*
D02*
X6518Y5450D02*
X6518Y5620D01*
D02*
X7317Y6836D02*
X7805Y6446D01*
D02*
X6134Y6835D02*
X7317Y6836D01*
D02*
X7818Y6417D02*
X7818Y6252D01*
D02*
X7818Y6217D02*
X7818Y6052D01*
D02*
X7818Y6017D02*
X7818Y5852D01*
D02*
X7818Y5817D02*
X7818Y5652D01*
D02*
X7818Y5617D02*
X7818Y5452D01*
D02*
X7818Y5417D02*
X7818Y5052D01*
D02*
X7818Y5017D02*
X7818Y4852D01*
D02*
X7818Y4817D02*
X7818Y4652D01*
D02*
X7818Y4617D02*
X7818Y4452D01*
D02*
X7818Y4417D02*
X7818Y4252D01*
D02*
X7818Y4217D02*
X7818Y4052D01*
D02*
X6518Y3450D02*
X6518Y4020D01*
D02*
X6518Y3250D02*
X6518Y3420D01*
D02*
X6518Y3050D02*
X6518Y3220D01*
D02*
X6518Y2850D02*
X6518Y3020D01*
D02*
X6518Y2150D02*
X6518Y2820D01*
D02*
X6518Y1950D02*
X6518Y2120D01*
D02*
X6518Y1750D02*
X6518Y1920D01*
D02*
X6518Y1550D02*
X6518Y1720D01*
D02*
X6518Y1350D02*
X6518Y1520D01*
D02*
X6518Y1150D02*
X6518Y1320D01*
D02*
X6518Y950D02*
X6518Y1120D01*
D02*
X6518Y750D02*
X6518Y920D01*
D02*
X6519Y533D02*
X6518Y720D01*
D02*
X4018Y536D02*
X6519Y533D01*
D02*
X4018Y935D02*
X4018Y536D01*
D02*
X7818Y3452D02*
X7818Y4017D01*
D02*
X7818Y3252D02*
X7818Y3417D01*
D02*
X7818Y3052D02*
X7818Y3217D01*
D02*
X7818Y2852D02*
X7818Y3017D01*
D02*
X7818Y2152D02*
X7818Y2817D01*
D02*
X7818Y1952D02*
X7818Y2117D01*
D02*
X7818Y1752D02*
X7818Y1917D01*
D02*
X7818Y1552D02*
X7818Y1717D01*
D02*
X7818Y1352D02*
X7818Y1517D01*
D02*
X7818Y1152D02*
X7818Y1317D01*
D02*
X7818Y952D02*
X7818Y1117D01*
D02*
X7818Y752D02*
X7818Y917D01*
D02*
X5317Y5732D02*
X5318Y6227D01*
D02*
X5501Y5735D02*
X5317Y5732D01*
D02*
X5316Y5036D02*
X5318Y5127D01*
D02*
X4626Y5035D02*
X5316Y5036D01*
D02*
X6218Y5143D02*
X6218Y5727D01*
D02*
X4726Y4935D02*
X5210Y4935D01*
D02*
X5021Y5133D02*
X4726Y5135D01*
D02*
X5018Y6719D02*
X5021Y5133D01*
D02*
X5918Y4943D02*
X5917Y5535D01*
D02*
X5917Y5535D02*
X5836Y5535D01*
D02*
X5325Y4732D02*
X5810Y4735D01*
D02*
X4726Y4435D02*
X4910Y4435D01*
D02*
X5218Y4427D02*
X5218Y4336D01*
D02*
X5218Y4336D02*
X5501Y4335D01*
D02*
X5117Y4134D02*
X5501Y4135D01*
D02*
X4626Y4335D02*
X4908Y4335D01*
D02*
X5120Y4327D02*
X5117Y4134D01*
D02*
X6018Y5343D02*
X6017Y5935D01*
D02*
X6017Y5935D02*
X5836Y5935D01*
D02*
X4718Y3043D02*
X4718Y4227D01*
D02*
X6218Y3643D02*
X6218Y4027D01*
D02*
X6018Y3543D02*
X6019Y4236D01*
D02*
X6019Y4236D02*
X5836Y4235D01*
D02*
X5919Y2242D02*
X5919Y2734D01*
D02*
X5919Y2734D02*
X5836Y2735D01*
D02*
X6016Y2145D02*
X6016Y2527D01*
D02*
X4434Y2035D02*
X5110Y2035D01*
D02*
X5518Y3237D02*
X6008Y3237D01*
D02*
X6320Y3229D02*
X6320Y2742D01*
D02*
X5518Y2952D02*
X5518Y3237D01*
D02*
X5318Y2727D02*
X5318Y1943D01*
D02*
X5218Y2527D02*
X5218Y1843D01*
D02*
X4434Y2135D02*
X5010Y2135D01*
D02*
X4434Y2235D02*
X5110Y2235D01*
D02*
X4626Y2835D02*
X5110Y2835D01*
D02*
X6418Y1727D02*
X6417Y1444D01*
D02*
X5126Y735D02*
X6418Y736D01*
D02*
X6418Y736D02*
X6417Y1227D01*
D02*
X6203Y1135D02*
X5836Y1135D01*
D02*
X6203Y935D02*
X5836Y935D01*
D02*
X1518Y6250D02*
X1518Y6420D01*
D02*
X1518Y6050D02*
X1518Y6220D01*
D02*
X1518Y5850D02*
X1518Y6020D01*
D02*
X1518Y5650D02*
X1518Y5820D01*
D02*
X1518Y5450D02*
X1518Y5620D01*
D02*
X1518Y4450D02*
X1518Y4620D01*
D02*
X1518Y4250D02*
X1518Y4420D01*
D02*
X1518Y4050D02*
X1518Y4220D01*
D02*
X1518Y3850D02*
X1518Y4020D01*
D02*
X1518Y3650D02*
X1518Y3820D01*
D02*
X1518Y2850D02*
X1518Y3620D01*
D02*
X1518Y2650D02*
X1518Y2820D01*
D02*
X1518Y2450D02*
X1518Y2620D01*
D02*
X1518Y2250D02*
X1518Y2420D01*
D02*
X1518Y1850D02*
X1518Y2220D01*
D02*
X1518Y1650D02*
X1518Y1820D01*
D02*
X1518Y1450D02*
X1518Y1620D01*
D02*
X1518Y1250D02*
X1518Y1420D01*
D02*
X1518Y1050D02*
X1518Y1220D01*
D02*
X1518Y850D02*
X1518Y1020D01*
D02*
X1518Y650D02*
X1518Y820D01*
D02*
X2419Y434D02*
X1533Y435D01*
D02*
X4018Y536D02*
X2419Y536D01*
D02*
X2419Y536D02*
X2419Y434D01*
D02*
X4018Y919D02*
X4018Y536D01*
D02*
X3818Y3727D02*
X3818Y2443D01*
D02*
X3818Y6719D02*
X3817Y5935D01*
D02*
X3817Y5935D02*
X4103Y5840D01*
D02*
X3518Y5935D02*
X2736Y5935D01*
D02*
X3518Y5643D02*
X3518Y5935D01*
D02*
X3216Y5436D02*
X3216Y5537D01*
D02*
X3216Y5537D02*
X2736Y5535D01*
D02*
X3510Y5435D02*
X3216Y5436D01*
D02*
X3317Y5537D02*
X3317Y5733D01*
D02*
X3317Y5733D02*
X2736Y5735D01*
D02*
X3610Y5535D02*
X3317Y5537D01*
D02*
X2218Y5343D02*
X2218Y6027D01*
D02*
X3610Y5335D02*
X3326Y5335D01*
D02*
X3610Y4635D02*
X2126Y4635D01*
D02*
X3510Y4535D02*
X2518Y4535D01*
D02*
X2518Y4535D02*
X2025Y4533D01*
D02*
X2018Y5343D02*
X2018Y5827D01*
D02*
X2410Y4835D02*
X1926Y4835D01*
D02*
X3621Y4337D02*
X2226Y4335D01*
D02*
X3619Y4427D02*
X3621Y4337D01*
D02*
X3510Y4435D02*
X2118Y4433D01*
D02*
X2118Y4433D02*
X2118Y3934D01*
D02*
X2118Y3934D02*
X2401Y3935D01*
D02*
X2218Y3043D02*
X2218Y3527D01*
D02*
X3510Y3035D02*
X3326Y3035D01*
D02*
X3721Y3132D02*
X3326Y3135D01*
D02*
X3718Y3327D02*
X3721Y3132D01*
D02*
X3618Y3443D02*
X3620Y3833D01*
D02*
X3620Y3833D02*
X3126Y3835D01*
D02*
X3721Y4035D02*
X3226Y4035D01*
D02*
X3718Y3543D02*
X3721Y4035D01*
D02*
X1918Y1543D02*
X1918Y2027D01*
D02*
X3710Y1735D02*
X3126Y1735D01*
D02*
X2818Y2643D02*
X2816Y2836D01*
D02*
X2816Y2836D02*
X2526Y2833D01*
D02*
X1818Y2827D02*
X1818Y2343D01*
D02*
X2418Y2552D02*
X2416Y2929D01*
D02*
X3621Y1933D02*
X3621Y2133D01*
D02*
X3621Y2133D02*
X3121Y2134D01*
D02*
X3910Y1935D02*
X3621Y1933D01*
D02*
X3121Y2134D02*
X3118Y2327D01*
D02*
X2118Y2235D02*
X2401Y2235D01*
D02*
X2118Y1943D02*
X2118Y2235D01*
D02*
X1818Y1443D02*
X1818Y1727D01*
D02*
X3519Y1838D02*
X3126Y1835D01*
D02*
X2320Y1829D02*
X2319Y1443D01*
D02*
X3519Y2033D02*
X3519Y1838D01*
D02*
X3126Y2035D02*
X3519Y2033D01*
D02*
X3112Y3435D02*
X2926Y3433D01*
D02*
X3209Y3334D02*
X2926Y3335D01*
D02*
X3309Y3234D02*
X2926Y3235D01*
D02*
X5218Y5943D02*
X5218Y6327D01*
D02*
X4019Y4134D02*
X4019Y5134D01*
D02*
X4019Y5134D02*
X4102Y5135D01*
D02*
X4102Y4135D02*
X4019Y4134D01*
D02*
X3820Y4836D02*
X3820Y4836D01*
D02*
X4102Y5835D02*
X3817Y5835D01*
D02*
X3817Y5835D02*
X3818Y4843D01*
G54D17*
X4092Y5861D02*
X4145Y5861D01*
X4392Y5861D02*
X4445Y5861D01*
X4086Y5860D02*
X4151Y5860D01*
X4386Y5860D02*
X4451Y5860D01*
X4083Y5859D02*
X4154Y5859D01*
X4383Y5859D02*
X4454Y5859D01*
X4081Y5858D02*
X4156Y5858D01*
X4381Y5858D02*
X4456Y5858D01*
X4079Y5857D02*
X4158Y5857D01*
X4379Y5857D02*
X4458Y5857D01*
X4078Y5856D02*
X4159Y5856D01*
X4378Y5856D02*
X4459Y5856D01*
X4077Y5855D02*
X4161Y5855D01*
X4377Y5855D02*
X4461Y5855D01*
X4075Y5854D02*
X4162Y5854D01*
X4375Y5854D02*
X4462Y5854D01*
X4074Y5853D02*
X4163Y5853D01*
X4374Y5853D02*
X4463Y5853D01*
X4073Y5852D02*
X4164Y5852D01*
X4373Y5852D02*
X4464Y5852D01*
X4073Y5851D02*
X4117Y5851D01*
X4120Y5851D02*
X4164Y5851D01*
X4373Y5851D02*
X4417Y5851D01*
X4420Y5851D02*
X4464Y5851D01*
X4072Y5850D02*
X4112Y5850D01*
X4125Y5850D02*
X4165Y5850D01*
X4372Y5850D02*
X4412Y5850D01*
X4425Y5850D02*
X4465Y5850D01*
X4071Y5849D02*
X4110Y5849D01*
X4127Y5849D02*
X4166Y5849D01*
X4371Y5849D02*
X4410Y5849D01*
X4427Y5849D02*
X4466Y5849D01*
X4071Y5848D02*
X4109Y5848D01*
X4128Y5848D02*
X4166Y5848D01*
X4371Y5848D02*
X4409Y5848D01*
X4428Y5848D02*
X4466Y5848D01*
X4070Y5847D02*
X4107Y5847D01*
X4130Y5847D02*
X4167Y5847D01*
X4370Y5847D02*
X4407Y5847D01*
X4430Y5847D02*
X4467Y5847D01*
X4070Y5846D02*
X4106Y5846D01*
X4131Y5846D02*
X4168Y5846D01*
X4370Y5846D02*
X4406Y5846D01*
X4431Y5846D02*
X4468Y5846D01*
X4069Y5845D02*
X4106Y5845D01*
X4132Y5845D02*
X4168Y5845D01*
X4369Y5845D02*
X4406Y5845D01*
X4431Y5845D02*
X4468Y5845D01*
X4069Y5844D02*
X4105Y5844D01*
X4132Y5844D02*
X4168Y5844D01*
X4369Y5844D02*
X4405Y5844D01*
X4432Y5844D02*
X4468Y5844D01*
X4068Y5843D02*
X4104Y5843D01*
X4133Y5843D02*
X4169Y5843D01*
X4368Y5843D02*
X4404Y5843D01*
X4433Y5843D02*
X4469Y5843D01*
X4068Y5842D02*
X4104Y5842D01*
X4133Y5842D02*
X4169Y5842D01*
X4368Y5842D02*
X4404Y5842D01*
X4433Y5842D02*
X4469Y5842D01*
X4068Y5841D02*
X4103Y5841D01*
X4134Y5841D02*
X4169Y5841D01*
X4368Y5841D02*
X4403Y5841D01*
X4434Y5841D02*
X4469Y5841D01*
X4068Y5840D02*
X4103Y5840D01*
X4134Y5840D02*
X4170Y5840D01*
X4368Y5840D02*
X4403Y5840D01*
X4434Y5840D02*
X4470Y5840D01*
X4067Y5839D02*
X4103Y5839D01*
X4135Y5839D02*
X4170Y5839D01*
X4367Y5839D02*
X4403Y5839D01*
X4434Y5839D02*
X4470Y5839D01*
X4067Y5838D02*
X4102Y5838D01*
X4135Y5838D02*
X4170Y5838D01*
X4367Y5838D02*
X4402Y5838D01*
X4435Y5838D02*
X4470Y5838D01*
X4067Y5837D02*
X4102Y5837D01*
X4135Y5837D02*
X4170Y5837D01*
X4367Y5837D02*
X4402Y5837D01*
X4435Y5837D02*
X4470Y5837D01*
X4067Y5836D02*
X4102Y5836D01*
X4135Y5836D02*
X4170Y5836D01*
X4367Y5836D02*
X4402Y5836D01*
X4435Y5836D02*
X4470Y5836D01*
X4067Y5835D02*
X4102Y5835D01*
X4135Y5835D02*
X4170Y5835D01*
X4367Y5835D02*
X4402Y5835D01*
X4435Y5835D02*
X4470Y5835D01*
X4067Y5834D02*
X4102Y5834D01*
X4135Y5834D02*
X4170Y5834D01*
X4367Y5834D02*
X4402Y5834D01*
X4435Y5834D02*
X4470Y5834D01*
X4067Y5833D02*
X4102Y5833D01*
X4135Y5833D02*
X4170Y5833D01*
X4367Y5833D02*
X4402Y5833D01*
X4435Y5833D02*
X4470Y5833D01*
X4067Y5832D02*
X4102Y5832D01*
X4135Y5832D02*
X4170Y5832D01*
X4367Y5832D02*
X4402Y5832D01*
X4435Y5832D02*
X4470Y5832D01*
X4067Y5831D02*
X4103Y5831D01*
X4134Y5831D02*
X4170Y5831D01*
X4367Y5831D02*
X4403Y5831D01*
X4434Y5831D02*
X4470Y5831D01*
X4068Y5830D02*
X4103Y5830D01*
X4134Y5830D02*
X4170Y5830D01*
X4368Y5830D02*
X4403Y5830D01*
X4434Y5830D02*
X4470Y5830D01*
X4068Y5829D02*
X4103Y5829D01*
X4134Y5829D02*
X4169Y5829D01*
X4368Y5829D02*
X4403Y5829D01*
X4434Y5829D02*
X4469Y5829D01*
X4068Y5828D02*
X4104Y5828D01*
X4133Y5828D02*
X4169Y5828D01*
X4368Y5828D02*
X4404Y5828D01*
X4433Y5828D02*
X4469Y5828D01*
X4068Y5827D02*
X4104Y5827D01*
X4133Y5827D02*
X4169Y5827D01*
X4368Y5827D02*
X4404Y5827D01*
X4433Y5827D02*
X4469Y5827D01*
X4069Y5826D02*
X4105Y5826D01*
X4132Y5826D02*
X4168Y5826D01*
X4369Y5826D02*
X4405Y5826D01*
X4432Y5826D02*
X4468Y5826D01*
X4069Y5825D02*
X4106Y5825D01*
X4131Y5825D02*
X4168Y5825D01*
X4369Y5825D02*
X4406Y5825D01*
X4431Y5825D02*
X4468Y5825D01*
X4070Y5824D02*
X4107Y5824D01*
X4131Y5824D02*
X4168Y5824D01*
X4370Y5824D02*
X4407Y5824D01*
X4431Y5824D02*
X4467Y5824D01*
X4070Y5823D02*
X4108Y5823D01*
X4129Y5823D02*
X4167Y5823D01*
X4370Y5823D02*
X4408Y5823D01*
X4429Y5823D02*
X4467Y5823D01*
X4071Y5822D02*
X4109Y5822D01*
X4128Y5822D02*
X4166Y5822D01*
X4371Y5822D02*
X4409Y5822D01*
X4428Y5822D02*
X4466Y5822D01*
X4071Y5821D02*
X4111Y5821D01*
X4127Y5821D02*
X4166Y5821D01*
X4371Y5821D02*
X4411Y5821D01*
X4426Y5821D02*
X4466Y5821D01*
X4072Y5820D02*
X4113Y5820D01*
X4124Y5820D02*
X4165Y5820D01*
X4372Y5820D02*
X4413Y5820D01*
X4424Y5820D02*
X4465Y5820D01*
X4073Y5819D02*
X4164Y5819D01*
X4373Y5819D02*
X4464Y5819D01*
X4074Y5818D02*
X4164Y5818D01*
X4374Y5818D02*
X4464Y5818D01*
X4074Y5817D02*
X4163Y5817D01*
X4374Y5817D02*
X4463Y5817D01*
X4076Y5816D02*
X4162Y5816D01*
X4375Y5816D02*
X4462Y5816D01*
X4077Y5815D02*
X4160Y5815D01*
X4377Y5815D02*
X4460Y5815D01*
X4078Y5814D02*
X4159Y5814D01*
X4378Y5814D02*
X4459Y5814D01*
X4079Y5813D02*
X4158Y5813D01*
X4379Y5813D02*
X4458Y5813D01*
X4081Y5812D02*
X4156Y5812D01*
X4381Y5812D02*
X4456Y5812D01*
X4083Y5811D02*
X4154Y5811D01*
X4383Y5811D02*
X4454Y5811D01*
X4086Y5810D02*
X4151Y5810D01*
X4386Y5810D02*
X4451Y5810D01*
X4091Y5761D02*
X4146Y5761D01*
X4391Y5761D02*
X4446Y5761D01*
X4086Y5760D02*
X4151Y5760D01*
X4386Y5760D02*
X4451Y5760D01*
X4083Y5759D02*
X4154Y5759D01*
X4383Y5759D02*
X4454Y5759D01*
X4081Y5758D02*
X4156Y5758D01*
X4381Y5758D02*
X4456Y5758D01*
X4079Y5757D02*
X4158Y5757D01*
X4379Y5757D02*
X4458Y5757D01*
X4078Y5756D02*
X4159Y5756D01*
X4378Y5756D02*
X4459Y5756D01*
X4077Y5755D02*
X4161Y5755D01*
X4377Y5755D02*
X4461Y5755D01*
X4075Y5754D02*
X4162Y5754D01*
X4375Y5754D02*
X4462Y5754D01*
X4074Y5753D02*
X4163Y5753D01*
X4374Y5753D02*
X4463Y5753D01*
X4073Y5752D02*
X4164Y5752D01*
X4373Y5752D02*
X4464Y5752D01*
X4073Y5751D02*
X4117Y5751D01*
X4120Y5751D02*
X4164Y5751D01*
X4373Y5751D02*
X4417Y5751D01*
X4420Y5751D02*
X4464Y5751D01*
X4072Y5750D02*
X4112Y5750D01*
X4125Y5750D02*
X4165Y5750D01*
X4372Y5750D02*
X4412Y5750D01*
X4425Y5750D02*
X4465Y5750D01*
X4071Y5749D02*
X4110Y5749D01*
X4127Y5749D02*
X4166Y5749D01*
X4371Y5749D02*
X4410Y5749D01*
X4427Y5749D02*
X4466Y5749D01*
X4071Y5748D02*
X4109Y5748D01*
X4128Y5748D02*
X4166Y5748D01*
X4371Y5748D02*
X4409Y5748D01*
X4428Y5748D02*
X4466Y5748D01*
X4070Y5747D02*
X4107Y5747D01*
X4130Y5747D02*
X4167Y5747D01*
X4370Y5747D02*
X4407Y5747D01*
X4430Y5747D02*
X4467Y5747D01*
X4070Y5746D02*
X4106Y5746D01*
X4131Y5746D02*
X4168Y5746D01*
X4370Y5746D02*
X4406Y5746D01*
X4431Y5746D02*
X4468Y5746D01*
X4069Y5745D02*
X4106Y5745D01*
X4132Y5745D02*
X4168Y5745D01*
X4369Y5745D02*
X4406Y5745D01*
X4431Y5745D02*
X4468Y5745D01*
X4069Y5744D02*
X4105Y5744D01*
X4132Y5744D02*
X4168Y5744D01*
X4369Y5744D02*
X4405Y5744D01*
X4432Y5744D02*
X4468Y5744D01*
X4068Y5743D02*
X4104Y5743D01*
X4133Y5743D02*
X4169Y5743D01*
X4368Y5743D02*
X4404Y5743D01*
X4433Y5743D02*
X4469Y5743D01*
X4068Y5742D02*
X4104Y5742D01*
X4133Y5742D02*
X4169Y5742D01*
X4368Y5742D02*
X4404Y5742D01*
X4433Y5742D02*
X4469Y5742D01*
X4068Y5741D02*
X4103Y5741D01*
X4134Y5741D02*
X4169Y5741D01*
X4368Y5741D02*
X4403Y5741D01*
X4434Y5741D02*
X4469Y5741D01*
X4068Y5740D02*
X4103Y5740D01*
X4134Y5740D02*
X4170Y5740D01*
X4368Y5740D02*
X4403Y5740D01*
X4434Y5740D02*
X4470Y5740D01*
X4067Y5739D02*
X4103Y5739D01*
X4135Y5739D02*
X4170Y5739D01*
X4367Y5739D02*
X4403Y5739D01*
X4434Y5739D02*
X4470Y5739D01*
X4067Y5738D02*
X4102Y5738D01*
X4135Y5738D02*
X4170Y5738D01*
X4367Y5738D02*
X4402Y5738D01*
X4435Y5738D02*
X4470Y5738D01*
X4067Y5737D02*
X4102Y5737D01*
X4135Y5737D02*
X4170Y5737D01*
X4367Y5737D02*
X4402Y5737D01*
X4435Y5737D02*
X4470Y5737D01*
X4067Y5736D02*
X4102Y5736D01*
X4135Y5736D02*
X4170Y5736D01*
X4367Y5736D02*
X4402Y5736D01*
X4435Y5736D02*
X4470Y5736D01*
X4067Y5735D02*
X4102Y5735D01*
X4135Y5735D02*
X4170Y5735D01*
X4367Y5735D02*
X4402Y5735D01*
X4435Y5735D02*
X4470Y5735D01*
X4067Y5734D02*
X4102Y5734D01*
X4135Y5734D02*
X4170Y5734D01*
X4367Y5734D02*
X4402Y5734D01*
X4435Y5734D02*
X4470Y5734D01*
X4067Y5733D02*
X4102Y5733D01*
X4135Y5733D02*
X4170Y5733D01*
X4367Y5733D02*
X4402Y5733D01*
X4435Y5733D02*
X4470Y5733D01*
X4067Y5732D02*
X4102Y5732D01*
X4135Y5732D02*
X4170Y5732D01*
X4367Y5732D02*
X4402Y5732D01*
X4435Y5732D02*
X4470Y5732D01*
X4067Y5731D02*
X4103Y5731D01*
X4134Y5731D02*
X4170Y5731D01*
X4367Y5731D02*
X4403Y5731D01*
X4434Y5731D02*
X4470Y5731D01*
X4068Y5730D02*
X4103Y5730D01*
X4134Y5730D02*
X4170Y5730D01*
X4368Y5730D02*
X4403Y5730D01*
X4434Y5730D02*
X4470Y5730D01*
X4068Y5729D02*
X4103Y5729D01*
X4134Y5729D02*
X4169Y5729D01*
X4368Y5729D02*
X4403Y5729D01*
X4434Y5729D02*
X4469Y5729D01*
X4068Y5728D02*
X4104Y5728D01*
X4133Y5728D02*
X4169Y5728D01*
X4368Y5728D02*
X4404Y5728D01*
X4433Y5728D02*
X4469Y5728D01*
X4068Y5727D02*
X4104Y5727D01*
X4133Y5727D02*
X4169Y5727D01*
X4368Y5727D02*
X4404Y5727D01*
X4433Y5727D02*
X4469Y5727D01*
X4069Y5726D02*
X4105Y5726D01*
X4132Y5726D02*
X4168Y5726D01*
X4369Y5726D02*
X4405Y5726D01*
X4432Y5726D02*
X4468Y5726D01*
X4069Y5725D02*
X4106Y5725D01*
X4131Y5725D02*
X4168Y5725D01*
X4369Y5725D02*
X4406Y5725D01*
X4431Y5725D02*
X4468Y5725D01*
X4070Y5724D02*
X4107Y5724D01*
X4131Y5724D02*
X4168Y5724D01*
X4370Y5724D02*
X4407Y5724D01*
X4431Y5724D02*
X4467Y5724D01*
X4070Y5723D02*
X4108Y5723D01*
X4129Y5723D02*
X4167Y5723D01*
X4370Y5723D02*
X4408Y5723D01*
X4429Y5723D02*
X4467Y5723D01*
X4071Y5722D02*
X4109Y5722D01*
X4128Y5722D02*
X4166Y5722D01*
X4371Y5722D02*
X4409Y5722D01*
X4428Y5722D02*
X4466Y5722D01*
X4071Y5721D02*
X4111Y5721D01*
X4127Y5721D02*
X4166Y5721D01*
X4371Y5721D02*
X4411Y5721D01*
X4426Y5721D02*
X4466Y5721D01*
X4072Y5720D02*
X4113Y5720D01*
X4124Y5720D02*
X4165Y5720D01*
X4372Y5720D02*
X4413Y5720D01*
X4424Y5720D02*
X4465Y5720D01*
X4073Y5719D02*
X4164Y5719D01*
X4373Y5719D02*
X4464Y5719D01*
X4074Y5718D02*
X4164Y5718D01*
X4374Y5718D02*
X4464Y5718D01*
X4074Y5717D02*
X4163Y5717D01*
X4374Y5717D02*
X4463Y5717D01*
X4076Y5716D02*
X4162Y5716D01*
X4375Y5716D02*
X4462Y5716D01*
X4077Y5715D02*
X4160Y5715D01*
X4377Y5715D02*
X4460Y5715D01*
X4078Y5714D02*
X4159Y5714D01*
X4378Y5714D02*
X4459Y5714D01*
X4079Y5713D02*
X4158Y5713D01*
X4379Y5713D02*
X4458Y5713D01*
X4081Y5712D02*
X4156Y5712D01*
X4381Y5712D02*
X4456Y5712D01*
X4083Y5711D02*
X4154Y5711D01*
X4383Y5711D02*
X4454Y5711D01*
X4086Y5710D02*
X4151Y5710D01*
X4386Y5710D02*
X4451Y5710D01*
X4091Y5661D02*
X4146Y5661D01*
X4391Y5661D02*
X4446Y5661D01*
X4086Y5660D02*
X4151Y5660D01*
X4386Y5660D02*
X4451Y5660D01*
X4083Y5659D02*
X4154Y5659D01*
X4383Y5659D02*
X4454Y5659D01*
X4081Y5658D02*
X4156Y5658D01*
X4381Y5658D02*
X4456Y5658D01*
X4079Y5657D02*
X4158Y5657D01*
X4379Y5657D02*
X4458Y5657D01*
X4078Y5656D02*
X4159Y5656D01*
X4378Y5656D02*
X4459Y5656D01*
X4077Y5655D02*
X4161Y5655D01*
X4377Y5655D02*
X4461Y5655D01*
X4075Y5654D02*
X4162Y5654D01*
X4375Y5654D02*
X4462Y5654D01*
X4074Y5653D02*
X4163Y5653D01*
X4374Y5653D02*
X4463Y5653D01*
X4073Y5652D02*
X4164Y5652D01*
X4373Y5652D02*
X4464Y5652D01*
X4073Y5651D02*
X4117Y5651D01*
X4120Y5651D02*
X4164Y5651D01*
X4373Y5651D02*
X4417Y5651D01*
X4420Y5651D02*
X4464Y5651D01*
X4072Y5650D02*
X4112Y5650D01*
X4125Y5650D02*
X4165Y5650D01*
X4372Y5650D02*
X4412Y5650D01*
X4425Y5650D02*
X4465Y5650D01*
X4071Y5649D02*
X4110Y5649D01*
X4127Y5649D02*
X4166Y5649D01*
X4371Y5649D02*
X4410Y5649D01*
X4427Y5649D02*
X4466Y5649D01*
X4071Y5648D02*
X4109Y5648D01*
X4128Y5648D02*
X4166Y5648D01*
X4371Y5648D02*
X4409Y5648D01*
X4428Y5648D02*
X4466Y5648D01*
X4070Y5647D02*
X4107Y5647D01*
X4130Y5647D02*
X4167Y5647D01*
X4370Y5647D02*
X4407Y5647D01*
X4430Y5647D02*
X4467Y5647D01*
X4070Y5646D02*
X4106Y5646D01*
X4131Y5646D02*
X4168Y5646D01*
X4370Y5646D02*
X4406Y5646D01*
X4431Y5646D02*
X4468Y5646D01*
X4069Y5645D02*
X4106Y5645D01*
X4132Y5645D02*
X4168Y5645D01*
X4369Y5645D02*
X4406Y5645D01*
X4432Y5645D02*
X4468Y5645D01*
X4069Y5644D02*
X4105Y5644D01*
X4132Y5644D02*
X4168Y5644D01*
X4369Y5644D02*
X4405Y5644D01*
X4432Y5644D02*
X4468Y5644D01*
X4068Y5643D02*
X4104Y5643D01*
X4133Y5643D02*
X4169Y5643D01*
X4368Y5643D02*
X4404Y5643D01*
X4433Y5643D02*
X4469Y5643D01*
X4068Y5642D02*
X4104Y5642D01*
X4133Y5642D02*
X4169Y5642D01*
X4368Y5642D02*
X4404Y5642D01*
X4433Y5642D02*
X4469Y5642D01*
X4068Y5641D02*
X4103Y5641D01*
X4134Y5641D02*
X4169Y5641D01*
X4368Y5641D02*
X4403Y5641D01*
X4434Y5641D02*
X4469Y5641D01*
X4068Y5640D02*
X4103Y5640D01*
X4134Y5640D02*
X4170Y5640D01*
X4368Y5640D02*
X4403Y5640D01*
X4434Y5640D02*
X4470Y5640D01*
X4067Y5639D02*
X4103Y5639D01*
X4135Y5639D02*
X4170Y5639D01*
X4367Y5639D02*
X4403Y5639D01*
X4435Y5639D02*
X4470Y5639D01*
X4067Y5638D02*
X4102Y5638D01*
X4135Y5638D02*
X4170Y5638D01*
X4367Y5638D02*
X4402Y5638D01*
X4435Y5638D02*
X4470Y5638D01*
X4067Y5637D02*
X4102Y5637D01*
X4135Y5637D02*
X4170Y5637D01*
X4367Y5637D02*
X4402Y5637D01*
X4435Y5637D02*
X4470Y5637D01*
X4067Y5636D02*
X4102Y5636D01*
X4135Y5636D02*
X4170Y5636D01*
X4367Y5636D02*
X4402Y5636D01*
X4435Y5636D02*
X4470Y5636D01*
X4067Y5635D02*
X4102Y5635D01*
X4135Y5635D02*
X4170Y5635D01*
X4367Y5635D02*
X4402Y5635D01*
X4435Y5635D02*
X4470Y5635D01*
X4067Y5634D02*
X4102Y5634D01*
X4135Y5634D02*
X4170Y5634D01*
X4367Y5634D02*
X4402Y5634D01*
X4435Y5634D02*
X4470Y5634D01*
X4067Y5633D02*
X4102Y5633D01*
X4135Y5633D02*
X4170Y5633D01*
X4367Y5633D02*
X4402Y5633D01*
X4435Y5633D02*
X4470Y5633D01*
X4067Y5632D02*
X4102Y5632D01*
X4135Y5632D02*
X4170Y5632D01*
X4367Y5632D02*
X4402Y5632D01*
X4435Y5632D02*
X4470Y5632D01*
X4067Y5631D02*
X4103Y5631D01*
X4134Y5631D02*
X4170Y5631D01*
X4367Y5631D02*
X4403Y5631D01*
X4434Y5631D02*
X4470Y5631D01*
X4068Y5630D02*
X4103Y5630D01*
X4134Y5630D02*
X4170Y5630D01*
X4368Y5630D02*
X4403Y5630D01*
X4434Y5630D02*
X4470Y5630D01*
X4068Y5629D02*
X4103Y5629D01*
X4134Y5629D02*
X4169Y5629D01*
X4368Y5629D02*
X4403Y5629D01*
X4434Y5629D02*
X4469Y5629D01*
X4068Y5628D02*
X4104Y5628D01*
X4133Y5628D02*
X4169Y5628D01*
X4368Y5628D02*
X4404Y5628D01*
X4433Y5628D02*
X4469Y5628D01*
X4068Y5627D02*
X4104Y5627D01*
X4133Y5627D02*
X4169Y5627D01*
X4368Y5627D02*
X4404Y5627D01*
X4433Y5627D02*
X4469Y5627D01*
X4069Y5626D02*
X4105Y5626D01*
X4132Y5626D02*
X4168Y5626D01*
X4369Y5626D02*
X4405Y5626D01*
X4432Y5626D02*
X4468Y5626D01*
X4069Y5625D02*
X4106Y5625D01*
X4131Y5625D02*
X4168Y5625D01*
X4369Y5625D02*
X4406Y5625D01*
X4431Y5625D02*
X4468Y5625D01*
X4070Y5624D02*
X4107Y5624D01*
X4131Y5624D02*
X4168Y5624D01*
X4370Y5624D02*
X4407Y5624D01*
X4431Y5624D02*
X4467Y5624D01*
X4070Y5623D02*
X4108Y5623D01*
X4129Y5623D02*
X4167Y5623D01*
X4370Y5623D02*
X4408Y5623D01*
X4429Y5623D02*
X4467Y5623D01*
X4071Y5622D02*
X4109Y5622D01*
X4128Y5622D02*
X4166Y5622D01*
X4371Y5622D02*
X4409Y5622D01*
X4428Y5622D02*
X4466Y5622D01*
X4071Y5621D02*
X4111Y5621D01*
X4127Y5621D02*
X4166Y5621D01*
X4371Y5621D02*
X4411Y5621D01*
X4426Y5621D02*
X4466Y5621D01*
X4072Y5620D02*
X4113Y5620D01*
X4124Y5620D02*
X4165Y5620D01*
X4372Y5620D02*
X4413Y5620D01*
X4424Y5620D02*
X4465Y5620D01*
X4073Y5619D02*
X4164Y5619D01*
X4373Y5619D02*
X4464Y5619D01*
X4074Y5618D02*
X4164Y5618D01*
X4374Y5618D02*
X4463Y5618D01*
X4074Y5617D02*
X4163Y5617D01*
X4374Y5617D02*
X4463Y5617D01*
X4076Y5616D02*
X4162Y5616D01*
X4376Y5616D02*
X4462Y5616D01*
X4077Y5615D02*
X4160Y5615D01*
X4377Y5615D02*
X4460Y5615D01*
X4078Y5614D02*
X4159Y5614D01*
X4378Y5614D02*
X4459Y5614D01*
X4079Y5613D02*
X4158Y5613D01*
X4379Y5613D02*
X4458Y5613D01*
X4081Y5612D02*
X4156Y5612D01*
X4381Y5612D02*
X4456Y5612D01*
X4083Y5611D02*
X4154Y5611D01*
X4383Y5611D02*
X4454Y5611D01*
X4086Y5610D02*
X4151Y5610D01*
X4386Y5610D02*
X4451Y5610D01*
X4091Y5561D02*
X4146Y5561D01*
X4391Y5561D02*
X4446Y5561D01*
X4086Y5560D02*
X4152Y5560D01*
X4386Y5560D02*
X4451Y5560D01*
X4083Y5559D02*
X4154Y5559D01*
X4383Y5559D02*
X4454Y5559D01*
X4081Y5558D02*
X4156Y5558D01*
X4381Y5558D02*
X4456Y5558D01*
X4079Y5557D02*
X4158Y5557D01*
X4379Y5557D02*
X4458Y5557D01*
X4078Y5556D02*
X4159Y5556D01*
X4378Y5556D02*
X4459Y5556D01*
X4077Y5555D02*
X4161Y5555D01*
X4377Y5555D02*
X4461Y5555D01*
X4075Y5554D02*
X4162Y5554D01*
X4375Y5554D02*
X4462Y5554D01*
X4074Y5553D02*
X4163Y5553D01*
X4374Y5553D02*
X4463Y5553D01*
X4073Y5552D02*
X4164Y5552D01*
X4373Y5552D02*
X4464Y5552D01*
X4073Y5551D02*
X4117Y5551D01*
X4120Y5551D02*
X4164Y5551D01*
X4373Y5551D02*
X4417Y5551D01*
X4420Y5551D02*
X4464Y5551D01*
X4072Y5550D02*
X4112Y5550D01*
X4125Y5550D02*
X4165Y5550D01*
X4372Y5550D02*
X4412Y5550D01*
X4425Y5550D02*
X4465Y5550D01*
X4071Y5549D02*
X4110Y5549D01*
X4127Y5549D02*
X4166Y5549D01*
X4371Y5549D02*
X4410Y5549D01*
X4427Y5549D02*
X4466Y5549D01*
X4071Y5548D02*
X4109Y5548D01*
X4128Y5548D02*
X4167Y5548D01*
X4371Y5548D02*
X4409Y5548D01*
X4428Y5548D02*
X4466Y5548D01*
X4070Y5547D02*
X4107Y5547D01*
X4130Y5547D02*
X4167Y5547D01*
X4370Y5547D02*
X4407Y5547D01*
X4430Y5547D02*
X4467Y5547D01*
X4070Y5546D02*
X4106Y5546D01*
X4131Y5546D02*
X4168Y5546D01*
X4370Y5546D02*
X4406Y5546D01*
X4431Y5546D02*
X4468Y5546D01*
X4069Y5545D02*
X4106Y5545D01*
X4132Y5545D02*
X4168Y5545D01*
X4369Y5545D02*
X4406Y5545D01*
X4432Y5545D02*
X4468Y5545D01*
X4069Y5544D02*
X4105Y5544D01*
X4132Y5544D02*
X4168Y5544D01*
X4369Y5544D02*
X4405Y5544D01*
X4432Y5544D02*
X4468Y5544D01*
X4068Y5543D02*
X4104Y5543D01*
X4133Y5543D02*
X4169Y5543D01*
X4368Y5543D02*
X4404Y5543D01*
X4433Y5543D02*
X4469Y5543D01*
X4068Y5542D02*
X4104Y5542D01*
X4133Y5542D02*
X4169Y5542D01*
X4368Y5542D02*
X4404Y5542D01*
X4433Y5542D02*
X4469Y5542D01*
X4068Y5541D02*
X4103Y5541D01*
X4134Y5541D02*
X4169Y5541D01*
X4368Y5541D02*
X4403Y5541D01*
X4434Y5541D02*
X4469Y5541D01*
X4068Y5540D02*
X4103Y5540D01*
X4134Y5540D02*
X4170Y5540D01*
X4368Y5540D02*
X4403Y5540D01*
X4434Y5540D02*
X4470Y5540D01*
X4067Y5539D02*
X4103Y5539D01*
X4135Y5539D02*
X4170Y5539D01*
X4367Y5539D02*
X4403Y5539D01*
X4435Y5539D02*
X4470Y5539D01*
X4067Y5538D02*
X4102Y5538D01*
X4135Y5538D02*
X4170Y5538D01*
X4367Y5538D02*
X4402Y5538D01*
X4435Y5538D02*
X4470Y5538D01*
X4067Y5537D02*
X4102Y5537D01*
X4135Y5537D02*
X4170Y5537D01*
X4367Y5537D02*
X4402Y5537D01*
X4435Y5537D02*
X4470Y5537D01*
X4067Y5536D02*
X4102Y5536D01*
X4135Y5536D02*
X4170Y5536D01*
X4367Y5536D02*
X4402Y5536D01*
X4435Y5536D02*
X4470Y5536D01*
X4067Y5535D02*
X4102Y5535D01*
X4135Y5535D02*
X4170Y5535D01*
X4367Y5535D02*
X4402Y5535D01*
X4435Y5535D02*
X4470Y5535D01*
X4067Y5534D02*
X4102Y5534D01*
X4135Y5534D02*
X4170Y5534D01*
X4367Y5534D02*
X4402Y5534D01*
X4435Y5534D02*
X4470Y5534D01*
X4067Y5533D02*
X4102Y5533D01*
X4135Y5533D02*
X4170Y5533D01*
X4367Y5533D02*
X4402Y5533D01*
X4435Y5533D02*
X4470Y5533D01*
X4067Y5532D02*
X4102Y5532D01*
X4135Y5532D02*
X4170Y5532D01*
X4367Y5532D02*
X4402Y5532D01*
X4435Y5532D02*
X4470Y5532D01*
X4067Y5531D02*
X4103Y5531D01*
X4134Y5531D02*
X4170Y5531D01*
X4367Y5531D02*
X4403Y5531D01*
X4434Y5531D02*
X4470Y5531D01*
X4068Y5530D02*
X4103Y5530D01*
X4134Y5530D02*
X4170Y5530D01*
X4368Y5530D02*
X4403Y5530D01*
X4434Y5530D02*
X4470Y5530D01*
X4068Y5529D02*
X4103Y5529D01*
X4134Y5529D02*
X4169Y5529D01*
X4368Y5529D02*
X4403Y5529D01*
X4434Y5529D02*
X4469Y5529D01*
X4068Y5528D02*
X4104Y5528D01*
X4133Y5528D02*
X4169Y5528D01*
X4368Y5528D02*
X4404Y5528D01*
X4433Y5528D02*
X4469Y5528D01*
X4068Y5527D02*
X4104Y5527D01*
X4133Y5527D02*
X4169Y5527D01*
X4368Y5527D02*
X4404Y5527D01*
X4433Y5527D02*
X4469Y5527D01*
X4069Y5526D02*
X4105Y5526D01*
X4132Y5526D02*
X4168Y5526D01*
X4369Y5526D02*
X4405Y5526D01*
X4432Y5526D02*
X4468Y5526D01*
X4069Y5525D02*
X4106Y5525D01*
X4131Y5525D02*
X4168Y5525D01*
X4369Y5525D02*
X4406Y5525D01*
X4431Y5525D02*
X4468Y5525D01*
X4070Y5524D02*
X4107Y5524D01*
X4131Y5524D02*
X4167Y5524D01*
X4370Y5524D02*
X4407Y5524D01*
X4431Y5524D02*
X4467Y5524D01*
X4070Y5523D02*
X4108Y5523D01*
X4129Y5523D02*
X4167Y5523D01*
X4370Y5523D02*
X4408Y5523D01*
X4429Y5523D02*
X4467Y5523D01*
X4071Y5522D02*
X4109Y5522D01*
X4128Y5522D02*
X4166Y5522D01*
X4371Y5522D02*
X4409Y5522D01*
X4428Y5522D02*
X4466Y5522D01*
X4071Y5521D02*
X4111Y5521D01*
X4127Y5521D02*
X4166Y5521D01*
X4371Y5521D02*
X4411Y5521D01*
X4426Y5521D02*
X4466Y5521D01*
X4072Y5520D02*
X4113Y5520D01*
X4124Y5520D02*
X4165Y5520D01*
X4372Y5520D02*
X4413Y5520D01*
X4424Y5520D02*
X4465Y5520D01*
X4073Y5519D02*
X4164Y5519D01*
X4373Y5519D02*
X4464Y5519D01*
X4074Y5518D02*
X4164Y5518D01*
X4374Y5518D02*
X4463Y5518D01*
X4074Y5517D02*
X4163Y5517D01*
X4374Y5517D02*
X4463Y5517D01*
X4076Y5516D02*
X4162Y5516D01*
X4376Y5516D02*
X4462Y5516D01*
X4077Y5515D02*
X4160Y5515D01*
X4377Y5515D02*
X4460Y5515D01*
X4078Y5514D02*
X4159Y5514D01*
X4378Y5514D02*
X4459Y5514D01*
X4080Y5513D02*
X4158Y5513D01*
X4379Y5513D02*
X4458Y5513D01*
X4081Y5512D02*
X4156Y5512D01*
X4381Y5512D02*
X4456Y5512D01*
X4083Y5511D02*
X4154Y5511D01*
X4383Y5511D02*
X4454Y5511D01*
X4086Y5510D02*
X4151Y5510D01*
X4386Y5510D02*
X4451Y5510D01*
X4091Y5461D02*
X4146Y5461D01*
X4391Y5461D02*
X4446Y5461D01*
X4086Y5460D02*
X4152Y5460D01*
X4386Y5460D02*
X4451Y5460D01*
X4083Y5459D02*
X4154Y5459D01*
X4383Y5459D02*
X4454Y5459D01*
X4081Y5458D02*
X4156Y5458D01*
X4381Y5458D02*
X4456Y5458D01*
X4079Y5457D02*
X4158Y5457D01*
X4379Y5457D02*
X4458Y5457D01*
X4078Y5456D02*
X4159Y5456D01*
X4378Y5456D02*
X4459Y5456D01*
X4077Y5455D02*
X4161Y5455D01*
X4377Y5455D02*
X4461Y5455D01*
X4075Y5454D02*
X4162Y5454D01*
X4375Y5454D02*
X4462Y5454D01*
X4074Y5453D02*
X4163Y5453D01*
X4374Y5453D02*
X4463Y5453D01*
X4073Y5452D02*
X4164Y5452D01*
X4373Y5452D02*
X4464Y5452D01*
X4073Y5451D02*
X4117Y5451D01*
X4120Y5451D02*
X4164Y5451D01*
X4373Y5451D02*
X4417Y5451D01*
X4420Y5451D02*
X4464Y5451D01*
X4072Y5450D02*
X4112Y5450D01*
X4125Y5450D02*
X4165Y5450D01*
X4372Y5450D02*
X4412Y5450D01*
X4425Y5450D02*
X4465Y5450D01*
X4071Y5449D02*
X4110Y5449D01*
X4127Y5449D02*
X4166Y5449D01*
X4371Y5449D02*
X4410Y5449D01*
X4427Y5449D02*
X4466Y5449D01*
X4071Y5448D02*
X4109Y5448D01*
X4128Y5448D02*
X4167Y5448D01*
X4371Y5448D02*
X4409Y5448D01*
X4428Y5448D02*
X4466Y5448D01*
X4070Y5447D02*
X4107Y5447D01*
X4130Y5447D02*
X4167Y5447D01*
X4370Y5447D02*
X4407Y5447D01*
X4430Y5447D02*
X4467Y5447D01*
X4070Y5446D02*
X4106Y5446D01*
X4131Y5446D02*
X4168Y5446D01*
X4370Y5446D02*
X4406Y5446D01*
X4431Y5446D02*
X4468Y5446D01*
X4069Y5445D02*
X4106Y5445D01*
X4132Y5445D02*
X4168Y5445D01*
X4369Y5445D02*
X4406Y5445D01*
X4432Y5445D02*
X4468Y5445D01*
X4069Y5444D02*
X4105Y5444D01*
X4132Y5444D02*
X4168Y5444D01*
X4369Y5444D02*
X4405Y5444D01*
X4432Y5444D02*
X4468Y5444D01*
X4068Y5443D02*
X4104Y5443D01*
X4133Y5443D02*
X4169Y5443D01*
X4368Y5443D02*
X4404Y5443D01*
X4433Y5443D02*
X4469Y5443D01*
X4068Y5442D02*
X4104Y5442D01*
X4133Y5442D02*
X4169Y5442D01*
X4368Y5442D02*
X4404Y5442D01*
X4433Y5442D02*
X4469Y5442D01*
X4068Y5441D02*
X4103Y5441D01*
X4134Y5441D02*
X4169Y5441D01*
X4368Y5441D02*
X4403Y5441D01*
X4434Y5441D02*
X4469Y5441D01*
X4068Y5440D02*
X4103Y5440D01*
X4134Y5440D02*
X4170Y5440D01*
X4368Y5440D02*
X4403Y5440D01*
X4434Y5440D02*
X4470Y5440D01*
X4067Y5439D02*
X4103Y5439D01*
X4135Y5439D02*
X4170Y5439D01*
X4367Y5439D02*
X4403Y5439D01*
X4435Y5439D02*
X4470Y5439D01*
X4067Y5438D02*
X4102Y5438D01*
X4135Y5438D02*
X4170Y5438D01*
X4367Y5438D02*
X4402Y5438D01*
X4435Y5438D02*
X4470Y5438D01*
X4067Y5437D02*
X4102Y5437D01*
X4135Y5437D02*
X4170Y5437D01*
X4367Y5437D02*
X4402Y5437D01*
X4435Y5437D02*
X4470Y5437D01*
X4067Y5436D02*
X4102Y5436D01*
X4135Y5436D02*
X4170Y5436D01*
X4367Y5436D02*
X4402Y5436D01*
X4435Y5436D02*
X4470Y5436D01*
X4067Y5435D02*
X4102Y5435D01*
X4135Y5435D02*
X4170Y5435D01*
X4367Y5435D02*
X4402Y5435D01*
X4435Y5435D02*
X4470Y5435D01*
X4067Y5434D02*
X4102Y5434D01*
X4135Y5434D02*
X4170Y5434D01*
X4367Y5434D02*
X4402Y5434D01*
X4435Y5434D02*
X4470Y5434D01*
X4067Y5433D02*
X4102Y5433D01*
X4135Y5433D02*
X4170Y5433D01*
X4367Y5433D02*
X4402Y5433D01*
X4435Y5433D02*
X4470Y5433D01*
X4067Y5432D02*
X4102Y5432D01*
X4135Y5432D02*
X4170Y5432D01*
X4367Y5432D02*
X4402Y5432D01*
X4435Y5432D02*
X4470Y5432D01*
X4067Y5431D02*
X4103Y5431D01*
X4134Y5431D02*
X4170Y5431D01*
X4367Y5431D02*
X4403Y5431D01*
X4434Y5431D02*
X4470Y5431D01*
X4068Y5430D02*
X4103Y5430D01*
X4134Y5430D02*
X4170Y5430D01*
X4368Y5430D02*
X4403Y5430D01*
X4434Y5430D02*
X4470Y5430D01*
X4068Y5429D02*
X4103Y5429D01*
X4134Y5429D02*
X4169Y5429D01*
X4368Y5429D02*
X4403Y5429D01*
X4434Y5429D02*
X4469Y5429D01*
X4068Y5428D02*
X4104Y5428D01*
X4133Y5428D02*
X4169Y5428D01*
X4368Y5428D02*
X4404Y5428D01*
X4433Y5428D02*
X4469Y5428D01*
X4068Y5427D02*
X4104Y5427D01*
X4133Y5427D02*
X4169Y5427D01*
X4368Y5427D02*
X4404Y5427D01*
X4433Y5427D02*
X4469Y5427D01*
X4069Y5426D02*
X4105Y5426D01*
X4132Y5426D02*
X4168Y5426D01*
X4369Y5426D02*
X4405Y5426D01*
X4432Y5426D02*
X4468Y5426D01*
X4069Y5425D02*
X4106Y5425D01*
X4131Y5425D02*
X4168Y5425D01*
X4369Y5425D02*
X4406Y5425D01*
X4431Y5425D02*
X4468Y5425D01*
X4070Y5424D02*
X4107Y5424D01*
X4131Y5424D02*
X4167Y5424D01*
X4370Y5424D02*
X4407Y5424D01*
X4431Y5424D02*
X4467Y5424D01*
X4070Y5423D02*
X4108Y5423D01*
X4129Y5423D02*
X4167Y5423D01*
X4370Y5423D02*
X4408Y5423D01*
X4429Y5423D02*
X4467Y5423D01*
X4071Y5422D02*
X4109Y5422D01*
X4128Y5422D02*
X4166Y5422D01*
X4371Y5422D02*
X4409Y5422D01*
X4428Y5422D02*
X4466Y5422D01*
X4071Y5421D02*
X4111Y5421D01*
X4126Y5421D02*
X4166Y5421D01*
X4371Y5421D02*
X4411Y5421D01*
X4426Y5421D02*
X4466Y5421D01*
X4072Y5420D02*
X4113Y5420D01*
X4124Y5420D02*
X4165Y5420D01*
X4372Y5420D02*
X4413Y5420D01*
X4424Y5420D02*
X4465Y5420D01*
X4073Y5419D02*
X4164Y5419D01*
X4373Y5419D02*
X4464Y5419D01*
X4074Y5418D02*
X4164Y5418D01*
X4374Y5418D02*
X4463Y5418D01*
X4074Y5417D02*
X4163Y5417D01*
X4374Y5417D02*
X4463Y5417D01*
X4076Y5416D02*
X4162Y5416D01*
X4376Y5416D02*
X4462Y5416D01*
X4077Y5415D02*
X4160Y5415D01*
X4377Y5415D02*
X4460Y5415D01*
X4078Y5414D02*
X4159Y5414D01*
X4378Y5414D02*
X4459Y5414D01*
X4080Y5413D02*
X4158Y5413D01*
X4379Y5413D02*
X4458Y5413D01*
X4081Y5412D02*
X4156Y5412D01*
X4381Y5412D02*
X4456Y5412D01*
X4083Y5411D02*
X4154Y5411D01*
X4383Y5411D02*
X4454Y5411D01*
X4086Y5410D02*
X4151Y5410D01*
X4386Y5410D02*
X4451Y5410D01*
X4091Y5361D02*
X4146Y5361D01*
X4391Y5361D02*
X4446Y5361D01*
X4086Y5360D02*
X4152Y5360D01*
X4386Y5360D02*
X4451Y5360D01*
X4083Y5359D02*
X4154Y5359D01*
X4383Y5359D02*
X4454Y5359D01*
X4081Y5358D02*
X4156Y5358D01*
X4381Y5358D02*
X4456Y5358D01*
X4079Y5357D02*
X4158Y5357D01*
X4379Y5357D02*
X4458Y5357D01*
X4078Y5356D02*
X4159Y5356D01*
X4378Y5356D02*
X4459Y5356D01*
X4077Y5355D02*
X4161Y5355D01*
X4376Y5355D02*
X4461Y5355D01*
X4075Y5354D02*
X4162Y5354D01*
X4375Y5354D02*
X4462Y5354D01*
X4074Y5353D02*
X4163Y5353D01*
X4374Y5353D02*
X4463Y5353D01*
X4073Y5352D02*
X4164Y5352D01*
X4373Y5352D02*
X4464Y5352D01*
X4073Y5351D02*
X4117Y5351D01*
X4120Y5351D02*
X4164Y5351D01*
X4373Y5351D02*
X4417Y5351D01*
X4420Y5351D02*
X4464Y5351D01*
X4072Y5350D02*
X4112Y5350D01*
X4125Y5350D02*
X4165Y5350D01*
X4372Y5350D02*
X4412Y5350D01*
X4425Y5350D02*
X4465Y5350D01*
X4071Y5349D02*
X4110Y5349D01*
X4127Y5349D02*
X4166Y5349D01*
X4371Y5349D02*
X4410Y5349D01*
X4427Y5349D02*
X4466Y5349D01*
X4071Y5348D02*
X4109Y5348D01*
X4128Y5348D02*
X4167Y5348D01*
X4371Y5348D02*
X4409Y5348D01*
X4428Y5348D02*
X4466Y5348D01*
X4070Y5347D02*
X4107Y5347D01*
X4130Y5347D02*
X4167Y5347D01*
X4370Y5347D02*
X4407Y5347D01*
X4430Y5347D02*
X4467Y5347D01*
X4070Y5346D02*
X4106Y5346D01*
X4131Y5346D02*
X4168Y5346D01*
X4370Y5346D02*
X4406Y5346D01*
X4431Y5346D02*
X4468Y5346D01*
X4069Y5345D02*
X4106Y5345D01*
X4132Y5345D02*
X4168Y5345D01*
X4369Y5345D02*
X4406Y5345D01*
X4432Y5345D02*
X4468Y5345D01*
X4069Y5344D02*
X4105Y5344D01*
X4132Y5344D02*
X4168Y5344D01*
X4369Y5344D02*
X4405Y5344D01*
X4432Y5344D02*
X4468Y5344D01*
X4068Y5343D02*
X4104Y5343D01*
X4133Y5343D02*
X4169Y5343D01*
X4368Y5343D02*
X4404Y5343D01*
X4433Y5343D02*
X4469Y5343D01*
X4068Y5342D02*
X4104Y5342D01*
X4133Y5342D02*
X4169Y5342D01*
X4368Y5342D02*
X4404Y5342D01*
X4433Y5342D02*
X4469Y5342D01*
X4068Y5341D02*
X4103Y5341D01*
X4134Y5341D02*
X4169Y5341D01*
X4368Y5341D02*
X4403Y5341D01*
X4434Y5341D02*
X4469Y5341D01*
X4068Y5340D02*
X4103Y5340D01*
X4134Y5340D02*
X4170Y5340D01*
X4368Y5340D02*
X4403Y5340D01*
X4434Y5340D02*
X4470Y5340D01*
X4067Y5339D02*
X4103Y5339D01*
X4135Y5339D02*
X4170Y5339D01*
X4367Y5339D02*
X4403Y5339D01*
X4435Y5339D02*
X4470Y5339D01*
X4067Y5338D02*
X4102Y5338D01*
X4135Y5338D02*
X4170Y5338D01*
X4367Y5338D02*
X4402Y5338D01*
X4435Y5338D02*
X4470Y5338D01*
X4067Y5337D02*
X4102Y5337D01*
X4135Y5337D02*
X4170Y5337D01*
X4367Y5337D02*
X4402Y5337D01*
X4435Y5337D02*
X4470Y5337D01*
X4067Y5336D02*
X4102Y5336D01*
X4135Y5336D02*
X4170Y5336D01*
X4367Y5336D02*
X4402Y5336D01*
X4435Y5336D02*
X4470Y5336D01*
X4067Y5335D02*
X4102Y5335D01*
X4135Y5335D02*
X4170Y5335D01*
X4367Y5335D02*
X4402Y5335D01*
X4435Y5335D02*
X4470Y5335D01*
X4067Y5334D02*
X4102Y5334D01*
X4135Y5334D02*
X4170Y5334D01*
X4367Y5334D02*
X4402Y5334D01*
X4435Y5334D02*
X4470Y5334D01*
X4067Y5333D02*
X4102Y5333D01*
X4135Y5333D02*
X4170Y5333D01*
X4367Y5333D02*
X4402Y5333D01*
X4435Y5333D02*
X4470Y5333D01*
X4067Y5332D02*
X4102Y5332D01*
X4135Y5332D02*
X4170Y5332D01*
X4367Y5332D02*
X4402Y5332D01*
X4435Y5332D02*
X4470Y5332D01*
X4067Y5331D02*
X4103Y5331D01*
X4134Y5331D02*
X4170Y5331D01*
X4367Y5331D02*
X4403Y5331D01*
X4434Y5331D02*
X4470Y5331D01*
X4068Y5330D02*
X4103Y5330D01*
X4134Y5330D02*
X4170Y5330D01*
X4368Y5330D02*
X4403Y5330D01*
X4434Y5330D02*
X4470Y5330D01*
X4068Y5329D02*
X4103Y5329D01*
X4134Y5329D02*
X4169Y5329D01*
X4368Y5329D02*
X4403Y5329D01*
X4434Y5329D02*
X4469Y5329D01*
X4068Y5328D02*
X4104Y5328D01*
X4133Y5328D02*
X4169Y5328D01*
X4368Y5328D02*
X4404Y5328D01*
X4433Y5328D02*
X4469Y5328D01*
X4068Y5327D02*
X4104Y5327D01*
X4133Y5327D02*
X4169Y5327D01*
X4368Y5327D02*
X4404Y5327D01*
X4433Y5327D02*
X4469Y5327D01*
X4069Y5326D02*
X4105Y5326D01*
X4132Y5326D02*
X4168Y5326D01*
X4369Y5326D02*
X4405Y5326D01*
X4432Y5326D02*
X4468Y5326D01*
X4069Y5325D02*
X4106Y5325D01*
X4131Y5325D02*
X4168Y5325D01*
X4369Y5325D02*
X4406Y5325D01*
X4431Y5325D02*
X4468Y5325D01*
X4070Y5324D02*
X4107Y5324D01*
X4131Y5324D02*
X4167Y5324D01*
X4370Y5324D02*
X4407Y5324D01*
X4431Y5324D02*
X4467Y5324D01*
X4070Y5323D02*
X4108Y5323D01*
X4129Y5323D02*
X4167Y5323D01*
X4370Y5323D02*
X4408Y5323D01*
X4429Y5323D02*
X4467Y5323D01*
X4071Y5322D02*
X4109Y5322D01*
X4128Y5322D02*
X4166Y5322D01*
X4371Y5322D02*
X4409Y5322D01*
X4428Y5322D02*
X4466Y5322D01*
X4071Y5321D02*
X4111Y5321D01*
X4126Y5321D02*
X4166Y5321D01*
X4371Y5321D02*
X4411Y5321D01*
X4426Y5321D02*
X4466Y5321D01*
X4072Y5320D02*
X4113Y5320D01*
X4124Y5320D02*
X4165Y5320D01*
X4372Y5320D02*
X4413Y5320D01*
X4424Y5320D02*
X4465Y5320D01*
X4073Y5319D02*
X4164Y5319D01*
X4373Y5319D02*
X4464Y5319D01*
X4074Y5318D02*
X4164Y5318D01*
X4374Y5318D02*
X4463Y5318D01*
X4074Y5317D02*
X4163Y5317D01*
X4374Y5317D02*
X4463Y5317D01*
X4076Y5316D02*
X4162Y5316D01*
X4376Y5316D02*
X4462Y5316D01*
X4077Y5315D02*
X4160Y5315D01*
X4377Y5315D02*
X4460Y5315D01*
X4078Y5314D02*
X4159Y5314D01*
X4378Y5314D02*
X4459Y5314D01*
X4080Y5313D02*
X4158Y5313D01*
X4379Y5313D02*
X4458Y5313D01*
X4081Y5312D02*
X4156Y5312D01*
X4381Y5312D02*
X4456Y5312D01*
X4083Y5311D02*
X4154Y5311D01*
X4383Y5311D02*
X4454Y5311D01*
X4086Y5310D02*
X4151Y5310D01*
X4386Y5310D02*
X4451Y5310D01*
X4091Y5261D02*
X4146Y5261D01*
X4391Y5261D02*
X4446Y5261D01*
X4086Y5260D02*
X4152Y5260D01*
X4386Y5260D02*
X4452Y5260D01*
X4083Y5259D02*
X4154Y5259D01*
X4383Y5259D02*
X4454Y5259D01*
X4081Y5258D02*
X4156Y5258D01*
X4381Y5258D02*
X4456Y5258D01*
X4079Y5257D02*
X4158Y5257D01*
X4379Y5257D02*
X4458Y5257D01*
X4078Y5256D02*
X4159Y5256D01*
X4378Y5256D02*
X4459Y5256D01*
X4077Y5255D02*
X4161Y5255D01*
X4376Y5255D02*
X4461Y5255D01*
X4075Y5254D02*
X4162Y5254D01*
X4375Y5254D02*
X4462Y5254D01*
X4074Y5253D02*
X4163Y5253D01*
X4374Y5253D02*
X4463Y5253D01*
X4073Y5252D02*
X4164Y5252D01*
X4373Y5252D02*
X4464Y5252D01*
X4073Y5251D02*
X4117Y5251D01*
X4120Y5251D02*
X4165Y5251D01*
X4373Y5251D02*
X4417Y5251D01*
X4420Y5251D02*
X4464Y5251D01*
X4072Y5250D02*
X4112Y5250D01*
X4125Y5250D02*
X4165Y5250D01*
X4372Y5250D02*
X4412Y5250D01*
X4425Y5250D02*
X4465Y5250D01*
X4071Y5249D02*
X4110Y5249D01*
X4127Y5249D02*
X4166Y5249D01*
X4371Y5249D02*
X4410Y5249D01*
X4427Y5249D02*
X4466Y5249D01*
X4071Y5248D02*
X4109Y5248D01*
X4128Y5248D02*
X4167Y5248D01*
X4371Y5248D02*
X4409Y5248D01*
X4428Y5248D02*
X4466Y5248D01*
X4070Y5247D02*
X4107Y5247D01*
X4130Y5247D02*
X4167Y5247D01*
X4370Y5247D02*
X4407Y5247D01*
X4430Y5247D02*
X4467Y5247D01*
X4070Y5246D02*
X4106Y5246D01*
X4131Y5246D02*
X4168Y5246D01*
X4370Y5246D02*
X4406Y5246D01*
X4431Y5246D02*
X4468Y5246D01*
X4069Y5245D02*
X4106Y5245D01*
X4132Y5245D02*
X4168Y5245D01*
X4369Y5245D02*
X4406Y5245D01*
X4432Y5245D02*
X4468Y5245D01*
X4069Y5244D02*
X4105Y5244D01*
X4132Y5244D02*
X4168Y5244D01*
X4369Y5244D02*
X4405Y5244D01*
X4432Y5244D02*
X4468Y5244D01*
X4068Y5243D02*
X4104Y5243D01*
X4133Y5243D02*
X4169Y5243D01*
X4368Y5243D02*
X4404Y5243D01*
X4433Y5243D02*
X4469Y5243D01*
X4068Y5242D02*
X4104Y5242D01*
X4133Y5242D02*
X4169Y5242D01*
X4368Y5242D02*
X4404Y5242D01*
X4433Y5242D02*
X4469Y5242D01*
X4068Y5241D02*
X4103Y5241D01*
X4134Y5241D02*
X4169Y5241D01*
X4368Y5241D02*
X4403Y5241D01*
X4434Y5241D02*
X4469Y5241D01*
X4068Y5240D02*
X4103Y5240D01*
X4134Y5240D02*
X4170Y5240D01*
X4368Y5240D02*
X4403Y5240D01*
X4434Y5240D02*
X4470Y5240D01*
X4067Y5239D02*
X4103Y5239D01*
X4135Y5239D02*
X4170Y5239D01*
X4367Y5239D02*
X4403Y5239D01*
X4435Y5239D02*
X4470Y5239D01*
X4067Y5238D02*
X4102Y5238D01*
X4135Y5238D02*
X4170Y5238D01*
X4367Y5238D02*
X4402Y5238D01*
X4435Y5238D02*
X4470Y5238D01*
X4067Y5237D02*
X4102Y5237D01*
X4135Y5237D02*
X4170Y5237D01*
X4367Y5237D02*
X4402Y5237D01*
X4435Y5237D02*
X4470Y5237D01*
X4067Y5236D02*
X4102Y5236D01*
X4135Y5236D02*
X4170Y5236D01*
X4367Y5236D02*
X4402Y5236D01*
X4435Y5236D02*
X4470Y5236D01*
X4067Y5235D02*
X4102Y5235D01*
X4135Y5235D02*
X4170Y5235D01*
X4367Y5235D02*
X4402Y5235D01*
X4435Y5235D02*
X4470Y5235D01*
X4067Y5234D02*
X4102Y5234D01*
X4135Y5234D02*
X4170Y5234D01*
X4367Y5234D02*
X4402Y5234D01*
X4435Y5234D02*
X4470Y5234D01*
X4067Y5233D02*
X4102Y5233D01*
X4135Y5233D02*
X4170Y5233D01*
X4367Y5233D02*
X4402Y5233D01*
X4435Y5233D02*
X4470Y5233D01*
X4067Y5232D02*
X4102Y5232D01*
X4135Y5232D02*
X4170Y5232D01*
X4367Y5232D02*
X4402Y5232D01*
X4435Y5232D02*
X4470Y5232D01*
X4067Y5231D02*
X4103Y5231D01*
X4134Y5231D02*
X4170Y5231D01*
X4367Y5231D02*
X4403Y5231D01*
X4434Y5231D02*
X4470Y5231D01*
X4068Y5230D02*
X4103Y5230D01*
X4134Y5230D02*
X4170Y5230D01*
X4368Y5230D02*
X4403Y5230D01*
X4434Y5230D02*
X4470Y5230D01*
X4068Y5229D02*
X4103Y5229D01*
X4134Y5229D02*
X4169Y5229D01*
X4368Y5229D02*
X4403Y5229D01*
X4434Y5229D02*
X4469Y5229D01*
X4068Y5228D02*
X4104Y5228D01*
X4133Y5228D02*
X4169Y5228D01*
X4368Y5228D02*
X4404Y5228D01*
X4433Y5228D02*
X4469Y5228D01*
X4068Y5227D02*
X4104Y5227D01*
X4133Y5227D02*
X4169Y5227D01*
X4368Y5227D02*
X4404Y5227D01*
X4433Y5227D02*
X4469Y5227D01*
X4069Y5226D02*
X4105Y5226D01*
X4132Y5226D02*
X4168Y5226D01*
X4369Y5226D02*
X4405Y5226D01*
X4432Y5226D02*
X4468Y5226D01*
X4069Y5225D02*
X4106Y5225D01*
X4131Y5225D02*
X4168Y5225D01*
X4369Y5225D02*
X4406Y5225D01*
X4431Y5225D02*
X4468Y5225D01*
X4070Y5224D02*
X4107Y5224D01*
X4131Y5224D02*
X4167Y5224D01*
X4370Y5224D02*
X4407Y5224D01*
X4431Y5224D02*
X4467Y5224D01*
X4070Y5223D02*
X4108Y5223D01*
X4129Y5223D02*
X4167Y5223D01*
X4370Y5223D02*
X4408Y5223D01*
X4429Y5223D02*
X4467Y5223D01*
X4071Y5222D02*
X4109Y5222D01*
X4128Y5222D02*
X4166Y5222D01*
X4371Y5222D02*
X4409Y5222D01*
X4428Y5222D02*
X4466Y5222D01*
X4071Y5221D02*
X4111Y5221D01*
X4126Y5221D02*
X4166Y5221D01*
X4371Y5221D02*
X4411Y5221D01*
X4426Y5221D02*
X4466Y5221D01*
X4072Y5220D02*
X4113Y5220D01*
X4124Y5220D02*
X4165Y5220D01*
X4372Y5220D02*
X4413Y5220D01*
X4424Y5220D02*
X4465Y5220D01*
X4073Y5219D02*
X4164Y5219D01*
X4373Y5219D02*
X4464Y5219D01*
X4074Y5218D02*
X4164Y5218D01*
X4374Y5218D02*
X4463Y5218D01*
X4074Y5217D02*
X4163Y5217D01*
X4374Y5217D02*
X4463Y5217D01*
X4076Y5216D02*
X4162Y5216D01*
X4376Y5216D02*
X4462Y5216D01*
X4077Y5215D02*
X4160Y5215D01*
X4377Y5215D02*
X4460Y5215D01*
X4078Y5214D02*
X4159Y5214D01*
X4378Y5214D02*
X4459Y5214D01*
X4080Y5213D02*
X4158Y5213D01*
X4380Y5213D02*
X4458Y5213D01*
X4081Y5212D02*
X4156Y5212D01*
X4381Y5212D02*
X4456Y5212D01*
X4083Y5211D02*
X4154Y5211D01*
X4383Y5211D02*
X4454Y5211D01*
X4086Y5210D02*
X4151Y5210D01*
X4386Y5210D02*
X4451Y5210D01*
X4091Y5161D02*
X4146Y5161D01*
X4391Y5161D02*
X4446Y5161D01*
X4086Y5160D02*
X4152Y5160D01*
X4386Y5160D02*
X4452Y5160D01*
X4083Y5159D02*
X4154Y5159D01*
X4383Y5159D02*
X4454Y5159D01*
X4081Y5158D02*
X4156Y5158D01*
X4381Y5158D02*
X4456Y5158D01*
X4079Y5157D02*
X4158Y5157D01*
X4379Y5157D02*
X4458Y5157D01*
X4078Y5156D02*
X4159Y5156D01*
X4378Y5156D02*
X4459Y5156D01*
X4077Y5155D02*
X4161Y5155D01*
X4376Y5155D02*
X4461Y5155D01*
X4075Y5154D02*
X4162Y5154D01*
X4375Y5154D02*
X4462Y5154D01*
X4074Y5153D02*
X4163Y5153D01*
X4374Y5153D02*
X4463Y5153D01*
X4073Y5152D02*
X4164Y5152D01*
X4373Y5152D02*
X4464Y5152D01*
X4073Y5151D02*
X4117Y5151D01*
X4120Y5151D02*
X4165Y5151D01*
X4373Y5151D02*
X4417Y5151D01*
X4420Y5151D02*
X4464Y5151D01*
X4072Y5150D02*
X4112Y5150D01*
X4125Y5150D02*
X4165Y5150D01*
X4372Y5150D02*
X4412Y5150D01*
X4425Y5150D02*
X4465Y5150D01*
X4071Y5149D02*
X4110Y5149D01*
X4127Y5149D02*
X4166Y5149D01*
X4371Y5149D02*
X4410Y5149D01*
X4427Y5149D02*
X4466Y5149D01*
X4071Y5148D02*
X4109Y5148D01*
X4128Y5148D02*
X4167Y5148D01*
X4371Y5148D02*
X4409Y5148D01*
X4428Y5148D02*
X4466Y5148D01*
X4070Y5147D02*
X4107Y5147D01*
X4130Y5147D02*
X4167Y5147D01*
X4370Y5147D02*
X4407Y5147D01*
X4430Y5147D02*
X4467Y5147D01*
X4070Y5146D02*
X4106Y5146D01*
X4131Y5146D02*
X4168Y5146D01*
X4370Y5146D02*
X4406Y5146D01*
X4431Y5146D02*
X4468Y5146D01*
X4069Y5145D02*
X4106Y5145D01*
X4132Y5145D02*
X4168Y5145D01*
X4369Y5145D02*
X4406Y5145D01*
X4432Y5145D02*
X4468Y5145D01*
X4069Y5144D02*
X4105Y5144D01*
X4132Y5144D02*
X4168Y5144D01*
X4369Y5144D02*
X4405Y5144D01*
X4432Y5144D02*
X4468Y5144D01*
X4068Y5143D02*
X4104Y5143D01*
X4133Y5143D02*
X4169Y5143D01*
X4368Y5143D02*
X4404Y5143D01*
X4433Y5143D02*
X4469Y5143D01*
X4068Y5142D02*
X4104Y5142D01*
X4133Y5142D02*
X4169Y5142D01*
X4368Y5142D02*
X4404Y5142D01*
X4433Y5142D02*
X4469Y5142D01*
X4068Y5141D02*
X4103Y5141D01*
X4134Y5141D02*
X4169Y5141D01*
X4368Y5141D02*
X4403Y5141D01*
X4434Y5141D02*
X4469Y5141D01*
X4068Y5140D02*
X4103Y5140D01*
X4134Y5140D02*
X4170Y5140D01*
X4368Y5140D02*
X4403Y5140D01*
X4434Y5140D02*
X4470Y5140D01*
X4067Y5139D02*
X4103Y5139D01*
X4135Y5139D02*
X4170Y5139D01*
X4367Y5139D02*
X4403Y5139D01*
X4435Y5139D02*
X4470Y5139D01*
X4067Y5138D02*
X4102Y5138D01*
X4135Y5138D02*
X4170Y5138D01*
X4367Y5138D02*
X4402Y5138D01*
X4435Y5138D02*
X4470Y5138D01*
X4067Y5137D02*
X4102Y5137D01*
X4135Y5137D02*
X4170Y5137D01*
X4367Y5137D02*
X4402Y5137D01*
X4435Y5137D02*
X4470Y5137D01*
X4067Y5136D02*
X4102Y5136D01*
X4135Y5136D02*
X4170Y5136D01*
X4367Y5136D02*
X4402Y5136D01*
X4435Y5136D02*
X4470Y5136D01*
X4067Y5135D02*
X4102Y5135D01*
X4135Y5135D02*
X4170Y5135D01*
X4367Y5135D02*
X4402Y5135D01*
X4435Y5135D02*
X4470Y5135D01*
X4067Y5134D02*
X4102Y5134D01*
X4135Y5134D02*
X4170Y5134D01*
X4367Y5134D02*
X4402Y5134D01*
X4435Y5134D02*
X4470Y5134D01*
X4067Y5133D02*
X4102Y5133D01*
X4135Y5133D02*
X4170Y5133D01*
X4367Y5133D02*
X4402Y5133D01*
X4435Y5133D02*
X4470Y5133D01*
X4067Y5132D02*
X4102Y5132D01*
X4135Y5132D02*
X4170Y5132D01*
X4367Y5132D02*
X4402Y5132D01*
X4435Y5132D02*
X4470Y5132D01*
X4067Y5131D02*
X4103Y5131D01*
X4134Y5131D02*
X4170Y5131D01*
X4367Y5131D02*
X4403Y5131D01*
X4434Y5131D02*
X4470Y5131D01*
X4068Y5130D02*
X4103Y5130D01*
X4134Y5130D02*
X4170Y5130D01*
X4368Y5130D02*
X4403Y5130D01*
X4434Y5130D02*
X4470Y5130D01*
X4068Y5129D02*
X4103Y5129D01*
X4134Y5129D02*
X4169Y5129D01*
X4368Y5129D02*
X4403Y5129D01*
X4434Y5129D02*
X4469Y5129D01*
X4068Y5128D02*
X4104Y5128D01*
X4133Y5128D02*
X4169Y5128D01*
X4368Y5128D02*
X4404Y5128D01*
X4433Y5128D02*
X4469Y5128D01*
X4068Y5127D02*
X4104Y5127D01*
X4133Y5127D02*
X4169Y5127D01*
X4368Y5127D02*
X4404Y5127D01*
X4433Y5127D02*
X4469Y5127D01*
X4069Y5126D02*
X4105Y5126D01*
X4132Y5126D02*
X4168Y5126D01*
X4369Y5126D02*
X4405Y5126D01*
X4432Y5126D02*
X4468Y5126D01*
X4069Y5125D02*
X4106Y5125D01*
X4131Y5125D02*
X4168Y5125D01*
X4369Y5125D02*
X4406Y5125D01*
X4431Y5125D02*
X4468Y5125D01*
X4070Y5124D02*
X4107Y5124D01*
X4131Y5124D02*
X4167Y5124D01*
X4370Y5124D02*
X4407Y5124D01*
X4431Y5124D02*
X4467Y5124D01*
X4070Y5123D02*
X4108Y5123D01*
X4129Y5123D02*
X4167Y5123D01*
X4370Y5123D02*
X4408Y5123D01*
X4429Y5123D02*
X4467Y5123D01*
X4071Y5122D02*
X4109Y5122D01*
X4128Y5122D02*
X4166Y5122D01*
X4371Y5122D02*
X4409Y5122D01*
X4428Y5122D02*
X4466Y5122D01*
X4071Y5121D02*
X4111Y5121D01*
X4126Y5121D02*
X4166Y5121D01*
X4371Y5121D02*
X4411Y5121D01*
X4426Y5121D02*
X4466Y5121D01*
X4072Y5120D02*
X4113Y5120D01*
X4124Y5120D02*
X4165Y5120D01*
X4372Y5120D02*
X4413Y5120D01*
X4424Y5120D02*
X4465Y5120D01*
X4073Y5119D02*
X4164Y5119D01*
X4373Y5119D02*
X4464Y5119D01*
X4074Y5118D02*
X4164Y5118D01*
X4374Y5118D02*
X4463Y5118D01*
X4074Y5117D02*
X4163Y5117D01*
X4374Y5117D02*
X4463Y5117D01*
X4076Y5116D02*
X4162Y5116D01*
X4376Y5116D02*
X4462Y5116D01*
X4077Y5115D02*
X4160Y5115D01*
X4377Y5115D02*
X4460Y5115D01*
X4078Y5114D02*
X4159Y5114D01*
X4378Y5114D02*
X4459Y5114D01*
X4080Y5113D02*
X4158Y5113D01*
X4380Y5113D02*
X4458Y5113D01*
X4081Y5112D02*
X4156Y5112D01*
X4381Y5112D02*
X4456Y5112D01*
X4083Y5111D02*
X4154Y5111D01*
X4383Y5111D02*
X4454Y5111D01*
X4086Y5110D02*
X4151Y5110D01*
X4386Y5110D02*
X4451Y5110D01*
X4091Y4861D02*
X4146Y4861D01*
X4391Y4861D02*
X4446Y4861D01*
X4086Y4860D02*
X4152Y4860D01*
X4385Y4860D02*
X4452Y4860D01*
X4083Y4859D02*
X4154Y4859D01*
X4383Y4859D02*
X4454Y4859D01*
X4081Y4858D02*
X4156Y4858D01*
X4381Y4858D02*
X4456Y4858D01*
X4079Y4857D02*
X4158Y4857D01*
X4379Y4857D02*
X4458Y4857D01*
X4078Y4856D02*
X4159Y4856D01*
X4378Y4856D02*
X4459Y4856D01*
X4076Y4855D02*
X4161Y4855D01*
X4376Y4855D02*
X4461Y4855D01*
X4075Y4854D02*
X4162Y4854D01*
X4375Y4854D02*
X4462Y4854D01*
X4074Y4853D02*
X4163Y4853D01*
X4374Y4853D02*
X4463Y4853D01*
X4073Y4852D02*
X4164Y4852D01*
X4373Y4852D02*
X4464Y4852D01*
X4073Y4851D02*
X4117Y4851D01*
X4120Y4851D02*
X4165Y4851D01*
X4373Y4851D02*
X4417Y4851D01*
X4420Y4851D02*
X4464Y4851D01*
X4072Y4850D02*
X4112Y4850D01*
X4125Y4850D02*
X4165Y4850D01*
X4372Y4850D02*
X4412Y4850D01*
X4425Y4850D02*
X4465Y4850D01*
X4071Y4849D02*
X4110Y4849D01*
X4127Y4849D02*
X4166Y4849D01*
X4371Y4849D02*
X4410Y4849D01*
X4427Y4849D02*
X4466Y4849D01*
X4071Y4848D02*
X4109Y4848D01*
X4128Y4848D02*
X4167Y4848D01*
X4371Y4848D02*
X4409Y4848D01*
X4428Y4848D02*
X4467Y4848D01*
X4070Y4847D02*
X4107Y4847D01*
X4130Y4847D02*
X4167Y4847D01*
X4370Y4847D02*
X4407Y4847D01*
X4430Y4847D02*
X4467Y4847D01*
X4070Y4846D02*
X4106Y4846D01*
X4131Y4846D02*
X4168Y4846D01*
X4370Y4846D02*
X4406Y4846D01*
X4431Y4846D02*
X4468Y4846D01*
X4069Y4845D02*
X4106Y4845D01*
X4132Y4845D02*
X4168Y4845D01*
X4369Y4845D02*
X4406Y4845D01*
X4432Y4845D02*
X4468Y4845D01*
X4069Y4844D02*
X4105Y4844D01*
X4132Y4844D02*
X4168Y4844D01*
X4369Y4844D02*
X4405Y4844D01*
X4432Y4844D02*
X4468Y4844D01*
X4068Y4843D02*
X4104Y4843D01*
X4133Y4843D02*
X4169Y4843D01*
X4368Y4843D02*
X4404Y4843D01*
X4433Y4843D02*
X4469Y4843D01*
X4068Y4842D02*
X4104Y4842D01*
X4133Y4842D02*
X4169Y4842D01*
X4368Y4842D02*
X4404Y4842D01*
X4433Y4842D02*
X4469Y4842D01*
X4068Y4841D02*
X4103Y4841D01*
X4134Y4841D02*
X4169Y4841D01*
X4368Y4841D02*
X4403Y4841D01*
X4434Y4841D02*
X4469Y4841D01*
X4068Y4840D02*
X4103Y4840D01*
X4134Y4840D02*
X4170Y4840D01*
X4368Y4840D02*
X4403Y4840D01*
X4434Y4840D02*
X4470Y4840D01*
X4067Y4839D02*
X4103Y4839D01*
X4135Y4839D02*
X4170Y4839D01*
X4367Y4839D02*
X4403Y4839D01*
X4435Y4839D02*
X4470Y4839D01*
X4067Y4838D02*
X4102Y4838D01*
X4135Y4838D02*
X4170Y4838D01*
X4367Y4838D02*
X4402Y4838D01*
X4435Y4838D02*
X4470Y4838D01*
X4067Y4837D02*
X4102Y4837D01*
X4135Y4837D02*
X4170Y4837D01*
X4367Y4837D02*
X4402Y4837D01*
X4435Y4837D02*
X4470Y4837D01*
X4067Y4836D02*
X4102Y4836D01*
X4135Y4836D02*
X4170Y4836D01*
X4367Y4836D02*
X4402Y4836D01*
X4435Y4836D02*
X4470Y4836D01*
X4067Y4835D02*
X4102Y4835D01*
X4135Y4835D02*
X4170Y4835D01*
X4367Y4835D02*
X4402Y4835D01*
X4435Y4835D02*
X4470Y4835D01*
X4067Y4834D02*
X4102Y4834D01*
X4135Y4834D02*
X4170Y4834D01*
X4367Y4834D02*
X4402Y4834D01*
X4435Y4834D02*
X4470Y4834D01*
X4067Y4833D02*
X4102Y4833D01*
X4135Y4833D02*
X4170Y4833D01*
X4367Y4833D02*
X4402Y4833D01*
X4435Y4833D02*
X4470Y4833D01*
X4067Y4832D02*
X4102Y4832D01*
X4135Y4832D02*
X4170Y4832D01*
X4367Y4832D02*
X4402Y4832D01*
X4435Y4832D02*
X4470Y4832D01*
X4067Y4831D02*
X4103Y4831D01*
X4134Y4831D02*
X4170Y4831D01*
X4367Y4831D02*
X4403Y4831D01*
X4434Y4831D02*
X4470Y4831D01*
X4068Y4830D02*
X4103Y4830D01*
X4134Y4830D02*
X4170Y4830D01*
X4368Y4830D02*
X4403Y4830D01*
X4434Y4830D02*
X4470Y4830D01*
X4068Y4829D02*
X4103Y4829D01*
X4134Y4829D02*
X4169Y4829D01*
X4368Y4829D02*
X4403Y4829D01*
X4434Y4829D02*
X4469Y4829D01*
X4068Y4828D02*
X4104Y4828D01*
X4133Y4828D02*
X4169Y4828D01*
X4368Y4828D02*
X4404Y4828D01*
X4433Y4828D02*
X4469Y4828D01*
X4068Y4827D02*
X4104Y4827D01*
X4133Y4827D02*
X4169Y4827D01*
X4368Y4827D02*
X4404Y4827D01*
X4433Y4827D02*
X4469Y4827D01*
X4069Y4826D02*
X4105Y4826D01*
X4132Y4826D02*
X4168Y4826D01*
X4369Y4826D02*
X4405Y4826D01*
X4432Y4826D02*
X4468Y4826D01*
X4069Y4825D02*
X4106Y4825D01*
X4131Y4825D02*
X4168Y4825D01*
X4369Y4825D02*
X4406Y4825D01*
X4431Y4825D02*
X4468Y4825D01*
X4070Y4824D02*
X4107Y4824D01*
X4131Y4824D02*
X4167Y4824D01*
X4370Y4824D02*
X4407Y4824D01*
X4430Y4824D02*
X4467Y4824D01*
X4070Y4823D02*
X4108Y4823D01*
X4129Y4823D02*
X4167Y4823D01*
X4370Y4823D02*
X4408Y4823D01*
X4429Y4823D02*
X4467Y4823D01*
X4071Y4822D02*
X4109Y4822D01*
X4128Y4822D02*
X4166Y4822D01*
X4371Y4822D02*
X4409Y4822D01*
X4428Y4822D02*
X4466Y4822D01*
X4071Y4821D02*
X4111Y4821D01*
X4126Y4821D02*
X4166Y4821D01*
X4371Y4821D02*
X4411Y4821D01*
X4426Y4821D02*
X4466Y4821D01*
X4072Y4820D02*
X4113Y4820D01*
X4124Y4820D02*
X4165Y4820D01*
X4372Y4820D02*
X4413Y4820D01*
X4424Y4820D02*
X4465Y4820D01*
X4073Y4819D02*
X4164Y4819D01*
X4373Y4819D02*
X4464Y4819D01*
X4074Y4818D02*
X4163Y4818D01*
X4374Y4818D02*
X4463Y4818D01*
X4074Y4817D02*
X4163Y4817D01*
X4374Y4817D02*
X4463Y4817D01*
X4076Y4816D02*
X4162Y4816D01*
X4376Y4816D02*
X4462Y4816D01*
X4077Y4815D02*
X4160Y4815D01*
X4377Y4815D02*
X4460Y4815D01*
X4078Y4814D02*
X4159Y4814D01*
X4378Y4814D02*
X4459Y4814D01*
X4080Y4813D02*
X4158Y4813D01*
X4380Y4813D02*
X4458Y4813D01*
X4081Y4812D02*
X4156Y4812D01*
X4381Y4812D02*
X4456Y4812D01*
X4083Y4811D02*
X4154Y4811D01*
X4383Y4811D02*
X4454Y4811D01*
X4086Y4810D02*
X4151Y4810D01*
X4386Y4810D02*
X4451Y4810D01*
X4091Y4761D02*
X4146Y4761D01*
X4391Y4761D02*
X4446Y4761D01*
X4086Y4760D02*
X4152Y4760D01*
X4385Y4760D02*
X4452Y4760D01*
X4083Y4759D02*
X4154Y4759D01*
X4383Y4759D02*
X4454Y4759D01*
X4081Y4758D02*
X4156Y4758D01*
X4381Y4758D02*
X4456Y4758D01*
X4079Y4757D02*
X4158Y4757D01*
X4379Y4757D02*
X4458Y4757D01*
X4078Y4756D02*
X4159Y4756D01*
X4378Y4756D02*
X4459Y4756D01*
X4076Y4755D02*
X4161Y4755D01*
X4376Y4755D02*
X4461Y4755D01*
X4075Y4754D02*
X4162Y4754D01*
X4375Y4754D02*
X4462Y4754D01*
X4074Y4753D02*
X4163Y4753D01*
X4374Y4753D02*
X4463Y4753D01*
X4073Y4752D02*
X4164Y4752D01*
X4373Y4752D02*
X4464Y4752D01*
X4073Y4751D02*
X4117Y4751D01*
X4120Y4751D02*
X4165Y4751D01*
X4373Y4751D02*
X4417Y4751D01*
X4420Y4751D02*
X4465Y4751D01*
X4072Y4750D02*
X4112Y4750D01*
X4125Y4750D02*
X4165Y4750D01*
X4372Y4750D02*
X4412Y4750D01*
X4425Y4750D02*
X4465Y4750D01*
X4071Y4749D02*
X4110Y4749D01*
X4127Y4749D02*
X4166Y4749D01*
X4371Y4749D02*
X4410Y4749D01*
X4427Y4749D02*
X4466Y4749D01*
X4071Y4748D02*
X4109Y4748D01*
X4128Y4748D02*
X4167Y4748D01*
X4371Y4748D02*
X4409Y4748D01*
X4428Y4748D02*
X4467Y4748D01*
X4070Y4747D02*
X4107Y4747D01*
X4130Y4747D02*
X4167Y4747D01*
X4370Y4747D02*
X4407Y4747D01*
X4430Y4747D02*
X4467Y4747D01*
X4070Y4746D02*
X4106Y4746D01*
X4131Y4746D02*
X4168Y4746D01*
X4369Y4746D02*
X4406Y4746D01*
X4431Y4746D02*
X4468Y4746D01*
X4069Y4745D02*
X4106Y4745D01*
X4132Y4745D02*
X4168Y4745D01*
X4369Y4745D02*
X4406Y4745D01*
X4432Y4745D02*
X4468Y4745D01*
X4069Y4744D02*
X4105Y4744D01*
X4132Y4744D02*
X4168Y4744D01*
X4369Y4744D02*
X4405Y4744D01*
X4432Y4744D02*
X4468Y4744D01*
X4068Y4743D02*
X4104Y4743D01*
X4133Y4743D02*
X4169Y4743D01*
X4368Y4743D02*
X4404Y4743D01*
X4433Y4743D02*
X4469Y4743D01*
X4068Y4742D02*
X4104Y4742D01*
X4133Y4742D02*
X4169Y4742D01*
X4368Y4742D02*
X4404Y4742D01*
X4433Y4742D02*
X4469Y4742D01*
X4068Y4741D02*
X4103Y4741D01*
X4134Y4741D02*
X4169Y4741D01*
X4368Y4741D02*
X4403Y4741D01*
X4434Y4741D02*
X4469Y4741D01*
X4068Y4740D02*
X4103Y4740D01*
X4134Y4740D02*
X4170Y4740D01*
X4368Y4740D02*
X4403Y4740D01*
X4434Y4740D02*
X4470Y4740D01*
X4067Y4739D02*
X4103Y4739D01*
X4135Y4739D02*
X4170Y4739D01*
X4367Y4739D02*
X4403Y4739D01*
X4435Y4739D02*
X4470Y4739D01*
X4067Y4738D02*
X4102Y4738D01*
X4135Y4738D02*
X4170Y4738D01*
X4367Y4738D02*
X4402Y4738D01*
X4435Y4738D02*
X4470Y4738D01*
X4067Y4737D02*
X4102Y4737D01*
X4135Y4737D02*
X4170Y4737D01*
X4367Y4737D02*
X4402Y4737D01*
X4435Y4737D02*
X4470Y4737D01*
X4067Y4736D02*
X4102Y4736D01*
X4135Y4736D02*
X4170Y4736D01*
X4367Y4736D02*
X4402Y4736D01*
X4435Y4736D02*
X4470Y4736D01*
X4067Y4735D02*
X4102Y4735D01*
X4135Y4735D02*
X4170Y4735D01*
X4367Y4735D02*
X4402Y4735D01*
X4435Y4735D02*
X4470Y4735D01*
X4067Y4734D02*
X4102Y4734D01*
X4135Y4734D02*
X4170Y4734D01*
X4367Y4734D02*
X4402Y4734D01*
X4435Y4734D02*
X4470Y4734D01*
X4067Y4733D02*
X4102Y4733D01*
X4135Y4733D02*
X4170Y4733D01*
X4367Y4733D02*
X4402Y4733D01*
X4435Y4733D02*
X4470Y4733D01*
X4067Y4732D02*
X4102Y4732D01*
X4135Y4732D02*
X4170Y4732D01*
X4367Y4732D02*
X4402Y4732D01*
X4435Y4732D02*
X4470Y4732D01*
X4067Y4731D02*
X4103Y4731D01*
X4134Y4731D02*
X4170Y4731D01*
X4367Y4731D02*
X4403Y4731D01*
X4434Y4731D02*
X4470Y4731D01*
X4068Y4730D02*
X4103Y4730D01*
X4134Y4730D02*
X4170Y4730D01*
X4368Y4730D02*
X4403Y4730D01*
X4434Y4730D02*
X4470Y4730D01*
X4068Y4729D02*
X4103Y4729D01*
X4134Y4729D02*
X4169Y4729D01*
X4368Y4729D02*
X4403Y4729D01*
X4434Y4729D02*
X4469Y4729D01*
X4068Y4728D02*
X4104Y4728D01*
X4133Y4728D02*
X4169Y4728D01*
X4368Y4728D02*
X4404Y4728D01*
X4433Y4728D02*
X4469Y4728D01*
X4068Y4727D02*
X4104Y4727D01*
X4133Y4727D02*
X4169Y4727D01*
X4368Y4727D02*
X4404Y4727D01*
X4433Y4727D02*
X4469Y4727D01*
X4069Y4726D02*
X4105Y4726D01*
X4132Y4726D02*
X4168Y4726D01*
X4369Y4726D02*
X4405Y4726D01*
X4432Y4726D02*
X4468Y4726D01*
X4069Y4725D02*
X4106Y4725D01*
X4131Y4725D02*
X4168Y4725D01*
X4369Y4725D02*
X4406Y4725D01*
X4431Y4725D02*
X4468Y4725D01*
X4070Y4724D02*
X4107Y4724D01*
X4131Y4724D02*
X4167Y4724D01*
X4370Y4724D02*
X4407Y4724D01*
X4430Y4724D02*
X4467Y4724D01*
X4070Y4723D02*
X4108Y4723D01*
X4129Y4723D02*
X4167Y4723D01*
X4370Y4723D02*
X4408Y4723D01*
X4429Y4723D02*
X4467Y4723D01*
X4071Y4722D02*
X4109Y4722D01*
X4128Y4722D02*
X4166Y4722D01*
X4371Y4722D02*
X4409Y4722D01*
X4428Y4722D02*
X4466Y4722D01*
X4071Y4721D02*
X4111Y4721D01*
X4126Y4721D02*
X4166Y4721D01*
X4371Y4721D02*
X4411Y4721D01*
X4426Y4721D02*
X4466Y4721D01*
X4072Y4720D02*
X4113Y4720D01*
X4124Y4720D02*
X4165Y4720D01*
X4372Y4720D02*
X4413Y4720D01*
X4424Y4720D02*
X4465Y4720D01*
X4073Y4719D02*
X4164Y4719D01*
X4373Y4719D02*
X4464Y4719D01*
X4074Y4718D02*
X4163Y4718D01*
X4374Y4718D02*
X4463Y4718D01*
X4074Y4717D02*
X4163Y4717D01*
X4374Y4717D02*
X4463Y4717D01*
X4076Y4716D02*
X4162Y4716D01*
X4376Y4716D02*
X4462Y4716D01*
X4077Y4715D02*
X4160Y4715D01*
X4377Y4715D02*
X4460Y4715D01*
X4078Y4714D02*
X4159Y4714D01*
X4378Y4714D02*
X4459Y4714D01*
X4080Y4713D02*
X4158Y4713D01*
X4380Y4713D02*
X4458Y4713D01*
X4081Y4712D02*
X4156Y4712D01*
X4381Y4712D02*
X4456Y4712D01*
X4083Y4711D02*
X4154Y4711D01*
X4383Y4711D02*
X4454Y4711D01*
X4086Y4710D02*
X4151Y4710D01*
X4386Y4710D02*
X4451Y4710D01*
X4090Y4661D02*
X4147Y4661D01*
X4390Y4661D02*
X4447Y4661D01*
X4085Y4660D02*
X4152Y4660D01*
X4385Y4660D02*
X4452Y4660D01*
X4083Y4659D02*
X4154Y4659D01*
X4383Y4659D02*
X4454Y4659D01*
X4081Y4658D02*
X4156Y4658D01*
X4381Y4658D02*
X4456Y4658D01*
X4079Y4657D02*
X4158Y4657D01*
X4379Y4657D02*
X4458Y4657D01*
X4078Y4656D02*
X4159Y4656D01*
X4378Y4656D02*
X4459Y4656D01*
X4076Y4655D02*
X4161Y4655D01*
X4376Y4655D02*
X4461Y4655D01*
X4075Y4654D02*
X4162Y4654D01*
X4375Y4654D02*
X4462Y4654D01*
X4074Y4653D02*
X4163Y4653D01*
X4374Y4653D02*
X4463Y4653D01*
X4073Y4652D02*
X4164Y4652D01*
X4373Y4652D02*
X4464Y4652D01*
X4073Y4651D02*
X4117Y4651D01*
X4120Y4651D02*
X4165Y4651D01*
X4373Y4651D02*
X4417Y4651D01*
X4420Y4651D02*
X4465Y4651D01*
X4072Y4650D02*
X4112Y4650D01*
X4125Y4650D02*
X4165Y4650D01*
X4372Y4650D02*
X4412Y4650D01*
X4425Y4650D02*
X4465Y4650D01*
X4071Y4649D02*
X4110Y4649D01*
X4127Y4649D02*
X4166Y4649D01*
X4371Y4649D02*
X4410Y4649D01*
X4427Y4649D02*
X4466Y4649D01*
X4071Y4648D02*
X4109Y4648D01*
X4128Y4648D02*
X4167Y4648D01*
X4371Y4648D02*
X4409Y4648D01*
X4428Y4648D02*
X4467Y4648D01*
X4070Y4647D02*
X4107Y4647D01*
X4130Y4647D02*
X4167Y4647D01*
X4370Y4647D02*
X4407Y4647D01*
X4430Y4647D02*
X4467Y4647D01*
X4070Y4646D02*
X4106Y4646D01*
X4131Y4646D02*
X4168Y4646D01*
X4369Y4646D02*
X4406Y4646D01*
X4431Y4646D02*
X4468Y4646D01*
X4069Y4645D02*
X4106Y4645D01*
X4132Y4645D02*
X4168Y4645D01*
X4369Y4645D02*
X4406Y4645D01*
X4432Y4645D02*
X4468Y4645D01*
X4069Y4644D02*
X4105Y4644D01*
X4132Y4644D02*
X4168Y4644D01*
X4369Y4644D02*
X4405Y4644D01*
X4432Y4644D02*
X4468Y4644D01*
X4068Y4643D02*
X4104Y4643D01*
X4133Y4643D02*
X4169Y4643D01*
X4368Y4643D02*
X4404Y4643D01*
X4433Y4643D02*
X4469Y4643D01*
X4068Y4642D02*
X4104Y4642D01*
X4133Y4642D02*
X4169Y4642D01*
X4368Y4642D02*
X4404Y4642D01*
X4433Y4642D02*
X4469Y4642D01*
X4068Y4641D02*
X4103Y4641D01*
X4134Y4641D02*
X4169Y4641D01*
X4368Y4641D02*
X4403Y4641D01*
X4434Y4641D02*
X4469Y4641D01*
X4068Y4640D02*
X4103Y4640D01*
X4134Y4640D02*
X4170Y4640D01*
X4368Y4640D02*
X4403Y4640D01*
X4434Y4640D02*
X4470Y4640D01*
X4067Y4639D02*
X4103Y4639D01*
X4135Y4639D02*
X4170Y4639D01*
X4367Y4639D02*
X4403Y4639D01*
X4435Y4639D02*
X4470Y4639D01*
X4067Y4638D02*
X4102Y4638D01*
X4135Y4638D02*
X4170Y4638D01*
X4367Y4638D02*
X4402Y4638D01*
X4435Y4638D02*
X4470Y4638D01*
X4067Y4637D02*
X4102Y4637D01*
X4135Y4637D02*
X4170Y4637D01*
X4367Y4637D02*
X4402Y4637D01*
X4435Y4637D02*
X4470Y4637D01*
X4067Y4636D02*
X4102Y4636D01*
X4135Y4636D02*
X4170Y4636D01*
X4367Y4636D02*
X4402Y4636D01*
X4435Y4636D02*
X4470Y4636D01*
X4067Y4635D02*
X4102Y4635D01*
X4135Y4635D02*
X4170Y4635D01*
X4367Y4635D02*
X4402Y4635D01*
X4435Y4635D02*
X4470Y4635D01*
X4067Y4634D02*
X4102Y4634D01*
X4135Y4634D02*
X4170Y4634D01*
X4367Y4634D02*
X4402Y4634D01*
X4435Y4634D02*
X4470Y4634D01*
X4067Y4633D02*
X4102Y4633D01*
X4135Y4633D02*
X4170Y4633D01*
X4367Y4633D02*
X4402Y4633D01*
X4435Y4633D02*
X4470Y4633D01*
X4067Y4632D02*
X4102Y4632D01*
X4135Y4632D02*
X4170Y4632D01*
X4367Y4632D02*
X4402Y4632D01*
X4435Y4632D02*
X4470Y4632D01*
X4067Y4631D02*
X4103Y4631D01*
X4134Y4631D02*
X4170Y4631D01*
X4367Y4631D02*
X4403Y4631D01*
X4434Y4631D02*
X4470Y4631D01*
X4068Y4630D02*
X4103Y4630D01*
X4134Y4630D02*
X4170Y4630D01*
X4368Y4630D02*
X4403Y4630D01*
X4434Y4630D02*
X4470Y4630D01*
X4068Y4629D02*
X4103Y4629D01*
X4134Y4629D02*
X4169Y4629D01*
X4368Y4629D02*
X4403Y4629D01*
X4434Y4629D02*
X4469Y4629D01*
X4068Y4628D02*
X4104Y4628D01*
X4133Y4628D02*
X4169Y4628D01*
X4368Y4628D02*
X4404Y4628D01*
X4433Y4628D02*
X4469Y4628D01*
X4068Y4627D02*
X4104Y4627D01*
X4133Y4627D02*
X4169Y4627D01*
X4368Y4627D02*
X4404Y4627D01*
X4433Y4627D02*
X4469Y4627D01*
X4069Y4626D02*
X4105Y4626D01*
X4132Y4626D02*
X4168Y4626D01*
X4369Y4626D02*
X4405Y4626D01*
X4432Y4626D02*
X4468Y4626D01*
X4069Y4625D02*
X4106Y4625D01*
X4131Y4625D02*
X4168Y4625D01*
X4369Y4625D02*
X4406Y4625D01*
X4431Y4625D02*
X4468Y4625D01*
X4070Y4624D02*
X4107Y4624D01*
X4131Y4624D02*
X4167Y4624D01*
X4370Y4624D02*
X4407Y4624D01*
X4430Y4624D02*
X4467Y4624D01*
X4070Y4623D02*
X4108Y4623D01*
X4129Y4623D02*
X4167Y4623D01*
X4370Y4623D02*
X4408Y4623D01*
X4429Y4623D02*
X4467Y4623D01*
X4071Y4622D02*
X4109Y4622D01*
X4128Y4622D02*
X4166Y4622D01*
X4371Y4622D02*
X4409Y4622D01*
X4428Y4622D02*
X4466Y4622D01*
X4071Y4621D02*
X4111Y4621D01*
X4126Y4621D02*
X4166Y4621D01*
X4371Y4621D02*
X4411Y4621D01*
X4426Y4621D02*
X4466Y4621D01*
X4072Y4620D02*
X4113Y4620D01*
X4124Y4620D02*
X4165Y4620D01*
X4372Y4620D02*
X4413Y4620D01*
X4424Y4620D02*
X4465Y4620D01*
X4073Y4619D02*
X4164Y4619D01*
X4373Y4619D02*
X4464Y4619D01*
X4074Y4618D02*
X4163Y4618D01*
X4374Y4618D02*
X4463Y4618D01*
X4074Y4617D02*
X4163Y4617D01*
X4374Y4617D02*
X4463Y4617D01*
X4076Y4616D02*
X4162Y4616D01*
X4376Y4616D02*
X4462Y4616D01*
X4077Y4615D02*
X4160Y4615D01*
X4377Y4615D02*
X4460Y4615D01*
X4078Y4614D02*
X4159Y4614D01*
X4378Y4614D02*
X4459Y4614D01*
X4080Y4613D02*
X4158Y4613D01*
X4380Y4613D02*
X4458Y4613D01*
X4081Y4612D02*
X4156Y4612D01*
X4381Y4612D02*
X4456Y4612D01*
X4083Y4611D02*
X4154Y4611D01*
X4383Y4611D02*
X4454Y4611D01*
X4086Y4610D02*
X4151Y4610D01*
X4386Y4610D02*
X4451Y4610D01*
X4090Y4561D02*
X4147Y4561D01*
X4390Y4561D02*
X4447Y4561D01*
X4085Y4560D02*
X4152Y4560D01*
X4385Y4560D02*
X4452Y4560D01*
X4083Y4559D02*
X4154Y4559D01*
X4383Y4559D02*
X4454Y4559D01*
X4081Y4558D02*
X4156Y4558D01*
X4381Y4558D02*
X4456Y4558D01*
X4079Y4557D02*
X4158Y4557D01*
X4379Y4557D02*
X4458Y4557D01*
X4078Y4556D02*
X4159Y4556D01*
X4378Y4556D02*
X4459Y4556D01*
X4076Y4555D02*
X4161Y4555D01*
X4376Y4555D02*
X4461Y4555D01*
X4075Y4554D02*
X4162Y4554D01*
X4375Y4554D02*
X4462Y4554D01*
X4074Y4553D02*
X4163Y4553D01*
X4374Y4553D02*
X4463Y4553D01*
X4073Y4552D02*
X4164Y4552D01*
X4373Y4552D02*
X4464Y4552D01*
X4073Y4551D02*
X4117Y4551D01*
X4120Y4551D02*
X4165Y4551D01*
X4373Y4551D02*
X4417Y4551D01*
X4420Y4551D02*
X4465Y4551D01*
X4072Y4550D02*
X4112Y4550D01*
X4125Y4550D02*
X4165Y4550D01*
X4372Y4550D02*
X4412Y4550D01*
X4425Y4550D02*
X4465Y4550D01*
X4071Y4549D02*
X4110Y4549D01*
X4127Y4549D02*
X4166Y4549D01*
X4371Y4549D02*
X4410Y4549D01*
X4427Y4549D02*
X4466Y4549D01*
X4071Y4548D02*
X4109Y4548D01*
X4129Y4548D02*
X4167Y4548D01*
X4371Y4548D02*
X4409Y4548D01*
X4428Y4548D02*
X4467Y4548D01*
X4070Y4547D02*
X4107Y4547D01*
X4130Y4547D02*
X4167Y4547D01*
X4370Y4547D02*
X4407Y4547D01*
X4430Y4547D02*
X4467Y4547D01*
X4070Y4546D02*
X4106Y4546D01*
X4131Y4546D02*
X4168Y4546D01*
X4369Y4546D02*
X4406Y4546D01*
X4431Y4546D02*
X4468Y4546D01*
X4069Y4545D02*
X4106Y4545D01*
X4132Y4545D02*
X4168Y4545D01*
X4369Y4545D02*
X4406Y4545D01*
X4432Y4545D02*
X4468Y4545D01*
X4069Y4544D02*
X4105Y4544D01*
X4132Y4544D02*
X4168Y4544D01*
X4369Y4544D02*
X4405Y4544D01*
X4432Y4544D02*
X4468Y4544D01*
X4068Y4543D02*
X4104Y4543D01*
X4133Y4543D02*
X4169Y4543D01*
X4368Y4543D02*
X4404Y4543D01*
X4433Y4543D02*
X4469Y4543D01*
X4068Y4542D02*
X4104Y4542D01*
X4133Y4542D02*
X4169Y4542D01*
X4368Y4542D02*
X4404Y4542D01*
X4433Y4542D02*
X4469Y4542D01*
X4068Y4541D02*
X4103Y4541D01*
X4134Y4541D02*
X4169Y4541D01*
X4368Y4541D02*
X4403Y4541D01*
X4434Y4541D02*
X4469Y4541D01*
X4068Y4540D02*
X4103Y4540D01*
X4134Y4540D02*
X4170Y4540D01*
X4368Y4540D02*
X4403Y4540D01*
X4434Y4540D02*
X4470Y4540D01*
X4067Y4539D02*
X4103Y4539D01*
X4135Y4539D02*
X4170Y4539D01*
X4367Y4539D02*
X4403Y4539D01*
X4435Y4539D02*
X4470Y4539D01*
X4067Y4538D02*
X4102Y4538D01*
X4135Y4538D02*
X4170Y4538D01*
X4367Y4538D02*
X4402Y4538D01*
X4435Y4538D02*
X4470Y4538D01*
X4067Y4537D02*
X4102Y4537D01*
X4135Y4537D02*
X4170Y4537D01*
X4367Y4537D02*
X4402Y4537D01*
X4435Y4537D02*
X4470Y4537D01*
X4067Y4536D02*
X4102Y4536D01*
X4135Y4536D02*
X4170Y4536D01*
X4367Y4536D02*
X4402Y4536D01*
X4435Y4536D02*
X4470Y4536D01*
X4067Y4535D02*
X4102Y4535D01*
X4135Y4535D02*
X4170Y4535D01*
X4367Y4535D02*
X4402Y4535D01*
X4435Y4535D02*
X4470Y4535D01*
X4067Y4534D02*
X4102Y4534D01*
X4135Y4534D02*
X4170Y4534D01*
X4367Y4534D02*
X4402Y4534D01*
X4435Y4534D02*
X4470Y4534D01*
X4067Y4533D02*
X4102Y4533D01*
X4135Y4533D02*
X4170Y4533D01*
X4367Y4533D02*
X4402Y4533D01*
X4435Y4533D02*
X4470Y4533D01*
X4067Y4532D02*
X4102Y4532D01*
X4135Y4532D02*
X4170Y4532D01*
X4367Y4532D02*
X4402Y4532D01*
X4435Y4532D02*
X4470Y4532D01*
X4067Y4531D02*
X4103Y4531D01*
X4134Y4531D02*
X4170Y4531D01*
X4367Y4531D02*
X4403Y4531D01*
X4434Y4531D02*
X4470Y4531D01*
X4068Y4530D02*
X4103Y4530D01*
X4134Y4530D02*
X4170Y4530D01*
X4368Y4530D02*
X4403Y4530D01*
X4434Y4530D02*
X4470Y4530D01*
X4068Y4529D02*
X4103Y4529D01*
X4134Y4529D02*
X4169Y4529D01*
X4368Y4529D02*
X4403Y4529D01*
X4434Y4529D02*
X4469Y4529D01*
X4068Y4528D02*
X4104Y4528D01*
X4133Y4528D02*
X4169Y4528D01*
X4368Y4528D02*
X4404Y4528D01*
X4433Y4528D02*
X4469Y4528D01*
X4068Y4527D02*
X4104Y4527D01*
X4133Y4527D02*
X4169Y4527D01*
X4368Y4527D02*
X4404Y4527D01*
X4433Y4527D02*
X4469Y4527D01*
X4069Y4526D02*
X4105Y4526D01*
X4132Y4526D02*
X4168Y4526D01*
X4369Y4526D02*
X4405Y4526D01*
X4432Y4526D02*
X4468Y4526D01*
X4069Y4525D02*
X4106Y4525D01*
X4131Y4525D02*
X4168Y4525D01*
X4369Y4525D02*
X4406Y4525D01*
X4431Y4525D02*
X4468Y4525D01*
X4070Y4524D02*
X4107Y4524D01*
X4130Y4524D02*
X4167Y4524D01*
X4370Y4524D02*
X4407Y4524D01*
X4430Y4524D02*
X4467Y4524D01*
X4070Y4523D02*
X4108Y4523D01*
X4129Y4523D02*
X4167Y4523D01*
X4370Y4523D02*
X4408Y4523D01*
X4429Y4523D02*
X4467Y4523D01*
X4071Y4522D02*
X4109Y4522D01*
X4128Y4522D02*
X4166Y4522D01*
X4371Y4522D02*
X4409Y4522D01*
X4428Y4522D02*
X4466Y4522D01*
X4071Y4521D02*
X4111Y4521D01*
X4126Y4521D02*
X4166Y4521D01*
X4371Y4521D02*
X4411Y4521D01*
X4426Y4521D02*
X4466Y4521D01*
X4072Y4520D02*
X4113Y4520D01*
X4124Y4520D02*
X4165Y4520D01*
X4372Y4520D02*
X4413Y4520D01*
X4424Y4520D02*
X4465Y4520D01*
X4073Y4519D02*
X4164Y4519D01*
X4373Y4519D02*
X4464Y4519D01*
X4074Y4518D02*
X4163Y4518D01*
X4374Y4518D02*
X4463Y4518D01*
X4074Y4517D02*
X4163Y4517D01*
X4374Y4517D02*
X4463Y4517D01*
X4076Y4516D02*
X4162Y4516D01*
X4376Y4516D02*
X4462Y4516D01*
X4077Y4515D02*
X4160Y4515D01*
X4377Y4515D02*
X4460Y4515D01*
X4078Y4514D02*
X4159Y4514D01*
X4378Y4514D02*
X4459Y4514D01*
X4080Y4513D02*
X4158Y4513D01*
X4380Y4513D02*
X4458Y4513D01*
X4081Y4512D02*
X4156Y4512D01*
X4381Y4512D02*
X4456Y4512D01*
X4083Y4511D02*
X4154Y4511D01*
X4383Y4511D02*
X4454Y4511D01*
X4087Y4510D02*
X4151Y4510D01*
X4387Y4510D02*
X4451Y4510D01*
X4090Y4461D02*
X4147Y4461D01*
X4390Y4461D02*
X4447Y4461D01*
X4085Y4460D02*
X4152Y4460D01*
X4385Y4460D02*
X4452Y4460D01*
X4083Y4459D02*
X4154Y4459D01*
X4383Y4459D02*
X4454Y4459D01*
X4081Y4458D02*
X4156Y4458D01*
X4381Y4458D02*
X4456Y4458D01*
X4079Y4457D02*
X4158Y4457D01*
X4379Y4457D02*
X4458Y4457D01*
X4078Y4456D02*
X4159Y4456D01*
X4378Y4456D02*
X4459Y4456D01*
X4076Y4455D02*
X4161Y4455D01*
X4376Y4455D02*
X4461Y4455D01*
X4075Y4454D02*
X4162Y4454D01*
X4375Y4454D02*
X4462Y4454D01*
X4074Y4453D02*
X4163Y4453D01*
X4374Y4453D02*
X4463Y4453D01*
X4073Y4452D02*
X4164Y4452D01*
X4373Y4452D02*
X4464Y4452D01*
X4073Y4451D02*
X4117Y4451D01*
X4120Y4451D02*
X4165Y4451D01*
X4373Y4451D02*
X4417Y4451D01*
X4420Y4451D02*
X4465Y4451D01*
X4072Y4450D02*
X4112Y4450D01*
X4125Y4450D02*
X4165Y4450D01*
X4372Y4450D02*
X4412Y4450D01*
X4425Y4450D02*
X4465Y4450D01*
X4071Y4449D02*
X4110Y4449D01*
X4127Y4449D02*
X4166Y4449D01*
X4371Y4449D02*
X4410Y4449D01*
X4427Y4449D02*
X4466Y4449D01*
X4071Y4448D02*
X4109Y4448D01*
X4129Y4448D02*
X4167Y4448D01*
X4371Y4448D02*
X4409Y4448D01*
X4428Y4448D02*
X4467Y4448D01*
X4070Y4447D02*
X4107Y4447D01*
X4130Y4447D02*
X4167Y4447D01*
X4370Y4447D02*
X4407Y4447D01*
X4430Y4447D02*
X4467Y4447D01*
X4070Y4446D02*
X4106Y4446D01*
X4131Y4446D02*
X4168Y4446D01*
X4369Y4446D02*
X4406Y4446D01*
X4431Y4446D02*
X4468Y4446D01*
X4069Y4445D02*
X4106Y4445D01*
X4132Y4445D02*
X4168Y4445D01*
X4369Y4445D02*
X4406Y4445D01*
X4432Y4445D02*
X4468Y4445D01*
X4069Y4444D02*
X4105Y4444D01*
X4132Y4444D02*
X4168Y4444D01*
X4369Y4444D02*
X4405Y4444D01*
X4432Y4444D02*
X4468Y4444D01*
X4068Y4443D02*
X4104Y4443D01*
X4133Y4443D02*
X4169Y4443D01*
X4368Y4443D02*
X4404Y4443D01*
X4433Y4443D02*
X4469Y4443D01*
X4068Y4442D02*
X4104Y4442D01*
X4133Y4442D02*
X4169Y4442D01*
X4368Y4442D02*
X4404Y4442D01*
X4433Y4442D02*
X4469Y4442D01*
X4068Y4441D02*
X4103Y4441D01*
X4134Y4441D02*
X4169Y4441D01*
X4368Y4441D02*
X4403Y4441D01*
X4434Y4441D02*
X4469Y4441D01*
X4068Y4440D02*
X4103Y4440D01*
X4134Y4440D02*
X4170Y4440D01*
X4368Y4440D02*
X4403Y4440D01*
X4434Y4440D02*
X4470Y4440D01*
X4067Y4439D02*
X4103Y4439D01*
X4135Y4439D02*
X4170Y4439D01*
X4367Y4439D02*
X4403Y4439D01*
X4435Y4439D02*
X4470Y4439D01*
X4067Y4438D02*
X4102Y4438D01*
X4135Y4438D02*
X4170Y4438D01*
X4367Y4438D02*
X4402Y4438D01*
X4435Y4438D02*
X4470Y4438D01*
X4067Y4437D02*
X4102Y4437D01*
X4135Y4437D02*
X4170Y4437D01*
X4367Y4437D02*
X4402Y4437D01*
X4435Y4437D02*
X4470Y4437D01*
X4067Y4436D02*
X4102Y4436D01*
X4135Y4436D02*
X4170Y4436D01*
X4367Y4436D02*
X4402Y4436D01*
X4435Y4436D02*
X4470Y4436D01*
X4067Y4435D02*
X4102Y4435D01*
X4135Y4435D02*
X4170Y4435D01*
X4367Y4435D02*
X4402Y4435D01*
X4435Y4435D02*
X4470Y4435D01*
X4067Y4434D02*
X4102Y4434D01*
X4135Y4434D02*
X4170Y4434D01*
X4367Y4434D02*
X4402Y4434D01*
X4435Y4434D02*
X4470Y4434D01*
X4067Y4433D02*
X4102Y4433D01*
X4135Y4433D02*
X4170Y4433D01*
X4367Y4433D02*
X4402Y4433D01*
X4435Y4433D02*
X4470Y4433D01*
X4067Y4432D02*
X4102Y4432D01*
X4135Y4432D02*
X4170Y4432D01*
X4367Y4432D02*
X4402Y4432D01*
X4435Y4432D02*
X4470Y4432D01*
X4067Y4431D02*
X4103Y4431D01*
X4134Y4431D02*
X4170Y4431D01*
X4367Y4431D02*
X4403Y4431D01*
X4434Y4431D02*
X4470Y4431D01*
X4068Y4430D02*
X4103Y4430D01*
X4134Y4430D02*
X4170Y4430D01*
X4368Y4430D02*
X4403Y4430D01*
X4434Y4430D02*
X4470Y4430D01*
X4068Y4429D02*
X4103Y4429D01*
X4134Y4429D02*
X4169Y4429D01*
X4368Y4429D02*
X4403Y4429D01*
X4434Y4429D02*
X4469Y4429D01*
X4068Y4428D02*
X4104Y4428D01*
X4133Y4428D02*
X4169Y4428D01*
X4368Y4428D02*
X4404Y4428D01*
X4433Y4428D02*
X4469Y4428D01*
X4068Y4427D02*
X4104Y4427D01*
X4133Y4427D02*
X4169Y4427D01*
X4368Y4427D02*
X4404Y4427D01*
X4433Y4427D02*
X4469Y4427D01*
X4069Y4426D02*
X4105Y4426D01*
X4132Y4426D02*
X4168Y4426D01*
X4369Y4426D02*
X4405Y4426D01*
X4432Y4426D02*
X4468Y4426D01*
X4069Y4425D02*
X4106Y4425D01*
X4131Y4425D02*
X4168Y4425D01*
X4369Y4425D02*
X4406Y4425D01*
X4431Y4425D02*
X4468Y4425D01*
X4070Y4424D02*
X4107Y4424D01*
X4130Y4424D02*
X4167Y4424D01*
X4370Y4424D02*
X4407Y4424D01*
X4430Y4424D02*
X4467Y4424D01*
X4070Y4423D02*
X4108Y4423D01*
X4129Y4423D02*
X4167Y4423D01*
X4370Y4423D02*
X4408Y4423D01*
X4429Y4423D02*
X4467Y4423D01*
X4071Y4422D02*
X4109Y4422D01*
X4128Y4422D02*
X4166Y4422D01*
X4371Y4422D02*
X4409Y4422D01*
X4428Y4422D02*
X4466Y4422D01*
X4071Y4421D02*
X4111Y4421D01*
X4126Y4421D02*
X4166Y4421D01*
X4371Y4421D02*
X4411Y4421D01*
X4426Y4421D02*
X4466Y4421D01*
X4072Y4420D02*
X4113Y4420D01*
X4124Y4420D02*
X4165Y4420D01*
X4372Y4420D02*
X4413Y4420D01*
X4424Y4420D02*
X4465Y4420D01*
X4073Y4419D02*
X4164Y4419D01*
X4373Y4419D02*
X4464Y4419D01*
X4074Y4418D02*
X4163Y4418D01*
X4374Y4418D02*
X4463Y4418D01*
X4075Y4417D02*
X4163Y4417D01*
X4374Y4417D02*
X4463Y4417D01*
X4076Y4416D02*
X4162Y4416D01*
X4376Y4416D02*
X4461Y4416D01*
X4077Y4415D02*
X4160Y4415D01*
X4377Y4415D02*
X4460Y4415D01*
X4078Y4414D02*
X4159Y4414D01*
X4378Y4414D02*
X4459Y4414D01*
X4080Y4413D02*
X4158Y4413D01*
X4380Y4413D02*
X4458Y4413D01*
X4081Y4412D02*
X4156Y4412D01*
X4381Y4412D02*
X4456Y4412D01*
X4083Y4411D02*
X4154Y4411D01*
X4383Y4411D02*
X4454Y4411D01*
X4087Y4410D02*
X4151Y4410D01*
X4387Y4410D02*
X4451Y4410D01*
X4090Y4361D02*
X4147Y4361D01*
X4390Y4361D02*
X4447Y4361D01*
X4085Y4360D02*
X4152Y4360D01*
X4385Y4360D02*
X4452Y4360D01*
X4083Y4359D02*
X4154Y4359D01*
X4383Y4359D02*
X4454Y4359D01*
X4081Y4358D02*
X4156Y4358D01*
X4381Y4358D02*
X4456Y4358D01*
X4079Y4357D02*
X4158Y4357D01*
X4379Y4357D02*
X4458Y4357D01*
X4078Y4356D02*
X4159Y4356D01*
X4378Y4356D02*
X4459Y4356D01*
X4076Y4355D02*
X4161Y4355D01*
X4376Y4355D02*
X4461Y4355D01*
X4075Y4354D02*
X4162Y4354D01*
X4375Y4354D02*
X4462Y4354D01*
X4074Y4353D02*
X4163Y4353D01*
X4374Y4353D02*
X4463Y4353D01*
X4073Y4352D02*
X4164Y4352D01*
X4373Y4352D02*
X4464Y4352D01*
X4073Y4351D02*
X4117Y4351D01*
X4120Y4351D02*
X4165Y4351D01*
X4373Y4351D02*
X4417Y4351D01*
X4420Y4351D02*
X4465Y4351D01*
X4072Y4350D02*
X4112Y4350D01*
X4125Y4350D02*
X4165Y4350D01*
X4372Y4350D02*
X4412Y4350D01*
X4425Y4350D02*
X4465Y4350D01*
X4071Y4349D02*
X4110Y4349D01*
X4127Y4349D02*
X4166Y4349D01*
X4371Y4349D02*
X4410Y4349D01*
X4427Y4349D02*
X4466Y4349D01*
X4071Y4348D02*
X4109Y4348D01*
X4129Y4348D02*
X4167Y4348D01*
X4371Y4348D02*
X4409Y4348D01*
X4428Y4348D02*
X4467Y4348D01*
X4070Y4347D02*
X4107Y4347D01*
X4130Y4347D02*
X4167Y4347D01*
X4370Y4347D02*
X4407Y4347D01*
X4430Y4347D02*
X4467Y4347D01*
X4070Y4346D02*
X4106Y4346D01*
X4131Y4346D02*
X4168Y4346D01*
X4369Y4346D02*
X4406Y4346D01*
X4431Y4346D02*
X4468Y4346D01*
X4069Y4345D02*
X4106Y4345D01*
X4132Y4345D02*
X4168Y4345D01*
X4369Y4345D02*
X4406Y4345D01*
X4432Y4345D02*
X4468Y4345D01*
X4069Y4344D02*
X4105Y4344D01*
X4132Y4344D02*
X4168Y4344D01*
X4369Y4344D02*
X4405Y4344D01*
X4432Y4344D02*
X4468Y4344D01*
X4068Y4343D02*
X4104Y4343D01*
X4133Y4343D02*
X4169Y4343D01*
X4368Y4343D02*
X4404Y4343D01*
X4433Y4343D02*
X4469Y4343D01*
X4068Y4342D02*
X4104Y4342D01*
X4133Y4342D02*
X4169Y4342D01*
X4368Y4342D02*
X4404Y4342D01*
X4433Y4342D02*
X4469Y4342D01*
X4068Y4341D02*
X4103Y4341D01*
X4134Y4341D02*
X4169Y4341D01*
X4368Y4341D02*
X4403Y4341D01*
X4434Y4341D02*
X4469Y4341D01*
X4068Y4340D02*
X4103Y4340D01*
X4134Y4340D02*
X4170Y4340D01*
X4368Y4340D02*
X4403Y4340D01*
X4434Y4340D02*
X4470Y4340D01*
X4067Y4339D02*
X4103Y4339D01*
X4135Y4339D02*
X4170Y4339D01*
X4367Y4339D02*
X4403Y4339D01*
X4435Y4339D02*
X4470Y4339D01*
X4067Y4338D02*
X4102Y4338D01*
X4135Y4338D02*
X4170Y4338D01*
X4367Y4338D02*
X4402Y4338D01*
X4435Y4338D02*
X4470Y4338D01*
X4067Y4337D02*
X4102Y4337D01*
X4135Y4337D02*
X4170Y4337D01*
X4367Y4337D02*
X4402Y4337D01*
X4435Y4337D02*
X4470Y4337D01*
X4067Y4336D02*
X4102Y4336D01*
X4135Y4336D02*
X4170Y4336D01*
X4367Y4336D02*
X4402Y4336D01*
X4435Y4336D02*
X4470Y4336D01*
X4067Y4335D02*
X4102Y4335D01*
X4135Y4335D02*
X4170Y4335D01*
X4367Y4335D02*
X4402Y4335D01*
X4435Y4335D02*
X4470Y4335D01*
X4067Y4334D02*
X4102Y4334D01*
X4135Y4334D02*
X4170Y4334D01*
X4367Y4334D02*
X4402Y4334D01*
X4435Y4334D02*
X4470Y4334D01*
X4067Y4333D02*
X4102Y4333D01*
X4135Y4333D02*
X4170Y4333D01*
X4367Y4333D02*
X4402Y4333D01*
X4435Y4333D02*
X4470Y4333D01*
X4067Y4332D02*
X4102Y4332D01*
X4135Y4332D02*
X4170Y4332D01*
X4367Y4332D02*
X4402Y4332D01*
X4435Y4332D02*
X4470Y4332D01*
X4067Y4331D02*
X4103Y4331D01*
X4134Y4331D02*
X4170Y4331D01*
X4367Y4331D02*
X4403Y4331D01*
X4434Y4331D02*
X4470Y4331D01*
X4068Y4330D02*
X4103Y4330D01*
X4134Y4330D02*
X4170Y4330D01*
X4368Y4330D02*
X4403Y4330D01*
X4434Y4330D02*
X4470Y4330D01*
X4068Y4329D02*
X4103Y4329D01*
X4134Y4329D02*
X4169Y4329D01*
X4368Y4329D02*
X4403Y4329D01*
X4434Y4329D02*
X4469Y4329D01*
X4068Y4328D02*
X4104Y4328D01*
X4133Y4328D02*
X4169Y4328D01*
X4368Y4328D02*
X4404Y4328D01*
X4433Y4328D02*
X4469Y4328D01*
X4068Y4327D02*
X4104Y4327D01*
X4133Y4327D02*
X4169Y4327D01*
X4368Y4327D02*
X4404Y4327D01*
X4433Y4327D02*
X4469Y4327D01*
X4069Y4326D02*
X4105Y4326D01*
X4132Y4326D02*
X4168Y4326D01*
X4369Y4326D02*
X4405Y4326D01*
X4432Y4326D02*
X4468Y4326D01*
X4069Y4325D02*
X4106Y4325D01*
X4131Y4325D02*
X4168Y4325D01*
X4369Y4325D02*
X4406Y4325D01*
X4431Y4325D02*
X4468Y4325D01*
X4070Y4324D02*
X4107Y4324D01*
X4130Y4324D02*
X4167Y4324D01*
X4370Y4324D02*
X4407Y4324D01*
X4430Y4324D02*
X4467Y4324D01*
X4070Y4323D02*
X4108Y4323D01*
X4129Y4323D02*
X4167Y4323D01*
X4370Y4323D02*
X4408Y4323D01*
X4429Y4323D02*
X4467Y4323D01*
X4071Y4322D02*
X4109Y4322D01*
X4128Y4322D02*
X4166Y4322D01*
X4371Y4322D02*
X4409Y4322D01*
X4428Y4322D02*
X4466Y4322D01*
X4071Y4321D02*
X4111Y4321D01*
X4126Y4321D02*
X4166Y4321D01*
X4371Y4321D02*
X4411Y4321D01*
X4426Y4321D02*
X4466Y4321D01*
X4072Y4320D02*
X4113Y4320D01*
X4124Y4320D02*
X4165Y4320D01*
X4372Y4320D02*
X4413Y4320D01*
X4424Y4320D02*
X4465Y4320D01*
X4073Y4319D02*
X4164Y4319D01*
X4373Y4319D02*
X4464Y4319D01*
X4074Y4318D02*
X4163Y4318D01*
X4374Y4318D02*
X4463Y4318D01*
X4075Y4317D02*
X4163Y4317D01*
X4374Y4317D02*
X4463Y4317D01*
X4076Y4316D02*
X4162Y4316D01*
X4376Y4316D02*
X4461Y4316D01*
X4077Y4315D02*
X4160Y4315D01*
X4377Y4315D02*
X4460Y4315D01*
X4078Y4314D02*
X4159Y4314D01*
X4378Y4314D02*
X4459Y4314D01*
X4080Y4313D02*
X4158Y4313D01*
X4380Y4313D02*
X4457Y4313D01*
X4081Y4312D02*
X4156Y4312D01*
X4381Y4312D02*
X4456Y4312D01*
X4083Y4311D02*
X4154Y4311D01*
X4383Y4311D02*
X4454Y4311D01*
X4087Y4310D02*
X4151Y4310D01*
X4387Y4310D02*
X4451Y4310D01*
X4090Y4261D02*
X4147Y4261D01*
X4390Y4261D02*
X4447Y4261D01*
X4085Y4260D02*
X4152Y4260D01*
X4385Y4260D02*
X4452Y4260D01*
X4083Y4259D02*
X4154Y4259D01*
X4383Y4259D02*
X4454Y4259D01*
X4081Y4258D02*
X4156Y4258D01*
X4381Y4258D02*
X4456Y4258D01*
X4079Y4257D02*
X4158Y4257D01*
X4379Y4257D02*
X4458Y4257D01*
X4078Y4256D02*
X4159Y4256D01*
X4378Y4256D02*
X4459Y4256D01*
X4076Y4255D02*
X4161Y4255D01*
X4376Y4255D02*
X4461Y4255D01*
X4075Y4254D02*
X4162Y4254D01*
X4375Y4254D02*
X4462Y4254D01*
X4074Y4253D02*
X4163Y4253D01*
X4374Y4253D02*
X4463Y4253D01*
X4073Y4252D02*
X4164Y4252D01*
X4373Y4252D02*
X4464Y4252D01*
X4073Y4251D02*
X4117Y4251D01*
X4121Y4251D02*
X4165Y4251D01*
X4373Y4251D02*
X4417Y4251D01*
X4421Y4251D02*
X4465Y4251D01*
X4072Y4250D02*
X4112Y4250D01*
X4125Y4250D02*
X4165Y4250D01*
X4372Y4250D02*
X4412Y4250D01*
X4425Y4250D02*
X4465Y4250D01*
X4071Y4249D02*
X4110Y4249D01*
X4127Y4249D02*
X4166Y4249D01*
X4371Y4249D02*
X4410Y4249D01*
X4427Y4249D02*
X4466Y4249D01*
X4071Y4248D02*
X4109Y4248D01*
X4129Y4248D02*
X4167Y4248D01*
X4371Y4248D02*
X4409Y4248D01*
X4428Y4248D02*
X4467Y4248D01*
X4070Y4247D02*
X4107Y4247D01*
X4130Y4247D02*
X4167Y4247D01*
X4370Y4247D02*
X4407Y4247D01*
X4430Y4247D02*
X4467Y4247D01*
X4070Y4246D02*
X4106Y4246D01*
X4131Y4246D02*
X4168Y4246D01*
X4369Y4246D02*
X4406Y4246D01*
X4431Y4246D02*
X4468Y4246D01*
X4069Y4245D02*
X4106Y4245D01*
X4132Y4245D02*
X4168Y4245D01*
X4369Y4245D02*
X4406Y4245D01*
X4432Y4245D02*
X4468Y4245D01*
X4069Y4244D02*
X4105Y4244D01*
X4132Y4244D02*
X4168Y4244D01*
X4369Y4244D02*
X4405Y4244D01*
X4432Y4244D02*
X4468Y4244D01*
X4068Y4243D02*
X4104Y4243D01*
X4133Y4243D02*
X4169Y4243D01*
X4368Y4243D02*
X4404Y4243D01*
X4433Y4243D02*
X4469Y4243D01*
X4068Y4242D02*
X4104Y4242D01*
X4133Y4242D02*
X4169Y4242D01*
X4368Y4242D02*
X4404Y4242D01*
X4433Y4242D02*
X4469Y4242D01*
X4068Y4241D02*
X4103Y4241D01*
X4134Y4241D02*
X4169Y4241D01*
X4368Y4241D02*
X4403Y4241D01*
X4434Y4241D02*
X4469Y4241D01*
X4068Y4240D02*
X4103Y4240D01*
X4134Y4240D02*
X4170Y4240D01*
X4368Y4240D02*
X4403Y4240D01*
X4434Y4240D02*
X4470Y4240D01*
X4067Y4239D02*
X4103Y4239D01*
X4135Y4239D02*
X4170Y4239D01*
X4367Y4239D02*
X4403Y4239D01*
X4435Y4239D02*
X4470Y4239D01*
X4067Y4238D02*
X4102Y4238D01*
X4135Y4238D02*
X4170Y4238D01*
X4367Y4238D02*
X4402Y4238D01*
X4435Y4238D02*
X4470Y4238D01*
X4067Y4237D02*
X4102Y4237D01*
X4135Y4237D02*
X4170Y4237D01*
X4367Y4237D02*
X4402Y4237D01*
X4435Y4237D02*
X4470Y4237D01*
X4067Y4236D02*
X4102Y4236D01*
X4135Y4236D02*
X4170Y4236D01*
X4367Y4236D02*
X4402Y4236D01*
X4435Y4236D02*
X4470Y4236D01*
X4067Y4235D02*
X4102Y4235D01*
X4135Y4235D02*
X4170Y4235D01*
X4367Y4235D02*
X4402Y4235D01*
X4435Y4235D02*
X4470Y4235D01*
X4067Y4234D02*
X4102Y4234D01*
X4135Y4234D02*
X4170Y4234D01*
X4367Y4234D02*
X4402Y4234D01*
X4435Y4234D02*
X4470Y4234D01*
X4067Y4233D02*
X4102Y4233D01*
X4135Y4233D02*
X4170Y4233D01*
X4367Y4233D02*
X4402Y4233D01*
X4435Y4233D02*
X4470Y4233D01*
X4067Y4232D02*
X4102Y4232D01*
X4135Y4232D02*
X4170Y4232D01*
X4367Y4232D02*
X4402Y4232D01*
X4435Y4232D02*
X4470Y4232D01*
X4067Y4231D02*
X4103Y4231D01*
X4134Y4231D02*
X4170Y4231D01*
X4367Y4231D02*
X4403Y4231D01*
X4434Y4231D02*
X4470Y4231D01*
X4068Y4230D02*
X4103Y4230D01*
X4134Y4230D02*
X4170Y4230D01*
X4368Y4230D02*
X4403Y4230D01*
X4434Y4230D02*
X4470Y4230D01*
X4068Y4229D02*
X4103Y4229D01*
X4134Y4229D02*
X4169Y4229D01*
X4368Y4229D02*
X4403Y4229D01*
X4434Y4229D02*
X4469Y4229D01*
X4068Y4228D02*
X4104Y4228D01*
X4133Y4228D02*
X4169Y4228D01*
X4368Y4228D02*
X4404Y4228D01*
X4433Y4228D02*
X4469Y4228D01*
X4068Y4227D02*
X4104Y4227D01*
X4133Y4227D02*
X4169Y4227D01*
X4368Y4227D02*
X4404Y4227D01*
X4433Y4227D02*
X4469Y4227D01*
X4069Y4226D02*
X4105Y4226D01*
X4132Y4226D02*
X4168Y4226D01*
X4369Y4226D02*
X4405Y4226D01*
X4432Y4226D02*
X4468Y4226D01*
X4069Y4225D02*
X4106Y4225D01*
X4131Y4225D02*
X4168Y4225D01*
X4369Y4225D02*
X4406Y4225D01*
X4431Y4225D02*
X4468Y4225D01*
X4070Y4224D02*
X4107Y4224D01*
X4130Y4224D02*
X4167Y4224D01*
X4370Y4224D02*
X4407Y4224D01*
X4430Y4224D02*
X4467Y4224D01*
X4070Y4223D02*
X4108Y4223D01*
X4129Y4223D02*
X4167Y4223D01*
X4370Y4223D02*
X4408Y4223D01*
X4429Y4223D02*
X4467Y4223D01*
X4071Y4222D02*
X4109Y4222D01*
X4128Y4222D02*
X4166Y4222D01*
X4371Y4222D02*
X4409Y4222D01*
X4428Y4222D02*
X4466Y4222D01*
X4071Y4221D02*
X4111Y4221D01*
X4126Y4221D02*
X4166Y4221D01*
X4371Y4221D02*
X4411Y4221D01*
X4426Y4221D02*
X4466Y4221D01*
X4072Y4220D02*
X4113Y4220D01*
X4124Y4220D02*
X4165Y4220D01*
X4372Y4220D02*
X4413Y4220D01*
X4424Y4220D02*
X4465Y4220D01*
X4073Y4219D02*
X4164Y4219D01*
X4373Y4219D02*
X4464Y4219D01*
X4074Y4218D02*
X4163Y4218D01*
X4374Y4218D02*
X4463Y4218D01*
X4075Y4217D02*
X4163Y4217D01*
X4374Y4217D02*
X4463Y4217D01*
X4076Y4216D02*
X4162Y4216D01*
X4376Y4216D02*
X4461Y4216D01*
X4077Y4215D02*
X4160Y4215D01*
X4377Y4215D02*
X4460Y4215D01*
X4078Y4214D02*
X4159Y4214D01*
X4378Y4214D02*
X4459Y4214D01*
X4080Y4213D02*
X4157Y4213D01*
X4380Y4213D02*
X4457Y4213D01*
X4081Y4212D02*
X4156Y4212D01*
X4381Y4212D02*
X4456Y4212D01*
X4084Y4211D02*
X4154Y4211D01*
X4383Y4211D02*
X4454Y4211D01*
X4087Y4210D02*
X4151Y4210D01*
X4387Y4210D02*
X4451Y4210D01*
X4090Y4161D02*
X4147Y4161D01*
X4390Y4161D02*
X4447Y4161D01*
X4085Y4160D02*
X4152Y4160D01*
X4385Y4160D02*
X4452Y4160D01*
X4083Y4159D02*
X4154Y4159D01*
X4383Y4159D02*
X4454Y4159D01*
X4081Y4158D02*
X4156Y4158D01*
X4381Y4158D02*
X4456Y4158D01*
X4079Y4157D02*
X4158Y4157D01*
X4379Y4157D02*
X4458Y4157D01*
X4078Y4156D02*
X4159Y4156D01*
X4378Y4156D02*
X4459Y4156D01*
X4076Y4155D02*
X4161Y4155D01*
X4376Y4155D02*
X4461Y4155D01*
X4075Y4154D02*
X4162Y4154D01*
X4375Y4154D02*
X4462Y4154D01*
X4074Y4153D02*
X4163Y4153D01*
X4374Y4153D02*
X4463Y4153D01*
X4073Y4152D02*
X4164Y4152D01*
X4373Y4152D02*
X4464Y4152D01*
X4073Y4151D02*
X4117Y4151D01*
X4121Y4151D02*
X4165Y4151D01*
X4373Y4151D02*
X4417Y4151D01*
X4421Y4151D02*
X4465Y4151D01*
X4072Y4150D02*
X4112Y4150D01*
X4125Y4150D02*
X4165Y4150D01*
X4372Y4150D02*
X4412Y4150D01*
X4425Y4150D02*
X4465Y4150D01*
X4071Y4149D02*
X4110Y4149D01*
X4127Y4149D02*
X4166Y4149D01*
X4371Y4149D02*
X4410Y4149D01*
X4427Y4149D02*
X4466Y4149D01*
X4071Y4148D02*
X4109Y4148D01*
X4129Y4148D02*
X4167Y4148D01*
X4371Y4148D02*
X4409Y4148D01*
X4428Y4148D02*
X4467Y4148D01*
X4070Y4147D02*
X4107Y4147D01*
X4130Y4147D02*
X4167Y4147D01*
X4370Y4147D02*
X4407Y4147D01*
X4430Y4147D02*
X4467Y4147D01*
X4069Y4146D02*
X4106Y4146D01*
X4131Y4146D02*
X4168Y4146D01*
X4369Y4146D02*
X4406Y4146D01*
X4431Y4146D02*
X4468Y4146D01*
X4069Y4145D02*
X4106Y4145D01*
X4132Y4145D02*
X4168Y4145D01*
X4369Y4145D02*
X4406Y4145D01*
X4432Y4145D02*
X4468Y4145D01*
X4069Y4144D02*
X4105Y4144D01*
X4132Y4144D02*
X4168Y4144D01*
X4369Y4144D02*
X4405Y4144D01*
X4432Y4144D02*
X4468Y4144D01*
X4068Y4143D02*
X4104Y4143D01*
X4133Y4143D02*
X4169Y4143D01*
X4368Y4143D02*
X4404Y4143D01*
X4433Y4143D02*
X4469Y4143D01*
X4068Y4142D02*
X4104Y4142D01*
X4133Y4142D02*
X4169Y4142D01*
X4368Y4142D02*
X4404Y4142D01*
X4433Y4142D02*
X4469Y4142D01*
X4068Y4141D02*
X4103Y4141D01*
X4134Y4141D02*
X4169Y4141D01*
X4368Y4141D02*
X4403Y4141D01*
X4434Y4141D02*
X4469Y4141D01*
X4068Y4140D02*
X4103Y4140D01*
X4134Y4140D02*
X4170Y4140D01*
X4368Y4140D02*
X4403Y4140D01*
X4434Y4140D02*
X4470Y4140D01*
X4067Y4139D02*
X4103Y4139D01*
X4135Y4139D02*
X4170Y4139D01*
X4367Y4139D02*
X4403Y4139D01*
X4435Y4139D02*
X4470Y4139D01*
X4067Y4138D02*
X4102Y4138D01*
X4135Y4138D02*
X4170Y4138D01*
X4367Y4138D02*
X4402Y4138D01*
X4435Y4138D02*
X4470Y4138D01*
X4067Y4137D02*
X4102Y4137D01*
X4135Y4137D02*
X4170Y4137D01*
X4367Y4137D02*
X4402Y4137D01*
X4435Y4137D02*
X4470Y4137D01*
X4067Y4136D02*
X4102Y4136D01*
X4135Y4136D02*
X4170Y4136D01*
X4367Y4136D02*
X4402Y4136D01*
X4435Y4136D02*
X4470Y4136D01*
X4067Y4135D02*
X4102Y4135D01*
X4135Y4135D02*
X4170Y4135D01*
X4367Y4135D02*
X4402Y4135D01*
X4435Y4135D02*
X4470Y4135D01*
X4067Y4134D02*
X4102Y4134D01*
X4135Y4134D02*
X4170Y4134D01*
X4367Y4134D02*
X4402Y4134D01*
X4435Y4134D02*
X4470Y4134D01*
X4067Y4133D02*
X4102Y4133D01*
X4135Y4133D02*
X4170Y4133D01*
X4367Y4133D02*
X4402Y4133D01*
X4435Y4133D02*
X4470Y4133D01*
X4067Y4132D02*
X4102Y4132D01*
X4135Y4132D02*
X4170Y4132D01*
X4367Y4132D02*
X4402Y4132D01*
X4435Y4132D02*
X4470Y4132D01*
X4067Y4131D02*
X4103Y4131D01*
X4134Y4131D02*
X4170Y4131D01*
X4367Y4131D02*
X4403Y4131D01*
X4434Y4131D02*
X4470Y4131D01*
X4068Y4130D02*
X4103Y4130D01*
X4134Y4130D02*
X4170Y4130D01*
X4368Y4130D02*
X4403Y4130D01*
X4434Y4130D02*
X4470Y4130D01*
X4068Y4129D02*
X4103Y4129D01*
X4134Y4129D02*
X4169Y4129D01*
X4368Y4129D02*
X4403Y4129D01*
X4434Y4129D02*
X4469Y4129D01*
X4068Y4128D02*
X4104Y4128D01*
X4133Y4128D02*
X4169Y4128D01*
X4368Y4128D02*
X4404Y4128D01*
X4433Y4128D02*
X4469Y4128D01*
X4068Y4127D02*
X4104Y4127D01*
X4133Y4127D02*
X4169Y4127D01*
X4368Y4127D02*
X4404Y4127D01*
X4433Y4127D02*
X4469Y4127D01*
X4069Y4126D02*
X4105Y4126D01*
X4132Y4126D02*
X4168Y4126D01*
X4369Y4126D02*
X4405Y4126D01*
X4432Y4126D02*
X4468Y4126D01*
X4069Y4125D02*
X4106Y4125D01*
X4131Y4125D02*
X4168Y4125D01*
X4369Y4125D02*
X4406Y4125D01*
X4431Y4125D02*
X4468Y4125D01*
X4070Y4124D02*
X4107Y4124D01*
X4130Y4124D02*
X4167Y4124D01*
X4370Y4124D02*
X4407Y4124D01*
X4430Y4124D02*
X4467Y4124D01*
X4070Y4123D02*
X4108Y4123D01*
X4129Y4123D02*
X4167Y4123D01*
X4370Y4123D02*
X4408Y4123D01*
X4429Y4123D02*
X4467Y4123D01*
X4071Y4122D02*
X4109Y4122D01*
X4128Y4122D02*
X4166Y4122D01*
X4371Y4122D02*
X4409Y4122D01*
X4428Y4122D02*
X4466Y4122D01*
X4071Y4121D02*
X4111Y4121D01*
X4126Y4121D02*
X4166Y4121D01*
X4371Y4121D02*
X4411Y4121D01*
X4426Y4121D02*
X4466Y4121D01*
X4072Y4120D02*
X4113Y4120D01*
X4124Y4120D02*
X4165Y4120D01*
X4372Y4120D02*
X4413Y4120D01*
X4424Y4120D02*
X4465Y4120D01*
X4073Y4119D02*
X4164Y4119D01*
X4373Y4119D02*
X4464Y4119D01*
X4074Y4118D02*
X4163Y4118D01*
X4374Y4118D02*
X4463Y4118D01*
X4075Y4117D02*
X4163Y4117D01*
X4374Y4117D02*
X4463Y4117D01*
X4076Y4116D02*
X4162Y4116D01*
X4376Y4116D02*
X4461Y4116D01*
X4077Y4115D02*
X4160Y4115D01*
X4377Y4115D02*
X4460Y4115D01*
X4078Y4114D02*
X4159Y4114D01*
X4378Y4114D02*
X4459Y4114D01*
X4080Y4113D02*
X4157Y4113D01*
X4380Y4113D02*
X4457Y4113D01*
X4081Y4112D02*
X4156Y4112D01*
X4381Y4112D02*
X4456Y4112D01*
X4084Y4111D02*
X4154Y4111D01*
X4383Y4111D02*
X4454Y4111D01*
X4087Y4110D02*
X4151Y4110D01*
X4387Y4110D02*
X4451Y4110D01*
X4090Y3761D02*
X4147Y3761D01*
X4390Y3761D02*
X4447Y3761D01*
X4085Y3760D02*
X4152Y3760D01*
X4385Y3760D02*
X4452Y3760D01*
X4083Y3759D02*
X4154Y3759D01*
X4383Y3759D02*
X4454Y3759D01*
X4081Y3758D02*
X4156Y3758D01*
X4381Y3758D02*
X4456Y3758D01*
X4079Y3757D02*
X4158Y3757D01*
X4379Y3757D02*
X4458Y3757D01*
X4078Y3756D02*
X4159Y3756D01*
X4378Y3756D02*
X4459Y3756D01*
X4076Y3755D02*
X4161Y3755D01*
X4376Y3755D02*
X4461Y3755D01*
X4075Y3754D02*
X4162Y3754D01*
X4375Y3754D02*
X4462Y3754D01*
X4074Y3753D02*
X4163Y3753D01*
X4374Y3753D02*
X4463Y3753D01*
X4073Y3752D02*
X4164Y3752D01*
X4373Y3752D02*
X4464Y3752D01*
X4073Y3751D02*
X4116Y3751D01*
X4121Y3751D02*
X4165Y3751D01*
X4373Y3751D02*
X4416Y3751D01*
X4421Y3751D02*
X4465Y3751D01*
X4072Y3750D02*
X4112Y3750D01*
X4125Y3750D02*
X4165Y3750D01*
X4372Y3750D02*
X4412Y3750D01*
X4425Y3750D02*
X4465Y3750D01*
X4071Y3749D02*
X4110Y3749D01*
X4127Y3749D02*
X4166Y3749D01*
X4371Y3749D02*
X4410Y3749D01*
X4427Y3749D02*
X4466Y3749D01*
X4071Y3748D02*
X4109Y3748D01*
X4129Y3748D02*
X4167Y3748D01*
X4371Y3748D02*
X4409Y3748D01*
X4429Y3748D02*
X4467Y3748D01*
X4070Y3747D02*
X4107Y3747D01*
X4130Y3747D02*
X4167Y3747D01*
X4370Y3747D02*
X4407Y3747D01*
X4430Y3747D02*
X4467Y3747D01*
X4069Y3746D02*
X4106Y3746D01*
X4131Y3746D02*
X4168Y3746D01*
X4369Y3746D02*
X4406Y3746D01*
X4431Y3746D02*
X4468Y3746D01*
X4069Y3745D02*
X4106Y3745D01*
X4132Y3745D02*
X4168Y3745D01*
X4369Y3745D02*
X4406Y3745D01*
X4432Y3745D02*
X4468Y3745D01*
X4069Y3744D02*
X4105Y3744D01*
X4132Y3744D02*
X4168Y3744D01*
X4369Y3744D02*
X4405Y3744D01*
X4432Y3744D02*
X4468Y3744D01*
X4068Y3743D02*
X4104Y3743D01*
X4133Y3743D02*
X4169Y3743D01*
X4368Y3743D02*
X4404Y3743D01*
X4433Y3743D02*
X4469Y3743D01*
X4068Y3742D02*
X4104Y3742D01*
X4133Y3742D02*
X4169Y3742D01*
X4368Y3742D02*
X4404Y3742D01*
X4433Y3742D02*
X4469Y3742D01*
X4068Y3741D02*
X4103Y3741D01*
X4134Y3741D02*
X4169Y3741D01*
X4368Y3741D02*
X4403Y3741D01*
X4434Y3741D02*
X4469Y3741D01*
X4068Y3740D02*
X4103Y3740D01*
X4134Y3740D02*
X4170Y3740D01*
X4368Y3740D02*
X4403Y3740D01*
X4434Y3740D02*
X4470Y3740D01*
X4067Y3739D02*
X4103Y3739D01*
X4135Y3739D02*
X4170Y3739D01*
X4367Y3739D02*
X4403Y3739D01*
X4435Y3739D02*
X4470Y3739D01*
X4067Y3738D02*
X4102Y3738D01*
X4135Y3738D02*
X4170Y3738D01*
X4367Y3738D02*
X4402Y3738D01*
X4435Y3738D02*
X4470Y3738D01*
X4067Y3737D02*
X4102Y3737D01*
X4135Y3737D02*
X4170Y3737D01*
X4367Y3737D02*
X4402Y3737D01*
X4435Y3737D02*
X4470Y3737D01*
X4067Y3736D02*
X4102Y3736D01*
X4135Y3736D02*
X4170Y3736D01*
X4367Y3736D02*
X4402Y3736D01*
X4435Y3736D02*
X4470Y3736D01*
X4067Y3735D02*
X4102Y3735D01*
X4135Y3735D02*
X4170Y3735D01*
X4367Y3735D02*
X4402Y3735D01*
X4435Y3735D02*
X4470Y3735D01*
X4067Y3734D02*
X4102Y3734D01*
X4135Y3734D02*
X4170Y3734D01*
X4367Y3734D02*
X4402Y3734D01*
X4435Y3734D02*
X4470Y3734D01*
X4067Y3733D02*
X4102Y3733D01*
X4135Y3733D02*
X4170Y3733D01*
X4367Y3733D02*
X4402Y3733D01*
X4435Y3733D02*
X4470Y3733D01*
X4067Y3732D02*
X4102Y3732D01*
X4135Y3732D02*
X4170Y3732D01*
X4367Y3732D02*
X4402Y3732D01*
X4435Y3732D02*
X4470Y3732D01*
X4067Y3731D02*
X4103Y3731D01*
X4134Y3731D02*
X4170Y3731D01*
X4367Y3731D02*
X4403Y3731D01*
X4434Y3731D02*
X4470Y3731D01*
X4068Y3730D02*
X4103Y3730D01*
X4134Y3730D02*
X4170Y3730D01*
X4368Y3730D02*
X4403Y3730D01*
X4434Y3730D02*
X4470Y3730D01*
X4068Y3729D02*
X4103Y3729D01*
X4134Y3729D02*
X4169Y3729D01*
X4368Y3729D02*
X4403Y3729D01*
X4434Y3729D02*
X4469Y3729D01*
X4068Y3728D02*
X4104Y3728D01*
X4133Y3728D02*
X4169Y3728D01*
X4368Y3728D02*
X4404Y3728D01*
X4433Y3728D02*
X4469Y3728D01*
X4068Y3727D02*
X4104Y3727D01*
X4133Y3727D02*
X4169Y3727D01*
X4368Y3727D02*
X4404Y3727D01*
X4433Y3727D02*
X4469Y3727D01*
X4069Y3726D02*
X4105Y3726D01*
X4132Y3726D02*
X4168Y3726D01*
X4369Y3726D02*
X4405Y3726D01*
X4432Y3726D02*
X4468Y3726D01*
X4069Y3725D02*
X4106Y3725D01*
X4131Y3725D02*
X4168Y3725D01*
X4369Y3725D02*
X4406Y3725D01*
X4431Y3725D02*
X4468Y3725D01*
X4070Y3724D02*
X4107Y3724D01*
X4130Y3724D02*
X4167Y3724D01*
X4370Y3724D02*
X4407Y3724D01*
X4430Y3724D02*
X4467Y3724D01*
X4070Y3723D02*
X4108Y3723D01*
X4129Y3723D02*
X4167Y3723D01*
X4370Y3723D02*
X4408Y3723D01*
X4429Y3723D02*
X4467Y3723D01*
X4071Y3722D02*
X4109Y3722D01*
X4128Y3722D02*
X4166Y3722D01*
X4371Y3722D02*
X4409Y3722D01*
X4428Y3722D02*
X4466Y3722D01*
X4071Y3721D02*
X4111Y3721D01*
X4126Y3721D02*
X4166Y3721D01*
X4371Y3721D02*
X4411Y3721D01*
X4426Y3721D02*
X4466Y3721D01*
X4072Y3720D02*
X4113Y3720D01*
X4124Y3720D02*
X4165Y3720D01*
X4372Y3720D02*
X4413Y3720D01*
X4424Y3720D02*
X4465Y3720D01*
X4073Y3719D02*
X4164Y3719D01*
X4373Y3719D02*
X4464Y3719D01*
X4074Y3718D02*
X4163Y3718D01*
X4374Y3718D02*
X4463Y3718D01*
X4075Y3717D02*
X4163Y3717D01*
X4375Y3717D02*
X4463Y3717D01*
X4076Y3716D02*
X4161Y3716D01*
X4376Y3716D02*
X4461Y3716D01*
X4077Y3715D02*
X4160Y3715D01*
X4377Y3715D02*
X4460Y3715D01*
X4078Y3714D02*
X4159Y3714D01*
X4378Y3714D02*
X4459Y3714D01*
X4080Y3713D02*
X4157Y3713D01*
X4380Y3713D02*
X4457Y3713D01*
X4082Y3712D02*
X4156Y3712D01*
X4381Y3712D02*
X4456Y3712D01*
X4084Y3711D02*
X4154Y3711D01*
X4384Y3711D02*
X4454Y3711D01*
X4087Y3710D02*
X4150Y3710D01*
X4387Y3710D02*
X4450Y3710D01*
X4090Y3661D02*
X4147Y3661D01*
X4390Y3661D02*
X4447Y3661D01*
X4085Y3660D02*
X4152Y3660D01*
X4385Y3660D02*
X4452Y3660D01*
X4083Y3659D02*
X4154Y3659D01*
X4383Y3659D02*
X4454Y3659D01*
X4081Y3658D02*
X4156Y3658D01*
X4381Y3658D02*
X4456Y3658D01*
X4079Y3657D02*
X4158Y3657D01*
X4379Y3657D02*
X4458Y3657D01*
X4078Y3656D02*
X4159Y3656D01*
X4378Y3656D02*
X4459Y3656D01*
X4076Y3655D02*
X4161Y3655D01*
X4376Y3655D02*
X4461Y3655D01*
X4075Y3654D02*
X4162Y3654D01*
X4375Y3654D02*
X4462Y3654D01*
X4074Y3653D02*
X4163Y3653D01*
X4374Y3653D02*
X4463Y3653D01*
X4073Y3652D02*
X4164Y3652D01*
X4373Y3652D02*
X4464Y3652D01*
X4073Y3651D02*
X4116Y3651D01*
X4121Y3651D02*
X4165Y3651D01*
X4373Y3651D02*
X4416Y3651D01*
X4421Y3651D02*
X4465Y3651D01*
X4072Y3650D02*
X4112Y3650D01*
X4125Y3650D02*
X4165Y3650D01*
X4372Y3650D02*
X4412Y3650D01*
X4425Y3650D02*
X4465Y3650D01*
X4071Y3649D02*
X4110Y3649D01*
X4127Y3649D02*
X4166Y3649D01*
X4371Y3649D02*
X4410Y3649D01*
X4427Y3649D02*
X4466Y3649D01*
X4071Y3648D02*
X4109Y3648D01*
X4129Y3648D02*
X4167Y3648D01*
X4371Y3648D02*
X4409Y3648D01*
X4429Y3648D02*
X4467Y3648D01*
X4070Y3647D02*
X4107Y3647D01*
X4130Y3647D02*
X4167Y3647D01*
X4370Y3647D02*
X4407Y3647D01*
X4430Y3647D02*
X4467Y3647D01*
X4069Y3646D02*
X4106Y3646D01*
X4131Y3646D02*
X4168Y3646D01*
X4369Y3646D02*
X4406Y3646D01*
X4431Y3646D02*
X4468Y3646D01*
X4069Y3645D02*
X4106Y3645D01*
X4132Y3645D02*
X4168Y3645D01*
X4369Y3645D02*
X4406Y3645D01*
X4432Y3645D02*
X4468Y3645D01*
X4069Y3644D02*
X4105Y3644D01*
X4132Y3644D02*
X4168Y3644D01*
X4369Y3644D02*
X4405Y3644D01*
X4432Y3644D02*
X4468Y3644D01*
X4068Y3643D02*
X4104Y3643D01*
X4133Y3643D02*
X4169Y3643D01*
X4368Y3643D02*
X4404Y3643D01*
X4433Y3643D02*
X4469Y3643D01*
X4068Y3642D02*
X4104Y3642D01*
X4133Y3642D02*
X4169Y3642D01*
X4368Y3642D02*
X4404Y3642D01*
X4433Y3642D02*
X4469Y3642D01*
X4068Y3641D02*
X4103Y3641D01*
X4134Y3641D02*
X4169Y3641D01*
X4368Y3641D02*
X4403Y3641D01*
X4434Y3641D02*
X4469Y3641D01*
X4068Y3640D02*
X4103Y3640D01*
X4134Y3640D02*
X4170Y3640D01*
X4368Y3640D02*
X4403Y3640D01*
X4434Y3640D02*
X4470Y3640D01*
X4067Y3639D02*
X4103Y3639D01*
X4135Y3639D02*
X4170Y3639D01*
X4367Y3639D02*
X4403Y3639D01*
X4435Y3639D02*
X4470Y3639D01*
X4067Y3638D02*
X4102Y3638D01*
X4135Y3638D02*
X4170Y3638D01*
X4367Y3638D02*
X4402Y3638D01*
X4435Y3638D02*
X4470Y3638D01*
X4067Y3637D02*
X4102Y3637D01*
X4135Y3637D02*
X4170Y3637D01*
X4367Y3637D02*
X4402Y3637D01*
X4435Y3637D02*
X4470Y3637D01*
X4067Y3636D02*
X4102Y3636D01*
X4135Y3636D02*
X4170Y3636D01*
X4367Y3636D02*
X4402Y3636D01*
X4435Y3636D02*
X4470Y3636D01*
X4067Y3635D02*
X4102Y3635D01*
X4135Y3635D02*
X4170Y3635D01*
X4367Y3635D02*
X4402Y3635D01*
X4435Y3635D02*
X4470Y3635D01*
X4067Y3634D02*
X4102Y3634D01*
X4135Y3634D02*
X4170Y3634D01*
X4367Y3634D02*
X4402Y3634D01*
X4435Y3634D02*
X4470Y3634D01*
X4067Y3633D02*
X4102Y3633D01*
X4135Y3633D02*
X4170Y3633D01*
X4367Y3633D02*
X4402Y3633D01*
X4435Y3633D02*
X4470Y3633D01*
X4067Y3632D02*
X4102Y3632D01*
X4135Y3632D02*
X4170Y3632D01*
X4367Y3632D02*
X4402Y3632D01*
X4435Y3632D02*
X4470Y3632D01*
X4067Y3631D02*
X4103Y3631D01*
X4134Y3631D02*
X4170Y3631D01*
X4367Y3631D02*
X4403Y3631D01*
X4434Y3631D02*
X4470Y3631D01*
X4068Y3630D02*
X4103Y3630D01*
X4134Y3630D02*
X4170Y3630D01*
X4368Y3630D02*
X4403Y3630D01*
X4434Y3630D02*
X4470Y3630D01*
X4068Y3629D02*
X4103Y3629D01*
X4134Y3629D02*
X4169Y3629D01*
X4368Y3629D02*
X4403Y3629D01*
X4434Y3629D02*
X4469Y3629D01*
X4068Y3628D02*
X4104Y3628D01*
X4133Y3628D02*
X4169Y3628D01*
X4368Y3628D02*
X4404Y3628D01*
X4433Y3628D02*
X4469Y3628D01*
X4068Y3627D02*
X4104Y3627D01*
X4133Y3627D02*
X4169Y3627D01*
X4368Y3627D02*
X4404Y3627D01*
X4433Y3627D02*
X4469Y3627D01*
X4069Y3626D02*
X4105Y3626D01*
X4132Y3626D02*
X4168Y3626D01*
X4369Y3626D02*
X4405Y3626D01*
X4432Y3626D02*
X4468Y3626D01*
X4069Y3625D02*
X4106Y3625D01*
X4131Y3625D02*
X4168Y3625D01*
X4369Y3625D02*
X4406Y3625D01*
X4431Y3625D02*
X4468Y3625D01*
X4070Y3624D02*
X4107Y3624D01*
X4130Y3624D02*
X4167Y3624D01*
X4370Y3624D02*
X4407Y3624D01*
X4430Y3624D02*
X4467Y3624D01*
X4070Y3623D02*
X4108Y3623D01*
X4129Y3623D02*
X4167Y3623D01*
X4370Y3623D02*
X4408Y3623D01*
X4429Y3623D02*
X4467Y3623D01*
X4071Y3622D02*
X4109Y3622D01*
X4128Y3622D02*
X4166Y3622D01*
X4371Y3622D02*
X4409Y3622D01*
X4428Y3622D02*
X4466Y3622D01*
X4071Y3621D02*
X4111Y3621D01*
X4126Y3621D02*
X4166Y3621D01*
X4371Y3621D02*
X4411Y3621D01*
X4426Y3621D02*
X4466Y3621D01*
X4072Y3620D02*
X4113Y3620D01*
X4124Y3620D02*
X4165Y3620D01*
X4372Y3620D02*
X4413Y3620D01*
X4424Y3620D02*
X4465Y3620D01*
X4073Y3619D02*
X4164Y3619D01*
X4373Y3619D02*
X4464Y3619D01*
X4074Y3618D02*
X4163Y3618D01*
X4374Y3618D02*
X4463Y3618D01*
X4075Y3617D02*
X4163Y3617D01*
X4375Y3617D02*
X4463Y3617D01*
X4076Y3616D02*
X4161Y3616D01*
X4376Y3616D02*
X4461Y3616D01*
X4077Y3615D02*
X4160Y3615D01*
X4377Y3615D02*
X4460Y3615D01*
X4078Y3614D02*
X4159Y3614D01*
X4378Y3614D02*
X4459Y3614D01*
X4080Y3613D02*
X4157Y3613D01*
X4380Y3613D02*
X4457Y3613D01*
X4082Y3612D02*
X4156Y3612D01*
X4382Y3612D02*
X4456Y3612D01*
X4084Y3611D02*
X4154Y3611D01*
X4384Y3611D02*
X4454Y3611D01*
X4087Y3610D02*
X4150Y3610D01*
X4387Y3610D02*
X4450Y3610D01*
X4090Y3561D02*
X4147Y3561D01*
X4390Y3561D02*
X4447Y3561D01*
X4085Y3560D02*
X4152Y3560D01*
X4385Y3560D02*
X4452Y3560D01*
X4083Y3559D02*
X4154Y3559D01*
X4383Y3559D02*
X4454Y3559D01*
X4081Y3558D02*
X4156Y3558D01*
X4381Y3558D02*
X4456Y3558D01*
X4079Y3557D02*
X4158Y3557D01*
X4379Y3557D02*
X4458Y3557D01*
X4078Y3556D02*
X4160Y3556D01*
X4378Y3556D02*
X4459Y3556D01*
X4076Y3555D02*
X4161Y3555D01*
X4376Y3555D02*
X4461Y3555D01*
X4075Y3554D02*
X4162Y3554D01*
X4375Y3554D02*
X4462Y3554D01*
X4074Y3553D02*
X4163Y3553D01*
X4374Y3553D02*
X4463Y3553D01*
X4073Y3552D02*
X4164Y3552D01*
X4373Y3552D02*
X4464Y3552D01*
X4073Y3551D02*
X4116Y3551D01*
X4121Y3551D02*
X4165Y3551D01*
X4373Y3551D02*
X4416Y3551D01*
X4421Y3551D02*
X4465Y3551D01*
X4072Y3550D02*
X4112Y3550D01*
X4125Y3550D02*
X4165Y3550D01*
X4372Y3550D02*
X4412Y3550D01*
X4425Y3550D02*
X4465Y3550D01*
X4071Y3549D02*
X4110Y3549D01*
X4127Y3549D02*
X4166Y3549D01*
X4371Y3549D02*
X4410Y3549D01*
X4427Y3549D02*
X4466Y3549D01*
X4071Y3548D02*
X4109Y3548D01*
X4129Y3548D02*
X4167Y3548D01*
X4371Y3548D02*
X4409Y3548D01*
X4429Y3548D02*
X4467Y3548D01*
X4070Y3547D02*
X4107Y3547D01*
X4130Y3547D02*
X4167Y3547D01*
X4370Y3547D02*
X4407Y3547D01*
X4430Y3547D02*
X4467Y3547D01*
X4069Y3546D02*
X4106Y3546D01*
X4131Y3546D02*
X4168Y3546D01*
X4369Y3546D02*
X4406Y3546D01*
X4431Y3546D02*
X4468Y3546D01*
X4069Y3545D02*
X4106Y3545D01*
X4132Y3545D02*
X4168Y3545D01*
X4369Y3545D02*
X4405Y3545D01*
X4432Y3545D02*
X4468Y3545D01*
X4069Y3544D02*
X4105Y3544D01*
X4132Y3544D02*
X4168Y3544D01*
X4369Y3544D02*
X4405Y3544D01*
X4432Y3544D02*
X4468Y3544D01*
X4068Y3543D02*
X4104Y3543D01*
X4133Y3543D02*
X4169Y3543D01*
X4368Y3543D02*
X4404Y3543D01*
X4433Y3543D02*
X4469Y3543D01*
X4068Y3542D02*
X4104Y3542D01*
X4133Y3542D02*
X4169Y3542D01*
X4368Y3542D02*
X4404Y3542D01*
X4433Y3542D02*
X4469Y3542D01*
X4068Y3541D02*
X4103Y3541D01*
X4134Y3541D02*
X4169Y3541D01*
X4368Y3541D02*
X4403Y3541D01*
X4434Y3541D02*
X4469Y3541D01*
X4068Y3540D02*
X4103Y3540D01*
X4134Y3540D02*
X4170Y3540D01*
X4368Y3540D02*
X4403Y3540D01*
X4434Y3540D02*
X4470Y3540D01*
X4067Y3539D02*
X4103Y3539D01*
X4135Y3539D02*
X4170Y3539D01*
X4367Y3539D02*
X4403Y3539D01*
X4435Y3539D02*
X4470Y3539D01*
X4067Y3538D02*
X4102Y3538D01*
X4135Y3538D02*
X4170Y3538D01*
X4367Y3538D02*
X4402Y3538D01*
X4435Y3538D02*
X4470Y3538D01*
X4067Y3537D02*
X4102Y3537D01*
X4135Y3537D02*
X4170Y3537D01*
X4367Y3537D02*
X4402Y3537D01*
X4435Y3537D02*
X4470Y3537D01*
X4067Y3536D02*
X4102Y3536D01*
X4135Y3536D02*
X4170Y3536D01*
X4367Y3536D02*
X4402Y3536D01*
X4435Y3536D02*
X4470Y3536D01*
X4067Y3535D02*
X4102Y3535D01*
X4135Y3535D02*
X4170Y3535D01*
X4367Y3535D02*
X4402Y3535D01*
X4435Y3535D02*
X4470Y3535D01*
X4067Y3534D02*
X4102Y3534D01*
X4135Y3534D02*
X4170Y3534D01*
X4367Y3534D02*
X4402Y3534D01*
X4435Y3534D02*
X4470Y3534D01*
X4067Y3533D02*
X4102Y3533D01*
X4135Y3533D02*
X4170Y3533D01*
X4367Y3533D02*
X4402Y3533D01*
X4435Y3533D02*
X4470Y3533D01*
X4067Y3532D02*
X4102Y3532D01*
X4135Y3532D02*
X4170Y3532D01*
X4367Y3532D02*
X4402Y3532D01*
X4435Y3532D02*
X4470Y3532D01*
X4067Y3531D02*
X4103Y3531D01*
X4134Y3531D02*
X4170Y3531D01*
X4367Y3531D02*
X4403Y3531D01*
X4434Y3531D02*
X4470Y3531D01*
X4068Y3530D02*
X4103Y3530D01*
X4134Y3530D02*
X4170Y3530D01*
X4368Y3530D02*
X4403Y3530D01*
X4434Y3530D02*
X4470Y3530D01*
X4068Y3529D02*
X4103Y3529D01*
X4134Y3529D02*
X4169Y3529D01*
X4368Y3529D02*
X4403Y3529D01*
X4434Y3529D02*
X4469Y3529D01*
X4068Y3528D02*
X4104Y3528D01*
X4133Y3528D02*
X4169Y3528D01*
X4368Y3528D02*
X4404Y3528D01*
X4433Y3528D02*
X4469Y3528D01*
X4068Y3527D02*
X4104Y3527D01*
X4133Y3527D02*
X4169Y3527D01*
X4368Y3527D02*
X4404Y3527D01*
X4433Y3527D02*
X4469Y3527D01*
X4069Y3526D02*
X4105Y3526D01*
X4132Y3526D02*
X4168Y3526D01*
X4369Y3526D02*
X4405Y3526D01*
X4432Y3526D02*
X4468Y3526D01*
X4069Y3525D02*
X4106Y3525D01*
X4131Y3525D02*
X4168Y3525D01*
X4369Y3525D02*
X4406Y3525D01*
X4431Y3525D02*
X4468Y3525D01*
X4070Y3524D02*
X4107Y3524D01*
X4130Y3524D02*
X4167Y3524D01*
X4370Y3524D02*
X4407Y3524D01*
X4430Y3524D02*
X4467Y3524D01*
X4070Y3523D02*
X4108Y3523D01*
X4129Y3523D02*
X4167Y3523D01*
X4370Y3523D02*
X4408Y3523D01*
X4429Y3523D02*
X4467Y3523D01*
X4071Y3522D02*
X4109Y3522D01*
X4128Y3522D02*
X4166Y3522D01*
X4371Y3522D02*
X4409Y3522D01*
X4428Y3522D02*
X4466Y3522D01*
X4071Y3521D02*
X4111Y3521D01*
X4126Y3521D02*
X4166Y3521D01*
X4371Y3521D02*
X4411Y3521D01*
X4426Y3521D02*
X4466Y3521D01*
X4072Y3520D02*
X4113Y3520D01*
X4124Y3520D02*
X4165Y3520D01*
X4372Y3520D02*
X4413Y3520D01*
X4424Y3520D02*
X4465Y3520D01*
X4073Y3519D02*
X4164Y3519D01*
X4373Y3519D02*
X4464Y3519D01*
X4074Y3518D02*
X4163Y3518D01*
X4374Y3518D02*
X4463Y3518D01*
X4075Y3517D02*
X4163Y3517D01*
X4375Y3517D02*
X4463Y3517D01*
X4076Y3516D02*
X4161Y3516D01*
X4376Y3516D02*
X4461Y3516D01*
X4077Y3515D02*
X4160Y3515D01*
X4377Y3515D02*
X4460Y3515D01*
X4078Y3514D02*
X4159Y3514D01*
X4378Y3514D02*
X4459Y3514D01*
X4080Y3513D02*
X4157Y3513D01*
X4380Y3513D02*
X4457Y3513D01*
X4082Y3512D02*
X4156Y3512D01*
X4382Y3512D02*
X4456Y3512D01*
X4084Y3511D02*
X4154Y3511D01*
X4384Y3511D02*
X4454Y3511D01*
X4087Y3510D02*
X4150Y3510D01*
X4387Y3510D02*
X4450Y3510D01*
X4090Y3461D02*
X4147Y3461D01*
X4390Y3461D02*
X4447Y3461D01*
X4085Y3460D02*
X4152Y3460D01*
X4385Y3460D02*
X4452Y3460D01*
X4083Y3459D02*
X4154Y3459D01*
X4383Y3459D02*
X4454Y3459D01*
X4081Y3458D02*
X4156Y3458D01*
X4381Y3458D02*
X4456Y3458D01*
X4079Y3457D02*
X4158Y3457D01*
X4379Y3457D02*
X4458Y3457D01*
X4078Y3456D02*
X4160Y3456D01*
X4378Y3456D02*
X4459Y3456D01*
X4076Y3455D02*
X4161Y3455D01*
X4376Y3455D02*
X4461Y3455D01*
X4075Y3454D02*
X4162Y3454D01*
X4375Y3454D02*
X4462Y3454D01*
X4074Y3453D02*
X4163Y3453D01*
X4374Y3453D02*
X4463Y3453D01*
X4073Y3452D02*
X4164Y3452D01*
X4373Y3452D02*
X4464Y3452D01*
X4073Y3451D02*
X4116Y3451D01*
X4121Y3451D02*
X4165Y3451D01*
X4373Y3451D02*
X4416Y3451D01*
X4421Y3451D02*
X4465Y3451D01*
X4072Y3450D02*
X4112Y3450D01*
X4125Y3450D02*
X4165Y3450D01*
X4372Y3450D02*
X4412Y3450D01*
X4425Y3450D02*
X4465Y3450D01*
X4071Y3449D02*
X4110Y3449D01*
X4127Y3449D02*
X4166Y3449D01*
X4371Y3449D02*
X4410Y3449D01*
X4427Y3449D02*
X4466Y3449D01*
X4071Y3448D02*
X4109Y3448D01*
X4129Y3448D02*
X4167Y3448D01*
X4371Y3448D02*
X4409Y3448D01*
X4429Y3448D02*
X4467Y3448D01*
X4070Y3447D02*
X4107Y3447D01*
X4130Y3447D02*
X4167Y3447D01*
X4370Y3447D02*
X4407Y3447D01*
X4430Y3447D02*
X4467Y3447D01*
X4069Y3446D02*
X4106Y3446D01*
X4131Y3446D02*
X4168Y3446D01*
X4369Y3446D02*
X4406Y3446D01*
X4431Y3446D02*
X4468Y3446D01*
X4069Y3445D02*
X4106Y3445D01*
X4132Y3445D02*
X4168Y3445D01*
X4369Y3445D02*
X4405Y3445D01*
X4432Y3445D02*
X4468Y3445D01*
X4069Y3444D02*
X4105Y3444D01*
X4132Y3444D02*
X4168Y3444D01*
X4369Y3444D02*
X4405Y3444D01*
X4432Y3444D02*
X4468Y3444D01*
X4068Y3443D02*
X4104Y3443D01*
X4133Y3443D02*
X4169Y3443D01*
X4368Y3443D02*
X4404Y3443D01*
X4433Y3443D02*
X4469Y3443D01*
X4068Y3442D02*
X4104Y3442D01*
X4133Y3442D02*
X4169Y3442D01*
X4368Y3442D02*
X4404Y3442D01*
X4433Y3442D02*
X4469Y3442D01*
X4068Y3441D02*
X4103Y3441D01*
X4134Y3441D02*
X4169Y3441D01*
X4368Y3441D02*
X4403Y3441D01*
X4434Y3441D02*
X4469Y3441D01*
X4068Y3440D02*
X4103Y3440D01*
X4134Y3440D02*
X4170Y3440D01*
X4368Y3440D02*
X4403Y3440D01*
X4434Y3440D02*
X4470Y3440D01*
X4067Y3439D02*
X4103Y3439D01*
X4135Y3439D02*
X4170Y3439D01*
X4367Y3439D02*
X4403Y3439D01*
X4435Y3439D02*
X4470Y3439D01*
X4067Y3438D02*
X4102Y3438D01*
X4135Y3438D02*
X4170Y3438D01*
X4367Y3438D02*
X4402Y3438D01*
X4435Y3438D02*
X4470Y3438D01*
X4067Y3437D02*
X4102Y3437D01*
X4135Y3437D02*
X4170Y3437D01*
X4367Y3437D02*
X4402Y3437D01*
X4435Y3437D02*
X4470Y3437D01*
X4067Y3436D02*
X4102Y3436D01*
X4135Y3436D02*
X4170Y3436D01*
X4367Y3436D02*
X4402Y3436D01*
X4435Y3436D02*
X4470Y3436D01*
X4067Y3435D02*
X4102Y3435D01*
X4135Y3435D02*
X4170Y3435D01*
X4367Y3435D02*
X4402Y3435D01*
X4435Y3435D02*
X4470Y3435D01*
X4067Y3434D02*
X4102Y3434D01*
X4135Y3434D02*
X4170Y3434D01*
X4367Y3434D02*
X4402Y3434D01*
X4435Y3434D02*
X4470Y3434D01*
X4067Y3433D02*
X4102Y3433D01*
X4135Y3433D02*
X4170Y3433D01*
X4367Y3433D02*
X4402Y3433D01*
X4435Y3433D02*
X4470Y3433D01*
X4067Y3432D02*
X4102Y3432D01*
X4135Y3432D02*
X4170Y3432D01*
X4367Y3432D02*
X4402Y3432D01*
X4435Y3432D02*
X4470Y3432D01*
X4067Y3431D02*
X4103Y3431D01*
X4134Y3431D02*
X4170Y3431D01*
X4367Y3431D02*
X4403Y3431D01*
X4434Y3431D02*
X4470Y3431D01*
X4068Y3430D02*
X4103Y3430D01*
X4134Y3430D02*
X4170Y3430D01*
X4368Y3430D02*
X4403Y3430D01*
X4434Y3430D02*
X4470Y3430D01*
X4068Y3429D02*
X4103Y3429D01*
X4134Y3429D02*
X4169Y3429D01*
X4368Y3429D02*
X4403Y3429D01*
X4434Y3429D02*
X4469Y3429D01*
X4068Y3428D02*
X4104Y3428D01*
X4133Y3428D02*
X4169Y3428D01*
X4368Y3428D02*
X4404Y3428D01*
X4433Y3428D02*
X4469Y3428D01*
X4068Y3427D02*
X4104Y3427D01*
X4133Y3427D02*
X4169Y3427D01*
X4368Y3427D02*
X4404Y3427D01*
X4433Y3427D02*
X4469Y3427D01*
X4069Y3426D02*
X4105Y3426D01*
X4132Y3426D02*
X4168Y3426D01*
X4369Y3426D02*
X4405Y3426D01*
X4432Y3426D02*
X4468Y3426D01*
X4069Y3425D02*
X4106Y3425D01*
X4131Y3425D02*
X4168Y3425D01*
X4369Y3425D02*
X4406Y3425D01*
X4431Y3425D02*
X4468Y3425D01*
X4070Y3424D02*
X4107Y3424D01*
X4130Y3424D02*
X4167Y3424D01*
X4370Y3424D02*
X4407Y3424D01*
X4430Y3424D02*
X4467Y3424D01*
X4070Y3423D02*
X4108Y3423D01*
X4129Y3423D02*
X4167Y3423D01*
X4370Y3423D02*
X4408Y3423D01*
X4429Y3423D02*
X4467Y3423D01*
X4071Y3422D02*
X4109Y3422D01*
X4128Y3422D02*
X4166Y3422D01*
X4371Y3422D02*
X4409Y3422D01*
X4428Y3422D02*
X4466Y3422D01*
X4071Y3421D02*
X4111Y3421D01*
X4126Y3421D02*
X4166Y3421D01*
X4371Y3421D02*
X4411Y3421D01*
X4426Y3421D02*
X4466Y3421D01*
X4072Y3420D02*
X4113Y3420D01*
X4124Y3420D02*
X4165Y3420D01*
X4372Y3420D02*
X4413Y3420D01*
X4424Y3420D02*
X4465Y3420D01*
X4073Y3419D02*
X4164Y3419D01*
X4373Y3419D02*
X4464Y3419D01*
X4074Y3418D02*
X4163Y3418D01*
X4374Y3418D02*
X4463Y3418D01*
X4075Y3417D02*
X4163Y3417D01*
X4375Y3417D02*
X4463Y3417D01*
X4076Y3416D02*
X4161Y3416D01*
X4376Y3416D02*
X4461Y3416D01*
X4077Y3415D02*
X4160Y3415D01*
X4377Y3415D02*
X4460Y3415D01*
X4078Y3414D02*
X4159Y3414D01*
X4378Y3414D02*
X4459Y3414D01*
X4080Y3413D02*
X4157Y3413D01*
X4380Y3413D02*
X4457Y3413D01*
X4082Y3412D02*
X4156Y3412D01*
X4382Y3412D02*
X4456Y3412D01*
X4084Y3411D02*
X4154Y3411D01*
X4384Y3411D02*
X4454Y3411D01*
X4087Y3410D02*
X4150Y3410D01*
X4387Y3410D02*
X4450Y3410D01*
X4090Y3361D02*
X4147Y3361D01*
X4390Y3361D02*
X4447Y3361D01*
X4085Y3360D02*
X4152Y3360D01*
X4385Y3360D02*
X4452Y3360D01*
X4083Y3359D02*
X4154Y3359D01*
X4383Y3359D02*
X4454Y3359D01*
X4081Y3358D02*
X4156Y3358D01*
X4381Y3358D02*
X4456Y3358D01*
X4079Y3357D02*
X4158Y3357D01*
X4379Y3357D02*
X4458Y3357D01*
X4078Y3356D02*
X4160Y3356D01*
X4378Y3356D02*
X4459Y3356D01*
X4076Y3355D02*
X4161Y3355D01*
X4376Y3355D02*
X4461Y3355D01*
X4075Y3354D02*
X4162Y3354D01*
X4375Y3354D02*
X4462Y3354D01*
X4074Y3353D02*
X4163Y3353D01*
X4374Y3353D02*
X4463Y3353D01*
X4073Y3352D02*
X4164Y3352D01*
X4373Y3352D02*
X4464Y3352D01*
X4073Y3351D02*
X4116Y3351D01*
X4121Y3351D02*
X4165Y3351D01*
X4373Y3351D02*
X4416Y3351D01*
X4421Y3351D02*
X4465Y3351D01*
X4072Y3350D02*
X4112Y3350D01*
X4125Y3350D02*
X4165Y3350D01*
X4372Y3350D02*
X4412Y3350D01*
X4425Y3350D02*
X4465Y3350D01*
X4071Y3349D02*
X4110Y3349D01*
X4127Y3349D02*
X4166Y3349D01*
X4371Y3349D02*
X4410Y3349D01*
X4427Y3349D02*
X4466Y3349D01*
X4071Y3348D02*
X4109Y3348D01*
X4129Y3348D02*
X4167Y3348D01*
X4371Y3348D02*
X4409Y3348D01*
X4429Y3348D02*
X4467Y3348D01*
X4070Y3347D02*
X4107Y3347D01*
X4130Y3347D02*
X4167Y3347D01*
X4370Y3347D02*
X4407Y3347D01*
X4430Y3347D02*
X4467Y3347D01*
X4069Y3346D02*
X4106Y3346D01*
X4131Y3346D02*
X4168Y3346D01*
X4369Y3346D02*
X4406Y3346D01*
X4431Y3346D02*
X4468Y3346D01*
X4069Y3345D02*
X4106Y3345D01*
X4132Y3345D02*
X4168Y3345D01*
X4369Y3345D02*
X4405Y3345D01*
X4432Y3345D02*
X4468Y3345D01*
X4069Y3344D02*
X4105Y3344D01*
X4132Y3344D02*
X4168Y3344D01*
X4369Y3344D02*
X4405Y3344D01*
X4432Y3344D02*
X4468Y3344D01*
X4068Y3343D02*
X4104Y3343D01*
X4133Y3343D02*
X4169Y3343D01*
X4368Y3343D02*
X4404Y3343D01*
X4433Y3343D02*
X4469Y3343D01*
X4068Y3342D02*
X4104Y3342D01*
X4133Y3342D02*
X4169Y3342D01*
X4368Y3342D02*
X4404Y3342D01*
X4433Y3342D02*
X4469Y3342D01*
X4068Y3341D02*
X4103Y3341D01*
X4134Y3341D02*
X4169Y3341D01*
X4368Y3341D02*
X4403Y3341D01*
X4434Y3341D02*
X4469Y3341D01*
X4068Y3340D02*
X4103Y3340D01*
X4134Y3340D02*
X4170Y3340D01*
X4368Y3340D02*
X4403Y3340D01*
X4434Y3340D02*
X4470Y3340D01*
X4067Y3339D02*
X4103Y3339D01*
X4135Y3339D02*
X4170Y3339D01*
X4367Y3339D02*
X4403Y3339D01*
X4435Y3339D02*
X4470Y3339D01*
X4067Y3338D02*
X4102Y3338D01*
X4135Y3338D02*
X4170Y3338D01*
X4367Y3338D02*
X4402Y3338D01*
X4435Y3338D02*
X4470Y3338D01*
X4067Y3337D02*
X4102Y3337D01*
X4135Y3337D02*
X4170Y3337D01*
X4367Y3337D02*
X4402Y3337D01*
X4435Y3337D02*
X4470Y3337D01*
X4067Y3336D02*
X4102Y3336D01*
X4135Y3336D02*
X4170Y3336D01*
X4367Y3336D02*
X4402Y3336D01*
X4435Y3336D02*
X4470Y3336D01*
X4067Y3335D02*
X4102Y3335D01*
X4135Y3335D02*
X4170Y3335D01*
X4367Y3335D02*
X4402Y3335D01*
X4435Y3335D02*
X4470Y3335D01*
X4067Y3334D02*
X4102Y3334D01*
X4135Y3334D02*
X4170Y3334D01*
X4367Y3334D02*
X4402Y3334D01*
X4435Y3334D02*
X4470Y3334D01*
X4067Y3333D02*
X4102Y3333D01*
X4135Y3333D02*
X4170Y3333D01*
X4367Y3333D02*
X4402Y3333D01*
X4435Y3333D02*
X4470Y3333D01*
X4067Y3332D02*
X4102Y3332D01*
X4135Y3332D02*
X4170Y3332D01*
X4367Y3332D02*
X4402Y3332D01*
X4435Y3332D02*
X4470Y3332D01*
X4067Y3331D02*
X4103Y3331D01*
X4134Y3331D02*
X4170Y3331D01*
X4367Y3331D02*
X4403Y3331D01*
X4434Y3331D02*
X4470Y3331D01*
X4068Y3330D02*
X4103Y3330D01*
X4134Y3330D02*
X4170Y3330D01*
X4368Y3330D02*
X4403Y3330D01*
X4434Y3330D02*
X4470Y3330D01*
X4068Y3329D02*
X4103Y3329D01*
X4134Y3329D02*
X4169Y3329D01*
X4368Y3329D02*
X4403Y3329D01*
X4434Y3329D02*
X4469Y3329D01*
X4068Y3328D02*
X4104Y3328D01*
X4133Y3328D02*
X4169Y3328D01*
X4368Y3328D02*
X4404Y3328D01*
X4433Y3328D02*
X4469Y3328D01*
X4068Y3327D02*
X4104Y3327D01*
X4133Y3327D02*
X4169Y3327D01*
X4368Y3327D02*
X4404Y3327D01*
X4433Y3327D02*
X4469Y3327D01*
X4069Y3326D02*
X4105Y3326D01*
X4132Y3326D02*
X4168Y3326D01*
X4369Y3326D02*
X4405Y3326D01*
X4432Y3326D02*
X4468Y3326D01*
X4069Y3325D02*
X4106Y3325D01*
X4131Y3325D02*
X4168Y3325D01*
X4369Y3325D02*
X4406Y3325D01*
X4431Y3325D02*
X4468Y3325D01*
X4070Y3324D02*
X4107Y3324D01*
X4130Y3324D02*
X4167Y3324D01*
X4370Y3324D02*
X4407Y3324D01*
X4430Y3324D02*
X4467Y3324D01*
X4070Y3323D02*
X4108Y3323D01*
X4129Y3323D02*
X4167Y3323D01*
X4370Y3323D02*
X4408Y3323D01*
X4429Y3323D02*
X4467Y3323D01*
X4071Y3322D02*
X4109Y3322D01*
X4128Y3322D02*
X4166Y3322D01*
X4371Y3322D02*
X4409Y3322D01*
X4428Y3322D02*
X4466Y3322D01*
X4071Y3321D02*
X4111Y3321D01*
X4126Y3321D02*
X4166Y3321D01*
X4371Y3321D02*
X4411Y3321D01*
X4426Y3321D02*
X4466Y3321D01*
X4072Y3320D02*
X4113Y3320D01*
X4124Y3320D02*
X4165Y3320D01*
X4372Y3320D02*
X4413Y3320D01*
X4424Y3320D02*
X4465Y3320D01*
X4073Y3319D02*
X4164Y3319D01*
X4373Y3319D02*
X4464Y3319D01*
X4074Y3318D02*
X4163Y3318D01*
X4374Y3318D02*
X4463Y3318D01*
X4075Y3317D02*
X4163Y3317D01*
X4375Y3317D02*
X4463Y3317D01*
X4076Y3316D02*
X4161Y3316D01*
X4376Y3316D02*
X4461Y3316D01*
X4077Y3315D02*
X4160Y3315D01*
X4377Y3315D02*
X4460Y3315D01*
X4078Y3314D02*
X4159Y3314D01*
X4378Y3314D02*
X4459Y3314D01*
X4080Y3313D02*
X4157Y3313D01*
X4380Y3313D02*
X4457Y3313D01*
X4082Y3312D02*
X4156Y3312D01*
X4382Y3312D02*
X4456Y3312D01*
X4084Y3311D02*
X4154Y3311D01*
X4384Y3311D02*
X4453Y3311D01*
X4087Y3310D02*
X4150Y3310D01*
X4387Y3310D02*
X4450Y3310D01*
X4090Y3261D02*
X4147Y3261D01*
X4390Y3261D02*
X4447Y3261D01*
X4085Y3260D02*
X4152Y3260D01*
X4385Y3260D02*
X4452Y3260D01*
X4083Y3259D02*
X4154Y3259D01*
X4383Y3259D02*
X4454Y3259D01*
X4081Y3258D02*
X4156Y3258D01*
X4381Y3258D02*
X4456Y3258D01*
X4079Y3257D02*
X4158Y3257D01*
X4379Y3257D02*
X4458Y3257D01*
X4078Y3256D02*
X4160Y3256D01*
X4378Y3256D02*
X4460Y3256D01*
X4076Y3255D02*
X4161Y3255D01*
X4376Y3255D02*
X4461Y3255D01*
X4075Y3254D02*
X4162Y3254D01*
X4375Y3254D02*
X4462Y3254D01*
X4074Y3253D02*
X4163Y3253D01*
X4374Y3253D02*
X4463Y3253D01*
X4073Y3252D02*
X4164Y3252D01*
X4373Y3252D02*
X4464Y3252D01*
X4073Y3251D02*
X4116Y3251D01*
X4121Y3251D02*
X4165Y3251D01*
X4373Y3251D02*
X4416Y3251D01*
X4421Y3251D02*
X4465Y3251D01*
X4072Y3250D02*
X4112Y3250D01*
X4125Y3250D02*
X4165Y3250D01*
X4372Y3250D02*
X4412Y3250D01*
X4425Y3250D02*
X4465Y3250D01*
X4071Y3249D02*
X4110Y3249D01*
X4127Y3249D02*
X4166Y3249D01*
X4371Y3249D02*
X4410Y3249D01*
X4427Y3249D02*
X4466Y3249D01*
X4071Y3248D02*
X4109Y3248D01*
X4129Y3248D02*
X4167Y3248D01*
X4371Y3248D02*
X4409Y3248D01*
X4429Y3248D02*
X4467Y3248D01*
X4070Y3247D02*
X4107Y3247D01*
X4130Y3247D02*
X4167Y3247D01*
X4370Y3247D02*
X4407Y3247D01*
X4430Y3247D02*
X4467Y3247D01*
X4069Y3246D02*
X4106Y3246D01*
X4131Y3246D02*
X4168Y3246D01*
X4369Y3246D02*
X4406Y3246D01*
X4431Y3246D02*
X4468Y3246D01*
X4069Y3245D02*
X4105Y3245D01*
X4132Y3245D02*
X4168Y3245D01*
X4369Y3245D02*
X4405Y3245D01*
X4432Y3245D02*
X4468Y3245D01*
X4069Y3244D02*
X4105Y3244D01*
X4132Y3244D02*
X4169Y3244D01*
X4369Y3244D02*
X4405Y3244D01*
X4432Y3244D02*
X4468Y3244D01*
X4068Y3243D02*
X4104Y3243D01*
X4133Y3243D02*
X4169Y3243D01*
X4368Y3243D02*
X4404Y3243D01*
X4433Y3243D02*
X4469Y3243D01*
X4068Y3242D02*
X4104Y3242D01*
X4134Y3242D02*
X4169Y3242D01*
X4368Y3242D02*
X4404Y3242D01*
X4433Y3242D02*
X4469Y3242D01*
X4068Y3241D02*
X4103Y3241D01*
X4134Y3241D02*
X4169Y3241D01*
X4368Y3241D02*
X4403Y3241D01*
X4434Y3241D02*
X4469Y3241D01*
X4068Y3240D02*
X4103Y3240D01*
X4134Y3240D02*
X4170Y3240D01*
X4368Y3240D02*
X4403Y3240D01*
X4434Y3240D02*
X4470Y3240D01*
X4067Y3239D02*
X4103Y3239D01*
X4135Y3239D02*
X4170Y3239D01*
X4367Y3239D02*
X4403Y3239D01*
X4435Y3239D02*
X4470Y3239D01*
X4067Y3238D02*
X4102Y3238D01*
X4135Y3238D02*
X4170Y3238D01*
X4367Y3238D02*
X4402Y3238D01*
X4435Y3238D02*
X4470Y3238D01*
X4067Y3237D02*
X4102Y3237D01*
X4135Y3237D02*
X4170Y3237D01*
X4367Y3237D02*
X4402Y3237D01*
X4435Y3237D02*
X4470Y3237D01*
X4067Y3236D02*
X4102Y3236D01*
X4135Y3236D02*
X4170Y3236D01*
X4367Y3236D02*
X4402Y3236D01*
X4435Y3236D02*
X4470Y3236D01*
X4067Y3235D02*
X4102Y3235D01*
X4135Y3235D02*
X4170Y3235D01*
X4367Y3235D02*
X4402Y3235D01*
X4435Y3235D02*
X4470Y3235D01*
X4067Y3234D02*
X4102Y3234D01*
X4135Y3234D02*
X4170Y3234D01*
X4367Y3234D02*
X4402Y3234D01*
X4435Y3234D02*
X4470Y3234D01*
X4067Y3233D02*
X4102Y3233D01*
X4135Y3233D02*
X4170Y3233D01*
X4367Y3233D02*
X4402Y3233D01*
X4435Y3233D02*
X4470Y3233D01*
X4067Y3232D02*
X4102Y3232D01*
X4135Y3232D02*
X4170Y3232D01*
X4367Y3232D02*
X4402Y3232D01*
X4435Y3232D02*
X4470Y3232D01*
X4067Y3231D02*
X4103Y3231D01*
X4134Y3231D02*
X4170Y3231D01*
X4367Y3231D02*
X4403Y3231D01*
X4434Y3231D02*
X4470Y3231D01*
X4068Y3230D02*
X4103Y3230D01*
X4134Y3230D02*
X4170Y3230D01*
X4368Y3230D02*
X4403Y3230D01*
X4434Y3230D02*
X4470Y3230D01*
X4068Y3229D02*
X4103Y3229D01*
X4134Y3229D02*
X4169Y3229D01*
X4368Y3229D02*
X4403Y3229D01*
X4434Y3229D02*
X4469Y3229D01*
X4068Y3228D02*
X4104Y3228D01*
X4133Y3228D02*
X4169Y3228D01*
X4368Y3228D02*
X4404Y3228D01*
X4433Y3228D02*
X4469Y3228D01*
X4068Y3227D02*
X4104Y3227D01*
X4133Y3227D02*
X4169Y3227D01*
X4368Y3227D02*
X4404Y3227D01*
X4433Y3227D02*
X4469Y3227D01*
X4069Y3226D02*
X4105Y3226D01*
X4132Y3226D02*
X4168Y3226D01*
X4369Y3226D02*
X4405Y3226D01*
X4432Y3226D02*
X4468Y3226D01*
X4069Y3225D02*
X4106Y3225D01*
X4131Y3225D02*
X4168Y3225D01*
X4369Y3225D02*
X4406Y3225D01*
X4431Y3225D02*
X4468Y3225D01*
X4070Y3224D02*
X4107Y3224D01*
X4130Y3224D02*
X4167Y3224D01*
X4370Y3224D02*
X4407Y3224D01*
X4430Y3224D02*
X4467Y3224D01*
X4070Y3223D02*
X4108Y3223D01*
X4129Y3223D02*
X4167Y3223D01*
X4370Y3223D02*
X4408Y3223D01*
X4429Y3223D02*
X4467Y3223D01*
X4071Y3222D02*
X4109Y3222D01*
X4128Y3222D02*
X4166Y3222D01*
X4371Y3222D02*
X4409Y3222D01*
X4428Y3222D02*
X4466Y3222D01*
X4071Y3221D02*
X4111Y3221D01*
X4126Y3221D02*
X4166Y3221D01*
X4371Y3221D02*
X4411Y3221D01*
X4426Y3221D02*
X4466Y3221D01*
X4072Y3220D02*
X4113Y3220D01*
X4124Y3220D02*
X4165Y3220D01*
X4372Y3220D02*
X4413Y3220D01*
X4424Y3220D02*
X4465Y3220D01*
X4073Y3219D02*
X4164Y3219D01*
X4373Y3219D02*
X4464Y3219D01*
X4074Y3218D02*
X4163Y3218D01*
X4374Y3218D02*
X4463Y3218D01*
X4075Y3217D02*
X4163Y3217D01*
X4375Y3217D02*
X4463Y3217D01*
X4076Y3216D02*
X4161Y3216D01*
X4376Y3216D02*
X4461Y3216D01*
X4077Y3215D02*
X4160Y3215D01*
X4377Y3215D02*
X4460Y3215D01*
X4078Y3214D02*
X4159Y3214D01*
X4378Y3214D02*
X4459Y3214D01*
X4080Y3213D02*
X4157Y3213D01*
X4380Y3213D02*
X4457Y3213D01*
X4082Y3212D02*
X4156Y3212D01*
X4382Y3212D02*
X4456Y3212D01*
X4084Y3211D02*
X4154Y3211D01*
X4384Y3211D02*
X4453Y3211D01*
X4087Y3210D02*
X4150Y3210D01*
X4387Y3210D02*
X4450Y3210D01*
X4090Y3161D02*
X4147Y3161D01*
X4390Y3161D02*
X4447Y3161D01*
X4085Y3160D02*
X4152Y3160D01*
X4385Y3160D02*
X4452Y3160D01*
X4083Y3159D02*
X4155Y3159D01*
X4383Y3159D02*
X4454Y3159D01*
X4081Y3158D02*
X4156Y3158D01*
X4381Y3158D02*
X4456Y3158D01*
X4079Y3157D02*
X4158Y3157D01*
X4379Y3157D02*
X4458Y3157D01*
X4078Y3156D02*
X4160Y3156D01*
X4378Y3156D02*
X4460Y3156D01*
X4076Y3155D02*
X4161Y3155D01*
X4376Y3155D02*
X4461Y3155D01*
X4075Y3154D02*
X4162Y3154D01*
X4375Y3154D02*
X4462Y3154D01*
X4074Y3153D02*
X4163Y3153D01*
X4374Y3153D02*
X4463Y3153D01*
X4073Y3152D02*
X4164Y3152D01*
X4373Y3152D02*
X4464Y3152D01*
X4073Y3151D02*
X4116Y3151D01*
X4121Y3151D02*
X4165Y3151D01*
X4373Y3151D02*
X4416Y3151D01*
X4421Y3151D02*
X4465Y3151D01*
X4072Y3150D02*
X4112Y3150D01*
X4125Y3150D02*
X4165Y3150D01*
X4372Y3150D02*
X4412Y3150D01*
X4425Y3150D02*
X4465Y3150D01*
X4071Y3149D02*
X4110Y3149D01*
X4127Y3149D02*
X4166Y3149D01*
X4371Y3149D02*
X4410Y3149D01*
X4427Y3149D02*
X4466Y3149D01*
X4071Y3148D02*
X4109Y3148D01*
X4129Y3148D02*
X4167Y3148D01*
X4371Y3148D02*
X4409Y3148D01*
X4429Y3148D02*
X4467Y3148D01*
X4070Y3147D02*
X4107Y3147D01*
X4130Y3147D02*
X4167Y3147D01*
X4370Y3147D02*
X4407Y3147D01*
X4430Y3147D02*
X4467Y3147D01*
X4069Y3146D02*
X4106Y3146D01*
X4131Y3146D02*
X4168Y3146D01*
X4369Y3146D02*
X4406Y3146D01*
X4431Y3146D02*
X4468Y3146D01*
X4069Y3145D02*
X4105Y3145D01*
X4132Y3145D02*
X4168Y3145D01*
X4369Y3145D02*
X4405Y3145D01*
X4432Y3145D02*
X4468Y3145D01*
X4069Y3144D02*
X4105Y3144D01*
X4132Y3144D02*
X4169Y3144D01*
X4369Y3144D02*
X4405Y3144D01*
X4432Y3144D02*
X4468Y3144D01*
X4068Y3143D02*
X4104Y3143D01*
X4133Y3143D02*
X4169Y3143D01*
X4368Y3143D02*
X4404Y3143D01*
X4433Y3143D02*
X4469Y3143D01*
X4068Y3142D02*
X4104Y3142D01*
X4134Y3142D02*
X4169Y3142D01*
X4368Y3142D02*
X4404Y3142D01*
X4433Y3142D02*
X4469Y3142D01*
X4068Y3141D02*
X4103Y3141D01*
X4134Y3141D02*
X4169Y3141D01*
X4368Y3141D02*
X4403Y3141D01*
X4434Y3141D02*
X4469Y3141D01*
X4068Y3140D02*
X4103Y3140D01*
X4134Y3140D02*
X4170Y3140D01*
X4368Y3140D02*
X4403Y3140D01*
X4434Y3140D02*
X4470Y3140D01*
X4067Y3139D02*
X4103Y3139D01*
X4135Y3139D02*
X4170Y3139D01*
X4367Y3139D02*
X4403Y3139D01*
X4435Y3139D02*
X4470Y3139D01*
X4067Y3138D02*
X4102Y3138D01*
X4135Y3138D02*
X4170Y3138D01*
X4367Y3138D02*
X4402Y3138D01*
X4435Y3138D02*
X4470Y3138D01*
X4067Y3137D02*
X4102Y3137D01*
X4135Y3137D02*
X4170Y3137D01*
X4367Y3137D02*
X4402Y3137D01*
X4435Y3137D02*
X4470Y3137D01*
X4067Y3136D02*
X4102Y3136D01*
X4135Y3136D02*
X4170Y3136D01*
X4367Y3136D02*
X4402Y3136D01*
X4435Y3136D02*
X4470Y3136D01*
X4067Y3135D02*
X4102Y3135D01*
X4135Y3135D02*
X4170Y3135D01*
X4367Y3135D02*
X4402Y3135D01*
X4435Y3135D02*
X4470Y3135D01*
X4067Y3134D02*
X4102Y3134D01*
X4135Y3134D02*
X4170Y3134D01*
X4367Y3134D02*
X4402Y3134D01*
X4435Y3134D02*
X4470Y3134D01*
X4067Y3133D02*
X4102Y3133D01*
X4135Y3133D02*
X4170Y3133D01*
X4367Y3133D02*
X4402Y3133D01*
X4435Y3133D02*
X4470Y3133D01*
X4067Y3132D02*
X4102Y3132D01*
X4135Y3132D02*
X4170Y3132D01*
X4367Y3132D02*
X4402Y3132D01*
X4435Y3132D02*
X4470Y3132D01*
X4067Y3131D02*
X4103Y3131D01*
X4134Y3131D02*
X4170Y3131D01*
X4367Y3131D02*
X4403Y3131D01*
X4434Y3131D02*
X4470Y3131D01*
X4068Y3130D02*
X4103Y3130D01*
X4134Y3130D02*
X4170Y3130D01*
X4368Y3130D02*
X4403Y3130D01*
X4434Y3130D02*
X4470Y3130D01*
X4068Y3129D02*
X4103Y3129D01*
X4134Y3129D02*
X4169Y3129D01*
X4368Y3129D02*
X4403Y3129D01*
X4434Y3129D02*
X4469Y3129D01*
X4068Y3128D02*
X4104Y3128D01*
X4133Y3128D02*
X4169Y3128D01*
X4368Y3128D02*
X4404Y3128D01*
X4433Y3128D02*
X4469Y3128D01*
X4068Y3127D02*
X4104Y3127D01*
X4133Y3127D02*
X4169Y3127D01*
X4368Y3127D02*
X4404Y3127D01*
X4433Y3127D02*
X4469Y3127D01*
X4069Y3126D02*
X4105Y3126D01*
X4132Y3126D02*
X4168Y3126D01*
X4369Y3126D02*
X4405Y3126D01*
X4432Y3126D02*
X4468Y3126D01*
X4069Y3125D02*
X4106Y3125D01*
X4131Y3125D02*
X4168Y3125D01*
X4369Y3125D02*
X4406Y3125D01*
X4431Y3125D02*
X4468Y3125D01*
X4070Y3124D02*
X4107Y3124D01*
X4130Y3124D02*
X4167Y3124D01*
X4370Y3124D02*
X4407Y3124D01*
X4430Y3124D02*
X4467Y3124D01*
X4070Y3123D02*
X4108Y3123D01*
X4129Y3123D02*
X4167Y3123D01*
X4370Y3123D02*
X4408Y3123D01*
X4429Y3123D02*
X4467Y3123D01*
X4071Y3122D02*
X4109Y3122D01*
X4128Y3122D02*
X4166Y3122D01*
X4371Y3122D02*
X4409Y3122D01*
X4428Y3122D02*
X4466Y3122D01*
X4071Y3121D02*
X4111Y3121D01*
X4126Y3121D02*
X4166Y3121D01*
X4371Y3121D02*
X4411Y3121D01*
X4426Y3121D02*
X4466Y3121D01*
X4072Y3120D02*
X4113Y3120D01*
X4124Y3120D02*
X4165Y3120D01*
X4372Y3120D02*
X4413Y3120D01*
X4424Y3120D02*
X4465Y3120D01*
X4073Y3119D02*
X4164Y3119D01*
X4373Y3119D02*
X4464Y3119D01*
X4074Y3118D02*
X4163Y3118D01*
X4374Y3118D02*
X4463Y3118D01*
X4075Y3117D02*
X4163Y3117D01*
X4375Y3117D02*
X4463Y3117D01*
X4076Y3116D02*
X4161Y3116D01*
X4376Y3116D02*
X4461Y3116D01*
X4077Y3115D02*
X4160Y3115D01*
X4377Y3115D02*
X4460Y3115D01*
X4078Y3114D02*
X4159Y3114D01*
X4378Y3114D02*
X4459Y3114D01*
X4080Y3113D02*
X4157Y3113D01*
X4380Y3113D02*
X4457Y3113D01*
X4082Y3112D02*
X4156Y3112D01*
X4382Y3112D02*
X4456Y3112D01*
X4084Y3111D02*
X4154Y3111D01*
X4384Y3111D02*
X4453Y3111D01*
X4087Y3110D02*
X4150Y3110D01*
X4387Y3110D02*
X4450Y3110D01*
X4090Y3061D02*
X4147Y3061D01*
X4390Y3061D02*
X4447Y3061D01*
X4085Y3060D02*
X4152Y3060D01*
X4385Y3060D02*
X4452Y3060D01*
X4083Y3059D02*
X4155Y3059D01*
X4383Y3059D02*
X4454Y3059D01*
X4081Y3058D02*
X4156Y3058D01*
X4381Y3058D02*
X4456Y3058D01*
X4079Y3057D02*
X4158Y3057D01*
X4379Y3057D02*
X4458Y3057D01*
X4078Y3056D02*
X4160Y3056D01*
X4378Y3056D02*
X4460Y3056D01*
X4076Y3055D02*
X4161Y3055D01*
X4376Y3055D02*
X4461Y3055D01*
X4075Y3054D02*
X4162Y3054D01*
X4375Y3054D02*
X4462Y3054D01*
X4074Y3053D02*
X4163Y3053D01*
X4374Y3053D02*
X4463Y3053D01*
X4073Y3052D02*
X4164Y3052D01*
X4373Y3052D02*
X4464Y3052D01*
X4073Y3051D02*
X4116Y3051D01*
X4121Y3051D02*
X4165Y3051D01*
X4373Y3051D02*
X4416Y3051D01*
X4421Y3051D02*
X4465Y3051D01*
X4072Y3050D02*
X4112Y3050D01*
X4125Y3050D02*
X4165Y3050D01*
X4372Y3050D02*
X4412Y3050D01*
X4425Y3050D02*
X4465Y3050D01*
X4071Y3049D02*
X4110Y3049D01*
X4127Y3049D02*
X4166Y3049D01*
X4371Y3049D02*
X4410Y3049D01*
X4427Y3049D02*
X4466Y3049D01*
X4071Y3048D02*
X4109Y3048D01*
X4129Y3048D02*
X4167Y3048D01*
X4371Y3048D02*
X4409Y3048D01*
X4429Y3048D02*
X4467Y3048D01*
X4070Y3047D02*
X4107Y3047D01*
X4130Y3047D02*
X4167Y3047D01*
X4370Y3047D02*
X4407Y3047D01*
X4430Y3047D02*
X4467Y3047D01*
X4069Y3046D02*
X4106Y3046D01*
X4131Y3046D02*
X4168Y3046D01*
X4369Y3046D02*
X4406Y3046D01*
X4431Y3046D02*
X4468Y3046D01*
X4069Y3045D02*
X4105Y3045D01*
X4132Y3045D02*
X4168Y3045D01*
X4369Y3045D02*
X4405Y3045D01*
X4432Y3045D02*
X4468Y3045D01*
X4069Y3044D02*
X4105Y3044D01*
X4132Y3044D02*
X4169Y3044D01*
X4369Y3044D02*
X4405Y3044D01*
X4432Y3044D02*
X4468Y3044D01*
X4068Y3043D02*
X4104Y3043D01*
X4133Y3043D02*
X4169Y3043D01*
X4368Y3043D02*
X4404Y3043D01*
X4433Y3043D02*
X4469Y3043D01*
X4068Y3042D02*
X4104Y3042D01*
X4134Y3042D02*
X4169Y3042D01*
X4368Y3042D02*
X4404Y3042D01*
X4433Y3042D02*
X4469Y3042D01*
X4068Y3041D02*
X4103Y3041D01*
X4134Y3041D02*
X4169Y3041D01*
X4368Y3041D02*
X4403Y3041D01*
X4434Y3041D02*
X4469Y3041D01*
X4068Y3040D02*
X4103Y3040D01*
X4134Y3040D02*
X4170Y3040D01*
X4368Y3040D02*
X4403Y3040D01*
X4434Y3040D02*
X4470Y3040D01*
X4067Y3039D02*
X4103Y3039D01*
X4135Y3039D02*
X4170Y3039D01*
X4367Y3039D02*
X4403Y3039D01*
X4435Y3039D02*
X4470Y3039D01*
X4067Y3038D02*
X4102Y3038D01*
X4135Y3038D02*
X4170Y3038D01*
X4367Y3038D02*
X4402Y3038D01*
X4435Y3038D02*
X4470Y3038D01*
X4067Y3037D02*
X4102Y3037D01*
X4135Y3037D02*
X4170Y3037D01*
X4367Y3037D02*
X4402Y3037D01*
X4435Y3037D02*
X4470Y3037D01*
X4067Y3036D02*
X4102Y3036D01*
X4135Y3036D02*
X4170Y3036D01*
X4367Y3036D02*
X4402Y3036D01*
X4435Y3036D02*
X4470Y3036D01*
X4067Y3035D02*
X4102Y3035D01*
X4135Y3035D02*
X4170Y3035D01*
X4367Y3035D02*
X4402Y3035D01*
X4435Y3035D02*
X4470Y3035D01*
X4067Y3034D02*
X4102Y3034D01*
X4135Y3034D02*
X4170Y3034D01*
X4367Y3034D02*
X4402Y3034D01*
X4435Y3034D02*
X4470Y3034D01*
X4067Y3033D02*
X4102Y3033D01*
X4135Y3033D02*
X4170Y3033D01*
X4367Y3033D02*
X4402Y3033D01*
X4435Y3033D02*
X4470Y3033D01*
X4067Y3032D02*
X4102Y3032D01*
X4135Y3032D02*
X4170Y3032D01*
X4367Y3032D02*
X4402Y3032D01*
X4435Y3032D02*
X4470Y3032D01*
X4067Y3031D02*
X4103Y3031D01*
X4134Y3031D02*
X4170Y3031D01*
X4367Y3031D02*
X4403Y3031D01*
X4434Y3031D02*
X4470Y3031D01*
X4068Y3030D02*
X4103Y3030D01*
X4134Y3030D02*
X4170Y3030D01*
X4368Y3030D02*
X4403Y3030D01*
X4434Y3030D02*
X4470Y3030D01*
X4068Y3029D02*
X4103Y3029D01*
X4134Y3029D02*
X4169Y3029D01*
X4368Y3029D02*
X4403Y3029D01*
X4434Y3029D02*
X4469Y3029D01*
X4068Y3028D02*
X4104Y3028D01*
X4133Y3028D02*
X4169Y3028D01*
X4368Y3028D02*
X4404Y3028D01*
X4433Y3028D02*
X4469Y3028D01*
X4068Y3027D02*
X4104Y3027D01*
X4133Y3027D02*
X4169Y3027D01*
X4368Y3027D02*
X4404Y3027D01*
X4433Y3027D02*
X4469Y3027D01*
X4069Y3026D02*
X4105Y3026D01*
X4132Y3026D02*
X4168Y3026D01*
X4369Y3026D02*
X4405Y3026D01*
X4432Y3026D02*
X4468Y3026D01*
X4069Y3025D02*
X4106Y3025D01*
X4131Y3025D02*
X4168Y3025D01*
X4369Y3025D02*
X4406Y3025D01*
X4431Y3025D02*
X4468Y3025D01*
X4070Y3024D02*
X4107Y3024D01*
X4130Y3024D02*
X4167Y3024D01*
X4370Y3024D02*
X4407Y3024D01*
X4430Y3024D02*
X4467Y3024D01*
X4070Y3023D02*
X4108Y3023D01*
X4129Y3023D02*
X4167Y3023D01*
X4370Y3023D02*
X4408Y3023D01*
X4429Y3023D02*
X4467Y3023D01*
X4071Y3022D02*
X4109Y3022D01*
X4128Y3022D02*
X4166Y3022D01*
X4371Y3022D02*
X4409Y3022D01*
X4428Y3022D02*
X4466Y3022D01*
X4071Y3021D02*
X4111Y3021D01*
X4126Y3021D02*
X4166Y3021D01*
X4371Y3021D02*
X4411Y3021D01*
X4426Y3021D02*
X4466Y3021D01*
X4072Y3020D02*
X4113Y3020D01*
X4124Y3020D02*
X4165Y3020D01*
X4372Y3020D02*
X4413Y3020D01*
X4424Y3020D02*
X4465Y3020D01*
X4073Y3019D02*
X4164Y3019D01*
X4373Y3019D02*
X4464Y3019D01*
X4074Y3018D02*
X4163Y3018D01*
X4374Y3018D02*
X4463Y3018D01*
X4075Y3017D02*
X4163Y3017D01*
X4375Y3017D02*
X4463Y3017D01*
X4076Y3016D02*
X4161Y3016D01*
X4376Y3016D02*
X4461Y3016D01*
X4077Y3015D02*
X4160Y3015D01*
X4377Y3015D02*
X4460Y3015D01*
X4078Y3014D02*
X4159Y3014D01*
X4378Y3014D02*
X4459Y3014D01*
X4080Y3013D02*
X4157Y3013D01*
X4380Y3013D02*
X4457Y3013D01*
X4082Y3012D02*
X4156Y3012D01*
X4382Y3012D02*
X4456Y3012D01*
X4084Y3011D02*
X4153Y3011D01*
X4384Y3011D02*
X4453Y3011D01*
X4087Y3010D02*
X4150Y3010D01*
X4387Y3010D02*
X4450Y3010D01*
X4090Y2461D02*
X4147Y2461D01*
X4390Y2461D02*
X4447Y2461D01*
X4085Y2460D02*
X4152Y2460D01*
X4385Y2460D02*
X4452Y2460D01*
X4083Y2459D02*
X4155Y2459D01*
X4383Y2459D02*
X4455Y2459D01*
X4081Y2458D02*
X4156Y2458D01*
X4381Y2458D02*
X4456Y2458D01*
X4079Y2457D02*
X4158Y2457D01*
X4379Y2457D02*
X4458Y2457D01*
X4078Y2456D02*
X4160Y2456D01*
X4378Y2456D02*
X4460Y2456D01*
X4076Y2455D02*
X4161Y2455D01*
X4376Y2455D02*
X4461Y2455D01*
X4075Y2454D02*
X4162Y2454D01*
X4375Y2454D02*
X4462Y2454D01*
X4074Y2453D02*
X4163Y2453D01*
X4374Y2453D02*
X4463Y2453D01*
X4073Y2452D02*
X4164Y2452D01*
X4373Y2452D02*
X4464Y2452D01*
X4073Y2451D02*
X4116Y2451D01*
X4122Y2451D02*
X4165Y2451D01*
X4372Y2451D02*
X4416Y2451D01*
X4421Y2451D02*
X4465Y2451D01*
X4072Y2450D02*
X4112Y2450D01*
X4125Y2450D02*
X4165Y2450D01*
X4372Y2450D02*
X4412Y2450D01*
X4425Y2450D02*
X4465Y2450D01*
X4071Y2449D02*
X4110Y2449D01*
X4127Y2449D02*
X4166Y2449D01*
X4371Y2449D02*
X4410Y2449D01*
X4427Y2449D02*
X4466Y2449D01*
X4071Y2448D02*
X4108Y2448D01*
X4129Y2448D02*
X4167Y2448D01*
X4371Y2448D02*
X4408Y2448D01*
X4429Y2448D02*
X4467Y2448D01*
X4070Y2447D02*
X4107Y2447D01*
X4130Y2447D02*
X4167Y2447D01*
X4370Y2447D02*
X4407Y2447D01*
X4430Y2447D02*
X4467Y2447D01*
X4069Y2446D02*
X4106Y2446D01*
X4131Y2446D02*
X4168Y2446D01*
X4369Y2446D02*
X4406Y2446D01*
X4431Y2446D02*
X4468Y2446D01*
X4069Y2445D02*
X4105Y2445D01*
X4132Y2445D02*
X4168Y2445D01*
X4369Y2445D02*
X4405Y2445D01*
X4432Y2445D02*
X4468Y2445D01*
X4069Y2444D02*
X4105Y2444D01*
X4132Y2444D02*
X4169Y2444D01*
X4369Y2444D02*
X4405Y2444D01*
X4432Y2444D02*
X4468Y2444D01*
X4068Y2443D02*
X4104Y2443D01*
X4133Y2443D02*
X4169Y2443D01*
X4368Y2443D02*
X4404Y2443D01*
X4433Y2443D02*
X4469Y2443D01*
X4068Y2442D02*
X4104Y2442D01*
X4134Y2442D02*
X4169Y2442D01*
X4368Y2442D02*
X4404Y2442D01*
X4433Y2442D02*
X4469Y2442D01*
X4068Y2441D02*
X4103Y2441D01*
X4134Y2441D02*
X4169Y2441D01*
X4368Y2441D02*
X4403Y2441D01*
X4434Y2441D02*
X4469Y2441D01*
X4068Y2440D02*
X4103Y2440D01*
X4134Y2440D02*
X4170Y2440D01*
X4367Y2440D02*
X4403Y2440D01*
X4434Y2440D02*
X4470Y2440D01*
X4067Y2439D02*
X4103Y2439D01*
X4135Y2439D02*
X4170Y2439D01*
X4367Y2439D02*
X4403Y2439D01*
X4435Y2439D02*
X4470Y2439D01*
X4067Y2438D02*
X4102Y2438D01*
X4135Y2438D02*
X4170Y2438D01*
X4367Y2438D02*
X4402Y2438D01*
X4435Y2438D02*
X4470Y2438D01*
X4067Y2437D02*
X4102Y2437D01*
X4135Y2437D02*
X4170Y2437D01*
X4367Y2437D02*
X4402Y2437D01*
X4435Y2437D02*
X4470Y2437D01*
X4067Y2436D02*
X4102Y2436D01*
X4135Y2436D02*
X4170Y2436D01*
X4367Y2436D02*
X4402Y2436D01*
X4435Y2436D02*
X4470Y2436D01*
X4067Y2435D02*
X4102Y2435D01*
X4135Y2435D02*
X4170Y2435D01*
X4367Y2435D02*
X4402Y2435D01*
X4435Y2435D02*
X4470Y2435D01*
X4067Y2434D02*
X4102Y2434D01*
X4135Y2434D02*
X4170Y2434D01*
X4367Y2434D02*
X4402Y2434D01*
X4435Y2434D02*
X4470Y2434D01*
X4067Y2433D02*
X4102Y2433D01*
X4135Y2433D02*
X4170Y2433D01*
X4367Y2433D02*
X4402Y2433D01*
X4435Y2433D02*
X4470Y2433D01*
X4067Y2432D02*
X4102Y2432D01*
X4135Y2432D02*
X4170Y2432D01*
X4367Y2432D02*
X4402Y2432D01*
X4435Y2432D02*
X4470Y2432D01*
X4067Y2431D02*
X4103Y2431D01*
X4134Y2431D02*
X4170Y2431D01*
X4367Y2431D02*
X4403Y2431D01*
X4434Y2431D02*
X4470Y2431D01*
X4068Y2430D02*
X4103Y2430D01*
X4134Y2430D02*
X4170Y2430D01*
X4368Y2430D02*
X4403Y2430D01*
X4434Y2430D02*
X4470Y2430D01*
X4068Y2429D02*
X4103Y2429D01*
X4134Y2429D02*
X4169Y2429D01*
X4368Y2429D02*
X4403Y2429D01*
X4434Y2429D02*
X4469Y2429D01*
X4068Y2428D02*
X4104Y2428D01*
X4133Y2428D02*
X4169Y2428D01*
X4368Y2428D02*
X4404Y2428D01*
X4433Y2428D02*
X4469Y2428D01*
X4068Y2427D02*
X4104Y2427D01*
X4133Y2427D02*
X4169Y2427D01*
X4368Y2427D02*
X4404Y2427D01*
X4433Y2427D02*
X4469Y2427D01*
X4069Y2426D02*
X4105Y2426D01*
X4132Y2426D02*
X4168Y2426D01*
X4369Y2426D02*
X4405Y2426D01*
X4432Y2426D02*
X4468Y2426D01*
X4069Y2425D02*
X4106Y2425D01*
X4131Y2425D02*
X4168Y2425D01*
X4369Y2425D02*
X4406Y2425D01*
X4431Y2425D02*
X4468Y2425D01*
X4070Y2424D02*
X4107Y2424D01*
X4130Y2424D02*
X4167Y2424D01*
X4370Y2424D02*
X4407Y2424D01*
X4430Y2424D02*
X4467Y2424D01*
X4070Y2423D02*
X4108Y2423D01*
X4129Y2423D02*
X4167Y2423D01*
X4370Y2423D02*
X4408Y2423D01*
X4429Y2423D02*
X4467Y2423D01*
X4071Y2422D02*
X4109Y2422D01*
X4128Y2422D02*
X4166Y2422D01*
X4371Y2422D02*
X4409Y2422D01*
X4428Y2422D02*
X4466Y2422D01*
X4071Y2421D02*
X4111Y2421D01*
X4126Y2421D02*
X4166Y2421D01*
X4371Y2421D02*
X4411Y2421D01*
X4426Y2421D02*
X4466Y2421D01*
X4072Y2420D02*
X4113Y2420D01*
X4124Y2420D02*
X4165Y2420D01*
X4372Y2420D02*
X4413Y2420D01*
X4424Y2420D02*
X4465Y2420D01*
X4073Y2419D02*
X4164Y2419D01*
X4373Y2419D02*
X4464Y2419D01*
X4074Y2418D02*
X4163Y2418D01*
X4374Y2418D02*
X4463Y2418D01*
X4075Y2417D02*
X4163Y2417D01*
X4375Y2417D02*
X4463Y2417D01*
X4076Y2416D02*
X4161Y2416D01*
X4376Y2416D02*
X4461Y2416D01*
X4077Y2415D02*
X4160Y2415D01*
X4377Y2415D02*
X4460Y2415D01*
X4078Y2414D02*
X4159Y2414D01*
X4378Y2414D02*
X4459Y2414D01*
X4080Y2413D02*
X4157Y2413D01*
X4380Y2413D02*
X4457Y2413D01*
X4082Y2412D02*
X4155Y2412D01*
X4382Y2412D02*
X4455Y2412D01*
X4084Y2411D02*
X4153Y2411D01*
X4384Y2411D02*
X4453Y2411D01*
X4087Y2410D02*
X4150Y2410D01*
X4387Y2410D02*
X4450Y2410D01*
X4090Y2361D02*
X4147Y2361D01*
X4390Y2361D02*
X4447Y2361D01*
X4085Y2360D02*
X4152Y2360D01*
X4385Y2360D02*
X4452Y2360D01*
X4083Y2359D02*
X4155Y2359D01*
X4383Y2359D02*
X4455Y2359D01*
X4081Y2358D02*
X4156Y2358D01*
X4381Y2358D02*
X4456Y2358D01*
X4079Y2357D02*
X4158Y2357D01*
X4379Y2357D02*
X4458Y2357D01*
X4078Y2356D02*
X4160Y2356D01*
X4378Y2356D02*
X4460Y2356D01*
X4076Y2355D02*
X4161Y2355D01*
X4376Y2355D02*
X4461Y2355D01*
X4075Y2354D02*
X4162Y2354D01*
X4375Y2354D02*
X4462Y2354D01*
X4074Y2353D02*
X4163Y2353D01*
X4374Y2353D02*
X4463Y2353D01*
X4073Y2352D02*
X4164Y2352D01*
X4373Y2352D02*
X4464Y2352D01*
X4073Y2351D02*
X4116Y2351D01*
X4122Y2351D02*
X4165Y2351D01*
X4372Y2351D02*
X4416Y2351D01*
X4421Y2351D02*
X4465Y2351D01*
X4072Y2350D02*
X4112Y2350D01*
X4125Y2350D02*
X4165Y2350D01*
X4372Y2350D02*
X4412Y2350D01*
X4425Y2350D02*
X4465Y2350D01*
X4071Y2349D02*
X4110Y2349D01*
X4127Y2349D02*
X4166Y2349D01*
X4371Y2349D02*
X4410Y2349D01*
X4427Y2349D02*
X4466Y2349D01*
X4071Y2348D02*
X4108Y2348D01*
X4129Y2348D02*
X4167Y2348D01*
X4371Y2348D02*
X4408Y2348D01*
X4429Y2348D02*
X4467Y2348D01*
X4070Y2347D02*
X4107Y2347D01*
X4130Y2347D02*
X4167Y2347D01*
X4370Y2347D02*
X4407Y2347D01*
X4430Y2347D02*
X4467Y2347D01*
X4069Y2346D02*
X4106Y2346D01*
X4131Y2346D02*
X4168Y2346D01*
X4369Y2346D02*
X4406Y2346D01*
X4431Y2346D02*
X4468Y2346D01*
X4069Y2345D02*
X4105Y2345D01*
X4132Y2345D02*
X4168Y2345D01*
X4369Y2345D02*
X4405Y2345D01*
X4432Y2345D02*
X4468Y2345D01*
X4069Y2344D02*
X4105Y2344D01*
X4132Y2344D02*
X4169Y2344D01*
X4369Y2344D02*
X4405Y2344D01*
X4432Y2344D02*
X4469Y2344D01*
X4068Y2343D02*
X4104Y2343D01*
X4133Y2343D02*
X4169Y2343D01*
X4368Y2343D02*
X4404Y2343D01*
X4433Y2343D02*
X4469Y2343D01*
X4068Y2342D02*
X4104Y2342D01*
X4134Y2342D02*
X4169Y2342D01*
X4368Y2342D02*
X4404Y2342D01*
X4433Y2342D02*
X4469Y2342D01*
X4068Y2341D02*
X4103Y2341D01*
X4134Y2341D02*
X4169Y2341D01*
X4368Y2341D02*
X4403Y2341D01*
X4434Y2341D02*
X4469Y2341D01*
X4068Y2340D02*
X4103Y2340D01*
X4134Y2340D02*
X4170Y2340D01*
X4367Y2340D02*
X4403Y2340D01*
X4434Y2340D02*
X4470Y2340D01*
X4067Y2339D02*
X4103Y2339D01*
X4135Y2339D02*
X4170Y2339D01*
X4367Y2339D02*
X4403Y2339D01*
X4435Y2339D02*
X4470Y2339D01*
X4067Y2338D02*
X4102Y2338D01*
X4135Y2338D02*
X4170Y2338D01*
X4367Y2338D02*
X4402Y2338D01*
X4435Y2338D02*
X4470Y2338D01*
X4067Y2337D02*
X4102Y2337D01*
X4135Y2337D02*
X4170Y2337D01*
X4367Y2337D02*
X4402Y2337D01*
X4435Y2337D02*
X4470Y2337D01*
X4067Y2336D02*
X4102Y2336D01*
X4135Y2336D02*
X4170Y2336D01*
X4367Y2336D02*
X4402Y2336D01*
X4435Y2336D02*
X4470Y2336D01*
X4067Y2335D02*
X4102Y2335D01*
X4135Y2335D02*
X4170Y2335D01*
X4367Y2335D02*
X4402Y2335D01*
X4435Y2335D02*
X4470Y2335D01*
X4067Y2334D02*
X4102Y2334D01*
X4135Y2334D02*
X4170Y2334D01*
X4367Y2334D02*
X4402Y2334D01*
X4435Y2334D02*
X4470Y2334D01*
X4067Y2333D02*
X4102Y2333D01*
X4135Y2333D02*
X4170Y2333D01*
X4367Y2333D02*
X4402Y2333D01*
X4435Y2333D02*
X4470Y2333D01*
X4067Y2332D02*
X4102Y2332D01*
X4135Y2332D02*
X4170Y2332D01*
X4367Y2332D02*
X4402Y2332D01*
X4435Y2332D02*
X4470Y2332D01*
X4067Y2331D02*
X4103Y2331D01*
X4134Y2331D02*
X4170Y2331D01*
X4367Y2331D02*
X4403Y2331D01*
X4434Y2331D02*
X4470Y2331D01*
X4068Y2330D02*
X4103Y2330D01*
X4134Y2330D02*
X4170Y2330D01*
X4368Y2330D02*
X4403Y2330D01*
X4434Y2330D02*
X4470Y2330D01*
X4068Y2329D02*
X4103Y2329D01*
X4134Y2329D02*
X4169Y2329D01*
X4368Y2329D02*
X4403Y2329D01*
X4434Y2329D02*
X4469Y2329D01*
X4068Y2328D02*
X4104Y2328D01*
X4133Y2328D02*
X4169Y2328D01*
X4368Y2328D02*
X4404Y2328D01*
X4433Y2328D02*
X4469Y2328D01*
X4068Y2327D02*
X4104Y2327D01*
X4133Y2327D02*
X4169Y2327D01*
X4368Y2327D02*
X4404Y2327D01*
X4433Y2327D02*
X4469Y2327D01*
X4069Y2326D02*
X4105Y2326D01*
X4132Y2326D02*
X4168Y2326D01*
X4369Y2326D02*
X4405Y2326D01*
X4432Y2326D02*
X4468Y2326D01*
X4069Y2325D02*
X4106Y2325D01*
X4131Y2325D02*
X4168Y2325D01*
X4369Y2325D02*
X4406Y2325D01*
X4431Y2325D02*
X4468Y2325D01*
X4070Y2324D02*
X4107Y2324D01*
X4130Y2324D02*
X4167Y2324D01*
X4370Y2324D02*
X4407Y2324D01*
X4430Y2324D02*
X4467Y2324D01*
X4070Y2323D02*
X4108Y2323D01*
X4129Y2323D02*
X4167Y2323D01*
X4370Y2323D02*
X4408Y2323D01*
X4429Y2323D02*
X4467Y2323D01*
X4071Y2322D02*
X4109Y2322D01*
X4128Y2322D02*
X4166Y2322D01*
X4371Y2322D02*
X4409Y2322D01*
X4428Y2322D02*
X4466Y2322D01*
X4071Y2321D02*
X4111Y2321D01*
X4126Y2321D02*
X4166Y2321D01*
X4371Y2321D02*
X4411Y2321D01*
X4426Y2321D02*
X4466Y2321D01*
X4072Y2320D02*
X4114Y2320D01*
X4124Y2320D02*
X4165Y2320D01*
X4372Y2320D02*
X4413Y2320D01*
X4424Y2320D02*
X4465Y2320D01*
X4073Y2319D02*
X4164Y2319D01*
X4373Y2319D02*
X4464Y2319D01*
X4074Y2318D02*
X4163Y2318D01*
X4374Y2318D02*
X4463Y2318D01*
X4075Y2317D02*
X4163Y2317D01*
X4375Y2317D02*
X4463Y2317D01*
X4076Y2316D02*
X4161Y2316D01*
X4376Y2316D02*
X4461Y2316D01*
X4077Y2315D02*
X4160Y2315D01*
X4377Y2315D02*
X4460Y2315D01*
X4078Y2314D02*
X4159Y2314D01*
X4378Y2314D02*
X4459Y2314D01*
X4080Y2313D02*
X4157Y2313D01*
X4380Y2313D02*
X4457Y2313D01*
X4082Y2312D02*
X4155Y2312D01*
X4382Y2312D02*
X4455Y2312D01*
X4084Y2311D02*
X4153Y2311D01*
X4384Y2311D02*
X4453Y2311D01*
X4087Y2310D02*
X4150Y2310D01*
X4387Y2310D02*
X4450Y2310D01*
X4090Y2261D02*
X4148Y2261D01*
X4390Y2261D02*
X4448Y2261D01*
X4085Y2260D02*
X4152Y2260D01*
X4385Y2260D02*
X4452Y2260D01*
X4083Y2259D02*
X4155Y2259D01*
X4383Y2259D02*
X4455Y2259D01*
X4081Y2258D02*
X4156Y2258D01*
X4381Y2258D02*
X4456Y2258D01*
X4079Y2257D02*
X4158Y2257D01*
X4379Y2257D02*
X4458Y2257D01*
X4078Y2256D02*
X4160Y2256D01*
X4378Y2256D02*
X4460Y2256D01*
X4076Y2255D02*
X4161Y2255D01*
X4376Y2255D02*
X4461Y2255D01*
X4075Y2254D02*
X4162Y2254D01*
X4375Y2254D02*
X4462Y2254D01*
X4074Y2253D02*
X4163Y2253D01*
X4374Y2253D02*
X4463Y2253D01*
X4073Y2252D02*
X4164Y2252D01*
X4373Y2252D02*
X4464Y2252D01*
X4072Y2251D02*
X4116Y2251D01*
X4122Y2251D02*
X4165Y2251D01*
X4372Y2251D02*
X4416Y2251D01*
X4421Y2251D02*
X4465Y2251D01*
X4072Y2250D02*
X4112Y2250D01*
X4125Y2250D02*
X4165Y2250D01*
X4372Y2250D02*
X4412Y2250D01*
X4425Y2250D02*
X4465Y2250D01*
X4071Y2249D02*
X4110Y2249D01*
X4127Y2249D02*
X4166Y2249D01*
X4371Y2249D02*
X4410Y2249D01*
X4427Y2249D02*
X4466Y2249D01*
X4071Y2248D02*
X4108Y2248D01*
X4129Y2248D02*
X4167Y2248D01*
X4371Y2248D02*
X4408Y2248D01*
X4429Y2248D02*
X4467Y2248D01*
X4070Y2247D02*
X4107Y2247D01*
X4130Y2247D02*
X4167Y2247D01*
X4370Y2247D02*
X4407Y2247D01*
X4430Y2247D02*
X4467Y2247D01*
X4069Y2246D02*
X4106Y2246D01*
X4131Y2246D02*
X4168Y2246D01*
X4369Y2246D02*
X4406Y2246D01*
X4431Y2246D02*
X4468Y2246D01*
X4069Y2245D02*
X4105Y2245D01*
X4132Y2245D02*
X4168Y2245D01*
X4369Y2245D02*
X4405Y2245D01*
X4432Y2245D02*
X4468Y2245D01*
X4069Y2244D02*
X4105Y2244D01*
X4132Y2244D02*
X4169Y2244D01*
X4369Y2244D02*
X4405Y2244D01*
X4432Y2244D02*
X4469Y2244D01*
X4068Y2243D02*
X4104Y2243D01*
X4133Y2243D02*
X4169Y2243D01*
X4368Y2243D02*
X4404Y2243D01*
X4433Y2243D02*
X4469Y2243D01*
X4068Y2242D02*
X4104Y2242D01*
X4134Y2242D02*
X4169Y2242D01*
X4368Y2242D02*
X4404Y2242D01*
X4433Y2242D02*
X4469Y2242D01*
X4068Y2241D02*
X4103Y2241D01*
X4134Y2241D02*
X4169Y2241D01*
X4368Y2241D02*
X4403Y2241D01*
X4434Y2241D02*
X4469Y2241D01*
X4068Y2240D02*
X4103Y2240D01*
X4134Y2240D02*
X4170Y2240D01*
X4367Y2240D02*
X4403Y2240D01*
X4434Y2240D02*
X4470Y2240D01*
X4067Y2239D02*
X4103Y2239D01*
X4135Y2239D02*
X4170Y2239D01*
X4367Y2239D02*
X4403Y2239D01*
X4435Y2239D02*
X4470Y2239D01*
X4067Y2238D02*
X4102Y2238D01*
X4135Y2238D02*
X4170Y2238D01*
X4367Y2238D02*
X4402Y2238D01*
X4435Y2238D02*
X4470Y2238D01*
X4067Y2237D02*
X4102Y2237D01*
X4135Y2237D02*
X4170Y2237D01*
X4367Y2237D02*
X4402Y2237D01*
X4435Y2237D02*
X4470Y2237D01*
X4067Y2236D02*
X4102Y2236D01*
X4135Y2236D02*
X4170Y2236D01*
X4367Y2236D02*
X4402Y2236D01*
X4435Y2236D02*
X4470Y2236D01*
X4067Y2235D02*
X4102Y2235D01*
X4135Y2235D02*
X4170Y2235D01*
X4367Y2235D02*
X4402Y2235D01*
X4435Y2235D02*
X4470Y2235D01*
X4067Y2234D02*
X4102Y2234D01*
X4135Y2234D02*
X4170Y2234D01*
X4367Y2234D02*
X4402Y2234D01*
X4435Y2234D02*
X4470Y2234D01*
X4067Y2233D02*
X4102Y2233D01*
X4135Y2233D02*
X4170Y2233D01*
X4367Y2233D02*
X4402Y2233D01*
X4435Y2233D02*
X4470Y2233D01*
X4067Y2232D02*
X4102Y2232D01*
X4135Y2232D02*
X4170Y2232D01*
X4367Y2232D02*
X4402Y2232D01*
X4435Y2232D02*
X4470Y2232D01*
X4067Y2231D02*
X4103Y2231D01*
X4134Y2231D02*
X4170Y2231D01*
X4367Y2231D02*
X4403Y2231D01*
X4434Y2231D02*
X4470Y2231D01*
X4068Y2230D02*
X4103Y2230D01*
X4134Y2230D02*
X4170Y2230D01*
X4368Y2230D02*
X4403Y2230D01*
X4434Y2230D02*
X4470Y2230D01*
X4068Y2229D02*
X4103Y2229D01*
X4134Y2229D02*
X4169Y2229D01*
X4368Y2229D02*
X4403Y2229D01*
X4434Y2229D02*
X4469Y2229D01*
X4068Y2228D02*
X4104Y2228D01*
X4133Y2228D02*
X4169Y2228D01*
X4368Y2228D02*
X4404Y2228D01*
X4433Y2228D02*
X4469Y2228D01*
X4068Y2227D02*
X4104Y2227D01*
X4133Y2227D02*
X4169Y2227D01*
X4368Y2227D02*
X4404Y2227D01*
X4433Y2227D02*
X4469Y2227D01*
X4069Y2226D02*
X4105Y2226D01*
X4132Y2226D02*
X4168Y2226D01*
X4369Y2226D02*
X4405Y2226D01*
X4432Y2226D02*
X4468Y2226D01*
X4069Y2225D02*
X4106Y2225D01*
X4131Y2225D02*
X4168Y2225D01*
X4369Y2225D02*
X4406Y2225D01*
X4431Y2225D02*
X4468Y2225D01*
X4070Y2224D02*
X4107Y2224D01*
X4130Y2224D02*
X4167Y2224D01*
X4370Y2224D02*
X4407Y2224D01*
X4430Y2224D02*
X4467Y2224D01*
X4070Y2223D02*
X4108Y2223D01*
X4129Y2223D02*
X4167Y2223D01*
X4370Y2223D02*
X4408Y2223D01*
X4429Y2223D02*
X4467Y2223D01*
X4071Y2222D02*
X4109Y2222D01*
X4128Y2222D02*
X4166Y2222D01*
X4371Y2222D02*
X4409Y2222D01*
X4428Y2222D02*
X4466Y2222D01*
X4071Y2221D02*
X4111Y2221D01*
X4126Y2221D02*
X4166Y2221D01*
X4371Y2221D02*
X4411Y2221D01*
X4426Y2221D02*
X4466Y2221D01*
X4072Y2220D02*
X4114Y2220D01*
X4124Y2220D02*
X4165Y2220D01*
X4372Y2220D02*
X4413Y2220D01*
X4424Y2220D02*
X4465Y2220D01*
X4073Y2219D02*
X4164Y2219D01*
X4373Y2219D02*
X4464Y2219D01*
X4074Y2218D02*
X4163Y2218D01*
X4374Y2218D02*
X4463Y2218D01*
X4075Y2217D02*
X4163Y2217D01*
X4375Y2217D02*
X4463Y2217D01*
X4076Y2216D02*
X4161Y2216D01*
X4376Y2216D02*
X4461Y2216D01*
X4077Y2215D02*
X4160Y2215D01*
X4377Y2215D02*
X4460Y2215D01*
X4078Y2214D02*
X4159Y2214D01*
X4378Y2214D02*
X4459Y2214D01*
X4080Y2213D02*
X4157Y2213D01*
X4380Y2213D02*
X4457Y2213D01*
X4082Y2212D02*
X4155Y2212D01*
X4382Y2212D02*
X4455Y2212D01*
X4084Y2211D02*
X4153Y2211D01*
X4384Y2211D02*
X4453Y2211D01*
X4087Y2210D02*
X4150Y2210D01*
X4387Y2210D02*
X4450Y2210D01*
X4090Y2161D02*
X4148Y2161D01*
X4390Y2161D02*
X4448Y2161D01*
X4085Y2160D02*
X4152Y2160D01*
X4385Y2160D02*
X4452Y2160D01*
X4083Y2159D02*
X4155Y2159D01*
X4383Y2159D02*
X4455Y2159D01*
X4081Y2158D02*
X4156Y2158D01*
X4381Y2158D02*
X4456Y2158D01*
X4079Y2157D02*
X4158Y2157D01*
X4379Y2157D02*
X4458Y2157D01*
X4078Y2156D02*
X4160Y2156D01*
X4378Y2156D02*
X4460Y2156D01*
X4076Y2155D02*
X4161Y2155D01*
X4376Y2155D02*
X4461Y2155D01*
X4075Y2154D02*
X4162Y2154D01*
X4375Y2154D02*
X4462Y2154D01*
X4074Y2153D02*
X4163Y2153D01*
X4374Y2153D02*
X4463Y2153D01*
X4073Y2152D02*
X4164Y2152D01*
X4373Y2152D02*
X4464Y2152D01*
X4072Y2151D02*
X4115Y2151D01*
X4122Y2151D02*
X4165Y2151D01*
X4372Y2151D02*
X4415Y2151D01*
X4422Y2151D02*
X4465Y2151D01*
X4072Y2150D02*
X4112Y2150D01*
X4125Y2150D02*
X4165Y2150D01*
X4372Y2150D02*
X4412Y2150D01*
X4425Y2150D02*
X4465Y2150D01*
X4071Y2149D02*
X4110Y2149D01*
X4127Y2149D02*
X4166Y2149D01*
X4371Y2149D02*
X4410Y2149D01*
X4427Y2149D02*
X4466Y2149D01*
X4071Y2148D02*
X4108Y2148D01*
X4129Y2148D02*
X4167Y2148D01*
X4371Y2148D02*
X4408Y2148D01*
X4429Y2148D02*
X4467Y2148D01*
X4070Y2147D02*
X4107Y2147D01*
X4130Y2147D02*
X4167Y2147D01*
X4370Y2147D02*
X4407Y2147D01*
X4430Y2147D02*
X4467Y2147D01*
X4069Y2146D02*
X4106Y2146D01*
X4131Y2146D02*
X4168Y2146D01*
X4369Y2146D02*
X4406Y2146D01*
X4431Y2146D02*
X4468Y2146D01*
X4069Y2145D02*
X4105Y2145D01*
X4132Y2145D02*
X4168Y2145D01*
X4369Y2145D02*
X4405Y2145D01*
X4432Y2145D02*
X4468Y2145D01*
X4069Y2144D02*
X4105Y2144D01*
X4132Y2144D02*
X4169Y2144D01*
X4369Y2144D02*
X4405Y2144D01*
X4432Y2144D02*
X4469Y2144D01*
X4068Y2143D02*
X4104Y2143D01*
X4133Y2143D02*
X4169Y2143D01*
X4368Y2143D02*
X4404Y2143D01*
X4433Y2143D02*
X4469Y2143D01*
X4068Y2142D02*
X4104Y2142D01*
X4134Y2142D02*
X4169Y2142D01*
X4368Y2142D02*
X4404Y2142D01*
X4433Y2142D02*
X4469Y2142D01*
X4068Y2141D02*
X4103Y2141D01*
X4134Y2141D02*
X4169Y2141D01*
X4368Y2141D02*
X4403Y2141D01*
X4434Y2141D02*
X4469Y2141D01*
X4068Y2140D02*
X4103Y2140D01*
X4134Y2140D02*
X4170Y2140D01*
X4367Y2140D02*
X4403Y2140D01*
X4434Y2140D02*
X4470Y2140D01*
X4067Y2139D02*
X4103Y2139D01*
X4135Y2139D02*
X4170Y2139D01*
X4367Y2139D02*
X4403Y2139D01*
X4435Y2139D02*
X4470Y2139D01*
X4067Y2138D02*
X4102Y2138D01*
X4135Y2138D02*
X4170Y2138D01*
X4367Y2138D02*
X4402Y2138D01*
X4435Y2138D02*
X4470Y2138D01*
X4067Y2137D02*
X4102Y2137D01*
X4135Y2137D02*
X4170Y2137D01*
X4367Y2137D02*
X4402Y2137D01*
X4435Y2137D02*
X4470Y2137D01*
X4067Y2136D02*
X4102Y2136D01*
X4135Y2136D02*
X4170Y2136D01*
X4367Y2136D02*
X4402Y2136D01*
X4435Y2136D02*
X4470Y2136D01*
X4067Y2135D02*
X4102Y2135D01*
X4135Y2135D02*
X4170Y2135D01*
X4367Y2135D02*
X4402Y2135D01*
X4435Y2135D02*
X4470Y2135D01*
X4067Y2134D02*
X4102Y2134D01*
X4135Y2134D02*
X4170Y2134D01*
X4367Y2134D02*
X4402Y2134D01*
X4435Y2134D02*
X4470Y2134D01*
X4067Y2133D02*
X4102Y2133D01*
X4135Y2133D02*
X4170Y2133D01*
X4367Y2133D02*
X4402Y2133D01*
X4435Y2133D02*
X4470Y2133D01*
X4067Y2132D02*
X4102Y2132D01*
X4135Y2132D02*
X4170Y2132D01*
X4367Y2132D02*
X4402Y2132D01*
X4435Y2132D02*
X4470Y2132D01*
X4067Y2131D02*
X4103Y2131D01*
X4134Y2131D02*
X4170Y2131D01*
X4367Y2131D02*
X4403Y2131D01*
X4434Y2131D02*
X4470Y2131D01*
X4068Y2130D02*
X4103Y2130D01*
X4134Y2130D02*
X4170Y2130D01*
X4368Y2130D02*
X4403Y2130D01*
X4434Y2130D02*
X4470Y2130D01*
X4068Y2129D02*
X4103Y2129D01*
X4134Y2129D02*
X4169Y2129D01*
X4368Y2129D02*
X4403Y2129D01*
X4434Y2129D02*
X4469Y2129D01*
X4068Y2128D02*
X4104Y2128D01*
X4133Y2128D02*
X4169Y2128D01*
X4368Y2128D02*
X4404Y2128D01*
X4433Y2128D02*
X4469Y2128D01*
X4068Y2127D02*
X4104Y2127D01*
X4133Y2127D02*
X4169Y2127D01*
X4368Y2127D02*
X4404Y2127D01*
X4433Y2127D02*
X4469Y2127D01*
X4069Y2126D02*
X4105Y2126D01*
X4132Y2126D02*
X4168Y2126D01*
X4369Y2126D02*
X4405Y2126D01*
X4432Y2126D02*
X4468Y2126D01*
X4069Y2125D02*
X4106Y2125D01*
X4131Y2125D02*
X4168Y2125D01*
X4369Y2125D02*
X4406Y2125D01*
X4431Y2125D02*
X4468Y2125D01*
X4070Y2124D02*
X4107Y2124D01*
X4130Y2124D02*
X4167Y2124D01*
X4370Y2124D02*
X4407Y2124D01*
X4430Y2124D02*
X4467Y2124D01*
X4070Y2123D02*
X4108Y2123D01*
X4129Y2123D02*
X4167Y2123D01*
X4370Y2123D02*
X4408Y2123D01*
X4429Y2123D02*
X4467Y2123D01*
X4071Y2122D02*
X4109Y2122D01*
X4128Y2122D02*
X4166Y2122D01*
X4371Y2122D02*
X4409Y2122D01*
X4428Y2122D02*
X4466Y2122D01*
X4071Y2121D02*
X4111Y2121D01*
X4126Y2121D02*
X4166Y2121D01*
X4371Y2121D02*
X4411Y2121D01*
X4426Y2121D02*
X4466Y2121D01*
X4072Y2120D02*
X4114Y2120D01*
X4124Y2120D02*
X4165Y2120D01*
X4372Y2120D02*
X4414Y2120D01*
X4424Y2120D02*
X4465Y2120D01*
X4073Y2119D02*
X4164Y2119D01*
X4373Y2119D02*
X4464Y2119D01*
X4074Y2118D02*
X4163Y2118D01*
X4374Y2118D02*
X4463Y2118D01*
X4075Y2117D02*
X4163Y2117D01*
X4375Y2117D02*
X4463Y2117D01*
X4076Y2116D02*
X4161Y2116D01*
X4376Y2116D02*
X4461Y2116D01*
X4077Y2115D02*
X4160Y2115D01*
X4377Y2115D02*
X4460Y2115D01*
X4078Y2114D02*
X4159Y2114D01*
X4378Y2114D02*
X4459Y2114D01*
X4080Y2113D02*
X4157Y2113D01*
X4380Y2113D02*
X4457Y2113D01*
X4082Y2112D02*
X4155Y2112D01*
X4382Y2112D02*
X4455Y2112D01*
X4084Y2111D02*
X4153Y2111D01*
X4384Y2111D02*
X4453Y2111D01*
X4087Y2110D02*
X4150Y2110D01*
X4387Y2110D02*
X4450Y2110D01*
X4090Y2061D02*
X4148Y2061D01*
X4390Y2061D02*
X4448Y2061D01*
X4085Y2060D02*
X4152Y2060D01*
X4385Y2060D02*
X4452Y2060D01*
X4083Y2059D02*
X4155Y2059D01*
X4383Y2059D02*
X4455Y2059D01*
X4081Y2058D02*
X4156Y2058D01*
X4381Y2058D02*
X4456Y2058D01*
X4079Y2057D02*
X4158Y2057D01*
X4379Y2057D02*
X4458Y2057D01*
X4078Y2056D02*
X4160Y2056D01*
X4377Y2056D02*
X4460Y2056D01*
X4076Y2055D02*
X4161Y2055D01*
X4376Y2055D02*
X4461Y2055D01*
X4075Y2054D02*
X4162Y2054D01*
X4375Y2054D02*
X4462Y2054D01*
X4074Y2053D02*
X4163Y2053D01*
X4374Y2053D02*
X4463Y2053D01*
X4073Y2052D02*
X4164Y2052D01*
X4373Y2052D02*
X4464Y2052D01*
X4072Y2051D02*
X4115Y2051D01*
X4122Y2051D02*
X4165Y2051D01*
X4372Y2051D02*
X4415Y2051D01*
X4422Y2051D02*
X4465Y2051D01*
X4072Y2050D02*
X4112Y2050D01*
X4125Y2050D02*
X4165Y2050D01*
X4372Y2050D02*
X4412Y2050D01*
X4425Y2050D02*
X4465Y2050D01*
X4071Y2049D02*
X4110Y2049D01*
X4127Y2049D02*
X4166Y2049D01*
X4371Y2049D02*
X4410Y2049D01*
X4427Y2049D02*
X4466Y2049D01*
X4071Y2048D02*
X4108Y2048D01*
X4129Y2048D02*
X4167Y2048D01*
X4371Y2048D02*
X4408Y2048D01*
X4429Y2048D02*
X4467Y2048D01*
X4070Y2047D02*
X4107Y2047D01*
X4130Y2047D02*
X4167Y2047D01*
X4370Y2047D02*
X4407Y2047D01*
X4430Y2047D02*
X4467Y2047D01*
X4069Y2046D02*
X4106Y2046D01*
X4131Y2046D02*
X4168Y2046D01*
X4369Y2046D02*
X4406Y2046D01*
X4431Y2046D02*
X4468Y2046D01*
X4069Y2045D02*
X4105Y2045D01*
X4132Y2045D02*
X4168Y2045D01*
X4369Y2045D02*
X4405Y2045D01*
X4432Y2045D02*
X4468Y2045D01*
X4069Y2044D02*
X4105Y2044D01*
X4132Y2044D02*
X4169Y2044D01*
X4369Y2044D02*
X4405Y2044D01*
X4432Y2044D02*
X4469Y2044D01*
X4068Y2043D02*
X4104Y2043D01*
X4133Y2043D02*
X4169Y2043D01*
X4368Y2043D02*
X4404Y2043D01*
X4433Y2043D02*
X4469Y2043D01*
X4068Y2042D02*
X4104Y2042D01*
X4134Y2042D02*
X4169Y2042D01*
X4368Y2042D02*
X4404Y2042D01*
X4434Y2042D02*
X4469Y2042D01*
X4068Y2041D02*
X4103Y2041D01*
X4134Y2041D02*
X4169Y2041D01*
X4368Y2041D02*
X4403Y2041D01*
X4434Y2041D02*
X4469Y2041D01*
X4068Y2040D02*
X4103Y2040D01*
X4134Y2040D02*
X4170Y2040D01*
X4367Y2040D02*
X4403Y2040D01*
X4434Y2040D02*
X4470Y2040D01*
X4067Y2039D02*
X4103Y2039D01*
X4135Y2039D02*
X4170Y2039D01*
X4367Y2039D02*
X4403Y2039D01*
X4435Y2039D02*
X4470Y2039D01*
X4067Y2038D02*
X4102Y2038D01*
X4135Y2038D02*
X4170Y2038D01*
X4367Y2038D02*
X4402Y2038D01*
X4435Y2038D02*
X4470Y2038D01*
X4067Y2037D02*
X4102Y2037D01*
X4135Y2037D02*
X4170Y2037D01*
X4367Y2037D02*
X4402Y2037D01*
X4435Y2037D02*
X4470Y2037D01*
X4067Y2036D02*
X4102Y2036D01*
X4135Y2036D02*
X4170Y2036D01*
X4367Y2036D02*
X4402Y2036D01*
X4435Y2036D02*
X4470Y2036D01*
X4067Y2035D02*
X4102Y2035D01*
X4135Y2035D02*
X4170Y2035D01*
X4367Y2035D02*
X4402Y2035D01*
X4435Y2035D02*
X4470Y2035D01*
X4067Y2034D02*
X4102Y2034D01*
X4135Y2034D02*
X4170Y2034D01*
X4367Y2034D02*
X4402Y2034D01*
X4435Y2034D02*
X4470Y2034D01*
X4067Y2033D02*
X4102Y2033D01*
X4135Y2033D02*
X4170Y2033D01*
X4367Y2033D02*
X4402Y2033D01*
X4435Y2033D02*
X4470Y2033D01*
X4067Y2032D02*
X4102Y2032D01*
X4135Y2032D02*
X4170Y2032D01*
X4367Y2032D02*
X4402Y2032D01*
X4435Y2032D02*
X4470Y2032D01*
X4067Y2031D02*
X4103Y2031D01*
X4134Y2031D02*
X4170Y2031D01*
X4367Y2031D02*
X4403Y2031D01*
X4434Y2031D02*
X4470Y2031D01*
X4068Y2030D02*
X4103Y2030D01*
X4134Y2030D02*
X4170Y2030D01*
X4368Y2030D02*
X4403Y2030D01*
X4434Y2030D02*
X4469Y2030D01*
X4068Y2029D02*
X4103Y2029D01*
X4134Y2029D02*
X4169Y2029D01*
X4368Y2029D02*
X4403Y2029D01*
X4434Y2029D02*
X4469Y2029D01*
X4068Y2028D02*
X4104Y2028D01*
X4133Y2028D02*
X4169Y2028D01*
X4368Y2028D02*
X4404Y2028D01*
X4433Y2028D02*
X4469Y2028D01*
X4068Y2027D02*
X4104Y2027D01*
X4133Y2027D02*
X4169Y2027D01*
X4368Y2027D02*
X4404Y2027D01*
X4433Y2027D02*
X4469Y2027D01*
X4069Y2026D02*
X4105Y2026D01*
X4132Y2026D02*
X4168Y2026D01*
X4369Y2026D02*
X4405Y2026D01*
X4432Y2026D02*
X4468Y2026D01*
X4069Y2025D02*
X4106Y2025D01*
X4131Y2025D02*
X4168Y2025D01*
X4369Y2025D02*
X4406Y2025D01*
X4431Y2025D02*
X4468Y2025D01*
X4070Y2024D02*
X4107Y2024D01*
X4130Y2024D02*
X4167Y2024D01*
X4370Y2024D02*
X4407Y2024D01*
X4430Y2024D02*
X4467Y2024D01*
X4070Y2023D02*
X4108Y2023D01*
X4129Y2023D02*
X4167Y2023D01*
X4370Y2023D02*
X4408Y2023D01*
X4429Y2023D02*
X4467Y2023D01*
X4071Y2022D02*
X4109Y2022D01*
X4128Y2022D02*
X4166Y2022D01*
X4371Y2022D02*
X4409Y2022D01*
X4428Y2022D02*
X4466Y2022D01*
X4071Y2021D02*
X4111Y2021D01*
X4126Y2021D02*
X4166Y2021D01*
X4371Y2021D02*
X4411Y2021D01*
X4426Y2021D02*
X4466Y2021D01*
X4072Y2020D02*
X4114Y2020D01*
X4124Y2020D02*
X4165Y2020D01*
X4372Y2020D02*
X4414Y2020D01*
X4424Y2020D02*
X4465Y2020D01*
X4073Y2019D02*
X4164Y2019D01*
X4373Y2019D02*
X4464Y2019D01*
X4074Y2018D02*
X4163Y2018D01*
X4374Y2018D02*
X4463Y2018D01*
X4075Y2017D02*
X4163Y2017D01*
X4375Y2017D02*
X4463Y2017D01*
X4076Y2016D02*
X4161Y2016D01*
X4376Y2016D02*
X4461Y2016D01*
X4077Y2015D02*
X4160Y2015D01*
X4377Y2015D02*
X4460Y2015D01*
X4078Y2014D02*
X4159Y2014D01*
X4378Y2014D02*
X4459Y2014D01*
X4080Y2013D02*
X4157Y2013D01*
X4380Y2013D02*
X4457Y2013D01*
X4082Y2012D02*
X4155Y2012D01*
X4382Y2012D02*
X4455Y2012D01*
X4084Y2011D02*
X4153Y2011D01*
X4384Y2011D02*
X4453Y2011D01*
X4087Y2010D02*
X4150Y2010D01*
X4387Y2010D02*
X4450Y2010D01*
X4089Y1961D02*
X4148Y1961D01*
X4389Y1961D02*
X4448Y1961D01*
X4085Y1960D02*
X4152Y1960D01*
X4385Y1960D02*
X4452Y1960D01*
X4083Y1959D02*
X4155Y1959D01*
X4383Y1959D02*
X4455Y1959D01*
X4081Y1958D02*
X4156Y1958D01*
X4381Y1958D02*
X4456Y1958D01*
X4079Y1957D02*
X4158Y1957D01*
X4379Y1957D02*
X4458Y1957D01*
X4078Y1956D02*
X4160Y1956D01*
X4377Y1956D02*
X4460Y1956D01*
X4076Y1955D02*
X4161Y1955D01*
X4376Y1955D02*
X4461Y1955D01*
X4075Y1954D02*
X4162Y1954D01*
X4375Y1954D02*
X4462Y1954D01*
X4074Y1953D02*
X4163Y1953D01*
X4374Y1953D02*
X4463Y1953D01*
X4073Y1952D02*
X4164Y1952D01*
X4373Y1952D02*
X4464Y1952D01*
X4072Y1951D02*
X4115Y1951D01*
X4122Y1951D02*
X4165Y1951D01*
X4372Y1951D02*
X4415Y1951D01*
X4422Y1951D02*
X4465Y1951D01*
X4072Y1950D02*
X4112Y1950D01*
X4125Y1950D02*
X4165Y1950D01*
X4372Y1950D02*
X4412Y1950D01*
X4425Y1950D02*
X4465Y1950D01*
X4071Y1949D02*
X4110Y1949D01*
X4127Y1949D02*
X4166Y1949D01*
X4371Y1949D02*
X4410Y1949D01*
X4427Y1949D02*
X4466Y1949D01*
X4071Y1948D02*
X4108Y1948D01*
X4129Y1948D02*
X4167Y1948D01*
X4370Y1948D02*
X4408Y1948D01*
X4429Y1948D02*
X4467Y1948D01*
X4070Y1947D02*
X4107Y1947D01*
X4130Y1947D02*
X4167Y1947D01*
X4370Y1947D02*
X4407Y1947D01*
X4430Y1947D02*
X4467Y1947D01*
X4069Y1946D02*
X4106Y1946D01*
X4131Y1946D02*
X4168Y1946D01*
X4369Y1946D02*
X4406Y1946D01*
X4431Y1946D02*
X4468Y1946D01*
X4069Y1945D02*
X4105Y1945D01*
X4132Y1945D02*
X4168Y1945D01*
X4369Y1945D02*
X4405Y1945D01*
X4432Y1945D02*
X4468Y1945D01*
X4069Y1944D02*
X4105Y1944D01*
X4132Y1944D02*
X4169Y1944D01*
X4369Y1944D02*
X4405Y1944D01*
X4432Y1944D02*
X4469Y1944D01*
X4068Y1943D02*
X4104Y1943D01*
X4133Y1943D02*
X4169Y1943D01*
X4368Y1943D02*
X4404Y1943D01*
X4433Y1943D02*
X4469Y1943D01*
X4068Y1942D02*
X4104Y1942D01*
X4134Y1942D02*
X4169Y1942D01*
X4368Y1942D02*
X4404Y1942D01*
X4434Y1942D02*
X4469Y1942D01*
X4068Y1941D02*
X4103Y1941D01*
X4134Y1941D02*
X4169Y1941D01*
X4368Y1941D02*
X4403Y1941D01*
X4434Y1941D02*
X4469Y1941D01*
X4068Y1940D02*
X4103Y1940D01*
X4134Y1940D02*
X4170Y1940D01*
X4367Y1940D02*
X4403Y1940D01*
X4434Y1940D02*
X4470Y1940D01*
X4067Y1939D02*
X4103Y1939D01*
X4135Y1939D02*
X4170Y1939D01*
X4367Y1939D02*
X4403Y1939D01*
X4435Y1939D02*
X4470Y1939D01*
X4067Y1938D02*
X4102Y1938D01*
X4135Y1938D02*
X4170Y1938D01*
X4367Y1938D02*
X4402Y1938D01*
X4435Y1938D02*
X4470Y1938D01*
X4067Y1937D02*
X4102Y1937D01*
X4135Y1937D02*
X4170Y1937D01*
X4367Y1937D02*
X4402Y1937D01*
X4435Y1937D02*
X4470Y1937D01*
X4067Y1936D02*
X4102Y1936D01*
X4135Y1936D02*
X4170Y1936D01*
X4367Y1936D02*
X4402Y1936D01*
X4435Y1936D02*
X4470Y1936D01*
X4067Y1935D02*
X4102Y1935D01*
X4135Y1935D02*
X4170Y1935D01*
X4367Y1935D02*
X4402Y1935D01*
X4435Y1935D02*
X4470Y1935D01*
X4067Y1934D02*
X4102Y1934D01*
X4135Y1934D02*
X4170Y1934D01*
X4367Y1934D02*
X4402Y1934D01*
X4435Y1934D02*
X4470Y1934D01*
X4067Y1933D02*
X4102Y1933D01*
X4135Y1933D02*
X4170Y1933D01*
X4367Y1933D02*
X4402Y1933D01*
X4435Y1933D02*
X4470Y1933D01*
X4067Y1932D02*
X4102Y1932D01*
X4135Y1932D02*
X4170Y1932D01*
X4367Y1932D02*
X4402Y1932D01*
X4435Y1932D02*
X4470Y1932D01*
X4067Y1931D02*
X4103Y1931D01*
X4134Y1931D02*
X4170Y1931D01*
X4367Y1931D02*
X4403Y1931D01*
X4434Y1931D02*
X4470Y1931D01*
X4068Y1930D02*
X4103Y1930D01*
X4134Y1930D02*
X4170Y1930D01*
X4368Y1930D02*
X4403Y1930D01*
X4434Y1930D02*
X4469Y1930D01*
X4068Y1929D02*
X4103Y1929D01*
X4134Y1929D02*
X4169Y1929D01*
X4368Y1929D02*
X4403Y1929D01*
X4434Y1929D02*
X4469Y1929D01*
X4068Y1928D02*
X4104Y1928D01*
X4133Y1928D02*
X4169Y1928D01*
X4368Y1928D02*
X4404Y1928D01*
X4433Y1928D02*
X4469Y1928D01*
X4068Y1927D02*
X4104Y1927D01*
X4133Y1927D02*
X4169Y1927D01*
X4368Y1927D02*
X4404Y1927D01*
X4433Y1927D02*
X4469Y1927D01*
X4069Y1926D02*
X4105Y1926D01*
X4132Y1926D02*
X4168Y1926D01*
X4369Y1926D02*
X4405Y1926D01*
X4432Y1926D02*
X4468Y1926D01*
X4069Y1925D02*
X4106Y1925D01*
X4131Y1925D02*
X4168Y1925D01*
X4369Y1925D02*
X4406Y1925D01*
X4431Y1925D02*
X4468Y1925D01*
X4070Y1924D02*
X4107Y1924D01*
X4130Y1924D02*
X4167Y1924D01*
X4370Y1924D02*
X4407Y1924D01*
X4430Y1924D02*
X4467Y1924D01*
X4070Y1923D02*
X4108Y1923D01*
X4129Y1923D02*
X4167Y1923D01*
X4370Y1923D02*
X4408Y1923D01*
X4429Y1923D02*
X4467Y1923D01*
X4071Y1922D02*
X4109Y1922D01*
X4128Y1922D02*
X4166Y1922D01*
X4371Y1922D02*
X4409Y1922D01*
X4428Y1922D02*
X4466Y1922D01*
X4071Y1921D02*
X4111Y1921D01*
X4126Y1921D02*
X4166Y1921D01*
X4371Y1921D02*
X4411Y1921D01*
X4426Y1921D02*
X4466Y1921D01*
X4072Y1920D02*
X4114Y1920D01*
X4124Y1920D02*
X4165Y1920D01*
X4372Y1920D02*
X4414Y1920D01*
X4424Y1920D02*
X4465Y1920D01*
X4073Y1919D02*
X4164Y1919D01*
X4373Y1919D02*
X4464Y1919D01*
X4074Y1918D02*
X4163Y1918D01*
X4374Y1918D02*
X4463Y1918D01*
X4075Y1917D02*
X4163Y1917D01*
X4375Y1917D02*
X4462Y1917D01*
X4076Y1916D02*
X4161Y1916D01*
X4376Y1916D02*
X4461Y1916D01*
X4077Y1915D02*
X4160Y1915D01*
X4377Y1915D02*
X4460Y1915D01*
X4078Y1914D02*
X4159Y1914D01*
X4378Y1914D02*
X4459Y1914D01*
X4080Y1913D02*
X4157Y1913D01*
X4380Y1913D02*
X4457Y1913D01*
X4082Y1912D02*
X4155Y1912D01*
X4382Y1912D02*
X4455Y1912D01*
X4084Y1911D02*
X4153Y1911D01*
X4384Y1911D02*
X4453Y1911D01*
X4087Y1910D02*
X4150Y1910D01*
X4387Y1910D02*
X4450Y1910D01*
X4089Y1861D02*
X4148Y1861D01*
X4389Y1861D02*
X4448Y1861D01*
X4085Y1860D02*
X4152Y1860D01*
X4385Y1860D02*
X4452Y1860D01*
X4083Y1859D02*
X4155Y1859D01*
X4382Y1859D02*
X4455Y1859D01*
X4081Y1858D02*
X4156Y1858D01*
X4381Y1858D02*
X4456Y1858D01*
X4079Y1857D02*
X4158Y1857D01*
X4379Y1857D02*
X4458Y1857D01*
X4078Y1856D02*
X4160Y1856D01*
X4377Y1856D02*
X4460Y1856D01*
X4076Y1855D02*
X4161Y1855D01*
X4376Y1855D02*
X4461Y1855D01*
X4075Y1854D02*
X4162Y1854D01*
X4375Y1854D02*
X4462Y1854D01*
X4074Y1853D02*
X4163Y1853D01*
X4374Y1853D02*
X4463Y1853D01*
X4073Y1852D02*
X4164Y1852D01*
X4373Y1852D02*
X4464Y1852D01*
X4072Y1851D02*
X4115Y1851D01*
X4122Y1851D02*
X4165Y1851D01*
X4372Y1851D02*
X4415Y1851D01*
X4422Y1851D02*
X4465Y1851D01*
X4072Y1850D02*
X4112Y1850D01*
X4125Y1850D02*
X4165Y1850D01*
X4372Y1850D02*
X4412Y1850D01*
X4425Y1850D02*
X4465Y1850D01*
X4071Y1849D02*
X4110Y1849D01*
X4127Y1849D02*
X4166Y1849D01*
X4371Y1849D02*
X4410Y1849D01*
X4427Y1849D02*
X4466Y1849D01*
X4071Y1848D02*
X4108Y1848D01*
X4129Y1848D02*
X4167Y1848D01*
X4370Y1848D02*
X4408Y1848D01*
X4429Y1848D02*
X4467Y1848D01*
X4070Y1847D02*
X4107Y1847D01*
X4130Y1847D02*
X4167Y1847D01*
X4370Y1847D02*
X4407Y1847D01*
X4430Y1847D02*
X4467Y1847D01*
X4069Y1846D02*
X4106Y1846D01*
X4131Y1846D02*
X4168Y1846D01*
X4369Y1846D02*
X4406Y1846D01*
X4431Y1846D02*
X4468Y1846D01*
X4069Y1845D02*
X4105Y1845D01*
X4132Y1845D02*
X4168Y1845D01*
X4369Y1845D02*
X4405Y1845D01*
X4432Y1845D02*
X4468Y1845D01*
X4069Y1844D02*
X4105Y1844D01*
X4132Y1844D02*
X4169Y1844D01*
X4369Y1844D02*
X4405Y1844D01*
X4432Y1844D02*
X4469Y1844D01*
X4068Y1843D02*
X4104Y1843D01*
X4133Y1843D02*
X4169Y1843D01*
X4368Y1843D02*
X4404Y1843D01*
X4433Y1843D02*
X4469Y1843D01*
X4068Y1842D02*
X4104Y1842D01*
X4134Y1842D02*
X4169Y1842D01*
X4368Y1842D02*
X4404Y1842D01*
X4434Y1842D02*
X4469Y1842D01*
X4068Y1841D02*
X4103Y1841D01*
X4134Y1841D02*
X4169Y1841D01*
X4368Y1841D02*
X4403Y1841D01*
X4434Y1841D02*
X4469Y1841D01*
X4068Y1840D02*
X4103Y1840D01*
X4134Y1840D02*
X4170Y1840D01*
X4367Y1840D02*
X4403Y1840D01*
X4434Y1840D02*
X4470Y1840D01*
X4067Y1839D02*
X4103Y1839D01*
X4135Y1839D02*
X4170Y1839D01*
X4367Y1839D02*
X4403Y1839D01*
X4435Y1839D02*
X4470Y1839D01*
X4067Y1838D02*
X4102Y1838D01*
X4135Y1838D02*
X4170Y1838D01*
X4367Y1838D02*
X4402Y1838D01*
X4435Y1838D02*
X4470Y1838D01*
X4067Y1837D02*
X4102Y1837D01*
X4135Y1837D02*
X4170Y1837D01*
X4367Y1837D02*
X4402Y1837D01*
X4435Y1837D02*
X4470Y1837D01*
X4067Y1836D02*
X4102Y1836D01*
X4135Y1836D02*
X4170Y1836D01*
X4367Y1836D02*
X4402Y1836D01*
X4435Y1836D02*
X4470Y1836D01*
X4067Y1835D02*
X4102Y1835D01*
X4135Y1835D02*
X4170Y1835D01*
X4367Y1835D02*
X4402Y1835D01*
X4435Y1835D02*
X4470Y1835D01*
X4067Y1834D02*
X4102Y1834D01*
X4135Y1834D02*
X4170Y1834D01*
X4367Y1834D02*
X4402Y1834D01*
X4435Y1834D02*
X4470Y1834D01*
X4067Y1833D02*
X4102Y1833D01*
X4135Y1833D02*
X4170Y1833D01*
X4367Y1833D02*
X4402Y1833D01*
X4435Y1833D02*
X4470Y1833D01*
X4067Y1832D02*
X4102Y1832D01*
X4135Y1832D02*
X4170Y1832D01*
X4367Y1832D02*
X4402Y1832D01*
X4435Y1832D02*
X4470Y1832D01*
X4067Y1831D02*
X4103Y1831D01*
X4134Y1831D02*
X4170Y1831D01*
X4367Y1831D02*
X4403Y1831D01*
X4434Y1831D02*
X4470Y1831D01*
X4068Y1830D02*
X4103Y1830D01*
X4134Y1830D02*
X4170Y1830D01*
X4368Y1830D02*
X4403Y1830D01*
X4434Y1830D02*
X4469Y1830D01*
X4068Y1829D02*
X4103Y1829D01*
X4134Y1829D02*
X4169Y1829D01*
X4368Y1829D02*
X4403Y1829D01*
X4434Y1829D02*
X4469Y1829D01*
X4068Y1828D02*
X4104Y1828D01*
X4133Y1828D02*
X4169Y1828D01*
X4368Y1828D02*
X4404Y1828D01*
X4433Y1828D02*
X4469Y1828D01*
X4068Y1827D02*
X4104Y1827D01*
X4133Y1827D02*
X4169Y1827D01*
X4368Y1827D02*
X4404Y1827D01*
X4433Y1827D02*
X4469Y1827D01*
X4069Y1826D02*
X4105Y1826D01*
X4132Y1826D02*
X4168Y1826D01*
X4369Y1826D02*
X4405Y1826D01*
X4432Y1826D02*
X4468Y1826D01*
X4069Y1825D02*
X4106Y1825D01*
X4131Y1825D02*
X4168Y1825D01*
X4369Y1825D02*
X4406Y1825D01*
X4431Y1825D02*
X4468Y1825D01*
X4070Y1824D02*
X4107Y1824D01*
X4130Y1824D02*
X4167Y1824D01*
X4370Y1824D02*
X4407Y1824D01*
X4430Y1824D02*
X4467Y1824D01*
X4070Y1823D02*
X4108Y1823D01*
X4129Y1823D02*
X4167Y1823D01*
X4370Y1823D02*
X4408Y1823D01*
X4429Y1823D02*
X4467Y1823D01*
X4071Y1822D02*
X4109Y1822D01*
X4128Y1822D02*
X4166Y1822D01*
X4371Y1822D02*
X4409Y1822D01*
X4428Y1822D02*
X4466Y1822D01*
X4071Y1821D02*
X4111Y1821D01*
X4126Y1821D02*
X4166Y1821D01*
X4371Y1821D02*
X4411Y1821D01*
X4426Y1821D02*
X4466Y1821D01*
X4072Y1820D02*
X4114Y1820D01*
X4124Y1820D02*
X4165Y1820D01*
X4372Y1820D02*
X4414Y1820D01*
X4424Y1820D02*
X4465Y1820D01*
X4073Y1819D02*
X4164Y1819D01*
X4373Y1819D02*
X4464Y1819D01*
X4074Y1818D02*
X4163Y1818D01*
X4374Y1818D02*
X4463Y1818D01*
X4075Y1817D02*
X4163Y1817D01*
X4375Y1817D02*
X4462Y1817D01*
X4076Y1816D02*
X4161Y1816D01*
X4376Y1816D02*
X4461Y1816D01*
X4077Y1815D02*
X4160Y1815D01*
X4377Y1815D02*
X4460Y1815D01*
X4078Y1814D02*
X4159Y1814D01*
X4378Y1814D02*
X4459Y1814D01*
X4080Y1813D02*
X4157Y1813D01*
X4380Y1813D02*
X4457Y1813D01*
X4082Y1812D02*
X4155Y1812D01*
X4382Y1812D02*
X4455Y1812D01*
X4084Y1811D02*
X4153Y1811D01*
X4384Y1811D02*
X4453Y1811D01*
X4087Y1810D02*
X4150Y1810D01*
X4387Y1810D02*
X4450Y1810D01*
X4089Y1761D02*
X4148Y1761D01*
X4389Y1761D02*
X4448Y1761D01*
X4085Y1760D02*
X4152Y1760D01*
X4385Y1760D02*
X4452Y1760D01*
X4083Y1759D02*
X4155Y1759D01*
X4382Y1759D02*
X4455Y1759D01*
X4081Y1758D02*
X4156Y1758D01*
X4381Y1758D02*
X4456Y1758D01*
X4079Y1757D02*
X4158Y1757D01*
X4379Y1757D02*
X4458Y1757D01*
X4078Y1756D02*
X4160Y1756D01*
X4377Y1756D02*
X4460Y1756D01*
X4076Y1755D02*
X4161Y1755D01*
X4376Y1755D02*
X4461Y1755D01*
X4075Y1754D02*
X4162Y1754D01*
X4375Y1754D02*
X4462Y1754D01*
X4074Y1753D02*
X4163Y1753D01*
X4374Y1753D02*
X4463Y1753D01*
X4073Y1752D02*
X4164Y1752D01*
X4373Y1752D02*
X4464Y1752D01*
X4072Y1751D02*
X4115Y1751D01*
X4122Y1751D02*
X4165Y1751D01*
X4372Y1751D02*
X4415Y1751D01*
X4422Y1751D02*
X4465Y1751D01*
X4072Y1750D02*
X4112Y1750D01*
X4125Y1750D02*
X4165Y1750D01*
X4372Y1750D02*
X4412Y1750D01*
X4425Y1750D02*
X4465Y1750D01*
X4071Y1749D02*
X4110Y1749D01*
X4127Y1749D02*
X4166Y1749D01*
X4371Y1749D02*
X4410Y1749D01*
X4427Y1749D02*
X4466Y1749D01*
X4071Y1748D02*
X4108Y1748D01*
X4129Y1748D02*
X4167Y1748D01*
X4370Y1748D02*
X4408Y1748D01*
X4429Y1748D02*
X4467Y1748D01*
X4070Y1747D02*
X4107Y1747D01*
X4130Y1747D02*
X4167Y1747D01*
X4370Y1747D02*
X4407Y1747D01*
X4430Y1747D02*
X4467Y1747D01*
X4069Y1746D02*
X4106Y1746D01*
X4131Y1746D02*
X4168Y1746D01*
X4369Y1746D02*
X4406Y1746D01*
X4431Y1746D02*
X4468Y1746D01*
X4069Y1745D02*
X4105Y1745D01*
X4132Y1745D02*
X4168Y1745D01*
X4369Y1745D02*
X4405Y1745D01*
X4432Y1745D02*
X4468Y1745D01*
X4069Y1744D02*
X4105Y1744D01*
X4132Y1744D02*
X4169Y1744D01*
X4369Y1744D02*
X4405Y1744D01*
X4432Y1744D02*
X4469Y1744D01*
X4068Y1743D02*
X4104Y1743D01*
X4133Y1743D02*
X4169Y1743D01*
X4368Y1743D02*
X4404Y1743D01*
X4433Y1743D02*
X4469Y1743D01*
X4068Y1742D02*
X4104Y1742D01*
X4134Y1742D02*
X4169Y1742D01*
X4368Y1742D02*
X4404Y1742D01*
X4434Y1742D02*
X4469Y1742D01*
X4068Y1741D02*
X4103Y1741D01*
X4134Y1741D02*
X4169Y1741D01*
X4368Y1741D02*
X4403Y1741D01*
X4434Y1741D02*
X4469Y1741D01*
X4068Y1740D02*
X4103Y1740D01*
X4134Y1740D02*
X4170Y1740D01*
X4367Y1740D02*
X4403Y1740D01*
X4434Y1740D02*
X4470Y1740D01*
X4067Y1739D02*
X4103Y1739D01*
X4135Y1739D02*
X4170Y1739D01*
X4367Y1739D02*
X4403Y1739D01*
X4435Y1739D02*
X4470Y1739D01*
X4067Y1738D02*
X4102Y1738D01*
X4135Y1738D02*
X4170Y1738D01*
X4367Y1738D02*
X4402Y1738D01*
X4435Y1738D02*
X4470Y1738D01*
X4067Y1737D02*
X4102Y1737D01*
X4135Y1737D02*
X4170Y1737D01*
X4367Y1737D02*
X4402Y1737D01*
X4435Y1737D02*
X4470Y1737D01*
X4067Y1736D02*
X4102Y1736D01*
X4135Y1736D02*
X4170Y1736D01*
X4367Y1736D02*
X4402Y1736D01*
X4435Y1736D02*
X4470Y1736D01*
X4067Y1735D02*
X4102Y1735D01*
X4135Y1735D02*
X4170Y1735D01*
X4367Y1735D02*
X4402Y1735D01*
X4435Y1735D02*
X4470Y1735D01*
X4067Y1734D02*
X4102Y1734D01*
X4135Y1734D02*
X4170Y1734D01*
X4367Y1734D02*
X4402Y1734D01*
X4435Y1734D02*
X4470Y1734D01*
X4067Y1733D02*
X4102Y1733D01*
X4135Y1733D02*
X4170Y1733D01*
X4367Y1733D02*
X4402Y1733D01*
X4435Y1733D02*
X4470Y1733D01*
X4067Y1732D02*
X4102Y1732D01*
X4135Y1732D02*
X4170Y1732D01*
X4367Y1732D02*
X4402Y1732D01*
X4435Y1732D02*
X4470Y1732D01*
X4067Y1731D02*
X4103Y1731D01*
X4134Y1731D02*
X4170Y1731D01*
X4367Y1731D02*
X4403Y1731D01*
X4434Y1731D02*
X4470Y1731D01*
X4068Y1730D02*
X4103Y1730D01*
X4134Y1730D02*
X4170Y1730D01*
X4368Y1730D02*
X4403Y1730D01*
X4434Y1730D02*
X4469Y1730D01*
X4068Y1729D02*
X4103Y1729D01*
X4134Y1729D02*
X4169Y1729D01*
X4368Y1729D02*
X4403Y1729D01*
X4434Y1729D02*
X4469Y1729D01*
X4068Y1728D02*
X4104Y1728D01*
X4133Y1728D02*
X4169Y1728D01*
X4368Y1728D02*
X4404Y1728D01*
X4433Y1728D02*
X4469Y1728D01*
X4068Y1727D02*
X4104Y1727D01*
X4133Y1727D02*
X4169Y1727D01*
X4368Y1727D02*
X4404Y1727D01*
X4433Y1727D02*
X4469Y1727D01*
X4069Y1726D02*
X4105Y1726D01*
X4132Y1726D02*
X4168Y1726D01*
X4369Y1726D02*
X4405Y1726D01*
X4432Y1726D02*
X4468Y1726D01*
X4069Y1725D02*
X4106Y1725D01*
X4131Y1725D02*
X4168Y1725D01*
X4369Y1725D02*
X4406Y1725D01*
X4431Y1725D02*
X4468Y1725D01*
X4070Y1724D02*
X4107Y1724D01*
X4130Y1724D02*
X4167Y1724D01*
X4370Y1724D02*
X4407Y1724D01*
X4430Y1724D02*
X4467Y1724D01*
X4070Y1723D02*
X4108Y1723D01*
X4129Y1723D02*
X4167Y1723D01*
X4370Y1723D02*
X4408Y1723D01*
X4429Y1723D02*
X4467Y1723D01*
X4071Y1722D02*
X4109Y1722D01*
X4128Y1722D02*
X4166Y1722D01*
X4371Y1722D02*
X4409Y1722D01*
X4428Y1722D02*
X4466Y1722D01*
X4071Y1721D02*
X4111Y1721D01*
X4126Y1721D02*
X4166Y1721D01*
X4371Y1721D02*
X4411Y1721D01*
X4426Y1721D02*
X4466Y1721D01*
X4072Y1720D02*
X4114Y1720D01*
X4124Y1720D02*
X4165Y1720D01*
X4372Y1720D02*
X4414Y1720D01*
X4424Y1720D02*
X4465Y1720D01*
X4073Y1719D02*
X4164Y1719D01*
X4373Y1719D02*
X4464Y1719D01*
X4074Y1718D02*
X4163Y1718D01*
X4374Y1718D02*
X4463Y1718D01*
X4075Y1717D02*
X4163Y1717D01*
X4375Y1717D02*
X4462Y1717D01*
X4076Y1716D02*
X4161Y1716D01*
X4376Y1716D02*
X4461Y1716D01*
X4077Y1715D02*
X4160Y1715D01*
X4377Y1715D02*
X4460Y1715D01*
X4078Y1714D02*
X4159Y1714D01*
X4378Y1714D02*
X4459Y1714D01*
X4080Y1713D02*
X4157Y1713D01*
X4380Y1713D02*
X4457Y1713D01*
X4082Y1712D02*
X4155Y1712D01*
X4382Y1712D02*
X4455Y1712D01*
X4084Y1711D02*
X4153Y1711D01*
X4384Y1711D02*
X4453Y1711D01*
X4087Y1710D02*
X4150Y1710D01*
X4387Y1710D02*
X4450Y1710D01*
X1515Y667D02*
X1522Y667D01*
X1513Y666D02*
X1524Y666D01*
X1512Y665D02*
X1526Y665D01*
X1510Y664D02*
X1527Y664D01*
X1510Y663D02*
X1528Y663D01*
X1509Y662D02*
X1529Y662D01*
X1508Y661D02*
X1529Y661D01*
X1508Y660D02*
X1530Y660D01*
X1508Y659D02*
X1530Y659D01*
X1507Y658D02*
X1530Y658D01*
X1507Y657D02*
X1530Y657D01*
X1507Y656D02*
X1530Y656D01*
X1507Y655D02*
X1530Y655D01*
X1507Y654D02*
X1530Y654D01*
X1507Y653D02*
X1530Y653D01*
X1507Y652D02*
X1530Y652D01*
X1507Y651D02*
X1530Y651D01*
X1507Y650D02*
X1530Y650D01*
X1507Y649D02*
X1530Y649D01*
X1507Y648D02*
X1530Y648D01*
X1507Y647D02*
X1530Y647D01*
X1507Y646D02*
X1530Y646D01*
X1507Y645D02*
X1530Y645D01*
X1507Y644D02*
X1530Y644D01*
X1507Y643D02*
X1530Y643D01*
X1507Y642D02*
X1530Y642D01*
X1507Y641D02*
X1530Y641D01*
X1507Y640D02*
X1530Y640D01*
X1507Y639D02*
X1530Y639D01*
X1507Y638D02*
X1530Y638D01*
X1507Y637D02*
X1530Y637D01*
X1507Y636D02*
X1530Y636D01*
X1507Y635D02*
X1530Y635D01*
X1507Y634D02*
X1530Y634D01*
X1507Y633D02*
X1530Y633D01*
X1507Y632D02*
X1530Y632D01*
X1507Y631D02*
X1530Y631D01*
X1507Y630D02*
X1530Y630D01*
X1507Y629D02*
X1530Y629D01*
X1507Y628D02*
X1530Y628D01*
X1507Y627D02*
X1530Y627D01*
X1507Y626D02*
X1530Y626D01*
X1507Y625D02*
X1530Y625D01*
X1507Y624D02*
X1530Y624D01*
X1507Y623D02*
X1530Y623D01*
X1507Y622D02*
X1530Y622D01*
X1507Y621D02*
X1530Y621D01*
X1507Y620D02*
X1530Y620D01*
X1507Y619D02*
X1530Y619D01*
X1507Y618D02*
X1530Y618D01*
X1507Y617D02*
X1530Y617D01*
X1507Y616D02*
X1530Y616D01*
X1507Y615D02*
X1530Y615D01*
X1507Y614D02*
X1530Y614D01*
X1507Y613D02*
X1530Y613D01*
X1507Y612D02*
X1530Y612D01*
X1507Y611D02*
X1530Y611D01*
X1507Y610D02*
X1530Y610D01*
X1507Y609D02*
X1530Y609D01*
X1507Y608D02*
X1530Y608D01*
X1507Y607D02*
X1530Y607D01*
X1507Y606D02*
X1530Y606D01*
X1507Y605D02*
X1530Y605D01*
X1507Y604D02*
X1530Y604D01*
X1507Y603D02*
X1530Y603D01*
X1507Y602D02*
X1530Y602D01*
X1507Y601D02*
X1530Y601D01*
X1507Y600D02*
X1530Y600D01*
X1507Y599D02*
X1530Y599D01*
X1507Y598D02*
X1530Y598D01*
X1507Y597D02*
X1530Y597D01*
X1507Y596D02*
X1530Y596D01*
X1507Y595D02*
X1530Y595D01*
X1507Y594D02*
X1530Y594D01*
X1507Y593D02*
X1530Y593D01*
X1507Y592D02*
X1530Y592D01*
X1507Y591D02*
X1530Y591D01*
X1507Y590D02*
X1530Y590D01*
X1507Y589D02*
X1530Y589D01*
X1507Y588D02*
X1530Y588D01*
X1507Y587D02*
X1530Y587D01*
X1507Y586D02*
X1530Y586D01*
X1507Y585D02*
X1530Y585D01*
X1507Y584D02*
X1530Y584D01*
X1507Y583D02*
X1530Y583D01*
X1507Y582D02*
X1530Y582D01*
X1507Y581D02*
X1530Y581D01*
X1507Y580D02*
X1530Y580D01*
X1507Y579D02*
X1530Y579D01*
X1507Y578D02*
X1530Y578D01*
X1507Y577D02*
X1530Y577D01*
X1507Y576D02*
X1530Y576D01*
X1507Y575D02*
X1530Y575D01*
X1507Y574D02*
X1530Y574D01*
X1507Y573D02*
X1530Y573D01*
X1507Y572D02*
X1530Y572D01*
X1507Y571D02*
X1530Y571D01*
X1507Y570D02*
X1530Y570D01*
X1507Y569D02*
X1530Y569D01*
X1507Y568D02*
X1530Y568D01*
X1507Y567D02*
X1530Y567D01*
X1507Y566D02*
X1530Y566D01*
X1507Y565D02*
X1530Y565D01*
X1507Y564D02*
X1530Y564D01*
X1507Y563D02*
X1530Y563D01*
X1507Y562D02*
X1530Y562D01*
X1507Y561D02*
X1530Y561D01*
X1507Y560D02*
X1530Y560D01*
X1507Y559D02*
X1530Y559D01*
X1507Y558D02*
X1530Y558D01*
X1507Y557D02*
X1530Y557D01*
X1507Y556D02*
X1530Y556D01*
X1507Y555D02*
X1530Y555D01*
X1507Y554D02*
X1530Y554D01*
X1507Y553D02*
X1530Y553D01*
X1507Y552D02*
X1530Y552D01*
X1507Y551D02*
X1530Y551D01*
X1507Y550D02*
X1530Y550D01*
X1507Y549D02*
X1530Y549D01*
X1507Y548D02*
X1530Y548D01*
X1507Y547D02*
X1530Y547D01*
X1507Y546D02*
X1530Y546D01*
X1507Y545D02*
X1530Y545D01*
X1507Y544D02*
X1530Y544D01*
X1507Y543D02*
X1530Y543D01*
X1507Y542D02*
X1530Y542D01*
X1507Y541D02*
X1530Y541D01*
X1507Y540D02*
X1530Y540D01*
X1507Y539D02*
X1530Y539D01*
X1507Y538D02*
X1530Y538D01*
X1507Y537D02*
X1530Y537D01*
X1507Y536D02*
X1530Y536D01*
X1507Y535D02*
X1530Y535D01*
X1507Y534D02*
X1530Y534D01*
X1507Y533D02*
X1530Y533D01*
X1507Y532D02*
X1530Y532D01*
X1507Y531D02*
X1530Y531D01*
X1507Y530D02*
X1530Y530D01*
X1507Y529D02*
X1530Y529D01*
X1507Y528D02*
X1530Y528D01*
X1507Y527D02*
X1530Y527D01*
X1507Y526D02*
X1530Y526D01*
X1507Y525D02*
X1530Y525D01*
X1507Y524D02*
X1530Y524D01*
X1507Y523D02*
X1530Y523D01*
X1507Y522D02*
X1530Y522D01*
X1507Y521D02*
X1530Y521D01*
X1507Y520D02*
X1530Y520D01*
X1507Y519D02*
X1530Y519D01*
X1507Y518D02*
X1530Y518D01*
X1507Y517D02*
X1530Y517D01*
X1507Y516D02*
X1530Y516D01*
X1507Y515D02*
X1530Y515D01*
X1507Y514D02*
X1530Y514D01*
X1507Y513D02*
X1530Y513D01*
X1507Y512D02*
X1530Y512D01*
X1507Y511D02*
X1530Y511D01*
X1507Y510D02*
X1530Y510D01*
X1507Y509D02*
X1530Y509D01*
X1507Y508D02*
X1530Y508D01*
X1507Y507D02*
X1530Y507D01*
X1507Y506D02*
X1530Y506D01*
X1507Y505D02*
X1530Y505D01*
X1507Y504D02*
X1530Y504D01*
X1507Y503D02*
X1530Y503D01*
X1507Y502D02*
X1530Y502D01*
X1507Y501D02*
X1530Y501D01*
X1507Y500D02*
X1530Y500D01*
X1507Y499D02*
X1530Y499D01*
X1507Y498D02*
X1530Y498D01*
X1507Y497D02*
X1530Y497D01*
X1507Y496D02*
X1530Y496D01*
X1507Y495D02*
X1530Y495D01*
X1507Y494D02*
X1530Y494D01*
X1507Y493D02*
X1530Y493D01*
X1507Y492D02*
X1530Y492D01*
X1507Y491D02*
X1530Y491D01*
X1507Y490D02*
X1530Y490D01*
X1507Y489D02*
X1530Y489D01*
X1507Y488D02*
X1530Y488D01*
X1507Y487D02*
X1530Y487D01*
X1507Y486D02*
X1530Y486D01*
X1507Y485D02*
X1530Y485D01*
X1507Y484D02*
X1530Y484D01*
X1507Y483D02*
X1530Y483D01*
X1507Y482D02*
X1530Y482D01*
X1507Y481D02*
X1530Y481D01*
X1507Y480D02*
X1530Y480D01*
X1507Y479D02*
X1530Y479D01*
X1507Y478D02*
X1530Y478D01*
X1507Y477D02*
X1530Y477D01*
X1507Y476D02*
X1530Y476D01*
X1507Y475D02*
X1530Y475D01*
X1507Y474D02*
X1530Y474D01*
X1507Y473D02*
X1530Y473D01*
X1507Y472D02*
X1530Y472D01*
X1507Y471D02*
X1530Y471D01*
X1507Y470D02*
X1530Y470D01*
X1507Y469D02*
X1530Y469D01*
X1507Y468D02*
X1530Y468D01*
X1507Y467D02*
X1530Y467D01*
X1507Y466D02*
X1530Y466D01*
X1507Y465D02*
X1530Y465D01*
X1507Y464D02*
X1530Y464D01*
X1507Y463D02*
X1530Y463D01*
X1507Y462D02*
X1530Y462D01*
X1507Y461D02*
X1530Y461D01*
X1507Y460D02*
X1530Y460D01*
X1507Y459D02*
X1530Y459D01*
X1507Y458D02*
X1530Y458D01*
X1507Y457D02*
X1530Y457D01*
X1507Y456D02*
X1530Y456D01*
X1507Y455D02*
X1530Y455D01*
X1507Y454D02*
X1530Y454D01*
X1507Y453D02*
X1530Y453D01*
X1507Y452D02*
X1530Y452D01*
X1507Y451D02*
X1530Y451D01*
X1507Y450D02*
X1530Y450D01*
X1507Y449D02*
X1530Y449D01*
X1507Y448D02*
X1530Y448D01*
X1507Y447D02*
X1530Y447D01*
X1507Y446D02*
X1530Y446D01*
X1507Y445D02*
X1530Y445D01*
X1507Y444D02*
X1530Y444D01*
X1507Y443D02*
X1530Y443D01*
X1507Y442D02*
X1530Y442D01*
X1507Y441D02*
X1530Y441D01*
X1507Y440D02*
X1530Y440D01*
X1507Y439D02*
X1530Y439D01*
X1507Y438D02*
X1530Y438D01*
X1507Y437D02*
X1530Y437D01*
X1507Y436D02*
X1530Y436D01*
X1507Y435D02*
X1530Y435D01*
X1507Y434D02*
X1530Y434D01*
X1507Y433D02*
X1530Y433D01*
X1508Y432D02*
X1530Y432D01*
X1508Y431D02*
X1529Y431D01*
X1509Y430D02*
X1529Y430D01*
X1509Y429D02*
X1528Y429D01*
X1510Y428D02*
X1528Y428D01*
X1511Y427D02*
X1527Y427D01*
X1512Y426D02*
X1526Y426D01*
X1513Y425D02*
X1524Y425D01*
X1516Y424D02*
X1522Y424D01*
D02*
G04 End of Copper0*
M02*