G04 MADE WITH FRITZING*
G04 WWW.FRITZING.ORG*
G04 DOUBLE SIDED*
G04 HOLES PLATED*
G04 CONTOUR ON CENTER OF CONTOUR VECTOR*
%ASAXBY*%
%FSLAX23Y23*%
%MOIN*%
%OFA0B0*%
%SFA1.0B1.0*%
%ADD10C,0.062000*%
%ADD11C,0.085000*%
%ADD12C,0.080000*%
%ADD13C,0.080866*%
%ADD14C,0.049370*%
%ADD15R,0.085000X0.085000*%
%ADD16R,0.001000X0.001000*%
%LNMASK1*%
G90*
G70*
G54D10*
X4118Y2435D03*
X4118Y2335D03*
X4118Y2235D03*
X4118Y2135D03*
X4118Y2035D03*
X4118Y1935D03*
X4118Y1835D03*
X4118Y1735D03*
X4418Y1735D03*
X4418Y1835D03*
X4418Y1935D03*
X4418Y2035D03*
X4418Y2135D03*
X4418Y2235D03*
X4418Y2335D03*
X4418Y2435D03*
X4118Y2435D03*
X4118Y2335D03*
X4118Y2235D03*
X4118Y2135D03*
X4118Y2035D03*
X4118Y1935D03*
X4118Y1835D03*
X4118Y1735D03*
X4418Y1735D03*
X4418Y1835D03*
X4418Y1935D03*
X4418Y2035D03*
X4418Y2135D03*
X4418Y2235D03*
X4418Y2335D03*
X4418Y2435D03*
X4118Y3735D03*
X4118Y3635D03*
X4118Y3535D03*
X4118Y3435D03*
X4118Y3335D03*
X4118Y3235D03*
X4118Y3135D03*
X4118Y3035D03*
X4418Y3035D03*
X4418Y3135D03*
X4418Y3235D03*
X4418Y3335D03*
X4418Y3435D03*
X4418Y3535D03*
X4418Y3635D03*
X4418Y3735D03*
X4118Y3735D03*
X4118Y3635D03*
X4118Y3535D03*
X4118Y3435D03*
X4118Y3335D03*
X4118Y3235D03*
X4118Y3135D03*
X4118Y3035D03*
X4418Y3035D03*
X4418Y3135D03*
X4418Y3235D03*
X4418Y3335D03*
X4418Y3435D03*
X4418Y3535D03*
X4418Y3635D03*
X4418Y3735D03*
X4118Y4835D03*
X4118Y4735D03*
X4118Y4635D03*
X4118Y4535D03*
X4118Y4435D03*
X4118Y4335D03*
X4118Y4235D03*
X4118Y4135D03*
X4418Y4135D03*
X4418Y4235D03*
X4418Y4335D03*
X4418Y4435D03*
X4418Y4535D03*
X4418Y4635D03*
X4418Y4735D03*
X4418Y4835D03*
X4118Y4835D03*
X4118Y4735D03*
X4118Y4635D03*
X4118Y4535D03*
X4118Y4435D03*
X4118Y4335D03*
X4118Y4235D03*
X4118Y4135D03*
X4418Y4135D03*
X4418Y4235D03*
X4418Y4335D03*
X4418Y4435D03*
X4418Y4535D03*
X4418Y4635D03*
X4418Y4735D03*
X4418Y4835D03*
X4118Y5835D03*
X4118Y5735D03*
X4118Y5635D03*
X4118Y5535D03*
X4118Y5435D03*
X4118Y5335D03*
X4118Y5235D03*
X4118Y5135D03*
X4418Y5135D03*
X4418Y5235D03*
X4418Y5335D03*
X4418Y5435D03*
X4418Y5535D03*
X4418Y5635D03*
X4418Y5735D03*
X4418Y5835D03*
X4118Y5835D03*
X4118Y5735D03*
X4118Y5635D03*
X4118Y5535D03*
X4118Y5435D03*
X4118Y5335D03*
X4118Y5235D03*
X4118Y5135D03*
X4418Y5135D03*
X4418Y5235D03*
X4418Y5335D03*
X4418Y5435D03*
X4418Y5535D03*
X4418Y5635D03*
X4418Y5735D03*
X4418Y5835D03*
G54D11*
X2418Y2535D03*
X2718Y2535D03*
X2418Y2435D03*
X2718Y2435D03*
X2418Y2335D03*
X2718Y2335D03*
X2418Y2235D03*
X2718Y2235D03*
X2418Y2135D03*
X2718Y2135D03*
X2418Y2035D03*
X2718Y2035D03*
X2418Y1935D03*
X2718Y1935D03*
X5518Y1535D03*
X5818Y1535D03*
X5518Y1435D03*
X5818Y1435D03*
X5518Y1335D03*
X5818Y1335D03*
X5518Y1235D03*
X5818Y1235D03*
X5518Y1135D03*
X5818Y1135D03*
X5518Y1035D03*
X5818Y1035D03*
X5518Y935D03*
X5818Y935D03*
X5518Y2935D03*
X5818Y2935D03*
X5518Y2835D03*
X5818Y2835D03*
X5518Y2735D03*
X5818Y2735D03*
X5518Y2635D03*
X5818Y2635D03*
X5518Y2535D03*
X5818Y2535D03*
X5518Y2435D03*
X5818Y2435D03*
X5518Y2335D03*
X5818Y2335D03*
X5518Y4435D03*
X5818Y4435D03*
X5518Y4335D03*
X5818Y4335D03*
X5518Y4235D03*
X5818Y4235D03*
X5518Y4135D03*
X5818Y4135D03*
X5518Y4035D03*
X5818Y4035D03*
X5518Y3935D03*
X5818Y3935D03*
X5518Y3835D03*
X5818Y3835D03*
X5518Y6135D03*
X5818Y6135D03*
X5518Y6035D03*
X5818Y6035D03*
X5518Y5935D03*
X5818Y5935D03*
X5518Y5835D03*
X5818Y5835D03*
X5518Y5735D03*
X5818Y5735D03*
X5518Y5635D03*
X5818Y5635D03*
X5518Y5535D03*
X5818Y5535D03*
X2418Y1235D03*
X2718Y1235D03*
X2418Y1135D03*
X2718Y1135D03*
X2418Y1035D03*
X2718Y1035D03*
X2418Y935D03*
X2718Y935D03*
X2418Y835D03*
X2718Y835D03*
X2418Y735D03*
X2718Y735D03*
X2418Y635D03*
X2718Y635D03*
X2418Y4235D03*
X2718Y4235D03*
X2418Y4135D03*
X2718Y4135D03*
X2418Y4035D03*
X2718Y4035D03*
X2418Y3935D03*
X2718Y3935D03*
X2418Y3835D03*
X2718Y3835D03*
X2418Y3735D03*
X2718Y3735D03*
X2418Y3635D03*
X2718Y3635D03*
X2418Y6135D03*
X2718Y6135D03*
X2418Y6035D03*
X2718Y6035D03*
X2418Y5935D03*
X2718Y5935D03*
X2418Y5835D03*
X2718Y5835D03*
X2418Y5735D03*
X2718Y5735D03*
X2418Y5635D03*
X2718Y5635D03*
X2418Y5535D03*
X2718Y5535D03*
G54D12*
X6518Y6435D03*
X6618Y6435D03*
X6518Y6235D03*
X6618Y6235D03*
X6518Y6035D03*
X6618Y6035D03*
X6518Y5835D03*
X6618Y5835D03*
X6518Y5635D03*
X6618Y5635D03*
X6518Y5435D03*
X6618Y5435D03*
X6518Y5035D03*
X6618Y5035D03*
X6518Y4835D03*
X6618Y4835D03*
X6518Y4635D03*
X6618Y4635D03*
X6518Y4435D03*
X6618Y4435D03*
X6518Y4235D03*
X6618Y4235D03*
X6518Y4035D03*
X6618Y4035D03*
X6518Y735D03*
X6618Y735D03*
X6518Y935D03*
X6618Y935D03*
X6518Y1135D03*
X6618Y1135D03*
X6518Y1335D03*
X6618Y1335D03*
X6518Y1535D03*
X6618Y1535D03*
X6518Y1735D03*
X6618Y1735D03*
X6518Y1935D03*
X6618Y1935D03*
X6518Y2135D03*
X6618Y2135D03*
X6518Y2835D03*
X6618Y2835D03*
X6518Y3035D03*
X6618Y3035D03*
X6518Y3235D03*
X6618Y3235D03*
X6518Y3435D03*
X6618Y3435D03*
X1418Y6435D03*
X1518Y6435D03*
X1418Y6235D03*
X1518Y6235D03*
X1418Y3635D03*
X1518Y3635D03*
X1418Y6035D03*
X1518Y6035D03*
X1418Y5835D03*
X1518Y5835D03*
X1418Y5635D03*
X1518Y5635D03*
X1418Y5435D03*
X1518Y5435D03*
X1418Y4635D03*
X1518Y4635D03*
X1418Y4435D03*
X1518Y4435D03*
X1418Y4235D03*
X1518Y4235D03*
X1418Y4035D03*
X1518Y4035D03*
X1418Y3835D03*
X1518Y3835D03*
X1418Y2835D03*
X1518Y2835D03*
X1418Y2635D03*
X1518Y2635D03*
X1418Y2435D03*
X1518Y2435D03*
X1418Y2235D03*
X1518Y2235D03*
X1418Y1835D03*
X1518Y1835D03*
X1418Y1635D03*
X1518Y1635D03*
X1418Y1435D03*
X1518Y1435D03*
X1418Y1235D03*
X1519Y1235D03*
X1418Y1035D03*
X1518Y1035D03*
X1418Y835D03*
X1518Y835D03*
X1418Y635D03*
X1518Y635D03*
X1418Y435D03*
X1518Y435D03*
G54D11*
X818Y435D03*
X1218Y435D03*
X218Y435D03*
X618Y435D03*
X218Y635D03*
X618Y635D03*
X218Y835D03*
X618Y835D03*
X218Y1035D03*
X618Y1035D03*
X219Y1235D03*
X619Y1235D03*
X218Y1435D03*
X618Y1435D03*
X218Y1635D03*
X618Y1635D03*
X218Y1835D03*
X618Y1835D03*
X218Y2235D03*
X618Y2235D03*
X218Y2435D03*
X618Y2435D03*
X218Y2635D03*
X618Y2635D03*
X218Y2835D03*
X618Y2835D03*
X218Y3635D03*
X618Y3635D03*
X218Y3835D03*
X618Y3835D03*
X218Y4035D03*
X618Y4035D03*
X218Y4235D03*
X618Y4235D03*
X218Y4435D03*
X618Y4435D03*
X218Y4635D03*
X618Y4635D03*
X218Y5435D03*
X618Y5435D03*
X218Y5635D03*
X618Y5635D03*
X218Y5835D03*
X618Y5835D03*
X218Y6035D03*
X618Y6035D03*
X218Y6235D03*
X618Y6235D03*
X218Y6435D03*
X618Y6435D03*
X7418Y735D03*
X7818Y735D03*
X7418Y935D03*
X7818Y935D03*
X7418Y1135D03*
X7818Y1135D03*
X7418Y1335D03*
X7818Y1335D03*
X7418Y1535D03*
X7818Y1535D03*
X7418Y1735D03*
X7818Y1735D03*
X7418Y1935D03*
X7818Y1935D03*
X7418Y2135D03*
X7818Y2135D03*
X7418Y2835D03*
X7818Y2835D03*
X7418Y3035D03*
X7818Y3035D03*
X7418Y3235D03*
X7818Y3235D03*
X7418Y3435D03*
X7818Y3435D03*
X7418Y4035D03*
X7818Y4035D03*
X7418Y4235D03*
X7818Y4235D03*
X7418Y4435D03*
X7818Y4435D03*
X7418Y4635D03*
X7818Y4635D03*
X7418Y4835D03*
X7818Y4835D03*
X7418Y5035D03*
X7818Y5035D03*
X7418Y5435D03*
X7818Y5435D03*
X7418Y5635D03*
X7818Y5635D03*
X7418Y5835D03*
X7818Y5835D03*
X7418Y6035D03*
X7818Y6035D03*
X7418Y6235D03*
X7818Y6235D03*
X7418Y6435D03*
X7818Y6435D03*
X818Y635D03*
X1218Y635D03*
X818Y835D03*
X1218Y835D03*
X818Y1035D03*
X1218Y1035D03*
X819Y1235D03*
X1219Y1235D03*
X818Y1435D03*
X1218Y1435D03*
X818Y1635D03*
X1218Y1635D03*
X818Y1835D03*
X1218Y1835D03*
X818Y2235D03*
X1218Y2235D03*
X818Y2435D03*
X1218Y2435D03*
X818Y2635D03*
X1218Y2635D03*
X818Y2835D03*
X1218Y2835D03*
X818Y3635D03*
X1218Y3635D03*
X818Y3835D03*
X1218Y3835D03*
X818Y4035D03*
X1218Y4035D03*
X818Y4235D03*
X1218Y4235D03*
X818Y4435D03*
X1218Y4435D03*
X818Y4635D03*
X1218Y4635D03*
X818Y5435D03*
X1218Y5435D03*
X818Y5635D03*
X1218Y5635D03*
X818Y5835D03*
X1218Y5835D03*
X818Y6035D03*
X1218Y6035D03*
X818Y6235D03*
X1218Y6235D03*
X818Y6435D03*
X1218Y6435D03*
X6818Y735D03*
X7218Y735D03*
X6818Y935D03*
X7218Y935D03*
X6818Y1135D03*
X7218Y1135D03*
X6818Y1335D03*
X7218Y1335D03*
X6818Y1535D03*
X7218Y1535D03*
X6818Y1735D03*
X7218Y1735D03*
X6818Y1935D03*
X7218Y1935D03*
X6818Y2135D03*
X7218Y2135D03*
X6818Y2835D03*
X7218Y2835D03*
X6818Y3035D03*
X7218Y3035D03*
X6818Y3235D03*
X7218Y3235D03*
X6818Y3435D03*
X7218Y3435D03*
X6818Y4035D03*
X7218Y4035D03*
X6818Y4235D03*
X7218Y4235D03*
X6818Y4435D03*
X7218Y4435D03*
X6818Y4635D03*
X7218Y4635D03*
X6818Y4835D03*
X7218Y4835D03*
X6818Y5035D03*
X7218Y5035D03*
X6818Y5435D03*
X7218Y5435D03*
X6818Y5635D03*
X7218Y5635D03*
X6818Y5835D03*
X7218Y5835D03*
X6818Y6035D03*
X7218Y6035D03*
X6818Y6235D03*
X7218Y6235D03*
X6818Y6435D03*
X7218Y6435D03*
G54D13*
X3018Y1035D03*
X3018Y835D03*
X3018Y635D03*
X2118Y735D03*
X2118Y935D03*
X2118Y1135D03*
X4318Y5735D03*
X4218Y5235D03*
X4318Y4735D03*
X4218Y4235D03*
X4318Y3635D03*
X4218Y3135D03*
X4318Y2335D03*
X4518Y1835D03*
X4218Y1835D03*
X3018Y1935D03*
X3018Y2135D03*
X5118Y2635D03*
X6218Y935D03*
X6218Y1135D03*
X6218Y1335D03*
X5218Y1035D03*
X5218Y1235D03*
X5218Y1435D03*
X5118Y2435D03*
X5018Y6735D03*
X3818Y6735D03*
X3418Y6735D03*
X1318Y335D03*
X1318Y535D03*
X1318Y735D03*
X1318Y935D03*
X1318Y1135D03*
X1318Y1335D03*
X1318Y1535D03*
X1318Y1735D03*
X1318Y2335D03*
X1318Y2535D03*
X1318Y2735D03*
X1318Y2935D03*
X1318Y3535D03*
X1318Y3735D03*
X1318Y3935D03*
X1318Y4135D03*
X1318Y4335D03*
X1318Y4535D03*
X1318Y5535D03*
X1318Y5735D03*
X1318Y5935D03*
X1318Y6135D03*
X1318Y6335D03*
X1318Y6535D03*
X6718Y635D03*
X6718Y835D03*
X6718Y1035D03*
X6718Y1235D03*
X6718Y1435D03*
X6718Y1635D03*
X6718Y1835D03*
X6718Y2035D03*
X6718Y2735D03*
X6718Y2935D03*
X6718Y3135D03*
X6718Y3335D03*
X6718Y3935D03*
X6718Y4135D03*
X6718Y4335D03*
X6718Y4535D03*
X6718Y4735D03*
X6718Y4935D03*
X6718Y5535D03*
X6718Y5735D03*
X6718Y5935D03*
X6718Y6135D03*
X6718Y6335D03*
X6718Y6535D03*
X1318Y5035D03*
X4018Y935D03*
X6118Y6835D03*
X718Y335D03*
X718Y535D03*
X718Y735D03*
X718Y935D03*
X718Y1135D03*
X718Y1335D03*
X718Y1535D03*
X718Y1735D03*
X718Y2335D03*
X718Y2535D03*
X718Y2735D03*
X718Y2935D03*
X718Y3535D03*
X718Y3735D03*
X718Y3935D03*
X718Y4135D03*
X718Y4335D03*
X718Y4535D03*
X718Y5535D03*
X718Y5735D03*
X718Y5935D03*
X718Y6135D03*
X718Y6335D03*
X718Y6535D03*
X7318Y635D03*
X7318Y835D03*
X7318Y1035D03*
X7318Y1235D03*
X7318Y1435D03*
X7318Y1635D03*
X7318Y1835D03*
X7318Y2035D03*
X7318Y2735D03*
X7318Y2935D03*
X7318Y3135D03*
X7318Y3335D03*
X7318Y3935D03*
X7318Y4135D03*
X7318Y4335D03*
X7318Y4535D03*
X7318Y4735D03*
X7318Y4935D03*
X7318Y5535D03*
X7318Y5735D03*
X7318Y5935D03*
X7318Y6135D03*
X7318Y6335D03*
X7318Y6535D03*
G54D14*
X5318Y6235D03*
X5218Y5935D03*
X6218Y5735D03*
X4618Y5035D03*
X6218Y5135D03*
X5318Y5135D03*
X5918Y4935D03*
X5218Y4935D03*
X4718Y4935D03*
X4718Y5135D03*
X5818Y4735D03*
X5318Y4732D03*
X5218Y4435D03*
X4918Y4435D03*
X5120Y4335D03*
X4718Y4435D03*
X4618Y4335D03*
X4916Y4335D03*
X6018Y5335D03*
X4718Y3035D03*
X4718Y4235D03*
X6218Y4035D03*
X6218Y3635D03*
X6018Y3535D03*
X6016Y2535D03*
X6016Y2137D03*
X5118Y2035D03*
X5919Y2234D03*
X6320Y2734D03*
X6016Y3237D03*
X6320Y3237D03*
X5318Y1935D03*
X5318Y2735D03*
X5218Y2535D03*
X5218Y1835D03*
X5118Y2235D03*
X5018Y2135D03*
X5118Y2835D03*
X4618Y2835D03*
X6418Y1735D03*
X6417Y1436D03*
X6417Y1235D03*
X5118Y735D03*
X3518Y5635D03*
X3518Y5435D03*
X3618Y5535D03*
X2218Y6035D03*
X2218Y5335D03*
X3318Y5335D03*
X3618Y5335D03*
X2118Y4635D03*
X2017Y4533D03*
X3518Y4535D03*
X3618Y4635D03*
X2018Y5835D03*
X2018Y5335D03*
X1718Y4835D03*
X2418Y4835D03*
X1918Y4835D03*
X2218Y4335D03*
X3618Y4435D03*
X3518Y4435D03*
X2218Y3535D03*
X3518Y3035D03*
X2218Y3035D03*
X3318Y3035D03*
X3718Y3335D03*
X3318Y3135D03*
X3118Y3835D03*
X3618Y3435D03*
X3718Y3535D03*
X3218Y4035D03*
X1918Y2035D03*
X1918Y1535D03*
X2118Y1935D03*
X3118Y1735D03*
X3718Y1735D03*
X1818Y2335D03*
X2818Y2635D03*
X1818Y2835D03*
X2518Y2833D03*
X2415Y2937D03*
X3918Y1935D03*
X3118Y2335D03*
X1818Y1735D03*
X1818Y1435D03*
X2319Y1435D03*
X3118Y2035D03*
X3818Y3735D03*
X3818Y2435D03*
X3120Y3435D03*
X3217Y3334D03*
X3317Y3234D03*
X2918Y3433D03*
X2918Y3335D03*
X2918Y3235D03*
X5218Y6335D03*
X3118Y1835D03*
X2320Y1837D03*
X3818Y4835D03*
G54D15*
X2418Y2535D03*
X5518Y1535D03*
X5518Y2935D03*
X5518Y4435D03*
X5518Y6135D03*
X2418Y1235D03*
X2418Y4235D03*
X2418Y6135D03*
G54D16*
X4092Y5866D02*
X4145Y5866D01*
X4392Y5866D02*
X4445Y5866D01*
X4085Y5865D02*
X4152Y5865D01*
X4385Y5865D02*
X4452Y5865D01*
X4082Y5864D02*
X4155Y5864D01*
X4382Y5864D02*
X4455Y5864D01*
X4080Y5863D02*
X4157Y5863D01*
X4380Y5863D02*
X4457Y5863D01*
X4078Y5862D02*
X4159Y5862D01*
X4378Y5862D02*
X4459Y5862D01*
X4076Y5861D02*
X4161Y5861D01*
X4376Y5861D02*
X4461Y5861D01*
X4075Y5860D02*
X4162Y5860D01*
X4375Y5860D02*
X4462Y5860D01*
X4073Y5859D02*
X4164Y5859D01*
X4373Y5859D02*
X4464Y5859D01*
X4072Y5858D02*
X4165Y5858D01*
X4372Y5858D02*
X4465Y5858D01*
X4071Y5857D02*
X4166Y5857D01*
X4371Y5857D02*
X4466Y5857D01*
X4070Y5856D02*
X4167Y5856D01*
X4370Y5856D02*
X4467Y5856D01*
X4069Y5855D02*
X4168Y5855D01*
X4369Y5855D02*
X4468Y5855D01*
X4069Y5854D02*
X4169Y5854D01*
X4369Y5854D02*
X4469Y5854D01*
X4068Y5853D02*
X4169Y5853D01*
X4368Y5853D02*
X4469Y5853D01*
X4067Y5852D02*
X4170Y5852D01*
X4367Y5852D02*
X4470Y5852D01*
X4067Y5851D02*
X4171Y5851D01*
X4367Y5851D02*
X4471Y5851D01*
X4066Y5850D02*
X4171Y5850D01*
X4366Y5850D02*
X4471Y5850D01*
X4065Y5849D02*
X4172Y5849D01*
X4365Y5849D02*
X4472Y5849D01*
X4065Y5848D02*
X4172Y5848D01*
X4365Y5848D02*
X4472Y5848D01*
X4065Y5847D02*
X4173Y5847D01*
X4365Y5847D02*
X4473Y5847D01*
X4064Y5846D02*
X4117Y5846D01*
X4120Y5846D02*
X4173Y5846D01*
X4364Y5846D02*
X4417Y5846D01*
X4420Y5846D02*
X4473Y5846D01*
X4064Y5845D02*
X4113Y5845D01*
X4124Y5845D02*
X4173Y5845D01*
X4364Y5845D02*
X4413Y5845D01*
X4424Y5845D02*
X4473Y5845D01*
X4063Y5844D02*
X4112Y5844D01*
X4125Y5844D02*
X4174Y5844D01*
X4363Y5844D02*
X4412Y5844D01*
X4425Y5844D02*
X4474Y5844D01*
X4063Y5843D02*
X4110Y5843D01*
X4127Y5843D02*
X4174Y5843D01*
X4363Y5843D02*
X4410Y5843D01*
X4427Y5843D02*
X4474Y5843D01*
X4063Y5842D02*
X4110Y5842D01*
X4128Y5842D02*
X4174Y5842D01*
X4363Y5842D02*
X4410Y5842D01*
X4428Y5842D02*
X4474Y5842D01*
X4063Y5841D02*
X4109Y5841D01*
X4128Y5841D02*
X4174Y5841D01*
X4363Y5841D02*
X4409Y5841D01*
X4428Y5841D02*
X4474Y5841D01*
X4063Y5840D02*
X4108Y5840D01*
X4129Y5840D02*
X4175Y5840D01*
X4363Y5840D02*
X4408Y5840D01*
X4429Y5840D02*
X4475Y5840D01*
X4062Y5839D02*
X4108Y5839D01*
X4129Y5839D02*
X4175Y5839D01*
X4362Y5839D02*
X4408Y5839D01*
X4429Y5839D02*
X4475Y5839D01*
X4062Y5838D02*
X4107Y5838D01*
X4130Y5838D02*
X4175Y5838D01*
X4362Y5838D02*
X4407Y5838D01*
X4430Y5838D02*
X4475Y5838D01*
X4062Y5837D02*
X4107Y5837D01*
X4130Y5837D02*
X4175Y5837D01*
X4362Y5837D02*
X4407Y5837D01*
X4430Y5837D02*
X4475Y5837D01*
X4062Y5836D02*
X4107Y5836D01*
X4130Y5836D02*
X4175Y5836D01*
X4362Y5836D02*
X4407Y5836D01*
X4430Y5836D02*
X4475Y5836D01*
X4062Y5835D02*
X4107Y5835D01*
X4130Y5835D02*
X4175Y5835D01*
X4362Y5835D02*
X4407Y5835D01*
X4430Y5835D02*
X4475Y5835D01*
X4062Y5834D02*
X4107Y5834D01*
X4130Y5834D02*
X4175Y5834D01*
X4362Y5834D02*
X4407Y5834D01*
X4430Y5834D02*
X4475Y5834D01*
X4062Y5833D02*
X4107Y5833D01*
X4130Y5833D02*
X4175Y5833D01*
X4362Y5833D02*
X4407Y5833D01*
X4430Y5833D02*
X4475Y5833D01*
X4062Y5832D02*
X4107Y5832D01*
X4130Y5832D02*
X4175Y5832D01*
X4362Y5832D02*
X4407Y5832D01*
X4430Y5832D02*
X4475Y5832D01*
X4062Y5831D02*
X4108Y5831D01*
X4129Y5831D02*
X4175Y5831D01*
X4362Y5831D02*
X4408Y5831D01*
X4429Y5831D02*
X4475Y5831D01*
X4063Y5830D02*
X4108Y5830D01*
X4129Y5830D02*
X4175Y5830D01*
X4363Y5830D02*
X4408Y5830D01*
X4429Y5830D02*
X4475Y5830D01*
X4063Y5829D02*
X4109Y5829D01*
X4128Y5829D02*
X4174Y5829D01*
X4363Y5829D02*
X4409Y5829D01*
X4428Y5829D02*
X4474Y5829D01*
X4063Y5828D02*
X4110Y5828D01*
X4127Y5828D02*
X4174Y5828D01*
X4363Y5828D02*
X4410Y5828D01*
X4427Y5828D02*
X4474Y5828D01*
X4063Y5827D02*
X4111Y5827D01*
X4126Y5827D02*
X4174Y5827D01*
X4363Y5827D02*
X4411Y5827D01*
X4426Y5827D02*
X4474Y5827D01*
X4064Y5826D02*
X4112Y5826D01*
X4125Y5826D02*
X4174Y5826D01*
X4363Y5826D02*
X4412Y5826D01*
X4425Y5826D02*
X4474Y5826D01*
X4064Y5825D02*
X4114Y5825D01*
X4124Y5825D02*
X4173Y5825D01*
X4364Y5825D02*
X4413Y5825D01*
X4424Y5825D02*
X4473Y5825D01*
X4064Y5824D02*
X4173Y5824D01*
X4364Y5824D02*
X4473Y5824D01*
X4065Y5823D02*
X4173Y5823D01*
X4365Y5823D02*
X4472Y5823D01*
X4065Y5822D02*
X4172Y5822D01*
X4365Y5822D02*
X4472Y5822D01*
X4066Y5821D02*
X4172Y5821D01*
X4366Y5821D02*
X4472Y5821D01*
X4066Y5820D02*
X4171Y5820D01*
X4366Y5820D02*
X4471Y5820D01*
X4067Y5819D02*
X4170Y5819D01*
X4367Y5819D02*
X4470Y5819D01*
X4067Y5818D02*
X4170Y5818D01*
X4367Y5818D02*
X4470Y5818D01*
X4068Y5817D02*
X4169Y5817D01*
X4368Y5817D02*
X4469Y5817D01*
X4069Y5816D02*
X4168Y5816D01*
X4369Y5816D02*
X4468Y5816D01*
X4069Y5815D02*
X4168Y5815D01*
X4369Y5815D02*
X4468Y5815D01*
X4070Y5814D02*
X4167Y5814D01*
X4370Y5814D02*
X4467Y5814D01*
X4071Y5813D02*
X4166Y5813D01*
X4371Y5813D02*
X4466Y5813D01*
X4072Y5812D02*
X4165Y5812D01*
X4372Y5812D02*
X4465Y5812D01*
X4074Y5811D02*
X4164Y5811D01*
X4374Y5811D02*
X4464Y5811D01*
X4075Y5810D02*
X4162Y5810D01*
X4375Y5810D02*
X4462Y5810D01*
X4076Y5809D02*
X4161Y5809D01*
X4376Y5809D02*
X4461Y5809D01*
X4078Y5808D02*
X4159Y5808D01*
X4378Y5808D02*
X4459Y5808D01*
X4080Y5807D02*
X4157Y5807D01*
X4380Y5807D02*
X4457Y5807D01*
X4083Y5806D02*
X4154Y5806D01*
X4383Y5806D02*
X4454Y5806D01*
X4086Y5805D02*
X4151Y5805D01*
X4386Y5805D02*
X4451Y5805D01*
X4092Y5766D02*
X4146Y5766D01*
X4392Y5766D02*
X4446Y5766D01*
X4085Y5765D02*
X4152Y5765D01*
X4385Y5765D02*
X4452Y5765D01*
X4082Y5764D02*
X4155Y5764D01*
X4382Y5764D02*
X4455Y5764D01*
X4080Y5763D02*
X4157Y5763D01*
X4380Y5763D02*
X4457Y5763D01*
X4078Y5762D02*
X4159Y5762D01*
X4378Y5762D02*
X4459Y5762D01*
X4076Y5761D02*
X4161Y5761D01*
X4376Y5761D02*
X4461Y5761D01*
X4075Y5760D02*
X4162Y5760D01*
X4375Y5760D02*
X4462Y5760D01*
X4073Y5759D02*
X4164Y5759D01*
X4373Y5759D02*
X4464Y5759D01*
X4072Y5758D02*
X4165Y5758D01*
X4372Y5758D02*
X4465Y5758D01*
X4071Y5757D02*
X4166Y5757D01*
X4371Y5757D02*
X4466Y5757D01*
X4070Y5756D02*
X4167Y5756D01*
X4370Y5756D02*
X4467Y5756D01*
X4069Y5755D02*
X4168Y5755D01*
X4369Y5755D02*
X4468Y5755D01*
X4069Y5754D02*
X4169Y5754D01*
X4369Y5754D02*
X4469Y5754D01*
X4068Y5753D02*
X4169Y5753D01*
X4368Y5753D02*
X4469Y5753D01*
X4067Y5752D02*
X4170Y5752D01*
X4367Y5752D02*
X4470Y5752D01*
X4067Y5751D02*
X4171Y5751D01*
X4367Y5751D02*
X4471Y5751D01*
X4066Y5750D02*
X4171Y5750D01*
X4366Y5750D02*
X4471Y5750D01*
X4065Y5749D02*
X4172Y5749D01*
X4365Y5749D02*
X4472Y5749D01*
X4065Y5748D02*
X4172Y5748D01*
X4365Y5748D02*
X4472Y5748D01*
X4065Y5747D02*
X4173Y5747D01*
X4365Y5747D02*
X4473Y5747D01*
X4064Y5746D02*
X4117Y5746D01*
X4120Y5746D02*
X4173Y5746D01*
X4364Y5746D02*
X4417Y5746D01*
X4420Y5746D02*
X4473Y5746D01*
X4064Y5745D02*
X4113Y5745D01*
X4124Y5745D02*
X4173Y5745D01*
X4364Y5745D02*
X4413Y5745D01*
X4424Y5745D02*
X4473Y5745D01*
X4063Y5744D02*
X4112Y5744D01*
X4125Y5744D02*
X4174Y5744D01*
X4363Y5744D02*
X4412Y5744D01*
X4425Y5744D02*
X4474Y5744D01*
X4063Y5743D02*
X4110Y5743D01*
X4127Y5743D02*
X4174Y5743D01*
X4363Y5743D02*
X4410Y5743D01*
X4427Y5743D02*
X4474Y5743D01*
X4063Y5742D02*
X4110Y5742D01*
X4128Y5742D02*
X4174Y5742D01*
X4363Y5742D02*
X4410Y5742D01*
X4428Y5742D02*
X4474Y5742D01*
X4063Y5741D02*
X4109Y5741D01*
X4128Y5741D02*
X4174Y5741D01*
X4363Y5741D02*
X4409Y5741D01*
X4428Y5741D02*
X4474Y5741D01*
X4063Y5740D02*
X4108Y5740D01*
X4129Y5740D02*
X4175Y5740D01*
X4363Y5740D02*
X4408Y5740D01*
X4429Y5740D02*
X4475Y5740D01*
X4062Y5739D02*
X4108Y5739D01*
X4129Y5739D02*
X4175Y5739D01*
X4362Y5739D02*
X4408Y5739D01*
X4429Y5739D02*
X4475Y5739D01*
X4062Y5738D02*
X4107Y5738D01*
X4130Y5738D02*
X4175Y5738D01*
X4362Y5738D02*
X4407Y5738D01*
X4430Y5738D02*
X4475Y5738D01*
X4062Y5737D02*
X4107Y5737D01*
X4130Y5737D02*
X4175Y5737D01*
X4362Y5737D02*
X4407Y5737D01*
X4430Y5737D02*
X4475Y5737D01*
X4062Y5736D02*
X4107Y5736D01*
X4130Y5736D02*
X4175Y5736D01*
X4362Y5736D02*
X4407Y5736D01*
X4430Y5736D02*
X4475Y5736D01*
X4062Y5735D02*
X4107Y5735D01*
X4130Y5735D02*
X4175Y5735D01*
X4362Y5735D02*
X4407Y5735D01*
X4430Y5735D02*
X4475Y5735D01*
X4062Y5734D02*
X4107Y5734D01*
X4130Y5734D02*
X4175Y5734D01*
X4362Y5734D02*
X4407Y5734D01*
X4430Y5734D02*
X4475Y5734D01*
X4062Y5733D02*
X4107Y5733D01*
X4130Y5733D02*
X4175Y5733D01*
X4362Y5733D02*
X4407Y5733D01*
X4430Y5733D02*
X4475Y5733D01*
X4062Y5732D02*
X4107Y5732D01*
X4130Y5732D02*
X4175Y5732D01*
X4362Y5732D02*
X4407Y5732D01*
X4430Y5732D02*
X4475Y5732D01*
X4062Y5731D02*
X4108Y5731D01*
X4129Y5731D02*
X4175Y5731D01*
X4362Y5731D02*
X4408Y5731D01*
X4429Y5731D02*
X4475Y5731D01*
X4063Y5730D02*
X4108Y5730D01*
X4129Y5730D02*
X4175Y5730D01*
X4363Y5730D02*
X4408Y5730D01*
X4429Y5730D02*
X4475Y5730D01*
X4063Y5729D02*
X4109Y5729D01*
X4128Y5729D02*
X4174Y5729D01*
X4363Y5729D02*
X4409Y5729D01*
X4428Y5729D02*
X4474Y5729D01*
X4063Y5728D02*
X4110Y5728D01*
X4127Y5728D02*
X4174Y5728D01*
X4363Y5728D02*
X4410Y5728D01*
X4427Y5728D02*
X4474Y5728D01*
X4063Y5727D02*
X4111Y5727D01*
X4126Y5727D02*
X4174Y5727D01*
X4363Y5727D02*
X4411Y5727D01*
X4426Y5727D02*
X4474Y5727D01*
X4064Y5726D02*
X4112Y5726D01*
X4125Y5726D02*
X4174Y5726D01*
X4363Y5726D02*
X4412Y5726D01*
X4425Y5726D02*
X4474Y5726D01*
X4064Y5725D02*
X4114Y5725D01*
X4124Y5725D02*
X4173Y5725D01*
X4364Y5725D02*
X4413Y5725D01*
X4424Y5725D02*
X4473Y5725D01*
X4064Y5724D02*
X4173Y5724D01*
X4364Y5724D02*
X4473Y5724D01*
X4065Y5723D02*
X4173Y5723D01*
X4365Y5723D02*
X4472Y5723D01*
X4065Y5722D02*
X4172Y5722D01*
X4365Y5722D02*
X4472Y5722D01*
X4066Y5721D02*
X4172Y5721D01*
X4366Y5721D02*
X4472Y5721D01*
X4066Y5720D02*
X4171Y5720D01*
X4366Y5720D02*
X4471Y5720D01*
X4067Y5719D02*
X4170Y5719D01*
X4367Y5719D02*
X4470Y5719D01*
X4067Y5718D02*
X4170Y5718D01*
X4367Y5718D02*
X4470Y5718D01*
X4068Y5717D02*
X4169Y5717D01*
X4368Y5717D02*
X4469Y5717D01*
X4069Y5716D02*
X4168Y5716D01*
X4369Y5716D02*
X4468Y5716D01*
X4069Y5715D02*
X4168Y5715D01*
X4369Y5715D02*
X4468Y5715D01*
X4070Y5714D02*
X4167Y5714D01*
X4370Y5714D02*
X4467Y5714D01*
X4071Y5713D02*
X4166Y5713D01*
X4371Y5713D02*
X4466Y5713D01*
X4072Y5712D02*
X4165Y5712D01*
X4372Y5712D02*
X4465Y5712D01*
X4074Y5711D02*
X4164Y5711D01*
X4374Y5711D02*
X4464Y5711D01*
X4075Y5710D02*
X4162Y5710D01*
X4375Y5710D02*
X4462Y5710D01*
X4076Y5709D02*
X4161Y5709D01*
X4376Y5709D02*
X4461Y5709D01*
X4078Y5708D02*
X4159Y5708D01*
X4378Y5708D02*
X4459Y5708D01*
X4080Y5707D02*
X4157Y5707D01*
X4380Y5707D02*
X4457Y5707D01*
X4083Y5706D02*
X4154Y5706D01*
X4383Y5706D02*
X4454Y5706D01*
X4086Y5705D02*
X4151Y5705D01*
X4386Y5705D02*
X4451Y5705D01*
X4092Y5666D02*
X4146Y5666D01*
X4392Y5666D02*
X4446Y5666D01*
X4085Y5665D02*
X4152Y5665D01*
X4385Y5665D02*
X4452Y5665D01*
X4082Y5664D02*
X4155Y5664D01*
X4382Y5664D02*
X4455Y5664D01*
X4080Y5663D02*
X4157Y5663D01*
X4380Y5663D02*
X4457Y5663D01*
X4078Y5662D02*
X4159Y5662D01*
X4378Y5662D02*
X4459Y5662D01*
X4076Y5661D02*
X4161Y5661D01*
X4376Y5661D02*
X4461Y5661D01*
X4075Y5660D02*
X4162Y5660D01*
X4375Y5660D02*
X4462Y5660D01*
X4073Y5659D02*
X4164Y5659D01*
X4373Y5659D02*
X4464Y5659D01*
X4072Y5658D02*
X4165Y5658D01*
X4372Y5658D02*
X4465Y5658D01*
X4071Y5657D02*
X4166Y5657D01*
X4371Y5657D02*
X4466Y5657D01*
X4070Y5656D02*
X4167Y5656D01*
X4370Y5656D02*
X4467Y5656D01*
X4069Y5655D02*
X4168Y5655D01*
X4369Y5655D02*
X4468Y5655D01*
X4069Y5654D02*
X4169Y5654D01*
X4369Y5654D02*
X4469Y5654D01*
X4068Y5653D02*
X4169Y5653D01*
X4368Y5653D02*
X4469Y5653D01*
X4067Y5652D02*
X4170Y5652D01*
X4367Y5652D02*
X4470Y5652D01*
X4067Y5651D02*
X4171Y5651D01*
X4367Y5651D02*
X4471Y5651D01*
X4066Y5650D02*
X4171Y5650D01*
X4366Y5650D02*
X4471Y5650D01*
X4065Y5649D02*
X4172Y5649D01*
X4365Y5649D02*
X4472Y5649D01*
X4065Y5648D02*
X4172Y5648D01*
X4365Y5648D02*
X4472Y5648D01*
X4065Y5647D02*
X4173Y5647D01*
X4365Y5647D02*
X4473Y5647D01*
X4064Y5646D02*
X4117Y5646D01*
X4120Y5646D02*
X4173Y5646D01*
X4364Y5646D02*
X4417Y5646D01*
X4420Y5646D02*
X4473Y5646D01*
X4064Y5645D02*
X4113Y5645D01*
X4124Y5645D02*
X4173Y5645D01*
X4364Y5645D02*
X4413Y5645D01*
X4424Y5645D02*
X4473Y5645D01*
X4063Y5644D02*
X4112Y5644D01*
X4126Y5644D02*
X4174Y5644D01*
X4363Y5644D02*
X4412Y5644D01*
X4425Y5644D02*
X4474Y5644D01*
X4063Y5643D02*
X4110Y5643D01*
X4127Y5643D02*
X4174Y5643D01*
X4363Y5643D02*
X4410Y5643D01*
X4427Y5643D02*
X4474Y5643D01*
X4063Y5642D02*
X4110Y5642D01*
X4128Y5642D02*
X4174Y5642D01*
X4363Y5642D02*
X4410Y5642D01*
X4428Y5642D02*
X4474Y5642D01*
X4063Y5641D02*
X4109Y5641D01*
X4128Y5641D02*
X4174Y5641D01*
X4363Y5641D02*
X4409Y5641D01*
X4428Y5641D02*
X4474Y5641D01*
X4063Y5640D02*
X4108Y5640D01*
X4129Y5640D02*
X4175Y5640D01*
X4363Y5640D02*
X4408Y5640D01*
X4429Y5640D02*
X4475Y5640D01*
X4062Y5639D02*
X4108Y5639D01*
X4129Y5639D02*
X4175Y5639D01*
X4362Y5639D02*
X4408Y5639D01*
X4429Y5639D02*
X4475Y5639D01*
X4062Y5638D02*
X4107Y5638D01*
X4130Y5638D02*
X4175Y5638D01*
X4362Y5638D02*
X4407Y5638D01*
X4430Y5638D02*
X4475Y5638D01*
X4062Y5637D02*
X4107Y5637D01*
X4130Y5637D02*
X4175Y5637D01*
X4362Y5637D02*
X4407Y5637D01*
X4430Y5637D02*
X4475Y5637D01*
X4062Y5636D02*
X4107Y5636D01*
X4130Y5636D02*
X4175Y5636D01*
X4362Y5636D02*
X4407Y5636D01*
X4430Y5636D02*
X4475Y5636D01*
X4062Y5635D02*
X4107Y5635D01*
X4130Y5635D02*
X4175Y5635D01*
X4362Y5635D02*
X4407Y5635D01*
X4430Y5635D02*
X4475Y5635D01*
X4062Y5634D02*
X4107Y5634D01*
X4130Y5634D02*
X4175Y5634D01*
X4362Y5634D02*
X4407Y5634D01*
X4430Y5634D02*
X4475Y5634D01*
X4062Y5633D02*
X4107Y5633D01*
X4130Y5633D02*
X4175Y5633D01*
X4362Y5633D02*
X4407Y5633D01*
X4430Y5633D02*
X4475Y5633D01*
X4062Y5632D02*
X4107Y5632D01*
X4130Y5632D02*
X4175Y5632D01*
X4362Y5632D02*
X4407Y5632D01*
X4430Y5632D02*
X4475Y5632D01*
X4062Y5631D02*
X4108Y5631D01*
X4129Y5631D02*
X4175Y5631D01*
X4362Y5631D02*
X4408Y5631D01*
X4429Y5631D02*
X4475Y5631D01*
X4063Y5630D02*
X4108Y5630D01*
X4129Y5630D02*
X4175Y5630D01*
X4363Y5630D02*
X4408Y5630D01*
X4429Y5630D02*
X4475Y5630D01*
X4063Y5629D02*
X4109Y5629D01*
X4128Y5629D02*
X4174Y5629D01*
X4363Y5629D02*
X4409Y5629D01*
X4428Y5629D02*
X4474Y5629D01*
X4063Y5628D02*
X4110Y5628D01*
X4127Y5628D02*
X4174Y5628D01*
X4363Y5628D02*
X4410Y5628D01*
X4427Y5628D02*
X4474Y5628D01*
X4063Y5627D02*
X4111Y5627D01*
X4126Y5627D02*
X4174Y5627D01*
X4363Y5627D02*
X4411Y5627D01*
X4426Y5627D02*
X4474Y5627D01*
X4064Y5626D02*
X4112Y5626D01*
X4125Y5626D02*
X4174Y5626D01*
X4364Y5626D02*
X4412Y5626D01*
X4425Y5626D02*
X4474Y5626D01*
X4064Y5625D02*
X4114Y5625D01*
X4124Y5625D02*
X4173Y5625D01*
X4364Y5625D02*
X4413Y5625D01*
X4424Y5625D02*
X4473Y5625D01*
X4064Y5624D02*
X4173Y5624D01*
X4364Y5624D02*
X4473Y5624D01*
X4065Y5623D02*
X4173Y5623D01*
X4365Y5623D02*
X4472Y5623D01*
X4065Y5622D02*
X4172Y5622D01*
X4365Y5622D02*
X4472Y5622D01*
X4066Y5621D02*
X4172Y5621D01*
X4366Y5621D02*
X4472Y5621D01*
X4066Y5620D02*
X4171Y5620D01*
X4366Y5620D02*
X4471Y5620D01*
X4067Y5619D02*
X4170Y5619D01*
X4367Y5619D02*
X4470Y5619D01*
X4067Y5618D02*
X4170Y5618D01*
X4367Y5618D02*
X4470Y5618D01*
X4068Y5617D02*
X4169Y5617D01*
X4368Y5617D02*
X4469Y5617D01*
X4069Y5616D02*
X4168Y5616D01*
X4369Y5616D02*
X4468Y5616D01*
X4069Y5615D02*
X4168Y5615D01*
X4369Y5615D02*
X4468Y5615D01*
X4070Y5614D02*
X4167Y5614D01*
X4370Y5614D02*
X4467Y5614D01*
X4071Y5613D02*
X4166Y5613D01*
X4371Y5613D02*
X4466Y5613D01*
X4072Y5612D02*
X4165Y5612D01*
X4372Y5612D02*
X4465Y5612D01*
X4074Y5611D02*
X4164Y5611D01*
X4374Y5611D02*
X4464Y5611D01*
X4075Y5610D02*
X4162Y5610D01*
X4375Y5610D02*
X4462Y5610D01*
X4076Y5609D02*
X4161Y5609D01*
X4376Y5609D02*
X4461Y5609D01*
X4078Y5608D02*
X4159Y5608D01*
X4378Y5608D02*
X4459Y5608D01*
X4080Y5607D02*
X4157Y5607D01*
X4380Y5607D02*
X4457Y5607D01*
X4083Y5606D02*
X4154Y5606D01*
X4383Y5606D02*
X4454Y5606D01*
X4086Y5605D02*
X4151Y5605D01*
X4386Y5605D02*
X4451Y5605D01*
X4092Y5566D02*
X4146Y5566D01*
X4392Y5566D02*
X4446Y5566D01*
X4085Y5565D02*
X4152Y5565D01*
X4385Y5565D02*
X4452Y5565D01*
X4082Y5564D02*
X4155Y5564D01*
X4382Y5564D02*
X4455Y5564D01*
X4080Y5563D02*
X4157Y5563D01*
X4380Y5563D02*
X4457Y5563D01*
X4078Y5562D02*
X4159Y5562D01*
X4378Y5562D02*
X4459Y5562D01*
X4076Y5561D02*
X4161Y5561D01*
X4376Y5561D02*
X4461Y5561D01*
X4075Y5560D02*
X4162Y5560D01*
X4375Y5560D02*
X4462Y5560D01*
X4073Y5559D02*
X4164Y5559D01*
X4373Y5559D02*
X4464Y5559D01*
X4072Y5558D02*
X4165Y5558D01*
X4372Y5558D02*
X4465Y5558D01*
X4071Y5557D02*
X4166Y5557D01*
X4371Y5557D02*
X4466Y5557D01*
X4070Y5556D02*
X4167Y5556D01*
X4370Y5556D02*
X4467Y5556D01*
X4069Y5555D02*
X4168Y5555D01*
X4369Y5555D02*
X4468Y5555D01*
X4069Y5554D02*
X4169Y5554D01*
X4369Y5554D02*
X4469Y5554D01*
X4068Y5553D02*
X4169Y5553D01*
X4368Y5553D02*
X4469Y5553D01*
X4067Y5552D02*
X4170Y5552D01*
X4367Y5552D02*
X4470Y5552D01*
X4067Y5551D02*
X4171Y5551D01*
X4367Y5551D02*
X4471Y5551D01*
X4066Y5550D02*
X4171Y5550D01*
X4366Y5550D02*
X4471Y5550D01*
X4065Y5549D02*
X4172Y5549D01*
X4365Y5549D02*
X4472Y5549D01*
X4065Y5548D02*
X4172Y5548D01*
X4365Y5548D02*
X4472Y5548D01*
X4065Y5547D02*
X4173Y5547D01*
X4365Y5547D02*
X4473Y5547D01*
X4064Y5546D02*
X4117Y5546D01*
X4120Y5546D02*
X4173Y5546D01*
X4364Y5546D02*
X4417Y5546D01*
X4420Y5546D02*
X4473Y5546D01*
X4064Y5545D02*
X4113Y5545D01*
X4124Y5545D02*
X4173Y5545D01*
X4364Y5545D02*
X4413Y5545D01*
X4424Y5545D02*
X4473Y5545D01*
X4063Y5544D02*
X4112Y5544D01*
X4126Y5544D02*
X4174Y5544D01*
X4363Y5544D02*
X4412Y5544D01*
X4425Y5544D02*
X4474Y5544D01*
X4063Y5543D02*
X4110Y5543D01*
X4127Y5543D02*
X4174Y5543D01*
X4363Y5543D02*
X4410Y5543D01*
X4427Y5543D02*
X4474Y5543D01*
X4063Y5542D02*
X4110Y5542D01*
X4128Y5542D02*
X4174Y5542D01*
X4363Y5542D02*
X4410Y5542D01*
X4428Y5542D02*
X4474Y5542D01*
X4063Y5541D02*
X4109Y5541D01*
X4128Y5541D02*
X4174Y5541D01*
X4363Y5541D02*
X4409Y5541D01*
X4428Y5541D02*
X4474Y5541D01*
X4063Y5540D02*
X4108Y5540D01*
X4129Y5540D02*
X4175Y5540D01*
X4363Y5540D02*
X4408Y5540D01*
X4429Y5540D02*
X4475Y5540D01*
X4062Y5539D02*
X4108Y5539D01*
X4129Y5539D02*
X4175Y5539D01*
X4362Y5539D02*
X4408Y5539D01*
X4429Y5539D02*
X4475Y5539D01*
X4062Y5538D02*
X4107Y5538D01*
X4130Y5538D02*
X4175Y5538D01*
X4362Y5538D02*
X4407Y5538D01*
X4430Y5538D02*
X4475Y5538D01*
X4062Y5537D02*
X4107Y5537D01*
X4130Y5537D02*
X4175Y5537D01*
X4362Y5537D02*
X4407Y5537D01*
X4430Y5537D02*
X4475Y5537D01*
X4062Y5536D02*
X4107Y5536D01*
X4130Y5536D02*
X4175Y5536D01*
X4362Y5536D02*
X4407Y5536D01*
X4430Y5536D02*
X4475Y5536D01*
X4062Y5535D02*
X4107Y5535D01*
X4130Y5535D02*
X4175Y5535D01*
X4362Y5535D02*
X4407Y5535D01*
X4430Y5535D02*
X4475Y5535D01*
X4062Y5534D02*
X4107Y5534D01*
X4130Y5534D02*
X4175Y5534D01*
X4362Y5534D02*
X4407Y5534D01*
X4430Y5534D02*
X4475Y5534D01*
X4062Y5533D02*
X4107Y5533D01*
X4130Y5533D02*
X4175Y5533D01*
X4362Y5533D02*
X4407Y5533D01*
X4430Y5533D02*
X4475Y5533D01*
X4062Y5532D02*
X4107Y5532D01*
X4130Y5532D02*
X4175Y5532D01*
X4362Y5532D02*
X4407Y5532D01*
X4430Y5532D02*
X4475Y5532D01*
X4062Y5531D02*
X4108Y5531D01*
X4129Y5531D02*
X4175Y5531D01*
X4362Y5531D02*
X4408Y5531D01*
X4429Y5531D02*
X4475Y5531D01*
X4063Y5530D02*
X4108Y5530D01*
X4129Y5530D02*
X4175Y5530D01*
X4363Y5530D02*
X4408Y5530D01*
X4429Y5530D02*
X4475Y5530D01*
X4063Y5529D02*
X4109Y5529D01*
X4128Y5529D02*
X4174Y5529D01*
X4363Y5529D02*
X4409Y5529D01*
X4428Y5529D02*
X4474Y5529D01*
X4063Y5528D02*
X4110Y5528D01*
X4127Y5528D02*
X4174Y5528D01*
X4363Y5528D02*
X4410Y5528D01*
X4427Y5528D02*
X4474Y5528D01*
X4063Y5527D02*
X4111Y5527D01*
X4126Y5527D02*
X4174Y5527D01*
X4363Y5527D02*
X4411Y5527D01*
X4426Y5527D02*
X4474Y5527D01*
X4064Y5526D02*
X4112Y5526D01*
X4125Y5526D02*
X4174Y5526D01*
X4364Y5526D02*
X4412Y5526D01*
X4425Y5526D02*
X4474Y5526D01*
X4064Y5525D02*
X4114Y5525D01*
X4124Y5525D02*
X4173Y5525D01*
X4364Y5525D02*
X4414Y5525D01*
X4424Y5525D02*
X4473Y5525D01*
X4064Y5524D02*
X4173Y5524D01*
X4364Y5524D02*
X4473Y5524D01*
X4065Y5523D02*
X4172Y5523D01*
X4365Y5523D02*
X4472Y5523D01*
X4065Y5522D02*
X4172Y5522D01*
X4365Y5522D02*
X4472Y5522D01*
X4066Y5521D02*
X4172Y5521D01*
X4366Y5521D02*
X4472Y5521D01*
X4066Y5520D02*
X4171Y5520D01*
X4366Y5520D02*
X4471Y5520D01*
X4067Y5519D02*
X4170Y5519D01*
X4367Y5519D02*
X4470Y5519D01*
X4067Y5518D02*
X4170Y5518D01*
X4367Y5518D02*
X4470Y5518D01*
X4068Y5517D02*
X4169Y5517D01*
X4368Y5517D02*
X4469Y5517D01*
X4069Y5516D02*
X4168Y5516D01*
X4369Y5516D02*
X4468Y5516D01*
X4069Y5515D02*
X4168Y5515D01*
X4369Y5515D02*
X4468Y5515D01*
X4070Y5514D02*
X4167Y5514D01*
X4370Y5514D02*
X4467Y5514D01*
X4071Y5513D02*
X4166Y5513D01*
X4371Y5513D02*
X4466Y5513D01*
X4072Y5512D02*
X4165Y5512D01*
X4372Y5512D02*
X4465Y5512D01*
X4074Y5511D02*
X4164Y5511D01*
X4374Y5511D02*
X4464Y5511D01*
X4075Y5510D02*
X4162Y5510D01*
X4375Y5510D02*
X4462Y5510D01*
X4076Y5509D02*
X4161Y5509D01*
X4376Y5509D02*
X4461Y5509D01*
X4078Y5508D02*
X4159Y5508D01*
X4378Y5508D02*
X4459Y5508D01*
X4080Y5507D02*
X4157Y5507D01*
X4380Y5507D02*
X4457Y5507D01*
X4083Y5506D02*
X4154Y5506D01*
X4383Y5506D02*
X4454Y5506D01*
X4086Y5505D02*
X4151Y5505D01*
X4386Y5505D02*
X4451Y5505D01*
X4091Y5466D02*
X4146Y5466D01*
X4391Y5466D02*
X4446Y5466D01*
X4085Y5465D02*
X4152Y5465D01*
X4385Y5465D02*
X4452Y5465D01*
X4082Y5464D02*
X4155Y5464D01*
X4382Y5464D02*
X4455Y5464D01*
X4080Y5463D02*
X4157Y5463D01*
X4380Y5463D02*
X4457Y5463D01*
X4078Y5462D02*
X4159Y5462D01*
X4378Y5462D02*
X4459Y5462D01*
X4076Y5461D02*
X4161Y5461D01*
X4376Y5461D02*
X4461Y5461D01*
X4075Y5460D02*
X4162Y5460D01*
X4375Y5460D02*
X4462Y5460D01*
X4073Y5459D02*
X4164Y5459D01*
X4373Y5459D02*
X4464Y5459D01*
X4072Y5458D02*
X4165Y5458D01*
X4372Y5458D02*
X4465Y5458D01*
X4071Y5457D02*
X4166Y5457D01*
X4371Y5457D02*
X4466Y5457D01*
X4070Y5456D02*
X4167Y5456D01*
X4370Y5456D02*
X4467Y5456D01*
X4069Y5455D02*
X4168Y5455D01*
X4369Y5455D02*
X4468Y5455D01*
X4069Y5454D02*
X4169Y5454D01*
X4369Y5454D02*
X4469Y5454D01*
X4068Y5453D02*
X4169Y5453D01*
X4368Y5453D02*
X4469Y5453D01*
X4067Y5452D02*
X4170Y5452D01*
X4367Y5452D02*
X4470Y5452D01*
X4067Y5451D02*
X4171Y5451D01*
X4367Y5451D02*
X4471Y5451D01*
X4066Y5450D02*
X4171Y5450D01*
X4366Y5450D02*
X4471Y5450D01*
X4065Y5449D02*
X4172Y5449D01*
X4365Y5449D02*
X4472Y5449D01*
X4065Y5448D02*
X4172Y5448D01*
X4365Y5448D02*
X4472Y5448D01*
X4065Y5447D02*
X4173Y5447D01*
X4365Y5447D02*
X4473Y5447D01*
X4064Y5446D02*
X4117Y5446D01*
X4120Y5446D02*
X4173Y5446D01*
X4364Y5446D02*
X4417Y5446D01*
X4420Y5446D02*
X4473Y5446D01*
X4064Y5445D02*
X4113Y5445D01*
X4124Y5445D02*
X4173Y5445D01*
X4364Y5445D02*
X4413Y5445D01*
X4424Y5445D02*
X4473Y5445D01*
X4063Y5444D02*
X4112Y5444D01*
X4126Y5444D02*
X4174Y5444D01*
X4363Y5444D02*
X4412Y5444D01*
X4425Y5444D02*
X4474Y5444D01*
X4063Y5443D02*
X4110Y5443D01*
X4127Y5443D02*
X4174Y5443D01*
X4363Y5443D02*
X4410Y5443D01*
X4427Y5443D02*
X4474Y5443D01*
X4063Y5442D02*
X4110Y5442D01*
X4128Y5442D02*
X4174Y5442D01*
X4363Y5442D02*
X4410Y5442D01*
X4428Y5442D02*
X4474Y5442D01*
X4063Y5441D02*
X4109Y5441D01*
X4128Y5441D02*
X4174Y5441D01*
X4363Y5441D02*
X4409Y5441D01*
X4428Y5441D02*
X4474Y5441D01*
X4063Y5440D02*
X4108Y5440D01*
X4129Y5440D02*
X4175Y5440D01*
X4363Y5440D02*
X4408Y5440D01*
X4429Y5440D02*
X4475Y5440D01*
X4062Y5439D02*
X4108Y5439D01*
X4129Y5439D02*
X4175Y5439D01*
X4362Y5439D02*
X4408Y5439D01*
X4429Y5439D02*
X4475Y5439D01*
X4062Y5438D02*
X4107Y5438D01*
X4130Y5438D02*
X4175Y5438D01*
X4362Y5438D02*
X4407Y5438D01*
X4430Y5438D02*
X4475Y5438D01*
X4062Y5437D02*
X4107Y5437D01*
X4130Y5437D02*
X4175Y5437D01*
X4362Y5437D02*
X4407Y5437D01*
X4430Y5437D02*
X4475Y5437D01*
X4062Y5436D02*
X4107Y5436D01*
X4130Y5436D02*
X4175Y5436D01*
X4362Y5436D02*
X4407Y5436D01*
X4430Y5436D02*
X4475Y5436D01*
X4062Y5435D02*
X4107Y5435D01*
X4130Y5435D02*
X4175Y5435D01*
X4362Y5435D02*
X4407Y5435D01*
X4430Y5435D02*
X4475Y5435D01*
X4062Y5434D02*
X4107Y5434D01*
X4130Y5434D02*
X4175Y5434D01*
X4362Y5434D02*
X4407Y5434D01*
X4430Y5434D02*
X4475Y5434D01*
X4062Y5433D02*
X4107Y5433D01*
X4130Y5433D02*
X4175Y5433D01*
X4362Y5433D02*
X4407Y5433D01*
X4430Y5433D02*
X4475Y5433D01*
X4062Y5432D02*
X4107Y5432D01*
X4130Y5432D02*
X4175Y5432D01*
X4362Y5432D02*
X4407Y5432D01*
X4430Y5432D02*
X4475Y5432D01*
X4062Y5431D02*
X4108Y5431D01*
X4129Y5431D02*
X4175Y5431D01*
X4362Y5431D02*
X4408Y5431D01*
X4429Y5431D02*
X4475Y5431D01*
X4063Y5430D02*
X4108Y5430D01*
X4129Y5430D02*
X4175Y5430D01*
X4363Y5430D02*
X4408Y5430D01*
X4429Y5430D02*
X4475Y5430D01*
X4063Y5429D02*
X4109Y5429D01*
X4128Y5429D02*
X4174Y5429D01*
X4363Y5429D02*
X4409Y5429D01*
X4428Y5429D02*
X4474Y5429D01*
X4063Y5428D02*
X4110Y5428D01*
X4127Y5428D02*
X4174Y5428D01*
X4363Y5428D02*
X4410Y5428D01*
X4427Y5428D02*
X4474Y5428D01*
X4063Y5427D02*
X4111Y5427D01*
X4126Y5427D02*
X4174Y5427D01*
X4363Y5427D02*
X4411Y5427D01*
X4426Y5427D02*
X4474Y5427D01*
X4064Y5426D02*
X4112Y5426D01*
X4125Y5426D02*
X4174Y5426D01*
X4364Y5426D02*
X4412Y5426D01*
X4425Y5426D02*
X4474Y5426D01*
X4064Y5425D02*
X4114Y5425D01*
X4124Y5425D02*
X4173Y5425D01*
X4364Y5425D02*
X4414Y5425D01*
X4424Y5425D02*
X4473Y5425D01*
X4064Y5424D02*
X4173Y5424D01*
X4364Y5424D02*
X4473Y5424D01*
X4065Y5423D02*
X4172Y5423D01*
X4365Y5423D02*
X4472Y5423D01*
X4065Y5422D02*
X4172Y5422D01*
X4365Y5422D02*
X4472Y5422D01*
X4066Y5421D02*
X4172Y5421D01*
X4366Y5421D02*
X4472Y5421D01*
X4066Y5420D02*
X4171Y5420D01*
X4366Y5420D02*
X4471Y5420D01*
X4067Y5419D02*
X4170Y5419D01*
X4367Y5419D02*
X4470Y5419D01*
X4067Y5418D02*
X4170Y5418D01*
X4367Y5418D02*
X4470Y5418D01*
X4068Y5417D02*
X4169Y5417D01*
X4368Y5417D02*
X4469Y5417D01*
X4069Y5416D02*
X4168Y5416D01*
X4369Y5416D02*
X4468Y5416D01*
X4069Y5415D02*
X4168Y5415D01*
X4369Y5415D02*
X4468Y5415D01*
X4070Y5414D02*
X4167Y5414D01*
X4370Y5414D02*
X4467Y5414D01*
X4071Y5413D02*
X4166Y5413D01*
X4371Y5413D02*
X4466Y5413D01*
X4072Y5412D02*
X4165Y5412D01*
X4372Y5412D02*
X4465Y5412D01*
X4074Y5411D02*
X4164Y5411D01*
X4374Y5411D02*
X4463Y5411D01*
X4075Y5410D02*
X4162Y5410D01*
X4375Y5410D02*
X4462Y5410D01*
X4076Y5409D02*
X4161Y5409D01*
X4376Y5409D02*
X4461Y5409D01*
X4078Y5408D02*
X4159Y5408D01*
X4378Y5408D02*
X4459Y5408D01*
X4080Y5407D02*
X4157Y5407D01*
X4380Y5407D02*
X4457Y5407D01*
X4083Y5406D02*
X4154Y5406D01*
X4383Y5406D02*
X4454Y5406D01*
X4086Y5405D02*
X4151Y5405D01*
X4386Y5405D02*
X4451Y5405D01*
X4091Y5366D02*
X4146Y5366D01*
X4391Y5366D02*
X4446Y5366D01*
X4085Y5365D02*
X4152Y5365D01*
X4385Y5365D02*
X4452Y5365D01*
X4082Y5364D02*
X4155Y5364D01*
X4382Y5364D02*
X4455Y5364D01*
X4080Y5363D02*
X4157Y5363D01*
X4380Y5363D02*
X4457Y5363D01*
X4078Y5362D02*
X4159Y5362D01*
X4378Y5362D02*
X4459Y5362D01*
X4076Y5361D02*
X4161Y5361D01*
X4376Y5361D02*
X4461Y5361D01*
X4075Y5360D02*
X4162Y5360D01*
X4375Y5360D02*
X4462Y5360D01*
X4073Y5359D02*
X4164Y5359D01*
X4373Y5359D02*
X4464Y5359D01*
X4072Y5358D02*
X4165Y5358D01*
X4372Y5358D02*
X4465Y5358D01*
X4071Y5357D02*
X4166Y5357D01*
X4371Y5357D02*
X4466Y5357D01*
X4070Y5356D02*
X4167Y5356D01*
X4370Y5356D02*
X4467Y5356D01*
X4069Y5355D02*
X4168Y5355D01*
X4369Y5355D02*
X4468Y5355D01*
X4069Y5354D02*
X4169Y5354D01*
X4369Y5354D02*
X4469Y5354D01*
X4068Y5353D02*
X4169Y5353D01*
X4368Y5353D02*
X4469Y5353D01*
X4067Y5352D02*
X4170Y5352D01*
X4367Y5352D02*
X4470Y5352D01*
X4067Y5351D02*
X4171Y5351D01*
X4367Y5351D02*
X4471Y5351D01*
X4066Y5350D02*
X4171Y5350D01*
X4366Y5350D02*
X4471Y5350D01*
X4065Y5349D02*
X4172Y5349D01*
X4365Y5349D02*
X4472Y5349D01*
X4065Y5348D02*
X4172Y5348D01*
X4365Y5348D02*
X4472Y5348D01*
X4065Y5347D02*
X4173Y5347D01*
X4365Y5347D02*
X4473Y5347D01*
X4064Y5346D02*
X4117Y5346D01*
X4120Y5346D02*
X4173Y5346D01*
X4364Y5346D02*
X4417Y5346D01*
X4420Y5346D02*
X4473Y5346D01*
X4064Y5345D02*
X4113Y5345D01*
X4124Y5345D02*
X4173Y5345D01*
X4364Y5345D02*
X4413Y5345D01*
X4424Y5345D02*
X4473Y5345D01*
X4063Y5344D02*
X4112Y5344D01*
X4126Y5344D02*
X4174Y5344D01*
X4363Y5344D02*
X4412Y5344D01*
X4426Y5344D02*
X4474Y5344D01*
X4063Y5343D02*
X4110Y5343D01*
X4127Y5343D02*
X4174Y5343D01*
X4363Y5343D02*
X4410Y5343D01*
X4427Y5343D02*
X4474Y5343D01*
X4063Y5342D02*
X4110Y5342D01*
X4128Y5342D02*
X4174Y5342D01*
X4363Y5342D02*
X4410Y5342D01*
X4428Y5342D02*
X4474Y5342D01*
X4063Y5341D02*
X4109Y5341D01*
X4128Y5341D02*
X4174Y5341D01*
X4363Y5341D02*
X4409Y5341D01*
X4428Y5341D02*
X4474Y5341D01*
X4063Y5340D02*
X4108Y5340D01*
X4129Y5340D02*
X4175Y5340D01*
X4363Y5340D02*
X4408Y5340D01*
X4429Y5340D02*
X4475Y5340D01*
X4062Y5339D02*
X4108Y5339D01*
X4129Y5339D02*
X4175Y5339D01*
X4362Y5339D02*
X4408Y5339D01*
X4429Y5339D02*
X4475Y5339D01*
X4062Y5338D02*
X4107Y5338D01*
X4130Y5338D02*
X4175Y5338D01*
X4362Y5338D02*
X4407Y5338D01*
X4430Y5338D02*
X4475Y5338D01*
X4062Y5337D02*
X4107Y5337D01*
X4130Y5337D02*
X4175Y5337D01*
X4362Y5337D02*
X4407Y5337D01*
X4430Y5337D02*
X4475Y5337D01*
X4062Y5336D02*
X4107Y5336D01*
X4130Y5336D02*
X4175Y5336D01*
X4362Y5336D02*
X4407Y5336D01*
X4430Y5336D02*
X4475Y5336D01*
X4062Y5335D02*
X4107Y5335D01*
X4130Y5335D02*
X4175Y5335D01*
X4362Y5335D02*
X4407Y5335D01*
X4430Y5335D02*
X4475Y5335D01*
X4062Y5334D02*
X4107Y5334D01*
X4130Y5334D02*
X4175Y5334D01*
X4362Y5334D02*
X4407Y5334D01*
X4430Y5334D02*
X4475Y5334D01*
X4062Y5333D02*
X4107Y5333D01*
X4130Y5333D02*
X4175Y5333D01*
X4362Y5333D02*
X4407Y5333D01*
X4430Y5333D02*
X4475Y5333D01*
X4062Y5332D02*
X4107Y5332D01*
X4130Y5332D02*
X4175Y5332D01*
X4362Y5332D02*
X4407Y5332D01*
X4430Y5332D02*
X4475Y5332D01*
X4062Y5331D02*
X4108Y5331D01*
X4129Y5331D02*
X4175Y5331D01*
X4362Y5331D02*
X4408Y5331D01*
X4429Y5331D02*
X4475Y5331D01*
X4063Y5330D02*
X4108Y5330D01*
X4129Y5330D02*
X4175Y5330D01*
X4363Y5330D02*
X4408Y5330D01*
X4429Y5330D02*
X4475Y5330D01*
X4063Y5329D02*
X4109Y5329D01*
X4128Y5329D02*
X4174Y5329D01*
X4363Y5329D02*
X4409Y5329D01*
X4428Y5329D02*
X4474Y5329D01*
X4063Y5328D02*
X4110Y5328D01*
X4127Y5328D02*
X4174Y5328D01*
X4363Y5328D02*
X4410Y5328D01*
X4427Y5328D02*
X4474Y5328D01*
X4063Y5327D02*
X4111Y5327D01*
X4126Y5327D02*
X4174Y5327D01*
X4363Y5327D02*
X4411Y5327D01*
X4426Y5327D02*
X4474Y5327D01*
X4064Y5326D02*
X4112Y5326D01*
X4125Y5326D02*
X4174Y5326D01*
X4364Y5326D02*
X4412Y5326D01*
X4425Y5326D02*
X4474Y5326D01*
X4064Y5325D02*
X4114Y5325D01*
X4124Y5325D02*
X4173Y5325D01*
X4364Y5325D02*
X4414Y5325D01*
X4424Y5325D02*
X4473Y5325D01*
X4064Y5324D02*
X4173Y5324D01*
X4364Y5324D02*
X4473Y5324D01*
X4065Y5323D02*
X4172Y5323D01*
X4365Y5323D02*
X4472Y5323D01*
X4065Y5322D02*
X4172Y5322D01*
X4365Y5322D02*
X4472Y5322D01*
X4066Y5321D02*
X4172Y5321D01*
X4366Y5321D02*
X4472Y5321D01*
X4066Y5320D02*
X4171Y5320D01*
X4366Y5320D02*
X4471Y5320D01*
X4067Y5319D02*
X4170Y5319D01*
X4367Y5319D02*
X4470Y5319D01*
X4067Y5318D02*
X4170Y5318D01*
X4367Y5318D02*
X4470Y5318D01*
X4068Y5317D02*
X4169Y5317D01*
X4368Y5317D02*
X4469Y5317D01*
X4069Y5316D02*
X4168Y5316D01*
X4369Y5316D02*
X4468Y5316D01*
X4069Y5315D02*
X4168Y5315D01*
X4369Y5315D02*
X4468Y5315D01*
X4070Y5314D02*
X4167Y5314D01*
X4370Y5314D02*
X4467Y5314D01*
X4071Y5313D02*
X4166Y5313D01*
X4371Y5313D02*
X4466Y5313D01*
X4072Y5312D02*
X4165Y5312D01*
X4372Y5312D02*
X4465Y5312D01*
X4074Y5311D02*
X4164Y5311D01*
X4374Y5311D02*
X4463Y5311D01*
X4075Y5310D02*
X4162Y5310D01*
X4375Y5310D02*
X4462Y5310D01*
X4077Y5309D02*
X4161Y5309D01*
X4376Y5309D02*
X4461Y5309D01*
X4078Y5308D02*
X4159Y5308D01*
X4378Y5308D02*
X4459Y5308D01*
X4080Y5307D02*
X4157Y5307D01*
X4380Y5307D02*
X4457Y5307D01*
X4083Y5306D02*
X4154Y5306D01*
X4383Y5306D02*
X4454Y5306D01*
X4086Y5305D02*
X4151Y5305D01*
X4386Y5305D02*
X4451Y5305D01*
X4091Y5266D02*
X4146Y5266D01*
X4391Y5266D02*
X4446Y5266D01*
X4085Y5265D02*
X4152Y5265D01*
X4385Y5265D02*
X4452Y5265D01*
X4082Y5264D02*
X4155Y5264D01*
X4382Y5264D02*
X4455Y5264D01*
X4080Y5263D02*
X4157Y5263D01*
X4380Y5263D02*
X4457Y5263D01*
X4078Y5262D02*
X4159Y5262D01*
X4378Y5262D02*
X4459Y5262D01*
X4076Y5261D02*
X4161Y5261D01*
X4376Y5261D02*
X4461Y5261D01*
X4075Y5260D02*
X4162Y5260D01*
X4375Y5260D02*
X4462Y5260D01*
X4073Y5259D02*
X4164Y5259D01*
X4373Y5259D02*
X4464Y5259D01*
X4072Y5258D02*
X4165Y5258D01*
X4372Y5258D02*
X4465Y5258D01*
X4071Y5257D02*
X4166Y5257D01*
X4371Y5257D02*
X4466Y5257D01*
X4070Y5256D02*
X4167Y5256D01*
X4370Y5256D02*
X4467Y5256D01*
X4069Y5255D02*
X4168Y5255D01*
X4369Y5255D02*
X4468Y5255D01*
X4069Y5254D02*
X4169Y5254D01*
X4369Y5254D02*
X4469Y5254D01*
X4068Y5253D02*
X4169Y5253D01*
X4368Y5253D02*
X4469Y5253D01*
X4067Y5252D02*
X4170Y5252D01*
X4367Y5252D02*
X4470Y5252D01*
X4067Y5251D02*
X4171Y5251D01*
X4367Y5251D02*
X4471Y5251D01*
X4066Y5250D02*
X4171Y5250D01*
X4366Y5250D02*
X4471Y5250D01*
X4065Y5249D02*
X4172Y5249D01*
X4365Y5249D02*
X4472Y5249D01*
X4065Y5248D02*
X4172Y5248D01*
X4365Y5248D02*
X4472Y5248D01*
X4065Y5247D02*
X4173Y5247D01*
X4365Y5247D02*
X4473Y5247D01*
X4064Y5246D02*
X4117Y5246D01*
X4120Y5246D02*
X4173Y5246D01*
X4364Y5246D02*
X4417Y5246D01*
X4420Y5246D02*
X4473Y5246D01*
X4064Y5245D02*
X4113Y5245D01*
X4124Y5245D02*
X4173Y5245D01*
X4364Y5245D02*
X4413Y5245D01*
X4424Y5245D02*
X4473Y5245D01*
X4063Y5244D02*
X4112Y5244D01*
X4126Y5244D02*
X4174Y5244D01*
X4363Y5244D02*
X4412Y5244D01*
X4426Y5244D02*
X4474Y5244D01*
X4063Y5243D02*
X4110Y5243D01*
X4127Y5243D02*
X4174Y5243D01*
X4363Y5243D02*
X4410Y5243D01*
X4427Y5243D02*
X4474Y5243D01*
X4063Y5242D02*
X4110Y5242D01*
X4128Y5242D02*
X4174Y5242D01*
X4363Y5242D02*
X4410Y5242D01*
X4428Y5242D02*
X4474Y5242D01*
X4063Y5241D02*
X4109Y5241D01*
X4128Y5241D02*
X4174Y5241D01*
X4363Y5241D02*
X4409Y5241D01*
X4428Y5241D02*
X4474Y5241D01*
X4063Y5240D02*
X4108Y5240D01*
X4129Y5240D02*
X4175Y5240D01*
X4363Y5240D02*
X4408Y5240D01*
X4429Y5240D02*
X4475Y5240D01*
X4062Y5239D02*
X4108Y5239D01*
X4129Y5239D02*
X4175Y5239D01*
X4362Y5239D02*
X4408Y5239D01*
X4429Y5239D02*
X4475Y5239D01*
X4062Y5238D02*
X4107Y5238D01*
X4130Y5238D02*
X4175Y5238D01*
X4362Y5238D02*
X4407Y5238D01*
X4430Y5238D02*
X4475Y5238D01*
X4062Y5237D02*
X4107Y5237D01*
X4130Y5237D02*
X4175Y5237D01*
X4362Y5237D02*
X4407Y5237D01*
X4430Y5237D02*
X4475Y5237D01*
X4062Y5236D02*
X4107Y5236D01*
X4130Y5236D02*
X4175Y5236D01*
X4362Y5236D02*
X4407Y5236D01*
X4430Y5236D02*
X4475Y5236D01*
X4062Y5235D02*
X4107Y5235D01*
X4130Y5235D02*
X4175Y5235D01*
X4362Y5235D02*
X4407Y5235D01*
X4430Y5235D02*
X4475Y5235D01*
X4062Y5234D02*
X4107Y5234D01*
X4130Y5234D02*
X4175Y5234D01*
X4362Y5234D02*
X4407Y5234D01*
X4430Y5234D02*
X4475Y5234D01*
X4062Y5233D02*
X4107Y5233D01*
X4130Y5233D02*
X4175Y5233D01*
X4362Y5233D02*
X4407Y5233D01*
X4430Y5233D02*
X4475Y5233D01*
X4062Y5232D02*
X4107Y5232D01*
X4130Y5232D02*
X4175Y5232D01*
X4362Y5232D02*
X4407Y5232D01*
X4430Y5232D02*
X4475Y5232D01*
X4062Y5231D02*
X4108Y5231D01*
X4129Y5231D02*
X4175Y5231D01*
X4362Y5231D02*
X4408Y5231D01*
X4429Y5231D02*
X4475Y5231D01*
X4063Y5230D02*
X4108Y5230D01*
X4129Y5230D02*
X4175Y5230D01*
X4363Y5230D02*
X4408Y5230D01*
X4429Y5230D02*
X4475Y5230D01*
X4063Y5229D02*
X4109Y5229D01*
X4128Y5229D02*
X4174Y5229D01*
X4363Y5229D02*
X4409Y5229D01*
X4428Y5229D02*
X4474Y5229D01*
X4063Y5228D02*
X4110Y5228D01*
X4127Y5228D02*
X4174Y5228D01*
X4363Y5228D02*
X4410Y5228D01*
X4427Y5228D02*
X4474Y5228D01*
X4063Y5227D02*
X4111Y5227D01*
X4126Y5227D02*
X4174Y5227D01*
X4363Y5227D02*
X4411Y5227D01*
X4426Y5227D02*
X4474Y5227D01*
X4064Y5226D02*
X4112Y5226D01*
X4125Y5226D02*
X4174Y5226D01*
X4364Y5226D02*
X4412Y5226D01*
X4425Y5226D02*
X4474Y5226D01*
X4064Y5225D02*
X4114Y5225D01*
X4124Y5225D02*
X4173Y5225D01*
X4364Y5225D02*
X4414Y5225D01*
X4424Y5225D02*
X4473Y5225D01*
X4064Y5224D02*
X4173Y5224D01*
X4364Y5224D02*
X4473Y5224D01*
X4065Y5223D02*
X4172Y5223D01*
X4365Y5223D02*
X4472Y5223D01*
X4065Y5222D02*
X4172Y5222D01*
X4365Y5222D02*
X4472Y5222D01*
X4066Y5221D02*
X4172Y5221D01*
X4366Y5221D02*
X4472Y5221D01*
X4066Y5220D02*
X4171Y5220D01*
X4366Y5220D02*
X4471Y5220D01*
X4067Y5219D02*
X4170Y5219D01*
X4367Y5219D02*
X4470Y5219D01*
X4067Y5218D02*
X4170Y5218D01*
X4367Y5218D02*
X4470Y5218D01*
X4068Y5217D02*
X4169Y5217D01*
X4368Y5217D02*
X4469Y5217D01*
X4069Y5216D02*
X4168Y5216D01*
X4369Y5216D02*
X4468Y5216D01*
X4070Y5215D02*
X4168Y5215D01*
X4369Y5215D02*
X4468Y5215D01*
X4070Y5214D02*
X4167Y5214D01*
X4370Y5214D02*
X4467Y5214D01*
X4071Y5213D02*
X4166Y5213D01*
X4371Y5213D02*
X4466Y5213D01*
X4072Y5212D02*
X4165Y5212D01*
X4372Y5212D02*
X4465Y5212D01*
X4074Y5211D02*
X4164Y5211D01*
X4374Y5211D02*
X4463Y5211D01*
X4075Y5210D02*
X4162Y5210D01*
X4375Y5210D02*
X4462Y5210D01*
X4077Y5209D02*
X4161Y5209D01*
X4376Y5209D02*
X4461Y5209D01*
X4078Y5208D02*
X4159Y5208D01*
X4378Y5208D02*
X4459Y5208D01*
X4080Y5207D02*
X4157Y5207D01*
X4380Y5207D02*
X4457Y5207D01*
X4083Y5206D02*
X4154Y5206D01*
X4383Y5206D02*
X4454Y5206D01*
X4086Y5205D02*
X4151Y5205D01*
X4386Y5205D02*
X4451Y5205D01*
X4091Y5166D02*
X4146Y5166D01*
X4391Y5166D02*
X4446Y5166D01*
X4085Y5165D02*
X4152Y5165D01*
X4385Y5165D02*
X4452Y5165D01*
X4082Y5164D02*
X4155Y5164D01*
X4382Y5164D02*
X4455Y5164D01*
X4080Y5163D02*
X4157Y5163D01*
X4380Y5163D02*
X4457Y5163D01*
X4078Y5162D02*
X4159Y5162D01*
X4378Y5162D02*
X4459Y5162D01*
X4076Y5161D02*
X4161Y5161D01*
X4376Y5161D02*
X4461Y5161D01*
X4075Y5160D02*
X4162Y5160D01*
X4375Y5160D02*
X4462Y5160D01*
X4073Y5159D02*
X4164Y5159D01*
X4373Y5159D02*
X4464Y5159D01*
X4072Y5158D02*
X4165Y5158D01*
X4372Y5158D02*
X4465Y5158D01*
X4071Y5157D02*
X4166Y5157D01*
X4371Y5157D02*
X4466Y5157D01*
X4070Y5156D02*
X4167Y5156D01*
X4370Y5156D02*
X4467Y5156D01*
X4069Y5155D02*
X4168Y5155D01*
X4369Y5155D02*
X4468Y5155D01*
X4069Y5154D02*
X4169Y5154D01*
X4369Y5154D02*
X4469Y5154D01*
X4068Y5153D02*
X4169Y5153D01*
X4368Y5153D02*
X4469Y5153D01*
X4067Y5152D02*
X4170Y5152D01*
X4367Y5152D02*
X4470Y5152D01*
X4067Y5151D02*
X4171Y5151D01*
X4367Y5151D02*
X4471Y5151D01*
X4066Y5150D02*
X4171Y5150D01*
X4366Y5150D02*
X4471Y5150D01*
X4065Y5149D02*
X4172Y5149D01*
X4365Y5149D02*
X4472Y5149D01*
X4065Y5148D02*
X4172Y5148D01*
X4365Y5148D02*
X4472Y5148D01*
X4065Y5147D02*
X4173Y5147D01*
X4365Y5147D02*
X4473Y5147D01*
X4064Y5146D02*
X4117Y5146D01*
X4120Y5146D02*
X4173Y5146D01*
X4364Y5146D02*
X4417Y5146D01*
X4420Y5146D02*
X4473Y5146D01*
X4064Y5145D02*
X4113Y5145D01*
X4124Y5145D02*
X4173Y5145D01*
X4364Y5145D02*
X4413Y5145D01*
X4424Y5145D02*
X4473Y5145D01*
X4063Y5144D02*
X4112Y5144D01*
X4126Y5144D02*
X4174Y5144D01*
X4363Y5144D02*
X4412Y5144D01*
X4426Y5144D02*
X4474Y5144D01*
X4063Y5143D02*
X4110Y5143D01*
X4127Y5143D02*
X4174Y5143D01*
X4363Y5143D02*
X4410Y5143D01*
X4427Y5143D02*
X4474Y5143D01*
X4063Y5142D02*
X4110Y5142D01*
X4128Y5142D02*
X4174Y5142D01*
X4363Y5142D02*
X4410Y5142D01*
X4428Y5142D02*
X4474Y5142D01*
X4063Y5141D02*
X4109Y5141D01*
X4128Y5141D02*
X4174Y5141D01*
X4363Y5141D02*
X4409Y5141D01*
X4428Y5141D02*
X4474Y5141D01*
X4063Y5140D02*
X4108Y5140D01*
X4129Y5140D02*
X4175Y5140D01*
X4363Y5140D02*
X4408Y5140D01*
X4429Y5140D02*
X4475Y5140D01*
X4062Y5139D02*
X4108Y5139D01*
X4129Y5139D02*
X4175Y5139D01*
X4362Y5139D02*
X4408Y5139D01*
X4429Y5139D02*
X4475Y5139D01*
X4062Y5138D02*
X4107Y5138D01*
X4130Y5138D02*
X4175Y5138D01*
X4362Y5138D02*
X4407Y5138D01*
X4430Y5138D02*
X4475Y5138D01*
X4062Y5137D02*
X4107Y5137D01*
X4130Y5137D02*
X4175Y5137D01*
X4362Y5137D02*
X4407Y5137D01*
X4430Y5137D02*
X4475Y5137D01*
X4062Y5136D02*
X4107Y5136D01*
X4130Y5136D02*
X4175Y5136D01*
X4362Y5136D02*
X4407Y5136D01*
X4430Y5136D02*
X4475Y5136D01*
X4062Y5135D02*
X4107Y5135D01*
X4130Y5135D02*
X4175Y5135D01*
X4362Y5135D02*
X4407Y5135D01*
X4430Y5135D02*
X4475Y5135D01*
X4062Y5134D02*
X4107Y5134D01*
X4130Y5134D02*
X4175Y5134D01*
X4362Y5134D02*
X4407Y5134D01*
X4430Y5134D02*
X4475Y5134D01*
X4062Y5133D02*
X4107Y5133D01*
X4130Y5133D02*
X4175Y5133D01*
X4362Y5133D02*
X4407Y5133D01*
X4430Y5133D02*
X4475Y5133D01*
X4062Y5132D02*
X4107Y5132D01*
X4130Y5132D02*
X4175Y5132D01*
X4362Y5132D02*
X4407Y5132D01*
X4430Y5132D02*
X4475Y5132D01*
X4062Y5131D02*
X4108Y5131D01*
X4129Y5131D02*
X4175Y5131D01*
X4362Y5131D02*
X4408Y5131D01*
X4429Y5131D02*
X4475Y5131D01*
X4063Y5130D02*
X4108Y5130D01*
X4129Y5130D02*
X4175Y5130D01*
X4363Y5130D02*
X4408Y5130D01*
X4429Y5130D02*
X4475Y5130D01*
X4063Y5129D02*
X4109Y5129D01*
X4128Y5129D02*
X4174Y5129D01*
X4363Y5129D02*
X4409Y5129D01*
X4428Y5129D02*
X4474Y5129D01*
X4063Y5128D02*
X4110Y5128D01*
X4127Y5128D02*
X4174Y5128D01*
X4363Y5128D02*
X4410Y5128D01*
X4427Y5128D02*
X4474Y5128D01*
X4063Y5127D02*
X4111Y5127D01*
X4126Y5127D02*
X4174Y5127D01*
X4363Y5127D02*
X4411Y5127D01*
X4426Y5127D02*
X4474Y5127D01*
X4064Y5126D02*
X4112Y5126D01*
X4125Y5126D02*
X4174Y5126D01*
X4364Y5126D02*
X4412Y5126D01*
X4425Y5126D02*
X4474Y5126D01*
X4064Y5125D02*
X4114Y5125D01*
X4124Y5125D02*
X4173Y5125D01*
X4364Y5125D02*
X4414Y5125D01*
X4424Y5125D02*
X4473Y5125D01*
X4064Y5124D02*
X4173Y5124D01*
X4364Y5124D02*
X4473Y5124D01*
X4065Y5123D02*
X4172Y5123D01*
X4365Y5123D02*
X4472Y5123D01*
X4065Y5122D02*
X4172Y5122D01*
X4365Y5122D02*
X4472Y5122D01*
X4066Y5121D02*
X4172Y5121D01*
X4366Y5121D02*
X4472Y5121D01*
X4066Y5120D02*
X4171Y5120D01*
X4366Y5120D02*
X4471Y5120D01*
X4067Y5119D02*
X4170Y5119D01*
X4367Y5119D02*
X4470Y5119D01*
X4067Y5118D02*
X4170Y5118D01*
X4367Y5118D02*
X4470Y5118D01*
X4068Y5117D02*
X4169Y5117D01*
X4368Y5117D02*
X4469Y5117D01*
X4069Y5116D02*
X4168Y5116D01*
X4369Y5116D02*
X4468Y5116D01*
X4070Y5115D02*
X4168Y5115D01*
X4369Y5115D02*
X4468Y5115D01*
X4070Y5114D02*
X4167Y5114D01*
X4370Y5114D02*
X4467Y5114D01*
X4071Y5113D02*
X4166Y5113D01*
X4371Y5113D02*
X4466Y5113D01*
X4072Y5112D02*
X4165Y5112D01*
X4372Y5112D02*
X4465Y5112D01*
X4074Y5111D02*
X4163Y5111D01*
X4374Y5111D02*
X4463Y5111D01*
X4075Y5110D02*
X4162Y5110D01*
X4375Y5110D02*
X4462Y5110D01*
X4077Y5109D02*
X4161Y5109D01*
X4377Y5109D02*
X4461Y5109D01*
X4078Y5108D02*
X4159Y5108D01*
X4378Y5108D02*
X4459Y5108D01*
X4080Y5107D02*
X4157Y5107D01*
X4380Y5107D02*
X4457Y5107D01*
X4083Y5106D02*
X4154Y5106D01*
X4383Y5106D02*
X4454Y5106D01*
X4086Y5105D02*
X4151Y5105D01*
X4386Y5105D02*
X4451Y5105D01*
X4091Y4866D02*
X4146Y4866D01*
X4391Y4866D02*
X4446Y4866D01*
X4085Y4865D02*
X4152Y4865D01*
X4385Y4865D02*
X4452Y4865D01*
X4082Y4864D02*
X4155Y4864D01*
X4382Y4864D02*
X4455Y4864D01*
X4080Y4863D02*
X4157Y4863D01*
X4380Y4863D02*
X4457Y4863D01*
X4078Y4862D02*
X4159Y4862D01*
X4378Y4862D02*
X4459Y4862D01*
X4076Y4861D02*
X4161Y4861D01*
X4376Y4861D02*
X4461Y4861D01*
X4075Y4860D02*
X4162Y4860D01*
X4375Y4860D02*
X4462Y4860D01*
X4073Y4859D02*
X4164Y4859D01*
X4373Y4859D02*
X4464Y4859D01*
X4072Y4858D02*
X4165Y4858D01*
X4372Y4858D02*
X4465Y4858D01*
X4071Y4857D02*
X4166Y4857D01*
X4371Y4857D02*
X4466Y4857D01*
X4070Y4856D02*
X4167Y4856D01*
X4370Y4856D02*
X4467Y4856D01*
X4069Y4855D02*
X4168Y4855D01*
X4369Y4855D02*
X4468Y4855D01*
X4069Y4854D02*
X4169Y4854D01*
X4369Y4854D02*
X4469Y4854D01*
X4068Y4853D02*
X4169Y4853D01*
X4368Y4853D02*
X4469Y4853D01*
X4067Y4852D02*
X4170Y4852D01*
X4367Y4852D02*
X4470Y4852D01*
X4067Y4851D02*
X4171Y4851D01*
X4367Y4851D02*
X4471Y4851D01*
X4066Y4850D02*
X4171Y4850D01*
X4366Y4850D02*
X4471Y4850D01*
X4065Y4849D02*
X4172Y4849D01*
X4365Y4849D02*
X4472Y4849D01*
X4065Y4848D02*
X4172Y4848D01*
X4365Y4848D02*
X4472Y4848D01*
X4065Y4847D02*
X4173Y4847D01*
X4365Y4847D02*
X4473Y4847D01*
X4064Y4846D02*
X4117Y4846D01*
X4121Y4846D02*
X4173Y4846D01*
X4364Y4846D02*
X4417Y4846D01*
X4421Y4846D02*
X4473Y4846D01*
X4064Y4845D02*
X4113Y4845D01*
X4124Y4845D02*
X4173Y4845D01*
X4364Y4845D02*
X4413Y4845D01*
X4424Y4845D02*
X4473Y4845D01*
X4063Y4844D02*
X4112Y4844D01*
X4126Y4844D02*
X4174Y4844D01*
X4363Y4844D02*
X4412Y4844D01*
X4426Y4844D02*
X4474Y4844D01*
X4063Y4843D02*
X4110Y4843D01*
X4127Y4843D02*
X4174Y4843D01*
X4363Y4843D02*
X4410Y4843D01*
X4427Y4843D02*
X4474Y4843D01*
X4063Y4842D02*
X4110Y4842D01*
X4128Y4842D02*
X4174Y4842D01*
X4363Y4842D02*
X4409Y4842D01*
X4428Y4842D02*
X4474Y4842D01*
X4063Y4841D02*
X4109Y4841D01*
X4128Y4841D02*
X4174Y4841D01*
X4363Y4841D02*
X4409Y4841D01*
X4428Y4841D02*
X4474Y4841D01*
X4063Y4840D02*
X4108Y4840D01*
X4129Y4840D02*
X4175Y4840D01*
X4363Y4840D02*
X4408Y4840D01*
X4429Y4840D02*
X4475Y4840D01*
X4062Y4839D02*
X4108Y4839D01*
X4129Y4839D02*
X4175Y4839D01*
X4362Y4839D02*
X4408Y4839D01*
X4429Y4839D02*
X4475Y4839D01*
X4062Y4838D02*
X4107Y4838D01*
X4130Y4838D02*
X4175Y4838D01*
X4362Y4838D02*
X4407Y4838D01*
X4430Y4838D02*
X4475Y4838D01*
X4062Y4837D02*
X4107Y4837D01*
X4130Y4837D02*
X4175Y4837D01*
X4362Y4837D02*
X4407Y4837D01*
X4430Y4837D02*
X4475Y4837D01*
X4062Y4836D02*
X4107Y4836D01*
X4130Y4836D02*
X4175Y4836D01*
X4362Y4836D02*
X4407Y4836D01*
X4430Y4836D02*
X4475Y4836D01*
X4062Y4835D02*
X4107Y4835D01*
X4130Y4835D02*
X4175Y4835D01*
X4362Y4835D02*
X4407Y4835D01*
X4430Y4835D02*
X4475Y4835D01*
X4062Y4834D02*
X4107Y4834D01*
X4130Y4834D02*
X4175Y4834D01*
X4362Y4834D02*
X4407Y4834D01*
X4430Y4834D02*
X4475Y4834D01*
X4062Y4833D02*
X4107Y4833D01*
X4130Y4833D02*
X4175Y4833D01*
X4362Y4833D02*
X4407Y4833D01*
X4430Y4833D02*
X4475Y4833D01*
X4062Y4832D02*
X4107Y4832D01*
X4130Y4832D02*
X4175Y4832D01*
X4362Y4832D02*
X4407Y4832D01*
X4430Y4832D02*
X4475Y4832D01*
X4062Y4831D02*
X4108Y4831D01*
X4129Y4831D02*
X4175Y4831D01*
X4362Y4831D02*
X4408Y4831D01*
X4429Y4831D02*
X4475Y4831D01*
X4063Y4830D02*
X4108Y4830D01*
X4129Y4830D02*
X4175Y4830D01*
X4363Y4830D02*
X4408Y4830D01*
X4429Y4830D02*
X4475Y4830D01*
X4063Y4829D02*
X4109Y4829D01*
X4128Y4829D02*
X4174Y4829D01*
X4363Y4829D02*
X4409Y4829D01*
X4428Y4829D02*
X4474Y4829D01*
X4063Y4828D02*
X4110Y4828D01*
X4127Y4828D02*
X4174Y4828D01*
X4363Y4828D02*
X4410Y4828D01*
X4427Y4828D02*
X4474Y4828D01*
X4063Y4827D02*
X4111Y4827D01*
X4126Y4827D02*
X4174Y4827D01*
X4363Y4827D02*
X4411Y4827D01*
X4426Y4827D02*
X4474Y4827D01*
X4064Y4826D02*
X4112Y4826D01*
X4125Y4826D02*
X4174Y4826D01*
X4364Y4826D02*
X4412Y4826D01*
X4425Y4826D02*
X4474Y4826D01*
X4064Y4825D02*
X4114Y4825D01*
X4124Y4825D02*
X4173Y4825D01*
X4364Y4825D02*
X4414Y4825D01*
X4424Y4825D02*
X4473Y4825D01*
X4064Y4824D02*
X4173Y4824D01*
X4364Y4824D02*
X4473Y4824D01*
X4065Y4823D02*
X4172Y4823D01*
X4365Y4823D02*
X4472Y4823D01*
X4065Y4822D02*
X4172Y4822D01*
X4365Y4822D02*
X4472Y4822D01*
X4066Y4821D02*
X4172Y4821D01*
X4366Y4821D02*
X4472Y4821D01*
X4066Y4820D02*
X4171Y4820D01*
X4366Y4820D02*
X4471Y4820D01*
X4067Y4819D02*
X4170Y4819D01*
X4367Y4819D02*
X4470Y4819D01*
X4067Y4818D02*
X4170Y4818D01*
X4367Y4818D02*
X4470Y4818D01*
X4068Y4817D02*
X4169Y4817D01*
X4368Y4817D02*
X4469Y4817D01*
X4069Y4816D02*
X4168Y4816D01*
X4369Y4816D02*
X4468Y4816D01*
X4070Y4815D02*
X4168Y4815D01*
X4370Y4815D02*
X4468Y4815D01*
X4070Y4814D02*
X4167Y4814D01*
X4370Y4814D02*
X4467Y4814D01*
X4071Y4813D02*
X4166Y4813D01*
X4371Y4813D02*
X4466Y4813D01*
X4072Y4812D02*
X4165Y4812D01*
X4372Y4812D02*
X4465Y4812D01*
X4074Y4811D02*
X4163Y4811D01*
X4374Y4811D02*
X4463Y4811D01*
X4075Y4810D02*
X4162Y4810D01*
X4375Y4810D02*
X4462Y4810D01*
X4077Y4809D02*
X4161Y4809D01*
X4377Y4809D02*
X4461Y4809D01*
X4078Y4808D02*
X4159Y4808D01*
X4378Y4808D02*
X4459Y4808D01*
X4080Y4807D02*
X4157Y4807D01*
X4380Y4807D02*
X4457Y4807D01*
X4083Y4806D02*
X4154Y4806D01*
X4383Y4806D02*
X4454Y4806D01*
X4086Y4805D02*
X4151Y4805D01*
X4386Y4805D02*
X4451Y4805D01*
X4091Y4766D02*
X4146Y4766D01*
X4391Y4766D02*
X4446Y4766D01*
X4085Y4765D02*
X4152Y4765D01*
X4385Y4765D02*
X4452Y4765D01*
X4082Y4764D02*
X4155Y4764D01*
X4382Y4764D02*
X4455Y4764D01*
X4080Y4763D02*
X4157Y4763D01*
X4380Y4763D02*
X4457Y4763D01*
X4078Y4762D02*
X4159Y4762D01*
X4378Y4762D02*
X4459Y4762D01*
X4076Y4761D02*
X4161Y4761D01*
X4376Y4761D02*
X4461Y4761D01*
X4075Y4760D02*
X4162Y4760D01*
X4375Y4760D02*
X4462Y4760D01*
X4073Y4759D02*
X4164Y4759D01*
X4373Y4759D02*
X4464Y4759D01*
X4072Y4758D02*
X4165Y4758D01*
X4372Y4758D02*
X4465Y4758D01*
X4071Y4757D02*
X4166Y4757D01*
X4371Y4757D02*
X4466Y4757D01*
X4070Y4756D02*
X4167Y4756D01*
X4370Y4756D02*
X4467Y4756D01*
X4069Y4755D02*
X4168Y4755D01*
X4369Y4755D02*
X4468Y4755D01*
X4069Y4754D02*
X4169Y4754D01*
X4369Y4754D02*
X4469Y4754D01*
X4068Y4753D02*
X4169Y4753D01*
X4368Y4753D02*
X4469Y4753D01*
X4067Y4752D02*
X4170Y4752D01*
X4367Y4752D02*
X4470Y4752D01*
X4067Y4751D02*
X4171Y4751D01*
X4367Y4751D02*
X4471Y4751D01*
X4066Y4750D02*
X4171Y4750D01*
X4366Y4750D02*
X4471Y4750D01*
X4065Y4749D02*
X4172Y4749D01*
X4365Y4749D02*
X4472Y4749D01*
X4065Y4748D02*
X4172Y4748D01*
X4365Y4748D02*
X4472Y4748D01*
X4065Y4747D02*
X4173Y4747D01*
X4365Y4747D02*
X4473Y4747D01*
X4064Y4746D02*
X4117Y4746D01*
X4121Y4746D02*
X4173Y4746D01*
X4364Y4746D02*
X4417Y4746D01*
X4421Y4746D02*
X4473Y4746D01*
X4064Y4745D02*
X4113Y4745D01*
X4124Y4745D02*
X4173Y4745D01*
X4364Y4745D02*
X4413Y4745D01*
X4424Y4745D02*
X4473Y4745D01*
X4063Y4744D02*
X4112Y4744D01*
X4126Y4744D02*
X4174Y4744D01*
X4363Y4744D02*
X4412Y4744D01*
X4426Y4744D02*
X4474Y4744D01*
X4063Y4743D02*
X4110Y4743D01*
X4127Y4743D02*
X4174Y4743D01*
X4363Y4743D02*
X4410Y4743D01*
X4427Y4743D02*
X4474Y4743D01*
X4063Y4742D02*
X4110Y4742D01*
X4128Y4742D02*
X4174Y4742D01*
X4363Y4742D02*
X4409Y4742D01*
X4428Y4742D02*
X4474Y4742D01*
X4063Y4741D02*
X4109Y4741D01*
X4128Y4741D02*
X4174Y4741D01*
X4363Y4741D02*
X4409Y4741D01*
X4428Y4741D02*
X4474Y4741D01*
X4063Y4740D02*
X4108Y4740D01*
X4129Y4740D02*
X4175Y4740D01*
X4363Y4740D02*
X4408Y4740D01*
X4429Y4740D02*
X4475Y4740D01*
X4062Y4739D02*
X4108Y4739D01*
X4129Y4739D02*
X4175Y4739D01*
X4362Y4739D02*
X4408Y4739D01*
X4429Y4739D02*
X4475Y4739D01*
X4062Y4738D02*
X4107Y4738D01*
X4130Y4738D02*
X4175Y4738D01*
X4362Y4738D02*
X4407Y4738D01*
X4430Y4738D02*
X4475Y4738D01*
X4062Y4737D02*
X4107Y4737D01*
X4130Y4737D02*
X4175Y4737D01*
X4362Y4737D02*
X4407Y4737D01*
X4430Y4737D02*
X4475Y4737D01*
X4062Y4736D02*
X4107Y4736D01*
X4130Y4736D02*
X4175Y4736D01*
X4362Y4736D02*
X4407Y4736D01*
X4430Y4736D02*
X4475Y4736D01*
X4062Y4735D02*
X4107Y4735D01*
X4130Y4735D02*
X4175Y4735D01*
X4362Y4735D02*
X4407Y4735D01*
X4430Y4735D02*
X4475Y4735D01*
X4062Y4734D02*
X4107Y4734D01*
X4130Y4734D02*
X4175Y4734D01*
X4362Y4734D02*
X4407Y4734D01*
X4430Y4734D02*
X4475Y4734D01*
X4062Y4733D02*
X4107Y4733D01*
X4130Y4733D02*
X4175Y4733D01*
X4362Y4733D02*
X4407Y4733D01*
X4430Y4733D02*
X4475Y4733D01*
X4062Y4732D02*
X4107Y4732D01*
X4130Y4732D02*
X4175Y4732D01*
X4362Y4732D02*
X4407Y4732D01*
X4430Y4732D02*
X4475Y4732D01*
X4062Y4731D02*
X4108Y4731D01*
X4129Y4731D02*
X4175Y4731D01*
X4362Y4731D02*
X4408Y4731D01*
X4429Y4731D02*
X4475Y4731D01*
X4063Y4730D02*
X4108Y4730D01*
X4129Y4730D02*
X4175Y4730D01*
X4363Y4730D02*
X4408Y4730D01*
X4429Y4730D02*
X4475Y4730D01*
X4063Y4729D02*
X4109Y4729D01*
X4128Y4729D02*
X4174Y4729D01*
X4363Y4729D02*
X4409Y4729D01*
X4428Y4729D02*
X4474Y4729D01*
X4063Y4728D02*
X4110Y4728D01*
X4127Y4728D02*
X4174Y4728D01*
X4363Y4728D02*
X4410Y4728D01*
X4427Y4728D02*
X4474Y4728D01*
X4063Y4727D02*
X4111Y4727D01*
X4126Y4727D02*
X4174Y4727D01*
X4363Y4727D02*
X4411Y4727D01*
X4426Y4727D02*
X4474Y4727D01*
X4064Y4726D02*
X4112Y4726D01*
X4125Y4726D02*
X4174Y4726D01*
X4364Y4726D02*
X4412Y4726D01*
X4425Y4726D02*
X4474Y4726D01*
X4064Y4725D02*
X4114Y4725D01*
X4124Y4725D02*
X4173Y4725D01*
X4364Y4725D02*
X4414Y4725D01*
X4423Y4725D02*
X4473Y4725D01*
X4064Y4724D02*
X4173Y4724D01*
X4364Y4724D02*
X4473Y4724D01*
X4065Y4723D02*
X4172Y4723D01*
X4365Y4723D02*
X4472Y4723D01*
X4065Y4722D02*
X4172Y4722D01*
X4365Y4722D02*
X4472Y4722D01*
X4066Y4721D02*
X4172Y4721D01*
X4366Y4721D02*
X4472Y4721D01*
X4066Y4720D02*
X4171Y4720D01*
X4366Y4720D02*
X4471Y4720D01*
X4067Y4719D02*
X4170Y4719D01*
X4367Y4719D02*
X4470Y4719D01*
X4067Y4718D02*
X4170Y4718D01*
X4367Y4718D02*
X4470Y4718D01*
X4068Y4717D02*
X4169Y4717D01*
X4368Y4717D02*
X4469Y4717D01*
X4069Y4716D02*
X4168Y4716D01*
X4369Y4716D02*
X4468Y4716D01*
X4070Y4715D02*
X4168Y4715D01*
X4370Y4715D02*
X4468Y4715D01*
X4070Y4714D02*
X4167Y4714D01*
X4370Y4714D02*
X4467Y4714D01*
X4071Y4713D02*
X4166Y4713D01*
X4371Y4713D02*
X4466Y4713D01*
X4072Y4712D02*
X4165Y4712D01*
X4372Y4712D02*
X4465Y4712D01*
X4074Y4711D02*
X4163Y4711D01*
X4374Y4711D02*
X4463Y4711D01*
X4075Y4710D02*
X4162Y4710D01*
X4375Y4710D02*
X4462Y4710D01*
X4077Y4709D02*
X4161Y4709D01*
X4377Y4709D02*
X4461Y4709D01*
X4078Y4708D02*
X4159Y4708D01*
X4378Y4708D02*
X4459Y4708D01*
X4080Y4707D02*
X4157Y4707D01*
X4380Y4707D02*
X4457Y4707D01*
X4083Y4706D02*
X4154Y4706D01*
X4383Y4706D02*
X4454Y4706D01*
X4086Y4705D02*
X4151Y4705D01*
X4386Y4705D02*
X4451Y4705D01*
X4091Y4666D02*
X4146Y4666D01*
X4391Y4666D02*
X4446Y4666D01*
X4085Y4665D02*
X4152Y4665D01*
X4385Y4665D02*
X4452Y4665D01*
X4082Y4664D02*
X4155Y4664D01*
X4382Y4664D02*
X4455Y4664D01*
X4080Y4663D02*
X4157Y4663D01*
X4380Y4663D02*
X4457Y4663D01*
X4078Y4662D02*
X4159Y4662D01*
X4378Y4662D02*
X4459Y4662D01*
X4076Y4661D02*
X4161Y4661D01*
X4376Y4661D02*
X4461Y4661D01*
X4075Y4660D02*
X4162Y4660D01*
X4375Y4660D02*
X4462Y4660D01*
X4073Y4659D02*
X4164Y4659D01*
X4373Y4659D02*
X4464Y4659D01*
X4072Y4658D02*
X4165Y4658D01*
X4372Y4658D02*
X4465Y4658D01*
X4071Y4657D02*
X4166Y4657D01*
X4371Y4657D02*
X4466Y4657D01*
X4070Y4656D02*
X4167Y4656D01*
X4370Y4656D02*
X4467Y4656D01*
X4069Y4655D02*
X4168Y4655D01*
X4369Y4655D02*
X4468Y4655D01*
X4069Y4654D02*
X4169Y4654D01*
X4369Y4654D02*
X4469Y4654D01*
X4068Y4653D02*
X4169Y4653D01*
X4368Y4653D02*
X4469Y4653D01*
X4067Y4652D02*
X4170Y4652D01*
X4367Y4652D02*
X4470Y4652D01*
X4067Y4651D02*
X4171Y4651D01*
X4367Y4651D02*
X4471Y4651D01*
X4066Y4650D02*
X4171Y4650D01*
X4366Y4650D02*
X4471Y4650D01*
X4065Y4649D02*
X4172Y4649D01*
X4365Y4649D02*
X4472Y4649D01*
X4065Y4648D02*
X4172Y4648D01*
X4365Y4648D02*
X4472Y4648D01*
X4065Y4647D02*
X4173Y4647D01*
X4365Y4647D02*
X4473Y4647D01*
X4064Y4646D02*
X4117Y4646D01*
X4121Y4646D02*
X4173Y4646D01*
X4364Y4646D02*
X4417Y4646D01*
X4421Y4646D02*
X4473Y4646D01*
X4064Y4645D02*
X4113Y4645D01*
X4124Y4645D02*
X4173Y4645D01*
X4364Y4645D02*
X4413Y4645D01*
X4424Y4645D02*
X4473Y4645D01*
X4063Y4644D02*
X4112Y4644D01*
X4126Y4644D02*
X4174Y4644D01*
X4363Y4644D02*
X4412Y4644D01*
X4426Y4644D02*
X4474Y4644D01*
X4063Y4643D02*
X4110Y4643D01*
X4127Y4643D02*
X4174Y4643D01*
X4363Y4643D02*
X4410Y4643D01*
X4427Y4643D02*
X4474Y4643D01*
X4063Y4642D02*
X4110Y4642D01*
X4128Y4642D02*
X4174Y4642D01*
X4363Y4642D02*
X4409Y4642D01*
X4428Y4642D02*
X4474Y4642D01*
X4063Y4641D02*
X4109Y4641D01*
X4128Y4641D02*
X4174Y4641D01*
X4363Y4641D02*
X4409Y4641D01*
X4428Y4641D02*
X4474Y4641D01*
X4063Y4640D02*
X4108Y4640D01*
X4129Y4640D02*
X4175Y4640D01*
X4363Y4640D02*
X4408Y4640D01*
X4429Y4640D02*
X4475Y4640D01*
X4062Y4639D02*
X4108Y4639D01*
X4129Y4639D02*
X4175Y4639D01*
X4362Y4639D02*
X4408Y4639D01*
X4429Y4639D02*
X4475Y4639D01*
X4062Y4638D02*
X4107Y4638D01*
X4130Y4638D02*
X4175Y4638D01*
X4362Y4638D02*
X4407Y4638D01*
X4430Y4638D02*
X4475Y4638D01*
X4062Y4637D02*
X4107Y4637D01*
X4130Y4637D02*
X4175Y4637D01*
X4362Y4637D02*
X4407Y4637D01*
X4430Y4637D02*
X4475Y4637D01*
X4062Y4636D02*
X4107Y4636D01*
X4130Y4636D02*
X4175Y4636D01*
X4362Y4636D02*
X4407Y4636D01*
X4430Y4636D02*
X4475Y4636D01*
X4062Y4635D02*
X4107Y4635D01*
X4130Y4635D02*
X4175Y4635D01*
X4362Y4635D02*
X4407Y4635D01*
X4430Y4635D02*
X4475Y4635D01*
X4062Y4634D02*
X4107Y4634D01*
X4130Y4634D02*
X4175Y4634D01*
X4362Y4634D02*
X4407Y4634D01*
X4430Y4634D02*
X4475Y4634D01*
X4062Y4633D02*
X4107Y4633D01*
X4130Y4633D02*
X4175Y4633D01*
X4362Y4633D02*
X4407Y4633D01*
X4430Y4633D02*
X4475Y4633D01*
X4062Y4632D02*
X4107Y4632D01*
X4130Y4632D02*
X4175Y4632D01*
X4362Y4632D02*
X4407Y4632D01*
X4430Y4632D02*
X4475Y4632D01*
X4062Y4631D02*
X4108Y4631D01*
X4129Y4631D02*
X4175Y4631D01*
X4362Y4631D02*
X4408Y4631D01*
X4429Y4631D02*
X4475Y4631D01*
X4063Y4630D02*
X4108Y4630D01*
X4129Y4630D02*
X4175Y4630D01*
X4363Y4630D02*
X4408Y4630D01*
X4429Y4630D02*
X4475Y4630D01*
X4063Y4629D02*
X4109Y4629D01*
X4128Y4629D02*
X4174Y4629D01*
X4363Y4629D02*
X4409Y4629D01*
X4428Y4629D02*
X4474Y4629D01*
X4063Y4628D02*
X4110Y4628D01*
X4127Y4628D02*
X4174Y4628D01*
X4363Y4628D02*
X4410Y4628D01*
X4427Y4628D02*
X4474Y4628D01*
X4063Y4627D02*
X4111Y4627D01*
X4126Y4627D02*
X4174Y4627D01*
X4363Y4627D02*
X4411Y4627D01*
X4426Y4627D02*
X4474Y4627D01*
X4064Y4626D02*
X4112Y4626D01*
X4125Y4626D02*
X4174Y4626D01*
X4364Y4626D02*
X4412Y4626D01*
X4425Y4626D02*
X4474Y4626D01*
X4064Y4625D02*
X4114Y4625D01*
X4123Y4625D02*
X4173Y4625D01*
X4364Y4625D02*
X4414Y4625D01*
X4423Y4625D02*
X4473Y4625D01*
X4064Y4624D02*
X4173Y4624D01*
X4364Y4624D02*
X4473Y4624D01*
X4065Y4623D02*
X4172Y4623D01*
X4365Y4623D02*
X4472Y4623D01*
X4065Y4622D02*
X4172Y4622D01*
X4365Y4622D02*
X4472Y4622D01*
X4066Y4621D02*
X4172Y4621D01*
X4366Y4621D02*
X4472Y4621D01*
X4066Y4620D02*
X4171Y4620D01*
X4366Y4620D02*
X4471Y4620D01*
X4067Y4619D02*
X4170Y4619D01*
X4367Y4619D02*
X4470Y4619D01*
X4067Y4618D02*
X4170Y4618D01*
X4367Y4618D02*
X4470Y4618D01*
X4068Y4617D02*
X4169Y4617D01*
X4368Y4617D02*
X4469Y4617D01*
X4069Y4616D02*
X4168Y4616D01*
X4369Y4616D02*
X4468Y4616D01*
X4070Y4615D02*
X4168Y4615D01*
X4370Y4615D02*
X4468Y4615D01*
X4070Y4614D02*
X4167Y4614D01*
X4370Y4614D02*
X4467Y4614D01*
X4071Y4613D02*
X4166Y4613D01*
X4371Y4613D02*
X4466Y4613D01*
X4072Y4612D02*
X4165Y4612D01*
X4372Y4612D02*
X4465Y4612D01*
X4074Y4611D02*
X4163Y4611D01*
X4374Y4611D02*
X4463Y4611D01*
X4075Y4610D02*
X4162Y4610D01*
X4375Y4610D02*
X4462Y4610D01*
X4077Y4609D02*
X4161Y4609D01*
X4377Y4609D02*
X4461Y4609D01*
X4078Y4608D02*
X4159Y4608D01*
X4378Y4608D02*
X4459Y4608D01*
X4080Y4607D02*
X4157Y4607D01*
X4380Y4607D02*
X4457Y4607D01*
X4083Y4606D02*
X4154Y4606D01*
X4383Y4606D02*
X4454Y4606D01*
X4086Y4605D02*
X4151Y4605D01*
X4386Y4605D02*
X4451Y4605D01*
X4090Y4566D02*
X4147Y4566D01*
X4390Y4566D02*
X4447Y4566D01*
X4085Y4565D02*
X4152Y4565D01*
X4385Y4565D02*
X4452Y4565D01*
X4082Y4564D02*
X4155Y4564D01*
X4382Y4564D02*
X4455Y4564D01*
X4080Y4563D02*
X4157Y4563D01*
X4380Y4563D02*
X4457Y4563D01*
X4078Y4562D02*
X4159Y4562D01*
X4378Y4562D02*
X4459Y4562D01*
X4076Y4561D02*
X4161Y4561D01*
X4376Y4561D02*
X4461Y4561D01*
X4075Y4560D02*
X4162Y4560D01*
X4375Y4560D02*
X4462Y4560D01*
X4073Y4559D02*
X4164Y4559D01*
X4373Y4559D02*
X4464Y4559D01*
X4072Y4558D02*
X4165Y4558D01*
X4372Y4558D02*
X4465Y4558D01*
X4071Y4557D02*
X4166Y4557D01*
X4371Y4557D02*
X4466Y4557D01*
X4070Y4556D02*
X4167Y4556D01*
X4370Y4556D02*
X4467Y4556D01*
X4069Y4555D02*
X4168Y4555D01*
X4369Y4555D02*
X4468Y4555D01*
X4069Y4554D02*
X4169Y4554D01*
X4369Y4554D02*
X4469Y4554D01*
X4068Y4553D02*
X4169Y4553D01*
X4368Y4553D02*
X4469Y4553D01*
X4067Y4552D02*
X4170Y4552D01*
X4367Y4552D02*
X4470Y4552D01*
X4067Y4551D02*
X4171Y4551D01*
X4367Y4551D02*
X4471Y4551D01*
X4066Y4550D02*
X4171Y4550D01*
X4366Y4550D02*
X4471Y4550D01*
X4065Y4549D02*
X4172Y4549D01*
X4365Y4549D02*
X4472Y4549D01*
X4065Y4548D02*
X4172Y4548D01*
X4365Y4548D02*
X4472Y4548D01*
X4065Y4547D02*
X4173Y4547D01*
X4365Y4547D02*
X4473Y4547D01*
X4064Y4546D02*
X4116Y4546D01*
X4121Y4546D02*
X4173Y4546D01*
X4364Y4546D02*
X4416Y4546D01*
X4421Y4546D02*
X4473Y4546D01*
X4064Y4545D02*
X4113Y4545D01*
X4124Y4545D02*
X4173Y4545D01*
X4364Y4545D02*
X4413Y4545D01*
X4424Y4545D02*
X4473Y4545D01*
X4063Y4544D02*
X4112Y4544D01*
X4126Y4544D02*
X4174Y4544D01*
X4363Y4544D02*
X4412Y4544D01*
X4426Y4544D02*
X4474Y4544D01*
X4063Y4543D02*
X4110Y4543D01*
X4127Y4543D02*
X4174Y4543D01*
X4363Y4543D02*
X4410Y4543D01*
X4427Y4543D02*
X4474Y4543D01*
X4063Y4542D02*
X4110Y4542D01*
X4128Y4542D02*
X4174Y4542D01*
X4363Y4542D02*
X4409Y4542D01*
X4428Y4542D02*
X4474Y4542D01*
X4063Y4541D02*
X4109Y4541D01*
X4128Y4541D02*
X4174Y4541D01*
X4363Y4541D02*
X4409Y4541D01*
X4428Y4541D02*
X4474Y4541D01*
X4063Y4540D02*
X4108Y4540D01*
X4129Y4540D02*
X4175Y4540D01*
X4363Y4540D02*
X4408Y4540D01*
X4429Y4540D02*
X4475Y4540D01*
X4062Y4539D02*
X4108Y4539D01*
X4129Y4539D02*
X4175Y4539D01*
X4362Y4539D02*
X4408Y4539D01*
X4429Y4539D02*
X4475Y4539D01*
X4062Y4538D02*
X4107Y4538D01*
X4130Y4538D02*
X4175Y4538D01*
X4362Y4538D02*
X4407Y4538D01*
X4430Y4538D02*
X4475Y4538D01*
X4062Y4537D02*
X4107Y4537D01*
X4130Y4537D02*
X4175Y4537D01*
X4362Y4537D02*
X4407Y4537D01*
X4430Y4537D02*
X4475Y4537D01*
X4062Y4536D02*
X4107Y4536D01*
X4130Y4536D02*
X4175Y4536D01*
X4362Y4536D02*
X4407Y4536D01*
X4430Y4536D02*
X4475Y4536D01*
X4062Y4535D02*
X4107Y4535D01*
X4130Y4535D02*
X4175Y4535D01*
X4362Y4535D02*
X4407Y4535D01*
X4430Y4535D02*
X4475Y4535D01*
X4062Y4534D02*
X4107Y4534D01*
X4130Y4534D02*
X4175Y4534D01*
X4362Y4534D02*
X4407Y4534D01*
X4430Y4534D02*
X4475Y4534D01*
X4062Y4533D02*
X4107Y4533D01*
X4130Y4533D02*
X4175Y4533D01*
X4362Y4533D02*
X4407Y4533D01*
X4430Y4533D02*
X4475Y4533D01*
X4062Y4532D02*
X4107Y4532D01*
X4130Y4532D02*
X4175Y4532D01*
X4362Y4532D02*
X4407Y4532D01*
X4430Y4532D02*
X4475Y4532D01*
X4062Y4531D02*
X4108Y4531D01*
X4129Y4531D02*
X4175Y4531D01*
X4362Y4531D02*
X4408Y4531D01*
X4429Y4531D02*
X4475Y4531D01*
X4063Y4530D02*
X4108Y4530D01*
X4129Y4530D02*
X4175Y4530D01*
X4363Y4530D02*
X4408Y4530D01*
X4429Y4530D02*
X4475Y4530D01*
X4063Y4529D02*
X4109Y4529D01*
X4128Y4529D02*
X4174Y4529D01*
X4363Y4529D02*
X4409Y4529D01*
X4428Y4529D02*
X4474Y4529D01*
X4063Y4528D02*
X4110Y4528D01*
X4127Y4528D02*
X4174Y4528D01*
X4363Y4528D02*
X4410Y4528D01*
X4427Y4528D02*
X4474Y4528D01*
X4063Y4527D02*
X4111Y4527D01*
X4126Y4527D02*
X4174Y4527D01*
X4363Y4527D02*
X4411Y4527D01*
X4426Y4527D02*
X4474Y4527D01*
X4064Y4526D02*
X4112Y4526D01*
X4125Y4526D02*
X4174Y4526D01*
X4364Y4526D02*
X4412Y4526D01*
X4425Y4526D02*
X4474Y4526D01*
X4064Y4525D02*
X4114Y4525D01*
X4123Y4525D02*
X4173Y4525D01*
X4364Y4525D02*
X4414Y4525D01*
X4423Y4525D02*
X4473Y4525D01*
X4064Y4524D02*
X4173Y4524D01*
X4364Y4524D02*
X4473Y4524D01*
X4065Y4523D02*
X4172Y4523D01*
X4365Y4523D02*
X4472Y4523D01*
X4065Y4522D02*
X4172Y4522D01*
X4365Y4522D02*
X4472Y4522D01*
X4066Y4521D02*
X4172Y4521D01*
X4366Y4521D02*
X4472Y4521D01*
X4066Y4520D02*
X4171Y4520D01*
X4366Y4520D02*
X4471Y4520D01*
X4067Y4519D02*
X4170Y4519D01*
X4367Y4519D02*
X4470Y4519D01*
X4067Y4518D02*
X4170Y4518D01*
X4367Y4518D02*
X4470Y4518D01*
X4068Y4517D02*
X4169Y4517D01*
X4368Y4517D02*
X4469Y4517D01*
X4069Y4516D02*
X4168Y4516D01*
X4369Y4516D02*
X4468Y4516D01*
X4070Y4515D02*
X4168Y4515D01*
X4370Y4515D02*
X4468Y4515D01*
X4070Y4514D02*
X4167Y4514D01*
X4370Y4514D02*
X4467Y4514D01*
X4071Y4513D02*
X4166Y4513D01*
X4371Y4513D02*
X4466Y4513D01*
X4072Y4512D02*
X4165Y4512D01*
X4372Y4512D02*
X4465Y4512D01*
X4074Y4511D02*
X4163Y4511D01*
X4374Y4511D02*
X4463Y4511D01*
X4075Y4510D02*
X4162Y4510D01*
X4375Y4510D02*
X4462Y4510D01*
X4077Y4509D02*
X4161Y4509D01*
X4377Y4509D02*
X4461Y4509D01*
X4078Y4508D02*
X4159Y4508D01*
X4378Y4508D02*
X4459Y4508D01*
X4080Y4507D02*
X4157Y4507D01*
X4380Y4507D02*
X4457Y4507D01*
X4083Y4506D02*
X4154Y4506D01*
X4383Y4506D02*
X4454Y4506D01*
X4086Y4505D02*
X4151Y4505D01*
X4386Y4505D02*
X4451Y4505D01*
X4090Y4466D02*
X4147Y4466D01*
X4390Y4466D02*
X4447Y4466D01*
X4085Y4465D02*
X4152Y4465D01*
X4385Y4465D02*
X4452Y4465D01*
X4082Y4464D02*
X4155Y4464D01*
X4382Y4464D02*
X4455Y4464D01*
X4080Y4463D02*
X4157Y4463D01*
X4380Y4463D02*
X4457Y4463D01*
X4078Y4462D02*
X4159Y4462D01*
X4378Y4462D02*
X4459Y4462D01*
X4076Y4461D02*
X4161Y4461D01*
X4376Y4461D02*
X4461Y4461D01*
X4075Y4460D02*
X4162Y4460D01*
X4375Y4460D02*
X4462Y4460D01*
X4073Y4459D02*
X4164Y4459D01*
X4373Y4459D02*
X4464Y4459D01*
X4072Y4458D02*
X4165Y4458D01*
X4372Y4458D02*
X4465Y4458D01*
X4071Y4457D02*
X4166Y4457D01*
X4371Y4457D02*
X4466Y4457D01*
X4070Y4456D02*
X4167Y4456D01*
X4370Y4456D02*
X4467Y4456D01*
X4069Y4455D02*
X4168Y4455D01*
X4369Y4455D02*
X4468Y4455D01*
X4069Y4454D02*
X4169Y4454D01*
X4369Y4454D02*
X4469Y4454D01*
X4068Y4453D02*
X4169Y4453D01*
X4368Y4453D02*
X4469Y4453D01*
X4067Y4452D02*
X4170Y4452D01*
X4367Y4452D02*
X4470Y4452D01*
X4067Y4451D02*
X4171Y4451D01*
X4367Y4451D02*
X4471Y4451D01*
X4066Y4450D02*
X4171Y4450D01*
X4366Y4450D02*
X4471Y4450D01*
X4065Y4449D02*
X4172Y4449D01*
X4365Y4449D02*
X4472Y4449D01*
X4065Y4448D02*
X4172Y4448D01*
X4365Y4448D02*
X4472Y4448D01*
X4065Y4447D02*
X4173Y4447D01*
X4365Y4447D02*
X4473Y4447D01*
X4064Y4446D02*
X4116Y4446D01*
X4121Y4446D02*
X4173Y4446D01*
X4364Y4446D02*
X4416Y4446D01*
X4421Y4446D02*
X4473Y4446D01*
X4064Y4445D02*
X4113Y4445D01*
X4124Y4445D02*
X4173Y4445D01*
X4364Y4445D02*
X4413Y4445D01*
X4424Y4445D02*
X4473Y4445D01*
X4063Y4444D02*
X4112Y4444D01*
X4126Y4444D02*
X4174Y4444D01*
X4363Y4444D02*
X4412Y4444D01*
X4426Y4444D02*
X4474Y4444D01*
X4063Y4443D02*
X4110Y4443D01*
X4127Y4443D02*
X4174Y4443D01*
X4363Y4443D02*
X4410Y4443D01*
X4427Y4443D02*
X4474Y4443D01*
X4063Y4442D02*
X4109Y4442D01*
X4128Y4442D02*
X4174Y4442D01*
X4363Y4442D02*
X4409Y4442D01*
X4428Y4442D02*
X4474Y4442D01*
X4063Y4441D02*
X4109Y4441D01*
X4128Y4441D02*
X4174Y4441D01*
X4363Y4441D02*
X4409Y4441D01*
X4428Y4441D02*
X4474Y4441D01*
X4063Y4440D02*
X4108Y4440D01*
X4129Y4440D02*
X4175Y4440D01*
X4363Y4440D02*
X4408Y4440D01*
X4429Y4440D02*
X4475Y4440D01*
X4062Y4439D02*
X4108Y4439D01*
X4129Y4439D02*
X4175Y4439D01*
X4362Y4439D02*
X4408Y4439D01*
X4429Y4439D02*
X4475Y4439D01*
X4062Y4438D02*
X4107Y4438D01*
X4130Y4438D02*
X4175Y4438D01*
X4362Y4438D02*
X4407Y4438D01*
X4430Y4438D02*
X4475Y4438D01*
X4062Y4437D02*
X4107Y4437D01*
X4130Y4437D02*
X4175Y4437D01*
X4362Y4437D02*
X4407Y4437D01*
X4430Y4437D02*
X4475Y4437D01*
X4062Y4436D02*
X4107Y4436D01*
X4130Y4436D02*
X4175Y4436D01*
X4362Y4436D02*
X4407Y4436D01*
X4430Y4436D02*
X4475Y4436D01*
X4062Y4435D02*
X4107Y4435D01*
X4130Y4435D02*
X4175Y4435D01*
X4362Y4435D02*
X4407Y4435D01*
X4430Y4435D02*
X4475Y4435D01*
X4062Y4434D02*
X4107Y4434D01*
X4130Y4434D02*
X4175Y4434D01*
X4362Y4434D02*
X4407Y4434D01*
X4430Y4434D02*
X4475Y4434D01*
X4062Y4433D02*
X4107Y4433D01*
X4130Y4433D02*
X4175Y4433D01*
X4362Y4433D02*
X4407Y4433D01*
X4430Y4433D02*
X4475Y4433D01*
X4062Y4432D02*
X4107Y4432D01*
X4130Y4432D02*
X4175Y4432D01*
X4362Y4432D02*
X4407Y4432D01*
X4430Y4432D02*
X4475Y4432D01*
X4062Y4431D02*
X4108Y4431D01*
X4129Y4431D02*
X4175Y4431D01*
X4362Y4431D02*
X4408Y4431D01*
X4429Y4431D02*
X4475Y4431D01*
X4063Y4430D02*
X4108Y4430D01*
X4129Y4430D02*
X4175Y4430D01*
X4363Y4430D02*
X4408Y4430D01*
X4429Y4430D02*
X4475Y4430D01*
X4063Y4429D02*
X4109Y4429D01*
X4128Y4429D02*
X4174Y4429D01*
X4363Y4429D02*
X4409Y4429D01*
X4428Y4429D02*
X4474Y4429D01*
X4063Y4428D02*
X4110Y4428D01*
X4127Y4428D02*
X4174Y4428D01*
X4363Y4428D02*
X4410Y4428D01*
X4427Y4428D02*
X4474Y4428D01*
X4063Y4427D02*
X4111Y4427D01*
X4126Y4427D02*
X4174Y4427D01*
X4363Y4427D02*
X4411Y4427D01*
X4426Y4427D02*
X4474Y4427D01*
X4064Y4426D02*
X4112Y4426D01*
X4125Y4426D02*
X4174Y4426D01*
X4364Y4426D02*
X4412Y4426D01*
X4425Y4426D02*
X4474Y4426D01*
X4064Y4425D02*
X4114Y4425D01*
X4123Y4425D02*
X4173Y4425D01*
X4364Y4425D02*
X4414Y4425D01*
X4423Y4425D02*
X4473Y4425D01*
X4064Y4424D02*
X4173Y4424D01*
X4364Y4424D02*
X4473Y4424D01*
X4065Y4423D02*
X4172Y4423D01*
X4365Y4423D02*
X4472Y4423D01*
X4065Y4422D02*
X4172Y4422D01*
X4365Y4422D02*
X4472Y4422D01*
X4066Y4421D02*
X4172Y4421D01*
X4366Y4421D02*
X4472Y4421D01*
X4066Y4420D02*
X4171Y4420D01*
X4366Y4420D02*
X4471Y4420D01*
X4067Y4419D02*
X4170Y4419D01*
X4367Y4419D02*
X4470Y4419D01*
X4067Y4418D02*
X4170Y4418D01*
X4367Y4418D02*
X4470Y4418D01*
X4068Y4417D02*
X4169Y4417D01*
X4368Y4417D02*
X4469Y4417D01*
X4069Y4416D02*
X4168Y4416D01*
X4369Y4416D02*
X4468Y4416D01*
X4070Y4415D02*
X4168Y4415D01*
X4370Y4415D02*
X4468Y4415D01*
X4070Y4414D02*
X4167Y4414D01*
X4370Y4414D02*
X4467Y4414D01*
X4071Y4413D02*
X4166Y4413D01*
X4371Y4413D02*
X4466Y4413D01*
X4072Y4412D02*
X4165Y4412D01*
X4372Y4412D02*
X4465Y4412D01*
X4074Y4411D02*
X4163Y4411D01*
X4374Y4411D02*
X4463Y4411D01*
X4075Y4410D02*
X4162Y4410D01*
X4375Y4410D02*
X4462Y4410D01*
X4077Y4409D02*
X4161Y4409D01*
X4377Y4409D02*
X4461Y4409D01*
X4078Y4408D02*
X4159Y4408D01*
X4378Y4408D02*
X4459Y4408D01*
X4080Y4407D02*
X4157Y4407D01*
X4380Y4407D02*
X4457Y4407D01*
X4083Y4406D02*
X4154Y4406D01*
X4383Y4406D02*
X4454Y4406D01*
X4086Y4405D02*
X4151Y4405D01*
X4386Y4405D02*
X4451Y4405D01*
X4090Y4366D02*
X4147Y4366D01*
X4390Y4366D02*
X4447Y4366D01*
X4085Y4365D02*
X4152Y4365D01*
X4385Y4365D02*
X4452Y4365D01*
X4082Y4364D02*
X4155Y4364D01*
X4382Y4364D02*
X4455Y4364D01*
X4080Y4363D02*
X4157Y4363D01*
X4380Y4363D02*
X4457Y4363D01*
X4078Y4362D02*
X4159Y4362D01*
X4378Y4362D02*
X4459Y4362D01*
X4076Y4361D02*
X4161Y4361D01*
X4376Y4361D02*
X4461Y4361D01*
X4075Y4360D02*
X4162Y4360D01*
X4375Y4360D02*
X4462Y4360D01*
X4073Y4359D02*
X4164Y4359D01*
X4373Y4359D02*
X4464Y4359D01*
X4072Y4358D02*
X4165Y4358D01*
X4372Y4358D02*
X4465Y4358D01*
X4071Y4357D02*
X4166Y4357D01*
X4371Y4357D02*
X4466Y4357D01*
X4070Y4356D02*
X4167Y4356D01*
X4370Y4356D02*
X4467Y4356D01*
X4069Y4355D02*
X4168Y4355D01*
X4369Y4355D02*
X4468Y4355D01*
X4069Y4354D02*
X4169Y4354D01*
X4369Y4354D02*
X4469Y4354D01*
X4068Y4353D02*
X4169Y4353D01*
X4368Y4353D02*
X4469Y4353D01*
X4067Y4352D02*
X4170Y4352D01*
X4367Y4352D02*
X4470Y4352D01*
X4067Y4351D02*
X4171Y4351D01*
X4367Y4351D02*
X4471Y4351D01*
X4066Y4350D02*
X4171Y4350D01*
X4366Y4350D02*
X4471Y4350D01*
X4065Y4349D02*
X4172Y4349D01*
X4365Y4349D02*
X4472Y4349D01*
X4065Y4348D02*
X4172Y4348D01*
X4365Y4348D02*
X4472Y4348D01*
X4065Y4347D02*
X4173Y4347D01*
X4365Y4347D02*
X4473Y4347D01*
X4064Y4346D02*
X4116Y4346D01*
X4121Y4346D02*
X4173Y4346D01*
X4364Y4346D02*
X4416Y4346D01*
X4421Y4346D02*
X4473Y4346D01*
X4064Y4345D02*
X4113Y4345D01*
X4124Y4345D02*
X4173Y4345D01*
X4364Y4345D02*
X4413Y4345D01*
X4424Y4345D02*
X4473Y4345D01*
X4063Y4344D02*
X4112Y4344D01*
X4126Y4344D02*
X4174Y4344D01*
X4363Y4344D02*
X4412Y4344D01*
X4426Y4344D02*
X4474Y4344D01*
X4063Y4343D02*
X4110Y4343D01*
X4127Y4343D02*
X4174Y4343D01*
X4363Y4343D02*
X4410Y4343D01*
X4427Y4343D02*
X4474Y4343D01*
X4063Y4342D02*
X4109Y4342D01*
X4128Y4342D02*
X4174Y4342D01*
X4363Y4342D02*
X4409Y4342D01*
X4428Y4342D02*
X4474Y4342D01*
X4063Y4341D02*
X4109Y4341D01*
X4128Y4341D02*
X4174Y4341D01*
X4363Y4341D02*
X4409Y4341D01*
X4428Y4341D02*
X4474Y4341D01*
X4063Y4340D02*
X4108Y4340D01*
X4129Y4340D02*
X4175Y4340D01*
X4363Y4340D02*
X4408Y4340D01*
X4429Y4340D02*
X4475Y4340D01*
X4062Y4339D02*
X4108Y4339D01*
X4129Y4339D02*
X4175Y4339D01*
X4362Y4339D02*
X4408Y4339D01*
X4429Y4339D02*
X4475Y4339D01*
X4062Y4338D02*
X4107Y4338D01*
X4130Y4338D02*
X4175Y4338D01*
X4362Y4338D02*
X4407Y4338D01*
X4430Y4338D02*
X4475Y4338D01*
X4062Y4337D02*
X4107Y4337D01*
X4130Y4337D02*
X4175Y4337D01*
X4362Y4337D02*
X4407Y4337D01*
X4430Y4337D02*
X4475Y4337D01*
X4062Y4336D02*
X4107Y4336D01*
X4130Y4336D02*
X4175Y4336D01*
X4362Y4336D02*
X4407Y4336D01*
X4430Y4336D02*
X4475Y4336D01*
X4062Y4335D02*
X4107Y4335D01*
X4130Y4335D02*
X4175Y4335D01*
X4362Y4335D02*
X4407Y4335D01*
X4430Y4335D02*
X4475Y4335D01*
X4062Y4334D02*
X4107Y4334D01*
X4130Y4334D02*
X4175Y4334D01*
X4362Y4334D02*
X4407Y4334D01*
X4430Y4334D02*
X4475Y4334D01*
X4062Y4333D02*
X4107Y4333D01*
X4130Y4333D02*
X4175Y4333D01*
X4362Y4333D02*
X4407Y4333D01*
X4430Y4333D02*
X4475Y4333D01*
X4062Y4332D02*
X4107Y4332D01*
X4130Y4332D02*
X4175Y4332D01*
X4362Y4332D02*
X4407Y4332D01*
X4430Y4332D02*
X4475Y4332D01*
X4062Y4331D02*
X4108Y4331D01*
X4129Y4331D02*
X4175Y4331D01*
X4362Y4331D02*
X4408Y4331D01*
X4429Y4331D02*
X4475Y4331D01*
X4063Y4330D02*
X4108Y4330D01*
X4129Y4330D02*
X4175Y4330D01*
X4363Y4330D02*
X4408Y4330D01*
X4429Y4330D02*
X4475Y4330D01*
X4063Y4329D02*
X4109Y4329D01*
X4128Y4329D02*
X4174Y4329D01*
X4363Y4329D02*
X4409Y4329D01*
X4428Y4329D02*
X4474Y4329D01*
X4063Y4328D02*
X4110Y4328D01*
X4127Y4328D02*
X4174Y4328D01*
X4363Y4328D02*
X4410Y4328D01*
X4427Y4328D02*
X4474Y4328D01*
X4063Y4327D02*
X4111Y4327D01*
X4126Y4327D02*
X4174Y4327D01*
X4363Y4327D02*
X4411Y4327D01*
X4426Y4327D02*
X4474Y4327D01*
X4064Y4326D02*
X4112Y4326D01*
X4125Y4326D02*
X4174Y4326D01*
X4364Y4326D02*
X4412Y4326D01*
X4425Y4326D02*
X4474Y4326D01*
X4064Y4325D02*
X4114Y4325D01*
X4123Y4325D02*
X4173Y4325D01*
X4364Y4325D02*
X4414Y4325D01*
X4423Y4325D02*
X4473Y4325D01*
X4064Y4324D02*
X4173Y4324D01*
X4364Y4324D02*
X4473Y4324D01*
X4065Y4323D02*
X4172Y4323D01*
X4365Y4323D02*
X4472Y4323D01*
X4065Y4322D02*
X4172Y4322D01*
X4365Y4322D02*
X4472Y4322D01*
X4066Y4321D02*
X4172Y4321D01*
X4366Y4321D02*
X4472Y4321D01*
X4066Y4320D02*
X4171Y4320D01*
X4366Y4320D02*
X4471Y4320D01*
X4067Y4319D02*
X4170Y4319D01*
X4367Y4319D02*
X4470Y4319D01*
X4067Y4318D02*
X4170Y4318D01*
X4367Y4318D02*
X4470Y4318D01*
X4068Y4317D02*
X4169Y4317D01*
X4368Y4317D02*
X4469Y4317D01*
X4069Y4316D02*
X4168Y4316D01*
X4369Y4316D02*
X4468Y4316D01*
X4070Y4315D02*
X4168Y4315D01*
X4370Y4315D02*
X4468Y4315D01*
X4070Y4314D02*
X4167Y4314D01*
X4370Y4314D02*
X4467Y4314D01*
X4071Y4313D02*
X4166Y4313D01*
X4371Y4313D02*
X4466Y4313D01*
X4073Y4312D02*
X4165Y4312D01*
X4372Y4312D02*
X4465Y4312D01*
X4074Y4311D02*
X4163Y4311D01*
X4374Y4311D02*
X4463Y4311D01*
X4075Y4310D02*
X4162Y4310D01*
X4375Y4310D02*
X4462Y4310D01*
X4077Y4309D02*
X4161Y4309D01*
X4377Y4309D02*
X4461Y4309D01*
X4078Y4308D02*
X4159Y4308D01*
X4378Y4308D02*
X4459Y4308D01*
X4080Y4307D02*
X4157Y4307D01*
X4380Y4307D02*
X4457Y4307D01*
X4083Y4306D02*
X4154Y4306D01*
X4383Y4306D02*
X4454Y4306D01*
X4086Y4305D02*
X4151Y4305D01*
X4386Y4305D02*
X4451Y4305D01*
X4090Y4266D02*
X4147Y4266D01*
X4390Y4266D02*
X4447Y4266D01*
X4085Y4265D02*
X4152Y4265D01*
X4385Y4265D02*
X4452Y4265D01*
X4082Y4264D02*
X4155Y4264D01*
X4382Y4264D02*
X4455Y4264D01*
X4080Y4263D02*
X4157Y4263D01*
X4380Y4263D02*
X4457Y4263D01*
X4078Y4262D02*
X4159Y4262D01*
X4378Y4262D02*
X4459Y4262D01*
X4076Y4261D02*
X4161Y4261D01*
X4376Y4261D02*
X4461Y4261D01*
X4075Y4260D02*
X4162Y4260D01*
X4375Y4260D02*
X4462Y4260D01*
X4073Y4259D02*
X4164Y4259D01*
X4373Y4259D02*
X4464Y4259D01*
X4072Y4258D02*
X4165Y4258D01*
X4372Y4258D02*
X4465Y4258D01*
X4071Y4257D02*
X4166Y4257D01*
X4371Y4257D02*
X4466Y4257D01*
X4070Y4256D02*
X4167Y4256D01*
X4370Y4256D02*
X4467Y4256D01*
X4069Y4255D02*
X4168Y4255D01*
X4369Y4255D02*
X4468Y4255D01*
X4069Y4254D02*
X4169Y4254D01*
X4369Y4254D02*
X4469Y4254D01*
X4068Y4253D02*
X4169Y4253D01*
X4368Y4253D02*
X4469Y4253D01*
X4067Y4252D02*
X4170Y4252D01*
X4367Y4252D02*
X4470Y4252D01*
X4067Y4251D02*
X4171Y4251D01*
X4367Y4251D02*
X4471Y4251D01*
X4066Y4250D02*
X4171Y4250D01*
X4366Y4250D02*
X4471Y4250D01*
X4065Y4249D02*
X4172Y4249D01*
X4365Y4249D02*
X4472Y4249D01*
X4065Y4248D02*
X4172Y4248D01*
X4365Y4248D02*
X4472Y4248D01*
X4065Y4247D02*
X4173Y4247D01*
X4365Y4247D02*
X4473Y4247D01*
X4064Y4246D02*
X4116Y4246D01*
X4121Y4246D02*
X4173Y4246D01*
X4364Y4246D02*
X4416Y4246D01*
X4421Y4246D02*
X4473Y4246D01*
X4064Y4245D02*
X4113Y4245D01*
X4124Y4245D02*
X4173Y4245D01*
X4364Y4245D02*
X4413Y4245D01*
X4424Y4245D02*
X4473Y4245D01*
X4063Y4244D02*
X4112Y4244D01*
X4126Y4244D02*
X4174Y4244D01*
X4363Y4244D02*
X4412Y4244D01*
X4426Y4244D02*
X4474Y4244D01*
X4063Y4243D02*
X4110Y4243D01*
X4127Y4243D02*
X4174Y4243D01*
X4363Y4243D02*
X4410Y4243D01*
X4427Y4243D02*
X4474Y4243D01*
X4063Y4242D02*
X4109Y4242D01*
X4128Y4242D02*
X4174Y4242D01*
X4363Y4242D02*
X4409Y4242D01*
X4428Y4242D02*
X4474Y4242D01*
X4063Y4241D02*
X4109Y4241D01*
X4128Y4241D02*
X4174Y4241D01*
X4363Y4241D02*
X4409Y4241D01*
X4428Y4241D02*
X4474Y4241D01*
X4063Y4240D02*
X4108Y4240D01*
X4129Y4240D02*
X4175Y4240D01*
X4363Y4240D02*
X4408Y4240D01*
X4429Y4240D02*
X4475Y4240D01*
X4062Y4239D02*
X4108Y4239D01*
X4129Y4239D02*
X4175Y4239D01*
X4362Y4239D02*
X4408Y4239D01*
X4429Y4239D02*
X4475Y4239D01*
X4062Y4238D02*
X4107Y4238D01*
X4130Y4238D02*
X4175Y4238D01*
X4362Y4238D02*
X4407Y4238D01*
X4430Y4238D02*
X4475Y4238D01*
X4062Y4237D02*
X4107Y4237D01*
X4130Y4237D02*
X4175Y4237D01*
X4362Y4237D02*
X4407Y4237D01*
X4430Y4237D02*
X4475Y4237D01*
X4062Y4236D02*
X4107Y4236D01*
X4130Y4236D02*
X4175Y4236D01*
X4362Y4236D02*
X4407Y4236D01*
X4430Y4236D02*
X4475Y4236D01*
X4062Y4235D02*
X4107Y4235D01*
X4130Y4235D02*
X4175Y4235D01*
X4362Y4235D02*
X4407Y4235D01*
X4430Y4235D02*
X4475Y4235D01*
X4062Y4234D02*
X4107Y4234D01*
X4130Y4234D02*
X4175Y4234D01*
X4362Y4234D02*
X4407Y4234D01*
X4430Y4234D02*
X4475Y4234D01*
X4062Y4233D02*
X4107Y4233D01*
X4130Y4233D02*
X4175Y4233D01*
X4362Y4233D02*
X4407Y4233D01*
X4430Y4233D02*
X4475Y4233D01*
X4062Y4232D02*
X4107Y4232D01*
X4130Y4232D02*
X4175Y4232D01*
X4362Y4232D02*
X4407Y4232D01*
X4430Y4232D02*
X4475Y4232D01*
X4062Y4231D02*
X4108Y4231D01*
X4129Y4231D02*
X4175Y4231D01*
X4362Y4231D02*
X4408Y4231D01*
X4429Y4231D02*
X4475Y4231D01*
X4063Y4230D02*
X4108Y4230D01*
X4129Y4230D02*
X4175Y4230D01*
X4363Y4230D02*
X4408Y4230D01*
X4429Y4230D02*
X4475Y4230D01*
X4063Y4229D02*
X4109Y4229D01*
X4128Y4229D02*
X4174Y4229D01*
X4363Y4229D02*
X4409Y4229D01*
X4428Y4229D02*
X4474Y4229D01*
X4063Y4228D02*
X4110Y4228D01*
X4127Y4228D02*
X4174Y4228D01*
X4363Y4228D02*
X4410Y4228D01*
X4427Y4228D02*
X4474Y4228D01*
X4063Y4227D02*
X4111Y4227D01*
X4126Y4227D02*
X4174Y4227D01*
X4363Y4227D02*
X4411Y4227D01*
X4426Y4227D02*
X4474Y4227D01*
X4064Y4226D02*
X4112Y4226D01*
X4125Y4226D02*
X4174Y4226D01*
X4364Y4226D02*
X4412Y4226D01*
X4425Y4226D02*
X4474Y4226D01*
X4064Y4225D02*
X4114Y4225D01*
X4123Y4225D02*
X4173Y4225D01*
X4364Y4225D02*
X4414Y4225D01*
X4423Y4225D02*
X4473Y4225D01*
X4064Y4224D02*
X4173Y4224D01*
X4364Y4224D02*
X4473Y4224D01*
X4065Y4223D02*
X4172Y4223D01*
X4365Y4223D02*
X4472Y4223D01*
X4065Y4222D02*
X4172Y4222D01*
X4365Y4222D02*
X4472Y4222D01*
X4066Y4221D02*
X4172Y4221D01*
X4366Y4221D02*
X4472Y4221D01*
X4066Y4220D02*
X4171Y4220D01*
X4366Y4220D02*
X4471Y4220D01*
X4067Y4219D02*
X4170Y4219D01*
X4367Y4219D02*
X4470Y4219D01*
X4067Y4218D02*
X4170Y4218D01*
X4367Y4218D02*
X4470Y4218D01*
X4068Y4217D02*
X4169Y4217D01*
X4368Y4217D02*
X4469Y4217D01*
X4069Y4216D02*
X4168Y4216D01*
X4369Y4216D02*
X4468Y4216D01*
X4070Y4215D02*
X4168Y4215D01*
X4370Y4215D02*
X4468Y4215D01*
X4070Y4214D02*
X4167Y4214D01*
X4370Y4214D02*
X4467Y4214D01*
X4071Y4213D02*
X4166Y4213D01*
X4371Y4213D02*
X4466Y4213D01*
X4073Y4212D02*
X4165Y4212D01*
X4372Y4212D02*
X4465Y4212D01*
X4074Y4211D02*
X4163Y4211D01*
X4374Y4211D02*
X4463Y4211D01*
X4075Y4210D02*
X4162Y4210D01*
X4375Y4210D02*
X4462Y4210D01*
X4077Y4209D02*
X4161Y4209D01*
X4377Y4209D02*
X4461Y4209D01*
X4078Y4208D02*
X4159Y4208D01*
X4378Y4208D02*
X4459Y4208D01*
X4080Y4207D02*
X4157Y4207D01*
X4380Y4207D02*
X4457Y4207D01*
X4083Y4206D02*
X4154Y4206D01*
X4383Y4206D02*
X4454Y4206D01*
X4086Y4205D02*
X4151Y4205D01*
X4386Y4205D02*
X4451Y4205D01*
X4090Y4166D02*
X4147Y4166D01*
X4390Y4166D02*
X4447Y4166D01*
X4085Y4165D02*
X4152Y4165D01*
X4385Y4165D02*
X4452Y4165D01*
X4082Y4164D02*
X4155Y4164D01*
X4382Y4164D02*
X4455Y4164D01*
X4080Y4163D02*
X4157Y4163D01*
X4380Y4163D02*
X4457Y4163D01*
X4078Y4162D02*
X4159Y4162D01*
X4378Y4162D02*
X4459Y4162D01*
X4076Y4161D02*
X4161Y4161D01*
X4376Y4161D02*
X4461Y4161D01*
X4075Y4160D02*
X4162Y4160D01*
X4375Y4160D02*
X4462Y4160D01*
X4073Y4159D02*
X4164Y4159D01*
X4373Y4159D02*
X4464Y4159D01*
X4072Y4158D02*
X4165Y4158D01*
X4372Y4158D02*
X4465Y4158D01*
X4071Y4157D02*
X4166Y4157D01*
X4371Y4157D02*
X4466Y4157D01*
X4070Y4156D02*
X4167Y4156D01*
X4370Y4156D02*
X4467Y4156D01*
X4069Y4155D02*
X4168Y4155D01*
X4369Y4155D02*
X4468Y4155D01*
X4069Y4154D02*
X4169Y4154D01*
X4369Y4154D02*
X4469Y4154D01*
X4068Y4153D02*
X4169Y4153D01*
X4368Y4153D02*
X4469Y4153D01*
X4067Y4152D02*
X4170Y4152D01*
X4367Y4152D02*
X4470Y4152D01*
X4067Y4151D02*
X4171Y4151D01*
X4367Y4151D02*
X4471Y4151D01*
X4066Y4150D02*
X4171Y4150D01*
X4366Y4150D02*
X4471Y4150D01*
X4065Y4149D02*
X4172Y4149D01*
X4365Y4149D02*
X4472Y4149D01*
X4065Y4148D02*
X4172Y4148D01*
X4365Y4148D02*
X4472Y4148D01*
X4065Y4147D02*
X4173Y4147D01*
X4365Y4147D02*
X4473Y4147D01*
X4064Y4146D02*
X4116Y4146D01*
X4121Y4146D02*
X4173Y4146D01*
X4364Y4146D02*
X4416Y4146D01*
X4421Y4146D02*
X4473Y4146D01*
X4064Y4145D02*
X4113Y4145D01*
X4124Y4145D02*
X4173Y4145D01*
X4364Y4145D02*
X4413Y4145D01*
X4424Y4145D02*
X4473Y4145D01*
X4063Y4144D02*
X4112Y4144D01*
X4126Y4144D02*
X4174Y4144D01*
X4363Y4144D02*
X4412Y4144D01*
X4426Y4144D02*
X4474Y4144D01*
X4063Y4143D02*
X4110Y4143D01*
X4127Y4143D02*
X4174Y4143D01*
X4363Y4143D02*
X4410Y4143D01*
X4427Y4143D02*
X4474Y4143D01*
X4063Y4142D02*
X4109Y4142D01*
X4128Y4142D02*
X4174Y4142D01*
X4363Y4142D02*
X4409Y4142D01*
X4428Y4142D02*
X4474Y4142D01*
X4063Y4141D02*
X4109Y4141D01*
X4128Y4141D02*
X4174Y4141D01*
X4363Y4141D02*
X4409Y4141D01*
X4428Y4141D02*
X4474Y4141D01*
X4063Y4140D02*
X4108Y4140D01*
X4129Y4140D02*
X4175Y4140D01*
X4363Y4140D02*
X4408Y4140D01*
X4429Y4140D02*
X4475Y4140D01*
X4062Y4139D02*
X4108Y4139D01*
X4129Y4139D02*
X4175Y4139D01*
X4362Y4139D02*
X4408Y4139D01*
X4429Y4139D02*
X4475Y4139D01*
X4062Y4138D02*
X4107Y4138D01*
X4130Y4138D02*
X4175Y4138D01*
X4362Y4138D02*
X4407Y4138D01*
X4430Y4138D02*
X4475Y4138D01*
X4062Y4137D02*
X4107Y4137D01*
X4130Y4137D02*
X4175Y4137D01*
X4362Y4137D02*
X4407Y4137D01*
X4430Y4137D02*
X4475Y4137D01*
X4062Y4136D02*
X4107Y4136D01*
X4130Y4136D02*
X4175Y4136D01*
X4362Y4136D02*
X4407Y4136D01*
X4430Y4136D02*
X4475Y4136D01*
X4062Y4135D02*
X4107Y4135D01*
X4130Y4135D02*
X4175Y4135D01*
X4362Y4135D02*
X4407Y4135D01*
X4430Y4135D02*
X4475Y4135D01*
X4062Y4134D02*
X4107Y4134D01*
X4130Y4134D02*
X4175Y4134D01*
X4362Y4134D02*
X4407Y4134D01*
X4430Y4134D02*
X4475Y4134D01*
X4062Y4133D02*
X4107Y4133D01*
X4130Y4133D02*
X4175Y4133D01*
X4362Y4133D02*
X4407Y4133D01*
X4430Y4133D02*
X4475Y4133D01*
X4062Y4132D02*
X4107Y4132D01*
X4130Y4132D02*
X4175Y4132D01*
X4362Y4132D02*
X4407Y4132D01*
X4430Y4132D02*
X4475Y4132D01*
X4062Y4131D02*
X4108Y4131D01*
X4129Y4131D02*
X4175Y4131D01*
X4362Y4131D02*
X4408Y4131D01*
X4429Y4131D02*
X4475Y4131D01*
X4063Y4130D02*
X4108Y4130D01*
X4129Y4130D02*
X4175Y4130D01*
X4363Y4130D02*
X4408Y4130D01*
X4429Y4130D02*
X4475Y4130D01*
X4063Y4129D02*
X4109Y4129D01*
X4128Y4129D02*
X4174Y4129D01*
X4363Y4129D02*
X4409Y4129D01*
X4428Y4129D02*
X4474Y4129D01*
X4063Y4128D02*
X4110Y4128D01*
X4127Y4128D02*
X4174Y4128D01*
X4363Y4128D02*
X4410Y4128D01*
X4427Y4128D02*
X4474Y4128D01*
X4063Y4127D02*
X4111Y4127D01*
X4126Y4127D02*
X4174Y4127D01*
X4363Y4127D02*
X4411Y4127D01*
X4426Y4127D02*
X4474Y4127D01*
X4064Y4126D02*
X4112Y4126D01*
X4125Y4126D02*
X4174Y4126D01*
X4364Y4126D02*
X4412Y4126D01*
X4425Y4126D02*
X4474Y4126D01*
X4064Y4125D02*
X4114Y4125D01*
X4123Y4125D02*
X4173Y4125D01*
X4364Y4125D02*
X4414Y4125D01*
X4423Y4125D02*
X4473Y4125D01*
X4064Y4124D02*
X4173Y4124D01*
X4364Y4124D02*
X4473Y4124D01*
X4065Y4123D02*
X4172Y4123D01*
X4365Y4123D02*
X4472Y4123D01*
X4065Y4122D02*
X4172Y4122D01*
X4365Y4122D02*
X4472Y4122D01*
X4066Y4121D02*
X4172Y4121D01*
X4366Y4121D02*
X4471Y4121D01*
X4066Y4120D02*
X4171Y4120D01*
X4366Y4120D02*
X4471Y4120D01*
X4067Y4119D02*
X4170Y4119D01*
X4367Y4119D02*
X4470Y4119D01*
X4067Y4118D02*
X4170Y4118D01*
X4367Y4118D02*
X4470Y4118D01*
X4068Y4117D02*
X4169Y4117D01*
X4368Y4117D02*
X4469Y4117D01*
X4069Y4116D02*
X4168Y4116D01*
X4369Y4116D02*
X4468Y4116D01*
X4070Y4115D02*
X4168Y4115D01*
X4370Y4115D02*
X4468Y4115D01*
X4070Y4114D02*
X4167Y4114D01*
X4370Y4114D02*
X4467Y4114D01*
X4071Y4113D02*
X4166Y4113D01*
X4371Y4113D02*
X4466Y4113D01*
X4073Y4112D02*
X4165Y4112D01*
X4372Y4112D02*
X4465Y4112D01*
X4074Y4111D02*
X4163Y4111D01*
X4374Y4111D02*
X4463Y4111D01*
X4075Y4110D02*
X4162Y4110D01*
X4375Y4110D02*
X4462Y4110D01*
X4077Y4109D02*
X4161Y4109D01*
X4377Y4109D02*
X4460Y4109D01*
X4078Y4108D02*
X4159Y4108D01*
X4378Y4108D02*
X4459Y4108D01*
X4080Y4107D02*
X4157Y4107D01*
X4380Y4107D02*
X4457Y4107D01*
X4083Y4106D02*
X4154Y4106D01*
X4383Y4106D02*
X4454Y4106D01*
X4086Y4105D02*
X4151Y4105D01*
X4386Y4105D02*
X4451Y4105D01*
X4090Y3766D02*
X4147Y3766D01*
X4390Y3766D02*
X4447Y3766D01*
X4085Y3765D02*
X4152Y3765D01*
X4385Y3765D02*
X4452Y3765D01*
X4082Y3764D02*
X4155Y3764D01*
X4382Y3764D02*
X4455Y3764D01*
X4080Y3763D02*
X4157Y3763D01*
X4380Y3763D02*
X4457Y3763D01*
X4078Y3762D02*
X4159Y3762D01*
X4378Y3762D02*
X4459Y3762D01*
X4076Y3761D02*
X4161Y3761D01*
X4376Y3761D02*
X4461Y3761D01*
X4075Y3760D02*
X4163Y3760D01*
X4375Y3760D02*
X4463Y3760D01*
X4073Y3759D02*
X4164Y3759D01*
X4373Y3759D02*
X4464Y3759D01*
X4072Y3758D02*
X4165Y3758D01*
X4372Y3758D02*
X4465Y3758D01*
X4071Y3757D02*
X4166Y3757D01*
X4371Y3757D02*
X4466Y3757D01*
X4070Y3756D02*
X4167Y3756D01*
X4370Y3756D02*
X4467Y3756D01*
X4069Y3755D02*
X4168Y3755D01*
X4369Y3755D02*
X4468Y3755D01*
X4069Y3754D02*
X4169Y3754D01*
X4368Y3754D02*
X4469Y3754D01*
X4068Y3753D02*
X4169Y3753D01*
X4368Y3753D02*
X4469Y3753D01*
X4067Y3752D02*
X4170Y3752D01*
X4367Y3752D02*
X4470Y3752D01*
X4067Y3751D02*
X4171Y3751D01*
X4367Y3751D02*
X4471Y3751D01*
X4066Y3750D02*
X4171Y3750D01*
X4366Y3750D02*
X4471Y3750D01*
X4065Y3749D02*
X4172Y3749D01*
X4365Y3749D02*
X4472Y3749D01*
X4065Y3748D02*
X4172Y3748D01*
X4365Y3748D02*
X4472Y3748D01*
X4065Y3747D02*
X4173Y3747D01*
X4364Y3747D02*
X4473Y3747D01*
X4064Y3746D02*
X4116Y3746D01*
X4121Y3746D02*
X4173Y3746D01*
X4364Y3746D02*
X4416Y3746D01*
X4421Y3746D02*
X4473Y3746D01*
X4064Y3745D02*
X4113Y3745D01*
X4124Y3745D02*
X4173Y3745D01*
X4364Y3745D02*
X4413Y3745D01*
X4424Y3745D02*
X4473Y3745D01*
X4063Y3744D02*
X4112Y3744D01*
X4126Y3744D02*
X4174Y3744D01*
X4363Y3744D02*
X4411Y3744D01*
X4426Y3744D02*
X4474Y3744D01*
X4063Y3743D02*
X4110Y3743D01*
X4127Y3743D02*
X4174Y3743D01*
X4363Y3743D02*
X4410Y3743D01*
X4427Y3743D02*
X4474Y3743D01*
X4063Y3742D02*
X4109Y3742D01*
X4128Y3742D02*
X4174Y3742D01*
X4363Y3742D02*
X4409Y3742D01*
X4428Y3742D02*
X4474Y3742D01*
X4063Y3741D02*
X4109Y3741D01*
X4128Y3741D02*
X4174Y3741D01*
X4363Y3741D02*
X4409Y3741D01*
X4428Y3741D02*
X4474Y3741D01*
X4063Y3740D02*
X4108Y3740D01*
X4129Y3740D02*
X4175Y3740D01*
X4362Y3740D02*
X4408Y3740D01*
X4429Y3740D02*
X4475Y3740D01*
X4062Y3739D02*
X4108Y3739D01*
X4129Y3739D02*
X4175Y3739D01*
X4362Y3739D02*
X4408Y3739D01*
X4429Y3739D02*
X4475Y3739D01*
X4062Y3738D02*
X4107Y3738D01*
X4130Y3738D02*
X4175Y3738D01*
X4362Y3738D02*
X4407Y3738D01*
X4430Y3738D02*
X4475Y3738D01*
X4062Y3737D02*
X4107Y3737D01*
X4130Y3737D02*
X4175Y3737D01*
X4362Y3737D02*
X4407Y3737D01*
X4430Y3737D02*
X4475Y3737D01*
X4062Y3736D02*
X4107Y3736D01*
X4130Y3736D02*
X4175Y3736D01*
X4362Y3736D02*
X4407Y3736D01*
X4430Y3736D02*
X4475Y3736D01*
X4062Y3735D02*
X4107Y3735D01*
X4130Y3735D02*
X4175Y3735D01*
X4362Y3735D02*
X4407Y3735D01*
X4430Y3735D02*
X4475Y3735D01*
X4062Y3734D02*
X4107Y3734D01*
X4130Y3734D02*
X4175Y3734D01*
X4362Y3734D02*
X4407Y3734D01*
X4430Y3734D02*
X4475Y3734D01*
X4062Y3733D02*
X4107Y3733D01*
X4130Y3733D02*
X4175Y3733D01*
X4362Y3733D02*
X4407Y3733D01*
X4430Y3733D02*
X4475Y3733D01*
X4062Y3732D02*
X4108Y3732D01*
X4130Y3732D02*
X4175Y3732D01*
X4362Y3732D02*
X4407Y3732D01*
X4430Y3732D02*
X4475Y3732D01*
X4062Y3731D02*
X4108Y3731D01*
X4129Y3731D02*
X4175Y3731D01*
X4362Y3731D02*
X4408Y3731D01*
X4429Y3731D02*
X4475Y3731D01*
X4063Y3730D02*
X4108Y3730D01*
X4129Y3730D02*
X4175Y3730D01*
X4363Y3730D02*
X4408Y3730D01*
X4429Y3730D02*
X4475Y3730D01*
X4063Y3729D02*
X4109Y3729D01*
X4128Y3729D02*
X4174Y3729D01*
X4363Y3729D02*
X4409Y3729D01*
X4428Y3729D02*
X4474Y3729D01*
X4063Y3728D02*
X4110Y3728D01*
X4127Y3728D02*
X4174Y3728D01*
X4363Y3728D02*
X4410Y3728D01*
X4427Y3728D02*
X4474Y3728D01*
X4063Y3727D02*
X4111Y3727D01*
X4126Y3727D02*
X4174Y3727D01*
X4363Y3727D02*
X4411Y3727D01*
X4426Y3727D02*
X4474Y3727D01*
X4064Y3726D02*
X4112Y3726D01*
X4125Y3726D02*
X4174Y3726D01*
X4364Y3726D02*
X4412Y3726D01*
X4425Y3726D02*
X4474Y3726D01*
X4064Y3725D02*
X4114Y3725D01*
X4123Y3725D02*
X4173Y3725D01*
X4364Y3725D02*
X4414Y3725D01*
X4423Y3725D02*
X4473Y3725D01*
X4064Y3724D02*
X4173Y3724D01*
X4364Y3724D02*
X4473Y3724D01*
X4065Y3723D02*
X4172Y3723D01*
X4365Y3723D02*
X4472Y3723D01*
X4065Y3722D02*
X4172Y3722D01*
X4365Y3722D02*
X4472Y3722D01*
X4066Y3721D02*
X4172Y3721D01*
X4366Y3721D02*
X4471Y3721D01*
X4066Y3720D02*
X4171Y3720D01*
X4366Y3720D02*
X4471Y3720D01*
X4067Y3719D02*
X4170Y3719D01*
X4367Y3719D02*
X4470Y3719D01*
X4067Y3718D02*
X4170Y3718D01*
X4367Y3718D02*
X4470Y3718D01*
X4068Y3717D02*
X4169Y3717D01*
X4368Y3717D02*
X4469Y3717D01*
X4069Y3716D02*
X4168Y3716D01*
X4369Y3716D02*
X4468Y3716D01*
X4070Y3715D02*
X4168Y3715D01*
X4370Y3715D02*
X4468Y3715D01*
X4070Y3714D02*
X4167Y3714D01*
X4370Y3714D02*
X4467Y3714D01*
X4071Y3713D02*
X4166Y3713D01*
X4371Y3713D02*
X4466Y3713D01*
X4073Y3712D02*
X4165Y3712D01*
X4373Y3712D02*
X4465Y3712D01*
X4074Y3711D02*
X4163Y3711D01*
X4374Y3711D02*
X4463Y3711D01*
X4075Y3710D02*
X4162Y3710D01*
X4375Y3710D02*
X4462Y3710D01*
X4077Y3709D02*
X4160Y3709D01*
X4377Y3709D02*
X4460Y3709D01*
X4078Y3708D02*
X4159Y3708D01*
X4378Y3708D02*
X4459Y3708D01*
X4080Y3707D02*
X4157Y3707D01*
X4380Y3707D02*
X4457Y3707D01*
X4083Y3706D02*
X4154Y3706D01*
X4383Y3706D02*
X4454Y3706D01*
X4086Y3705D02*
X4151Y3705D01*
X4386Y3705D02*
X4451Y3705D01*
X4090Y3666D02*
X4147Y3666D01*
X4390Y3666D02*
X4447Y3666D01*
X4085Y3665D02*
X4152Y3665D01*
X4385Y3665D02*
X4452Y3665D01*
X4082Y3664D02*
X4155Y3664D01*
X4382Y3664D02*
X4455Y3664D01*
X4080Y3663D02*
X4157Y3663D01*
X4380Y3663D02*
X4457Y3663D01*
X4078Y3662D02*
X4159Y3662D01*
X4378Y3662D02*
X4459Y3662D01*
X4076Y3661D02*
X4161Y3661D01*
X4376Y3661D02*
X4461Y3661D01*
X4075Y3660D02*
X4163Y3660D01*
X4375Y3660D02*
X4463Y3660D01*
X4073Y3659D02*
X4164Y3659D01*
X4373Y3659D02*
X4464Y3659D01*
X4072Y3658D02*
X4165Y3658D01*
X4372Y3658D02*
X4465Y3658D01*
X4071Y3657D02*
X4166Y3657D01*
X4371Y3657D02*
X4466Y3657D01*
X4070Y3656D02*
X4167Y3656D01*
X4370Y3656D02*
X4467Y3656D01*
X4069Y3655D02*
X4168Y3655D01*
X4369Y3655D02*
X4468Y3655D01*
X4069Y3654D02*
X4169Y3654D01*
X4368Y3654D02*
X4469Y3654D01*
X4068Y3653D02*
X4169Y3653D01*
X4368Y3653D02*
X4469Y3653D01*
X4067Y3652D02*
X4170Y3652D01*
X4367Y3652D02*
X4470Y3652D01*
X4067Y3651D02*
X4171Y3651D01*
X4367Y3651D02*
X4471Y3651D01*
X4066Y3650D02*
X4171Y3650D01*
X4366Y3650D02*
X4471Y3650D01*
X4065Y3649D02*
X4172Y3649D01*
X4365Y3649D02*
X4472Y3649D01*
X4065Y3648D02*
X4172Y3648D01*
X4365Y3648D02*
X4472Y3648D01*
X4065Y3647D02*
X4173Y3647D01*
X4364Y3647D02*
X4473Y3647D01*
X4064Y3646D02*
X4116Y3646D01*
X4121Y3646D02*
X4173Y3646D01*
X4364Y3646D02*
X4416Y3646D01*
X4421Y3646D02*
X4473Y3646D01*
X4064Y3645D02*
X4113Y3645D01*
X4124Y3645D02*
X4173Y3645D01*
X4364Y3645D02*
X4413Y3645D01*
X4424Y3645D02*
X4473Y3645D01*
X4063Y3644D02*
X4112Y3644D01*
X4126Y3644D02*
X4174Y3644D01*
X4363Y3644D02*
X4411Y3644D01*
X4426Y3644D02*
X4474Y3644D01*
X4063Y3643D02*
X4110Y3643D01*
X4127Y3643D02*
X4174Y3643D01*
X4363Y3643D02*
X4410Y3643D01*
X4427Y3643D02*
X4474Y3643D01*
X4063Y3642D02*
X4109Y3642D01*
X4128Y3642D02*
X4174Y3642D01*
X4363Y3642D02*
X4409Y3642D01*
X4428Y3642D02*
X4474Y3642D01*
X4063Y3641D02*
X4109Y3641D01*
X4128Y3641D02*
X4174Y3641D01*
X4363Y3641D02*
X4409Y3641D01*
X4428Y3641D02*
X4474Y3641D01*
X4063Y3640D02*
X4108Y3640D01*
X4129Y3640D02*
X4175Y3640D01*
X4362Y3640D02*
X4408Y3640D01*
X4429Y3640D02*
X4475Y3640D01*
X4062Y3639D02*
X4108Y3639D01*
X4129Y3639D02*
X4175Y3639D01*
X4362Y3639D02*
X4408Y3639D01*
X4429Y3639D02*
X4475Y3639D01*
X4062Y3638D02*
X4107Y3638D01*
X4130Y3638D02*
X4175Y3638D01*
X4362Y3638D02*
X4407Y3638D01*
X4430Y3638D02*
X4475Y3638D01*
X4062Y3637D02*
X4107Y3637D01*
X4130Y3637D02*
X4175Y3637D01*
X4362Y3637D02*
X4407Y3637D01*
X4430Y3637D02*
X4475Y3637D01*
X4062Y3636D02*
X4107Y3636D01*
X4130Y3636D02*
X4175Y3636D01*
X4362Y3636D02*
X4407Y3636D01*
X4430Y3636D02*
X4475Y3636D01*
X4062Y3635D02*
X4107Y3635D01*
X4130Y3635D02*
X4175Y3635D01*
X4362Y3635D02*
X4407Y3635D01*
X4430Y3635D02*
X4475Y3635D01*
X4062Y3634D02*
X4107Y3634D01*
X4130Y3634D02*
X4175Y3634D01*
X4362Y3634D02*
X4407Y3634D01*
X4430Y3634D02*
X4475Y3634D01*
X4062Y3633D02*
X4107Y3633D01*
X4130Y3633D02*
X4175Y3633D01*
X4362Y3633D02*
X4407Y3633D01*
X4430Y3633D02*
X4475Y3633D01*
X4062Y3632D02*
X4108Y3632D01*
X4130Y3632D02*
X4175Y3632D01*
X4362Y3632D02*
X4407Y3632D01*
X4430Y3632D02*
X4475Y3632D01*
X4062Y3631D02*
X4108Y3631D01*
X4129Y3631D02*
X4175Y3631D01*
X4362Y3631D02*
X4408Y3631D01*
X4429Y3631D02*
X4475Y3631D01*
X4063Y3630D02*
X4108Y3630D01*
X4129Y3630D02*
X4175Y3630D01*
X4363Y3630D02*
X4408Y3630D01*
X4429Y3630D02*
X4475Y3630D01*
X4063Y3629D02*
X4109Y3629D01*
X4128Y3629D02*
X4174Y3629D01*
X4363Y3629D02*
X4409Y3629D01*
X4428Y3629D02*
X4474Y3629D01*
X4063Y3628D02*
X4110Y3628D01*
X4127Y3628D02*
X4174Y3628D01*
X4363Y3628D02*
X4410Y3628D01*
X4427Y3628D02*
X4474Y3628D01*
X4063Y3627D02*
X4111Y3627D01*
X4126Y3627D02*
X4174Y3627D01*
X4363Y3627D02*
X4411Y3627D01*
X4426Y3627D02*
X4474Y3627D01*
X4064Y3626D02*
X4112Y3626D01*
X4125Y3626D02*
X4174Y3626D01*
X4364Y3626D02*
X4412Y3626D01*
X4425Y3626D02*
X4474Y3626D01*
X4064Y3625D02*
X4114Y3625D01*
X4123Y3625D02*
X4173Y3625D01*
X4364Y3625D02*
X4414Y3625D01*
X4423Y3625D02*
X4473Y3625D01*
X4064Y3624D02*
X4173Y3624D01*
X4364Y3624D02*
X4473Y3624D01*
X4065Y3623D02*
X4172Y3623D01*
X4365Y3623D02*
X4472Y3623D01*
X4065Y3622D02*
X4172Y3622D01*
X4365Y3622D02*
X4472Y3622D01*
X4066Y3621D02*
X4172Y3621D01*
X4366Y3621D02*
X4471Y3621D01*
X4066Y3620D02*
X4171Y3620D01*
X4366Y3620D02*
X4471Y3620D01*
X4067Y3619D02*
X4170Y3619D01*
X4367Y3619D02*
X4470Y3619D01*
X4067Y3618D02*
X4170Y3618D01*
X4367Y3618D02*
X4470Y3618D01*
X4068Y3617D02*
X4169Y3617D01*
X4368Y3617D02*
X4469Y3617D01*
X4069Y3616D02*
X4168Y3616D01*
X4369Y3616D02*
X4468Y3616D01*
X4070Y3615D02*
X4168Y3615D01*
X4370Y3615D02*
X4468Y3615D01*
X4070Y3614D02*
X4167Y3614D01*
X4370Y3614D02*
X4467Y3614D01*
X4071Y3613D02*
X4166Y3613D01*
X4371Y3613D02*
X4466Y3613D01*
X4073Y3612D02*
X4165Y3612D01*
X4373Y3612D02*
X4465Y3612D01*
X4074Y3611D02*
X4163Y3611D01*
X4374Y3611D02*
X4463Y3611D01*
X4075Y3610D02*
X4162Y3610D01*
X4375Y3610D02*
X4462Y3610D01*
X4077Y3609D02*
X4160Y3609D01*
X4377Y3609D02*
X4460Y3609D01*
X4078Y3608D02*
X4159Y3608D01*
X4378Y3608D02*
X4459Y3608D01*
X4080Y3607D02*
X4157Y3607D01*
X4380Y3607D02*
X4457Y3607D01*
X4083Y3606D02*
X4154Y3606D01*
X4383Y3606D02*
X4454Y3606D01*
X4086Y3605D02*
X4151Y3605D01*
X4386Y3605D02*
X4451Y3605D01*
X4090Y3566D02*
X4147Y3566D01*
X4390Y3566D02*
X4447Y3566D01*
X4085Y3565D02*
X4152Y3565D01*
X4385Y3565D02*
X4452Y3565D01*
X4082Y3564D02*
X4155Y3564D01*
X4382Y3564D02*
X4455Y3564D01*
X4080Y3563D02*
X4157Y3563D01*
X4380Y3563D02*
X4457Y3563D01*
X4078Y3562D02*
X4159Y3562D01*
X4378Y3562D02*
X4459Y3562D01*
X4076Y3561D02*
X4161Y3561D01*
X4376Y3561D02*
X4461Y3561D01*
X4075Y3560D02*
X4163Y3560D01*
X4375Y3560D02*
X4463Y3560D01*
X4073Y3559D02*
X4164Y3559D01*
X4373Y3559D02*
X4464Y3559D01*
X4072Y3558D02*
X4165Y3558D01*
X4372Y3558D02*
X4465Y3558D01*
X4071Y3557D02*
X4166Y3557D01*
X4371Y3557D02*
X4466Y3557D01*
X4070Y3556D02*
X4167Y3556D01*
X4370Y3556D02*
X4467Y3556D01*
X4069Y3555D02*
X4168Y3555D01*
X4369Y3555D02*
X4468Y3555D01*
X4069Y3554D02*
X4169Y3554D01*
X4368Y3554D02*
X4469Y3554D01*
X4068Y3553D02*
X4169Y3553D01*
X4368Y3553D02*
X4469Y3553D01*
X4067Y3552D02*
X4170Y3552D01*
X4367Y3552D02*
X4470Y3552D01*
X4067Y3551D02*
X4171Y3551D01*
X4367Y3551D02*
X4471Y3551D01*
X4066Y3550D02*
X4171Y3550D01*
X4366Y3550D02*
X4471Y3550D01*
X4065Y3549D02*
X4172Y3549D01*
X4365Y3549D02*
X4472Y3549D01*
X4065Y3548D02*
X4172Y3548D01*
X4365Y3548D02*
X4472Y3548D01*
X4065Y3547D02*
X4173Y3547D01*
X4364Y3547D02*
X4473Y3547D01*
X4064Y3546D02*
X4116Y3546D01*
X4121Y3546D02*
X4173Y3546D01*
X4364Y3546D02*
X4416Y3546D01*
X4421Y3546D02*
X4473Y3546D01*
X4064Y3545D02*
X4113Y3545D01*
X4124Y3545D02*
X4173Y3545D01*
X4364Y3545D02*
X4413Y3545D01*
X4424Y3545D02*
X4473Y3545D01*
X4063Y3544D02*
X4111Y3544D01*
X4126Y3544D02*
X4174Y3544D01*
X4363Y3544D02*
X4411Y3544D01*
X4426Y3544D02*
X4474Y3544D01*
X4063Y3543D02*
X4110Y3543D01*
X4127Y3543D02*
X4174Y3543D01*
X4363Y3543D02*
X4410Y3543D01*
X4427Y3543D02*
X4474Y3543D01*
X4063Y3542D02*
X4109Y3542D01*
X4128Y3542D02*
X4174Y3542D01*
X4363Y3542D02*
X4409Y3542D01*
X4428Y3542D02*
X4474Y3542D01*
X4063Y3541D02*
X4109Y3541D01*
X4128Y3541D02*
X4174Y3541D01*
X4363Y3541D02*
X4409Y3541D01*
X4428Y3541D02*
X4474Y3541D01*
X4063Y3540D02*
X4108Y3540D01*
X4129Y3540D02*
X4175Y3540D01*
X4362Y3540D02*
X4408Y3540D01*
X4429Y3540D02*
X4475Y3540D01*
X4062Y3539D02*
X4108Y3539D01*
X4129Y3539D02*
X4175Y3539D01*
X4362Y3539D02*
X4408Y3539D01*
X4429Y3539D02*
X4475Y3539D01*
X4062Y3538D02*
X4107Y3538D01*
X4130Y3538D02*
X4175Y3538D01*
X4362Y3538D02*
X4407Y3538D01*
X4430Y3538D02*
X4475Y3538D01*
X4062Y3537D02*
X4107Y3537D01*
X4130Y3537D02*
X4175Y3537D01*
X4362Y3537D02*
X4407Y3537D01*
X4430Y3537D02*
X4475Y3537D01*
X4062Y3536D02*
X4107Y3536D01*
X4130Y3536D02*
X4175Y3536D01*
X4362Y3536D02*
X4407Y3536D01*
X4430Y3536D02*
X4475Y3536D01*
X4062Y3535D02*
X4107Y3535D01*
X4130Y3535D02*
X4175Y3535D01*
X4362Y3535D02*
X4407Y3535D01*
X4430Y3535D02*
X4475Y3535D01*
X4062Y3534D02*
X4107Y3534D01*
X4130Y3534D02*
X4175Y3534D01*
X4362Y3534D02*
X4407Y3534D01*
X4430Y3534D02*
X4475Y3534D01*
X4062Y3533D02*
X4107Y3533D01*
X4130Y3533D02*
X4175Y3533D01*
X4362Y3533D02*
X4407Y3533D01*
X4430Y3533D02*
X4475Y3533D01*
X4062Y3532D02*
X4108Y3532D01*
X4130Y3532D02*
X4175Y3532D01*
X4362Y3532D02*
X4407Y3532D01*
X4430Y3532D02*
X4475Y3532D01*
X4062Y3531D02*
X4108Y3531D01*
X4129Y3531D02*
X4175Y3531D01*
X4362Y3531D02*
X4408Y3531D01*
X4429Y3531D02*
X4475Y3531D01*
X4063Y3530D02*
X4108Y3530D01*
X4129Y3530D02*
X4175Y3530D01*
X4363Y3530D02*
X4408Y3530D01*
X4429Y3530D02*
X4475Y3530D01*
X4063Y3529D02*
X4109Y3529D01*
X4128Y3529D02*
X4174Y3529D01*
X4363Y3529D02*
X4409Y3529D01*
X4428Y3529D02*
X4474Y3529D01*
X4063Y3528D02*
X4110Y3528D01*
X4127Y3528D02*
X4174Y3528D01*
X4363Y3528D02*
X4410Y3528D01*
X4427Y3528D02*
X4474Y3528D01*
X4063Y3527D02*
X4111Y3527D01*
X4126Y3527D02*
X4174Y3527D01*
X4363Y3527D02*
X4411Y3527D01*
X4426Y3527D02*
X4474Y3527D01*
X4064Y3526D02*
X4112Y3526D01*
X4125Y3526D02*
X4174Y3526D01*
X4364Y3526D02*
X4412Y3526D01*
X4425Y3526D02*
X4474Y3526D01*
X4064Y3525D02*
X4114Y3525D01*
X4123Y3525D02*
X4173Y3525D01*
X4364Y3525D02*
X4414Y3525D01*
X4423Y3525D02*
X4473Y3525D01*
X4064Y3524D02*
X4173Y3524D01*
X4364Y3524D02*
X4473Y3524D01*
X4065Y3523D02*
X4172Y3523D01*
X4365Y3523D02*
X4472Y3523D01*
X4065Y3522D02*
X4172Y3522D01*
X4365Y3522D02*
X4472Y3522D01*
X4066Y3521D02*
X4171Y3521D01*
X4366Y3521D02*
X4471Y3521D01*
X4066Y3520D02*
X4171Y3520D01*
X4366Y3520D02*
X4471Y3520D01*
X4067Y3519D02*
X4170Y3519D01*
X4367Y3519D02*
X4470Y3519D01*
X4067Y3518D02*
X4170Y3518D01*
X4367Y3518D02*
X4470Y3518D01*
X4068Y3517D02*
X4169Y3517D01*
X4368Y3517D02*
X4469Y3517D01*
X4069Y3516D02*
X4168Y3516D01*
X4369Y3516D02*
X4468Y3516D01*
X4070Y3515D02*
X4168Y3515D01*
X4370Y3515D02*
X4468Y3515D01*
X4070Y3514D02*
X4167Y3514D01*
X4370Y3514D02*
X4467Y3514D01*
X4071Y3513D02*
X4166Y3513D01*
X4371Y3513D02*
X4466Y3513D01*
X4073Y3512D02*
X4165Y3512D01*
X4373Y3512D02*
X4465Y3512D01*
X4074Y3511D02*
X4163Y3511D01*
X4374Y3511D02*
X4463Y3511D01*
X4075Y3510D02*
X4162Y3510D01*
X4375Y3510D02*
X4462Y3510D01*
X4077Y3509D02*
X4160Y3509D01*
X4377Y3509D02*
X4460Y3509D01*
X4078Y3508D02*
X4159Y3508D01*
X4378Y3508D02*
X4459Y3508D01*
X4080Y3507D02*
X4157Y3507D01*
X4380Y3507D02*
X4457Y3507D01*
X4083Y3506D02*
X4154Y3506D01*
X4383Y3506D02*
X4454Y3506D01*
X4086Y3505D02*
X4151Y3505D01*
X4386Y3505D02*
X4451Y3505D01*
X4090Y3466D02*
X4147Y3466D01*
X4390Y3466D02*
X4447Y3466D01*
X4085Y3465D02*
X4152Y3465D01*
X4385Y3465D02*
X4452Y3465D01*
X4082Y3464D02*
X4155Y3464D01*
X4382Y3464D02*
X4455Y3464D01*
X4080Y3463D02*
X4157Y3463D01*
X4380Y3463D02*
X4457Y3463D01*
X4078Y3462D02*
X4159Y3462D01*
X4378Y3462D02*
X4459Y3462D01*
X4076Y3461D02*
X4161Y3461D01*
X4376Y3461D02*
X4461Y3461D01*
X4075Y3460D02*
X4163Y3460D01*
X4375Y3460D02*
X4463Y3460D01*
X4073Y3459D02*
X4164Y3459D01*
X4373Y3459D02*
X4464Y3459D01*
X4072Y3458D02*
X4165Y3458D01*
X4372Y3458D02*
X4465Y3458D01*
X4071Y3457D02*
X4166Y3457D01*
X4371Y3457D02*
X4466Y3457D01*
X4070Y3456D02*
X4167Y3456D01*
X4370Y3456D02*
X4467Y3456D01*
X4069Y3455D02*
X4168Y3455D01*
X4369Y3455D02*
X4468Y3455D01*
X4068Y3454D02*
X4169Y3454D01*
X4368Y3454D02*
X4469Y3454D01*
X4068Y3453D02*
X4169Y3453D01*
X4368Y3453D02*
X4469Y3453D01*
X4067Y3452D02*
X4170Y3452D01*
X4367Y3452D02*
X4470Y3452D01*
X4067Y3451D02*
X4171Y3451D01*
X4366Y3451D02*
X4471Y3451D01*
X4066Y3450D02*
X4171Y3450D01*
X4366Y3450D02*
X4471Y3450D01*
X4065Y3449D02*
X4172Y3449D01*
X4365Y3449D02*
X4472Y3449D01*
X4065Y3448D02*
X4172Y3448D01*
X4365Y3448D02*
X4472Y3448D01*
X4065Y3447D02*
X4173Y3447D01*
X4364Y3447D02*
X4473Y3447D01*
X4064Y3446D02*
X4116Y3446D01*
X4121Y3446D02*
X4173Y3446D01*
X4364Y3446D02*
X4416Y3446D01*
X4421Y3446D02*
X4473Y3446D01*
X4064Y3445D02*
X4113Y3445D01*
X4124Y3445D02*
X4173Y3445D01*
X4364Y3445D02*
X4413Y3445D01*
X4424Y3445D02*
X4473Y3445D01*
X4063Y3444D02*
X4111Y3444D01*
X4126Y3444D02*
X4174Y3444D01*
X4363Y3444D02*
X4411Y3444D01*
X4426Y3444D02*
X4474Y3444D01*
X4063Y3443D02*
X4110Y3443D01*
X4127Y3443D02*
X4174Y3443D01*
X4363Y3443D02*
X4410Y3443D01*
X4427Y3443D02*
X4474Y3443D01*
X4063Y3442D02*
X4109Y3442D01*
X4128Y3442D02*
X4174Y3442D01*
X4363Y3442D02*
X4409Y3442D01*
X4428Y3442D02*
X4474Y3442D01*
X4063Y3441D02*
X4109Y3441D01*
X4128Y3441D02*
X4174Y3441D01*
X4363Y3441D02*
X4409Y3441D01*
X4428Y3441D02*
X4474Y3441D01*
X4063Y3440D02*
X4108Y3440D01*
X4129Y3440D02*
X4175Y3440D01*
X4362Y3440D02*
X4408Y3440D01*
X4429Y3440D02*
X4475Y3440D01*
X4062Y3439D02*
X4108Y3439D01*
X4129Y3439D02*
X4175Y3439D01*
X4362Y3439D02*
X4408Y3439D01*
X4429Y3439D02*
X4475Y3439D01*
X4062Y3438D02*
X4107Y3438D01*
X4130Y3438D02*
X4175Y3438D01*
X4362Y3438D02*
X4407Y3438D01*
X4430Y3438D02*
X4475Y3438D01*
X4062Y3437D02*
X4107Y3437D01*
X4130Y3437D02*
X4175Y3437D01*
X4362Y3437D02*
X4407Y3437D01*
X4430Y3437D02*
X4475Y3437D01*
X4062Y3436D02*
X4107Y3436D01*
X4130Y3436D02*
X4175Y3436D01*
X4362Y3436D02*
X4407Y3436D01*
X4430Y3436D02*
X4475Y3436D01*
X4062Y3435D02*
X4107Y3435D01*
X4130Y3435D02*
X4175Y3435D01*
X4362Y3435D02*
X4407Y3435D01*
X4430Y3435D02*
X4475Y3435D01*
X4062Y3434D02*
X4107Y3434D01*
X4130Y3434D02*
X4175Y3434D01*
X4362Y3434D02*
X4407Y3434D01*
X4430Y3434D02*
X4475Y3434D01*
X4062Y3433D02*
X4107Y3433D01*
X4130Y3433D02*
X4175Y3433D01*
X4362Y3433D02*
X4407Y3433D01*
X4430Y3433D02*
X4475Y3433D01*
X4062Y3432D02*
X4108Y3432D01*
X4130Y3432D02*
X4175Y3432D01*
X4362Y3432D02*
X4407Y3432D01*
X4430Y3432D02*
X4475Y3432D01*
X4062Y3431D02*
X4108Y3431D01*
X4129Y3431D02*
X4175Y3431D01*
X4362Y3431D02*
X4408Y3431D01*
X4429Y3431D02*
X4475Y3431D01*
X4063Y3430D02*
X4108Y3430D01*
X4129Y3430D02*
X4175Y3430D01*
X4363Y3430D02*
X4408Y3430D01*
X4429Y3430D02*
X4475Y3430D01*
X4063Y3429D02*
X4109Y3429D01*
X4128Y3429D02*
X4174Y3429D01*
X4363Y3429D02*
X4409Y3429D01*
X4428Y3429D02*
X4474Y3429D01*
X4063Y3428D02*
X4110Y3428D01*
X4127Y3428D02*
X4174Y3428D01*
X4363Y3428D02*
X4410Y3428D01*
X4427Y3428D02*
X4474Y3428D01*
X4063Y3427D02*
X4111Y3427D01*
X4126Y3427D02*
X4174Y3427D01*
X4363Y3427D02*
X4411Y3427D01*
X4426Y3427D02*
X4474Y3427D01*
X4064Y3426D02*
X4112Y3426D01*
X4125Y3426D02*
X4174Y3426D01*
X4364Y3426D02*
X4412Y3426D01*
X4425Y3426D02*
X4474Y3426D01*
X4064Y3425D02*
X4114Y3425D01*
X4123Y3425D02*
X4173Y3425D01*
X4364Y3425D02*
X4414Y3425D01*
X4423Y3425D02*
X4473Y3425D01*
X4064Y3424D02*
X4173Y3424D01*
X4364Y3424D02*
X4473Y3424D01*
X4065Y3423D02*
X4172Y3423D01*
X4365Y3423D02*
X4472Y3423D01*
X4065Y3422D02*
X4172Y3422D01*
X4365Y3422D02*
X4472Y3422D01*
X4066Y3421D02*
X4171Y3421D01*
X4366Y3421D02*
X4471Y3421D01*
X4066Y3420D02*
X4171Y3420D01*
X4366Y3420D02*
X4471Y3420D01*
X4067Y3419D02*
X4170Y3419D01*
X4367Y3419D02*
X4470Y3419D01*
X4067Y3418D02*
X4170Y3418D01*
X4367Y3418D02*
X4470Y3418D01*
X4068Y3417D02*
X4169Y3417D01*
X4368Y3417D02*
X4469Y3417D01*
X4069Y3416D02*
X4168Y3416D01*
X4369Y3416D02*
X4468Y3416D01*
X4070Y3415D02*
X4168Y3415D01*
X4370Y3415D02*
X4468Y3415D01*
X4070Y3414D02*
X4167Y3414D01*
X4370Y3414D02*
X4467Y3414D01*
X4071Y3413D02*
X4166Y3413D01*
X4371Y3413D02*
X4466Y3413D01*
X4073Y3412D02*
X4165Y3412D01*
X4373Y3412D02*
X4465Y3412D01*
X4074Y3411D02*
X4163Y3411D01*
X4374Y3411D02*
X4463Y3411D01*
X4075Y3410D02*
X4162Y3410D01*
X4375Y3410D02*
X4462Y3410D01*
X4077Y3409D02*
X4160Y3409D01*
X4377Y3409D02*
X4460Y3409D01*
X4078Y3408D02*
X4159Y3408D01*
X4378Y3408D02*
X4459Y3408D01*
X4080Y3407D02*
X4157Y3407D01*
X4380Y3407D02*
X4457Y3407D01*
X4083Y3406D02*
X4154Y3406D01*
X4383Y3406D02*
X4454Y3406D01*
X4086Y3405D02*
X4151Y3405D01*
X4386Y3405D02*
X4451Y3405D01*
X4090Y3366D02*
X4147Y3366D01*
X4390Y3366D02*
X4447Y3366D01*
X4085Y3365D02*
X4152Y3365D01*
X4385Y3365D02*
X4452Y3365D01*
X4082Y3364D02*
X4155Y3364D01*
X4382Y3364D02*
X4455Y3364D01*
X4080Y3363D02*
X4158Y3363D01*
X4380Y3363D02*
X4457Y3363D01*
X4078Y3362D02*
X4159Y3362D01*
X4378Y3362D02*
X4459Y3362D01*
X4076Y3361D02*
X4161Y3361D01*
X4376Y3361D02*
X4461Y3361D01*
X4075Y3360D02*
X4163Y3360D01*
X4375Y3360D02*
X4463Y3360D01*
X4073Y3359D02*
X4164Y3359D01*
X4373Y3359D02*
X4464Y3359D01*
X4072Y3358D02*
X4165Y3358D01*
X4372Y3358D02*
X4465Y3358D01*
X4071Y3357D02*
X4166Y3357D01*
X4371Y3357D02*
X4466Y3357D01*
X4070Y3356D02*
X4167Y3356D01*
X4370Y3356D02*
X4467Y3356D01*
X4069Y3355D02*
X4168Y3355D01*
X4369Y3355D02*
X4468Y3355D01*
X4068Y3354D02*
X4169Y3354D01*
X4368Y3354D02*
X4469Y3354D01*
X4068Y3353D02*
X4169Y3353D01*
X4368Y3353D02*
X4469Y3353D01*
X4067Y3352D02*
X4170Y3352D01*
X4367Y3352D02*
X4470Y3352D01*
X4067Y3351D02*
X4171Y3351D01*
X4366Y3351D02*
X4471Y3351D01*
X4066Y3350D02*
X4171Y3350D01*
X4366Y3350D02*
X4471Y3350D01*
X4065Y3349D02*
X4172Y3349D01*
X4365Y3349D02*
X4472Y3349D01*
X4065Y3348D02*
X4172Y3348D01*
X4365Y3348D02*
X4472Y3348D01*
X4065Y3347D02*
X4173Y3347D01*
X4364Y3347D02*
X4473Y3347D01*
X4064Y3346D02*
X4116Y3346D01*
X4121Y3346D02*
X4173Y3346D01*
X4364Y3346D02*
X4416Y3346D01*
X4421Y3346D02*
X4473Y3346D01*
X4064Y3345D02*
X4113Y3345D01*
X4124Y3345D02*
X4173Y3345D01*
X4364Y3345D02*
X4413Y3345D01*
X4424Y3345D02*
X4473Y3345D01*
X4063Y3344D02*
X4111Y3344D01*
X4126Y3344D02*
X4174Y3344D01*
X4363Y3344D02*
X4411Y3344D01*
X4426Y3344D02*
X4474Y3344D01*
X4063Y3343D02*
X4110Y3343D01*
X4127Y3343D02*
X4174Y3343D01*
X4363Y3343D02*
X4410Y3343D01*
X4427Y3343D02*
X4474Y3343D01*
X4063Y3342D02*
X4109Y3342D01*
X4128Y3342D02*
X4174Y3342D01*
X4363Y3342D02*
X4409Y3342D01*
X4428Y3342D02*
X4474Y3342D01*
X4063Y3341D02*
X4109Y3341D01*
X4128Y3341D02*
X4174Y3341D01*
X4363Y3341D02*
X4409Y3341D01*
X4428Y3341D02*
X4474Y3341D01*
X4063Y3340D02*
X4108Y3340D01*
X4129Y3340D02*
X4175Y3340D01*
X4362Y3340D02*
X4408Y3340D01*
X4429Y3340D02*
X4475Y3340D01*
X4062Y3339D02*
X4108Y3339D01*
X4129Y3339D02*
X4175Y3339D01*
X4362Y3339D02*
X4408Y3339D01*
X4429Y3339D02*
X4475Y3339D01*
X4062Y3338D02*
X4107Y3338D01*
X4130Y3338D02*
X4175Y3338D01*
X4362Y3338D02*
X4407Y3338D01*
X4430Y3338D02*
X4475Y3338D01*
X4062Y3337D02*
X4107Y3337D01*
X4130Y3337D02*
X4175Y3337D01*
X4362Y3337D02*
X4407Y3337D01*
X4430Y3337D02*
X4475Y3337D01*
X4062Y3336D02*
X4107Y3336D01*
X4130Y3336D02*
X4175Y3336D01*
X4362Y3336D02*
X4407Y3336D01*
X4430Y3336D02*
X4475Y3336D01*
X4062Y3335D02*
X4107Y3335D01*
X4130Y3335D02*
X4175Y3335D01*
X4362Y3335D02*
X4407Y3335D01*
X4430Y3335D02*
X4475Y3335D01*
X4062Y3334D02*
X4107Y3334D01*
X4130Y3334D02*
X4175Y3334D01*
X4362Y3334D02*
X4407Y3334D01*
X4430Y3334D02*
X4475Y3334D01*
X4062Y3333D02*
X4107Y3333D01*
X4130Y3333D02*
X4175Y3333D01*
X4362Y3333D02*
X4407Y3333D01*
X4430Y3333D02*
X4475Y3333D01*
X4062Y3332D02*
X4108Y3332D01*
X4130Y3332D02*
X4175Y3332D01*
X4362Y3332D02*
X4407Y3332D01*
X4430Y3332D02*
X4475Y3332D01*
X4062Y3331D02*
X4108Y3331D01*
X4129Y3331D02*
X4175Y3331D01*
X4362Y3331D02*
X4408Y3331D01*
X4429Y3331D02*
X4475Y3331D01*
X4063Y3330D02*
X4108Y3330D01*
X4129Y3330D02*
X4175Y3330D01*
X4363Y3330D02*
X4408Y3330D01*
X4429Y3330D02*
X4475Y3330D01*
X4063Y3329D02*
X4109Y3329D01*
X4128Y3329D02*
X4174Y3329D01*
X4363Y3329D02*
X4409Y3329D01*
X4428Y3329D02*
X4474Y3329D01*
X4063Y3328D02*
X4110Y3328D01*
X4127Y3328D02*
X4174Y3328D01*
X4363Y3328D02*
X4410Y3328D01*
X4427Y3328D02*
X4474Y3328D01*
X4063Y3327D02*
X4111Y3327D01*
X4126Y3327D02*
X4174Y3327D01*
X4363Y3327D02*
X4411Y3327D01*
X4426Y3327D02*
X4474Y3327D01*
X4064Y3326D02*
X4112Y3326D01*
X4125Y3326D02*
X4174Y3326D01*
X4364Y3326D02*
X4412Y3326D01*
X4425Y3326D02*
X4474Y3326D01*
X4064Y3325D02*
X4114Y3325D01*
X4123Y3325D02*
X4173Y3325D01*
X4364Y3325D02*
X4414Y3325D01*
X4423Y3325D02*
X4473Y3325D01*
X4064Y3324D02*
X4173Y3324D01*
X4364Y3324D02*
X4473Y3324D01*
X4065Y3323D02*
X4172Y3323D01*
X4365Y3323D02*
X4472Y3323D01*
X4065Y3322D02*
X4172Y3322D01*
X4365Y3322D02*
X4472Y3322D01*
X4066Y3321D02*
X4171Y3321D01*
X4366Y3321D02*
X4471Y3321D01*
X4066Y3320D02*
X4171Y3320D01*
X4366Y3320D02*
X4471Y3320D01*
X4067Y3319D02*
X4170Y3319D01*
X4367Y3319D02*
X4470Y3319D01*
X4067Y3318D02*
X4170Y3318D01*
X4367Y3318D02*
X4470Y3318D01*
X4068Y3317D02*
X4169Y3317D01*
X4368Y3317D02*
X4469Y3317D01*
X4069Y3316D02*
X4168Y3316D01*
X4369Y3316D02*
X4468Y3316D01*
X4070Y3315D02*
X4168Y3315D01*
X4370Y3315D02*
X4468Y3315D01*
X4070Y3314D02*
X4167Y3314D01*
X4370Y3314D02*
X4467Y3314D01*
X4071Y3313D02*
X4166Y3313D01*
X4371Y3313D02*
X4466Y3313D01*
X4073Y3312D02*
X4165Y3312D01*
X4373Y3312D02*
X4465Y3312D01*
X4074Y3311D02*
X4163Y3311D01*
X4374Y3311D02*
X4463Y3311D01*
X4075Y3310D02*
X4162Y3310D01*
X4375Y3310D02*
X4462Y3310D01*
X4077Y3309D02*
X4160Y3309D01*
X4377Y3309D02*
X4460Y3309D01*
X4078Y3308D02*
X4159Y3308D01*
X4378Y3308D02*
X4459Y3308D01*
X4080Y3307D02*
X4157Y3307D01*
X4380Y3307D02*
X4457Y3307D01*
X4083Y3306D02*
X4154Y3306D01*
X4383Y3306D02*
X4454Y3306D01*
X4086Y3305D02*
X4151Y3305D01*
X4386Y3305D02*
X4451Y3305D01*
X4090Y3266D02*
X4147Y3266D01*
X4390Y3266D02*
X4447Y3266D01*
X4085Y3265D02*
X4152Y3265D01*
X4385Y3265D02*
X4452Y3265D01*
X4082Y3264D02*
X4155Y3264D01*
X4382Y3264D02*
X4455Y3264D01*
X4080Y3263D02*
X4158Y3263D01*
X4380Y3263D02*
X4457Y3263D01*
X4078Y3262D02*
X4159Y3262D01*
X4378Y3262D02*
X4459Y3262D01*
X4076Y3261D02*
X4161Y3261D01*
X4376Y3261D02*
X4461Y3261D01*
X4075Y3260D02*
X4163Y3260D01*
X4375Y3260D02*
X4463Y3260D01*
X4073Y3259D02*
X4164Y3259D01*
X4373Y3259D02*
X4464Y3259D01*
X4072Y3258D02*
X4165Y3258D01*
X4372Y3258D02*
X4465Y3258D01*
X4071Y3257D02*
X4166Y3257D01*
X4371Y3257D02*
X4466Y3257D01*
X4070Y3256D02*
X4167Y3256D01*
X4370Y3256D02*
X4467Y3256D01*
X4069Y3255D02*
X4168Y3255D01*
X4369Y3255D02*
X4468Y3255D01*
X4068Y3254D02*
X4169Y3254D01*
X4368Y3254D02*
X4469Y3254D01*
X4068Y3253D02*
X4169Y3253D01*
X4368Y3253D02*
X4469Y3253D01*
X4067Y3252D02*
X4170Y3252D01*
X4367Y3252D02*
X4470Y3252D01*
X4067Y3251D02*
X4171Y3251D01*
X4366Y3251D02*
X4471Y3251D01*
X4066Y3250D02*
X4171Y3250D01*
X4366Y3250D02*
X4471Y3250D01*
X4065Y3249D02*
X4172Y3249D01*
X4365Y3249D02*
X4472Y3249D01*
X4065Y3248D02*
X4172Y3248D01*
X4365Y3248D02*
X4472Y3248D01*
X4065Y3247D02*
X4173Y3247D01*
X4364Y3247D02*
X4473Y3247D01*
X4064Y3246D02*
X4116Y3246D01*
X4121Y3246D02*
X4173Y3246D01*
X4364Y3246D02*
X4416Y3246D01*
X4421Y3246D02*
X4473Y3246D01*
X4064Y3245D02*
X4113Y3245D01*
X4124Y3245D02*
X4173Y3245D01*
X4364Y3245D02*
X4413Y3245D01*
X4424Y3245D02*
X4473Y3245D01*
X4063Y3244D02*
X4111Y3244D01*
X4126Y3244D02*
X4174Y3244D01*
X4363Y3244D02*
X4411Y3244D01*
X4426Y3244D02*
X4474Y3244D01*
X4063Y3243D02*
X4110Y3243D01*
X4127Y3243D02*
X4174Y3243D01*
X4363Y3243D02*
X4410Y3243D01*
X4427Y3243D02*
X4474Y3243D01*
X4063Y3242D02*
X4109Y3242D01*
X4128Y3242D02*
X4174Y3242D01*
X4363Y3242D02*
X4409Y3242D01*
X4428Y3242D02*
X4474Y3242D01*
X4063Y3241D02*
X4109Y3241D01*
X4128Y3241D02*
X4174Y3241D01*
X4363Y3241D02*
X4409Y3241D01*
X4428Y3241D02*
X4474Y3241D01*
X4063Y3240D02*
X4108Y3240D01*
X4129Y3240D02*
X4175Y3240D01*
X4362Y3240D02*
X4408Y3240D01*
X4429Y3240D02*
X4475Y3240D01*
X4062Y3239D02*
X4108Y3239D01*
X4129Y3239D02*
X4175Y3239D01*
X4362Y3239D02*
X4408Y3239D01*
X4429Y3239D02*
X4475Y3239D01*
X4062Y3238D02*
X4107Y3238D01*
X4130Y3238D02*
X4175Y3238D01*
X4362Y3238D02*
X4407Y3238D01*
X4430Y3238D02*
X4475Y3238D01*
X4062Y3237D02*
X4107Y3237D01*
X4130Y3237D02*
X4175Y3237D01*
X4362Y3237D02*
X4407Y3237D01*
X4430Y3237D02*
X4475Y3237D01*
X4062Y3236D02*
X4107Y3236D01*
X4130Y3236D02*
X4175Y3236D01*
X4362Y3236D02*
X4407Y3236D01*
X4430Y3236D02*
X4475Y3236D01*
X4062Y3235D02*
X4107Y3235D01*
X4130Y3235D02*
X4175Y3235D01*
X4362Y3235D02*
X4407Y3235D01*
X4430Y3235D02*
X4475Y3235D01*
X4062Y3234D02*
X4107Y3234D01*
X4130Y3234D02*
X4175Y3234D01*
X4362Y3234D02*
X4407Y3234D01*
X4430Y3234D02*
X4475Y3234D01*
X4062Y3233D02*
X4107Y3233D01*
X4130Y3233D02*
X4175Y3233D01*
X4362Y3233D02*
X4407Y3233D01*
X4430Y3233D02*
X4475Y3233D01*
X4062Y3232D02*
X4108Y3232D01*
X4130Y3232D02*
X4175Y3232D01*
X4362Y3232D02*
X4407Y3232D01*
X4430Y3232D02*
X4475Y3232D01*
X4062Y3231D02*
X4108Y3231D01*
X4129Y3231D02*
X4175Y3231D01*
X4362Y3231D02*
X4408Y3231D01*
X4429Y3231D02*
X4475Y3231D01*
X4063Y3230D02*
X4108Y3230D01*
X4129Y3230D02*
X4175Y3230D01*
X4363Y3230D02*
X4408Y3230D01*
X4429Y3230D02*
X4475Y3230D01*
X4063Y3229D02*
X4109Y3229D01*
X4128Y3229D02*
X4174Y3229D01*
X4363Y3229D02*
X4409Y3229D01*
X4428Y3229D02*
X4474Y3229D01*
X4063Y3228D02*
X4110Y3228D01*
X4127Y3228D02*
X4174Y3228D01*
X4363Y3228D02*
X4410Y3228D01*
X4427Y3228D02*
X4474Y3228D01*
X4063Y3227D02*
X4111Y3227D01*
X4126Y3227D02*
X4174Y3227D01*
X4363Y3227D02*
X4411Y3227D01*
X4426Y3227D02*
X4474Y3227D01*
X4064Y3226D02*
X4112Y3226D01*
X4125Y3226D02*
X4174Y3226D01*
X4364Y3226D02*
X4412Y3226D01*
X4425Y3226D02*
X4474Y3226D01*
X4064Y3225D02*
X4114Y3225D01*
X4123Y3225D02*
X4173Y3225D01*
X4364Y3225D02*
X4414Y3225D01*
X4423Y3225D02*
X4473Y3225D01*
X4064Y3224D02*
X4173Y3224D01*
X4364Y3224D02*
X4473Y3224D01*
X4065Y3223D02*
X4172Y3223D01*
X4365Y3223D02*
X4472Y3223D01*
X4065Y3222D02*
X4172Y3222D01*
X4365Y3222D02*
X4472Y3222D01*
X4066Y3221D02*
X4171Y3221D01*
X4366Y3221D02*
X4471Y3221D01*
X4066Y3220D02*
X4171Y3220D01*
X4366Y3220D02*
X4471Y3220D01*
X4067Y3219D02*
X4170Y3219D01*
X4367Y3219D02*
X4470Y3219D01*
X4067Y3218D02*
X4170Y3218D01*
X4367Y3218D02*
X4470Y3218D01*
X4068Y3217D02*
X4169Y3217D01*
X4368Y3217D02*
X4469Y3217D01*
X4069Y3216D02*
X4168Y3216D01*
X4369Y3216D02*
X4468Y3216D01*
X4070Y3215D02*
X4168Y3215D01*
X4370Y3215D02*
X4468Y3215D01*
X4070Y3214D02*
X4167Y3214D01*
X4370Y3214D02*
X4467Y3214D01*
X4071Y3213D02*
X4166Y3213D01*
X4371Y3213D02*
X4466Y3213D01*
X4073Y3212D02*
X4165Y3212D01*
X4373Y3212D02*
X4465Y3212D01*
X4074Y3211D02*
X4163Y3211D01*
X4374Y3211D02*
X4463Y3211D01*
X4075Y3210D02*
X4162Y3210D01*
X4375Y3210D02*
X4462Y3210D01*
X4077Y3209D02*
X4160Y3209D01*
X4377Y3209D02*
X4460Y3209D01*
X4078Y3208D02*
X4159Y3208D01*
X4378Y3208D02*
X4459Y3208D01*
X4080Y3207D02*
X4157Y3207D01*
X4380Y3207D02*
X4457Y3207D01*
X4083Y3206D02*
X4154Y3206D01*
X4383Y3206D02*
X4454Y3206D01*
X4086Y3205D02*
X4151Y3205D01*
X4386Y3205D02*
X4451Y3205D01*
X4090Y3166D02*
X4147Y3166D01*
X4390Y3166D02*
X4447Y3166D01*
X4085Y3165D02*
X4152Y3165D01*
X4385Y3165D02*
X4452Y3165D01*
X4082Y3164D02*
X4155Y3164D01*
X4382Y3164D02*
X4455Y3164D01*
X4080Y3163D02*
X4158Y3163D01*
X4380Y3163D02*
X4458Y3163D01*
X4078Y3162D02*
X4159Y3162D01*
X4378Y3162D02*
X4459Y3162D01*
X4076Y3161D02*
X4161Y3161D01*
X4376Y3161D02*
X4461Y3161D01*
X4075Y3160D02*
X4163Y3160D01*
X4375Y3160D02*
X4463Y3160D01*
X4073Y3159D02*
X4164Y3159D01*
X4373Y3159D02*
X4464Y3159D01*
X4072Y3158D02*
X4165Y3158D01*
X4372Y3158D02*
X4465Y3158D01*
X4071Y3157D02*
X4166Y3157D01*
X4371Y3157D02*
X4466Y3157D01*
X4070Y3156D02*
X4167Y3156D01*
X4370Y3156D02*
X4467Y3156D01*
X4069Y3155D02*
X4168Y3155D01*
X4369Y3155D02*
X4468Y3155D01*
X4068Y3154D02*
X4169Y3154D01*
X4368Y3154D02*
X4469Y3154D01*
X4068Y3153D02*
X4169Y3153D01*
X4368Y3153D02*
X4469Y3153D01*
X4067Y3152D02*
X4170Y3152D01*
X4367Y3152D02*
X4470Y3152D01*
X4067Y3151D02*
X4171Y3151D01*
X4366Y3151D02*
X4471Y3151D01*
X4066Y3150D02*
X4171Y3150D01*
X4366Y3150D02*
X4471Y3150D01*
X4065Y3149D02*
X4172Y3149D01*
X4365Y3149D02*
X4472Y3149D01*
X4065Y3148D02*
X4172Y3148D01*
X4365Y3148D02*
X4472Y3148D01*
X4065Y3147D02*
X4173Y3147D01*
X4364Y3147D02*
X4473Y3147D01*
X4064Y3146D02*
X4116Y3146D01*
X4121Y3146D02*
X4173Y3146D01*
X4364Y3146D02*
X4416Y3146D01*
X4421Y3146D02*
X4473Y3146D01*
X4064Y3145D02*
X4113Y3145D01*
X4124Y3145D02*
X4173Y3145D01*
X4364Y3145D02*
X4413Y3145D01*
X4424Y3145D02*
X4473Y3145D01*
X4063Y3144D02*
X4111Y3144D01*
X4126Y3144D02*
X4174Y3144D01*
X4363Y3144D02*
X4411Y3144D01*
X4426Y3144D02*
X4474Y3144D01*
X4063Y3143D02*
X4110Y3143D01*
X4127Y3143D02*
X4174Y3143D01*
X4363Y3143D02*
X4410Y3143D01*
X4427Y3143D02*
X4474Y3143D01*
X4063Y3142D02*
X4109Y3142D01*
X4128Y3142D02*
X4174Y3142D01*
X4363Y3142D02*
X4409Y3142D01*
X4428Y3142D02*
X4474Y3142D01*
X4063Y3141D02*
X4109Y3141D01*
X4128Y3141D02*
X4174Y3141D01*
X4363Y3141D02*
X4409Y3141D01*
X4428Y3141D02*
X4474Y3141D01*
X4063Y3140D02*
X4108Y3140D01*
X4129Y3140D02*
X4175Y3140D01*
X4362Y3140D02*
X4408Y3140D01*
X4429Y3140D02*
X4475Y3140D01*
X4062Y3139D02*
X4108Y3139D01*
X4129Y3139D02*
X4175Y3139D01*
X4362Y3139D02*
X4408Y3139D01*
X4429Y3139D02*
X4475Y3139D01*
X4062Y3138D02*
X4107Y3138D01*
X4130Y3138D02*
X4175Y3138D01*
X4362Y3138D02*
X4407Y3138D01*
X4430Y3138D02*
X4475Y3138D01*
X4062Y3137D02*
X4107Y3137D01*
X4130Y3137D02*
X4175Y3137D01*
X4362Y3137D02*
X4407Y3137D01*
X4430Y3137D02*
X4475Y3137D01*
X4062Y3136D02*
X4107Y3136D01*
X4130Y3136D02*
X4175Y3136D01*
X4362Y3136D02*
X4407Y3136D01*
X4430Y3136D02*
X4475Y3136D01*
X4062Y3135D02*
X4107Y3135D01*
X4130Y3135D02*
X4175Y3135D01*
X4362Y3135D02*
X4407Y3135D01*
X4430Y3135D02*
X4475Y3135D01*
X4062Y3134D02*
X4107Y3134D01*
X4130Y3134D02*
X4175Y3134D01*
X4362Y3134D02*
X4407Y3134D01*
X4430Y3134D02*
X4475Y3134D01*
X4062Y3133D02*
X4107Y3133D01*
X4130Y3133D02*
X4175Y3133D01*
X4362Y3133D02*
X4407Y3133D01*
X4430Y3133D02*
X4475Y3133D01*
X4062Y3132D02*
X4108Y3132D01*
X4130Y3132D02*
X4175Y3132D01*
X4362Y3132D02*
X4407Y3132D01*
X4430Y3132D02*
X4475Y3132D01*
X4062Y3131D02*
X4108Y3131D01*
X4129Y3131D02*
X4175Y3131D01*
X4362Y3131D02*
X4408Y3131D01*
X4429Y3131D02*
X4475Y3131D01*
X4063Y3130D02*
X4108Y3130D01*
X4129Y3130D02*
X4175Y3130D01*
X4363Y3130D02*
X4408Y3130D01*
X4429Y3130D02*
X4475Y3130D01*
X4063Y3129D02*
X4109Y3129D01*
X4128Y3129D02*
X4174Y3129D01*
X4363Y3129D02*
X4409Y3129D01*
X4428Y3129D02*
X4474Y3129D01*
X4063Y3128D02*
X4110Y3128D01*
X4127Y3128D02*
X4174Y3128D01*
X4363Y3128D02*
X4410Y3128D01*
X4427Y3128D02*
X4474Y3128D01*
X4063Y3127D02*
X4111Y3127D01*
X4126Y3127D02*
X4174Y3127D01*
X4363Y3127D02*
X4411Y3127D01*
X4426Y3127D02*
X4474Y3127D01*
X4064Y3126D02*
X4112Y3126D01*
X4125Y3126D02*
X4174Y3126D01*
X4364Y3126D02*
X4412Y3126D01*
X4425Y3126D02*
X4474Y3126D01*
X4064Y3125D02*
X4114Y3125D01*
X4123Y3125D02*
X4173Y3125D01*
X4364Y3125D02*
X4414Y3125D01*
X4423Y3125D02*
X4473Y3125D01*
X4064Y3124D02*
X4173Y3124D01*
X4364Y3124D02*
X4473Y3124D01*
X4065Y3123D02*
X4172Y3123D01*
X4365Y3123D02*
X4472Y3123D01*
X4065Y3122D02*
X4172Y3122D01*
X4365Y3122D02*
X4472Y3122D01*
X4066Y3121D02*
X4171Y3121D01*
X4366Y3121D02*
X4471Y3121D01*
X4066Y3120D02*
X4171Y3120D01*
X4366Y3120D02*
X4471Y3120D01*
X4067Y3119D02*
X4170Y3119D01*
X4367Y3119D02*
X4470Y3119D01*
X4067Y3118D02*
X4170Y3118D01*
X4367Y3118D02*
X4470Y3118D01*
X4068Y3117D02*
X4169Y3117D01*
X4368Y3117D02*
X4469Y3117D01*
X4069Y3116D02*
X4168Y3116D01*
X4369Y3116D02*
X4468Y3116D01*
X4070Y3115D02*
X4168Y3115D01*
X4370Y3115D02*
X4468Y3115D01*
X4071Y3114D02*
X4167Y3114D01*
X4370Y3114D02*
X4467Y3114D01*
X4071Y3113D02*
X4166Y3113D01*
X4371Y3113D02*
X4466Y3113D01*
X4073Y3112D02*
X4165Y3112D01*
X4373Y3112D02*
X4465Y3112D01*
X4074Y3111D02*
X4163Y3111D01*
X4374Y3111D02*
X4463Y3111D01*
X4075Y3110D02*
X4162Y3110D01*
X4375Y3110D02*
X4462Y3110D01*
X4077Y3109D02*
X4160Y3109D01*
X4377Y3109D02*
X4460Y3109D01*
X4078Y3108D02*
X4159Y3108D01*
X4378Y3108D02*
X4459Y3108D01*
X4080Y3107D02*
X4157Y3107D01*
X4380Y3107D02*
X4457Y3107D01*
X4083Y3106D02*
X4154Y3106D01*
X4383Y3106D02*
X4454Y3106D01*
X4086Y3105D02*
X4151Y3105D01*
X4386Y3105D02*
X4451Y3105D01*
X4090Y3066D02*
X4147Y3066D01*
X4390Y3066D02*
X4447Y3066D01*
X4085Y3065D02*
X4152Y3065D01*
X4385Y3065D02*
X4452Y3065D01*
X4082Y3064D02*
X4155Y3064D01*
X4382Y3064D02*
X4455Y3064D01*
X4080Y3063D02*
X4158Y3063D01*
X4380Y3063D02*
X4458Y3063D01*
X4078Y3062D02*
X4159Y3062D01*
X4378Y3062D02*
X4459Y3062D01*
X4076Y3061D02*
X4161Y3061D01*
X4376Y3061D02*
X4461Y3061D01*
X4075Y3060D02*
X4163Y3060D01*
X4375Y3060D02*
X4463Y3060D01*
X4073Y3059D02*
X4164Y3059D01*
X4373Y3059D02*
X4464Y3059D01*
X4072Y3058D02*
X4165Y3058D01*
X4372Y3058D02*
X4465Y3058D01*
X4071Y3057D02*
X4166Y3057D01*
X4371Y3057D02*
X4466Y3057D01*
X4070Y3056D02*
X4167Y3056D01*
X4370Y3056D02*
X4467Y3056D01*
X4069Y3055D02*
X4168Y3055D01*
X4369Y3055D02*
X4468Y3055D01*
X4068Y3054D02*
X4169Y3054D01*
X4368Y3054D02*
X4469Y3054D01*
X4068Y3053D02*
X4169Y3053D01*
X4368Y3053D02*
X4469Y3053D01*
X4067Y3052D02*
X4170Y3052D01*
X4367Y3052D02*
X4470Y3052D01*
X4067Y3051D02*
X4171Y3051D01*
X4366Y3051D02*
X4471Y3051D01*
X4066Y3050D02*
X4171Y3050D01*
X4366Y3050D02*
X4471Y3050D01*
X4065Y3049D02*
X4172Y3049D01*
X4365Y3049D02*
X4472Y3049D01*
X4065Y3048D02*
X4172Y3048D01*
X4365Y3048D02*
X4472Y3048D01*
X4064Y3047D02*
X4173Y3047D01*
X4364Y3047D02*
X4473Y3047D01*
X4064Y3046D02*
X4116Y3046D01*
X4121Y3046D02*
X4173Y3046D01*
X4364Y3046D02*
X4416Y3046D01*
X4421Y3046D02*
X4473Y3046D01*
X4064Y3045D02*
X4113Y3045D01*
X4124Y3045D02*
X4173Y3045D01*
X4364Y3045D02*
X4413Y3045D01*
X4424Y3045D02*
X4473Y3045D01*
X4063Y3044D02*
X4111Y3044D01*
X4126Y3044D02*
X4174Y3044D01*
X4363Y3044D02*
X4411Y3044D01*
X4426Y3044D02*
X4474Y3044D01*
X4063Y3043D02*
X4110Y3043D01*
X4127Y3043D02*
X4174Y3043D01*
X4363Y3043D02*
X4410Y3043D01*
X4427Y3043D02*
X4474Y3043D01*
X4063Y3042D02*
X4109Y3042D01*
X4128Y3042D02*
X4174Y3042D01*
X4363Y3042D02*
X4409Y3042D01*
X4428Y3042D02*
X4474Y3042D01*
X4063Y3041D02*
X4109Y3041D01*
X4128Y3041D02*
X4174Y3041D01*
X4363Y3041D02*
X4409Y3041D01*
X4428Y3041D02*
X4474Y3041D01*
X4063Y3040D02*
X4108Y3040D01*
X4129Y3040D02*
X4175Y3040D01*
X4362Y3040D02*
X4408Y3040D01*
X4429Y3040D02*
X4475Y3040D01*
X4062Y3039D02*
X4108Y3039D01*
X4129Y3039D02*
X4175Y3039D01*
X4362Y3039D02*
X4408Y3039D01*
X4429Y3039D02*
X4475Y3039D01*
X4062Y3038D02*
X4107Y3038D01*
X4130Y3038D02*
X4175Y3038D01*
X4362Y3038D02*
X4407Y3038D01*
X4430Y3038D02*
X4475Y3038D01*
X4062Y3037D02*
X4107Y3037D01*
X4130Y3037D02*
X4175Y3037D01*
X4362Y3037D02*
X4407Y3037D01*
X4430Y3037D02*
X4475Y3037D01*
X4062Y3036D02*
X4107Y3036D01*
X4130Y3036D02*
X4175Y3036D01*
X4362Y3036D02*
X4407Y3036D01*
X4430Y3036D02*
X4475Y3036D01*
X4062Y3035D02*
X4107Y3035D01*
X4130Y3035D02*
X4175Y3035D01*
X4362Y3035D02*
X4407Y3035D01*
X4430Y3035D02*
X4475Y3035D01*
X4062Y3034D02*
X4107Y3034D01*
X4130Y3034D02*
X4175Y3034D01*
X4362Y3034D02*
X4407Y3034D01*
X4430Y3034D02*
X4475Y3034D01*
X4062Y3033D02*
X4107Y3033D01*
X4130Y3033D02*
X4175Y3033D01*
X4362Y3033D02*
X4407Y3033D01*
X4430Y3033D02*
X4475Y3033D01*
X4062Y3032D02*
X4108Y3032D01*
X4130Y3032D02*
X4175Y3032D01*
X4362Y3032D02*
X4407Y3032D01*
X4430Y3032D02*
X4475Y3032D01*
X4062Y3031D02*
X4108Y3031D01*
X4129Y3031D02*
X4175Y3031D01*
X4362Y3031D02*
X4408Y3031D01*
X4429Y3031D02*
X4475Y3031D01*
X4063Y3030D02*
X4108Y3030D01*
X4129Y3030D02*
X4175Y3030D01*
X4363Y3030D02*
X4408Y3030D01*
X4429Y3030D02*
X4475Y3030D01*
X4063Y3029D02*
X4109Y3029D01*
X4128Y3029D02*
X4174Y3029D01*
X4363Y3029D02*
X4409Y3029D01*
X4428Y3029D02*
X4474Y3029D01*
X4063Y3028D02*
X4110Y3028D01*
X4127Y3028D02*
X4174Y3028D01*
X4363Y3028D02*
X4410Y3028D01*
X4427Y3028D02*
X4474Y3028D01*
X4063Y3027D02*
X4111Y3027D01*
X4126Y3027D02*
X4174Y3027D01*
X4363Y3027D02*
X4411Y3027D01*
X4426Y3027D02*
X4474Y3027D01*
X4064Y3026D02*
X4112Y3026D01*
X4125Y3026D02*
X4174Y3026D01*
X4364Y3026D02*
X4412Y3026D01*
X4425Y3026D02*
X4474Y3026D01*
X4064Y3025D02*
X4114Y3025D01*
X4123Y3025D02*
X4173Y3025D01*
X4364Y3025D02*
X4414Y3025D01*
X4423Y3025D02*
X4473Y3025D01*
X4064Y3024D02*
X4173Y3024D01*
X4364Y3024D02*
X4473Y3024D01*
X4065Y3023D02*
X4172Y3023D01*
X4365Y3023D02*
X4472Y3023D01*
X4065Y3022D02*
X4172Y3022D01*
X4365Y3022D02*
X4472Y3022D01*
X4066Y3021D02*
X4171Y3021D01*
X4366Y3021D02*
X4471Y3021D01*
X4066Y3020D02*
X4171Y3020D01*
X4366Y3020D02*
X4471Y3020D01*
X4067Y3019D02*
X4170Y3019D01*
X4367Y3019D02*
X4470Y3019D01*
X4067Y3018D02*
X4170Y3018D01*
X4367Y3018D02*
X4470Y3018D01*
X4068Y3017D02*
X4169Y3017D01*
X4368Y3017D02*
X4469Y3017D01*
X4069Y3016D02*
X4168Y3016D01*
X4369Y3016D02*
X4468Y3016D01*
X4070Y3015D02*
X4168Y3015D01*
X4370Y3015D02*
X4468Y3015D01*
X4071Y3014D02*
X4167Y3014D01*
X4370Y3014D02*
X4467Y3014D01*
X4071Y3013D02*
X4166Y3013D01*
X4371Y3013D02*
X4466Y3013D01*
X4073Y3012D02*
X4165Y3012D01*
X4373Y3012D02*
X4465Y3012D01*
X4074Y3011D02*
X4163Y3011D01*
X4374Y3011D02*
X4463Y3011D01*
X4075Y3010D02*
X4162Y3010D01*
X4375Y3010D02*
X4462Y3010D01*
X4077Y3009D02*
X4160Y3009D01*
X4377Y3009D02*
X4460Y3009D01*
X4078Y3008D02*
X4159Y3008D01*
X4378Y3008D02*
X4459Y3008D01*
X4080Y3007D02*
X4157Y3007D01*
X4380Y3007D02*
X4457Y3007D01*
X4083Y3006D02*
X4154Y3006D01*
X4383Y3006D02*
X4454Y3006D01*
X4086Y3005D02*
X4151Y3005D01*
X4386Y3005D02*
X4451Y3005D01*
X4089Y2466D02*
X4148Y2466D01*
X4389Y2466D02*
X4448Y2466D01*
X4085Y2465D02*
X4152Y2465D01*
X4385Y2465D02*
X4452Y2465D01*
X4082Y2464D02*
X4155Y2464D01*
X4382Y2464D02*
X4455Y2464D01*
X4080Y2463D02*
X4158Y2463D01*
X4379Y2463D02*
X4458Y2463D01*
X4078Y2462D02*
X4160Y2462D01*
X4378Y2462D02*
X4460Y2462D01*
X4076Y2461D02*
X4161Y2461D01*
X4376Y2461D02*
X4461Y2461D01*
X4075Y2460D02*
X4163Y2460D01*
X4374Y2460D02*
X4463Y2460D01*
X4073Y2459D02*
X4164Y2459D01*
X4373Y2459D02*
X4464Y2459D01*
X4072Y2458D02*
X4165Y2458D01*
X4372Y2458D02*
X4465Y2458D01*
X4071Y2457D02*
X4166Y2457D01*
X4371Y2457D02*
X4466Y2457D01*
X4070Y2456D02*
X4167Y2456D01*
X4370Y2456D02*
X4467Y2456D01*
X4069Y2455D02*
X4168Y2455D01*
X4369Y2455D02*
X4468Y2455D01*
X4068Y2454D02*
X4169Y2454D01*
X4368Y2454D02*
X4469Y2454D01*
X4068Y2453D02*
X4169Y2453D01*
X4368Y2453D02*
X4469Y2453D01*
X4067Y2452D02*
X4170Y2452D01*
X4367Y2452D02*
X4470Y2452D01*
X4066Y2451D02*
X4171Y2451D01*
X4366Y2451D02*
X4471Y2451D01*
X4066Y2450D02*
X4171Y2450D01*
X4366Y2450D02*
X4471Y2450D01*
X4065Y2449D02*
X4172Y2449D01*
X4365Y2449D02*
X4472Y2449D01*
X4065Y2448D02*
X4172Y2448D01*
X4365Y2448D02*
X4472Y2448D01*
X4064Y2447D02*
X4173Y2447D01*
X4364Y2447D02*
X4473Y2447D01*
X4064Y2446D02*
X4116Y2446D01*
X4122Y2446D02*
X4173Y2446D01*
X4364Y2446D02*
X4416Y2446D01*
X4422Y2446D02*
X4473Y2446D01*
X4064Y2445D02*
X4113Y2445D01*
X4124Y2445D02*
X4173Y2445D01*
X4364Y2445D02*
X4413Y2445D01*
X4424Y2445D02*
X4473Y2445D01*
X4063Y2444D02*
X4111Y2444D01*
X4126Y2444D02*
X4174Y2444D01*
X4363Y2444D02*
X4411Y2444D01*
X4426Y2444D02*
X4474Y2444D01*
X4063Y2443D02*
X4110Y2443D01*
X4127Y2443D02*
X4174Y2443D01*
X4363Y2443D02*
X4410Y2443D01*
X4427Y2443D02*
X4474Y2443D01*
X4063Y2442D02*
X4109Y2442D01*
X4128Y2442D02*
X4174Y2442D01*
X4363Y2442D02*
X4409Y2442D01*
X4428Y2442D02*
X4474Y2442D01*
X4063Y2441D02*
X4109Y2441D01*
X4128Y2441D02*
X4174Y2441D01*
X4363Y2441D02*
X4409Y2441D01*
X4428Y2441D02*
X4474Y2441D01*
X4063Y2440D02*
X4108Y2440D01*
X4129Y2440D02*
X4175Y2440D01*
X4362Y2440D02*
X4408Y2440D01*
X4429Y2440D02*
X4475Y2440D01*
X4062Y2439D02*
X4108Y2439D01*
X4129Y2439D02*
X4175Y2439D01*
X4362Y2439D02*
X4408Y2439D01*
X4429Y2439D02*
X4475Y2439D01*
X4062Y2438D02*
X4107Y2438D01*
X4130Y2438D02*
X4175Y2438D01*
X4362Y2438D02*
X4407Y2438D01*
X4430Y2438D02*
X4475Y2438D01*
X4062Y2437D02*
X4107Y2437D01*
X4130Y2437D02*
X4175Y2437D01*
X4362Y2437D02*
X4407Y2437D01*
X4430Y2437D02*
X4475Y2437D01*
X4062Y2436D02*
X4107Y2436D01*
X4130Y2436D02*
X4175Y2436D01*
X4362Y2436D02*
X4407Y2436D01*
X4430Y2436D02*
X4475Y2436D01*
X4062Y2435D02*
X4107Y2435D01*
X4130Y2435D02*
X4175Y2435D01*
X4362Y2435D02*
X4407Y2435D01*
X4430Y2435D02*
X4475Y2435D01*
X4062Y2434D02*
X4107Y2434D01*
X4130Y2434D02*
X4175Y2434D01*
X4362Y2434D02*
X4407Y2434D01*
X4430Y2434D02*
X4475Y2434D01*
X4062Y2433D02*
X4107Y2433D01*
X4130Y2433D02*
X4175Y2433D01*
X4362Y2433D02*
X4407Y2433D01*
X4430Y2433D02*
X4475Y2433D01*
X4062Y2432D02*
X4108Y2432D01*
X4130Y2432D02*
X4175Y2432D01*
X4362Y2432D02*
X4408Y2432D01*
X4430Y2432D02*
X4475Y2432D01*
X4062Y2431D02*
X4108Y2431D01*
X4129Y2431D02*
X4175Y2431D01*
X4362Y2431D02*
X4408Y2431D01*
X4429Y2431D02*
X4475Y2431D01*
X4063Y2430D02*
X4108Y2430D01*
X4129Y2430D02*
X4175Y2430D01*
X4363Y2430D02*
X4408Y2430D01*
X4429Y2430D02*
X4475Y2430D01*
X4063Y2429D02*
X4109Y2429D01*
X4128Y2429D02*
X4174Y2429D01*
X4363Y2429D02*
X4409Y2429D01*
X4428Y2429D02*
X4474Y2429D01*
X4063Y2428D02*
X4110Y2428D01*
X4127Y2428D02*
X4174Y2428D01*
X4363Y2428D02*
X4410Y2428D01*
X4427Y2428D02*
X4474Y2428D01*
X4063Y2427D02*
X4111Y2427D01*
X4126Y2427D02*
X4174Y2427D01*
X4363Y2427D02*
X4411Y2427D01*
X4426Y2427D02*
X4474Y2427D01*
X4064Y2426D02*
X4112Y2426D01*
X4125Y2426D02*
X4174Y2426D01*
X4364Y2426D02*
X4412Y2426D01*
X4425Y2426D02*
X4474Y2426D01*
X4064Y2425D02*
X4114Y2425D01*
X4123Y2425D02*
X4173Y2425D01*
X4364Y2425D02*
X4414Y2425D01*
X4423Y2425D02*
X4473Y2425D01*
X4064Y2424D02*
X4173Y2424D01*
X4364Y2424D02*
X4473Y2424D01*
X4065Y2423D02*
X4172Y2423D01*
X4365Y2423D02*
X4472Y2423D01*
X4065Y2422D02*
X4172Y2422D01*
X4365Y2422D02*
X4472Y2422D01*
X4066Y2421D02*
X4171Y2421D01*
X4366Y2421D02*
X4471Y2421D01*
X4066Y2420D02*
X4171Y2420D01*
X4366Y2420D02*
X4471Y2420D01*
X4067Y2419D02*
X4170Y2419D01*
X4367Y2419D02*
X4470Y2419D01*
X4067Y2418D02*
X4170Y2418D01*
X4367Y2418D02*
X4470Y2418D01*
X4068Y2417D02*
X4169Y2417D01*
X4368Y2417D02*
X4469Y2417D01*
X4069Y2416D02*
X4168Y2416D01*
X4369Y2416D02*
X4468Y2416D01*
X4070Y2415D02*
X4167Y2415D01*
X4370Y2415D02*
X4467Y2415D01*
X4071Y2414D02*
X4167Y2414D01*
X4371Y2414D02*
X4467Y2414D01*
X4072Y2413D02*
X4166Y2413D01*
X4371Y2413D02*
X4466Y2413D01*
X4073Y2412D02*
X4165Y2412D01*
X4373Y2412D02*
X4464Y2412D01*
X4074Y2411D02*
X4163Y2411D01*
X4374Y2411D02*
X4463Y2411D01*
X4075Y2410D02*
X4162Y2410D01*
X4375Y2410D02*
X4462Y2410D01*
X4077Y2409D02*
X4160Y2409D01*
X4377Y2409D02*
X4460Y2409D01*
X4078Y2408D02*
X4159Y2408D01*
X4378Y2408D02*
X4459Y2408D01*
X4081Y2407D02*
X4157Y2407D01*
X4381Y2407D02*
X4457Y2407D01*
X4083Y2406D02*
X4154Y2406D01*
X4383Y2406D02*
X4454Y2406D01*
X4087Y2405D02*
X4151Y2405D01*
X4387Y2405D02*
X4451Y2405D01*
X4089Y2366D02*
X4148Y2366D01*
X4389Y2366D02*
X4448Y2366D01*
X4085Y2365D02*
X4152Y2365D01*
X4385Y2365D02*
X4452Y2365D01*
X4082Y2364D02*
X4155Y2364D01*
X4382Y2364D02*
X4455Y2364D01*
X4080Y2363D02*
X4158Y2363D01*
X4379Y2363D02*
X4458Y2363D01*
X4078Y2362D02*
X4160Y2362D01*
X4378Y2362D02*
X4460Y2362D01*
X4076Y2361D02*
X4161Y2361D01*
X4376Y2361D02*
X4461Y2361D01*
X4075Y2360D02*
X4163Y2360D01*
X4374Y2360D02*
X4463Y2360D01*
X4073Y2359D02*
X4164Y2359D01*
X4373Y2359D02*
X4464Y2359D01*
X4072Y2358D02*
X4165Y2358D01*
X4372Y2358D02*
X4465Y2358D01*
X4071Y2357D02*
X4166Y2357D01*
X4371Y2357D02*
X4466Y2357D01*
X4070Y2356D02*
X4167Y2356D01*
X4370Y2356D02*
X4467Y2356D01*
X4069Y2355D02*
X4168Y2355D01*
X4369Y2355D02*
X4468Y2355D01*
X4068Y2354D02*
X4169Y2354D01*
X4368Y2354D02*
X4469Y2354D01*
X4068Y2353D02*
X4169Y2353D01*
X4368Y2353D02*
X4469Y2353D01*
X4067Y2352D02*
X4170Y2352D01*
X4367Y2352D02*
X4470Y2352D01*
X4066Y2351D02*
X4171Y2351D01*
X4366Y2351D02*
X4471Y2351D01*
X4066Y2350D02*
X4171Y2350D01*
X4366Y2350D02*
X4471Y2350D01*
X4065Y2349D02*
X4172Y2349D01*
X4365Y2349D02*
X4472Y2349D01*
X4065Y2348D02*
X4172Y2348D01*
X4365Y2348D02*
X4472Y2348D01*
X4064Y2347D02*
X4173Y2347D01*
X4364Y2347D02*
X4473Y2347D01*
X4064Y2346D02*
X4116Y2346D01*
X4122Y2346D02*
X4173Y2346D01*
X4364Y2346D02*
X4416Y2346D01*
X4422Y2346D02*
X4473Y2346D01*
X4064Y2345D02*
X4113Y2345D01*
X4124Y2345D02*
X4173Y2345D01*
X4364Y2345D02*
X4413Y2345D01*
X4424Y2345D02*
X4473Y2345D01*
X4063Y2344D02*
X4111Y2344D01*
X4126Y2344D02*
X4174Y2344D01*
X4363Y2344D02*
X4411Y2344D01*
X4426Y2344D02*
X4474Y2344D01*
X4063Y2343D02*
X4110Y2343D01*
X4127Y2343D02*
X4174Y2343D01*
X4363Y2343D02*
X4410Y2343D01*
X4427Y2343D02*
X4474Y2343D01*
X4063Y2342D02*
X4109Y2342D01*
X4128Y2342D02*
X4174Y2342D01*
X4363Y2342D02*
X4409Y2342D01*
X4428Y2342D02*
X4474Y2342D01*
X4063Y2341D02*
X4109Y2341D01*
X4128Y2341D02*
X4174Y2341D01*
X4363Y2341D02*
X4409Y2341D01*
X4428Y2341D02*
X4474Y2341D01*
X4063Y2340D02*
X4108Y2340D01*
X4129Y2340D02*
X4175Y2340D01*
X4362Y2340D02*
X4408Y2340D01*
X4429Y2340D02*
X4475Y2340D01*
X4062Y2339D02*
X4108Y2339D01*
X4129Y2339D02*
X4175Y2339D01*
X4362Y2339D02*
X4408Y2339D01*
X4429Y2339D02*
X4475Y2339D01*
X4062Y2338D02*
X4107Y2338D01*
X4130Y2338D02*
X4175Y2338D01*
X4362Y2338D02*
X4407Y2338D01*
X4430Y2338D02*
X4475Y2338D01*
X4062Y2337D02*
X4107Y2337D01*
X4130Y2337D02*
X4175Y2337D01*
X4362Y2337D02*
X4407Y2337D01*
X4430Y2337D02*
X4475Y2337D01*
X4062Y2336D02*
X4107Y2336D01*
X4130Y2336D02*
X4175Y2336D01*
X4362Y2336D02*
X4407Y2336D01*
X4430Y2336D02*
X4475Y2336D01*
X4062Y2335D02*
X4107Y2335D01*
X4130Y2335D02*
X4175Y2335D01*
X4362Y2335D02*
X4407Y2335D01*
X4430Y2335D02*
X4475Y2335D01*
X4062Y2334D02*
X4107Y2334D01*
X4130Y2334D02*
X4175Y2334D01*
X4362Y2334D02*
X4407Y2334D01*
X4430Y2334D02*
X4475Y2334D01*
X4062Y2333D02*
X4107Y2333D01*
X4130Y2333D02*
X4175Y2333D01*
X4362Y2333D02*
X4407Y2333D01*
X4430Y2333D02*
X4475Y2333D01*
X4062Y2332D02*
X4108Y2332D01*
X4130Y2332D02*
X4175Y2332D01*
X4362Y2332D02*
X4408Y2332D01*
X4430Y2332D02*
X4475Y2332D01*
X4062Y2331D02*
X4108Y2331D01*
X4129Y2331D02*
X4175Y2331D01*
X4362Y2331D02*
X4408Y2331D01*
X4429Y2331D02*
X4475Y2331D01*
X4063Y2330D02*
X4108Y2330D01*
X4129Y2330D02*
X4175Y2330D01*
X4363Y2330D02*
X4408Y2330D01*
X4429Y2330D02*
X4475Y2330D01*
X4063Y2329D02*
X4109Y2329D01*
X4128Y2329D02*
X4174Y2329D01*
X4363Y2329D02*
X4409Y2329D01*
X4428Y2329D02*
X4474Y2329D01*
X4063Y2328D02*
X4110Y2328D01*
X4127Y2328D02*
X4174Y2328D01*
X4363Y2328D02*
X4410Y2328D01*
X4427Y2328D02*
X4474Y2328D01*
X4063Y2327D02*
X4111Y2327D01*
X4126Y2327D02*
X4174Y2327D01*
X4363Y2327D02*
X4411Y2327D01*
X4426Y2327D02*
X4474Y2327D01*
X4064Y2326D02*
X4112Y2326D01*
X4125Y2326D02*
X4174Y2326D01*
X4364Y2326D02*
X4412Y2326D01*
X4425Y2326D02*
X4474Y2326D01*
X4064Y2325D02*
X4114Y2325D01*
X4123Y2325D02*
X4173Y2325D01*
X4364Y2325D02*
X4414Y2325D01*
X4423Y2325D02*
X4473Y2325D01*
X4064Y2324D02*
X4173Y2324D01*
X4364Y2324D02*
X4473Y2324D01*
X4065Y2323D02*
X4172Y2323D01*
X4365Y2323D02*
X4472Y2323D01*
X4065Y2322D02*
X4172Y2322D01*
X4365Y2322D02*
X4472Y2322D01*
X4066Y2321D02*
X4171Y2321D01*
X4366Y2321D02*
X4471Y2321D01*
X4066Y2320D02*
X4171Y2320D01*
X4366Y2320D02*
X4471Y2320D01*
X4067Y2319D02*
X4170Y2319D01*
X4367Y2319D02*
X4470Y2319D01*
X4067Y2318D02*
X4170Y2318D01*
X4367Y2318D02*
X4470Y2318D01*
X4068Y2317D02*
X4169Y2317D01*
X4368Y2317D02*
X4469Y2317D01*
X4069Y2316D02*
X4168Y2316D01*
X4369Y2316D02*
X4468Y2316D01*
X4070Y2315D02*
X4167Y2315D01*
X4370Y2315D02*
X4467Y2315D01*
X4071Y2314D02*
X4167Y2314D01*
X4371Y2314D02*
X4467Y2314D01*
X4072Y2313D02*
X4166Y2313D01*
X4371Y2313D02*
X4466Y2313D01*
X4073Y2312D02*
X4165Y2312D01*
X4373Y2312D02*
X4464Y2312D01*
X4074Y2311D02*
X4163Y2311D01*
X4374Y2311D02*
X4463Y2311D01*
X4075Y2310D02*
X4162Y2310D01*
X4375Y2310D02*
X4462Y2310D01*
X4077Y2309D02*
X4160Y2309D01*
X4377Y2309D02*
X4460Y2309D01*
X4078Y2308D02*
X4159Y2308D01*
X4378Y2308D02*
X4459Y2308D01*
X4081Y2307D02*
X4157Y2307D01*
X4381Y2307D02*
X4457Y2307D01*
X4083Y2306D02*
X4154Y2306D01*
X4383Y2306D02*
X4454Y2306D01*
X4087Y2305D02*
X4151Y2305D01*
X4387Y2305D02*
X4450Y2305D01*
X4089Y2266D02*
X4148Y2266D01*
X4389Y2266D02*
X4448Y2266D01*
X4085Y2265D02*
X4152Y2265D01*
X4385Y2265D02*
X4452Y2265D01*
X4082Y2264D02*
X4155Y2264D01*
X4382Y2264D02*
X4455Y2264D01*
X4079Y2263D02*
X4158Y2263D01*
X4379Y2263D02*
X4458Y2263D01*
X4078Y2262D02*
X4160Y2262D01*
X4378Y2262D02*
X4460Y2262D01*
X4076Y2261D02*
X4161Y2261D01*
X4376Y2261D02*
X4461Y2261D01*
X4074Y2260D02*
X4163Y2260D01*
X4374Y2260D02*
X4463Y2260D01*
X4073Y2259D02*
X4164Y2259D01*
X4373Y2259D02*
X4464Y2259D01*
X4072Y2258D02*
X4165Y2258D01*
X4372Y2258D02*
X4465Y2258D01*
X4071Y2257D02*
X4166Y2257D01*
X4371Y2257D02*
X4466Y2257D01*
X4070Y2256D02*
X4167Y2256D01*
X4370Y2256D02*
X4467Y2256D01*
X4069Y2255D02*
X4168Y2255D01*
X4369Y2255D02*
X4468Y2255D01*
X4068Y2254D02*
X4169Y2254D01*
X4368Y2254D02*
X4469Y2254D01*
X4068Y2253D02*
X4169Y2253D01*
X4368Y2253D02*
X4469Y2253D01*
X4067Y2252D02*
X4170Y2252D01*
X4367Y2252D02*
X4470Y2252D01*
X4066Y2251D02*
X4171Y2251D01*
X4366Y2251D02*
X4471Y2251D01*
X4066Y2250D02*
X4171Y2250D01*
X4366Y2250D02*
X4471Y2250D01*
X4065Y2249D02*
X4172Y2249D01*
X4365Y2249D02*
X4472Y2249D01*
X4065Y2248D02*
X4172Y2248D01*
X4365Y2248D02*
X4472Y2248D01*
X4064Y2247D02*
X4173Y2247D01*
X4364Y2247D02*
X4473Y2247D01*
X4064Y2246D02*
X4116Y2246D01*
X4122Y2246D02*
X4173Y2246D01*
X4364Y2246D02*
X4416Y2246D01*
X4422Y2246D02*
X4473Y2246D01*
X4064Y2245D02*
X4113Y2245D01*
X4124Y2245D02*
X4173Y2245D01*
X4364Y2245D02*
X4413Y2245D01*
X4424Y2245D02*
X4473Y2245D01*
X4063Y2244D02*
X4111Y2244D01*
X4126Y2244D02*
X4174Y2244D01*
X4363Y2244D02*
X4411Y2244D01*
X4426Y2244D02*
X4474Y2244D01*
X4063Y2243D02*
X4110Y2243D01*
X4127Y2243D02*
X4174Y2243D01*
X4363Y2243D02*
X4410Y2243D01*
X4427Y2243D02*
X4474Y2243D01*
X4063Y2242D02*
X4109Y2242D01*
X4128Y2242D02*
X4174Y2242D01*
X4363Y2242D02*
X4409Y2242D01*
X4428Y2242D02*
X4474Y2242D01*
X4063Y2241D02*
X4109Y2241D01*
X4128Y2241D02*
X4174Y2241D01*
X4363Y2241D02*
X4409Y2241D01*
X4428Y2241D02*
X4474Y2241D01*
X4063Y2240D02*
X4108Y2240D01*
X4129Y2240D02*
X4175Y2240D01*
X4362Y2240D02*
X4408Y2240D01*
X4429Y2240D02*
X4475Y2240D01*
X4062Y2239D02*
X4108Y2239D01*
X4129Y2239D02*
X4175Y2239D01*
X4362Y2239D02*
X4408Y2239D01*
X4429Y2239D02*
X4475Y2239D01*
X4062Y2238D02*
X4107Y2238D01*
X4130Y2238D02*
X4175Y2238D01*
X4362Y2238D02*
X4407Y2238D01*
X4430Y2238D02*
X4475Y2238D01*
X4062Y2237D02*
X4107Y2237D01*
X4130Y2237D02*
X4175Y2237D01*
X4362Y2237D02*
X4407Y2237D01*
X4430Y2237D02*
X4475Y2237D01*
X4062Y2236D02*
X4107Y2236D01*
X4130Y2236D02*
X4175Y2236D01*
X4362Y2236D02*
X4407Y2236D01*
X4430Y2236D02*
X4475Y2236D01*
X4062Y2235D02*
X4107Y2235D01*
X4130Y2235D02*
X4175Y2235D01*
X4362Y2235D02*
X4407Y2235D01*
X4430Y2235D02*
X4475Y2235D01*
X4062Y2234D02*
X4107Y2234D01*
X4130Y2234D02*
X4175Y2234D01*
X4362Y2234D02*
X4407Y2234D01*
X4430Y2234D02*
X4475Y2234D01*
X4062Y2233D02*
X4107Y2233D01*
X4130Y2233D02*
X4175Y2233D01*
X4362Y2233D02*
X4407Y2233D01*
X4430Y2233D02*
X4475Y2233D01*
X4062Y2232D02*
X4108Y2232D01*
X4130Y2232D02*
X4175Y2232D01*
X4362Y2232D02*
X4408Y2232D01*
X4430Y2232D02*
X4475Y2232D01*
X4062Y2231D02*
X4108Y2231D01*
X4129Y2231D02*
X4175Y2231D01*
X4362Y2231D02*
X4408Y2231D01*
X4429Y2231D02*
X4475Y2231D01*
X4063Y2230D02*
X4108Y2230D01*
X4129Y2230D02*
X4175Y2230D01*
X4363Y2230D02*
X4408Y2230D01*
X4429Y2230D02*
X4475Y2230D01*
X4063Y2229D02*
X4109Y2229D01*
X4128Y2229D02*
X4174Y2229D01*
X4363Y2229D02*
X4409Y2229D01*
X4428Y2229D02*
X4474Y2229D01*
X4063Y2228D02*
X4110Y2228D01*
X4127Y2228D02*
X4174Y2228D01*
X4363Y2228D02*
X4410Y2228D01*
X4427Y2228D02*
X4474Y2228D01*
X4063Y2227D02*
X4111Y2227D01*
X4126Y2227D02*
X4174Y2227D01*
X4363Y2227D02*
X4411Y2227D01*
X4426Y2227D02*
X4474Y2227D01*
X4064Y2226D02*
X4112Y2226D01*
X4125Y2226D02*
X4174Y2226D01*
X4364Y2226D02*
X4412Y2226D01*
X4425Y2226D02*
X4474Y2226D01*
X4064Y2225D02*
X4114Y2225D01*
X4123Y2225D02*
X4173Y2225D01*
X4364Y2225D02*
X4414Y2225D01*
X4423Y2225D02*
X4473Y2225D01*
X4064Y2224D02*
X4173Y2224D01*
X4364Y2224D02*
X4473Y2224D01*
X4065Y2223D02*
X4172Y2223D01*
X4365Y2223D02*
X4472Y2223D01*
X4065Y2222D02*
X4172Y2222D01*
X4365Y2222D02*
X4472Y2222D01*
X4066Y2221D02*
X4171Y2221D01*
X4366Y2221D02*
X4471Y2221D01*
X4066Y2220D02*
X4171Y2220D01*
X4366Y2220D02*
X4471Y2220D01*
X4067Y2219D02*
X4170Y2219D01*
X4367Y2219D02*
X4470Y2219D01*
X4067Y2218D02*
X4170Y2218D01*
X4367Y2218D02*
X4470Y2218D01*
X4068Y2217D02*
X4169Y2217D01*
X4368Y2217D02*
X4469Y2217D01*
X4069Y2216D02*
X4168Y2216D01*
X4369Y2216D02*
X4468Y2216D01*
X4070Y2215D02*
X4167Y2215D01*
X4370Y2215D02*
X4467Y2215D01*
X4071Y2214D02*
X4167Y2214D01*
X4371Y2214D02*
X4467Y2214D01*
X4072Y2213D02*
X4166Y2213D01*
X4372Y2213D02*
X4466Y2213D01*
X4073Y2212D02*
X4164Y2212D01*
X4373Y2212D02*
X4464Y2212D01*
X4074Y2211D02*
X4163Y2211D01*
X4374Y2211D02*
X4463Y2211D01*
X4075Y2210D02*
X4162Y2210D01*
X4375Y2210D02*
X4462Y2210D01*
X4077Y2209D02*
X4160Y2209D01*
X4377Y2209D02*
X4460Y2209D01*
X4078Y2208D02*
X4159Y2208D01*
X4378Y2208D02*
X4459Y2208D01*
X4081Y2207D02*
X4157Y2207D01*
X4381Y2207D02*
X4457Y2207D01*
X4083Y2206D02*
X4154Y2206D01*
X4383Y2206D02*
X4454Y2206D01*
X4087Y2205D02*
X4151Y2205D01*
X4387Y2205D02*
X4450Y2205D01*
X4089Y2166D02*
X4148Y2166D01*
X4389Y2166D02*
X4448Y2166D01*
X4085Y2165D02*
X4152Y2165D01*
X4385Y2165D02*
X4452Y2165D01*
X4082Y2164D02*
X4155Y2164D01*
X4382Y2164D02*
X4455Y2164D01*
X4079Y2163D02*
X4158Y2163D01*
X4379Y2163D02*
X4458Y2163D01*
X4078Y2162D02*
X4160Y2162D01*
X4378Y2162D02*
X4460Y2162D01*
X4076Y2161D02*
X4161Y2161D01*
X4376Y2161D02*
X4461Y2161D01*
X4074Y2160D02*
X4163Y2160D01*
X4374Y2160D02*
X4463Y2160D01*
X4073Y2159D02*
X4164Y2159D01*
X4373Y2159D02*
X4464Y2159D01*
X4072Y2158D02*
X4165Y2158D01*
X4372Y2158D02*
X4465Y2158D01*
X4071Y2157D02*
X4166Y2157D01*
X4371Y2157D02*
X4466Y2157D01*
X4070Y2156D02*
X4167Y2156D01*
X4370Y2156D02*
X4467Y2156D01*
X4069Y2155D02*
X4168Y2155D01*
X4369Y2155D02*
X4468Y2155D01*
X4068Y2154D02*
X4169Y2154D01*
X4368Y2154D02*
X4469Y2154D01*
X4068Y2153D02*
X4169Y2153D01*
X4368Y2153D02*
X4469Y2153D01*
X4067Y2152D02*
X4170Y2152D01*
X4367Y2152D02*
X4470Y2152D01*
X4066Y2151D02*
X4171Y2151D01*
X4366Y2151D02*
X4471Y2151D01*
X4066Y2150D02*
X4171Y2150D01*
X4366Y2150D02*
X4471Y2150D01*
X4065Y2149D02*
X4172Y2149D01*
X4365Y2149D02*
X4472Y2149D01*
X4065Y2148D02*
X4172Y2148D01*
X4365Y2148D02*
X4472Y2148D01*
X4064Y2147D02*
X4173Y2147D01*
X4364Y2147D02*
X4473Y2147D01*
X4064Y2146D02*
X4116Y2146D01*
X4122Y2146D02*
X4173Y2146D01*
X4364Y2146D02*
X4416Y2146D01*
X4422Y2146D02*
X4473Y2146D01*
X4064Y2145D02*
X4113Y2145D01*
X4124Y2145D02*
X4173Y2145D01*
X4364Y2145D02*
X4413Y2145D01*
X4424Y2145D02*
X4473Y2145D01*
X4063Y2144D02*
X4111Y2144D01*
X4126Y2144D02*
X4174Y2144D01*
X4363Y2144D02*
X4411Y2144D01*
X4426Y2144D02*
X4474Y2144D01*
X4063Y2143D02*
X4110Y2143D01*
X4127Y2143D02*
X4174Y2143D01*
X4363Y2143D02*
X4410Y2143D01*
X4427Y2143D02*
X4474Y2143D01*
X4063Y2142D02*
X4109Y2142D01*
X4128Y2142D02*
X4174Y2142D01*
X4363Y2142D02*
X4409Y2142D01*
X4428Y2142D02*
X4474Y2142D01*
X4063Y2141D02*
X4109Y2141D01*
X4128Y2141D02*
X4174Y2141D01*
X4363Y2141D02*
X4409Y2141D01*
X4428Y2141D02*
X4474Y2141D01*
X4063Y2140D02*
X4108Y2140D01*
X4129Y2140D02*
X4175Y2140D01*
X4362Y2140D02*
X4408Y2140D01*
X4429Y2140D02*
X4475Y2140D01*
X4062Y2139D02*
X4108Y2139D01*
X4129Y2139D02*
X4175Y2139D01*
X4362Y2139D02*
X4408Y2139D01*
X4429Y2139D02*
X4475Y2139D01*
X4062Y2138D02*
X4107Y2138D01*
X4130Y2138D02*
X4175Y2138D01*
X4362Y2138D02*
X4407Y2138D01*
X4430Y2138D02*
X4475Y2138D01*
X4062Y2137D02*
X4107Y2137D01*
X4130Y2137D02*
X4175Y2137D01*
X4362Y2137D02*
X4407Y2137D01*
X4430Y2137D02*
X4475Y2137D01*
X4062Y2136D02*
X4107Y2136D01*
X4130Y2136D02*
X4175Y2136D01*
X4362Y2136D02*
X4407Y2136D01*
X4430Y2136D02*
X4475Y2136D01*
X4062Y2135D02*
X4107Y2135D01*
X4130Y2135D02*
X4175Y2135D01*
X4362Y2135D02*
X4407Y2135D01*
X4430Y2135D02*
X4475Y2135D01*
X4062Y2134D02*
X4107Y2134D01*
X4130Y2134D02*
X4175Y2134D01*
X4362Y2134D02*
X4407Y2134D01*
X4430Y2134D02*
X4475Y2134D01*
X4062Y2133D02*
X4107Y2133D01*
X4130Y2133D02*
X4175Y2133D01*
X4362Y2133D02*
X4407Y2133D01*
X4430Y2133D02*
X4475Y2133D01*
X4062Y2132D02*
X4108Y2132D01*
X4130Y2132D02*
X4175Y2132D01*
X4362Y2132D02*
X4408Y2132D01*
X4430Y2132D02*
X4475Y2132D01*
X4062Y2131D02*
X4108Y2131D01*
X4129Y2131D02*
X4175Y2131D01*
X4362Y2131D02*
X4408Y2131D01*
X4429Y2131D02*
X4475Y2131D01*
X4063Y2130D02*
X4108Y2130D01*
X4129Y2130D02*
X4175Y2130D01*
X4363Y2130D02*
X4408Y2130D01*
X4429Y2130D02*
X4475Y2130D01*
X4063Y2129D02*
X4109Y2129D01*
X4128Y2129D02*
X4174Y2129D01*
X4363Y2129D02*
X4409Y2129D01*
X4428Y2129D02*
X4474Y2129D01*
X4063Y2128D02*
X4110Y2128D01*
X4127Y2128D02*
X4174Y2128D01*
X4363Y2128D02*
X4410Y2128D01*
X4427Y2128D02*
X4474Y2128D01*
X4063Y2127D02*
X4111Y2127D01*
X4126Y2127D02*
X4174Y2127D01*
X4363Y2127D02*
X4411Y2127D01*
X4426Y2127D02*
X4474Y2127D01*
X4064Y2126D02*
X4112Y2126D01*
X4125Y2126D02*
X4174Y2126D01*
X4364Y2126D02*
X4412Y2126D01*
X4425Y2126D02*
X4474Y2126D01*
X4064Y2125D02*
X4114Y2125D01*
X4123Y2125D02*
X4173Y2125D01*
X4364Y2125D02*
X4414Y2125D01*
X4423Y2125D02*
X4473Y2125D01*
X4064Y2124D02*
X4173Y2124D01*
X4364Y2124D02*
X4473Y2124D01*
X4065Y2123D02*
X4172Y2123D01*
X4365Y2123D02*
X4472Y2123D01*
X4065Y2122D02*
X4172Y2122D01*
X4365Y2122D02*
X4472Y2122D01*
X4066Y2121D02*
X4171Y2121D01*
X4366Y2121D02*
X4471Y2121D01*
X4066Y2120D02*
X4171Y2120D01*
X4366Y2120D02*
X4471Y2120D01*
X4067Y2119D02*
X4170Y2119D01*
X4367Y2119D02*
X4470Y2119D01*
X4067Y2118D02*
X4170Y2118D01*
X4367Y2118D02*
X4470Y2118D01*
X4068Y2117D02*
X4169Y2117D01*
X4368Y2117D02*
X4469Y2117D01*
X4069Y2116D02*
X4168Y2116D01*
X4369Y2116D02*
X4468Y2116D01*
X4070Y2115D02*
X4167Y2115D01*
X4370Y2115D02*
X4467Y2115D01*
X4071Y2114D02*
X4167Y2114D01*
X4371Y2114D02*
X4467Y2114D01*
X4072Y2113D02*
X4166Y2113D01*
X4372Y2113D02*
X4466Y2113D01*
X4073Y2112D02*
X4164Y2112D01*
X4373Y2112D02*
X4464Y2112D01*
X4074Y2111D02*
X4163Y2111D01*
X4374Y2111D02*
X4463Y2111D01*
X4075Y2110D02*
X4162Y2110D01*
X4375Y2110D02*
X4462Y2110D01*
X4077Y2109D02*
X4160Y2109D01*
X4377Y2109D02*
X4460Y2109D01*
X4078Y2108D02*
X4159Y2108D01*
X4378Y2108D02*
X4459Y2108D01*
X4081Y2107D02*
X4157Y2107D01*
X4381Y2107D02*
X4457Y2107D01*
X4083Y2106D02*
X4154Y2106D01*
X4383Y2106D02*
X4454Y2106D01*
X4087Y2105D02*
X4151Y2105D01*
X4387Y2105D02*
X4450Y2105D01*
X4089Y2066D02*
X4148Y2066D01*
X4389Y2066D02*
X4448Y2066D01*
X4085Y2065D02*
X4152Y2065D01*
X4385Y2065D02*
X4452Y2065D01*
X4082Y2064D02*
X4155Y2064D01*
X4382Y2064D02*
X4455Y2064D01*
X4079Y2063D02*
X4158Y2063D01*
X4379Y2063D02*
X4458Y2063D01*
X4078Y2062D02*
X4160Y2062D01*
X4378Y2062D02*
X4460Y2062D01*
X4076Y2061D02*
X4161Y2061D01*
X4376Y2061D02*
X4461Y2061D01*
X4074Y2060D02*
X4163Y2060D01*
X4374Y2060D02*
X4463Y2060D01*
X4073Y2059D02*
X4164Y2059D01*
X4373Y2059D02*
X4464Y2059D01*
X4072Y2058D02*
X4165Y2058D01*
X4372Y2058D02*
X4465Y2058D01*
X4071Y2057D02*
X4166Y2057D01*
X4371Y2057D02*
X4466Y2057D01*
X4070Y2056D02*
X4167Y2056D01*
X4370Y2056D02*
X4467Y2056D01*
X4069Y2055D02*
X4168Y2055D01*
X4369Y2055D02*
X4468Y2055D01*
X4068Y2054D02*
X4169Y2054D01*
X4368Y2054D02*
X4469Y2054D01*
X4068Y2053D02*
X4169Y2053D01*
X4368Y2053D02*
X4469Y2053D01*
X4067Y2052D02*
X4170Y2052D01*
X4367Y2052D02*
X4470Y2052D01*
X4066Y2051D02*
X4171Y2051D01*
X4366Y2051D02*
X4471Y2051D01*
X4066Y2050D02*
X4171Y2050D01*
X4366Y2050D02*
X4471Y2050D01*
X4065Y2049D02*
X4172Y2049D01*
X4365Y2049D02*
X4472Y2049D01*
X4065Y2048D02*
X4172Y2048D01*
X4365Y2048D02*
X4472Y2048D01*
X4064Y2047D02*
X4173Y2047D01*
X4364Y2047D02*
X4473Y2047D01*
X4064Y2046D02*
X4116Y2046D01*
X4122Y2046D02*
X4173Y2046D01*
X4364Y2046D02*
X4416Y2046D01*
X4422Y2046D02*
X4473Y2046D01*
X4064Y2045D02*
X4113Y2045D01*
X4124Y2045D02*
X4173Y2045D01*
X4364Y2045D02*
X4413Y2045D01*
X4424Y2045D02*
X4473Y2045D01*
X4063Y2044D02*
X4111Y2044D01*
X4126Y2044D02*
X4174Y2044D01*
X4363Y2044D02*
X4411Y2044D01*
X4426Y2044D02*
X4474Y2044D01*
X4063Y2043D02*
X4110Y2043D01*
X4127Y2043D02*
X4174Y2043D01*
X4363Y2043D02*
X4410Y2043D01*
X4427Y2043D02*
X4474Y2043D01*
X4063Y2042D02*
X4109Y2042D01*
X4128Y2042D02*
X4174Y2042D01*
X4363Y2042D02*
X4409Y2042D01*
X4428Y2042D02*
X4474Y2042D01*
X4063Y2041D02*
X4109Y2041D01*
X4128Y2041D02*
X4174Y2041D01*
X4363Y2041D02*
X4409Y2041D01*
X4428Y2041D02*
X4474Y2041D01*
X4062Y2040D02*
X4108Y2040D01*
X4129Y2040D02*
X4175Y2040D01*
X4362Y2040D02*
X4408Y2040D01*
X4429Y2040D02*
X4475Y2040D01*
X4062Y2039D02*
X4108Y2039D01*
X4129Y2039D02*
X4175Y2039D01*
X4362Y2039D02*
X4408Y2039D01*
X4429Y2039D02*
X4475Y2039D01*
X4062Y2038D02*
X4107Y2038D01*
X4130Y2038D02*
X4175Y2038D01*
X4362Y2038D02*
X4407Y2038D01*
X4430Y2038D02*
X4475Y2038D01*
X4062Y2037D02*
X4107Y2037D01*
X4130Y2037D02*
X4175Y2037D01*
X4362Y2037D02*
X4407Y2037D01*
X4430Y2037D02*
X4475Y2037D01*
X4062Y2036D02*
X4107Y2036D01*
X4130Y2036D02*
X4175Y2036D01*
X4362Y2036D02*
X4407Y2036D01*
X4430Y2036D02*
X4475Y2036D01*
X4062Y2035D02*
X4107Y2035D01*
X4130Y2035D02*
X4175Y2035D01*
X4362Y2035D02*
X4407Y2035D01*
X4430Y2035D02*
X4475Y2035D01*
X4062Y2034D02*
X4107Y2034D01*
X4130Y2034D02*
X4175Y2034D01*
X4362Y2034D02*
X4407Y2034D01*
X4430Y2034D02*
X4475Y2034D01*
X4062Y2033D02*
X4107Y2033D01*
X4130Y2033D02*
X4175Y2033D01*
X4362Y2033D02*
X4407Y2033D01*
X4430Y2033D02*
X4475Y2033D01*
X4062Y2032D02*
X4108Y2032D01*
X4130Y2032D02*
X4175Y2032D01*
X4362Y2032D02*
X4408Y2032D01*
X4430Y2032D02*
X4475Y2032D01*
X4062Y2031D02*
X4108Y2031D01*
X4129Y2031D02*
X4175Y2031D01*
X4362Y2031D02*
X4408Y2031D01*
X4429Y2031D02*
X4475Y2031D01*
X4063Y2030D02*
X4108Y2030D01*
X4129Y2030D02*
X4175Y2030D01*
X4363Y2030D02*
X4408Y2030D01*
X4429Y2030D02*
X4475Y2030D01*
X4063Y2029D02*
X4109Y2029D01*
X4128Y2029D02*
X4174Y2029D01*
X4363Y2029D02*
X4409Y2029D01*
X4428Y2029D02*
X4474Y2029D01*
X4063Y2028D02*
X4110Y2028D01*
X4127Y2028D02*
X4174Y2028D01*
X4363Y2028D02*
X4410Y2028D01*
X4427Y2028D02*
X4474Y2028D01*
X4063Y2027D02*
X4111Y2027D01*
X4126Y2027D02*
X4174Y2027D01*
X4363Y2027D02*
X4411Y2027D01*
X4426Y2027D02*
X4474Y2027D01*
X4064Y2026D02*
X4112Y2026D01*
X4125Y2026D02*
X4174Y2026D01*
X4364Y2026D02*
X4412Y2026D01*
X4425Y2026D02*
X4474Y2026D01*
X4064Y2025D02*
X4114Y2025D01*
X4123Y2025D02*
X4173Y2025D01*
X4364Y2025D02*
X4414Y2025D01*
X4423Y2025D02*
X4473Y2025D01*
X4064Y2024D02*
X4173Y2024D01*
X4364Y2024D02*
X4473Y2024D01*
X4065Y2023D02*
X4172Y2023D01*
X4365Y2023D02*
X4472Y2023D01*
X4065Y2022D02*
X4172Y2022D01*
X4365Y2022D02*
X4472Y2022D01*
X4066Y2021D02*
X4171Y2021D01*
X4366Y2021D02*
X4471Y2021D01*
X4066Y2020D02*
X4171Y2020D01*
X4366Y2020D02*
X4471Y2020D01*
X4067Y2019D02*
X4170Y2019D01*
X4367Y2019D02*
X4470Y2019D01*
X4067Y2018D02*
X4170Y2018D01*
X4367Y2018D02*
X4470Y2018D01*
X4068Y2017D02*
X4169Y2017D01*
X4368Y2017D02*
X4469Y2017D01*
X4069Y2016D02*
X4168Y2016D01*
X4369Y2016D02*
X4468Y2016D01*
X4070Y2015D02*
X4167Y2015D01*
X4370Y2015D02*
X4467Y2015D01*
X4071Y2014D02*
X4167Y2014D01*
X4371Y2014D02*
X4467Y2014D01*
X4072Y2013D02*
X4166Y2013D01*
X4372Y2013D02*
X4466Y2013D01*
X4073Y2012D02*
X4164Y2012D01*
X4373Y2012D02*
X4464Y2012D01*
X4074Y2011D02*
X4163Y2011D01*
X4374Y2011D02*
X4463Y2011D01*
X4075Y2010D02*
X4162Y2010D01*
X4375Y2010D02*
X4462Y2010D01*
X4077Y2009D02*
X4160Y2009D01*
X4377Y2009D02*
X4460Y2009D01*
X4079Y2008D02*
X4159Y2008D01*
X4378Y2008D02*
X4459Y2008D01*
X4081Y2007D02*
X4157Y2007D01*
X4381Y2007D02*
X4457Y2007D01*
X4083Y2006D02*
X4154Y2006D01*
X4383Y2006D02*
X4454Y2006D01*
X4087Y2005D02*
X4150Y2005D01*
X4387Y2005D02*
X4450Y2005D01*
X4089Y1966D02*
X4148Y1966D01*
X4389Y1966D02*
X4448Y1966D01*
X4085Y1965D02*
X4153Y1965D01*
X4385Y1965D02*
X4452Y1965D01*
X4082Y1964D02*
X4155Y1964D01*
X4382Y1964D02*
X4455Y1964D01*
X4079Y1963D02*
X4158Y1963D01*
X4379Y1963D02*
X4458Y1963D01*
X4078Y1962D02*
X4160Y1962D01*
X4378Y1962D02*
X4460Y1962D01*
X4076Y1961D02*
X4161Y1961D01*
X4376Y1961D02*
X4461Y1961D01*
X4074Y1960D02*
X4163Y1960D01*
X4374Y1960D02*
X4463Y1960D01*
X4073Y1959D02*
X4164Y1959D01*
X4373Y1959D02*
X4464Y1959D01*
X4072Y1958D02*
X4165Y1958D01*
X4372Y1958D02*
X4465Y1958D01*
X4071Y1957D02*
X4166Y1957D01*
X4371Y1957D02*
X4466Y1957D01*
X4070Y1956D02*
X4167Y1956D01*
X4370Y1956D02*
X4467Y1956D01*
X4069Y1955D02*
X4168Y1955D01*
X4369Y1955D02*
X4468Y1955D01*
X4068Y1954D02*
X4169Y1954D01*
X4368Y1954D02*
X4469Y1954D01*
X4068Y1953D02*
X4169Y1953D01*
X4368Y1953D02*
X4469Y1953D01*
X4067Y1952D02*
X4170Y1952D01*
X4367Y1952D02*
X4470Y1952D01*
X4066Y1951D02*
X4171Y1951D01*
X4366Y1951D02*
X4471Y1951D01*
X4066Y1950D02*
X4171Y1950D01*
X4366Y1950D02*
X4471Y1950D01*
X4065Y1949D02*
X4172Y1949D01*
X4365Y1949D02*
X4472Y1949D01*
X4065Y1948D02*
X4172Y1948D01*
X4365Y1948D02*
X4472Y1948D01*
X4064Y1947D02*
X4173Y1947D01*
X4364Y1947D02*
X4473Y1947D01*
X4064Y1946D02*
X4116Y1946D01*
X4122Y1946D02*
X4173Y1946D01*
X4364Y1946D02*
X4416Y1946D01*
X4422Y1946D02*
X4473Y1946D01*
X4064Y1945D02*
X4113Y1945D01*
X4124Y1945D02*
X4173Y1945D01*
X4364Y1945D02*
X4413Y1945D01*
X4424Y1945D02*
X4473Y1945D01*
X4063Y1944D02*
X4111Y1944D01*
X4126Y1944D02*
X4174Y1944D01*
X4363Y1944D02*
X4411Y1944D01*
X4426Y1944D02*
X4474Y1944D01*
X4063Y1943D02*
X4110Y1943D01*
X4127Y1943D02*
X4174Y1943D01*
X4363Y1943D02*
X4410Y1943D01*
X4427Y1943D02*
X4474Y1943D01*
X4063Y1942D02*
X4109Y1942D01*
X4128Y1942D02*
X4174Y1942D01*
X4363Y1942D02*
X4409Y1942D01*
X4428Y1942D02*
X4474Y1942D01*
X4063Y1941D02*
X4109Y1941D01*
X4128Y1941D02*
X4174Y1941D01*
X4363Y1941D02*
X4409Y1941D01*
X4428Y1941D02*
X4474Y1941D01*
X4062Y1940D02*
X4108Y1940D01*
X4129Y1940D02*
X4175Y1940D01*
X4362Y1940D02*
X4408Y1940D01*
X4429Y1940D02*
X4475Y1940D01*
X4062Y1939D02*
X4108Y1939D01*
X4129Y1939D02*
X4175Y1939D01*
X4362Y1939D02*
X4408Y1939D01*
X4429Y1939D02*
X4475Y1939D01*
X4062Y1938D02*
X4107Y1938D01*
X4130Y1938D02*
X4175Y1938D01*
X4362Y1938D02*
X4407Y1938D01*
X4430Y1938D02*
X4475Y1938D01*
X4062Y1937D02*
X4107Y1937D01*
X4130Y1937D02*
X4175Y1937D01*
X4362Y1937D02*
X4407Y1937D01*
X4430Y1937D02*
X4475Y1937D01*
X4062Y1936D02*
X4107Y1936D01*
X4130Y1936D02*
X4175Y1936D01*
X4362Y1936D02*
X4407Y1936D01*
X4430Y1936D02*
X4475Y1936D01*
X4062Y1935D02*
X4107Y1935D01*
X4130Y1935D02*
X4175Y1935D01*
X4362Y1935D02*
X4407Y1935D01*
X4430Y1935D02*
X4475Y1935D01*
X4062Y1934D02*
X4107Y1934D01*
X4130Y1934D02*
X4175Y1934D01*
X4362Y1934D02*
X4407Y1934D01*
X4430Y1934D02*
X4475Y1934D01*
X4062Y1933D02*
X4107Y1933D01*
X4130Y1933D02*
X4175Y1933D01*
X4362Y1933D02*
X4407Y1933D01*
X4430Y1933D02*
X4475Y1933D01*
X4062Y1932D02*
X4108Y1932D01*
X4130Y1932D02*
X4175Y1932D01*
X4362Y1932D02*
X4408Y1932D01*
X4430Y1932D02*
X4475Y1932D01*
X4062Y1931D02*
X4108Y1931D01*
X4129Y1931D02*
X4175Y1931D01*
X4362Y1931D02*
X4408Y1931D01*
X4429Y1931D02*
X4475Y1931D01*
X4063Y1930D02*
X4108Y1930D01*
X4129Y1930D02*
X4175Y1930D01*
X4363Y1930D02*
X4408Y1930D01*
X4429Y1930D02*
X4475Y1930D01*
X4063Y1929D02*
X4109Y1929D01*
X4128Y1929D02*
X4174Y1929D01*
X4363Y1929D02*
X4409Y1929D01*
X4428Y1929D02*
X4474Y1929D01*
X4063Y1928D02*
X4110Y1928D01*
X4127Y1928D02*
X4174Y1928D01*
X4363Y1928D02*
X4410Y1928D01*
X4427Y1928D02*
X4474Y1928D01*
X4063Y1927D02*
X4111Y1927D01*
X4126Y1927D02*
X4174Y1927D01*
X4363Y1927D02*
X4411Y1927D01*
X4426Y1927D02*
X4474Y1927D01*
X4064Y1926D02*
X4112Y1926D01*
X4125Y1926D02*
X4174Y1926D01*
X4364Y1926D02*
X4412Y1926D01*
X4425Y1926D02*
X4474Y1926D01*
X4064Y1925D02*
X4114Y1925D01*
X4123Y1925D02*
X4173Y1925D01*
X4364Y1925D02*
X4414Y1925D01*
X4423Y1925D02*
X4473Y1925D01*
X4064Y1924D02*
X4173Y1924D01*
X4364Y1924D02*
X4473Y1924D01*
X4065Y1923D02*
X4172Y1923D01*
X4365Y1923D02*
X4472Y1923D01*
X4065Y1922D02*
X4172Y1922D01*
X4365Y1922D02*
X4472Y1922D01*
X4066Y1921D02*
X4171Y1921D01*
X4366Y1921D02*
X4471Y1921D01*
X4066Y1920D02*
X4171Y1920D01*
X4366Y1920D02*
X4471Y1920D01*
X4067Y1919D02*
X4170Y1919D01*
X4367Y1919D02*
X4470Y1919D01*
X4067Y1918D02*
X4170Y1918D01*
X4367Y1918D02*
X4470Y1918D01*
X4068Y1917D02*
X4169Y1917D01*
X4368Y1917D02*
X4469Y1917D01*
X4069Y1916D02*
X4168Y1916D01*
X4369Y1916D02*
X4468Y1916D01*
X4070Y1915D02*
X4167Y1915D01*
X4370Y1915D02*
X4467Y1915D01*
X4071Y1914D02*
X4167Y1914D01*
X4371Y1914D02*
X4467Y1914D01*
X4072Y1913D02*
X4166Y1913D01*
X4372Y1913D02*
X4466Y1913D01*
X4073Y1912D02*
X4164Y1912D01*
X4373Y1912D02*
X4464Y1912D01*
X4074Y1911D02*
X4163Y1911D01*
X4374Y1911D02*
X4463Y1911D01*
X4075Y1910D02*
X4162Y1910D01*
X4375Y1910D02*
X4462Y1910D01*
X4077Y1909D02*
X4160Y1909D01*
X4377Y1909D02*
X4460Y1909D01*
X4079Y1908D02*
X4159Y1908D01*
X4378Y1908D02*
X4459Y1908D01*
X4081Y1907D02*
X4157Y1907D01*
X4381Y1907D02*
X4457Y1907D01*
X4083Y1906D02*
X4154Y1906D01*
X4383Y1906D02*
X4454Y1906D01*
X4087Y1905D02*
X4150Y1905D01*
X4387Y1905D02*
X4450Y1905D01*
X4089Y1866D02*
X4148Y1866D01*
X4389Y1866D02*
X4448Y1866D01*
X4085Y1865D02*
X4153Y1865D01*
X4385Y1865D02*
X4452Y1865D01*
X4082Y1864D02*
X4155Y1864D01*
X4382Y1864D02*
X4455Y1864D01*
X4079Y1863D02*
X4158Y1863D01*
X4379Y1863D02*
X4458Y1863D01*
X4078Y1862D02*
X4160Y1862D01*
X4378Y1862D02*
X4460Y1862D01*
X4076Y1861D02*
X4161Y1861D01*
X4376Y1861D02*
X4461Y1861D01*
X4074Y1860D02*
X4163Y1860D01*
X4374Y1860D02*
X4463Y1860D01*
X4073Y1859D02*
X4164Y1859D01*
X4373Y1859D02*
X4464Y1859D01*
X4072Y1858D02*
X4165Y1858D01*
X4372Y1858D02*
X4465Y1858D01*
X4071Y1857D02*
X4166Y1857D01*
X4371Y1857D02*
X4466Y1857D01*
X4070Y1856D02*
X4167Y1856D01*
X4370Y1856D02*
X4467Y1856D01*
X4069Y1855D02*
X4168Y1855D01*
X4369Y1855D02*
X4468Y1855D01*
X4068Y1854D02*
X4169Y1854D01*
X4368Y1854D02*
X4469Y1854D01*
X4068Y1853D02*
X4169Y1853D01*
X4368Y1853D02*
X4469Y1853D01*
X4067Y1852D02*
X4170Y1852D01*
X4367Y1852D02*
X4470Y1852D01*
X4066Y1851D02*
X4171Y1851D01*
X4366Y1851D02*
X4471Y1851D01*
X4066Y1850D02*
X4171Y1850D01*
X4366Y1850D02*
X4471Y1850D01*
X4065Y1849D02*
X4172Y1849D01*
X4365Y1849D02*
X4472Y1849D01*
X4065Y1848D02*
X4172Y1848D01*
X4365Y1848D02*
X4472Y1848D01*
X4064Y1847D02*
X4173Y1847D01*
X4364Y1847D02*
X4473Y1847D01*
X4064Y1846D02*
X4115Y1846D01*
X4122Y1846D02*
X4173Y1846D01*
X4364Y1846D02*
X4415Y1846D01*
X4422Y1846D02*
X4473Y1846D01*
X4064Y1845D02*
X4113Y1845D01*
X4124Y1845D02*
X4173Y1845D01*
X4364Y1845D02*
X4413Y1845D01*
X4424Y1845D02*
X4473Y1845D01*
X4063Y1844D02*
X4111Y1844D01*
X4126Y1844D02*
X4174Y1844D01*
X4363Y1844D02*
X4411Y1844D01*
X4426Y1844D02*
X4474Y1844D01*
X4063Y1843D02*
X4110Y1843D01*
X4127Y1843D02*
X4174Y1843D01*
X4363Y1843D02*
X4410Y1843D01*
X4427Y1843D02*
X4474Y1843D01*
X4063Y1842D02*
X4109Y1842D01*
X4128Y1842D02*
X4174Y1842D01*
X4363Y1842D02*
X4409Y1842D01*
X4428Y1842D02*
X4474Y1842D01*
X4063Y1841D02*
X4109Y1841D01*
X4128Y1841D02*
X4174Y1841D01*
X4363Y1841D02*
X4409Y1841D01*
X4428Y1841D02*
X4474Y1841D01*
X4062Y1840D02*
X4108Y1840D01*
X4129Y1840D02*
X4175Y1840D01*
X4362Y1840D02*
X4408Y1840D01*
X4429Y1840D02*
X4475Y1840D01*
X4062Y1839D02*
X4108Y1839D01*
X4129Y1839D02*
X4175Y1839D01*
X4362Y1839D02*
X4408Y1839D01*
X4429Y1839D02*
X4475Y1839D01*
X4062Y1838D02*
X4107Y1838D01*
X4130Y1838D02*
X4175Y1838D01*
X4362Y1838D02*
X4407Y1838D01*
X4430Y1838D02*
X4475Y1838D01*
X4062Y1837D02*
X4107Y1837D01*
X4130Y1837D02*
X4175Y1837D01*
X4362Y1837D02*
X4407Y1837D01*
X4430Y1837D02*
X4475Y1837D01*
X4062Y1836D02*
X4107Y1836D01*
X4130Y1836D02*
X4175Y1836D01*
X4362Y1836D02*
X4407Y1836D01*
X4430Y1836D02*
X4475Y1836D01*
X4062Y1835D02*
X4107Y1835D01*
X4130Y1835D02*
X4175Y1835D01*
X4362Y1835D02*
X4407Y1835D01*
X4430Y1835D02*
X4475Y1835D01*
X4062Y1834D02*
X4107Y1834D01*
X4130Y1834D02*
X4175Y1834D01*
X4362Y1834D02*
X4407Y1834D01*
X4430Y1834D02*
X4475Y1834D01*
X4062Y1833D02*
X4107Y1833D01*
X4130Y1833D02*
X4175Y1833D01*
X4362Y1833D02*
X4407Y1833D01*
X4430Y1833D02*
X4475Y1833D01*
X4062Y1832D02*
X4108Y1832D01*
X4130Y1832D02*
X4175Y1832D01*
X4362Y1832D02*
X4408Y1832D01*
X4430Y1832D02*
X4475Y1832D01*
X4062Y1831D02*
X4108Y1831D01*
X4129Y1831D02*
X4175Y1831D01*
X4362Y1831D02*
X4408Y1831D01*
X4429Y1831D02*
X4475Y1831D01*
X4063Y1830D02*
X4108Y1830D01*
X4129Y1830D02*
X4175Y1830D01*
X4363Y1830D02*
X4408Y1830D01*
X4429Y1830D02*
X4475Y1830D01*
X4063Y1829D02*
X4109Y1829D01*
X4128Y1829D02*
X4174Y1829D01*
X4363Y1829D02*
X4409Y1829D01*
X4428Y1829D02*
X4474Y1829D01*
X4063Y1828D02*
X4110Y1828D01*
X4127Y1828D02*
X4174Y1828D01*
X4363Y1828D02*
X4410Y1828D01*
X4427Y1828D02*
X4474Y1828D01*
X4063Y1827D02*
X4111Y1827D01*
X4126Y1827D02*
X4174Y1827D01*
X4363Y1827D02*
X4411Y1827D01*
X4426Y1827D02*
X4474Y1827D01*
X4064Y1826D02*
X4112Y1826D01*
X4125Y1826D02*
X4174Y1826D01*
X4364Y1826D02*
X4412Y1826D01*
X4425Y1826D02*
X4474Y1826D01*
X4064Y1825D02*
X4114Y1825D01*
X4123Y1825D02*
X4173Y1825D01*
X4364Y1825D02*
X4414Y1825D01*
X4423Y1825D02*
X4473Y1825D01*
X4064Y1824D02*
X4173Y1824D01*
X4364Y1824D02*
X4473Y1824D01*
X4065Y1823D02*
X4172Y1823D01*
X4365Y1823D02*
X4472Y1823D01*
X4065Y1822D02*
X4172Y1822D01*
X4365Y1822D02*
X4472Y1822D01*
X4066Y1821D02*
X4171Y1821D01*
X4366Y1821D02*
X4471Y1821D01*
X4066Y1820D02*
X4171Y1820D01*
X4366Y1820D02*
X4471Y1820D01*
X4067Y1819D02*
X4170Y1819D01*
X4367Y1819D02*
X4470Y1819D01*
X4067Y1818D02*
X4170Y1818D01*
X4367Y1818D02*
X4470Y1818D01*
X4068Y1817D02*
X4169Y1817D01*
X4368Y1817D02*
X4469Y1817D01*
X4069Y1816D02*
X4168Y1816D01*
X4369Y1816D02*
X4468Y1816D01*
X4070Y1815D02*
X4167Y1815D01*
X4370Y1815D02*
X4467Y1815D01*
X4071Y1814D02*
X4167Y1814D01*
X4371Y1814D02*
X4467Y1814D01*
X4072Y1813D02*
X4166Y1813D01*
X4372Y1813D02*
X4466Y1813D01*
X4073Y1812D02*
X4164Y1812D01*
X4373Y1812D02*
X4464Y1812D01*
X4074Y1811D02*
X4163Y1811D01*
X4374Y1811D02*
X4463Y1811D01*
X4075Y1810D02*
X4162Y1810D01*
X4375Y1810D02*
X4462Y1810D01*
X4077Y1809D02*
X4160Y1809D01*
X4377Y1809D02*
X4460Y1809D01*
X4079Y1808D02*
X4159Y1808D01*
X4378Y1808D02*
X4459Y1808D01*
X4081Y1807D02*
X4157Y1807D01*
X4381Y1807D02*
X4456Y1807D01*
X4083Y1806D02*
X4154Y1806D01*
X4383Y1806D02*
X4454Y1806D01*
X4087Y1805D02*
X4150Y1805D01*
X4387Y1805D02*
X4450Y1805D01*
X4089Y1766D02*
X4148Y1766D01*
X4389Y1766D02*
X4448Y1766D01*
X4085Y1765D02*
X4153Y1765D01*
X4385Y1765D02*
X4452Y1765D01*
X4082Y1764D02*
X4155Y1764D01*
X4382Y1764D02*
X4455Y1764D01*
X4079Y1763D02*
X4158Y1763D01*
X4379Y1763D02*
X4458Y1763D01*
X4078Y1762D02*
X4160Y1762D01*
X4378Y1762D02*
X4460Y1762D01*
X4076Y1761D02*
X4161Y1761D01*
X4376Y1761D02*
X4461Y1761D01*
X4074Y1760D02*
X4163Y1760D01*
X4374Y1760D02*
X4463Y1760D01*
X4073Y1759D02*
X4164Y1759D01*
X4373Y1759D02*
X4464Y1759D01*
X4072Y1758D02*
X4165Y1758D01*
X4372Y1758D02*
X4465Y1758D01*
X4071Y1757D02*
X4166Y1757D01*
X4371Y1757D02*
X4466Y1757D01*
X4070Y1756D02*
X4167Y1756D01*
X4370Y1756D02*
X4467Y1756D01*
X4069Y1755D02*
X4168Y1755D01*
X4369Y1755D02*
X4468Y1755D01*
X4068Y1754D02*
X4169Y1754D01*
X4368Y1754D02*
X4469Y1754D01*
X4068Y1753D02*
X4169Y1753D01*
X4368Y1753D02*
X4469Y1753D01*
X4067Y1752D02*
X4170Y1752D01*
X4367Y1752D02*
X4470Y1752D01*
X4066Y1751D02*
X4171Y1751D01*
X4366Y1751D02*
X4471Y1751D01*
X4066Y1750D02*
X4171Y1750D01*
X4366Y1750D02*
X4471Y1750D01*
X4065Y1749D02*
X4172Y1749D01*
X4365Y1749D02*
X4472Y1749D01*
X4065Y1748D02*
X4172Y1748D01*
X4365Y1748D02*
X4472Y1748D01*
X4064Y1747D02*
X4173Y1747D01*
X4364Y1747D02*
X4473Y1747D01*
X4064Y1746D02*
X4115Y1746D01*
X4122Y1746D02*
X4173Y1746D01*
X4364Y1746D02*
X4415Y1746D01*
X4422Y1746D02*
X4473Y1746D01*
X4064Y1745D02*
X4113Y1745D01*
X4124Y1745D02*
X4173Y1745D01*
X4364Y1745D02*
X4413Y1745D01*
X4424Y1745D02*
X4473Y1745D01*
X4063Y1744D02*
X4111Y1744D01*
X4126Y1744D02*
X4174Y1744D01*
X4363Y1744D02*
X4411Y1744D01*
X4426Y1744D02*
X4474Y1744D01*
X4063Y1743D02*
X4110Y1743D01*
X4127Y1743D02*
X4174Y1743D01*
X4363Y1743D02*
X4410Y1743D01*
X4427Y1743D02*
X4474Y1743D01*
X4063Y1742D02*
X4109Y1742D01*
X4128Y1742D02*
X4174Y1742D01*
X4363Y1742D02*
X4409Y1742D01*
X4428Y1742D02*
X4474Y1742D01*
X4063Y1741D02*
X4109Y1741D01*
X4128Y1741D02*
X4174Y1741D01*
X4363Y1741D02*
X4409Y1741D01*
X4428Y1741D02*
X4474Y1741D01*
X4062Y1740D02*
X4108Y1740D01*
X4129Y1740D02*
X4175Y1740D01*
X4362Y1740D02*
X4408Y1740D01*
X4429Y1740D02*
X4475Y1740D01*
X4062Y1739D02*
X4108Y1739D01*
X4129Y1739D02*
X4175Y1739D01*
X4362Y1739D02*
X4408Y1739D01*
X4429Y1739D02*
X4475Y1739D01*
X4062Y1738D02*
X4107Y1738D01*
X4130Y1738D02*
X4175Y1738D01*
X4362Y1738D02*
X4407Y1738D01*
X4430Y1738D02*
X4475Y1738D01*
X4062Y1737D02*
X4107Y1737D01*
X4130Y1737D02*
X4175Y1737D01*
X4362Y1737D02*
X4407Y1737D01*
X4430Y1737D02*
X4475Y1737D01*
X4062Y1736D02*
X4107Y1736D01*
X4130Y1736D02*
X4175Y1736D01*
X4362Y1736D02*
X4407Y1736D01*
X4430Y1736D02*
X4475Y1736D01*
X4062Y1735D02*
X4107Y1735D01*
X4130Y1735D02*
X4175Y1735D01*
X4362Y1735D02*
X4407Y1735D01*
X4430Y1735D02*
X4475Y1735D01*
X4062Y1734D02*
X4107Y1734D01*
X4130Y1734D02*
X4175Y1734D01*
X4362Y1734D02*
X4407Y1734D01*
X4430Y1734D02*
X4475Y1734D01*
X4062Y1733D02*
X4107Y1733D01*
X4130Y1733D02*
X4175Y1733D01*
X4362Y1733D02*
X4407Y1733D01*
X4430Y1733D02*
X4475Y1733D01*
X4062Y1732D02*
X4108Y1732D01*
X4130Y1732D02*
X4175Y1732D01*
X4362Y1732D02*
X4408Y1732D01*
X4430Y1732D02*
X4475Y1732D01*
X4062Y1731D02*
X4108Y1731D01*
X4129Y1731D02*
X4175Y1731D01*
X4362Y1731D02*
X4408Y1731D01*
X4429Y1731D02*
X4475Y1731D01*
X4063Y1730D02*
X4108Y1730D01*
X4129Y1730D02*
X4175Y1730D01*
X4363Y1730D02*
X4408Y1730D01*
X4429Y1730D02*
X4475Y1730D01*
X4063Y1729D02*
X4109Y1729D01*
X4128Y1729D02*
X4174Y1729D01*
X4363Y1729D02*
X4409Y1729D01*
X4428Y1729D02*
X4474Y1729D01*
X4063Y1728D02*
X4110Y1728D01*
X4127Y1728D02*
X4174Y1728D01*
X4363Y1728D02*
X4410Y1728D01*
X4427Y1728D02*
X4474Y1728D01*
X4063Y1727D02*
X4111Y1727D01*
X4126Y1727D02*
X4174Y1727D01*
X4363Y1727D02*
X4411Y1727D01*
X4426Y1727D02*
X4474Y1727D01*
X4064Y1726D02*
X4112Y1726D01*
X4125Y1726D02*
X4174Y1726D01*
X4364Y1726D02*
X4412Y1726D01*
X4425Y1726D02*
X4474Y1726D01*
X4064Y1725D02*
X4114Y1725D01*
X4123Y1725D02*
X4173Y1725D01*
X4364Y1725D02*
X4414Y1725D01*
X4423Y1725D02*
X4473Y1725D01*
X4064Y1724D02*
X4173Y1724D01*
X4364Y1724D02*
X4473Y1724D01*
X4065Y1723D02*
X4172Y1723D01*
X4365Y1723D02*
X4472Y1723D01*
X4065Y1722D02*
X4172Y1722D01*
X4365Y1722D02*
X4472Y1722D01*
X4066Y1721D02*
X4171Y1721D01*
X4366Y1721D02*
X4471Y1721D01*
X4066Y1720D02*
X4171Y1720D01*
X4366Y1720D02*
X4471Y1720D01*
X4067Y1719D02*
X4170Y1719D01*
X4367Y1719D02*
X4470Y1719D01*
X4067Y1718D02*
X4170Y1718D01*
X4367Y1718D02*
X4470Y1718D01*
X4068Y1717D02*
X4169Y1717D01*
X4368Y1717D02*
X4469Y1717D01*
X4069Y1716D02*
X4168Y1716D01*
X4369Y1716D02*
X4468Y1716D01*
X4070Y1715D02*
X4167Y1715D01*
X4370Y1715D02*
X4467Y1715D01*
X4071Y1714D02*
X4167Y1714D01*
X4371Y1714D02*
X4467Y1714D01*
X4072Y1713D02*
X4166Y1713D01*
X4372Y1713D02*
X4466Y1713D01*
X4073Y1712D02*
X4164Y1712D01*
X4373Y1712D02*
X4464Y1712D01*
X4074Y1711D02*
X4163Y1711D01*
X4374Y1711D02*
X4463Y1711D01*
X4075Y1710D02*
X4162Y1710D01*
X4375Y1710D02*
X4462Y1710D01*
X4077Y1709D02*
X4160Y1709D01*
X4377Y1709D02*
X4460Y1709D01*
X4079Y1708D02*
X4159Y1708D01*
X4379Y1708D02*
X4459Y1708D01*
X4081Y1707D02*
X4157Y1707D01*
X4381Y1707D02*
X4456Y1707D01*
X4083Y1706D02*
X4154Y1706D01*
X4383Y1706D02*
X4454Y1706D01*
X4087Y1705D02*
X4150Y1705D01*
X4387Y1705D02*
X4450Y1705D01*
D02*
G04 End of Mask1*
M02*