; NON-PLATED HOLES START AT T1
; THROUGH (PLATED) HOLES START AT T100
M48
INCH
T100C0.032000
T101C0.015748
T102C0.031496
T103C0.035000
T104C0.030000
%
T100
X041183Y033348
X041183Y057348
X044183Y051348
X041183Y056348
X041183Y019348
X044183Y033348
X044183Y019348
X044183Y057348
X041183Y051348
X044183Y056348
X044183Y054348
X044183Y017348
X041183Y022348
X041183Y054348
X041183Y017348
X044183Y022348
X041183Y023348
X041183Y044348
X044183Y023348
X044183Y044348
X044183Y035348
X044183Y046348
X041183Y041348
X044183Y047348
X041183Y032348
X041183Y035348
X041183Y046348
X044183Y041348
X041183Y047348
X044183Y032348
X041183Y021348
X044183Y021348
X044183Y052348
X041183Y048348
X044183Y020348
X041183Y043348
X041183Y055348
X041183Y024348
X041183Y052348
X044183Y048348
X044183Y043348
X044183Y055348
X044183Y024348
X041183Y020348
X044183Y058348
X044183Y036348
X041183Y031348
X041183Y042348
X044183Y037348
X044183Y053348
X044183Y045348
X041183Y058348
X041183Y036348
X044183Y031348
X044183Y042348
X041183Y037348
X041183Y053348
X041183Y045348
X044183Y030348
X041183Y034348
X041183Y018348
X044183Y034348
X044183Y018348
X041183Y030348
T101
X022183Y043352
X018183Y023348
X033183Y031348
X038183Y048348
X038183Y024348
X018183Y028348
X053183Y027348
X059183Y049348
X021183Y019348
X020173Y045329
X039183Y019348
X033183Y053348
X060183Y035348
X064169Y012347
X031183Y018348
X049163Y043348
X022183Y035348
X052183Y018348
X047183Y051348
X051183Y020348
X033183Y030348
X023202Y018370
X046183Y043348
X018183Y014348
X033173Y032335
X019183Y020348
X019183Y048348
X036183Y046348
X031201Y034348
X035183Y030348
X036183Y044348
X019183Y015348
X021183Y046348
X062183Y036348
X047183Y049348
X060164Y025351
X047183Y044348
X053175Y047319
X018183Y017348
X038183Y037348
X020183Y053348
X020183Y058348
X064182Y017350
X031183Y020348
X035183Y045348
X059190Y022341
X031183Y023348
X023191Y014348
X036183Y055348
X060183Y053348
X053183Y062348
X053183Y019348
X049183Y044348
X035183Y054348
X052183Y049348
X022183Y053348
X058183Y047348
X037183Y035348
X052183Y044348
X053183Y051348
X029183Y032348
X062183Y051348
X035183Y056348
X024183Y048348
X025177Y028329
X051183Y022348
X046183Y028348
X017183Y048348
X062183Y057348
X064169Y014363
X050183Y021348
X063200Y032372
X022183Y030348
X063200Y027342
X046183Y050348
X052184Y063352
X036183Y034348
X051183Y028348
X029183Y033348
X031183Y038348
X032183Y040348
X051202Y043348
X047183Y030348
X060164Y021367
X022183Y060348
X037183Y017348
X051183Y007348
X035183Y044348
X029179Y034329
X052183Y059348
X032167Y033342
X052183Y025348
X047183Y042348
X037183Y033348
X062183Y040348
X028183Y026348
X024154Y029365
X031183Y017348
X036183Y053348
X060160Y032372
T102
X013183Y050348
X007183Y011348
X013183Y011348
X073183Y047348
X043183Y057348
X067183Y031348
X013183Y025348
X013183Y017348
X007183Y025348
X007183Y017348
X073183Y041348
X051183Y026348
X007183Y059348
X067183Y045348
X013183Y059348
X038183Y067348
X030183Y006348
X073183Y063348
X073183Y006348
X067183Y039348
X067183Y018348
X007183Y057348
X013183Y057348
X051183Y024348
X007183Y065348
X013183Y065348
X021183Y011348
X073183Y049348
X007183Y007348
X067183Y012348
X013183Y063348
X013183Y007348
X007183Y063348
X043183Y023348
X021183Y009348
X073183Y016348
X007183Y041348
X013183Y041348
X073183Y059348
X013183Y035348
X052183Y012348
X007183Y035348
X062183Y013348
X067183Y027348
X007183Y023348
X013183Y023348
X067183Y029348
X067183Y043348
X067183Y055348
X034183Y067348
X073183Y010348
X030183Y010348
X073183Y065348
X067183Y061348
X073183Y014348
X067183Y020348
X073183Y057348
X067183Y008348
X073183Y033348
X043183Y047348
X007183Y009348
X013183Y009348
X021183Y007348
X030183Y019348
X013183Y061348
X007183Y061348
X050183Y067348
X007183Y055348
X007183Y043348
X061183Y068348
X067183Y049348
X013183Y055348
X013183Y043348
X013183Y029348
X007183Y029348
X045183Y018348
X073183Y018348
X073183Y039348
X013183Y003348
X007183Y003348
X062183Y011348
X042183Y042348
X042183Y031348
X073183Y045348
X067183Y041348
X067183Y006348
X067183Y063348
X067183Y047348
X013183Y027348
X013183Y015348
X007183Y027348
X007183Y015348
X042183Y018348
X073183Y031348
X052183Y010348
X067183Y057348
X073183Y008348
X073183Y020348
X067183Y014348
X007183Y013348
X013183Y013348
X030183Y008348
X013183Y039348
X067183Y033348
X007183Y039348
X067183Y010348
X043183Y036348
X073183Y055348
X073183Y043348
X052183Y014348
X073183Y029348
X073183Y061348
X067183Y065348
X007183Y005348
X062183Y009348
X013183Y005348
X042183Y052348
X073183Y027348
X040183Y009348
X013183Y037348
X007183Y037348
X030183Y021348
X073183Y012348
X067183Y059348
X013183Y045348
X007183Y045348
X067183Y016348
T103
X072183Y050348
X024183Y056348
X074183Y032348
X008183Y006348
X074183Y007348
X058183Y039348
X002183Y044348
X072183Y017348
X078183Y056348
X002183Y028348
X024183Y022348
X006185Y012348
X072183Y062348
X002183Y046348
X078183Y054348
X008183Y004348
X024183Y025348
X027183Y038348
X024183Y059348
X027183Y019348
X008183Y040348
X058183Y061348
X058183Y055348
X058183Y024348
X058183Y029348
X006183Y008348
X002183Y014348
X002183Y038348
X074183Y054348
X002183Y016348
X074183Y056348
X068183Y013348
X006183Y064348
X024183Y007348
X012183Y062348
X008183Y010348
X078183Y032348
X058183Y026348
X058183Y060348
X078183Y007348
X002183Y036348
X024183Y012348
X068183Y062348
X078183Y015348
X006183Y006348
X055183Y041348
X027183Y061348
X027183Y024348
X027183Y055348
X068183Y050348
X058183Y044348
X058183Y028348
X027183Y060348
X074183Y042348
X006183Y004348
X068183Y017348
X055183Y040348
X074183Y058348
X002183Y018348
X006183Y040348
X055183Y009348
X055183Y011348
X002183Y026348
X072183Y013348
X024183Y042348
X078183Y058348
X002183Y060348
X008183Y008348
X027183Y039348
X078183Y042348
X024183Y058348
X027183Y036348
X008183Y064348
X055183Y057348
X058183Y038348
X058183Y014348
X006183Y010348
X002183Y024348
X055183Y010348
X074183Y015348
X002183Y040348
X006183Y018348
X055183Y039348
X002183Y004348
X008183Y046348
X072183Y054348
X027183Y011348
X068183Y015348
X078183Y062348
X008183Y028348
X027183Y010348
X008183Y044348
X002185Y012348
X072183Y056348
X078183Y017348
X002183Y006348
X006183Y036348
X027183Y057348
X078183Y050348
X068183Y042348
X072183Y007348
X006183Y024348
X055183Y061348
X012183Y054348
X024183Y023348
X072183Y032348
X055183Y029348
X074183Y050348
X002183Y010348
X055183Y024348
X055183Y055348
X012183Y022348
X068183Y058348
X027183Y006348
X008183Y016348
X074183Y017348
X027183Y041348
X008183Y014348
X008183Y038348
X074183Y062348
X027183Y040348
X027183Y009348
X055183Y026348
X012183Y056348
X006183Y060348
X006183Y026348
X055183Y060348
X008183Y018348
X058183Y041348
X074183Y013348
X027183Y008348
X068183Y056348
X027183Y020348
X006183Y046348
X006183Y028348
X055183Y044348
X055183Y028348
X006183Y044348
X012183Y058348
X058183Y040348
X068183Y054348
X072183Y015348
X027183Y021348
X012183Y042348
X008183Y036348
X058183Y009348
X008183Y024348
X058183Y011348
X002183Y064348
X006183Y016348
X024183Y037348
X006183Y014348
X072183Y042348
X068183Y007348
X006183Y038348
X055183Y038348
X068183Y032348
X055183Y014348
X002183Y008348
X058183Y057348
X072183Y058348
X008183Y060348
X008183Y026348
X078183Y013348
X058183Y010348
X058183Y013348
X012183Y046348
X024183Y057348
X024183Y010348
X068183Y060348
X055183Y042348
X068183Y048348
X072183Y019348
X024183Y011348
X006183Y042348
X055183Y058348
X074183Y009348
X012183Y028348
X006183Y058348
X012183Y044348
X078183Y011348
X074183Y040348
X078183Y009348
X008183Y022348
X058183Y043348
X012183Y016348
X074183Y011348
X078183Y040348
X024183Y009348
X024183Y040348
X002183Y062348
X072183Y046348
X008183Y054348
X072183Y044348
X024183Y041348
X008183Y056348
X068183Y034348
X055183Y012348
X024183Y006348
X072183Y028348
X055183Y015348
X012183Y038348
X058183Y027348
X027183Y023348
X012183Y014348
X072183Y048348
X068183Y019348
X024183Y021348
X012183Y018348
X078183Y064348
X074183Y030348
X078183Y021348
X058183Y023348
X008183Y042348
X012183Y036348
X024183Y020348
X024183Y008348
X008183Y058348
X072183Y060348
X068183Y044348
X006183Y022348
X072183Y034348
X068183Y028348
X055183Y059348
X012183Y024348
X055183Y025348
X006183Y054348
X012183Y060348
X027183Y037348
X006183Y056348
X074183Y064348
X078183Y030348
X055183Y056348
X012183Y026348
X074183Y021348
X068183Y046348
X055183Y013348
X068183Y021348
X012185Y012348
X027183Y059348
X024183Y038348
X024183Y019348
X027183Y025348
X072183Y011348
X068183Y064348
X074183Y046348
X078183Y019348
X012183Y006348
X027183Y022348
X058183Y042348
X074183Y028348
X012183Y004348
X012183Y040348
X074183Y044348
X058183Y058348
X027183Y056348
X055183Y043348
X078183Y028348
X027183Y007348
X078183Y044348
X002183Y056348
X008185Y012348
X078183Y046348
X002183Y054348
X012183Y010348
X074183Y019348
X008183Y062348
X058183Y012348
X055183Y027348
X072183Y040348
X058183Y015348
X072183Y009348
X068183Y030348
X002183Y022348
X074183Y034348
X002183Y058348
X078183Y060348
X024183Y060348
X002183Y042348
X024183Y055348
X072183Y021348
X024183Y024348
X068183Y011348
X055183Y023348
X072183Y064348
X024183Y061348
X027183Y012348
X078183Y048348
X012183Y008348
X074183Y048348
X058183Y025348
X068183Y040348
X058183Y059348
X068183Y009348
X072183Y030348
X024183Y036348
X027183Y058348
X006183Y062348
X024183Y039348
X058183Y056348
X012183Y064348
X078183Y034348
X027183Y042348
X074183Y060348
T104
X014181Y042348
X065181Y060348
X015183Y044348
X066183Y019348
X066183Y062348
X015183Y028348
X065181Y015348
X066183Y056348
X065181Y064348
X015183Y040348
X014181Y036348
X014181Y058348
X065181Y021348
X015183Y004348
X066183Y050348
X015183Y006348
X066183Y011348
X014181Y018348
X066183Y017348
X066183Y054348
X015183Y046348
X065181Y048348
X066183Y044348
X015183Y062348
X014181Y064348
X065181Y058348
X015183Y038348
X015183Y056348
X015183Y014348
X066183Y028348
X066183Y040348
X014181Y026348
X014181Y060348
X066183Y009348
X065181Y042348
X015183Y010348
X065181Y030348
X066183Y007348
X015183Y022348
X066183Y032348
X014181Y024348
X065181Y034348
X015183Y054348
X015183Y016348
X015185Y012348
X014181Y008348
X066183Y046348
X065181Y013348
X015183Y042348
X066183Y021348
X014181Y044348
X066183Y064348
X014181Y028348
X014181Y040348
X065181Y019348
X065181Y062348
X015183Y036348
X015183Y058348
X066183Y015348
X065181Y056348
X066183Y060348
X014181Y004348
X014181Y006348
X066183Y048348
X015183Y018348
X065181Y017348
X065181Y054348
X065181Y050348
X014183Y012348
X014181Y046348
X065181Y011348
X065181Y009348
X066183Y042348
X014181Y062348
X015183Y064348
X065181Y040348
X014181Y038348
X014181Y056348
X014181Y014348
X066183Y058348
X015183Y026348
X065181Y028348
X015183Y060348
X065181Y044348
X014181Y010348
X065181Y046348
X066183Y013348
X066183Y034348
X014181Y022348
X015183Y024348
X014181Y054348
X065181Y032348
X014181Y016348
X015183Y008348
X066183Y030348
X065181Y007348
T00
M30
