; NON-PLATED HOLES START AT T1
; THROUGH (PLATED) HOLES START AT T100
M48
INCH
T100C0.032000
T101C0.030000
T102C0.031496
T103C0.035000
T104C0.015748
%
T100
X044309Y021413
X044309Y033413
X041309Y053413
X044309Y037413
X044309Y031413
X044309Y023413
X041309Y057413
X041309Y017413
X041309Y051413
X044309Y035413
X044309Y030413
X041309Y042413
X044309Y024413
X044309Y058413
X041309Y055413
X044309Y018413
X044309Y020413
X044309Y034413
X044309Y046413
X041309Y054413
X041309Y036413
X044309Y022413
X041309Y044413
X044309Y056413
X041309Y052413
X044309Y032413
X044309Y048413
X041309Y045413
X041309Y041413
X041309Y047413
X041309Y043413
X041309Y019413
X044309Y052413
X044309Y045413
X041309Y048413
X041309Y032413
X044309Y036413
X041309Y056413
X044309Y044413
X041309Y022413
X044309Y019413
X044309Y043413
X044309Y047413
X044309Y041413
X041309Y023413
X041309Y031413
X041309Y037413
X044309Y051413
X044309Y017413
X044309Y057413
X041309Y033413
X041309Y021413
X044309Y053413
X041309Y034413
X041309Y020413
X044309Y054413
X041309Y046413
X041309Y024413
X044309Y042413
X041309Y030413
X041309Y035413
X041309Y018413
X044309Y055413
X041309Y058413
T101
X065307Y050413
X065307Y015413
X065307Y042413
X065307Y062413
X066309Y019413
X065307Y054413
X066309Y007413
X065307Y028413
X014307Y024413
X065307Y013413
X066309Y044413
X066309Y064413
X014307Y006413
X014307Y018413
X015309Y046413
X014307Y058413
X015309Y024413
X065307Y017413
X014309Y012413
X066309Y040413
X065307Y011413
X065307Y009413
X066309Y060413
X015309Y018413
X015309Y006413
X014307Y046413
X015309Y058413
X066309Y050413
X066309Y015413
X066309Y062413
X066309Y042413
X014307Y056413
X014307Y016413
X014307Y008413
X014307Y022413
X065307Y019413
X066309Y054413
X065307Y007413
X015309Y056413
X015309Y022413
X015309Y008413
X015309Y016413
X066309Y028413
X065307Y064413
X065307Y044413
X066309Y013413
X066309Y017413
X066309Y009413
X066309Y011413
X065307Y040413
X065307Y060413
X066309Y046413
X014307Y026413
X015309Y036413
X014307Y060413
X014307Y040413
X015309Y044413
X015309Y064413
X014307Y004413
X066309Y034413
X066309Y058413
X014307Y036413
X015309Y026413
X015309Y040413
X015309Y060413
X014307Y064413
X014307Y044413
X015309Y004413
X066309Y030413
X065307Y032413
X065307Y048413
X065307Y056413
X066309Y021413
X065307Y046413
X065307Y034413
X065307Y058413
X065307Y030413
X015309Y038413
X014307Y028413
X066309Y032413
X066309Y048413
X015309Y062413
X015309Y042413
X015309Y010413
X014307Y014413
X014307Y054413
X015309Y028413
X014307Y038413
X066309Y056413
X014307Y042413
X014307Y062413
X014307Y010413
X015311Y012413
X015309Y014413
X015309Y054413
X065307Y021413
T102
X013309Y003413
X073309Y031413
X013309Y061413
X013309Y041413
X067309Y065413
X067309Y045413
X007309Y015413
X073309Y027413
X067309Y012413
X013309Y043413
X013309Y007413
X013309Y063413
X007309Y055413
X013309Y059413
X073309Y033413
X067309Y061413
X067309Y041413
X067309Y047413
X007309Y017413
X040309Y009413
X007309Y011413
X073309Y020413
X007309Y009413
X013309Y005413
X007309Y057413
X067309Y043413
X067309Y063413
X067309Y059413
X073309Y018413
X073309Y006413
X013309Y065413
X030309Y019413
X013309Y045413
X007309Y013413
X038309Y067413
X067309Y049413
X013309Y050413
X013309Y015413
X007309Y059413
X007309Y063413
X013309Y055413
X007309Y043413
X007309Y007413
X067309Y057413
X073309Y008413
X073309Y016413
X007309Y003413
X007309Y041413
X007309Y061413
X067309Y055413
X067309Y010413
X050309Y067413
X007309Y045413
X007309Y065413
X073309Y039413
X030309Y010413
X013309Y013413
X051309Y026413
X067309Y014413
X073309Y029413
X013309Y017413
X013309Y057413
X007309Y005413
X013309Y011413
X013309Y009413
X007309Y029413
X013309Y025413
X052309Y014413
X067309Y031413
X062309Y011413
X062309Y009413
X007309Y039413
X013309Y035413
X073309Y065413
X073309Y045413
X052309Y010413
X030309Y021413
X073309Y012413
X067309Y033413
X062309Y013413
X067309Y027413
X061309Y068413
X013309Y037413
X073309Y047413
X021309Y009413
X021309Y011413
X073309Y061413
X073309Y041413
X013309Y023413
X067309Y020413
X067309Y006413
X067309Y018413
X013309Y027413
X073309Y043413
X073309Y063413
X073309Y059413
X030309Y006413
X073309Y049413
X021309Y007413
X007309Y035413
X013309Y039413
X051309Y024413
X034309Y067413
X007309Y025413
X073309Y057413
X013309Y029413
X067309Y016413
X067309Y008413
X030309Y008413
X007309Y027413
X073309Y055413
X073309Y010413
X052309Y012413
X067309Y039413
X007309Y037413
X007309Y023413
X073309Y014413
X067309Y029413
T103
X024309Y061413
X012309Y028413
X078309Y044413
X058309Y061413
X012309Y014413
X072309Y048413
X002309Y006413
X068309Y040413
X008309Y042413
X012309Y038413
X008309Y010413
X027309Y058413
X024309Y007413
X058309Y043413
X055309Y041413
X058309Y044413
X024309Y036413
X074309Y058413
X058309Y026413
X006309Y042413
X006309Y010413
X078309Y007413
X074309Y032413
X055309Y013413
X006309Y060413
X072309Y021413
X058309Y015413
X068309Y009413
X078309Y011413
X068309Y062413
X008309Y060413
X055309Y038413
X078309Y015413
X078309Y050413
X055309Y014413
X068309Y054413
X002309Y056413
X024309Y011413
X024309Y057413
X027309Y008413
X058309Y057413
X055309Y028413
X027309Y022413
X058309Y011413
X012309Y064413
X074309Y044413
X072309Y009413
X008311Y012413
X027309Y061413
X024309Y058413
X068309Y021413
X055309Y027413
X058309Y058413
X027309Y007413
X027309Y036413
X072309Y054413
X002309Y064413
X012309Y056413
X074309Y007413
X072309Y062413
X078309Y058413
X008309Y024413
X068309Y048413
X072309Y040413
X008309Y018413
X012309Y006413
X078309Y032413
X002309Y038413
X055309Y056413
X002309Y014413
X074309Y011413
X008309Y046413
X002309Y028413
X006309Y024413
X074309Y015413
X074309Y050413
X006309Y018413
X024309Y008413
X024309Y022413
X006309Y046413
X027309Y011413
X027309Y057413
X055309Y044413
X024309Y041413
X027309Y020413
X078309Y064413
X058309Y041413
X008309Y054413
X002309Y058413
X024309Y019413
X068309Y060413
X008309Y062413
X055309Y026413
X027309Y006413
X027309Y037413
X055309Y061413
X006309Y054413
X055309Y043413
X006309Y062413
X078309Y019413
X074309Y030413
X058309Y038413
X006309Y040413
X078309Y013413
X006309Y004413
X024309Y038413
X055309Y057413
X055309Y011413
X058309Y028413
X068309Y017413
X074309Y056413
X058309Y014413
X012309Y026413
X055309Y015413
X058309Y013413
X068309Y042413
X008309Y040413
X008309Y004413
X012309Y036413
X078309Y028413
X002309Y008413
X072309Y046413
X002309Y022413
X006311Y012413
X012309Y044413
X072309Y034413
X027309Y056413
X072309Y017413
X074309Y064413
X006309Y016413
X027309Y041413
X024309Y020413
X024309Y006413
X027309Y019413
X068309Y046413
X002309Y044413
X002309Y036413
X012309Y008413
X024309Y037413
X012309Y022413
X008309Y016413
X068309Y034413
X078309Y030413
X074309Y019413
X058309Y027413
X055309Y058413
X072309Y042413
X002309Y026413
X027309Y038413
X072309Y060413
X074309Y013413
X012309Y058413
X078309Y056413
X024309Y056413
X058309Y056413
X074309Y028413
X008309Y028413
X002309Y046413
X027309Y025413
X068309Y044413
X008309Y014413
X012309Y042413
X008309Y038413
X072309Y032413
X055309Y060413
X002309Y018413
X024309Y059413
X078309Y040413
X058309Y059413
X002309Y024413
X012309Y010413
X074309Y021413
X006309Y028413
X006309Y014413
X006309Y038413
X068309Y007413
X024309Y040413
X058309Y012413
X027309Y021413
X024309Y012413
X058309Y040413
X074309Y048413
X068309Y011413
X078309Y009413
X006309Y064413
X068309Y050413
X055309Y055413
X072309Y058413
X068309Y015413
X055309Y010413
X002311Y012413
X078309Y062413
X055309Y042413
X012309Y060413
X024309Y009413
X008309Y064413
X058309Y009413
X078309Y054413
X058309Y025413
X072309Y011413
X055309Y023413
X006309Y056413
X024309Y025413
X078309Y021413
X074309Y040413
X027309Y059413
X008309Y056413
X072309Y050413
X072309Y015413
X068309Y058413
X027309Y012413
X002309Y060413
X055309Y024413
X012311Y012413
X027309Y040413
X024309Y021413
X068309Y032413
X012309Y024413
X002309Y010413
X002309Y042413
X078309Y048413
X008309Y006413
X012309Y018413
X072309Y044413
X074309Y009413
X012309Y046413
X072309Y007413
X074309Y062413
X006309Y006413
X055309Y039413
X074309Y054413
X027309Y009413
X055309Y029413
X068309Y064413
X072309Y056413
X012309Y054413
X012309Y062413
X055309Y040413
X027309Y024413
X078309Y060413
X055309Y012413
X074309Y046413
X027309Y023413
X074309Y034413
X068309Y019413
X055309Y059413
X024309Y060413
X058309Y060413
X027309Y039413
X024309Y010413
X058309Y042413
X068309Y013413
X006309Y026413
X024309Y055413
X058309Y055413
X024309Y042413
X058309Y010413
X055309Y009413
X006309Y036413
X006309Y044413
X078309Y017413
X008309Y026413
X078309Y042413
X012309Y004413
X072309Y030413
X012309Y040413
X002309Y016413
X008309Y036413
X008309Y044413
X068309Y028413
X006309Y008413
X006309Y022413
X058309Y024413
X072309Y013413
X074309Y060413
X024309Y024413
X078309Y034413
X058309Y023413
X012309Y016413
X008309Y008413
X055309Y025413
X008309Y022413
X078309Y046413
X024309Y023413
X072309Y028413
X002309Y004413
X002309Y040413
X027309Y060413
X068309Y030413
X027309Y042413
X058309Y039413
X024309Y039413
X002309Y062413
X008309Y058413
X027309Y010413
X027309Y055413
X074309Y017413
X002309Y054413
X072309Y064413
X068309Y056413
X058309Y029413
X072309Y019413
X074309Y042413
X006309Y058413
T104
X036309Y053413
X046309Y043413
X051329Y043413
X029309Y033413
X051309Y028413
X053302Y047383
X058309Y047413
X047309Y044413
X029305Y034393
X023317Y014413
X064308Y017414
X020299Y045394
X024280Y029429
X036309Y055413
X018309Y023413
X049309Y044413
X063326Y032437
X060309Y053413
X019309Y020413
X022309Y053413
X037309Y017413
X025304Y028393
X035309Y054413
X053309Y027413
X047309Y051413
X022309Y043417
X051309Y007413
X036309Y044413
X052309Y018413
X046309Y028413
X064295Y012412
X035309Y044413
X033309Y030413
X047309Y049413
X046309Y050413
X059309Y049413
X029309Y032413
X059316Y022405
X031309Y038413
X021309Y046413
X035309Y045413
X019309Y048413
X052309Y025413
X033309Y031413
X017309Y048413
X022309Y060413
X031309Y017413
X039309Y019413
X064295Y014427
X020309Y058413
X047309Y042413
X020309Y053413
X036309Y068413
X023328Y018434
X060290Y025415
X062309Y057413
X031309Y018413
X062309Y051413
X033299Y032400
X049289Y043413
X053309Y019413
X031309Y020413
X035309Y056413
X051309Y022413
X038309Y048413
X031327Y034413
X052310Y063416
X032309Y040413
X047309Y030413
X060290Y021431
X033309Y053413
X052309Y049413
X032293Y033406
X028309Y026413
X031309Y023413
X021309Y019413
X052309Y059413
X062309Y040413
X022309Y035413
X063326Y027406
X053309Y062413
X022309Y030413
X060309Y035413
X018309Y014413
X062309Y036413
X050309Y021413
X018309Y028413
X051309Y020413
X038309Y024413
X037309Y035413
X036309Y046413
X024309Y048413
X060286Y032437
X038309Y037413
X036309Y034413
X053309Y051413
X018309Y017413
X035309Y030413
X052309Y044413
X037309Y033413
X019309Y015413
T00
M30
