G04 MADE WITH FRITZING*
G04 WWW.FRITZING.ORG*
G04 DOUBLE SIDED*
G04 HOLES PLATED*
G04 CONTOUR ON CENTER OF CONTOUR VECTOR*
%ASAXBY*%
%FSLAX23Y23*%
%MOIN*%
%OFA0B0*%
%SFA1.0B1.0*%
%ADD10C,0.062000*%
%ADD11C,0.085000*%
%ADD12C,0.080000*%
%ADD13C,0.080866*%
%ADD14C,0.049370*%
%ADD15R,0.085000X0.085000*%
%ADD16R,0.001000X0.001000*%
%LNMASK0*%
G90*
G70*
G54D10*
X4131Y2441D03*
X4131Y2341D03*
X4131Y2241D03*
X4131Y2141D03*
X4131Y2041D03*
X4131Y1941D03*
X4131Y1841D03*
X4131Y1741D03*
X4431Y1741D03*
X4431Y1841D03*
X4431Y1941D03*
X4431Y2041D03*
X4431Y2141D03*
X4431Y2241D03*
X4431Y2341D03*
X4431Y2441D03*
X4131Y3741D03*
X4131Y3641D03*
X4131Y3541D03*
X4131Y3441D03*
X4131Y3341D03*
X4131Y3241D03*
X4131Y3141D03*
X4131Y3041D03*
X4431Y3041D03*
X4431Y3141D03*
X4431Y3241D03*
X4431Y3341D03*
X4431Y3441D03*
X4431Y3541D03*
X4431Y3641D03*
X4431Y3741D03*
X4131Y4841D03*
X4131Y4741D03*
X4131Y4641D03*
X4131Y4541D03*
X4131Y4441D03*
X4131Y4341D03*
X4131Y4241D03*
X4131Y4141D03*
X4431Y4141D03*
X4431Y4241D03*
X4431Y4341D03*
X4431Y4441D03*
X4431Y4541D03*
X4431Y4641D03*
X4431Y4741D03*
X4431Y4841D03*
X4131Y5841D03*
X4131Y5741D03*
X4131Y5641D03*
X4131Y5541D03*
X4131Y5441D03*
X4131Y5341D03*
X4131Y5241D03*
X4131Y5141D03*
X4431Y5141D03*
X4431Y5241D03*
X4431Y5341D03*
X4431Y5441D03*
X4431Y5541D03*
X4431Y5641D03*
X4431Y5741D03*
X4431Y5841D03*
G54D11*
X2431Y2541D03*
X2731Y2541D03*
X2431Y2441D03*
X2731Y2441D03*
X2431Y2341D03*
X2731Y2341D03*
X2431Y2241D03*
X2731Y2241D03*
X2431Y2141D03*
X2731Y2141D03*
X2431Y2041D03*
X2731Y2041D03*
X2431Y1941D03*
X2731Y1941D03*
X5531Y1541D03*
X5831Y1541D03*
X5531Y1441D03*
X5831Y1441D03*
X5531Y1341D03*
X5831Y1341D03*
X5531Y1241D03*
X5831Y1241D03*
X5531Y1141D03*
X5831Y1141D03*
X5531Y1041D03*
X5831Y1041D03*
X5531Y941D03*
X5831Y941D03*
X5531Y2941D03*
X5831Y2941D03*
X5531Y2841D03*
X5831Y2841D03*
X5531Y2741D03*
X5831Y2741D03*
X5531Y2641D03*
X5831Y2641D03*
X5531Y2541D03*
X5831Y2541D03*
X5531Y2441D03*
X5831Y2441D03*
X5531Y2341D03*
X5831Y2341D03*
X5531Y4441D03*
X5831Y4441D03*
X5531Y4341D03*
X5831Y4341D03*
X5531Y4241D03*
X5831Y4241D03*
X5531Y4141D03*
X5831Y4141D03*
X5531Y4041D03*
X5831Y4041D03*
X5531Y3941D03*
X5831Y3941D03*
X5531Y3841D03*
X5831Y3841D03*
X5531Y6141D03*
X5831Y6141D03*
X5531Y6041D03*
X5831Y6041D03*
X5531Y5941D03*
X5831Y5941D03*
X5531Y5841D03*
X5831Y5841D03*
X5531Y5741D03*
X5831Y5741D03*
X5531Y5641D03*
X5831Y5641D03*
X5531Y5541D03*
X5831Y5541D03*
X2431Y1241D03*
X2731Y1241D03*
X2431Y1141D03*
X2731Y1141D03*
X2431Y1041D03*
X2731Y1041D03*
X2431Y941D03*
X2731Y941D03*
X2431Y841D03*
X2731Y841D03*
X2431Y741D03*
X2731Y741D03*
X2431Y641D03*
X2731Y641D03*
X2431Y4241D03*
X2731Y4241D03*
X2431Y4141D03*
X2731Y4141D03*
X2431Y4041D03*
X2731Y4041D03*
X2431Y3941D03*
X2731Y3941D03*
X2431Y3841D03*
X2731Y3841D03*
X2431Y3741D03*
X2731Y3741D03*
X2431Y3641D03*
X2731Y3641D03*
X2431Y6141D03*
X2731Y6141D03*
X2431Y6041D03*
X2731Y6041D03*
X2431Y5941D03*
X2731Y5941D03*
X2431Y5841D03*
X2731Y5841D03*
X2431Y5741D03*
X2731Y5741D03*
X2431Y5641D03*
X2731Y5641D03*
X2431Y5541D03*
X2731Y5541D03*
G54D12*
X6531Y6441D03*
X6631Y6441D03*
X6531Y6241D03*
X6631Y6241D03*
X6531Y6041D03*
X6631Y6041D03*
X6531Y5841D03*
X6631Y5841D03*
X6531Y5641D03*
X6631Y5641D03*
X6531Y5441D03*
X6631Y5441D03*
X6531Y5041D03*
X6631Y5041D03*
X6531Y4841D03*
X6631Y4841D03*
X6531Y4641D03*
X6631Y4641D03*
X6531Y4441D03*
X6631Y4441D03*
X6531Y4241D03*
X6631Y4241D03*
X6531Y4041D03*
X6631Y4041D03*
X6531Y741D03*
X6631Y741D03*
X6531Y941D03*
X6631Y941D03*
X6531Y1141D03*
X6631Y1141D03*
X6531Y1341D03*
X6631Y1341D03*
X6531Y1541D03*
X6631Y1541D03*
X6531Y1741D03*
X6631Y1741D03*
X6531Y1941D03*
X6631Y1941D03*
X6531Y2141D03*
X6631Y2141D03*
X6531Y2841D03*
X6631Y2841D03*
X6531Y3041D03*
X6631Y3041D03*
X6531Y3241D03*
X6631Y3241D03*
X6531Y3441D03*
X6631Y3441D03*
X1431Y6441D03*
X1531Y6441D03*
X1431Y6241D03*
X1531Y6241D03*
X1431Y3641D03*
X1531Y3641D03*
X1431Y6041D03*
X1531Y6041D03*
X1431Y5841D03*
X1531Y5841D03*
X1431Y5641D03*
X1531Y5641D03*
X1431Y5441D03*
X1531Y5441D03*
X1431Y4641D03*
X1531Y4641D03*
X1431Y4441D03*
X1531Y4441D03*
X1431Y4241D03*
X1531Y4241D03*
X1431Y4041D03*
X1531Y4041D03*
X1431Y3841D03*
X1531Y3841D03*
X1431Y2841D03*
X1531Y2841D03*
X1431Y2641D03*
X1531Y2641D03*
X1431Y2441D03*
X1531Y2441D03*
X1431Y2241D03*
X1531Y2241D03*
X1431Y1841D03*
X1531Y1841D03*
X1431Y1641D03*
X1531Y1641D03*
X1431Y1441D03*
X1531Y1441D03*
X1431Y1241D03*
X1531Y1241D03*
X1431Y1041D03*
X1531Y1041D03*
X1431Y841D03*
X1531Y841D03*
X1431Y641D03*
X1531Y641D03*
X1431Y441D03*
X1531Y441D03*
G54D11*
X831Y441D03*
X1231Y441D03*
X231Y441D03*
X631Y441D03*
X231Y641D03*
X631Y641D03*
X231Y841D03*
X631Y841D03*
X231Y1041D03*
X631Y1041D03*
X231Y1241D03*
X631Y1241D03*
X231Y1441D03*
X631Y1441D03*
X231Y1641D03*
X631Y1641D03*
X231Y1841D03*
X631Y1841D03*
X231Y2241D03*
X631Y2241D03*
X231Y2441D03*
X631Y2441D03*
X231Y2641D03*
X631Y2641D03*
X231Y2841D03*
X631Y2841D03*
X231Y3641D03*
X631Y3641D03*
X231Y3841D03*
X631Y3841D03*
X231Y4041D03*
X631Y4041D03*
X231Y4241D03*
X631Y4241D03*
X231Y4441D03*
X631Y4441D03*
X231Y4641D03*
X631Y4641D03*
X231Y5441D03*
X631Y5441D03*
X231Y5641D03*
X631Y5641D03*
X231Y5841D03*
X631Y5841D03*
X231Y6041D03*
X631Y6041D03*
X231Y6241D03*
X631Y6241D03*
X231Y6441D03*
X631Y6441D03*
X7431Y741D03*
X7831Y741D03*
X7431Y941D03*
X7831Y941D03*
X7431Y1141D03*
X7831Y1141D03*
X7431Y1341D03*
X7831Y1341D03*
X7431Y1541D03*
X7831Y1541D03*
X7431Y1741D03*
X7831Y1741D03*
X7431Y1941D03*
X7831Y1941D03*
X7431Y2141D03*
X7831Y2141D03*
X7431Y2841D03*
X7831Y2841D03*
X7431Y3041D03*
X7831Y3041D03*
X7431Y3241D03*
X7831Y3241D03*
X7431Y3441D03*
X7831Y3441D03*
X7431Y4041D03*
X7831Y4041D03*
X7431Y4241D03*
X7831Y4241D03*
X7431Y4441D03*
X7831Y4441D03*
X7431Y4641D03*
X7831Y4641D03*
X7431Y4841D03*
X7831Y4841D03*
X7431Y5041D03*
X7831Y5041D03*
X7431Y5441D03*
X7831Y5441D03*
X7431Y5641D03*
X7831Y5641D03*
X7431Y5841D03*
X7831Y5841D03*
X7431Y6041D03*
X7831Y6041D03*
X7431Y6241D03*
X7831Y6241D03*
X7431Y6441D03*
X7831Y6441D03*
X831Y641D03*
X1231Y641D03*
X831Y841D03*
X1231Y841D03*
X831Y1041D03*
X1231Y1041D03*
X831Y1241D03*
X1231Y1241D03*
X831Y1441D03*
X1231Y1441D03*
X831Y1641D03*
X1231Y1641D03*
X831Y1841D03*
X1231Y1841D03*
X831Y2241D03*
X1231Y2241D03*
X831Y2441D03*
X1231Y2441D03*
X831Y2641D03*
X1231Y2641D03*
X831Y2841D03*
X1231Y2841D03*
X831Y3641D03*
X1231Y3641D03*
X831Y3841D03*
X1231Y3841D03*
X831Y4041D03*
X1231Y4041D03*
X831Y4241D03*
X1231Y4241D03*
X831Y4441D03*
X1231Y4441D03*
X831Y4641D03*
X1231Y4641D03*
X831Y5441D03*
X1231Y5441D03*
X831Y5641D03*
X1231Y5641D03*
X831Y5841D03*
X1231Y5841D03*
X831Y6041D03*
X1231Y6041D03*
X831Y6241D03*
X1231Y6241D03*
X831Y6441D03*
X1231Y6441D03*
X6831Y741D03*
X7231Y741D03*
X6831Y941D03*
X7231Y941D03*
X6831Y1141D03*
X7231Y1141D03*
X6831Y1341D03*
X7231Y1341D03*
X6831Y1541D03*
X7231Y1541D03*
X6831Y1741D03*
X7231Y1741D03*
X6831Y1941D03*
X7231Y1941D03*
X6831Y2141D03*
X7231Y2141D03*
X6831Y2841D03*
X7231Y2841D03*
X6831Y3041D03*
X7231Y3041D03*
X6831Y3241D03*
X7231Y3241D03*
X6831Y3441D03*
X7231Y3441D03*
X6831Y4041D03*
X7231Y4041D03*
X6831Y4241D03*
X7231Y4241D03*
X6831Y4441D03*
X7231Y4441D03*
X6831Y4641D03*
X7231Y4641D03*
X6831Y4841D03*
X7231Y4841D03*
X6831Y5041D03*
X7231Y5041D03*
X6831Y5441D03*
X7231Y5441D03*
X6831Y5641D03*
X7231Y5641D03*
X6831Y5841D03*
X7231Y5841D03*
X6831Y6041D03*
X7231Y6041D03*
X6831Y6241D03*
X7231Y6241D03*
X6831Y6441D03*
X7231Y6441D03*
G54D13*
X3031Y1041D03*
X3031Y841D03*
X3031Y641D03*
X2131Y741D03*
X2131Y941D03*
X2131Y1141D03*
X3031Y1941D03*
X3031Y2141D03*
X5131Y2641D03*
X6231Y941D03*
X6231Y1141D03*
X6231Y1341D03*
X5231Y1041D03*
X5231Y1241D03*
X5231Y1441D03*
X5131Y2441D03*
X5031Y6741D03*
X3831Y6741D03*
X3431Y6741D03*
X1331Y341D03*
X1331Y541D03*
X1331Y741D03*
X1331Y941D03*
X1331Y1141D03*
X1331Y1341D03*
X1331Y1541D03*
X1331Y1741D03*
X1331Y2341D03*
X1331Y2541D03*
X1331Y2741D03*
X1331Y2941D03*
X1331Y3541D03*
X1331Y3741D03*
X1331Y3941D03*
X1331Y4141D03*
X1331Y4341D03*
X1331Y4541D03*
X1331Y5541D03*
X1331Y5741D03*
X1331Y5941D03*
X1331Y6141D03*
X1331Y6341D03*
X1331Y6541D03*
X6731Y641D03*
X6731Y841D03*
X6731Y1041D03*
X6731Y1241D03*
X6731Y1441D03*
X6731Y1641D03*
X6731Y1841D03*
X6731Y2041D03*
X6731Y2741D03*
X6731Y2941D03*
X6731Y3141D03*
X6731Y3341D03*
X6731Y3941D03*
X6731Y4141D03*
X6731Y4341D03*
X6731Y4541D03*
X6731Y4741D03*
X6731Y4941D03*
X6731Y5541D03*
X6731Y5741D03*
X6731Y5941D03*
X6731Y6141D03*
X6731Y6341D03*
X6731Y6541D03*
X1331Y5041D03*
X4031Y941D03*
X6131Y6841D03*
X731Y341D03*
X731Y541D03*
X731Y741D03*
X731Y941D03*
X731Y1141D03*
X731Y1341D03*
X731Y1541D03*
X731Y1741D03*
X731Y2341D03*
X731Y2541D03*
X731Y2741D03*
X731Y2941D03*
X731Y3541D03*
X731Y3741D03*
X731Y3941D03*
X731Y4141D03*
X731Y4341D03*
X731Y4541D03*
X731Y5541D03*
X731Y5741D03*
X731Y5941D03*
X731Y6141D03*
X731Y6341D03*
X731Y6541D03*
X7331Y641D03*
X7331Y841D03*
X7331Y1041D03*
X7331Y1241D03*
X7331Y1441D03*
X7331Y1641D03*
X7331Y1841D03*
X7331Y2041D03*
X7331Y2741D03*
X7331Y2941D03*
X7331Y3141D03*
X7331Y3341D03*
X7331Y3941D03*
X7331Y4141D03*
X7331Y4341D03*
X7331Y4541D03*
X7331Y4741D03*
X7331Y4941D03*
X7331Y5541D03*
X7331Y5741D03*
X7331Y5941D03*
X7331Y6141D03*
X7331Y6341D03*
X7331Y6541D03*
G54D14*
X5331Y6241D03*
X5231Y5941D03*
X6231Y5741D03*
X4631Y5041D03*
X6231Y5141D03*
X5331Y5141D03*
X5931Y4941D03*
X5231Y4941D03*
X4731Y4941D03*
X4731Y5141D03*
X5831Y4741D03*
X5330Y4738D03*
X5231Y4441D03*
X4931Y4441D03*
X5133Y4341D03*
X4731Y4441D03*
X4631Y4341D03*
X4929Y4341D03*
X6031Y5341D03*
X4731Y3041D03*
X4731Y4241D03*
X6231Y4041D03*
X6231Y3641D03*
X6031Y3541D03*
X6029Y2542D03*
X6029Y2143D03*
X5131Y2041D03*
X5932Y2241D03*
X6333Y2741D03*
X6029Y3244D03*
X6333Y3244D03*
X5331Y1941D03*
X5331Y2741D03*
X5231Y2541D03*
X5231Y1841D03*
X5131Y2241D03*
X5031Y2141D03*
X5131Y2841D03*
X4631Y2841D03*
X6431Y1741D03*
X6430Y1443D03*
X6430Y1241D03*
X5131Y741D03*
X3531Y5641D03*
X3531Y5441D03*
X3631Y5541D03*
X2231Y6041D03*
X2231Y5341D03*
X3331Y5341D03*
X3631Y5341D03*
X2131Y4641D03*
X2030Y4539D03*
X3531Y4541D03*
X3631Y4641D03*
X2031Y5841D03*
X2031Y5341D03*
X1731Y4841D03*
X2431Y4841D03*
X1931Y4841D03*
X2231Y4342D03*
X3631Y4441D03*
X3531Y4441D03*
X2231Y3541D03*
X3531Y3041D03*
X2231Y3041D03*
X3331Y3041D03*
X3731Y3341D03*
X3331Y3141D03*
X3131Y3841D03*
X3631Y3441D03*
X3731Y3541D03*
X3231Y4041D03*
X3631Y6841D03*
X1931Y2041D03*
X1931Y1541D03*
X2131Y1941D03*
X3131Y1741D03*
X3731Y1741D03*
X1831Y2341D03*
X2831Y2641D03*
X1831Y2841D03*
X2530Y2839D03*
X2428Y2943D03*
X3931Y1941D03*
X3131Y2341D03*
X1831Y1741D03*
X1831Y1441D03*
X2332Y1441D03*
X3131Y2041D03*
X3831Y3741D03*
X3831Y2441D03*
X3133Y3441D03*
X3229Y3341D03*
X3330Y3240D03*
X2931Y3439D03*
X2931Y3341D03*
X2931Y3241D03*
X5231Y6342D03*
X3131Y1841D03*
X2333Y1843D03*
X3831Y4841D03*
G54D15*
X2431Y2541D03*
X5531Y1541D03*
X5531Y2941D03*
X5531Y4441D03*
X5531Y6141D03*
X2431Y1241D03*
X2431Y4241D03*
X2431Y6141D03*
G54D16*
X4100Y5872D02*
X4162Y5872D01*
X4400Y5872D02*
X4462Y5872D01*
X4096Y5871D02*
X4166Y5871D01*
X4396Y5871D02*
X4466Y5871D01*
X4094Y5870D02*
X4169Y5870D01*
X4394Y5870D02*
X4469Y5870D01*
X4092Y5869D02*
X4171Y5869D01*
X4392Y5869D02*
X4471Y5869D01*
X4090Y5868D02*
X4173Y5868D01*
X4390Y5868D02*
X4473Y5868D01*
X4088Y5867D02*
X4174Y5867D01*
X4388Y5867D02*
X4474Y5867D01*
X4087Y5866D02*
X4176Y5866D01*
X4387Y5866D02*
X4476Y5866D01*
X4085Y5865D02*
X4177Y5865D01*
X4385Y5865D02*
X4477Y5865D01*
X4084Y5864D02*
X4178Y5864D01*
X4384Y5864D02*
X4478Y5864D01*
X4083Y5863D02*
X4179Y5863D01*
X4383Y5863D02*
X4479Y5863D01*
X4082Y5862D02*
X4180Y5862D01*
X4382Y5862D02*
X4480Y5862D01*
X4082Y5861D02*
X4181Y5861D01*
X4382Y5861D02*
X4481Y5861D01*
X4081Y5860D02*
X4181Y5860D01*
X4381Y5860D02*
X4481Y5860D01*
X4080Y5859D02*
X4182Y5859D01*
X4380Y5859D02*
X4482Y5859D01*
X4080Y5858D02*
X4183Y5858D01*
X4380Y5858D02*
X4483Y5858D01*
X4079Y5857D02*
X4183Y5857D01*
X4379Y5857D02*
X4483Y5857D01*
X4078Y5856D02*
X4184Y5856D01*
X4378Y5856D02*
X4484Y5856D01*
X4078Y5855D02*
X4184Y5855D01*
X4378Y5855D02*
X4484Y5855D01*
X4077Y5854D02*
X4185Y5854D01*
X4377Y5854D02*
X4485Y5854D01*
X4077Y5853D02*
X4185Y5853D01*
X4377Y5853D02*
X4485Y5853D01*
X4077Y5852D02*
X4127Y5852D01*
X4135Y5852D02*
X4186Y5852D01*
X4377Y5852D02*
X4427Y5852D01*
X4435Y5852D02*
X4486Y5852D01*
X4076Y5851D02*
X4125Y5851D01*
X4137Y5851D02*
X4186Y5851D01*
X4376Y5851D02*
X4425Y5851D01*
X4437Y5851D02*
X4486Y5851D01*
X4076Y5850D02*
X4124Y5850D01*
X4139Y5850D02*
X4186Y5850D01*
X4376Y5850D02*
X4424Y5850D01*
X4439Y5850D02*
X4486Y5850D01*
X4076Y5849D02*
X4123Y5849D01*
X4140Y5849D02*
X4187Y5849D01*
X4376Y5849D02*
X4423Y5849D01*
X4440Y5849D02*
X4487Y5849D01*
X4075Y5848D02*
X4122Y5848D01*
X4141Y5848D02*
X4187Y5848D01*
X4375Y5848D02*
X4422Y5848D01*
X4441Y5848D02*
X4487Y5848D01*
X4075Y5847D02*
X4121Y5847D01*
X4141Y5847D02*
X4187Y5847D01*
X4375Y5847D02*
X4421Y5847D01*
X4441Y5847D02*
X4487Y5847D01*
X4075Y5846D02*
X4121Y5846D01*
X4142Y5846D02*
X4187Y5846D01*
X4375Y5846D02*
X4421Y5846D01*
X4442Y5846D02*
X4487Y5846D01*
X4075Y5845D02*
X4120Y5845D01*
X4142Y5845D02*
X4187Y5845D01*
X4375Y5845D02*
X4420Y5845D01*
X4442Y5845D02*
X4487Y5845D01*
X4075Y5844D02*
X4120Y5844D01*
X4142Y5844D02*
X4188Y5844D01*
X4375Y5844D02*
X4420Y5844D01*
X4442Y5844D02*
X4488Y5844D01*
X4075Y5843D02*
X4120Y5843D01*
X4143Y5843D02*
X4188Y5843D01*
X4375Y5843D02*
X4420Y5843D01*
X4443Y5843D02*
X4488Y5843D01*
X4075Y5842D02*
X4120Y5842D01*
X4143Y5842D02*
X4188Y5842D01*
X4375Y5842D02*
X4420Y5842D01*
X4443Y5842D02*
X4488Y5842D01*
X4075Y5841D02*
X4120Y5841D01*
X4143Y5841D02*
X4188Y5841D01*
X4375Y5841D02*
X4420Y5841D01*
X4443Y5841D02*
X4488Y5841D01*
X4075Y5840D02*
X4120Y5840D01*
X4143Y5840D02*
X4188Y5840D01*
X4375Y5840D02*
X4420Y5840D01*
X4443Y5840D02*
X4488Y5840D01*
X4075Y5839D02*
X4120Y5839D01*
X4142Y5839D02*
X4188Y5839D01*
X4375Y5839D02*
X4420Y5839D01*
X4442Y5839D02*
X4488Y5839D01*
X4075Y5838D02*
X4120Y5838D01*
X4142Y5838D02*
X4187Y5838D01*
X4375Y5838D02*
X4420Y5838D01*
X4442Y5838D02*
X4487Y5838D01*
X4075Y5837D02*
X4121Y5837D01*
X4142Y5837D02*
X4187Y5837D01*
X4375Y5837D02*
X4421Y5837D01*
X4442Y5837D02*
X4487Y5837D01*
X4075Y5836D02*
X4121Y5836D01*
X4141Y5836D02*
X4187Y5836D01*
X4375Y5836D02*
X4421Y5836D01*
X4441Y5836D02*
X4487Y5836D01*
X4075Y5835D02*
X4122Y5835D01*
X4141Y5835D02*
X4187Y5835D01*
X4375Y5835D02*
X4422Y5835D01*
X4440Y5835D02*
X4487Y5835D01*
X4076Y5834D02*
X4123Y5834D01*
X4140Y5834D02*
X4187Y5834D01*
X4376Y5834D02*
X4423Y5834D01*
X4440Y5834D02*
X4487Y5834D01*
X4076Y5833D02*
X4124Y5833D01*
X4139Y5833D02*
X4186Y5833D01*
X4376Y5833D02*
X4424Y5833D01*
X4439Y5833D02*
X4486Y5833D01*
X4076Y5832D02*
X4125Y5832D01*
X4137Y5832D02*
X4186Y5832D01*
X4376Y5832D02*
X4425Y5832D01*
X4437Y5832D02*
X4486Y5832D01*
X4077Y5831D02*
X4127Y5831D01*
X4135Y5831D02*
X4186Y5831D01*
X4377Y5831D02*
X4427Y5831D01*
X4435Y5831D02*
X4486Y5831D01*
X4077Y5830D02*
X4185Y5830D01*
X4377Y5830D02*
X4485Y5830D01*
X4077Y5829D02*
X4185Y5829D01*
X4377Y5829D02*
X4485Y5829D01*
X4078Y5828D02*
X4184Y5828D01*
X4378Y5828D02*
X4484Y5828D01*
X4078Y5827D02*
X4184Y5827D01*
X4378Y5827D02*
X4484Y5827D01*
X4079Y5826D02*
X4183Y5826D01*
X4379Y5826D02*
X4483Y5826D01*
X4080Y5825D02*
X4183Y5825D01*
X4380Y5825D02*
X4483Y5825D01*
X4080Y5824D02*
X4182Y5824D01*
X4380Y5824D02*
X4482Y5824D01*
X4081Y5823D02*
X4181Y5823D01*
X4381Y5823D02*
X4481Y5823D01*
X4082Y5822D02*
X4181Y5822D01*
X4382Y5822D02*
X4481Y5822D01*
X4082Y5821D02*
X4180Y5821D01*
X4382Y5821D02*
X4480Y5821D01*
X4083Y5820D02*
X4179Y5820D01*
X4383Y5820D02*
X4479Y5820D01*
X4084Y5819D02*
X4178Y5819D01*
X4384Y5819D02*
X4478Y5819D01*
X4086Y5818D02*
X4177Y5818D01*
X4386Y5818D02*
X4477Y5818D01*
X4087Y5817D02*
X4176Y5817D01*
X4387Y5817D02*
X4475Y5817D01*
X4088Y5816D02*
X4174Y5816D01*
X4388Y5816D02*
X4474Y5816D01*
X4090Y5815D02*
X4172Y5815D01*
X4390Y5815D02*
X4472Y5815D01*
X4092Y5814D02*
X4171Y5814D01*
X4392Y5814D02*
X4471Y5814D01*
X4094Y5813D02*
X4169Y5813D01*
X4394Y5813D02*
X4469Y5813D01*
X4097Y5812D02*
X4166Y5812D01*
X4396Y5812D02*
X4466Y5812D01*
X4101Y5811D02*
X4162Y5811D01*
X4401Y5811D02*
X4462Y5811D01*
X4100Y5772D02*
X4162Y5772D01*
X4400Y5772D02*
X4462Y5772D01*
X4096Y5771D02*
X4166Y5771D01*
X4396Y5771D02*
X4466Y5771D01*
X4094Y5770D02*
X4169Y5770D01*
X4394Y5770D02*
X4469Y5770D01*
X4092Y5769D02*
X4171Y5769D01*
X4391Y5769D02*
X4471Y5769D01*
X4090Y5768D02*
X4173Y5768D01*
X4390Y5768D02*
X4473Y5768D01*
X4088Y5767D02*
X4174Y5767D01*
X4388Y5767D02*
X4474Y5767D01*
X4087Y5766D02*
X4176Y5766D01*
X4387Y5766D02*
X4476Y5766D01*
X4085Y5765D02*
X4177Y5765D01*
X4385Y5765D02*
X4477Y5765D01*
X4084Y5764D02*
X4178Y5764D01*
X4384Y5764D02*
X4478Y5764D01*
X4083Y5763D02*
X4179Y5763D01*
X4383Y5763D02*
X4479Y5763D01*
X4082Y5762D02*
X4180Y5762D01*
X4382Y5762D02*
X4480Y5762D01*
X4082Y5761D02*
X4181Y5761D01*
X4382Y5761D02*
X4481Y5761D01*
X4081Y5760D02*
X4181Y5760D01*
X4381Y5760D02*
X4481Y5760D01*
X4080Y5759D02*
X4182Y5759D01*
X4380Y5759D02*
X4482Y5759D01*
X4080Y5758D02*
X4183Y5758D01*
X4380Y5758D02*
X4483Y5758D01*
X4079Y5757D02*
X4183Y5757D01*
X4379Y5757D02*
X4483Y5757D01*
X4078Y5756D02*
X4184Y5756D01*
X4378Y5756D02*
X4484Y5756D01*
X4078Y5755D02*
X4184Y5755D01*
X4378Y5755D02*
X4484Y5755D01*
X4077Y5754D02*
X4185Y5754D01*
X4377Y5754D02*
X4485Y5754D01*
X4077Y5753D02*
X4185Y5753D01*
X4377Y5753D02*
X4485Y5753D01*
X4077Y5752D02*
X4127Y5752D01*
X4135Y5752D02*
X4186Y5752D01*
X4377Y5752D02*
X4427Y5752D01*
X4435Y5752D02*
X4486Y5752D01*
X4076Y5751D02*
X4125Y5751D01*
X4137Y5751D02*
X4186Y5751D01*
X4376Y5751D02*
X4425Y5751D01*
X4437Y5751D02*
X4486Y5751D01*
X4076Y5750D02*
X4124Y5750D01*
X4139Y5750D02*
X4186Y5750D01*
X4376Y5750D02*
X4424Y5750D01*
X4439Y5750D02*
X4486Y5750D01*
X4076Y5749D02*
X4123Y5749D01*
X4140Y5749D02*
X4187Y5749D01*
X4376Y5749D02*
X4423Y5749D01*
X4440Y5749D02*
X4487Y5749D01*
X4075Y5748D02*
X4122Y5748D01*
X4141Y5748D02*
X4187Y5748D01*
X4375Y5748D02*
X4422Y5748D01*
X4441Y5748D02*
X4487Y5748D01*
X4075Y5747D02*
X4121Y5747D01*
X4141Y5747D02*
X4187Y5747D01*
X4375Y5747D02*
X4421Y5747D01*
X4441Y5747D02*
X4487Y5747D01*
X4075Y5746D02*
X4121Y5746D01*
X4142Y5746D02*
X4187Y5746D01*
X4375Y5746D02*
X4421Y5746D01*
X4442Y5746D02*
X4487Y5746D01*
X4075Y5745D02*
X4120Y5745D01*
X4142Y5745D02*
X4187Y5745D01*
X4375Y5745D02*
X4420Y5745D01*
X4442Y5745D02*
X4487Y5745D01*
X4075Y5744D02*
X4120Y5744D01*
X4142Y5744D02*
X4188Y5744D01*
X4375Y5744D02*
X4420Y5744D01*
X4442Y5744D02*
X4488Y5744D01*
X4075Y5743D02*
X4120Y5743D01*
X4143Y5743D02*
X4188Y5743D01*
X4375Y5743D02*
X4420Y5743D01*
X4443Y5743D02*
X4488Y5743D01*
X4075Y5742D02*
X4120Y5742D01*
X4143Y5742D02*
X4188Y5742D01*
X4375Y5742D02*
X4420Y5742D01*
X4443Y5742D02*
X4488Y5742D01*
X4075Y5741D02*
X4120Y5741D01*
X4143Y5741D02*
X4188Y5741D01*
X4375Y5741D02*
X4420Y5741D01*
X4443Y5741D02*
X4488Y5741D01*
X4075Y5740D02*
X4120Y5740D01*
X4143Y5740D02*
X4188Y5740D01*
X4375Y5740D02*
X4420Y5740D01*
X4443Y5740D02*
X4488Y5740D01*
X4075Y5739D02*
X4120Y5739D01*
X4142Y5739D02*
X4188Y5739D01*
X4375Y5739D02*
X4420Y5739D01*
X4442Y5739D02*
X4488Y5739D01*
X4075Y5738D02*
X4120Y5738D01*
X4142Y5738D02*
X4187Y5738D01*
X4375Y5738D02*
X4420Y5738D01*
X4442Y5738D02*
X4487Y5738D01*
X4075Y5737D02*
X4121Y5737D01*
X4142Y5737D02*
X4187Y5737D01*
X4375Y5737D02*
X4421Y5737D01*
X4442Y5737D02*
X4487Y5737D01*
X4075Y5736D02*
X4121Y5736D01*
X4141Y5736D02*
X4187Y5736D01*
X4375Y5736D02*
X4421Y5736D01*
X4441Y5736D02*
X4487Y5736D01*
X4075Y5735D02*
X4122Y5735D01*
X4141Y5735D02*
X4187Y5735D01*
X4375Y5735D02*
X4422Y5735D01*
X4440Y5735D02*
X4487Y5735D01*
X4076Y5734D02*
X4123Y5734D01*
X4140Y5734D02*
X4187Y5734D01*
X4376Y5734D02*
X4423Y5734D01*
X4440Y5734D02*
X4487Y5734D01*
X4076Y5733D02*
X4124Y5733D01*
X4139Y5733D02*
X4186Y5733D01*
X4376Y5733D02*
X4424Y5733D01*
X4439Y5733D02*
X4486Y5733D01*
X4076Y5732D02*
X4125Y5732D01*
X4137Y5732D02*
X4186Y5732D01*
X4376Y5732D02*
X4425Y5732D01*
X4437Y5732D02*
X4486Y5732D01*
X4077Y5731D02*
X4127Y5731D01*
X4135Y5731D02*
X4186Y5731D01*
X4377Y5731D02*
X4427Y5731D01*
X4435Y5731D02*
X4486Y5731D01*
X4077Y5730D02*
X4185Y5730D01*
X4377Y5730D02*
X4485Y5730D01*
X4077Y5729D02*
X4185Y5729D01*
X4377Y5729D02*
X4485Y5729D01*
X4078Y5728D02*
X4184Y5728D01*
X4378Y5728D02*
X4484Y5728D01*
X4078Y5727D02*
X4184Y5727D01*
X4378Y5727D02*
X4484Y5727D01*
X4079Y5726D02*
X4183Y5726D01*
X4379Y5726D02*
X4483Y5726D01*
X4080Y5725D02*
X4183Y5725D01*
X4380Y5725D02*
X4483Y5725D01*
X4080Y5724D02*
X4182Y5724D01*
X4380Y5724D02*
X4482Y5724D01*
X4081Y5723D02*
X4181Y5723D01*
X4381Y5723D02*
X4481Y5723D01*
X4082Y5722D02*
X4181Y5722D01*
X4382Y5722D02*
X4481Y5722D01*
X4082Y5721D02*
X4180Y5721D01*
X4382Y5721D02*
X4480Y5721D01*
X4083Y5720D02*
X4179Y5720D01*
X4383Y5720D02*
X4479Y5720D01*
X4084Y5719D02*
X4178Y5719D01*
X4384Y5719D02*
X4478Y5719D01*
X4086Y5718D02*
X4177Y5718D01*
X4386Y5718D02*
X4477Y5718D01*
X4087Y5717D02*
X4176Y5717D01*
X4387Y5717D02*
X4475Y5717D01*
X4088Y5716D02*
X4174Y5716D01*
X4388Y5716D02*
X4474Y5716D01*
X4090Y5715D02*
X4172Y5715D01*
X4390Y5715D02*
X4472Y5715D01*
X4092Y5714D02*
X4171Y5714D01*
X4392Y5714D02*
X4471Y5714D01*
X4094Y5713D02*
X4169Y5713D01*
X4394Y5713D02*
X4469Y5713D01*
X4097Y5712D02*
X4166Y5712D01*
X4397Y5712D02*
X4466Y5712D01*
X4101Y5711D02*
X4162Y5711D01*
X4401Y5711D02*
X4462Y5711D01*
X4100Y5672D02*
X4162Y5672D01*
X4400Y5672D02*
X4462Y5672D01*
X4096Y5671D02*
X4166Y5671D01*
X4396Y5671D02*
X4466Y5671D01*
X4094Y5670D02*
X4169Y5670D01*
X4394Y5670D02*
X4469Y5670D01*
X4092Y5669D02*
X4171Y5669D01*
X4391Y5669D02*
X4471Y5669D01*
X4090Y5668D02*
X4173Y5668D01*
X4390Y5668D02*
X4473Y5668D01*
X4088Y5667D02*
X4174Y5667D01*
X4388Y5667D02*
X4474Y5667D01*
X4087Y5666D02*
X4176Y5666D01*
X4387Y5666D02*
X4476Y5666D01*
X4085Y5665D02*
X4177Y5665D01*
X4385Y5665D02*
X4477Y5665D01*
X4084Y5664D02*
X4178Y5664D01*
X4384Y5664D02*
X4478Y5664D01*
X4083Y5663D02*
X4179Y5663D01*
X4383Y5663D02*
X4479Y5663D01*
X4082Y5662D02*
X4180Y5662D01*
X4382Y5662D02*
X4480Y5662D01*
X4082Y5661D02*
X4181Y5661D01*
X4382Y5661D02*
X4481Y5661D01*
X4081Y5660D02*
X4181Y5660D01*
X4381Y5660D02*
X4481Y5660D01*
X4080Y5659D02*
X4182Y5659D01*
X4380Y5659D02*
X4482Y5659D01*
X4080Y5658D02*
X4183Y5658D01*
X4379Y5658D02*
X4483Y5658D01*
X4079Y5657D02*
X4183Y5657D01*
X4379Y5657D02*
X4483Y5657D01*
X4078Y5656D02*
X4184Y5656D01*
X4378Y5656D02*
X4484Y5656D01*
X4078Y5655D02*
X4184Y5655D01*
X4378Y5655D02*
X4484Y5655D01*
X4077Y5654D02*
X4185Y5654D01*
X4377Y5654D02*
X4485Y5654D01*
X4077Y5653D02*
X4185Y5653D01*
X4377Y5653D02*
X4485Y5653D01*
X4077Y5652D02*
X4127Y5652D01*
X4135Y5652D02*
X4186Y5652D01*
X4377Y5652D02*
X4427Y5652D01*
X4435Y5652D02*
X4486Y5652D01*
X4076Y5651D02*
X4125Y5651D01*
X4137Y5651D02*
X4186Y5651D01*
X4376Y5651D02*
X4425Y5651D01*
X4437Y5651D02*
X4486Y5651D01*
X4076Y5650D02*
X4124Y5650D01*
X4139Y5650D02*
X4186Y5650D01*
X4376Y5650D02*
X4424Y5650D01*
X4439Y5650D02*
X4486Y5650D01*
X4076Y5649D02*
X4123Y5649D01*
X4140Y5649D02*
X4187Y5649D01*
X4376Y5649D02*
X4423Y5649D01*
X4440Y5649D02*
X4487Y5649D01*
X4075Y5648D02*
X4122Y5648D01*
X4141Y5648D02*
X4187Y5648D01*
X4375Y5648D02*
X4422Y5648D01*
X4441Y5648D02*
X4487Y5648D01*
X4075Y5647D02*
X4121Y5647D01*
X4141Y5647D02*
X4187Y5647D01*
X4375Y5647D02*
X4421Y5647D01*
X4441Y5647D02*
X4487Y5647D01*
X4075Y5646D02*
X4121Y5646D01*
X4142Y5646D02*
X4187Y5646D01*
X4375Y5646D02*
X4421Y5646D01*
X4442Y5646D02*
X4487Y5646D01*
X4075Y5645D02*
X4120Y5645D01*
X4142Y5645D02*
X4187Y5645D01*
X4375Y5645D02*
X4420Y5645D01*
X4442Y5645D02*
X4487Y5645D01*
X4075Y5644D02*
X4120Y5644D01*
X4142Y5644D02*
X4188Y5644D01*
X4375Y5644D02*
X4420Y5644D01*
X4442Y5644D02*
X4488Y5644D01*
X4075Y5643D02*
X4120Y5643D01*
X4143Y5643D02*
X4188Y5643D01*
X4375Y5643D02*
X4420Y5643D01*
X4443Y5643D02*
X4488Y5643D01*
X4075Y5642D02*
X4120Y5642D01*
X4143Y5642D02*
X4188Y5642D01*
X4375Y5642D02*
X4420Y5642D01*
X4443Y5642D02*
X4488Y5642D01*
X4075Y5641D02*
X4120Y5641D01*
X4143Y5641D02*
X4188Y5641D01*
X4375Y5641D02*
X4420Y5641D01*
X4443Y5641D02*
X4488Y5641D01*
X4075Y5640D02*
X4120Y5640D01*
X4143Y5640D02*
X4188Y5640D01*
X4375Y5640D02*
X4420Y5640D01*
X4443Y5640D02*
X4488Y5640D01*
X4075Y5639D02*
X4120Y5639D01*
X4142Y5639D02*
X4188Y5639D01*
X4375Y5639D02*
X4420Y5639D01*
X4442Y5639D02*
X4488Y5639D01*
X4075Y5638D02*
X4120Y5638D01*
X4142Y5638D02*
X4187Y5638D01*
X4375Y5638D02*
X4420Y5638D01*
X4442Y5638D02*
X4487Y5638D01*
X4075Y5637D02*
X4121Y5637D01*
X4142Y5637D02*
X4187Y5637D01*
X4375Y5637D02*
X4421Y5637D01*
X4442Y5637D02*
X4487Y5637D01*
X4075Y5636D02*
X4121Y5636D01*
X4141Y5636D02*
X4187Y5636D01*
X4375Y5636D02*
X4421Y5636D01*
X4441Y5636D02*
X4487Y5636D01*
X4075Y5635D02*
X4122Y5635D01*
X4141Y5635D02*
X4187Y5635D01*
X4375Y5635D02*
X4422Y5635D01*
X4440Y5635D02*
X4487Y5635D01*
X4076Y5634D02*
X4123Y5634D01*
X4140Y5634D02*
X4187Y5634D01*
X4376Y5634D02*
X4423Y5634D01*
X4440Y5634D02*
X4487Y5634D01*
X4076Y5633D02*
X4124Y5633D01*
X4139Y5633D02*
X4186Y5633D01*
X4376Y5633D02*
X4424Y5633D01*
X4439Y5633D02*
X4486Y5633D01*
X4076Y5632D02*
X4125Y5632D01*
X4137Y5632D02*
X4186Y5632D01*
X4376Y5632D02*
X4425Y5632D01*
X4437Y5632D02*
X4486Y5632D01*
X4077Y5631D02*
X4127Y5631D01*
X4135Y5631D02*
X4186Y5631D01*
X4377Y5631D02*
X4427Y5631D01*
X4435Y5631D02*
X4486Y5631D01*
X4077Y5630D02*
X4185Y5630D01*
X4377Y5630D02*
X4485Y5630D01*
X4077Y5629D02*
X4185Y5629D01*
X4377Y5629D02*
X4485Y5629D01*
X4078Y5628D02*
X4184Y5628D01*
X4378Y5628D02*
X4484Y5628D01*
X4078Y5627D02*
X4184Y5627D01*
X4378Y5627D02*
X4484Y5627D01*
X4079Y5626D02*
X4183Y5626D01*
X4379Y5626D02*
X4483Y5626D01*
X4080Y5625D02*
X4183Y5625D01*
X4380Y5625D02*
X4483Y5625D01*
X4080Y5624D02*
X4182Y5624D01*
X4380Y5624D02*
X4482Y5624D01*
X4081Y5623D02*
X4181Y5623D01*
X4381Y5623D02*
X4481Y5623D01*
X4082Y5622D02*
X4181Y5622D01*
X4382Y5622D02*
X4481Y5622D01*
X4083Y5621D02*
X4180Y5621D01*
X4382Y5621D02*
X4480Y5621D01*
X4083Y5620D02*
X4179Y5620D01*
X4383Y5620D02*
X4479Y5620D01*
X4084Y5619D02*
X4178Y5619D01*
X4384Y5619D02*
X4478Y5619D01*
X4086Y5618D02*
X4177Y5618D01*
X4386Y5618D02*
X4477Y5618D01*
X4087Y5617D02*
X4176Y5617D01*
X4387Y5617D02*
X4475Y5617D01*
X4088Y5616D02*
X4174Y5616D01*
X4388Y5616D02*
X4474Y5616D01*
X4090Y5615D02*
X4172Y5615D01*
X4390Y5615D02*
X4472Y5615D01*
X4092Y5614D02*
X4171Y5614D01*
X4392Y5614D02*
X4471Y5614D01*
X4094Y5613D02*
X4169Y5613D01*
X4394Y5613D02*
X4468Y5613D01*
X4097Y5612D02*
X4166Y5612D01*
X4397Y5612D02*
X4466Y5612D01*
X4101Y5611D02*
X4162Y5611D01*
X4401Y5611D02*
X4462Y5611D01*
X4100Y5572D02*
X4162Y5572D01*
X4400Y5572D02*
X4462Y5572D01*
X4096Y5571D02*
X4166Y5571D01*
X4396Y5571D02*
X4466Y5571D01*
X4094Y5570D02*
X4169Y5570D01*
X4394Y5570D02*
X4469Y5570D01*
X4092Y5569D02*
X4171Y5569D01*
X4391Y5569D02*
X4471Y5569D01*
X4090Y5568D02*
X4173Y5568D01*
X4390Y5568D02*
X4473Y5568D01*
X4088Y5567D02*
X4174Y5567D01*
X4388Y5567D02*
X4474Y5567D01*
X4087Y5566D02*
X4176Y5566D01*
X4387Y5566D02*
X4476Y5566D01*
X4085Y5565D02*
X4177Y5565D01*
X4385Y5565D02*
X4477Y5565D01*
X4084Y5564D02*
X4178Y5564D01*
X4384Y5564D02*
X4478Y5564D01*
X4083Y5563D02*
X4179Y5563D01*
X4383Y5563D02*
X4479Y5563D01*
X4082Y5562D02*
X4180Y5562D01*
X4382Y5562D02*
X4480Y5562D01*
X4082Y5561D02*
X4181Y5561D01*
X4382Y5561D02*
X4481Y5561D01*
X4081Y5560D02*
X4181Y5560D01*
X4381Y5560D02*
X4481Y5560D01*
X4080Y5559D02*
X4182Y5559D01*
X4380Y5559D02*
X4482Y5559D01*
X4080Y5558D02*
X4183Y5558D01*
X4379Y5558D02*
X4483Y5558D01*
X4079Y5557D02*
X4183Y5557D01*
X4379Y5557D02*
X4483Y5557D01*
X4078Y5556D02*
X4184Y5556D01*
X4378Y5556D02*
X4484Y5556D01*
X4078Y5555D02*
X4184Y5555D01*
X4378Y5555D02*
X4484Y5555D01*
X4077Y5554D02*
X4185Y5554D01*
X4377Y5554D02*
X4485Y5554D01*
X4077Y5553D02*
X4185Y5553D01*
X4377Y5553D02*
X4485Y5553D01*
X4077Y5552D02*
X4127Y5552D01*
X4135Y5552D02*
X4186Y5552D01*
X4377Y5552D02*
X4427Y5552D01*
X4435Y5552D02*
X4486Y5552D01*
X4076Y5551D02*
X4125Y5551D01*
X4137Y5551D02*
X4186Y5551D01*
X4376Y5551D02*
X4425Y5551D01*
X4437Y5551D02*
X4486Y5551D01*
X4076Y5550D02*
X4124Y5550D01*
X4139Y5550D02*
X4186Y5550D01*
X4376Y5550D02*
X4424Y5550D01*
X4439Y5550D02*
X4486Y5550D01*
X4076Y5549D02*
X4123Y5549D01*
X4140Y5549D02*
X4187Y5549D01*
X4376Y5549D02*
X4423Y5549D01*
X4440Y5549D02*
X4487Y5549D01*
X4075Y5548D02*
X4122Y5548D01*
X4141Y5548D02*
X4187Y5548D01*
X4375Y5548D02*
X4422Y5548D01*
X4441Y5548D02*
X4487Y5548D01*
X4075Y5547D02*
X4121Y5547D01*
X4141Y5547D02*
X4187Y5547D01*
X4375Y5547D02*
X4421Y5547D01*
X4441Y5547D02*
X4487Y5547D01*
X4075Y5546D02*
X4121Y5546D01*
X4142Y5546D02*
X4187Y5546D01*
X4375Y5546D02*
X4421Y5546D01*
X4442Y5546D02*
X4487Y5546D01*
X4075Y5545D02*
X4120Y5545D01*
X4142Y5545D02*
X4187Y5545D01*
X4375Y5545D02*
X4420Y5545D01*
X4442Y5545D02*
X4487Y5545D01*
X4075Y5544D02*
X4120Y5544D01*
X4142Y5544D02*
X4188Y5544D01*
X4375Y5544D02*
X4420Y5544D01*
X4442Y5544D02*
X4488Y5544D01*
X4075Y5543D02*
X4120Y5543D01*
X4143Y5543D02*
X4188Y5543D01*
X4375Y5543D02*
X4420Y5543D01*
X4443Y5543D02*
X4488Y5543D01*
X4075Y5542D02*
X4120Y5542D01*
X4143Y5542D02*
X4188Y5542D01*
X4375Y5542D02*
X4420Y5542D01*
X4443Y5542D02*
X4488Y5542D01*
X4075Y5541D02*
X4120Y5541D01*
X4143Y5541D02*
X4188Y5541D01*
X4375Y5541D02*
X4420Y5541D01*
X4443Y5541D02*
X4488Y5541D01*
X4075Y5540D02*
X4120Y5540D01*
X4143Y5540D02*
X4188Y5540D01*
X4375Y5540D02*
X4420Y5540D01*
X4443Y5540D02*
X4488Y5540D01*
X4075Y5539D02*
X4120Y5539D01*
X4142Y5539D02*
X4188Y5539D01*
X4375Y5539D02*
X4420Y5539D01*
X4442Y5539D02*
X4488Y5539D01*
X4075Y5538D02*
X4120Y5538D01*
X4142Y5538D02*
X4187Y5538D01*
X4375Y5538D02*
X4420Y5538D01*
X4442Y5538D02*
X4487Y5538D01*
X4075Y5537D02*
X4121Y5537D01*
X4142Y5537D02*
X4187Y5537D01*
X4375Y5537D02*
X4421Y5537D01*
X4442Y5537D02*
X4487Y5537D01*
X4075Y5536D02*
X4121Y5536D01*
X4141Y5536D02*
X4187Y5536D01*
X4375Y5536D02*
X4421Y5536D01*
X4441Y5536D02*
X4487Y5536D01*
X4075Y5535D02*
X4122Y5535D01*
X4141Y5535D02*
X4187Y5535D01*
X4375Y5535D02*
X4422Y5535D01*
X4440Y5535D02*
X4487Y5535D01*
X4076Y5534D02*
X4123Y5534D01*
X4140Y5534D02*
X4187Y5534D01*
X4376Y5534D02*
X4423Y5534D01*
X4440Y5534D02*
X4487Y5534D01*
X4076Y5533D02*
X4124Y5533D01*
X4139Y5533D02*
X4186Y5533D01*
X4376Y5533D02*
X4424Y5533D01*
X4439Y5533D02*
X4486Y5533D01*
X4076Y5532D02*
X4125Y5532D01*
X4137Y5532D02*
X4186Y5532D01*
X4376Y5532D02*
X4425Y5532D01*
X4437Y5532D02*
X4486Y5532D01*
X4077Y5531D02*
X4127Y5531D01*
X4135Y5531D02*
X4186Y5531D01*
X4377Y5531D02*
X4427Y5531D01*
X4435Y5531D02*
X4486Y5531D01*
X4077Y5530D02*
X4185Y5530D01*
X4377Y5530D02*
X4485Y5530D01*
X4077Y5529D02*
X4185Y5529D01*
X4377Y5529D02*
X4485Y5529D01*
X4078Y5528D02*
X4184Y5528D01*
X4378Y5528D02*
X4484Y5528D01*
X4078Y5527D02*
X4184Y5527D01*
X4378Y5527D02*
X4484Y5527D01*
X4079Y5526D02*
X4183Y5526D01*
X4379Y5526D02*
X4483Y5526D01*
X4080Y5525D02*
X4183Y5525D01*
X4380Y5525D02*
X4483Y5525D01*
X4080Y5524D02*
X4182Y5524D01*
X4380Y5524D02*
X4482Y5524D01*
X4081Y5523D02*
X4181Y5523D01*
X4381Y5523D02*
X4481Y5523D01*
X4082Y5522D02*
X4181Y5522D01*
X4382Y5522D02*
X4481Y5522D01*
X4083Y5521D02*
X4180Y5521D01*
X4382Y5521D02*
X4480Y5521D01*
X4083Y5520D02*
X4179Y5520D01*
X4383Y5520D02*
X4479Y5520D01*
X4084Y5519D02*
X4178Y5519D01*
X4384Y5519D02*
X4478Y5519D01*
X4086Y5518D02*
X4177Y5518D01*
X4386Y5518D02*
X4477Y5518D01*
X4087Y5517D02*
X4175Y5517D01*
X4387Y5517D02*
X4475Y5517D01*
X4088Y5516D02*
X4174Y5516D01*
X4388Y5516D02*
X4474Y5516D01*
X4090Y5515D02*
X4172Y5515D01*
X4390Y5515D02*
X4472Y5515D01*
X4092Y5514D02*
X4171Y5514D01*
X4392Y5514D02*
X4471Y5514D01*
X4094Y5513D02*
X4169Y5513D01*
X4394Y5513D02*
X4468Y5513D01*
X4097Y5512D02*
X4166Y5512D01*
X4397Y5512D02*
X4466Y5512D01*
X4101Y5511D02*
X4161Y5511D01*
X4401Y5511D02*
X4461Y5511D01*
X4100Y5472D02*
X4162Y5472D01*
X4400Y5472D02*
X4462Y5472D01*
X4096Y5471D02*
X4166Y5471D01*
X4396Y5471D02*
X4466Y5471D01*
X4094Y5470D02*
X4169Y5470D01*
X4394Y5470D02*
X4469Y5470D01*
X4091Y5469D02*
X4171Y5469D01*
X4391Y5469D02*
X4471Y5469D01*
X4090Y5468D02*
X4173Y5468D01*
X4390Y5468D02*
X4473Y5468D01*
X4088Y5467D02*
X4174Y5467D01*
X4388Y5467D02*
X4474Y5467D01*
X4087Y5466D02*
X4176Y5466D01*
X4387Y5466D02*
X4476Y5466D01*
X4085Y5465D02*
X4177Y5465D01*
X4385Y5465D02*
X4477Y5465D01*
X4084Y5464D02*
X4178Y5464D01*
X4384Y5464D02*
X4478Y5464D01*
X4083Y5463D02*
X4179Y5463D01*
X4383Y5463D02*
X4479Y5463D01*
X4082Y5462D02*
X4180Y5462D01*
X4382Y5462D02*
X4480Y5462D01*
X4082Y5461D02*
X4181Y5461D01*
X4382Y5461D02*
X4481Y5461D01*
X4081Y5460D02*
X4181Y5460D01*
X4381Y5460D02*
X4481Y5460D01*
X4080Y5459D02*
X4182Y5459D01*
X4380Y5459D02*
X4482Y5459D01*
X4080Y5458D02*
X4183Y5458D01*
X4379Y5458D02*
X4483Y5458D01*
X4079Y5457D02*
X4183Y5457D01*
X4379Y5457D02*
X4483Y5457D01*
X4078Y5456D02*
X4184Y5456D01*
X4378Y5456D02*
X4484Y5456D01*
X4078Y5455D02*
X4184Y5455D01*
X4378Y5455D02*
X4484Y5455D01*
X4077Y5454D02*
X4185Y5454D01*
X4377Y5454D02*
X4485Y5454D01*
X4077Y5453D02*
X4185Y5453D01*
X4377Y5453D02*
X4485Y5453D01*
X4077Y5452D02*
X4127Y5452D01*
X4135Y5452D02*
X4186Y5452D01*
X4377Y5452D02*
X4427Y5452D01*
X4435Y5452D02*
X4486Y5452D01*
X4076Y5451D02*
X4125Y5451D01*
X4137Y5451D02*
X4186Y5451D01*
X4376Y5451D02*
X4425Y5451D01*
X4437Y5451D02*
X4486Y5451D01*
X4076Y5450D02*
X4124Y5450D01*
X4139Y5450D02*
X4186Y5450D01*
X4376Y5450D02*
X4424Y5450D01*
X4439Y5450D02*
X4486Y5450D01*
X4076Y5449D02*
X4123Y5449D01*
X4140Y5449D02*
X4187Y5449D01*
X4376Y5449D02*
X4423Y5449D01*
X4440Y5449D02*
X4487Y5449D01*
X4075Y5448D02*
X4122Y5448D01*
X4141Y5448D02*
X4187Y5448D01*
X4375Y5448D02*
X4422Y5448D01*
X4441Y5448D02*
X4487Y5448D01*
X4075Y5447D02*
X4121Y5447D01*
X4141Y5447D02*
X4187Y5447D01*
X4375Y5447D02*
X4421Y5447D01*
X4441Y5447D02*
X4487Y5447D01*
X4075Y5446D02*
X4121Y5446D01*
X4142Y5446D02*
X4187Y5446D01*
X4375Y5446D02*
X4421Y5446D01*
X4442Y5446D02*
X4487Y5446D01*
X4075Y5445D02*
X4120Y5445D01*
X4142Y5445D02*
X4187Y5445D01*
X4375Y5445D02*
X4420Y5445D01*
X4442Y5445D02*
X4487Y5445D01*
X4075Y5444D02*
X4120Y5444D01*
X4142Y5444D02*
X4188Y5444D01*
X4375Y5444D02*
X4420Y5444D01*
X4442Y5444D02*
X4488Y5444D01*
X4075Y5443D02*
X4120Y5443D01*
X4143Y5443D02*
X4188Y5443D01*
X4375Y5443D02*
X4420Y5443D01*
X4443Y5443D02*
X4488Y5443D01*
X4075Y5442D02*
X4120Y5442D01*
X4143Y5442D02*
X4188Y5442D01*
X4375Y5442D02*
X4420Y5442D01*
X4443Y5442D02*
X4488Y5442D01*
X4075Y5441D02*
X4120Y5441D01*
X4143Y5441D02*
X4188Y5441D01*
X4375Y5441D02*
X4420Y5441D01*
X4443Y5441D02*
X4488Y5441D01*
X4075Y5440D02*
X4120Y5440D01*
X4143Y5440D02*
X4188Y5440D01*
X4375Y5440D02*
X4420Y5440D01*
X4443Y5440D02*
X4488Y5440D01*
X4075Y5439D02*
X4120Y5439D01*
X4142Y5439D02*
X4188Y5439D01*
X4375Y5439D02*
X4420Y5439D01*
X4442Y5439D02*
X4488Y5439D01*
X4075Y5438D02*
X4120Y5438D01*
X4142Y5438D02*
X4187Y5438D01*
X4375Y5438D02*
X4420Y5438D01*
X4442Y5438D02*
X4487Y5438D01*
X4075Y5437D02*
X4121Y5437D01*
X4142Y5437D02*
X4187Y5437D01*
X4375Y5437D02*
X4421Y5437D01*
X4442Y5437D02*
X4487Y5437D01*
X4075Y5436D02*
X4121Y5436D01*
X4141Y5436D02*
X4187Y5436D01*
X4375Y5436D02*
X4421Y5436D01*
X4441Y5436D02*
X4487Y5436D01*
X4075Y5435D02*
X4122Y5435D01*
X4141Y5435D02*
X4187Y5435D01*
X4375Y5435D02*
X4422Y5435D01*
X4440Y5435D02*
X4487Y5435D01*
X4076Y5434D02*
X4123Y5434D01*
X4140Y5434D02*
X4187Y5434D01*
X4376Y5434D02*
X4423Y5434D01*
X4440Y5434D02*
X4487Y5434D01*
X4076Y5433D02*
X4124Y5433D01*
X4139Y5433D02*
X4186Y5433D01*
X4376Y5433D02*
X4424Y5433D01*
X4439Y5433D02*
X4486Y5433D01*
X4076Y5432D02*
X4125Y5432D01*
X4137Y5432D02*
X4186Y5432D01*
X4376Y5432D02*
X4425Y5432D01*
X4437Y5432D02*
X4486Y5432D01*
X4077Y5431D02*
X4127Y5431D01*
X4135Y5431D02*
X4186Y5431D01*
X4377Y5431D02*
X4427Y5431D01*
X4435Y5431D02*
X4486Y5431D01*
X4077Y5430D02*
X4185Y5430D01*
X4377Y5430D02*
X4485Y5430D01*
X4077Y5429D02*
X4185Y5429D01*
X4377Y5429D02*
X4485Y5429D01*
X4078Y5428D02*
X4184Y5428D01*
X4378Y5428D02*
X4484Y5428D01*
X4078Y5427D02*
X4184Y5427D01*
X4378Y5427D02*
X4484Y5427D01*
X4079Y5426D02*
X4183Y5426D01*
X4379Y5426D02*
X4483Y5426D01*
X4080Y5425D02*
X4183Y5425D01*
X4380Y5425D02*
X4483Y5425D01*
X4080Y5424D02*
X4182Y5424D01*
X4380Y5424D02*
X4482Y5424D01*
X4081Y5423D02*
X4181Y5423D01*
X4381Y5423D02*
X4481Y5423D01*
X4082Y5422D02*
X4181Y5422D01*
X4382Y5422D02*
X4481Y5422D01*
X4083Y5421D02*
X4180Y5421D01*
X4382Y5421D02*
X4480Y5421D01*
X4083Y5420D02*
X4179Y5420D01*
X4383Y5420D02*
X4479Y5420D01*
X4084Y5419D02*
X4178Y5419D01*
X4384Y5419D02*
X4478Y5419D01*
X4086Y5418D02*
X4177Y5418D01*
X4386Y5418D02*
X4477Y5418D01*
X4087Y5417D02*
X4175Y5417D01*
X4387Y5417D02*
X4475Y5417D01*
X4088Y5416D02*
X4174Y5416D01*
X4388Y5416D02*
X4474Y5416D01*
X4090Y5415D02*
X4172Y5415D01*
X4390Y5415D02*
X4472Y5415D01*
X4092Y5414D02*
X4171Y5414D01*
X4392Y5414D02*
X4471Y5414D01*
X4094Y5413D02*
X4169Y5413D01*
X4394Y5413D02*
X4468Y5413D01*
X4097Y5412D02*
X4166Y5412D01*
X4397Y5412D02*
X4466Y5412D01*
X4101Y5411D02*
X4161Y5411D01*
X4401Y5411D02*
X4461Y5411D01*
X4100Y5372D02*
X4162Y5372D01*
X4400Y5372D02*
X4462Y5372D01*
X4096Y5371D02*
X4166Y5371D01*
X4396Y5371D02*
X4466Y5371D01*
X4094Y5370D02*
X4169Y5370D01*
X4394Y5370D02*
X4469Y5370D01*
X4091Y5369D02*
X4171Y5369D01*
X4391Y5369D02*
X4471Y5369D01*
X4090Y5368D02*
X4173Y5368D01*
X4390Y5368D02*
X4473Y5368D01*
X4088Y5367D02*
X4174Y5367D01*
X4388Y5367D02*
X4474Y5367D01*
X4087Y5366D02*
X4176Y5366D01*
X4387Y5366D02*
X4476Y5366D01*
X4085Y5365D02*
X4177Y5365D01*
X4385Y5365D02*
X4477Y5365D01*
X4084Y5364D02*
X4178Y5364D01*
X4384Y5364D02*
X4478Y5364D01*
X4083Y5363D02*
X4179Y5363D01*
X4383Y5363D02*
X4479Y5363D01*
X4082Y5362D02*
X4180Y5362D01*
X4382Y5362D02*
X4480Y5362D01*
X4082Y5361D02*
X4181Y5361D01*
X4382Y5361D02*
X4481Y5361D01*
X4081Y5360D02*
X4181Y5360D01*
X4381Y5360D02*
X4481Y5360D01*
X4080Y5359D02*
X4182Y5359D01*
X4380Y5359D02*
X4482Y5359D01*
X4080Y5358D02*
X4183Y5358D01*
X4379Y5358D02*
X4483Y5358D01*
X4079Y5357D02*
X4183Y5357D01*
X4379Y5357D02*
X4483Y5357D01*
X4078Y5356D02*
X4184Y5356D01*
X4378Y5356D02*
X4484Y5356D01*
X4078Y5355D02*
X4184Y5355D01*
X4378Y5355D02*
X4484Y5355D01*
X4077Y5354D02*
X4185Y5354D01*
X4377Y5354D02*
X4485Y5354D01*
X4077Y5353D02*
X4185Y5353D01*
X4377Y5353D02*
X4485Y5353D01*
X4077Y5352D02*
X4127Y5352D01*
X4135Y5352D02*
X4186Y5352D01*
X4377Y5352D02*
X4427Y5352D01*
X4435Y5352D02*
X4486Y5352D01*
X4076Y5351D02*
X4125Y5351D01*
X4137Y5351D02*
X4186Y5351D01*
X4376Y5351D02*
X4425Y5351D01*
X4437Y5351D02*
X4486Y5351D01*
X4076Y5350D02*
X4124Y5350D01*
X4139Y5350D02*
X4186Y5350D01*
X4376Y5350D02*
X4424Y5350D01*
X4439Y5350D02*
X4486Y5350D01*
X4076Y5349D02*
X4123Y5349D01*
X4140Y5349D02*
X4187Y5349D01*
X4376Y5349D02*
X4423Y5349D01*
X4440Y5349D02*
X4487Y5349D01*
X4075Y5348D02*
X4122Y5348D01*
X4141Y5348D02*
X4187Y5348D01*
X4375Y5348D02*
X4422Y5348D01*
X4441Y5348D02*
X4487Y5348D01*
X4075Y5347D02*
X4121Y5347D01*
X4141Y5347D02*
X4187Y5347D01*
X4375Y5347D02*
X4421Y5347D01*
X4441Y5347D02*
X4487Y5347D01*
X4075Y5346D02*
X4121Y5346D01*
X4142Y5346D02*
X4187Y5346D01*
X4375Y5346D02*
X4421Y5346D01*
X4442Y5346D02*
X4487Y5346D01*
X4075Y5345D02*
X4120Y5345D01*
X4142Y5345D02*
X4187Y5345D01*
X4375Y5345D02*
X4420Y5345D01*
X4442Y5345D02*
X4487Y5345D01*
X4075Y5344D02*
X4120Y5344D01*
X4142Y5344D02*
X4188Y5344D01*
X4375Y5344D02*
X4420Y5344D01*
X4442Y5344D02*
X4488Y5344D01*
X4075Y5343D02*
X4120Y5343D01*
X4143Y5343D02*
X4188Y5343D01*
X4375Y5343D02*
X4420Y5343D01*
X4443Y5343D02*
X4488Y5343D01*
X4075Y5342D02*
X4120Y5342D01*
X4143Y5342D02*
X4188Y5342D01*
X4375Y5342D02*
X4420Y5342D01*
X4443Y5342D02*
X4488Y5342D01*
X4075Y5341D02*
X4120Y5341D01*
X4143Y5341D02*
X4188Y5341D01*
X4375Y5341D02*
X4420Y5341D01*
X4443Y5341D02*
X4488Y5341D01*
X4075Y5340D02*
X4120Y5340D01*
X4143Y5340D02*
X4188Y5340D01*
X4375Y5340D02*
X4420Y5340D01*
X4443Y5340D02*
X4488Y5340D01*
X4075Y5339D02*
X4120Y5339D01*
X4142Y5339D02*
X4188Y5339D01*
X4375Y5339D02*
X4420Y5339D01*
X4442Y5339D02*
X4488Y5339D01*
X4075Y5338D02*
X4120Y5338D01*
X4142Y5338D02*
X4187Y5338D01*
X4375Y5338D02*
X4420Y5338D01*
X4442Y5338D02*
X4487Y5338D01*
X4075Y5337D02*
X4121Y5337D01*
X4142Y5337D02*
X4187Y5337D01*
X4375Y5337D02*
X4421Y5337D01*
X4442Y5337D02*
X4487Y5337D01*
X4075Y5336D02*
X4121Y5336D01*
X4141Y5336D02*
X4187Y5336D01*
X4375Y5336D02*
X4421Y5336D01*
X4441Y5336D02*
X4487Y5336D01*
X4075Y5335D02*
X4122Y5335D01*
X4140Y5335D02*
X4187Y5335D01*
X4375Y5335D02*
X4422Y5335D01*
X4440Y5335D02*
X4487Y5335D01*
X4076Y5334D02*
X4123Y5334D01*
X4140Y5334D02*
X4187Y5334D01*
X4376Y5334D02*
X4423Y5334D01*
X4440Y5334D02*
X4487Y5334D01*
X4076Y5333D02*
X4124Y5333D01*
X4139Y5333D02*
X4186Y5333D01*
X4376Y5333D02*
X4424Y5333D01*
X4439Y5333D02*
X4486Y5333D01*
X4076Y5332D02*
X4125Y5332D01*
X4137Y5332D02*
X4186Y5332D01*
X4376Y5332D02*
X4425Y5332D01*
X4437Y5332D02*
X4486Y5332D01*
X4077Y5331D02*
X4128Y5331D01*
X4135Y5331D02*
X4186Y5331D01*
X4377Y5331D02*
X4427Y5331D01*
X4435Y5331D02*
X4486Y5331D01*
X4077Y5330D02*
X4185Y5330D01*
X4377Y5330D02*
X4485Y5330D01*
X4077Y5329D02*
X4185Y5329D01*
X4377Y5329D02*
X4485Y5329D01*
X4078Y5328D02*
X4184Y5328D01*
X4378Y5328D02*
X4484Y5328D01*
X4078Y5327D02*
X4184Y5327D01*
X4378Y5327D02*
X4484Y5327D01*
X4079Y5326D02*
X4183Y5326D01*
X4379Y5326D02*
X4483Y5326D01*
X4080Y5325D02*
X4183Y5325D01*
X4380Y5325D02*
X4483Y5325D01*
X4080Y5324D02*
X4182Y5324D01*
X4380Y5324D02*
X4482Y5324D01*
X4081Y5323D02*
X4181Y5323D01*
X4381Y5323D02*
X4481Y5323D01*
X4082Y5322D02*
X4181Y5322D01*
X4382Y5322D02*
X4481Y5322D01*
X4083Y5321D02*
X4180Y5321D01*
X4383Y5321D02*
X4480Y5321D01*
X4083Y5320D02*
X4179Y5320D01*
X4383Y5320D02*
X4479Y5320D01*
X4084Y5319D02*
X4178Y5319D01*
X4384Y5319D02*
X4478Y5319D01*
X4086Y5318D02*
X4177Y5318D01*
X4386Y5318D02*
X4477Y5318D01*
X4087Y5317D02*
X4175Y5317D01*
X4387Y5317D02*
X4475Y5317D01*
X4088Y5316D02*
X4174Y5316D01*
X4388Y5316D02*
X4474Y5316D01*
X4090Y5315D02*
X4172Y5315D01*
X4390Y5315D02*
X4472Y5315D01*
X4092Y5314D02*
X4171Y5314D01*
X4392Y5314D02*
X4471Y5314D01*
X4094Y5313D02*
X4168Y5313D01*
X4394Y5313D02*
X4468Y5313D01*
X4097Y5312D02*
X4166Y5312D01*
X4397Y5312D02*
X4466Y5312D01*
X4101Y5311D02*
X4161Y5311D01*
X4401Y5311D02*
X4461Y5311D01*
X4100Y5272D02*
X4162Y5272D01*
X4400Y5272D02*
X4462Y5272D01*
X4096Y5271D02*
X4166Y5271D01*
X4396Y5271D02*
X4466Y5271D01*
X4094Y5270D02*
X4169Y5270D01*
X4394Y5270D02*
X4469Y5270D01*
X4091Y5269D02*
X4171Y5269D01*
X4391Y5269D02*
X4471Y5269D01*
X4090Y5268D02*
X4173Y5268D01*
X4390Y5268D02*
X4473Y5268D01*
X4088Y5267D02*
X4174Y5267D01*
X4388Y5267D02*
X4474Y5267D01*
X4087Y5266D02*
X4176Y5266D01*
X4387Y5266D02*
X4476Y5266D01*
X4085Y5265D02*
X4177Y5265D01*
X4385Y5265D02*
X4477Y5265D01*
X4084Y5264D02*
X4178Y5264D01*
X4384Y5264D02*
X4478Y5264D01*
X4083Y5263D02*
X4179Y5263D01*
X4383Y5263D02*
X4479Y5263D01*
X4082Y5262D02*
X4180Y5262D01*
X4382Y5262D02*
X4480Y5262D01*
X4082Y5261D02*
X4181Y5261D01*
X4382Y5261D02*
X4481Y5261D01*
X4081Y5260D02*
X4182Y5260D01*
X4381Y5260D02*
X4481Y5260D01*
X4080Y5259D02*
X4182Y5259D01*
X4380Y5259D02*
X4482Y5259D01*
X4080Y5258D02*
X4183Y5258D01*
X4379Y5258D02*
X4483Y5258D01*
X4079Y5257D02*
X4183Y5257D01*
X4379Y5257D02*
X4483Y5257D01*
X4078Y5256D02*
X4184Y5256D01*
X4378Y5256D02*
X4484Y5256D01*
X4078Y5255D02*
X4184Y5255D01*
X4378Y5255D02*
X4484Y5255D01*
X4077Y5254D02*
X4185Y5254D01*
X4377Y5254D02*
X4485Y5254D01*
X4077Y5253D02*
X4185Y5253D01*
X4377Y5253D02*
X4485Y5253D01*
X4077Y5252D02*
X4127Y5252D01*
X4135Y5252D02*
X4186Y5252D01*
X4377Y5252D02*
X4427Y5252D01*
X4435Y5252D02*
X4486Y5252D01*
X4076Y5251D02*
X4125Y5251D01*
X4137Y5251D02*
X4186Y5251D01*
X4376Y5251D02*
X4425Y5251D01*
X4437Y5251D02*
X4486Y5251D01*
X4076Y5250D02*
X4124Y5250D01*
X4139Y5250D02*
X4186Y5250D01*
X4376Y5250D02*
X4424Y5250D01*
X4439Y5250D02*
X4486Y5250D01*
X4076Y5249D02*
X4123Y5249D01*
X4140Y5249D02*
X4187Y5249D01*
X4376Y5249D02*
X4423Y5249D01*
X4440Y5249D02*
X4487Y5249D01*
X4075Y5248D02*
X4122Y5248D01*
X4141Y5248D02*
X4187Y5248D01*
X4375Y5248D02*
X4422Y5248D01*
X4441Y5248D02*
X4487Y5248D01*
X4075Y5247D02*
X4121Y5247D01*
X4141Y5247D02*
X4187Y5247D01*
X4375Y5247D02*
X4421Y5247D01*
X4441Y5247D02*
X4487Y5247D01*
X4075Y5246D02*
X4121Y5246D01*
X4142Y5246D02*
X4187Y5246D01*
X4375Y5246D02*
X4421Y5246D01*
X4442Y5246D02*
X4487Y5246D01*
X4075Y5245D02*
X4120Y5245D01*
X4142Y5245D02*
X4187Y5245D01*
X4375Y5245D02*
X4420Y5245D01*
X4442Y5245D02*
X4487Y5245D01*
X4075Y5244D02*
X4120Y5244D01*
X4142Y5244D02*
X4188Y5244D01*
X4375Y5244D02*
X4420Y5244D01*
X4442Y5244D02*
X4488Y5244D01*
X4075Y5243D02*
X4120Y5243D01*
X4143Y5243D02*
X4188Y5243D01*
X4375Y5243D02*
X4420Y5243D01*
X4443Y5243D02*
X4488Y5243D01*
X4075Y5242D02*
X4120Y5242D01*
X4143Y5242D02*
X4188Y5242D01*
X4375Y5242D02*
X4420Y5242D01*
X4443Y5242D02*
X4488Y5242D01*
X4075Y5241D02*
X4120Y5241D01*
X4143Y5241D02*
X4188Y5241D01*
X4375Y5241D02*
X4420Y5241D01*
X4443Y5241D02*
X4488Y5241D01*
X4075Y5240D02*
X4120Y5240D01*
X4143Y5240D02*
X4188Y5240D01*
X4375Y5240D02*
X4420Y5240D01*
X4443Y5240D02*
X4488Y5240D01*
X4075Y5239D02*
X4120Y5239D01*
X4142Y5239D02*
X4188Y5239D01*
X4375Y5239D02*
X4420Y5239D01*
X4442Y5239D02*
X4488Y5239D01*
X4075Y5238D02*
X4120Y5238D01*
X4142Y5238D02*
X4187Y5238D01*
X4375Y5238D02*
X4420Y5238D01*
X4442Y5238D02*
X4487Y5238D01*
X4075Y5237D02*
X4121Y5237D01*
X4142Y5237D02*
X4187Y5237D01*
X4375Y5237D02*
X4421Y5237D01*
X4442Y5237D02*
X4487Y5237D01*
X4075Y5236D02*
X4121Y5236D01*
X4141Y5236D02*
X4187Y5236D01*
X4375Y5236D02*
X4421Y5236D01*
X4441Y5236D02*
X4487Y5236D01*
X4075Y5235D02*
X4122Y5235D01*
X4140Y5235D02*
X4187Y5235D01*
X4375Y5235D02*
X4422Y5235D01*
X4440Y5235D02*
X4487Y5235D01*
X4076Y5234D02*
X4123Y5234D01*
X4140Y5234D02*
X4187Y5234D01*
X4376Y5234D02*
X4423Y5234D01*
X4440Y5234D02*
X4487Y5234D01*
X4076Y5233D02*
X4124Y5233D01*
X4139Y5233D02*
X4186Y5233D01*
X4376Y5233D02*
X4424Y5233D01*
X4439Y5233D02*
X4486Y5233D01*
X4076Y5232D02*
X4125Y5232D01*
X4137Y5232D02*
X4186Y5232D01*
X4376Y5232D02*
X4425Y5232D01*
X4437Y5232D02*
X4486Y5232D01*
X4077Y5231D02*
X4128Y5231D01*
X4135Y5231D02*
X4186Y5231D01*
X4377Y5231D02*
X4427Y5231D01*
X4435Y5231D02*
X4486Y5231D01*
X4077Y5230D02*
X4185Y5230D01*
X4377Y5230D02*
X4485Y5230D01*
X4077Y5229D02*
X4185Y5229D01*
X4377Y5229D02*
X4485Y5229D01*
X4078Y5228D02*
X4184Y5228D01*
X4378Y5228D02*
X4484Y5228D01*
X4078Y5227D02*
X4184Y5227D01*
X4378Y5227D02*
X4484Y5227D01*
X4079Y5226D02*
X4183Y5226D01*
X4379Y5226D02*
X4483Y5226D01*
X4080Y5225D02*
X4183Y5225D01*
X4380Y5225D02*
X4483Y5225D01*
X4080Y5224D02*
X4182Y5224D01*
X4380Y5224D02*
X4482Y5224D01*
X4081Y5223D02*
X4181Y5223D01*
X4381Y5223D02*
X4481Y5223D01*
X4082Y5222D02*
X4181Y5222D01*
X4382Y5222D02*
X4481Y5222D01*
X4083Y5221D02*
X4180Y5221D01*
X4383Y5221D02*
X4480Y5221D01*
X4083Y5220D02*
X4179Y5220D01*
X4383Y5220D02*
X4479Y5220D01*
X4084Y5219D02*
X4178Y5219D01*
X4384Y5219D02*
X4478Y5219D01*
X4086Y5218D02*
X4177Y5218D01*
X4386Y5218D02*
X4477Y5218D01*
X4087Y5217D02*
X4175Y5217D01*
X4387Y5217D02*
X4475Y5217D01*
X4088Y5216D02*
X4174Y5216D01*
X4388Y5216D02*
X4474Y5216D01*
X4090Y5215D02*
X4172Y5215D01*
X4390Y5215D02*
X4472Y5215D01*
X4092Y5214D02*
X4171Y5214D01*
X4392Y5214D02*
X4471Y5214D01*
X4094Y5213D02*
X4168Y5213D01*
X4394Y5213D02*
X4468Y5213D01*
X4097Y5212D02*
X4166Y5212D01*
X4397Y5212D02*
X4466Y5212D01*
X4101Y5211D02*
X4161Y5211D01*
X4401Y5211D02*
X4461Y5211D01*
X4100Y5172D02*
X4162Y5172D01*
X4400Y5172D02*
X4462Y5172D01*
X4096Y5171D02*
X4166Y5171D01*
X4396Y5171D02*
X4466Y5171D01*
X4094Y5170D02*
X4169Y5170D01*
X4394Y5170D02*
X4469Y5170D01*
X4091Y5169D02*
X4171Y5169D01*
X4391Y5169D02*
X4471Y5169D01*
X4090Y5168D02*
X4173Y5168D01*
X4390Y5168D02*
X4473Y5168D01*
X4088Y5167D02*
X4174Y5167D01*
X4388Y5167D02*
X4474Y5167D01*
X4087Y5166D02*
X4176Y5166D01*
X4387Y5166D02*
X4476Y5166D01*
X4085Y5165D02*
X4177Y5165D01*
X4385Y5165D02*
X4477Y5165D01*
X4084Y5164D02*
X4178Y5164D01*
X4384Y5164D02*
X4478Y5164D01*
X4083Y5163D02*
X4179Y5163D01*
X4383Y5163D02*
X4479Y5163D01*
X4082Y5162D02*
X4180Y5162D01*
X4382Y5162D02*
X4480Y5162D01*
X4082Y5161D02*
X4181Y5161D01*
X4382Y5161D02*
X4481Y5161D01*
X4081Y5160D02*
X4182Y5160D01*
X4381Y5160D02*
X4481Y5160D01*
X4080Y5159D02*
X4182Y5159D01*
X4380Y5159D02*
X4482Y5159D01*
X4080Y5158D02*
X4183Y5158D01*
X4379Y5158D02*
X4483Y5158D01*
X4079Y5157D02*
X4183Y5157D01*
X4379Y5157D02*
X4483Y5157D01*
X4078Y5156D02*
X4184Y5156D01*
X4378Y5156D02*
X4484Y5156D01*
X4078Y5155D02*
X4184Y5155D01*
X4378Y5155D02*
X4484Y5155D01*
X4077Y5154D02*
X4185Y5154D01*
X4377Y5154D02*
X4485Y5154D01*
X4077Y5153D02*
X4185Y5153D01*
X4377Y5153D02*
X4485Y5153D01*
X4077Y5152D02*
X4127Y5152D01*
X4135Y5152D02*
X4186Y5152D01*
X4377Y5152D02*
X4427Y5152D01*
X4435Y5152D02*
X4486Y5152D01*
X4076Y5151D02*
X4125Y5151D01*
X4137Y5151D02*
X4186Y5151D01*
X4376Y5151D02*
X4425Y5151D01*
X4437Y5151D02*
X4486Y5151D01*
X4076Y5150D02*
X4124Y5150D01*
X4139Y5150D02*
X4186Y5150D01*
X4376Y5150D02*
X4424Y5150D01*
X4439Y5150D02*
X4486Y5150D01*
X4076Y5149D02*
X4123Y5149D01*
X4140Y5149D02*
X4187Y5149D01*
X4376Y5149D02*
X4423Y5149D01*
X4440Y5149D02*
X4487Y5149D01*
X4075Y5148D02*
X4122Y5148D01*
X4141Y5148D02*
X4187Y5148D01*
X4375Y5148D02*
X4422Y5148D01*
X4441Y5148D02*
X4487Y5148D01*
X4075Y5147D02*
X4121Y5147D01*
X4141Y5147D02*
X4187Y5147D01*
X4375Y5147D02*
X4421Y5147D01*
X4441Y5147D02*
X4487Y5147D01*
X4075Y5146D02*
X4121Y5146D01*
X4142Y5146D02*
X4187Y5146D01*
X4375Y5146D02*
X4421Y5146D01*
X4442Y5146D02*
X4487Y5146D01*
X4075Y5145D02*
X4120Y5145D01*
X4142Y5145D02*
X4187Y5145D01*
X4375Y5145D02*
X4420Y5145D01*
X4442Y5145D02*
X4487Y5145D01*
X4075Y5144D02*
X4120Y5144D01*
X4142Y5144D02*
X4188Y5144D01*
X4375Y5144D02*
X4420Y5144D01*
X4442Y5144D02*
X4488Y5144D01*
X4075Y5143D02*
X4120Y5143D01*
X4143Y5143D02*
X4188Y5143D01*
X4375Y5143D02*
X4420Y5143D01*
X4443Y5143D02*
X4488Y5143D01*
X4075Y5142D02*
X4120Y5142D01*
X4143Y5142D02*
X4188Y5142D01*
X4375Y5142D02*
X4420Y5142D01*
X4443Y5142D02*
X4488Y5142D01*
X4075Y5141D02*
X4120Y5141D01*
X4143Y5141D02*
X4188Y5141D01*
X4375Y5141D02*
X4420Y5141D01*
X4443Y5141D02*
X4488Y5141D01*
X4075Y5140D02*
X4120Y5140D01*
X4143Y5140D02*
X4188Y5140D01*
X4375Y5140D02*
X4420Y5140D01*
X4443Y5140D02*
X4488Y5140D01*
X4075Y5139D02*
X4120Y5139D01*
X4142Y5139D02*
X4188Y5139D01*
X4375Y5139D02*
X4420Y5139D01*
X4442Y5139D02*
X4488Y5139D01*
X4075Y5138D02*
X4120Y5138D01*
X4142Y5138D02*
X4187Y5138D01*
X4375Y5138D02*
X4420Y5138D01*
X4442Y5138D02*
X4487Y5138D01*
X4075Y5137D02*
X4121Y5137D01*
X4142Y5137D02*
X4187Y5137D01*
X4375Y5137D02*
X4421Y5137D01*
X4442Y5137D02*
X4487Y5137D01*
X4075Y5136D02*
X4121Y5136D01*
X4141Y5136D02*
X4187Y5136D01*
X4375Y5136D02*
X4421Y5136D01*
X4441Y5136D02*
X4487Y5136D01*
X4075Y5135D02*
X4122Y5135D01*
X4140Y5135D02*
X4187Y5135D01*
X4375Y5135D02*
X4422Y5135D01*
X4440Y5135D02*
X4487Y5135D01*
X4076Y5134D02*
X4123Y5134D01*
X4140Y5134D02*
X4187Y5134D01*
X4376Y5134D02*
X4423Y5134D01*
X4440Y5134D02*
X4487Y5134D01*
X4076Y5133D02*
X4124Y5133D01*
X4139Y5133D02*
X4186Y5133D01*
X4376Y5133D02*
X4424Y5133D01*
X4439Y5133D02*
X4486Y5133D01*
X4076Y5132D02*
X4125Y5132D01*
X4137Y5132D02*
X4186Y5132D01*
X4376Y5132D02*
X4425Y5132D01*
X4437Y5132D02*
X4486Y5132D01*
X4077Y5131D02*
X4128Y5131D01*
X4135Y5131D02*
X4186Y5131D01*
X4377Y5131D02*
X4427Y5131D01*
X4435Y5131D02*
X4486Y5131D01*
X4077Y5130D02*
X4185Y5130D01*
X4377Y5130D02*
X4485Y5130D01*
X4077Y5129D02*
X4185Y5129D01*
X4377Y5129D02*
X4485Y5129D01*
X4078Y5128D02*
X4184Y5128D01*
X4378Y5128D02*
X4484Y5128D01*
X4078Y5127D02*
X4184Y5127D01*
X4378Y5127D02*
X4484Y5127D01*
X4079Y5126D02*
X4183Y5126D01*
X4379Y5126D02*
X4483Y5126D01*
X4080Y5125D02*
X4183Y5125D01*
X4380Y5125D02*
X4483Y5125D01*
X4080Y5124D02*
X4182Y5124D01*
X4380Y5124D02*
X4482Y5124D01*
X4081Y5123D02*
X4181Y5123D01*
X4381Y5123D02*
X4481Y5123D01*
X4082Y5122D02*
X4181Y5122D01*
X4382Y5122D02*
X4481Y5122D01*
X4083Y5121D02*
X4180Y5121D01*
X4383Y5121D02*
X4480Y5121D01*
X4083Y5120D02*
X4179Y5120D01*
X4383Y5120D02*
X4479Y5120D01*
X4084Y5119D02*
X4178Y5119D01*
X4384Y5119D02*
X4478Y5119D01*
X4086Y5118D02*
X4177Y5118D01*
X4386Y5118D02*
X4477Y5118D01*
X4087Y5117D02*
X4175Y5117D01*
X4387Y5117D02*
X4475Y5117D01*
X4088Y5116D02*
X4174Y5116D01*
X4388Y5116D02*
X4474Y5116D01*
X4090Y5115D02*
X4172Y5115D01*
X4390Y5115D02*
X4472Y5115D01*
X4092Y5114D02*
X4171Y5114D01*
X4392Y5114D02*
X4471Y5114D01*
X4094Y5113D02*
X4168Y5113D01*
X4394Y5113D02*
X4468Y5113D01*
X4097Y5112D02*
X4166Y5112D01*
X4397Y5112D02*
X4466Y5112D01*
X4101Y5111D02*
X4161Y5111D01*
X4401Y5111D02*
X4461Y5111D01*
X4100Y4872D02*
X4162Y4872D01*
X4400Y4872D02*
X4462Y4872D01*
X4096Y4871D02*
X4166Y4871D01*
X4396Y4871D02*
X4466Y4871D01*
X4094Y4870D02*
X4169Y4870D01*
X4394Y4870D02*
X4469Y4870D01*
X4091Y4869D02*
X4171Y4869D01*
X4391Y4869D02*
X4471Y4869D01*
X4090Y4868D02*
X4173Y4868D01*
X4390Y4868D02*
X4473Y4868D01*
X4088Y4867D02*
X4174Y4867D01*
X4388Y4867D02*
X4474Y4867D01*
X4087Y4866D02*
X4176Y4866D01*
X4387Y4866D02*
X4476Y4866D01*
X4085Y4865D02*
X4177Y4865D01*
X4385Y4865D02*
X4477Y4865D01*
X4084Y4864D02*
X4178Y4864D01*
X4384Y4864D02*
X4478Y4864D01*
X4083Y4863D02*
X4179Y4863D01*
X4383Y4863D02*
X4479Y4863D01*
X4082Y4862D02*
X4180Y4862D01*
X4382Y4862D02*
X4480Y4862D01*
X4082Y4861D02*
X4181Y4861D01*
X4382Y4861D02*
X4481Y4861D01*
X4081Y4860D02*
X4182Y4860D01*
X4381Y4860D02*
X4481Y4860D01*
X4080Y4859D02*
X4182Y4859D01*
X4380Y4859D02*
X4482Y4859D01*
X4079Y4858D02*
X4183Y4858D01*
X4379Y4858D02*
X4483Y4858D01*
X4079Y4857D02*
X4183Y4857D01*
X4379Y4857D02*
X4483Y4857D01*
X4078Y4856D02*
X4184Y4856D01*
X4378Y4856D02*
X4484Y4856D01*
X4078Y4855D02*
X4184Y4855D01*
X4378Y4855D02*
X4484Y4855D01*
X4077Y4854D02*
X4185Y4854D01*
X4377Y4854D02*
X4485Y4854D01*
X4077Y4853D02*
X4185Y4853D01*
X4377Y4853D02*
X4485Y4853D01*
X4077Y4852D02*
X4127Y4852D01*
X4135Y4852D02*
X4186Y4852D01*
X4377Y4852D02*
X4427Y4852D01*
X4435Y4852D02*
X4486Y4852D01*
X4076Y4851D02*
X4125Y4851D01*
X4137Y4851D02*
X4186Y4851D01*
X4376Y4851D02*
X4425Y4851D01*
X4437Y4851D02*
X4486Y4851D01*
X4076Y4850D02*
X4124Y4850D01*
X4139Y4850D02*
X4186Y4850D01*
X4376Y4850D02*
X4424Y4850D01*
X4439Y4850D02*
X4486Y4850D01*
X4076Y4849D02*
X4123Y4849D01*
X4140Y4849D02*
X4187Y4849D01*
X4376Y4849D02*
X4423Y4849D01*
X4440Y4849D02*
X4487Y4849D01*
X4075Y4848D02*
X4122Y4848D01*
X4141Y4848D02*
X4187Y4848D01*
X4375Y4848D02*
X4422Y4848D01*
X4441Y4848D02*
X4487Y4848D01*
X4075Y4847D02*
X4121Y4847D01*
X4141Y4847D02*
X4187Y4847D01*
X4375Y4847D02*
X4421Y4847D01*
X4441Y4847D02*
X4487Y4847D01*
X4075Y4846D02*
X4121Y4846D01*
X4142Y4846D02*
X4187Y4846D01*
X4375Y4846D02*
X4421Y4846D01*
X4442Y4846D02*
X4487Y4846D01*
X4075Y4845D02*
X4120Y4845D01*
X4142Y4845D02*
X4187Y4845D01*
X4375Y4845D02*
X4420Y4845D01*
X4442Y4845D02*
X4487Y4845D01*
X4075Y4844D02*
X4120Y4844D01*
X4142Y4844D02*
X4188Y4844D01*
X4375Y4844D02*
X4420Y4844D01*
X4442Y4844D02*
X4488Y4844D01*
X4075Y4843D02*
X4120Y4843D01*
X4143Y4843D02*
X4188Y4843D01*
X4375Y4843D02*
X4420Y4843D01*
X4443Y4843D02*
X4488Y4843D01*
X4075Y4842D02*
X4120Y4842D01*
X4143Y4842D02*
X4188Y4842D01*
X4375Y4842D02*
X4420Y4842D01*
X4443Y4842D02*
X4488Y4842D01*
X4075Y4841D02*
X4120Y4841D01*
X4143Y4841D02*
X4188Y4841D01*
X4375Y4841D02*
X4420Y4841D01*
X4443Y4841D02*
X4488Y4841D01*
X4075Y4840D02*
X4120Y4840D01*
X4143Y4840D02*
X4188Y4840D01*
X4375Y4840D02*
X4420Y4840D01*
X4443Y4840D02*
X4488Y4840D01*
X4075Y4839D02*
X4120Y4839D01*
X4142Y4839D02*
X4188Y4839D01*
X4375Y4839D02*
X4420Y4839D01*
X4442Y4839D02*
X4488Y4839D01*
X4075Y4838D02*
X4120Y4838D01*
X4142Y4838D02*
X4187Y4838D01*
X4375Y4838D02*
X4420Y4838D01*
X4442Y4838D02*
X4487Y4838D01*
X4075Y4837D02*
X4121Y4837D01*
X4142Y4837D02*
X4187Y4837D01*
X4375Y4837D02*
X4421Y4837D01*
X4442Y4837D02*
X4487Y4837D01*
X4075Y4836D02*
X4121Y4836D01*
X4141Y4836D02*
X4187Y4836D01*
X4375Y4836D02*
X4421Y4836D01*
X4441Y4836D02*
X4487Y4836D01*
X4075Y4835D02*
X4122Y4835D01*
X4140Y4835D02*
X4187Y4835D01*
X4375Y4835D02*
X4422Y4835D01*
X4440Y4835D02*
X4487Y4835D01*
X4076Y4834D02*
X4123Y4834D01*
X4140Y4834D02*
X4187Y4834D01*
X4376Y4834D02*
X4423Y4834D01*
X4440Y4834D02*
X4487Y4834D01*
X4076Y4833D02*
X4124Y4833D01*
X4139Y4833D02*
X4186Y4833D01*
X4376Y4833D02*
X4424Y4833D01*
X4438Y4833D02*
X4486Y4833D01*
X4076Y4832D02*
X4125Y4832D01*
X4137Y4832D02*
X4186Y4832D01*
X4376Y4832D02*
X4425Y4832D01*
X4437Y4832D02*
X4486Y4832D01*
X4077Y4831D02*
X4128Y4831D01*
X4135Y4831D02*
X4186Y4831D01*
X4377Y4831D02*
X4428Y4831D01*
X4435Y4831D02*
X4486Y4831D01*
X4077Y4830D02*
X4185Y4830D01*
X4377Y4830D02*
X4485Y4830D01*
X4077Y4829D02*
X4185Y4829D01*
X4377Y4829D02*
X4485Y4829D01*
X4078Y4828D02*
X4184Y4828D01*
X4378Y4828D02*
X4484Y4828D01*
X4078Y4827D02*
X4184Y4827D01*
X4378Y4827D02*
X4484Y4827D01*
X4079Y4826D02*
X4183Y4826D01*
X4379Y4826D02*
X4483Y4826D01*
X4080Y4825D02*
X4183Y4825D01*
X4380Y4825D02*
X4483Y4825D01*
X4080Y4824D02*
X4182Y4824D01*
X4380Y4824D02*
X4482Y4824D01*
X4081Y4823D02*
X4181Y4823D01*
X4381Y4823D02*
X4481Y4823D01*
X4082Y4822D02*
X4181Y4822D01*
X4382Y4822D02*
X4481Y4822D01*
X4083Y4821D02*
X4180Y4821D01*
X4383Y4821D02*
X4480Y4821D01*
X4083Y4820D02*
X4179Y4820D01*
X4383Y4820D02*
X4479Y4820D01*
X4084Y4819D02*
X4178Y4819D01*
X4384Y4819D02*
X4478Y4819D01*
X4086Y4818D02*
X4177Y4818D01*
X4386Y4818D02*
X4477Y4818D01*
X4087Y4817D02*
X4175Y4817D01*
X4387Y4817D02*
X4475Y4817D01*
X4088Y4816D02*
X4174Y4816D01*
X4388Y4816D02*
X4474Y4816D01*
X4090Y4815D02*
X4172Y4815D01*
X4390Y4815D02*
X4472Y4815D01*
X4092Y4814D02*
X4171Y4814D01*
X4392Y4814D02*
X4471Y4814D01*
X4094Y4813D02*
X4168Y4813D01*
X4394Y4813D02*
X4468Y4813D01*
X4097Y4812D02*
X4166Y4812D01*
X4397Y4812D02*
X4466Y4812D01*
X4101Y4811D02*
X4161Y4811D01*
X4401Y4811D02*
X4461Y4811D01*
X4100Y4772D02*
X4162Y4772D01*
X4400Y4772D02*
X4462Y4772D01*
X4096Y4771D02*
X4166Y4771D01*
X4396Y4771D02*
X4466Y4771D01*
X4094Y4770D02*
X4169Y4770D01*
X4394Y4770D02*
X4469Y4770D01*
X4091Y4769D02*
X4171Y4769D01*
X4391Y4769D02*
X4471Y4769D01*
X4090Y4768D02*
X4173Y4768D01*
X4390Y4768D02*
X4473Y4768D01*
X4088Y4767D02*
X4174Y4767D01*
X4388Y4767D02*
X4474Y4767D01*
X4087Y4766D02*
X4176Y4766D01*
X4387Y4766D02*
X4476Y4766D01*
X4085Y4765D02*
X4177Y4765D01*
X4385Y4765D02*
X4477Y4765D01*
X4084Y4764D02*
X4178Y4764D01*
X4384Y4764D02*
X4478Y4764D01*
X4083Y4763D02*
X4179Y4763D01*
X4383Y4763D02*
X4479Y4763D01*
X4082Y4762D02*
X4180Y4762D01*
X4382Y4762D02*
X4480Y4762D01*
X4082Y4761D02*
X4181Y4761D01*
X4382Y4761D02*
X4481Y4761D01*
X4081Y4760D02*
X4182Y4760D01*
X4381Y4760D02*
X4482Y4760D01*
X4080Y4759D02*
X4182Y4759D01*
X4380Y4759D02*
X4482Y4759D01*
X4079Y4758D02*
X4183Y4758D01*
X4379Y4758D02*
X4483Y4758D01*
X4079Y4757D02*
X4183Y4757D01*
X4379Y4757D02*
X4483Y4757D01*
X4078Y4756D02*
X4184Y4756D01*
X4378Y4756D02*
X4484Y4756D01*
X4078Y4755D02*
X4184Y4755D01*
X4378Y4755D02*
X4484Y4755D01*
X4077Y4754D02*
X4185Y4754D01*
X4377Y4754D02*
X4485Y4754D01*
X4077Y4753D02*
X4185Y4753D01*
X4377Y4753D02*
X4485Y4753D01*
X4077Y4752D02*
X4127Y4752D01*
X4135Y4752D02*
X4186Y4752D01*
X4377Y4752D02*
X4427Y4752D01*
X4435Y4752D02*
X4486Y4752D01*
X4076Y4751D02*
X4125Y4751D01*
X4137Y4751D02*
X4186Y4751D01*
X4376Y4751D02*
X4425Y4751D01*
X4437Y4751D02*
X4486Y4751D01*
X4076Y4750D02*
X4124Y4750D01*
X4139Y4750D02*
X4186Y4750D01*
X4376Y4750D02*
X4424Y4750D01*
X4439Y4750D02*
X4486Y4750D01*
X4076Y4749D02*
X4123Y4749D01*
X4140Y4749D02*
X4187Y4749D01*
X4376Y4749D02*
X4423Y4749D01*
X4440Y4749D02*
X4487Y4749D01*
X4075Y4748D02*
X4122Y4748D01*
X4141Y4748D02*
X4187Y4748D01*
X4375Y4748D02*
X4422Y4748D01*
X4441Y4748D02*
X4487Y4748D01*
X4075Y4747D02*
X4121Y4747D01*
X4141Y4747D02*
X4187Y4747D01*
X4375Y4747D02*
X4421Y4747D01*
X4441Y4747D02*
X4487Y4747D01*
X4075Y4746D02*
X4121Y4746D01*
X4142Y4746D02*
X4187Y4746D01*
X4375Y4746D02*
X4421Y4746D01*
X4442Y4746D02*
X4487Y4746D01*
X4075Y4745D02*
X4120Y4745D01*
X4142Y4745D02*
X4187Y4745D01*
X4375Y4745D02*
X4420Y4745D01*
X4442Y4745D02*
X4487Y4745D01*
X4075Y4744D02*
X4120Y4744D01*
X4142Y4744D02*
X4188Y4744D01*
X4375Y4744D02*
X4420Y4744D01*
X4442Y4744D02*
X4488Y4744D01*
X4075Y4743D02*
X4120Y4743D01*
X4143Y4743D02*
X4188Y4743D01*
X4375Y4743D02*
X4420Y4743D01*
X4443Y4743D02*
X4488Y4743D01*
X4075Y4742D02*
X4120Y4742D01*
X4143Y4742D02*
X4188Y4742D01*
X4375Y4742D02*
X4420Y4742D01*
X4443Y4742D02*
X4488Y4742D01*
X4075Y4741D02*
X4120Y4741D01*
X4143Y4741D02*
X4188Y4741D01*
X4375Y4741D02*
X4420Y4741D01*
X4443Y4741D02*
X4488Y4741D01*
X4075Y4740D02*
X4120Y4740D01*
X4143Y4740D02*
X4188Y4740D01*
X4375Y4740D02*
X4420Y4740D01*
X4443Y4740D02*
X4488Y4740D01*
X4075Y4739D02*
X4120Y4739D01*
X4142Y4739D02*
X4188Y4739D01*
X4375Y4739D02*
X4420Y4739D01*
X4442Y4739D02*
X4488Y4739D01*
X4075Y4738D02*
X4120Y4738D01*
X4142Y4738D02*
X4187Y4738D01*
X4375Y4738D02*
X4420Y4738D01*
X4442Y4738D02*
X4487Y4738D01*
X4075Y4737D02*
X4121Y4737D01*
X4142Y4737D02*
X4187Y4737D01*
X4375Y4737D02*
X4421Y4737D01*
X4442Y4737D02*
X4487Y4737D01*
X4075Y4736D02*
X4121Y4736D01*
X4141Y4736D02*
X4187Y4736D01*
X4375Y4736D02*
X4421Y4736D01*
X4441Y4736D02*
X4487Y4736D01*
X4075Y4735D02*
X4122Y4735D01*
X4140Y4735D02*
X4187Y4735D01*
X4375Y4735D02*
X4422Y4735D01*
X4440Y4735D02*
X4487Y4735D01*
X4076Y4734D02*
X4123Y4734D01*
X4140Y4734D02*
X4187Y4734D01*
X4376Y4734D02*
X4423Y4734D01*
X4440Y4734D02*
X4487Y4734D01*
X4076Y4733D02*
X4124Y4733D01*
X4139Y4733D02*
X4186Y4733D01*
X4376Y4733D02*
X4424Y4733D01*
X4438Y4733D02*
X4486Y4733D01*
X4076Y4732D02*
X4125Y4732D01*
X4137Y4732D02*
X4186Y4732D01*
X4376Y4732D02*
X4425Y4732D01*
X4437Y4732D02*
X4486Y4732D01*
X4077Y4731D02*
X4128Y4731D01*
X4135Y4731D02*
X4186Y4731D01*
X4377Y4731D02*
X4428Y4731D01*
X4435Y4731D02*
X4486Y4731D01*
X4077Y4730D02*
X4185Y4730D01*
X4377Y4730D02*
X4485Y4730D01*
X4077Y4729D02*
X4185Y4729D01*
X4377Y4729D02*
X4485Y4729D01*
X4078Y4728D02*
X4184Y4728D01*
X4378Y4728D02*
X4484Y4728D01*
X4078Y4727D02*
X4184Y4727D01*
X4378Y4727D02*
X4484Y4727D01*
X4079Y4726D02*
X4183Y4726D01*
X4379Y4726D02*
X4483Y4726D01*
X4080Y4725D02*
X4183Y4725D01*
X4380Y4725D02*
X4483Y4725D01*
X4080Y4724D02*
X4182Y4724D01*
X4380Y4724D02*
X4482Y4724D01*
X4081Y4723D02*
X4181Y4723D01*
X4381Y4723D02*
X4481Y4723D01*
X4082Y4722D02*
X4181Y4722D01*
X4382Y4722D02*
X4481Y4722D01*
X4083Y4721D02*
X4180Y4721D01*
X4383Y4721D02*
X4480Y4721D01*
X4083Y4720D02*
X4179Y4720D01*
X4383Y4720D02*
X4479Y4720D01*
X4084Y4719D02*
X4178Y4719D01*
X4384Y4719D02*
X4478Y4719D01*
X4086Y4718D02*
X4177Y4718D01*
X4386Y4718D02*
X4477Y4718D01*
X4087Y4717D02*
X4175Y4717D01*
X4387Y4717D02*
X4475Y4717D01*
X4088Y4716D02*
X4174Y4716D01*
X4388Y4716D02*
X4474Y4716D01*
X4090Y4715D02*
X4172Y4715D01*
X4390Y4715D02*
X4472Y4715D01*
X4092Y4714D02*
X4171Y4714D01*
X4392Y4714D02*
X4471Y4714D01*
X4094Y4713D02*
X4168Y4713D01*
X4394Y4713D02*
X4468Y4713D01*
X4097Y4712D02*
X4166Y4712D01*
X4397Y4712D02*
X4466Y4712D01*
X4101Y4711D02*
X4161Y4711D01*
X4401Y4711D02*
X4461Y4711D01*
X4100Y4672D02*
X4162Y4672D01*
X4400Y4672D02*
X4462Y4672D01*
X4096Y4671D02*
X4166Y4671D01*
X4396Y4671D02*
X4466Y4671D01*
X4094Y4670D02*
X4169Y4670D01*
X4393Y4670D02*
X4469Y4670D01*
X4091Y4669D02*
X4171Y4669D01*
X4391Y4669D02*
X4471Y4669D01*
X4090Y4668D02*
X4173Y4668D01*
X4390Y4668D02*
X4473Y4668D01*
X4088Y4667D02*
X4174Y4667D01*
X4388Y4667D02*
X4474Y4667D01*
X4087Y4666D02*
X4176Y4666D01*
X4387Y4666D02*
X4476Y4666D01*
X4085Y4665D02*
X4177Y4665D01*
X4385Y4665D02*
X4477Y4665D01*
X4084Y4664D02*
X4178Y4664D01*
X4384Y4664D02*
X4478Y4664D01*
X4083Y4663D02*
X4179Y4663D01*
X4383Y4663D02*
X4479Y4663D01*
X4082Y4662D02*
X4180Y4662D01*
X4382Y4662D02*
X4480Y4662D01*
X4082Y4661D02*
X4181Y4661D01*
X4382Y4661D02*
X4481Y4661D01*
X4081Y4660D02*
X4182Y4660D01*
X4381Y4660D02*
X4482Y4660D01*
X4080Y4659D02*
X4182Y4659D01*
X4380Y4659D02*
X4482Y4659D01*
X4079Y4658D02*
X4183Y4658D01*
X4379Y4658D02*
X4483Y4658D01*
X4079Y4657D02*
X4183Y4657D01*
X4379Y4657D02*
X4483Y4657D01*
X4078Y4656D02*
X4184Y4656D01*
X4378Y4656D02*
X4484Y4656D01*
X4078Y4655D02*
X4184Y4655D01*
X4378Y4655D02*
X4484Y4655D01*
X4077Y4654D02*
X4185Y4654D01*
X4377Y4654D02*
X4485Y4654D01*
X4077Y4653D02*
X4185Y4653D01*
X4377Y4653D02*
X4485Y4653D01*
X4077Y4652D02*
X4127Y4652D01*
X4135Y4652D02*
X4186Y4652D01*
X4377Y4652D02*
X4427Y4652D01*
X4435Y4652D02*
X4486Y4652D01*
X4076Y4651D02*
X4125Y4651D01*
X4137Y4651D02*
X4186Y4651D01*
X4376Y4651D02*
X4425Y4651D01*
X4437Y4651D02*
X4486Y4651D01*
X4076Y4650D02*
X4124Y4650D01*
X4139Y4650D02*
X4186Y4650D01*
X4376Y4650D02*
X4424Y4650D01*
X4439Y4650D02*
X4486Y4650D01*
X4076Y4649D02*
X4123Y4649D01*
X4140Y4649D02*
X4187Y4649D01*
X4376Y4649D02*
X4423Y4649D01*
X4440Y4649D02*
X4487Y4649D01*
X4075Y4648D02*
X4122Y4648D01*
X4141Y4648D02*
X4187Y4648D01*
X4375Y4648D02*
X4422Y4648D01*
X4441Y4648D02*
X4487Y4648D01*
X4075Y4647D02*
X4121Y4647D01*
X4141Y4647D02*
X4187Y4647D01*
X4375Y4647D02*
X4421Y4647D01*
X4441Y4647D02*
X4487Y4647D01*
X4075Y4646D02*
X4121Y4646D01*
X4142Y4646D02*
X4187Y4646D01*
X4375Y4646D02*
X4421Y4646D01*
X4442Y4646D02*
X4487Y4646D01*
X4075Y4645D02*
X4120Y4645D01*
X4142Y4645D02*
X4187Y4645D01*
X4375Y4645D02*
X4420Y4645D01*
X4442Y4645D02*
X4487Y4645D01*
X4075Y4644D02*
X4120Y4644D01*
X4142Y4644D02*
X4188Y4644D01*
X4375Y4644D02*
X4420Y4644D01*
X4442Y4644D02*
X4488Y4644D01*
X4075Y4643D02*
X4120Y4643D01*
X4143Y4643D02*
X4188Y4643D01*
X4375Y4643D02*
X4420Y4643D01*
X4443Y4643D02*
X4488Y4643D01*
X4075Y4642D02*
X4120Y4642D01*
X4143Y4642D02*
X4188Y4642D01*
X4375Y4642D02*
X4420Y4642D01*
X4443Y4642D02*
X4488Y4642D01*
X4075Y4641D02*
X4120Y4641D01*
X4143Y4641D02*
X4188Y4641D01*
X4375Y4641D02*
X4420Y4641D01*
X4443Y4641D02*
X4488Y4641D01*
X4075Y4640D02*
X4120Y4640D01*
X4143Y4640D02*
X4188Y4640D01*
X4375Y4640D02*
X4420Y4640D01*
X4443Y4640D02*
X4488Y4640D01*
X4075Y4639D02*
X4120Y4639D01*
X4142Y4639D02*
X4188Y4639D01*
X4375Y4639D02*
X4420Y4639D01*
X4442Y4639D02*
X4488Y4639D01*
X4075Y4638D02*
X4120Y4638D01*
X4142Y4638D02*
X4187Y4638D01*
X4375Y4638D02*
X4420Y4638D01*
X4442Y4638D02*
X4487Y4638D01*
X4075Y4637D02*
X4121Y4637D01*
X4142Y4637D02*
X4187Y4637D01*
X4375Y4637D02*
X4421Y4637D01*
X4442Y4637D02*
X4487Y4637D01*
X4075Y4636D02*
X4121Y4636D01*
X4141Y4636D02*
X4187Y4636D01*
X4375Y4636D02*
X4421Y4636D01*
X4441Y4636D02*
X4487Y4636D01*
X4075Y4635D02*
X4122Y4635D01*
X4140Y4635D02*
X4187Y4635D01*
X4375Y4635D02*
X4422Y4635D01*
X4440Y4635D02*
X4487Y4635D01*
X4076Y4634D02*
X4123Y4634D01*
X4140Y4634D02*
X4187Y4634D01*
X4376Y4634D02*
X4423Y4634D01*
X4440Y4634D02*
X4487Y4634D01*
X4076Y4633D02*
X4124Y4633D01*
X4139Y4633D02*
X4186Y4633D01*
X4376Y4633D02*
X4424Y4633D01*
X4438Y4633D02*
X4486Y4633D01*
X4076Y4632D02*
X4125Y4632D01*
X4137Y4632D02*
X4186Y4632D01*
X4376Y4632D02*
X4425Y4632D01*
X4437Y4632D02*
X4486Y4632D01*
X4077Y4631D02*
X4128Y4631D01*
X4135Y4631D02*
X4186Y4631D01*
X4377Y4631D02*
X4428Y4631D01*
X4435Y4631D02*
X4486Y4631D01*
X4077Y4630D02*
X4185Y4630D01*
X4377Y4630D02*
X4485Y4630D01*
X4077Y4629D02*
X4185Y4629D01*
X4377Y4629D02*
X4485Y4629D01*
X4078Y4628D02*
X4184Y4628D01*
X4378Y4628D02*
X4484Y4628D01*
X4078Y4627D02*
X4184Y4627D01*
X4378Y4627D02*
X4484Y4627D01*
X4079Y4626D02*
X4183Y4626D01*
X4379Y4626D02*
X4483Y4626D01*
X4080Y4625D02*
X4183Y4625D01*
X4380Y4625D02*
X4483Y4625D01*
X4080Y4624D02*
X4182Y4624D01*
X4380Y4624D02*
X4482Y4624D01*
X4081Y4623D02*
X4181Y4623D01*
X4381Y4623D02*
X4481Y4623D01*
X4082Y4622D02*
X4181Y4622D01*
X4382Y4622D02*
X4481Y4622D01*
X4083Y4621D02*
X4180Y4621D01*
X4383Y4621D02*
X4480Y4621D01*
X4083Y4620D02*
X4179Y4620D01*
X4383Y4620D02*
X4479Y4620D01*
X4084Y4619D02*
X4178Y4619D01*
X4384Y4619D02*
X4478Y4619D01*
X4086Y4618D02*
X4177Y4618D01*
X4386Y4618D02*
X4477Y4618D01*
X4087Y4617D02*
X4175Y4617D01*
X4387Y4617D02*
X4475Y4617D01*
X4088Y4616D02*
X4174Y4616D01*
X4388Y4616D02*
X4474Y4616D01*
X4090Y4615D02*
X4172Y4615D01*
X4390Y4615D02*
X4472Y4615D01*
X4092Y4614D02*
X4171Y4614D01*
X4392Y4614D02*
X4471Y4614D01*
X4094Y4613D02*
X4168Y4613D01*
X4394Y4613D02*
X4468Y4613D01*
X4097Y4612D02*
X4166Y4612D01*
X4397Y4612D02*
X4466Y4612D01*
X4101Y4611D02*
X4161Y4611D01*
X4401Y4611D02*
X4461Y4611D01*
X4100Y4572D02*
X4162Y4572D01*
X4400Y4572D02*
X4462Y4572D01*
X4096Y4571D02*
X4166Y4571D01*
X4396Y4571D02*
X4466Y4571D01*
X4094Y4570D02*
X4169Y4570D01*
X4393Y4570D02*
X4469Y4570D01*
X4091Y4569D02*
X4171Y4569D01*
X4391Y4569D02*
X4471Y4569D01*
X4090Y4568D02*
X4173Y4568D01*
X4390Y4568D02*
X4473Y4568D01*
X4088Y4567D02*
X4174Y4567D01*
X4388Y4567D02*
X4474Y4567D01*
X4087Y4566D02*
X4176Y4566D01*
X4387Y4566D02*
X4476Y4566D01*
X4085Y4565D02*
X4177Y4565D01*
X4385Y4565D02*
X4477Y4565D01*
X4084Y4564D02*
X4178Y4564D01*
X4384Y4564D02*
X4478Y4564D01*
X4083Y4563D02*
X4179Y4563D01*
X4383Y4563D02*
X4479Y4563D01*
X4082Y4562D02*
X4180Y4562D01*
X4382Y4562D02*
X4480Y4562D01*
X4082Y4561D02*
X4181Y4561D01*
X4382Y4561D02*
X4481Y4561D01*
X4081Y4560D02*
X4182Y4560D01*
X4381Y4560D02*
X4482Y4560D01*
X4080Y4559D02*
X4182Y4559D01*
X4380Y4559D02*
X4482Y4559D01*
X4079Y4558D02*
X4183Y4558D01*
X4379Y4558D02*
X4483Y4558D01*
X4079Y4557D02*
X4183Y4557D01*
X4379Y4557D02*
X4483Y4557D01*
X4078Y4556D02*
X4184Y4556D01*
X4378Y4556D02*
X4484Y4556D01*
X4078Y4555D02*
X4184Y4555D01*
X4378Y4555D02*
X4484Y4555D01*
X4077Y4554D02*
X4185Y4554D01*
X4377Y4554D02*
X4485Y4554D01*
X4077Y4553D02*
X4185Y4553D01*
X4377Y4553D02*
X4485Y4553D01*
X4077Y4552D02*
X4127Y4552D01*
X4135Y4552D02*
X4186Y4552D01*
X4377Y4552D02*
X4427Y4552D01*
X4435Y4552D02*
X4486Y4552D01*
X4076Y4551D02*
X4125Y4551D01*
X4137Y4551D02*
X4186Y4551D01*
X4376Y4551D02*
X4425Y4551D01*
X4437Y4551D02*
X4486Y4551D01*
X4076Y4550D02*
X4124Y4550D01*
X4139Y4550D02*
X4186Y4550D01*
X4376Y4550D02*
X4424Y4550D01*
X4439Y4550D02*
X4486Y4550D01*
X4076Y4549D02*
X4123Y4549D01*
X4140Y4549D02*
X4187Y4549D01*
X4376Y4549D02*
X4423Y4549D01*
X4440Y4549D02*
X4487Y4549D01*
X4075Y4548D02*
X4122Y4548D01*
X4141Y4548D02*
X4187Y4548D01*
X4375Y4548D02*
X4422Y4548D01*
X4441Y4548D02*
X4487Y4548D01*
X4075Y4547D02*
X4121Y4547D01*
X4141Y4547D02*
X4187Y4547D01*
X4375Y4547D02*
X4421Y4547D01*
X4441Y4547D02*
X4487Y4547D01*
X4075Y4546D02*
X4121Y4546D01*
X4142Y4546D02*
X4187Y4546D01*
X4375Y4546D02*
X4420Y4546D01*
X4442Y4546D02*
X4487Y4546D01*
X4075Y4545D02*
X4120Y4545D01*
X4142Y4545D02*
X4187Y4545D01*
X4375Y4545D02*
X4420Y4545D01*
X4442Y4545D02*
X4487Y4545D01*
X4075Y4544D02*
X4120Y4544D01*
X4142Y4544D02*
X4188Y4544D01*
X4375Y4544D02*
X4420Y4544D01*
X4442Y4544D02*
X4488Y4544D01*
X4075Y4543D02*
X4120Y4543D01*
X4143Y4543D02*
X4188Y4543D01*
X4375Y4543D02*
X4420Y4543D01*
X4443Y4543D02*
X4488Y4543D01*
X4075Y4542D02*
X4120Y4542D01*
X4143Y4542D02*
X4188Y4542D01*
X4375Y4542D02*
X4420Y4542D01*
X4443Y4542D02*
X4488Y4542D01*
X4075Y4541D02*
X4120Y4541D01*
X4143Y4541D02*
X4188Y4541D01*
X4375Y4541D02*
X4420Y4541D01*
X4443Y4541D02*
X4488Y4541D01*
X4075Y4540D02*
X4120Y4540D01*
X4143Y4540D02*
X4188Y4540D01*
X4375Y4540D02*
X4420Y4540D01*
X4443Y4540D02*
X4488Y4540D01*
X4075Y4539D02*
X4120Y4539D01*
X4142Y4539D02*
X4188Y4539D01*
X4375Y4539D02*
X4420Y4539D01*
X4442Y4539D02*
X4488Y4539D01*
X4075Y4538D02*
X4120Y4538D01*
X4142Y4538D02*
X4187Y4538D01*
X4375Y4538D02*
X4420Y4538D01*
X4442Y4538D02*
X4487Y4538D01*
X4075Y4537D02*
X4121Y4537D01*
X4142Y4537D02*
X4187Y4537D01*
X4375Y4537D02*
X4421Y4537D01*
X4442Y4537D02*
X4487Y4537D01*
X4075Y4536D02*
X4121Y4536D01*
X4141Y4536D02*
X4187Y4536D01*
X4375Y4536D02*
X4421Y4536D01*
X4441Y4536D02*
X4487Y4536D01*
X4075Y4535D02*
X4122Y4535D01*
X4140Y4535D02*
X4187Y4535D01*
X4375Y4535D02*
X4422Y4535D01*
X4440Y4535D02*
X4487Y4535D01*
X4076Y4534D02*
X4123Y4534D01*
X4140Y4534D02*
X4187Y4534D01*
X4376Y4534D02*
X4423Y4534D01*
X4440Y4534D02*
X4487Y4534D01*
X4076Y4533D02*
X4124Y4533D01*
X4138Y4533D02*
X4186Y4533D01*
X4376Y4533D02*
X4424Y4533D01*
X4438Y4533D02*
X4486Y4533D01*
X4076Y4532D02*
X4125Y4532D01*
X4137Y4532D02*
X4186Y4532D01*
X4376Y4532D02*
X4425Y4532D01*
X4437Y4532D02*
X4486Y4532D01*
X4077Y4531D02*
X4128Y4531D01*
X4135Y4531D02*
X4186Y4531D01*
X4377Y4531D02*
X4428Y4531D01*
X4435Y4531D02*
X4486Y4531D01*
X4077Y4530D02*
X4185Y4530D01*
X4377Y4530D02*
X4485Y4530D01*
X4077Y4529D02*
X4185Y4529D01*
X4377Y4529D02*
X4485Y4529D01*
X4078Y4528D02*
X4184Y4528D01*
X4378Y4528D02*
X4484Y4528D01*
X4078Y4527D02*
X4184Y4527D01*
X4378Y4527D02*
X4484Y4527D01*
X4079Y4526D02*
X4183Y4526D01*
X4379Y4526D02*
X4483Y4526D01*
X4080Y4525D02*
X4183Y4525D01*
X4380Y4525D02*
X4483Y4525D01*
X4080Y4524D02*
X4182Y4524D01*
X4380Y4524D02*
X4482Y4524D01*
X4081Y4523D02*
X4181Y4523D01*
X4381Y4523D02*
X4481Y4523D01*
X4082Y4522D02*
X4181Y4522D01*
X4382Y4522D02*
X4481Y4522D01*
X4083Y4521D02*
X4180Y4521D01*
X4383Y4521D02*
X4480Y4521D01*
X4083Y4520D02*
X4179Y4520D01*
X4383Y4520D02*
X4479Y4520D01*
X4084Y4519D02*
X4178Y4519D01*
X4384Y4519D02*
X4478Y4519D01*
X4086Y4518D02*
X4177Y4518D01*
X4386Y4518D02*
X4477Y4518D01*
X4087Y4517D02*
X4175Y4517D01*
X4387Y4517D02*
X4475Y4517D01*
X4088Y4516D02*
X4174Y4516D01*
X4388Y4516D02*
X4474Y4516D01*
X4090Y4515D02*
X4172Y4515D01*
X4390Y4515D02*
X4472Y4515D01*
X4092Y4514D02*
X4171Y4514D01*
X4392Y4514D02*
X4471Y4514D01*
X4094Y4513D02*
X4168Y4513D01*
X4394Y4513D02*
X4468Y4513D01*
X4097Y4512D02*
X4166Y4512D01*
X4397Y4512D02*
X4466Y4512D01*
X4101Y4511D02*
X4161Y4511D01*
X4401Y4511D02*
X4461Y4511D01*
X4100Y4472D02*
X4162Y4472D01*
X4400Y4472D02*
X4462Y4472D01*
X4096Y4471D02*
X4166Y4471D01*
X4396Y4471D02*
X4466Y4471D01*
X4094Y4470D02*
X4169Y4470D01*
X4393Y4470D02*
X4469Y4470D01*
X4091Y4469D02*
X4171Y4469D01*
X4391Y4469D02*
X4471Y4469D01*
X4090Y4468D02*
X4173Y4468D01*
X4390Y4468D02*
X4473Y4468D01*
X4088Y4467D02*
X4174Y4467D01*
X4388Y4467D02*
X4474Y4467D01*
X4087Y4466D02*
X4176Y4466D01*
X4387Y4466D02*
X4476Y4466D01*
X4085Y4465D02*
X4177Y4465D01*
X4385Y4465D02*
X4477Y4465D01*
X4084Y4464D02*
X4178Y4464D01*
X4384Y4464D02*
X4478Y4464D01*
X4083Y4463D02*
X4179Y4463D01*
X4383Y4463D02*
X4479Y4463D01*
X4082Y4462D02*
X4180Y4462D01*
X4382Y4462D02*
X4480Y4462D01*
X4082Y4461D02*
X4181Y4461D01*
X4382Y4461D02*
X4481Y4461D01*
X4081Y4460D02*
X4182Y4460D01*
X4381Y4460D02*
X4482Y4460D01*
X4080Y4459D02*
X4182Y4459D01*
X4380Y4459D02*
X4482Y4459D01*
X4079Y4458D02*
X4183Y4458D01*
X4379Y4458D02*
X4483Y4458D01*
X4079Y4457D02*
X4183Y4457D01*
X4379Y4457D02*
X4483Y4457D01*
X4078Y4456D02*
X4184Y4456D01*
X4378Y4456D02*
X4484Y4456D01*
X4078Y4455D02*
X4184Y4455D01*
X4378Y4455D02*
X4484Y4455D01*
X4077Y4454D02*
X4185Y4454D01*
X4377Y4454D02*
X4485Y4454D01*
X4077Y4453D02*
X4185Y4453D01*
X4377Y4453D02*
X4485Y4453D01*
X4077Y4452D02*
X4127Y4452D01*
X4135Y4452D02*
X4186Y4452D01*
X4377Y4452D02*
X4427Y4452D01*
X4435Y4452D02*
X4486Y4452D01*
X4076Y4451D02*
X4125Y4451D01*
X4137Y4451D02*
X4186Y4451D01*
X4376Y4451D02*
X4425Y4451D01*
X4437Y4451D02*
X4486Y4451D01*
X4076Y4450D02*
X4124Y4450D01*
X4139Y4450D02*
X4186Y4450D01*
X4376Y4450D02*
X4424Y4450D01*
X4439Y4450D02*
X4486Y4450D01*
X4076Y4449D02*
X4123Y4449D01*
X4140Y4449D02*
X4187Y4449D01*
X4376Y4449D02*
X4423Y4449D01*
X4440Y4449D02*
X4487Y4449D01*
X4075Y4448D02*
X4122Y4448D01*
X4141Y4448D02*
X4187Y4448D01*
X4375Y4448D02*
X4422Y4448D01*
X4441Y4448D02*
X4487Y4448D01*
X4075Y4447D02*
X4121Y4447D01*
X4141Y4447D02*
X4187Y4447D01*
X4375Y4447D02*
X4421Y4447D01*
X4441Y4447D02*
X4487Y4447D01*
X4075Y4446D02*
X4121Y4446D01*
X4142Y4446D02*
X4187Y4446D01*
X4375Y4446D02*
X4420Y4446D01*
X4442Y4446D02*
X4487Y4446D01*
X4075Y4445D02*
X4120Y4445D01*
X4142Y4445D02*
X4187Y4445D01*
X4375Y4445D02*
X4420Y4445D01*
X4442Y4445D02*
X4487Y4445D01*
X4075Y4444D02*
X4120Y4444D01*
X4142Y4444D02*
X4188Y4444D01*
X4375Y4444D02*
X4420Y4444D01*
X4442Y4444D02*
X4488Y4444D01*
X4075Y4443D02*
X4120Y4443D01*
X4143Y4443D02*
X4188Y4443D01*
X4375Y4443D02*
X4420Y4443D01*
X4443Y4443D02*
X4488Y4443D01*
X4075Y4442D02*
X4120Y4442D01*
X4143Y4442D02*
X4188Y4442D01*
X4375Y4442D02*
X4420Y4442D01*
X4443Y4442D02*
X4488Y4442D01*
X4075Y4441D02*
X4120Y4441D01*
X4143Y4441D02*
X4188Y4441D01*
X4375Y4441D02*
X4420Y4441D01*
X4443Y4441D02*
X4488Y4441D01*
X4075Y4440D02*
X4120Y4440D01*
X4143Y4440D02*
X4188Y4440D01*
X4375Y4440D02*
X4420Y4440D01*
X4443Y4440D02*
X4488Y4440D01*
X4075Y4439D02*
X4120Y4439D01*
X4142Y4439D02*
X4188Y4439D01*
X4375Y4439D02*
X4420Y4439D01*
X4442Y4439D02*
X4488Y4439D01*
X4075Y4438D02*
X4120Y4438D01*
X4142Y4438D02*
X4187Y4438D01*
X4375Y4438D02*
X4420Y4438D01*
X4442Y4438D02*
X4487Y4438D01*
X4075Y4437D02*
X4121Y4437D01*
X4142Y4437D02*
X4187Y4437D01*
X4375Y4437D02*
X4421Y4437D01*
X4442Y4437D02*
X4487Y4437D01*
X4075Y4436D02*
X4121Y4436D01*
X4141Y4436D02*
X4187Y4436D01*
X4375Y4436D02*
X4421Y4436D01*
X4441Y4436D02*
X4487Y4436D01*
X4075Y4435D02*
X4122Y4435D01*
X4140Y4435D02*
X4187Y4435D01*
X4375Y4435D02*
X4422Y4435D01*
X4440Y4435D02*
X4487Y4435D01*
X4076Y4434D02*
X4123Y4434D01*
X4140Y4434D02*
X4187Y4434D01*
X4376Y4434D02*
X4423Y4434D01*
X4440Y4434D02*
X4487Y4434D01*
X4076Y4433D02*
X4124Y4433D01*
X4138Y4433D02*
X4186Y4433D01*
X4376Y4433D02*
X4424Y4433D01*
X4438Y4433D02*
X4486Y4433D01*
X4076Y4432D02*
X4125Y4432D01*
X4137Y4432D02*
X4186Y4432D01*
X4376Y4432D02*
X4425Y4432D01*
X4437Y4432D02*
X4486Y4432D01*
X4077Y4431D02*
X4128Y4431D01*
X4135Y4431D02*
X4186Y4431D01*
X4377Y4431D02*
X4428Y4431D01*
X4435Y4431D02*
X4486Y4431D01*
X4077Y4430D02*
X4185Y4430D01*
X4377Y4430D02*
X4485Y4430D01*
X4077Y4429D02*
X4185Y4429D01*
X4377Y4429D02*
X4485Y4429D01*
X4078Y4428D02*
X4184Y4428D01*
X4378Y4428D02*
X4484Y4428D01*
X4078Y4427D02*
X4184Y4427D01*
X4378Y4427D02*
X4484Y4427D01*
X4079Y4426D02*
X4183Y4426D01*
X4379Y4426D02*
X4483Y4426D01*
X4080Y4425D02*
X4183Y4425D01*
X4380Y4425D02*
X4483Y4425D01*
X4080Y4424D02*
X4182Y4424D01*
X4380Y4424D02*
X4482Y4424D01*
X4081Y4423D02*
X4181Y4423D01*
X4381Y4423D02*
X4481Y4423D01*
X4082Y4422D02*
X4181Y4422D01*
X4382Y4422D02*
X4481Y4422D01*
X4083Y4421D02*
X4180Y4421D01*
X4383Y4421D02*
X4480Y4421D01*
X4083Y4420D02*
X4179Y4420D01*
X4383Y4420D02*
X4479Y4420D01*
X4085Y4419D02*
X4178Y4419D01*
X4384Y4419D02*
X4478Y4419D01*
X4086Y4418D02*
X4177Y4418D01*
X4386Y4418D02*
X4477Y4418D01*
X4087Y4417D02*
X4175Y4417D01*
X4387Y4417D02*
X4475Y4417D01*
X4088Y4416D02*
X4174Y4416D01*
X4388Y4416D02*
X4474Y4416D01*
X4090Y4415D02*
X4172Y4415D01*
X4390Y4415D02*
X4472Y4415D01*
X4092Y4414D02*
X4171Y4414D01*
X4392Y4414D02*
X4471Y4414D01*
X4094Y4413D02*
X4168Y4413D01*
X4394Y4413D02*
X4468Y4413D01*
X4097Y4412D02*
X4166Y4412D01*
X4397Y4412D02*
X4466Y4412D01*
X4101Y4411D02*
X4161Y4411D01*
X4401Y4411D02*
X4461Y4411D01*
X4100Y4372D02*
X4162Y4372D01*
X4400Y4372D02*
X4462Y4372D01*
X4096Y4371D02*
X4166Y4371D01*
X4396Y4371D02*
X4466Y4371D01*
X4093Y4370D02*
X4169Y4370D01*
X4393Y4370D02*
X4469Y4370D01*
X4091Y4369D02*
X4171Y4369D01*
X4391Y4369D02*
X4471Y4369D01*
X4090Y4368D02*
X4173Y4368D01*
X4390Y4368D02*
X4473Y4368D01*
X4088Y4367D02*
X4174Y4367D01*
X4388Y4367D02*
X4474Y4367D01*
X4087Y4366D02*
X4176Y4366D01*
X4387Y4366D02*
X4476Y4366D01*
X4085Y4365D02*
X4177Y4365D01*
X4385Y4365D02*
X4477Y4365D01*
X4084Y4364D02*
X4178Y4364D01*
X4384Y4364D02*
X4478Y4364D01*
X4083Y4363D02*
X4179Y4363D01*
X4383Y4363D02*
X4479Y4363D01*
X4082Y4362D02*
X4180Y4362D01*
X4382Y4362D02*
X4480Y4362D01*
X4082Y4361D02*
X4181Y4361D01*
X4382Y4361D02*
X4481Y4361D01*
X4081Y4360D02*
X4182Y4360D01*
X4381Y4360D02*
X4482Y4360D01*
X4080Y4359D02*
X4182Y4359D01*
X4380Y4359D02*
X4482Y4359D01*
X4079Y4358D02*
X4183Y4358D01*
X4379Y4358D02*
X4483Y4358D01*
X4079Y4357D02*
X4183Y4357D01*
X4379Y4357D02*
X4483Y4357D01*
X4078Y4356D02*
X4184Y4356D01*
X4378Y4356D02*
X4484Y4356D01*
X4078Y4355D02*
X4184Y4355D01*
X4378Y4355D02*
X4484Y4355D01*
X4077Y4354D02*
X4185Y4354D01*
X4377Y4354D02*
X4485Y4354D01*
X4077Y4353D02*
X4185Y4353D01*
X4377Y4353D02*
X4485Y4353D01*
X4077Y4352D02*
X4127Y4352D01*
X4135Y4352D02*
X4186Y4352D01*
X4377Y4352D02*
X4427Y4352D01*
X4435Y4352D02*
X4486Y4352D01*
X4076Y4351D02*
X4125Y4351D01*
X4137Y4351D02*
X4186Y4351D01*
X4376Y4351D02*
X4425Y4351D01*
X4437Y4351D02*
X4486Y4351D01*
X4076Y4350D02*
X4124Y4350D01*
X4139Y4350D02*
X4186Y4350D01*
X4376Y4350D02*
X4424Y4350D01*
X4439Y4350D02*
X4486Y4350D01*
X4076Y4349D02*
X4123Y4349D01*
X4140Y4349D02*
X4187Y4349D01*
X4376Y4349D02*
X4423Y4349D01*
X4440Y4349D02*
X4487Y4349D01*
X4075Y4348D02*
X4122Y4348D01*
X4141Y4348D02*
X4187Y4348D01*
X4375Y4348D02*
X4422Y4348D01*
X4441Y4348D02*
X4487Y4348D01*
X4075Y4347D02*
X4121Y4347D01*
X4141Y4347D02*
X4187Y4347D01*
X4375Y4347D02*
X4421Y4347D01*
X4441Y4347D02*
X4487Y4347D01*
X4075Y4346D02*
X4121Y4346D01*
X4142Y4346D02*
X4187Y4346D01*
X4375Y4346D02*
X4420Y4346D01*
X4442Y4346D02*
X4487Y4346D01*
X4075Y4345D02*
X4120Y4345D01*
X4142Y4345D02*
X4187Y4345D01*
X4375Y4345D02*
X4420Y4345D01*
X4442Y4345D02*
X4487Y4345D01*
X4075Y4344D02*
X4120Y4344D01*
X4142Y4344D02*
X4188Y4344D01*
X4375Y4344D02*
X4420Y4344D01*
X4442Y4344D02*
X4488Y4344D01*
X4075Y4343D02*
X4120Y4343D01*
X4143Y4343D02*
X4188Y4343D01*
X4375Y4343D02*
X4420Y4343D01*
X4443Y4343D02*
X4488Y4343D01*
X4075Y4342D02*
X4120Y4342D01*
X4143Y4342D02*
X4188Y4342D01*
X4375Y4342D02*
X4420Y4342D01*
X4443Y4342D02*
X4488Y4342D01*
X4075Y4341D02*
X4120Y4341D01*
X4143Y4341D02*
X4188Y4341D01*
X4375Y4341D02*
X4420Y4341D01*
X4443Y4341D02*
X4488Y4341D01*
X4075Y4340D02*
X4120Y4340D01*
X4143Y4340D02*
X4188Y4340D01*
X4375Y4340D02*
X4420Y4340D01*
X4443Y4340D02*
X4488Y4340D01*
X4075Y4339D02*
X4120Y4339D01*
X4142Y4339D02*
X4188Y4339D01*
X4375Y4339D02*
X4420Y4339D01*
X4442Y4339D02*
X4488Y4339D01*
X4075Y4338D02*
X4120Y4338D01*
X4142Y4338D02*
X4187Y4338D01*
X4375Y4338D02*
X4420Y4338D01*
X4442Y4338D02*
X4487Y4338D01*
X4075Y4337D02*
X4121Y4337D01*
X4142Y4337D02*
X4187Y4337D01*
X4375Y4337D02*
X4421Y4337D01*
X4442Y4337D02*
X4487Y4337D01*
X4075Y4336D02*
X4121Y4336D01*
X4141Y4336D02*
X4187Y4336D01*
X4375Y4336D02*
X4421Y4336D01*
X4441Y4336D02*
X4487Y4336D01*
X4075Y4335D02*
X4122Y4335D01*
X4140Y4335D02*
X4187Y4335D01*
X4375Y4335D02*
X4422Y4335D01*
X4440Y4335D02*
X4487Y4335D01*
X4076Y4334D02*
X4123Y4334D01*
X4140Y4334D02*
X4187Y4334D01*
X4376Y4334D02*
X4423Y4334D01*
X4440Y4334D02*
X4487Y4334D01*
X4076Y4333D02*
X4124Y4333D01*
X4138Y4333D02*
X4186Y4333D01*
X4376Y4333D02*
X4424Y4333D01*
X4438Y4333D02*
X4486Y4333D01*
X4076Y4332D02*
X4125Y4332D01*
X4137Y4332D02*
X4186Y4332D01*
X4376Y4332D02*
X4425Y4332D01*
X4437Y4332D02*
X4486Y4332D01*
X4077Y4331D02*
X4128Y4331D01*
X4135Y4331D02*
X4186Y4331D01*
X4377Y4331D02*
X4428Y4331D01*
X4435Y4331D02*
X4486Y4331D01*
X4077Y4330D02*
X4185Y4330D01*
X4377Y4330D02*
X4485Y4330D01*
X4077Y4329D02*
X4185Y4329D01*
X4377Y4329D02*
X4485Y4329D01*
X4078Y4328D02*
X4184Y4328D01*
X4378Y4328D02*
X4484Y4328D01*
X4078Y4327D02*
X4184Y4327D01*
X4378Y4327D02*
X4484Y4327D01*
X4079Y4326D02*
X4183Y4326D01*
X4379Y4326D02*
X4483Y4326D01*
X4080Y4325D02*
X4183Y4325D01*
X4380Y4325D02*
X4483Y4325D01*
X4080Y4324D02*
X4182Y4324D01*
X4380Y4324D02*
X4482Y4324D01*
X4081Y4323D02*
X4181Y4323D01*
X4381Y4323D02*
X4481Y4323D01*
X4082Y4322D02*
X4181Y4322D01*
X4382Y4322D02*
X4481Y4322D01*
X4083Y4321D02*
X4180Y4321D01*
X4383Y4321D02*
X4480Y4321D01*
X4083Y4320D02*
X4179Y4320D01*
X4383Y4320D02*
X4479Y4320D01*
X4085Y4319D02*
X4178Y4319D01*
X4384Y4319D02*
X4478Y4319D01*
X4086Y4318D02*
X4177Y4318D01*
X4386Y4318D02*
X4477Y4318D01*
X4087Y4317D02*
X4175Y4317D01*
X4387Y4317D02*
X4475Y4317D01*
X4088Y4316D02*
X4174Y4316D01*
X4388Y4316D02*
X4474Y4316D01*
X4090Y4315D02*
X4172Y4315D01*
X4390Y4315D02*
X4472Y4315D01*
X4092Y4314D02*
X4170Y4314D01*
X4392Y4314D02*
X4470Y4314D01*
X4094Y4313D02*
X4168Y4313D01*
X4394Y4313D02*
X4468Y4313D01*
X4097Y4312D02*
X4166Y4312D01*
X4397Y4312D02*
X4466Y4312D01*
X4101Y4311D02*
X4161Y4311D01*
X4401Y4311D02*
X4461Y4311D01*
X4100Y4272D02*
X4162Y4272D01*
X4400Y4272D02*
X4462Y4272D01*
X4096Y4271D02*
X4166Y4271D01*
X4396Y4271D02*
X4466Y4271D01*
X4093Y4270D02*
X4169Y4270D01*
X4393Y4270D02*
X4469Y4270D01*
X4091Y4269D02*
X4171Y4269D01*
X4391Y4269D02*
X4471Y4269D01*
X4090Y4268D02*
X4173Y4268D01*
X4390Y4268D02*
X4473Y4268D01*
X4088Y4267D02*
X4174Y4267D01*
X4388Y4267D02*
X4474Y4267D01*
X4087Y4266D02*
X4176Y4266D01*
X4387Y4266D02*
X4476Y4266D01*
X4085Y4265D02*
X4177Y4265D01*
X4385Y4265D02*
X4477Y4265D01*
X4084Y4264D02*
X4178Y4264D01*
X4384Y4264D02*
X4478Y4264D01*
X4083Y4263D02*
X4179Y4263D01*
X4383Y4263D02*
X4479Y4263D01*
X4082Y4262D02*
X4180Y4262D01*
X4382Y4262D02*
X4480Y4262D01*
X4082Y4261D02*
X4181Y4261D01*
X4382Y4261D02*
X4481Y4261D01*
X4081Y4260D02*
X4182Y4260D01*
X4381Y4260D02*
X4482Y4260D01*
X4080Y4259D02*
X4182Y4259D01*
X4380Y4259D02*
X4482Y4259D01*
X4079Y4258D02*
X4183Y4258D01*
X4379Y4258D02*
X4483Y4258D01*
X4079Y4257D02*
X4183Y4257D01*
X4379Y4257D02*
X4483Y4257D01*
X4078Y4256D02*
X4184Y4256D01*
X4378Y4256D02*
X4484Y4256D01*
X4078Y4255D02*
X4184Y4255D01*
X4378Y4255D02*
X4484Y4255D01*
X4077Y4254D02*
X4185Y4254D01*
X4377Y4254D02*
X4485Y4254D01*
X4077Y4253D02*
X4185Y4253D01*
X4377Y4253D02*
X4485Y4253D01*
X4077Y4252D02*
X4127Y4252D01*
X4135Y4252D02*
X4186Y4252D01*
X4377Y4252D02*
X4427Y4252D01*
X4435Y4252D02*
X4486Y4252D01*
X4076Y4251D02*
X4125Y4251D01*
X4137Y4251D02*
X4186Y4251D01*
X4376Y4251D02*
X4425Y4251D01*
X4437Y4251D02*
X4486Y4251D01*
X4076Y4250D02*
X4124Y4250D01*
X4139Y4250D02*
X4186Y4250D01*
X4376Y4250D02*
X4424Y4250D01*
X4439Y4250D02*
X4486Y4250D01*
X4076Y4249D02*
X4123Y4249D01*
X4140Y4249D02*
X4187Y4249D01*
X4376Y4249D02*
X4423Y4249D01*
X4440Y4249D02*
X4487Y4249D01*
X4075Y4248D02*
X4122Y4248D01*
X4141Y4248D02*
X4187Y4248D01*
X4375Y4248D02*
X4422Y4248D01*
X4441Y4248D02*
X4487Y4248D01*
X4075Y4247D02*
X4121Y4247D01*
X4141Y4247D02*
X4187Y4247D01*
X4375Y4247D02*
X4421Y4247D01*
X4441Y4247D02*
X4487Y4247D01*
X4075Y4246D02*
X4121Y4246D01*
X4142Y4246D02*
X4187Y4246D01*
X4375Y4246D02*
X4420Y4246D01*
X4442Y4246D02*
X4487Y4246D01*
X4075Y4245D02*
X4120Y4245D01*
X4142Y4245D02*
X4187Y4245D01*
X4375Y4245D02*
X4420Y4245D01*
X4442Y4245D02*
X4487Y4245D01*
X4075Y4244D02*
X4120Y4244D01*
X4142Y4244D02*
X4188Y4244D01*
X4375Y4244D02*
X4420Y4244D01*
X4442Y4244D02*
X4488Y4244D01*
X4075Y4243D02*
X4120Y4243D01*
X4143Y4243D02*
X4188Y4243D01*
X4375Y4243D02*
X4420Y4243D01*
X4443Y4243D02*
X4488Y4243D01*
X4075Y4242D02*
X4120Y4242D01*
X4143Y4242D02*
X4188Y4242D01*
X4375Y4242D02*
X4420Y4242D01*
X4443Y4242D02*
X4488Y4242D01*
X4075Y4241D02*
X4120Y4241D01*
X4143Y4241D02*
X4188Y4241D01*
X4375Y4241D02*
X4420Y4241D01*
X4443Y4241D02*
X4488Y4241D01*
X4075Y4240D02*
X4120Y4240D01*
X4143Y4240D02*
X4188Y4240D01*
X4375Y4240D02*
X4420Y4240D01*
X4443Y4240D02*
X4488Y4240D01*
X4075Y4239D02*
X4120Y4239D01*
X4142Y4239D02*
X4188Y4239D01*
X4375Y4239D02*
X4420Y4239D01*
X4442Y4239D02*
X4488Y4239D01*
X4075Y4238D02*
X4120Y4238D01*
X4142Y4238D02*
X4187Y4238D01*
X4375Y4238D02*
X4420Y4238D01*
X4442Y4238D02*
X4487Y4238D01*
X4075Y4237D02*
X4121Y4237D01*
X4142Y4237D02*
X4187Y4237D01*
X4375Y4237D02*
X4421Y4237D01*
X4442Y4237D02*
X4487Y4237D01*
X4075Y4236D02*
X4121Y4236D01*
X4141Y4236D02*
X4187Y4236D01*
X4375Y4236D02*
X4421Y4236D01*
X4441Y4236D02*
X4487Y4236D01*
X4075Y4235D02*
X4122Y4235D01*
X4140Y4235D02*
X4187Y4235D01*
X4375Y4235D02*
X4422Y4235D01*
X4440Y4235D02*
X4487Y4235D01*
X4076Y4234D02*
X4123Y4234D01*
X4140Y4234D02*
X4187Y4234D01*
X4376Y4234D02*
X4423Y4234D01*
X4440Y4234D02*
X4487Y4234D01*
X4076Y4233D02*
X4124Y4233D01*
X4138Y4233D02*
X4186Y4233D01*
X4376Y4233D02*
X4424Y4233D01*
X4438Y4233D02*
X4486Y4233D01*
X4076Y4232D02*
X4125Y4232D01*
X4137Y4232D02*
X4186Y4232D01*
X4376Y4232D02*
X4425Y4232D01*
X4437Y4232D02*
X4486Y4232D01*
X4077Y4231D02*
X4128Y4231D01*
X4135Y4231D02*
X4186Y4231D01*
X4377Y4231D02*
X4428Y4231D01*
X4435Y4231D02*
X4486Y4231D01*
X4077Y4230D02*
X4185Y4230D01*
X4377Y4230D02*
X4485Y4230D01*
X4077Y4229D02*
X4185Y4229D01*
X4377Y4229D02*
X4485Y4229D01*
X4078Y4228D02*
X4184Y4228D01*
X4378Y4228D02*
X4484Y4228D01*
X4078Y4227D02*
X4184Y4227D01*
X4378Y4227D02*
X4484Y4227D01*
X4079Y4226D02*
X4183Y4226D01*
X4379Y4226D02*
X4483Y4226D01*
X4080Y4225D02*
X4183Y4225D01*
X4380Y4225D02*
X4483Y4225D01*
X4080Y4224D02*
X4182Y4224D01*
X4380Y4224D02*
X4482Y4224D01*
X4081Y4223D02*
X4181Y4223D01*
X4381Y4223D02*
X4481Y4223D01*
X4082Y4222D02*
X4181Y4222D01*
X4382Y4222D02*
X4481Y4222D01*
X4083Y4221D02*
X4180Y4221D01*
X4383Y4221D02*
X4480Y4221D01*
X4083Y4220D02*
X4179Y4220D01*
X4383Y4220D02*
X4479Y4220D01*
X4085Y4219D02*
X4178Y4219D01*
X4384Y4219D02*
X4478Y4219D01*
X4086Y4218D02*
X4177Y4218D01*
X4386Y4218D02*
X4477Y4218D01*
X4087Y4217D02*
X4175Y4217D01*
X4387Y4217D02*
X4475Y4217D01*
X4088Y4216D02*
X4174Y4216D01*
X4388Y4216D02*
X4474Y4216D01*
X4090Y4215D02*
X4172Y4215D01*
X4390Y4215D02*
X4472Y4215D01*
X4092Y4214D02*
X4170Y4214D01*
X4392Y4214D02*
X4470Y4214D01*
X4094Y4213D02*
X4168Y4213D01*
X4394Y4213D02*
X4468Y4213D01*
X4097Y4212D02*
X4166Y4212D01*
X4397Y4212D02*
X4466Y4212D01*
X4101Y4211D02*
X4161Y4211D01*
X4401Y4211D02*
X4461Y4211D01*
X4100Y4172D02*
X4163Y4172D01*
X4400Y4172D02*
X4463Y4172D01*
X4096Y4171D02*
X4166Y4171D01*
X4396Y4171D02*
X4466Y4171D01*
X4093Y4170D02*
X4169Y4170D01*
X4393Y4170D02*
X4469Y4170D01*
X4091Y4169D02*
X4171Y4169D01*
X4391Y4169D02*
X4471Y4169D01*
X4090Y4168D02*
X4173Y4168D01*
X4390Y4168D02*
X4473Y4168D01*
X4088Y4167D02*
X4174Y4167D01*
X4388Y4167D02*
X4474Y4167D01*
X4087Y4166D02*
X4176Y4166D01*
X4387Y4166D02*
X4476Y4166D01*
X4085Y4165D02*
X4177Y4165D01*
X4385Y4165D02*
X4477Y4165D01*
X4084Y4164D02*
X4178Y4164D01*
X4384Y4164D02*
X4478Y4164D01*
X4083Y4163D02*
X4179Y4163D01*
X4383Y4163D02*
X4479Y4163D01*
X4082Y4162D02*
X4180Y4162D01*
X4382Y4162D02*
X4480Y4162D01*
X4082Y4161D02*
X4181Y4161D01*
X4382Y4161D02*
X4481Y4161D01*
X4081Y4160D02*
X4182Y4160D01*
X4381Y4160D02*
X4482Y4160D01*
X4080Y4159D02*
X4182Y4159D01*
X4380Y4159D02*
X4482Y4159D01*
X4079Y4158D02*
X4183Y4158D01*
X4379Y4158D02*
X4483Y4158D01*
X4079Y4157D02*
X4183Y4157D01*
X4379Y4157D02*
X4483Y4157D01*
X4078Y4156D02*
X4184Y4156D01*
X4378Y4156D02*
X4484Y4156D01*
X4078Y4155D02*
X4184Y4155D01*
X4378Y4155D02*
X4484Y4155D01*
X4077Y4154D02*
X4185Y4154D01*
X4377Y4154D02*
X4485Y4154D01*
X4077Y4153D02*
X4185Y4153D01*
X4377Y4153D02*
X4485Y4153D01*
X4077Y4152D02*
X4127Y4152D01*
X4135Y4152D02*
X4186Y4152D01*
X4377Y4152D02*
X4427Y4152D01*
X4435Y4152D02*
X4486Y4152D01*
X4076Y4151D02*
X4125Y4151D01*
X4137Y4151D02*
X4186Y4151D01*
X4376Y4151D02*
X4425Y4151D01*
X4437Y4151D02*
X4486Y4151D01*
X4076Y4150D02*
X4124Y4150D01*
X4139Y4150D02*
X4186Y4150D01*
X4376Y4150D02*
X4424Y4150D01*
X4439Y4150D02*
X4486Y4150D01*
X4076Y4149D02*
X4123Y4149D01*
X4140Y4149D02*
X4187Y4149D01*
X4376Y4149D02*
X4423Y4149D01*
X4440Y4149D02*
X4487Y4149D01*
X4075Y4148D02*
X4122Y4148D01*
X4141Y4148D02*
X4187Y4148D01*
X4375Y4148D02*
X4422Y4148D01*
X4441Y4148D02*
X4487Y4148D01*
X4075Y4147D02*
X4121Y4147D01*
X4141Y4147D02*
X4187Y4147D01*
X4375Y4147D02*
X4421Y4147D01*
X4441Y4147D02*
X4487Y4147D01*
X4075Y4146D02*
X4121Y4146D01*
X4142Y4146D02*
X4187Y4146D01*
X4375Y4146D02*
X4420Y4146D01*
X4442Y4146D02*
X4487Y4146D01*
X4075Y4145D02*
X4120Y4145D01*
X4142Y4145D02*
X4187Y4145D01*
X4375Y4145D02*
X4420Y4145D01*
X4442Y4145D02*
X4487Y4145D01*
X4075Y4144D02*
X4120Y4144D01*
X4142Y4144D02*
X4188Y4144D01*
X4375Y4144D02*
X4420Y4144D01*
X4442Y4144D02*
X4488Y4144D01*
X4075Y4143D02*
X4120Y4143D01*
X4143Y4143D02*
X4188Y4143D01*
X4375Y4143D02*
X4420Y4143D01*
X4443Y4143D02*
X4488Y4143D01*
X4075Y4142D02*
X4120Y4142D01*
X4143Y4142D02*
X4188Y4142D01*
X4375Y4142D02*
X4420Y4142D01*
X4443Y4142D02*
X4488Y4142D01*
X4075Y4141D02*
X4120Y4141D01*
X4143Y4141D02*
X4188Y4141D01*
X4375Y4141D02*
X4420Y4141D01*
X4443Y4141D02*
X4488Y4141D01*
X4075Y4140D02*
X4120Y4140D01*
X4143Y4140D02*
X4188Y4140D01*
X4375Y4140D02*
X4420Y4140D01*
X4443Y4140D02*
X4488Y4140D01*
X4075Y4139D02*
X4120Y4139D01*
X4142Y4139D02*
X4188Y4139D01*
X4375Y4139D02*
X4420Y4139D01*
X4442Y4139D02*
X4488Y4139D01*
X4075Y4138D02*
X4120Y4138D01*
X4142Y4138D02*
X4187Y4138D01*
X4375Y4138D02*
X4420Y4138D01*
X4442Y4138D02*
X4487Y4138D01*
X4075Y4137D02*
X4121Y4137D01*
X4142Y4137D02*
X4187Y4137D01*
X4375Y4137D02*
X4421Y4137D01*
X4442Y4137D02*
X4487Y4137D01*
X4075Y4136D02*
X4121Y4136D01*
X4141Y4136D02*
X4187Y4136D01*
X4375Y4136D02*
X4421Y4136D01*
X4441Y4136D02*
X4487Y4136D01*
X4075Y4135D02*
X4122Y4135D01*
X4140Y4135D02*
X4187Y4135D01*
X4375Y4135D02*
X4422Y4135D01*
X4440Y4135D02*
X4487Y4135D01*
X4076Y4134D02*
X4123Y4134D01*
X4140Y4134D02*
X4187Y4134D01*
X4376Y4134D02*
X4423Y4134D01*
X4440Y4134D02*
X4487Y4134D01*
X4076Y4133D02*
X4124Y4133D01*
X4138Y4133D02*
X4186Y4133D01*
X4376Y4133D02*
X4424Y4133D01*
X4438Y4133D02*
X4486Y4133D01*
X4076Y4132D02*
X4125Y4132D01*
X4137Y4132D02*
X4186Y4132D01*
X4376Y4132D02*
X4425Y4132D01*
X4437Y4132D02*
X4486Y4132D01*
X4077Y4131D02*
X4128Y4131D01*
X4135Y4131D02*
X4186Y4131D01*
X4377Y4131D02*
X4428Y4131D01*
X4435Y4131D02*
X4486Y4131D01*
X4077Y4130D02*
X4185Y4130D01*
X4377Y4130D02*
X4485Y4130D01*
X4077Y4129D02*
X4185Y4129D01*
X4377Y4129D02*
X4485Y4129D01*
X4078Y4128D02*
X4184Y4128D01*
X4378Y4128D02*
X4484Y4128D01*
X4078Y4127D02*
X4184Y4127D01*
X4378Y4127D02*
X4484Y4127D01*
X4079Y4126D02*
X4183Y4126D01*
X4379Y4126D02*
X4483Y4126D01*
X4080Y4125D02*
X4183Y4125D01*
X4380Y4125D02*
X4483Y4125D01*
X4080Y4124D02*
X4182Y4124D01*
X4380Y4124D02*
X4482Y4124D01*
X4081Y4123D02*
X4181Y4123D01*
X4381Y4123D02*
X4481Y4123D01*
X4082Y4122D02*
X4181Y4122D01*
X4382Y4122D02*
X4481Y4122D01*
X4083Y4121D02*
X4180Y4121D01*
X4383Y4121D02*
X4480Y4121D01*
X4083Y4120D02*
X4179Y4120D01*
X4383Y4120D02*
X4479Y4120D01*
X4085Y4119D02*
X4178Y4119D01*
X4385Y4119D02*
X4478Y4119D01*
X4086Y4118D02*
X4177Y4118D01*
X4386Y4118D02*
X4477Y4118D01*
X4087Y4117D02*
X4175Y4117D01*
X4387Y4117D02*
X4475Y4117D01*
X4088Y4116D02*
X4174Y4116D01*
X4388Y4116D02*
X4474Y4116D01*
X4090Y4115D02*
X4172Y4115D01*
X4390Y4115D02*
X4472Y4115D01*
X4092Y4114D02*
X4170Y4114D01*
X4392Y4114D02*
X4470Y4114D01*
X4094Y4113D02*
X4168Y4113D01*
X4394Y4113D02*
X4468Y4113D01*
X4097Y4112D02*
X4166Y4112D01*
X4397Y4112D02*
X4466Y4112D01*
X4101Y4111D02*
X4161Y4111D01*
X4401Y4111D02*
X4461Y4111D01*
X4100Y3772D02*
X4163Y3772D01*
X4400Y3772D02*
X4463Y3772D01*
X4096Y3771D02*
X4166Y3771D01*
X4396Y3771D02*
X4466Y3771D01*
X4093Y3770D02*
X4169Y3770D01*
X4393Y3770D02*
X4469Y3770D01*
X4091Y3769D02*
X4171Y3769D01*
X4391Y3769D02*
X4471Y3769D01*
X4090Y3768D02*
X4173Y3768D01*
X4390Y3768D02*
X4473Y3768D01*
X4088Y3767D02*
X4174Y3767D01*
X4388Y3767D02*
X4474Y3767D01*
X4087Y3766D02*
X4176Y3766D01*
X4387Y3766D02*
X4476Y3766D01*
X4085Y3765D02*
X4177Y3765D01*
X4385Y3765D02*
X4477Y3765D01*
X4084Y3764D02*
X4178Y3764D01*
X4384Y3764D02*
X4478Y3764D01*
X4083Y3763D02*
X4179Y3763D01*
X4383Y3763D02*
X4479Y3763D01*
X4082Y3762D02*
X4180Y3762D01*
X4382Y3762D02*
X4480Y3762D01*
X4082Y3761D02*
X4181Y3761D01*
X4381Y3761D02*
X4481Y3761D01*
X4081Y3760D02*
X4182Y3760D01*
X4381Y3760D02*
X4482Y3760D01*
X4080Y3759D02*
X4182Y3759D01*
X4380Y3759D02*
X4482Y3759D01*
X4079Y3758D02*
X4183Y3758D01*
X4379Y3758D02*
X4483Y3758D01*
X4079Y3757D02*
X4183Y3757D01*
X4379Y3757D02*
X4483Y3757D01*
X4078Y3756D02*
X4184Y3756D01*
X4378Y3756D02*
X4484Y3756D01*
X4078Y3755D02*
X4185Y3755D01*
X4378Y3755D02*
X4484Y3755D01*
X4077Y3754D02*
X4185Y3754D01*
X4377Y3754D02*
X4485Y3754D01*
X4077Y3753D02*
X4185Y3753D01*
X4377Y3753D02*
X4485Y3753D01*
X4077Y3752D02*
X4127Y3752D01*
X4136Y3752D02*
X4186Y3752D01*
X4377Y3752D02*
X4427Y3752D01*
X4436Y3752D02*
X4486Y3752D01*
X4076Y3751D02*
X4125Y3751D01*
X4137Y3751D02*
X4186Y3751D01*
X4376Y3751D02*
X4425Y3751D01*
X4437Y3751D02*
X4486Y3751D01*
X4076Y3750D02*
X4124Y3750D01*
X4139Y3750D02*
X4186Y3750D01*
X4376Y3750D02*
X4424Y3750D01*
X4439Y3750D02*
X4486Y3750D01*
X4076Y3749D02*
X4123Y3749D01*
X4140Y3749D02*
X4187Y3749D01*
X4376Y3749D02*
X4423Y3749D01*
X4440Y3749D02*
X4487Y3749D01*
X4075Y3748D02*
X4122Y3748D01*
X4141Y3748D02*
X4187Y3748D01*
X4375Y3748D02*
X4422Y3748D01*
X4441Y3748D02*
X4487Y3748D01*
X4075Y3747D02*
X4121Y3747D01*
X4141Y3747D02*
X4187Y3747D01*
X4375Y3747D02*
X4421Y3747D01*
X4441Y3747D02*
X4487Y3747D01*
X4075Y3746D02*
X4121Y3746D01*
X4142Y3746D02*
X4187Y3746D01*
X4375Y3746D02*
X4420Y3746D01*
X4442Y3746D02*
X4487Y3746D01*
X4075Y3745D02*
X4120Y3745D01*
X4142Y3745D02*
X4187Y3745D01*
X4375Y3745D02*
X4420Y3745D01*
X4442Y3745D02*
X4487Y3745D01*
X4075Y3744D02*
X4120Y3744D01*
X4142Y3744D02*
X4188Y3744D01*
X4375Y3744D02*
X4420Y3744D01*
X4442Y3744D02*
X4488Y3744D01*
X4075Y3743D02*
X4120Y3743D01*
X4143Y3743D02*
X4188Y3743D01*
X4375Y3743D02*
X4420Y3743D01*
X4443Y3743D02*
X4488Y3743D01*
X4075Y3742D02*
X4120Y3742D01*
X4143Y3742D02*
X4188Y3742D01*
X4375Y3742D02*
X4420Y3742D01*
X4443Y3742D02*
X4488Y3742D01*
X4075Y3741D02*
X4120Y3741D01*
X4143Y3741D02*
X4188Y3741D01*
X4375Y3741D02*
X4420Y3741D01*
X4443Y3741D02*
X4488Y3741D01*
X4075Y3740D02*
X4120Y3740D01*
X4143Y3740D02*
X4188Y3740D01*
X4375Y3740D02*
X4420Y3740D01*
X4443Y3740D02*
X4488Y3740D01*
X4075Y3739D02*
X4120Y3739D01*
X4142Y3739D02*
X4188Y3739D01*
X4375Y3739D02*
X4420Y3739D01*
X4442Y3739D02*
X4488Y3739D01*
X4075Y3738D02*
X4120Y3738D01*
X4142Y3738D02*
X4187Y3738D01*
X4375Y3738D02*
X4420Y3738D01*
X4442Y3738D02*
X4487Y3738D01*
X4075Y3737D02*
X4121Y3737D01*
X4142Y3737D02*
X4187Y3737D01*
X4375Y3737D02*
X4421Y3737D01*
X4442Y3737D02*
X4487Y3737D01*
X4075Y3736D02*
X4121Y3736D01*
X4141Y3736D02*
X4187Y3736D01*
X4375Y3736D02*
X4421Y3736D01*
X4441Y3736D02*
X4487Y3736D01*
X4075Y3735D02*
X4122Y3735D01*
X4140Y3735D02*
X4187Y3735D01*
X4375Y3735D02*
X4422Y3735D01*
X4440Y3735D02*
X4487Y3735D01*
X4076Y3734D02*
X4123Y3734D01*
X4140Y3734D02*
X4187Y3734D01*
X4376Y3734D02*
X4423Y3734D01*
X4440Y3734D02*
X4487Y3734D01*
X4076Y3733D02*
X4124Y3733D01*
X4138Y3733D02*
X4186Y3733D01*
X4376Y3733D02*
X4424Y3733D01*
X4438Y3733D02*
X4486Y3733D01*
X4076Y3732D02*
X4125Y3732D01*
X4137Y3732D02*
X4186Y3732D01*
X4376Y3732D02*
X4425Y3732D01*
X4437Y3732D02*
X4486Y3732D01*
X4077Y3731D02*
X4128Y3731D01*
X4135Y3731D02*
X4186Y3731D01*
X4377Y3731D02*
X4428Y3731D01*
X4435Y3731D02*
X4486Y3731D01*
X4077Y3730D02*
X4185Y3730D01*
X4377Y3730D02*
X4485Y3730D01*
X4077Y3729D02*
X4185Y3729D01*
X4377Y3729D02*
X4485Y3729D01*
X4078Y3728D02*
X4184Y3728D01*
X4378Y3728D02*
X4484Y3728D01*
X4078Y3727D02*
X4184Y3727D01*
X4378Y3727D02*
X4484Y3727D01*
X4079Y3726D02*
X4183Y3726D01*
X4379Y3726D02*
X4483Y3726D01*
X4080Y3725D02*
X4183Y3725D01*
X4380Y3725D02*
X4483Y3725D01*
X4080Y3724D02*
X4182Y3724D01*
X4380Y3724D02*
X4482Y3724D01*
X4081Y3723D02*
X4181Y3723D01*
X4381Y3723D02*
X4481Y3723D01*
X4082Y3722D02*
X4181Y3722D01*
X4382Y3722D02*
X4481Y3722D01*
X4083Y3721D02*
X4180Y3721D01*
X4383Y3721D02*
X4480Y3721D01*
X4083Y3720D02*
X4179Y3720D01*
X4383Y3720D02*
X4479Y3720D01*
X4085Y3719D02*
X4178Y3719D01*
X4385Y3719D02*
X4478Y3719D01*
X4086Y3718D02*
X4177Y3718D01*
X4386Y3718D02*
X4477Y3718D01*
X4087Y3717D02*
X4175Y3717D01*
X4387Y3717D02*
X4475Y3717D01*
X4088Y3716D02*
X4174Y3716D01*
X4388Y3716D02*
X4474Y3716D01*
X4090Y3715D02*
X4172Y3715D01*
X4390Y3715D02*
X4472Y3715D01*
X4092Y3714D02*
X4170Y3714D01*
X4392Y3714D02*
X4470Y3714D01*
X4094Y3713D02*
X4168Y3713D01*
X4394Y3713D02*
X4468Y3713D01*
X4097Y3712D02*
X4165Y3712D01*
X4397Y3712D02*
X4465Y3712D01*
X4101Y3711D02*
X4161Y3711D01*
X4401Y3711D02*
X4461Y3711D01*
X4100Y3672D02*
X4163Y3672D01*
X4400Y3672D02*
X4463Y3672D01*
X4096Y3671D02*
X4166Y3671D01*
X4396Y3671D02*
X4466Y3671D01*
X4093Y3670D02*
X4169Y3670D01*
X4393Y3670D02*
X4469Y3670D01*
X4091Y3669D02*
X4171Y3669D01*
X4391Y3669D02*
X4471Y3669D01*
X4090Y3668D02*
X4173Y3668D01*
X4390Y3668D02*
X4473Y3668D01*
X4088Y3667D02*
X4174Y3667D01*
X4388Y3667D02*
X4474Y3667D01*
X4087Y3666D02*
X4176Y3666D01*
X4387Y3666D02*
X4476Y3666D01*
X4085Y3665D02*
X4177Y3665D01*
X4385Y3665D02*
X4477Y3665D01*
X4084Y3664D02*
X4178Y3664D01*
X4384Y3664D02*
X4478Y3664D01*
X4083Y3663D02*
X4179Y3663D01*
X4383Y3663D02*
X4479Y3663D01*
X4082Y3662D02*
X4180Y3662D01*
X4382Y3662D02*
X4480Y3662D01*
X4082Y3661D02*
X4181Y3661D01*
X4381Y3661D02*
X4481Y3661D01*
X4081Y3660D02*
X4182Y3660D01*
X4381Y3660D02*
X4482Y3660D01*
X4080Y3659D02*
X4182Y3659D01*
X4380Y3659D02*
X4482Y3659D01*
X4079Y3658D02*
X4183Y3658D01*
X4379Y3658D02*
X4483Y3658D01*
X4079Y3657D02*
X4183Y3657D01*
X4379Y3657D02*
X4483Y3657D01*
X4078Y3656D02*
X4184Y3656D01*
X4378Y3656D02*
X4484Y3656D01*
X4078Y3655D02*
X4185Y3655D01*
X4378Y3655D02*
X4484Y3655D01*
X4077Y3654D02*
X4185Y3654D01*
X4377Y3654D02*
X4485Y3654D01*
X4077Y3653D02*
X4185Y3653D01*
X4377Y3653D02*
X4485Y3653D01*
X4077Y3652D02*
X4127Y3652D01*
X4136Y3652D02*
X4186Y3652D01*
X4377Y3652D02*
X4427Y3652D01*
X4436Y3652D02*
X4486Y3652D01*
X4076Y3651D02*
X4125Y3651D01*
X4138Y3651D02*
X4186Y3651D01*
X4376Y3651D02*
X4425Y3651D01*
X4437Y3651D02*
X4486Y3651D01*
X4076Y3650D02*
X4124Y3650D01*
X4139Y3650D02*
X4186Y3650D01*
X4376Y3650D02*
X4424Y3650D01*
X4439Y3650D02*
X4486Y3650D01*
X4076Y3649D02*
X4123Y3649D01*
X4140Y3649D02*
X4187Y3649D01*
X4376Y3649D02*
X4423Y3649D01*
X4440Y3649D02*
X4487Y3649D01*
X4075Y3648D02*
X4122Y3648D01*
X4141Y3648D02*
X4187Y3648D01*
X4375Y3648D02*
X4422Y3648D01*
X4441Y3648D02*
X4487Y3648D01*
X4075Y3647D02*
X4121Y3647D01*
X4141Y3647D02*
X4187Y3647D01*
X4375Y3647D02*
X4421Y3647D01*
X4441Y3647D02*
X4487Y3647D01*
X4075Y3646D02*
X4120Y3646D01*
X4142Y3646D02*
X4187Y3646D01*
X4375Y3646D02*
X4420Y3646D01*
X4442Y3646D02*
X4487Y3646D01*
X4075Y3645D02*
X4120Y3645D01*
X4142Y3645D02*
X4187Y3645D01*
X4375Y3645D02*
X4420Y3645D01*
X4442Y3645D02*
X4487Y3645D01*
X4075Y3644D02*
X4120Y3644D01*
X4142Y3644D02*
X4188Y3644D01*
X4375Y3644D02*
X4420Y3644D01*
X4442Y3644D02*
X4488Y3644D01*
X4075Y3643D02*
X4120Y3643D01*
X4143Y3643D02*
X4188Y3643D01*
X4375Y3643D02*
X4420Y3643D01*
X4443Y3643D02*
X4488Y3643D01*
X4075Y3642D02*
X4120Y3642D01*
X4143Y3642D02*
X4188Y3642D01*
X4375Y3642D02*
X4420Y3642D01*
X4443Y3642D02*
X4488Y3642D01*
X4075Y3641D02*
X4120Y3641D01*
X4143Y3641D02*
X4188Y3641D01*
X4375Y3641D02*
X4420Y3641D01*
X4443Y3641D02*
X4488Y3641D01*
X4075Y3640D02*
X4120Y3640D01*
X4143Y3640D02*
X4188Y3640D01*
X4375Y3640D02*
X4420Y3640D01*
X4443Y3640D02*
X4488Y3640D01*
X4075Y3639D02*
X4120Y3639D01*
X4142Y3639D02*
X4188Y3639D01*
X4375Y3639D02*
X4420Y3639D01*
X4442Y3639D02*
X4488Y3639D01*
X4075Y3638D02*
X4120Y3638D01*
X4142Y3638D02*
X4187Y3638D01*
X4375Y3638D02*
X4420Y3638D01*
X4442Y3638D02*
X4487Y3638D01*
X4075Y3637D02*
X4121Y3637D01*
X4142Y3637D02*
X4187Y3637D01*
X4375Y3637D02*
X4421Y3637D01*
X4442Y3637D02*
X4487Y3637D01*
X4075Y3636D02*
X4121Y3636D01*
X4141Y3636D02*
X4187Y3636D01*
X4375Y3636D02*
X4421Y3636D01*
X4441Y3636D02*
X4487Y3636D01*
X4075Y3635D02*
X4122Y3635D01*
X4140Y3635D02*
X4187Y3635D01*
X4375Y3635D02*
X4422Y3635D01*
X4440Y3635D02*
X4487Y3635D01*
X4076Y3634D02*
X4123Y3634D01*
X4140Y3634D02*
X4187Y3634D01*
X4376Y3634D02*
X4423Y3634D01*
X4440Y3634D02*
X4487Y3634D01*
X4076Y3633D02*
X4124Y3633D01*
X4138Y3633D02*
X4186Y3633D01*
X4376Y3633D02*
X4424Y3633D01*
X4438Y3633D02*
X4486Y3633D01*
X4076Y3632D02*
X4125Y3632D01*
X4137Y3632D02*
X4186Y3632D01*
X4376Y3632D02*
X4425Y3632D01*
X4437Y3632D02*
X4486Y3632D01*
X4077Y3631D02*
X4128Y3631D01*
X4135Y3631D02*
X4186Y3631D01*
X4377Y3631D02*
X4428Y3631D01*
X4435Y3631D02*
X4486Y3631D01*
X4077Y3630D02*
X4185Y3630D01*
X4377Y3630D02*
X4485Y3630D01*
X4077Y3629D02*
X4185Y3629D01*
X4377Y3629D02*
X4485Y3629D01*
X4078Y3628D02*
X4184Y3628D01*
X4378Y3628D02*
X4484Y3628D01*
X4078Y3627D02*
X4184Y3627D01*
X4378Y3627D02*
X4484Y3627D01*
X4079Y3626D02*
X4183Y3626D01*
X4379Y3626D02*
X4483Y3626D01*
X4080Y3625D02*
X4183Y3625D01*
X4380Y3625D02*
X4483Y3625D01*
X4080Y3624D02*
X4182Y3624D01*
X4380Y3624D02*
X4482Y3624D01*
X4081Y3623D02*
X4181Y3623D01*
X4381Y3623D02*
X4481Y3623D01*
X4082Y3622D02*
X4181Y3622D01*
X4382Y3622D02*
X4481Y3622D01*
X4083Y3621D02*
X4180Y3621D01*
X4383Y3621D02*
X4480Y3621D01*
X4083Y3620D02*
X4179Y3620D01*
X4383Y3620D02*
X4479Y3620D01*
X4085Y3619D02*
X4178Y3619D01*
X4385Y3619D02*
X4478Y3619D01*
X4086Y3618D02*
X4177Y3618D01*
X4386Y3618D02*
X4477Y3618D01*
X4087Y3617D02*
X4175Y3617D01*
X4387Y3617D02*
X4475Y3617D01*
X4088Y3616D02*
X4174Y3616D01*
X4388Y3616D02*
X4474Y3616D01*
X4090Y3615D02*
X4172Y3615D01*
X4390Y3615D02*
X4472Y3615D01*
X4092Y3614D02*
X4170Y3614D01*
X4392Y3614D02*
X4470Y3614D01*
X4094Y3613D02*
X4168Y3613D01*
X4394Y3613D02*
X4468Y3613D01*
X4097Y3612D02*
X4165Y3612D01*
X4397Y3612D02*
X4465Y3612D01*
X4101Y3611D02*
X4161Y3611D01*
X4401Y3611D02*
X4461Y3611D01*
X4100Y3572D02*
X4163Y3572D01*
X4400Y3572D02*
X4463Y3572D01*
X4096Y3571D02*
X4166Y3571D01*
X4396Y3571D02*
X4466Y3571D01*
X4093Y3570D02*
X4169Y3570D01*
X4393Y3570D02*
X4469Y3570D01*
X4091Y3569D02*
X4171Y3569D01*
X4391Y3569D02*
X4471Y3569D01*
X4090Y3568D02*
X4173Y3568D01*
X4390Y3568D02*
X4473Y3568D01*
X4088Y3567D02*
X4174Y3567D01*
X4388Y3567D02*
X4474Y3567D01*
X4087Y3566D02*
X4176Y3566D01*
X4387Y3566D02*
X4476Y3566D01*
X4085Y3565D02*
X4177Y3565D01*
X4385Y3565D02*
X4477Y3565D01*
X4084Y3564D02*
X4178Y3564D01*
X4384Y3564D02*
X4478Y3564D01*
X4083Y3563D02*
X4179Y3563D01*
X4383Y3563D02*
X4479Y3563D01*
X4082Y3562D02*
X4180Y3562D01*
X4382Y3562D02*
X4480Y3562D01*
X4082Y3561D02*
X4181Y3561D01*
X4381Y3561D02*
X4481Y3561D01*
X4081Y3560D02*
X4182Y3560D01*
X4381Y3560D02*
X4482Y3560D01*
X4080Y3559D02*
X4182Y3559D01*
X4380Y3559D02*
X4482Y3559D01*
X4079Y3558D02*
X4183Y3558D01*
X4379Y3558D02*
X4483Y3558D01*
X4079Y3557D02*
X4183Y3557D01*
X4379Y3557D02*
X4483Y3557D01*
X4078Y3556D02*
X4184Y3556D01*
X4378Y3556D02*
X4484Y3556D01*
X4078Y3555D02*
X4185Y3555D01*
X4378Y3555D02*
X4484Y3555D01*
X4077Y3554D02*
X4185Y3554D01*
X4377Y3554D02*
X4485Y3554D01*
X4077Y3553D02*
X4185Y3553D01*
X4377Y3553D02*
X4485Y3553D01*
X4077Y3552D02*
X4127Y3552D01*
X4136Y3552D02*
X4186Y3552D01*
X4377Y3552D02*
X4427Y3552D01*
X4436Y3552D02*
X4486Y3552D01*
X4076Y3551D02*
X4125Y3551D01*
X4138Y3551D02*
X4186Y3551D01*
X4376Y3551D02*
X4425Y3551D01*
X4437Y3551D02*
X4486Y3551D01*
X4076Y3550D02*
X4124Y3550D01*
X4139Y3550D02*
X4186Y3550D01*
X4376Y3550D02*
X4424Y3550D01*
X4439Y3550D02*
X4486Y3550D01*
X4076Y3549D02*
X4123Y3549D01*
X4140Y3549D02*
X4187Y3549D01*
X4376Y3549D02*
X4423Y3549D01*
X4440Y3549D02*
X4487Y3549D01*
X4075Y3548D02*
X4122Y3548D01*
X4141Y3548D02*
X4187Y3548D01*
X4375Y3548D02*
X4422Y3548D01*
X4441Y3548D02*
X4487Y3548D01*
X4075Y3547D02*
X4121Y3547D01*
X4141Y3547D02*
X4187Y3547D01*
X4375Y3547D02*
X4421Y3547D01*
X4441Y3547D02*
X4487Y3547D01*
X4075Y3546D02*
X4120Y3546D01*
X4142Y3546D02*
X4187Y3546D01*
X4375Y3546D02*
X4420Y3546D01*
X4442Y3546D02*
X4487Y3546D01*
X4075Y3545D02*
X4120Y3545D01*
X4142Y3545D02*
X4187Y3545D01*
X4375Y3545D02*
X4420Y3545D01*
X4442Y3545D02*
X4487Y3545D01*
X4075Y3544D02*
X4120Y3544D01*
X4142Y3544D02*
X4188Y3544D01*
X4375Y3544D02*
X4420Y3544D01*
X4442Y3544D02*
X4488Y3544D01*
X4075Y3543D02*
X4120Y3543D01*
X4143Y3543D02*
X4188Y3543D01*
X4375Y3543D02*
X4420Y3543D01*
X4443Y3543D02*
X4488Y3543D01*
X4075Y3542D02*
X4120Y3542D01*
X4143Y3542D02*
X4188Y3542D01*
X4375Y3542D02*
X4420Y3542D01*
X4443Y3542D02*
X4488Y3542D01*
X4075Y3541D02*
X4120Y3541D01*
X4143Y3541D02*
X4188Y3541D01*
X4375Y3541D02*
X4420Y3541D01*
X4443Y3541D02*
X4488Y3541D01*
X4075Y3540D02*
X4120Y3540D01*
X4143Y3540D02*
X4188Y3540D01*
X4375Y3540D02*
X4420Y3540D01*
X4443Y3540D02*
X4488Y3540D01*
X4075Y3539D02*
X4120Y3539D01*
X4142Y3539D02*
X4188Y3539D01*
X4375Y3539D02*
X4420Y3539D01*
X4442Y3539D02*
X4488Y3539D01*
X4075Y3538D02*
X4120Y3538D01*
X4142Y3538D02*
X4187Y3538D01*
X4375Y3538D02*
X4420Y3538D01*
X4442Y3538D02*
X4487Y3538D01*
X4075Y3537D02*
X4121Y3537D01*
X4142Y3537D02*
X4187Y3537D01*
X4375Y3537D02*
X4421Y3537D01*
X4442Y3537D02*
X4487Y3537D01*
X4075Y3536D02*
X4121Y3536D01*
X4141Y3536D02*
X4187Y3536D01*
X4375Y3536D02*
X4421Y3536D01*
X4441Y3536D02*
X4487Y3536D01*
X4075Y3535D02*
X4122Y3535D01*
X4140Y3535D02*
X4187Y3535D01*
X4375Y3535D02*
X4422Y3535D01*
X4440Y3535D02*
X4487Y3535D01*
X4076Y3534D02*
X4123Y3534D01*
X4140Y3534D02*
X4187Y3534D01*
X4376Y3534D02*
X4423Y3534D01*
X4440Y3534D02*
X4487Y3534D01*
X4076Y3533D02*
X4124Y3533D01*
X4138Y3533D02*
X4186Y3533D01*
X4376Y3533D02*
X4424Y3533D01*
X4438Y3533D02*
X4486Y3533D01*
X4076Y3532D02*
X4125Y3532D01*
X4137Y3532D02*
X4186Y3532D01*
X4376Y3532D02*
X4425Y3532D01*
X4437Y3532D02*
X4486Y3532D01*
X4077Y3531D02*
X4128Y3531D01*
X4135Y3531D02*
X4186Y3531D01*
X4377Y3531D02*
X4428Y3531D01*
X4434Y3531D02*
X4486Y3531D01*
X4077Y3530D02*
X4185Y3530D01*
X4377Y3530D02*
X4485Y3530D01*
X4077Y3529D02*
X4185Y3529D01*
X4377Y3529D02*
X4485Y3529D01*
X4078Y3528D02*
X4184Y3528D01*
X4378Y3528D02*
X4484Y3528D01*
X4078Y3527D02*
X4184Y3527D01*
X4378Y3527D02*
X4484Y3527D01*
X4079Y3526D02*
X4183Y3526D01*
X4379Y3526D02*
X4483Y3526D01*
X4080Y3525D02*
X4183Y3525D01*
X4380Y3525D02*
X4483Y3525D01*
X4080Y3524D02*
X4182Y3524D01*
X4380Y3524D02*
X4482Y3524D01*
X4081Y3523D02*
X4181Y3523D01*
X4381Y3523D02*
X4481Y3523D01*
X4082Y3522D02*
X4181Y3522D01*
X4382Y3522D02*
X4481Y3522D01*
X4083Y3521D02*
X4180Y3521D01*
X4383Y3521D02*
X4480Y3521D01*
X4084Y3520D02*
X4179Y3520D01*
X4383Y3520D02*
X4479Y3520D01*
X4085Y3519D02*
X4178Y3519D01*
X4385Y3519D02*
X4478Y3519D01*
X4086Y3518D02*
X4177Y3518D01*
X4386Y3518D02*
X4477Y3518D01*
X4087Y3517D02*
X4175Y3517D01*
X4387Y3517D02*
X4475Y3517D01*
X4088Y3516D02*
X4174Y3516D01*
X4388Y3516D02*
X4474Y3516D01*
X4090Y3515D02*
X4172Y3515D01*
X4390Y3515D02*
X4472Y3515D01*
X4092Y3514D02*
X4170Y3514D01*
X4392Y3514D02*
X4470Y3514D01*
X4094Y3513D02*
X4168Y3513D01*
X4394Y3513D02*
X4468Y3513D01*
X4097Y3512D02*
X4165Y3512D01*
X4397Y3512D02*
X4465Y3512D01*
X4101Y3511D02*
X4161Y3511D01*
X4401Y3511D02*
X4461Y3511D01*
X4100Y3472D02*
X4163Y3472D01*
X4400Y3472D02*
X4463Y3472D01*
X4096Y3471D02*
X4166Y3471D01*
X4396Y3471D02*
X4466Y3471D01*
X4093Y3470D02*
X4169Y3470D01*
X4393Y3470D02*
X4469Y3470D01*
X4091Y3469D02*
X4171Y3469D01*
X4391Y3469D02*
X4471Y3469D01*
X4090Y3468D02*
X4173Y3468D01*
X4390Y3468D02*
X4473Y3468D01*
X4088Y3467D02*
X4174Y3467D01*
X4388Y3467D02*
X4474Y3467D01*
X4087Y3466D02*
X4176Y3466D01*
X4387Y3466D02*
X4476Y3466D01*
X4085Y3465D02*
X4177Y3465D01*
X4385Y3465D02*
X4477Y3465D01*
X4084Y3464D02*
X4178Y3464D01*
X4384Y3464D02*
X4478Y3464D01*
X4083Y3463D02*
X4179Y3463D01*
X4383Y3463D02*
X4479Y3463D01*
X4082Y3462D02*
X4180Y3462D01*
X4382Y3462D02*
X4480Y3462D01*
X4082Y3461D02*
X4181Y3461D01*
X4381Y3461D02*
X4481Y3461D01*
X4081Y3460D02*
X4182Y3460D01*
X4381Y3460D02*
X4482Y3460D01*
X4080Y3459D02*
X4182Y3459D01*
X4380Y3459D02*
X4482Y3459D01*
X4079Y3458D02*
X4183Y3458D01*
X4379Y3458D02*
X4483Y3458D01*
X4079Y3457D02*
X4183Y3457D01*
X4379Y3457D02*
X4483Y3457D01*
X4078Y3456D02*
X4184Y3456D01*
X4378Y3456D02*
X4484Y3456D01*
X4078Y3455D02*
X4185Y3455D01*
X4378Y3455D02*
X4484Y3455D01*
X4077Y3454D02*
X4185Y3454D01*
X4377Y3454D02*
X4485Y3454D01*
X4077Y3453D02*
X4185Y3453D01*
X4377Y3453D02*
X4485Y3453D01*
X4077Y3452D02*
X4127Y3452D01*
X4136Y3452D02*
X4186Y3452D01*
X4377Y3452D02*
X4427Y3452D01*
X4436Y3452D02*
X4486Y3452D01*
X4076Y3451D02*
X4125Y3451D01*
X4138Y3451D02*
X4186Y3451D01*
X4376Y3451D02*
X4425Y3451D01*
X4437Y3451D02*
X4486Y3451D01*
X4076Y3450D02*
X4124Y3450D01*
X4139Y3450D02*
X4186Y3450D01*
X4376Y3450D02*
X4424Y3450D01*
X4439Y3450D02*
X4486Y3450D01*
X4076Y3449D02*
X4123Y3449D01*
X4140Y3449D02*
X4187Y3449D01*
X4376Y3449D02*
X4423Y3449D01*
X4440Y3449D02*
X4487Y3449D01*
X4075Y3448D02*
X4122Y3448D01*
X4141Y3448D02*
X4187Y3448D01*
X4375Y3448D02*
X4422Y3448D01*
X4441Y3448D02*
X4487Y3448D01*
X4075Y3447D02*
X4121Y3447D01*
X4141Y3447D02*
X4187Y3447D01*
X4375Y3447D02*
X4421Y3447D01*
X4441Y3447D02*
X4487Y3447D01*
X4075Y3446D02*
X4120Y3446D01*
X4142Y3446D02*
X4187Y3446D01*
X4375Y3446D02*
X4420Y3446D01*
X4442Y3446D02*
X4487Y3446D01*
X4075Y3445D02*
X4120Y3445D01*
X4142Y3445D02*
X4187Y3445D01*
X4375Y3445D02*
X4420Y3445D01*
X4442Y3445D02*
X4487Y3445D01*
X4075Y3444D02*
X4120Y3444D01*
X4142Y3444D02*
X4188Y3444D01*
X4375Y3444D02*
X4420Y3444D01*
X4442Y3444D02*
X4488Y3444D01*
X4075Y3443D02*
X4120Y3443D01*
X4143Y3443D02*
X4188Y3443D01*
X4375Y3443D02*
X4420Y3443D01*
X4443Y3443D02*
X4488Y3443D01*
X4075Y3442D02*
X4120Y3442D01*
X4143Y3442D02*
X4188Y3442D01*
X4375Y3442D02*
X4420Y3442D01*
X4443Y3442D02*
X4488Y3442D01*
X4075Y3441D02*
X4120Y3441D01*
X4143Y3441D02*
X4188Y3441D01*
X4375Y3441D02*
X4420Y3441D01*
X4443Y3441D02*
X4488Y3441D01*
X4075Y3440D02*
X4120Y3440D01*
X4143Y3440D02*
X4188Y3440D01*
X4375Y3440D02*
X4420Y3440D01*
X4443Y3440D02*
X4488Y3440D01*
X4075Y3439D02*
X4120Y3439D01*
X4142Y3439D02*
X4188Y3439D01*
X4375Y3439D02*
X4420Y3439D01*
X4442Y3439D02*
X4488Y3439D01*
X4075Y3438D02*
X4120Y3438D01*
X4142Y3438D02*
X4187Y3438D01*
X4375Y3438D02*
X4420Y3438D01*
X4442Y3438D02*
X4487Y3438D01*
X4075Y3437D02*
X4121Y3437D01*
X4142Y3437D02*
X4187Y3437D01*
X4375Y3437D02*
X4421Y3437D01*
X4442Y3437D02*
X4487Y3437D01*
X4075Y3436D02*
X4121Y3436D01*
X4141Y3436D02*
X4187Y3436D01*
X4375Y3436D02*
X4421Y3436D01*
X4441Y3436D02*
X4487Y3436D01*
X4075Y3435D02*
X4122Y3435D01*
X4140Y3435D02*
X4187Y3435D01*
X4375Y3435D02*
X4422Y3435D01*
X4440Y3435D02*
X4487Y3435D01*
X4076Y3434D02*
X4123Y3434D01*
X4140Y3434D02*
X4187Y3434D01*
X4376Y3434D02*
X4423Y3434D01*
X4440Y3434D02*
X4487Y3434D01*
X4076Y3433D02*
X4124Y3433D01*
X4138Y3433D02*
X4186Y3433D01*
X4376Y3433D02*
X4424Y3433D01*
X4438Y3433D02*
X4486Y3433D01*
X4076Y3432D02*
X4125Y3432D01*
X4137Y3432D02*
X4186Y3432D01*
X4376Y3432D02*
X4425Y3432D01*
X4437Y3432D02*
X4486Y3432D01*
X4077Y3431D02*
X4128Y3431D01*
X4135Y3431D02*
X4186Y3431D01*
X4377Y3431D02*
X4428Y3431D01*
X4434Y3431D02*
X4486Y3431D01*
X4077Y3430D02*
X4185Y3430D01*
X4377Y3430D02*
X4485Y3430D01*
X4077Y3429D02*
X4185Y3429D01*
X4377Y3429D02*
X4485Y3429D01*
X4078Y3428D02*
X4184Y3428D01*
X4378Y3428D02*
X4484Y3428D01*
X4078Y3427D02*
X4184Y3427D01*
X4378Y3427D02*
X4484Y3427D01*
X4079Y3426D02*
X4183Y3426D01*
X4379Y3426D02*
X4483Y3426D01*
X4080Y3425D02*
X4183Y3425D01*
X4380Y3425D02*
X4483Y3425D01*
X4080Y3424D02*
X4182Y3424D01*
X4380Y3424D02*
X4482Y3424D01*
X4081Y3423D02*
X4181Y3423D01*
X4381Y3423D02*
X4481Y3423D01*
X4082Y3422D02*
X4181Y3422D01*
X4382Y3422D02*
X4481Y3422D01*
X4083Y3421D02*
X4180Y3421D01*
X4383Y3421D02*
X4480Y3421D01*
X4084Y3420D02*
X4179Y3420D01*
X4383Y3420D02*
X4479Y3420D01*
X4085Y3419D02*
X4178Y3419D01*
X4385Y3419D02*
X4478Y3419D01*
X4086Y3418D02*
X4177Y3418D01*
X4386Y3418D02*
X4477Y3418D01*
X4087Y3417D02*
X4175Y3417D01*
X4387Y3417D02*
X4475Y3417D01*
X4088Y3416D02*
X4174Y3416D01*
X4388Y3416D02*
X4474Y3416D01*
X4090Y3415D02*
X4172Y3415D01*
X4390Y3415D02*
X4472Y3415D01*
X4092Y3414D02*
X4170Y3414D01*
X4392Y3414D02*
X4470Y3414D01*
X4094Y3413D02*
X4168Y3413D01*
X4394Y3413D02*
X4468Y3413D01*
X4097Y3412D02*
X4165Y3412D01*
X4397Y3412D02*
X4465Y3412D01*
X4101Y3411D02*
X4161Y3411D01*
X4401Y3411D02*
X4461Y3411D01*
X4100Y3372D02*
X4163Y3372D01*
X4400Y3372D02*
X4463Y3372D01*
X4096Y3371D02*
X4166Y3371D01*
X4396Y3371D02*
X4466Y3371D01*
X4093Y3370D02*
X4169Y3370D01*
X4393Y3370D02*
X4469Y3370D01*
X4091Y3369D02*
X4171Y3369D01*
X4391Y3369D02*
X4471Y3369D01*
X4090Y3368D02*
X4173Y3368D01*
X4390Y3368D02*
X4473Y3368D01*
X4088Y3367D02*
X4174Y3367D01*
X4388Y3367D02*
X4474Y3367D01*
X4087Y3366D02*
X4176Y3366D01*
X4387Y3366D02*
X4476Y3366D01*
X4085Y3365D02*
X4177Y3365D01*
X4385Y3365D02*
X4477Y3365D01*
X4084Y3364D02*
X4178Y3364D01*
X4384Y3364D02*
X4478Y3364D01*
X4083Y3363D02*
X4179Y3363D01*
X4383Y3363D02*
X4479Y3363D01*
X4082Y3362D02*
X4180Y3362D01*
X4382Y3362D02*
X4480Y3362D01*
X4082Y3361D02*
X4181Y3361D01*
X4381Y3361D02*
X4481Y3361D01*
X4081Y3360D02*
X4182Y3360D01*
X4381Y3360D02*
X4482Y3360D01*
X4080Y3359D02*
X4182Y3359D01*
X4380Y3359D02*
X4482Y3359D01*
X4079Y3358D02*
X4183Y3358D01*
X4379Y3358D02*
X4483Y3358D01*
X4079Y3357D02*
X4183Y3357D01*
X4379Y3357D02*
X4483Y3357D01*
X4078Y3356D02*
X4184Y3356D01*
X4378Y3356D02*
X4484Y3356D01*
X4078Y3355D02*
X4185Y3355D01*
X4378Y3355D02*
X4485Y3355D01*
X4077Y3354D02*
X4185Y3354D01*
X4377Y3354D02*
X4485Y3354D01*
X4077Y3353D02*
X4185Y3353D01*
X4377Y3353D02*
X4485Y3353D01*
X4077Y3352D02*
X4127Y3352D01*
X4136Y3352D02*
X4186Y3352D01*
X4377Y3352D02*
X4427Y3352D01*
X4436Y3352D02*
X4486Y3352D01*
X4076Y3351D02*
X4125Y3351D01*
X4138Y3351D02*
X4186Y3351D01*
X4376Y3351D02*
X4425Y3351D01*
X4438Y3351D02*
X4486Y3351D01*
X4076Y3350D02*
X4124Y3350D01*
X4139Y3350D02*
X4186Y3350D01*
X4376Y3350D02*
X4424Y3350D01*
X4439Y3350D02*
X4486Y3350D01*
X4076Y3349D02*
X4123Y3349D01*
X4140Y3349D02*
X4187Y3349D01*
X4376Y3349D02*
X4423Y3349D01*
X4440Y3349D02*
X4487Y3349D01*
X4075Y3348D02*
X4122Y3348D01*
X4141Y3348D02*
X4187Y3348D01*
X4375Y3348D02*
X4422Y3348D01*
X4441Y3348D02*
X4487Y3348D01*
X4075Y3347D02*
X4121Y3347D01*
X4141Y3347D02*
X4187Y3347D01*
X4375Y3347D02*
X4421Y3347D01*
X4441Y3347D02*
X4487Y3347D01*
X4075Y3346D02*
X4120Y3346D01*
X4142Y3346D02*
X4187Y3346D01*
X4375Y3346D02*
X4420Y3346D01*
X4442Y3346D02*
X4487Y3346D01*
X4075Y3345D02*
X4120Y3345D01*
X4142Y3345D02*
X4187Y3345D01*
X4375Y3345D02*
X4420Y3345D01*
X4442Y3345D02*
X4487Y3345D01*
X4075Y3344D02*
X4120Y3344D01*
X4142Y3344D02*
X4188Y3344D01*
X4375Y3344D02*
X4420Y3344D01*
X4442Y3344D02*
X4488Y3344D01*
X4075Y3343D02*
X4120Y3343D01*
X4143Y3343D02*
X4188Y3343D01*
X4375Y3343D02*
X4420Y3343D01*
X4443Y3343D02*
X4488Y3343D01*
X4075Y3342D02*
X4120Y3342D01*
X4143Y3342D02*
X4188Y3342D01*
X4375Y3342D02*
X4420Y3342D01*
X4443Y3342D02*
X4488Y3342D01*
X4075Y3341D02*
X4120Y3341D01*
X4143Y3341D02*
X4188Y3341D01*
X4375Y3341D02*
X4420Y3341D01*
X4443Y3341D02*
X4488Y3341D01*
X4075Y3340D02*
X4120Y3340D01*
X4143Y3340D02*
X4188Y3340D01*
X4375Y3340D02*
X4420Y3340D01*
X4443Y3340D02*
X4488Y3340D01*
X4075Y3339D02*
X4120Y3339D01*
X4142Y3339D02*
X4188Y3339D01*
X4375Y3339D02*
X4420Y3339D01*
X4442Y3339D02*
X4488Y3339D01*
X4075Y3338D02*
X4120Y3338D01*
X4142Y3338D02*
X4187Y3338D01*
X4375Y3338D02*
X4420Y3338D01*
X4442Y3338D02*
X4487Y3338D01*
X4075Y3337D02*
X4121Y3337D01*
X4142Y3337D02*
X4187Y3337D01*
X4375Y3337D02*
X4421Y3337D01*
X4442Y3337D02*
X4487Y3337D01*
X4075Y3336D02*
X4121Y3336D01*
X4141Y3336D02*
X4187Y3336D01*
X4375Y3336D02*
X4421Y3336D01*
X4441Y3336D02*
X4487Y3336D01*
X4075Y3335D02*
X4122Y3335D01*
X4140Y3335D02*
X4187Y3335D01*
X4375Y3335D02*
X4422Y3335D01*
X4440Y3335D02*
X4487Y3335D01*
X4076Y3334D02*
X4123Y3334D01*
X4140Y3334D02*
X4187Y3334D01*
X4376Y3334D02*
X4423Y3334D01*
X4440Y3334D02*
X4487Y3334D01*
X4076Y3333D02*
X4124Y3333D01*
X4138Y3333D02*
X4186Y3333D01*
X4376Y3333D02*
X4424Y3333D01*
X4438Y3333D02*
X4486Y3333D01*
X4076Y3332D02*
X4125Y3332D01*
X4137Y3332D02*
X4186Y3332D01*
X4376Y3332D02*
X4425Y3332D01*
X4437Y3332D02*
X4486Y3332D01*
X4077Y3331D02*
X4128Y3331D01*
X4135Y3331D02*
X4186Y3331D01*
X4377Y3331D02*
X4428Y3331D01*
X4434Y3331D02*
X4486Y3331D01*
X4077Y3330D02*
X4185Y3330D01*
X4377Y3330D02*
X4485Y3330D01*
X4077Y3329D02*
X4185Y3329D01*
X4377Y3329D02*
X4485Y3329D01*
X4078Y3328D02*
X4184Y3328D01*
X4378Y3328D02*
X4484Y3328D01*
X4078Y3327D02*
X4184Y3327D01*
X4378Y3327D02*
X4484Y3327D01*
X4079Y3326D02*
X4183Y3326D01*
X4379Y3326D02*
X4483Y3326D01*
X4080Y3325D02*
X4183Y3325D01*
X4380Y3325D02*
X4483Y3325D01*
X4080Y3324D02*
X4182Y3324D01*
X4380Y3324D02*
X4482Y3324D01*
X4081Y3323D02*
X4181Y3323D01*
X4381Y3323D02*
X4481Y3323D01*
X4082Y3322D02*
X4181Y3322D01*
X4382Y3322D02*
X4481Y3322D01*
X4083Y3321D02*
X4180Y3321D01*
X4383Y3321D02*
X4480Y3321D01*
X4084Y3320D02*
X4179Y3320D01*
X4383Y3320D02*
X4479Y3320D01*
X4085Y3319D02*
X4178Y3319D01*
X4385Y3319D02*
X4478Y3319D01*
X4086Y3318D02*
X4177Y3318D01*
X4386Y3318D02*
X4477Y3318D01*
X4087Y3317D02*
X4175Y3317D01*
X4387Y3317D02*
X4475Y3317D01*
X4088Y3316D02*
X4174Y3316D01*
X4388Y3316D02*
X4474Y3316D01*
X4090Y3315D02*
X4172Y3315D01*
X4390Y3315D02*
X4472Y3315D01*
X4092Y3314D02*
X4170Y3314D01*
X4392Y3314D02*
X4470Y3314D01*
X4094Y3313D02*
X4168Y3313D01*
X4394Y3313D02*
X4468Y3313D01*
X4097Y3312D02*
X4165Y3312D01*
X4397Y3312D02*
X4465Y3312D01*
X4102Y3311D02*
X4161Y3311D01*
X4402Y3311D02*
X4461Y3311D01*
X4100Y3272D02*
X4163Y3272D01*
X4400Y3272D02*
X4463Y3272D01*
X4096Y3271D02*
X4166Y3271D01*
X4396Y3271D02*
X4466Y3271D01*
X4093Y3270D02*
X4169Y3270D01*
X4393Y3270D02*
X4469Y3270D01*
X4091Y3269D02*
X4171Y3269D01*
X4391Y3269D02*
X4471Y3269D01*
X4090Y3268D02*
X4173Y3268D01*
X4389Y3268D02*
X4473Y3268D01*
X4088Y3267D02*
X4174Y3267D01*
X4388Y3267D02*
X4474Y3267D01*
X4087Y3266D02*
X4176Y3266D01*
X4387Y3266D02*
X4476Y3266D01*
X4085Y3265D02*
X4177Y3265D01*
X4385Y3265D02*
X4477Y3265D01*
X4084Y3264D02*
X4178Y3264D01*
X4384Y3264D02*
X4478Y3264D01*
X4083Y3263D02*
X4179Y3263D01*
X4383Y3263D02*
X4479Y3263D01*
X4082Y3262D02*
X4180Y3262D01*
X4382Y3262D02*
X4480Y3262D01*
X4082Y3261D02*
X4181Y3261D01*
X4381Y3261D02*
X4481Y3261D01*
X4081Y3260D02*
X4182Y3260D01*
X4381Y3260D02*
X4482Y3260D01*
X4080Y3259D02*
X4182Y3259D01*
X4380Y3259D02*
X4482Y3259D01*
X4079Y3258D02*
X4183Y3258D01*
X4379Y3258D02*
X4483Y3258D01*
X4079Y3257D02*
X4183Y3257D01*
X4379Y3257D02*
X4483Y3257D01*
X4078Y3256D02*
X4184Y3256D01*
X4378Y3256D02*
X4484Y3256D01*
X4078Y3255D02*
X4185Y3255D01*
X4378Y3255D02*
X4485Y3255D01*
X4077Y3254D02*
X4185Y3254D01*
X4377Y3254D02*
X4485Y3254D01*
X4077Y3253D02*
X4185Y3253D01*
X4377Y3253D02*
X4485Y3253D01*
X4077Y3252D02*
X4127Y3252D01*
X4136Y3252D02*
X4186Y3252D01*
X4377Y3252D02*
X4427Y3252D01*
X4436Y3252D02*
X4486Y3252D01*
X4076Y3251D02*
X4125Y3251D01*
X4138Y3251D02*
X4186Y3251D01*
X4376Y3251D02*
X4425Y3251D01*
X4438Y3251D02*
X4486Y3251D01*
X4076Y3250D02*
X4124Y3250D01*
X4139Y3250D02*
X4186Y3250D01*
X4376Y3250D02*
X4424Y3250D01*
X4439Y3250D02*
X4486Y3250D01*
X4076Y3249D02*
X4123Y3249D01*
X4140Y3249D02*
X4187Y3249D01*
X4376Y3249D02*
X4423Y3249D01*
X4440Y3249D02*
X4487Y3249D01*
X4075Y3248D02*
X4122Y3248D01*
X4141Y3248D02*
X4187Y3248D01*
X4375Y3248D02*
X4422Y3248D01*
X4441Y3248D02*
X4487Y3248D01*
X4075Y3247D02*
X4121Y3247D01*
X4141Y3247D02*
X4187Y3247D01*
X4375Y3247D02*
X4421Y3247D01*
X4441Y3247D02*
X4487Y3247D01*
X4075Y3246D02*
X4120Y3246D01*
X4142Y3246D02*
X4187Y3246D01*
X4375Y3246D02*
X4420Y3246D01*
X4442Y3246D02*
X4487Y3246D01*
X4075Y3245D02*
X4120Y3245D01*
X4142Y3245D02*
X4187Y3245D01*
X4375Y3245D02*
X4420Y3245D01*
X4442Y3245D02*
X4487Y3245D01*
X4075Y3244D02*
X4120Y3244D01*
X4142Y3244D02*
X4188Y3244D01*
X4375Y3244D02*
X4420Y3244D01*
X4442Y3244D02*
X4488Y3244D01*
X4075Y3243D02*
X4120Y3243D01*
X4143Y3243D02*
X4188Y3243D01*
X4375Y3243D02*
X4420Y3243D01*
X4443Y3243D02*
X4488Y3243D01*
X4075Y3242D02*
X4120Y3242D01*
X4143Y3242D02*
X4188Y3242D01*
X4375Y3242D02*
X4420Y3242D01*
X4443Y3242D02*
X4488Y3242D01*
X4075Y3241D02*
X4120Y3241D01*
X4143Y3241D02*
X4188Y3241D01*
X4375Y3241D02*
X4420Y3241D01*
X4443Y3241D02*
X4488Y3241D01*
X4075Y3240D02*
X4120Y3240D01*
X4143Y3240D02*
X4188Y3240D01*
X4375Y3240D02*
X4420Y3240D01*
X4443Y3240D02*
X4488Y3240D01*
X4075Y3239D02*
X4120Y3239D01*
X4142Y3239D02*
X4188Y3239D01*
X4375Y3239D02*
X4420Y3239D01*
X4442Y3239D02*
X4488Y3239D01*
X4075Y3238D02*
X4120Y3238D01*
X4142Y3238D02*
X4187Y3238D01*
X4375Y3238D02*
X4420Y3238D01*
X4442Y3238D02*
X4487Y3238D01*
X4075Y3237D02*
X4121Y3237D01*
X4142Y3237D02*
X4187Y3237D01*
X4375Y3237D02*
X4421Y3237D01*
X4442Y3237D02*
X4487Y3237D01*
X4075Y3236D02*
X4121Y3236D01*
X4141Y3236D02*
X4187Y3236D01*
X4375Y3236D02*
X4421Y3236D01*
X4441Y3236D02*
X4487Y3236D01*
X4075Y3235D02*
X4122Y3235D01*
X4140Y3235D02*
X4187Y3235D01*
X4375Y3235D02*
X4422Y3235D01*
X4440Y3235D02*
X4487Y3235D01*
X4076Y3234D02*
X4123Y3234D01*
X4140Y3234D02*
X4187Y3234D01*
X4376Y3234D02*
X4423Y3234D01*
X4440Y3234D02*
X4487Y3234D01*
X4076Y3233D02*
X4124Y3233D01*
X4138Y3233D02*
X4186Y3233D01*
X4376Y3233D02*
X4424Y3233D01*
X4438Y3233D02*
X4486Y3233D01*
X4076Y3232D02*
X4125Y3232D01*
X4137Y3232D02*
X4186Y3232D01*
X4376Y3232D02*
X4425Y3232D01*
X4437Y3232D02*
X4486Y3232D01*
X4077Y3231D02*
X4128Y3231D01*
X4134Y3231D02*
X4186Y3231D01*
X4377Y3231D02*
X4428Y3231D01*
X4434Y3231D02*
X4486Y3231D01*
X4077Y3230D02*
X4185Y3230D01*
X4377Y3230D02*
X4485Y3230D01*
X4077Y3229D02*
X4185Y3229D01*
X4377Y3229D02*
X4485Y3229D01*
X4078Y3228D02*
X4184Y3228D01*
X4378Y3228D02*
X4484Y3228D01*
X4078Y3227D02*
X4184Y3227D01*
X4378Y3227D02*
X4484Y3227D01*
X4079Y3226D02*
X4183Y3226D01*
X4379Y3226D02*
X4483Y3226D01*
X4080Y3225D02*
X4183Y3225D01*
X4380Y3225D02*
X4483Y3225D01*
X4080Y3224D02*
X4182Y3224D01*
X4380Y3224D02*
X4482Y3224D01*
X4081Y3223D02*
X4181Y3223D01*
X4381Y3223D02*
X4481Y3223D01*
X4082Y3222D02*
X4181Y3222D01*
X4382Y3222D02*
X4481Y3222D01*
X4083Y3221D02*
X4180Y3221D01*
X4383Y3221D02*
X4480Y3221D01*
X4084Y3220D02*
X4179Y3220D01*
X4384Y3220D02*
X4479Y3220D01*
X4085Y3219D02*
X4178Y3219D01*
X4385Y3219D02*
X4478Y3219D01*
X4086Y3218D02*
X4177Y3218D01*
X4386Y3218D02*
X4477Y3218D01*
X4087Y3217D02*
X4175Y3217D01*
X4387Y3217D02*
X4475Y3217D01*
X4088Y3216D02*
X4174Y3216D01*
X4388Y3216D02*
X4474Y3216D01*
X4090Y3215D02*
X4172Y3215D01*
X4390Y3215D02*
X4472Y3215D01*
X4092Y3214D02*
X4170Y3214D01*
X4392Y3214D02*
X4470Y3214D01*
X4094Y3213D02*
X4168Y3213D01*
X4394Y3213D02*
X4468Y3213D01*
X4097Y3212D02*
X4165Y3212D01*
X4397Y3212D02*
X4465Y3212D01*
X4102Y3211D02*
X4161Y3211D01*
X4402Y3211D02*
X4461Y3211D01*
X4100Y3172D02*
X4163Y3172D01*
X4400Y3172D02*
X4463Y3172D01*
X4096Y3171D02*
X4166Y3171D01*
X4396Y3171D02*
X4466Y3171D01*
X4093Y3170D02*
X4169Y3170D01*
X4393Y3170D02*
X4469Y3170D01*
X4091Y3169D02*
X4171Y3169D01*
X4391Y3169D02*
X4471Y3169D01*
X4090Y3168D02*
X4173Y3168D01*
X4389Y3168D02*
X4473Y3168D01*
X4088Y3167D02*
X4174Y3167D01*
X4388Y3167D02*
X4474Y3167D01*
X4087Y3166D02*
X4176Y3166D01*
X4387Y3166D02*
X4476Y3166D01*
X4085Y3165D02*
X4177Y3165D01*
X4385Y3165D02*
X4477Y3165D01*
X4084Y3164D02*
X4178Y3164D01*
X4384Y3164D02*
X4478Y3164D01*
X4083Y3163D02*
X4179Y3163D01*
X4383Y3163D02*
X4479Y3163D01*
X4082Y3162D02*
X4180Y3162D01*
X4382Y3162D02*
X4480Y3162D01*
X4081Y3161D02*
X4181Y3161D01*
X4381Y3161D02*
X4481Y3161D01*
X4081Y3160D02*
X4182Y3160D01*
X4381Y3160D02*
X4482Y3160D01*
X4080Y3159D02*
X4182Y3159D01*
X4380Y3159D02*
X4482Y3159D01*
X4079Y3158D02*
X4183Y3158D01*
X4379Y3158D02*
X4483Y3158D01*
X4079Y3157D02*
X4183Y3157D01*
X4379Y3157D02*
X4483Y3157D01*
X4078Y3156D02*
X4184Y3156D01*
X4378Y3156D02*
X4484Y3156D01*
X4078Y3155D02*
X4185Y3155D01*
X4378Y3155D02*
X4485Y3155D01*
X4077Y3154D02*
X4185Y3154D01*
X4377Y3154D02*
X4485Y3154D01*
X4077Y3153D02*
X4185Y3153D01*
X4377Y3153D02*
X4485Y3153D01*
X4077Y3152D02*
X4127Y3152D01*
X4136Y3152D02*
X4186Y3152D01*
X4377Y3152D02*
X4427Y3152D01*
X4436Y3152D02*
X4486Y3152D01*
X4076Y3151D02*
X4125Y3151D01*
X4138Y3151D02*
X4186Y3151D01*
X4376Y3151D02*
X4425Y3151D01*
X4438Y3151D02*
X4486Y3151D01*
X4076Y3150D02*
X4124Y3150D01*
X4139Y3150D02*
X4186Y3150D01*
X4376Y3150D02*
X4424Y3150D01*
X4439Y3150D02*
X4486Y3150D01*
X4076Y3149D02*
X4123Y3149D01*
X4140Y3149D02*
X4187Y3149D01*
X4376Y3149D02*
X4422Y3149D01*
X4440Y3149D02*
X4487Y3149D01*
X4075Y3148D02*
X4122Y3148D01*
X4141Y3148D02*
X4187Y3148D01*
X4375Y3148D02*
X4422Y3148D01*
X4441Y3148D02*
X4487Y3148D01*
X4075Y3147D02*
X4121Y3147D01*
X4141Y3147D02*
X4187Y3147D01*
X4375Y3147D02*
X4421Y3147D01*
X4441Y3147D02*
X4487Y3147D01*
X4075Y3146D02*
X4120Y3146D01*
X4142Y3146D02*
X4187Y3146D01*
X4375Y3146D02*
X4420Y3146D01*
X4442Y3146D02*
X4487Y3146D01*
X4075Y3145D02*
X4120Y3145D01*
X4142Y3145D02*
X4187Y3145D01*
X4375Y3145D02*
X4420Y3145D01*
X4442Y3145D02*
X4487Y3145D01*
X4075Y3144D02*
X4120Y3144D01*
X4142Y3144D02*
X4188Y3144D01*
X4375Y3144D02*
X4420Y3144D01*
X4442Y3144D02*
X4488Y3144D01*
X4075Y3143D02*
X4120Y3143D01*
X4143Y3143D02*
X4188Y3143D01*
X4375Y3143D02*
X4420Y3143D01*
X4443Y3143D02*
X4488Y3143D01*
X4075Y3142D02*
X4120Y3142D01*
X4143Y3142D02*
X4188Y3142D01*
X4375Y3142D02*
X4420Y3142D01*
X4443Y3142D02*
X4488Y3142D01*
X4075Y3141D02*
X4120Y3141D01*
X4143Y3141D02*
X4188Y3141D01*
X4375Y3141D02*
X4420Y3141D01*
X4443Y3141D02*
X4488Y3141D01*
X4075Y3140D02*
X4120Y3140D01*
X4143Y3140D02*
X4188Y3140D01*
X4375Y3140D02*
X4420Y3140D01*
X4443Y3140D02*
X4488Y3140D01*
X4075Y3139D02*
X4120Y3139D01*
X4142Y3139D02*
X4188Y3139D01*
X4375Y3139D02*
X4420Y3139D01*
X4442Y3139D02*
X4488Y3139D01*
X4075Y3138D02*
X4120Y3138D01*
X4142Y3138D02*
X4187Y3138D01*
X4375Y3138D02*
X4420Y3138D01*
X4442Y3138D02*
X4487Y3138D01*
X4075Y3137D02*
X4121Y3137D01*
X4142Y3137D02*
X4187Y3137D01*
X4375Y3137D02*
X4421Y3137D01*
X4442Y3137D02*
X4487Y3137D01*
X4075Y3136D02*
X4121Y3136D01*
X4141Y3136D02*
X4187Y3136D01*
X4375Y3136D02*
X4421Y3136D01*
X4441Y3136D02*
X4487Y3136D01*
X4075Y3135D02*
X4122Y3135D01*
X4140Y3135D02*
X4187Y3135D01*
X4375Y3135D02*
X4422Y3135D01*
X4440Y3135D02*
X4487Y3135D01*
X4076Y3134D02*
X4123Y3134D01*
X4140Y3134D02*
X4187Y3134D01*
X4376Y3134D02*
X4423Y3134D01*
X4440Y3134D02*
X4487Y3134D01*
X4076Y3133D02*
X4124Y3133D01*
X4138Y3133D02*
X4186Y3133D01*
X4376Y3133D02*
X4424Y3133D01*
X4438Y3133D02*
X4486Y3133D01*
X4076Y3132D02*
X4125Y3132D01*
X4137Y3132D02*
X4186Y3132D01*
X4376Y3132D02*
X4425Y3132D01*
X4437Y3132D02*
X4486Y3132D01*
X4077Y3131D02*
X4128Y3131D01*
X4134Y3131D02*
X4186Y3131D01*
X4377Y3131D02*
X4428Y3131D01*
X4434Y3131D02*
X4486Y3131D01*
X4077Y3130D02*
X4185Y3130D01*
X4377Y3130D02*
X4485Y3130D01*
X4077Y3129D02*
X4185Y3129D01*
X4377Y3129D02*
X4485Y3129D01*
X4078Y3128D02*
X4184Y3128D01*
X4378Y3128D02*
X4484Y3128D01*
X4078Y3127D02*
X4184Y3127D01*
X4378Y3127D02*
X4484Y3127D01*
X4079Y3126D02*
X4183Y3126D01*
X4379Y3126D02*
X4483Y3126D01*
X4080Y3125D02*
X4183Y3125D01*
X4380Y3125D02*
X4483Y3125D01*
X4080Y3124D02*
X4182Y3124D01*
X4380Y3124D02*
X4482Y3124D01*
X4081Y3123D02*
X4181Y3123D01*
X4381Y3123D02*
X4481Y3123D01*
X4082Y3122D02*
X4181Y3122D01*
X4382Y3122D02*
X4481Y3122D01*
X4083Y3121D02*
X4180Y3121D01*
X4383Y3121D02*
X4480Y3121D01*
X4084Y3120D02*
X4179Y3120D01*
X4384Y3120D02*
X4479Y3120D01*
X4085Y3119D02*
X4178Y3119D01*
X4385Y3119D02*
X4478Y3119D01*
X4086Y3118D02*
X4177Y3118D01*
X4386Y3118D02*
X4477Y3118D01*
X4087Y3117D02*
X4175Y3117D01*
X4387Y3117D02*
X4475Y3117D01*
X4088Y3116D02*
X4174Y3116D01*
X4388Y3116D02*
X4474Y3116D01*
X4090Y3115D02*
X4172Y3115D01*
X4390Y3115D02*
X4472Y3115D01*
X4092Y3114D02*
X4170Y3114D01*
X4392Y3114D02*
X4470Y3114D01*
X4094Y3113D02*
X4168Y3113D01*
X4394Y3113D02*
X4468Y3113D01*
X4097Y3112D02*
X4165Y3112D01*
X4397Y3112D02*
X4465Y3112D01*
X4102Y3111D02*
X4161Y3111D01*
X4402Y3111D02*
X4461Y3111D01*
X4100Y3072D02*
X4163Y3072D01*
X4400Y3072D02*
X4463Y3072D01*
X4096Y3071D02*
X4166Y3071D01*
X4396Y3071D02*
X4466Y3071D01*
X4093Y3070D02*
X4169Y3070D01*
X4393Y3070D02*
X4469Y3070D01*
X4091Y3069D02*
X4171Y3069D01*
X4391Y3069D02*
X4471Y3069D01*
X4090Y3068D02*
X4173Y3068D01*
X4389Y3068D02*
X4473Y3068D01*
X4088Y3067D02*
X4174Y3067D01*
X4388Y3067D02*
X4474Y3067D01*
X4087Y3066D02*
X4176Y3066D01*
X4387Y3066D02*
X4476Y3066D01*
X4085Y3065D02*
X4177Y3065D01*
X4385Y3065D02*
X4477Y3065D01*
X4084Y3064D02*
X4178Y3064D01*
X4384Y3064D02*
X4478Y3064D01*
X4083Y3063D02*
X4179Y3063D01*
X4383Y3063D02*
X4479Y3063D01*
X4082Y3062D02*
X4180Y3062D01*
X4382Y3062D02*
X4480Y3062D01*
X4081Y3061D02*
X4181Y3061D01*
X4381Y3061D02*
X4481Y3061D01*
X4081Y3060D02*
X4182Y3060D01*
X4381Y3060D02*
X4482Y3060D01*
X4080Y3059D02*
X4182Y3059D01*
X4380Y3059D02*
X4482Y3059D01*
X4079Y3058D02*
X4183Y3058D01*
X4379Y3058D02*
X4483Y3058D01*
X4079Y3057D02*
X4184Y3057D01*
X4379Y3057D02*
X4483Y3057D01*
X4078Y3056D02*
X4184Y3056D01*
X4378Y3056D02*
X4484Y3056D01*
X4078Y3055D02*
X4185Y3055D01*
X4378Y3055D02*
X4485Y3055D01*
X4077Y3054D02*
X4185Y3054D01*
X4377Y3054D02*
X4485Y3054D01*
X4077Y3053D02*
X4185Y3053D01*
X4377Y3053D02*
X4485Y3053D01*
X4077Y3052D02*
X4127Y3052D01*
X4136Y3052D02*
X4186Y3052D01*
X4377Y3052D02*
X4427Y3052D01*
X4436Y3052D02*
X4486Y3052D01*
X4076Y3051D02*
X4125Y3051D01*
X4138Y3051D02*
X4186Y3051D01*
X4376Y3051D02*
X4425Y3051D01*
X4438Y3051D02*
X4486Y3051D01*
X4076Y3050D02*
X4124Y3050D01*
X4139Y3050D02*
X4186Y3050D01*
X4376Y3050D02*
X4424Y3050D01*
X4439Y3050D02*
X4486Y3050D01*
X4076Y3049D02*
X4123Y3049D01*
X4140Y3049D02*
X4187Y3049D01*
X4376Y3049D02*
X4422Y3049D01*
X4440Y3049D02*
X4487Y3049D01*
X4075Y3048D02*
X4122Y3048D01*
X4141Y3048D02*
X4187Y3048D01*
X4375Y3048D02*
X4422Y3048D01*
X4441Y3048D02*
X4487Y3048D01*
X4075Y3047D02*
X4121Y3047D01*
X4141Y3047D02*
X4187Y3047D01*
X4375Y3047D02*
X4421Y3047D01*
X4441Y3047D02*
X4487Y3047D01*
X4075Y3046D02*
X4120Y3046D01*
X4142Y3046D02*
X4187Y3046D01*
X4375Y3046D02*
X4420Y3046D01*
X4442Y3046D02*
X4487Y3046D01*
X4075Y3045D02*
X4120Y3045D01*
X4142Y3045D02*
X4187Y3045D01*
X4375Y3045D02*
X4420Y3045D01*
X4442Y3045D02*
X4487Y3045D01*
X4075Y3044D02*
X4120Y3044D01*
X4142Y3044D02*
X4188Y3044D01*
X4375Y3044D02*
X4420Y3044D01*
X4442Y3044D02*
X4488Y3044D01*
X4075Y3043D02*
X4120Y3043D01*
X4143Y3043D02*
X4188Y3043D01*
X4375Y3043D02*
X4420Y3043D01*
X4443Y3043D02*
X4488Y3043D01*
X4075Y3042D02*
X4120Y3042D01*
X4143Y3042D02*
X4188Y3042D01*
X4375Y3042D02*
X4420Y3042D01*
X4443Y3042D02*
X4488Y3042D01*
X4075Y3041D02*
X4120Y3041D01*
X4143Y3041D02*
X4188Y3041D01*
X4375Y3041D02*
X4420Y3041D01*
X4443Y3041D02*
X4488Y3041D01*
X4075Y3040D02*
X4120Y3040D01*
X4143Y3040D02*
X4188Y3040D01*
X4375Y3040D02*
X4420Y3040D01*
X4443Y3040D02*
X4488Y3040D01*
X4075Y3039D02*
X4120Y3039D01*
X4142Y3039D02*
X4188Y3039D01*
X4375Y3039D02*
X4420Y3039D01*
X4442Y3039D02*
X4488Y3039D01*
X4075Y3038D02*
X4120Y3038D01*
X4142Y3038D02*
X4187Y3038D01*
X4375Y3038D02*
X4420Y3038D01*
X4442Y3038D02*
X4487Y3038D01*
X4075Y3037D02*
X4121Y3037D01*
X4142Y3037D02*
X4187Y3037D01*
X4375Y3037D02*
X4421Y3037D01*
X4442Y3037D02*
X4487Y3037D01*
X4075Y3036D02*
X4121Y3036D01*
X4141Y3036D02*
X4187Y3036D01*
X4375Y3036D02*
X4421Y3036D01*
X4441Y3036D02*
X4487Y3036D01*
X4075Y3035D02*
X4122Y3035D01*
X4140Y3035D02*
X4187Y3035D01*
X4375Y3035D02*
X4422Y3035D01*
X4440Y3035D02*
X4487Y3035D01*
X4076Y3034D02*
X4123Y3034D01*
X4140Y3034D02*
X4187Y3034D01*
X4376Y3034D02*
X4423Y3034D01*
X4439Y3034D02*
X4487Y3034D01*
X4076Y3033D02*
X4124Y3033D01*
X4138Y3033D02*
X4186Y3033D01*
X4376Y3033D02*
X4424Y3033D01*
X4438Y3033D02*
X4486Y3033D01*
X4076Y3032D02*
X4125Y3032D01*
X4137Y3032D02*
X4186Y3032D01*
X4376Y3032D02*
X4425Y3032D01*
X4437Y3032D02*
X4486Y3032D01*
X4077Y3031D02*
X4128Y3031D01*
X4134Y3031D02*
X4186Y3031D01*
X4377Y3031D02*
X4428Y3031D01*
X4434Y3031D02*
X4486Y3031D01*
X4077Y3030D02*
X4185Y3030D01*
X4377Y3030D02*
X4485Y3030D01*
X4078Y3029D02*
X4185Y3029D01*
X4377Y3029D02*
X4485Y3029D01*
X4078Y3028D02*
X4184Y3028D01*
X4378Y3028D02*
X4484Y3028D01*
X4078Y3027D02*
X4184Y3027D01*
X4378Y3027D02*
X4484Y3027D01*
X4079Y3026D02*
X4183Y3026D01*
X4379Y3026D02*
X4483Y3026D01*
X4080Y3025D02*
X4183Y3025D01*
X4380Y3025D02*
X4483Y3025D01*
X4080Y3024D02*
X4182Y3024D01*
X4380Y3024D02*
X4482Y3024D01*
X4081Y3023D02*
X4181Y3023D01*
X4381Y3023D02*
X4481Y3023D01*
X4082Y3022D02*
X4181Y3022D01*
X4382Y3022D02*
X4481Y3022D01*
X4083Y3021D02*
X4180Y3021D01*
X4383Y3021D02*
X4480Y3021D01*
X4084Y3020D02*
X4179Y3020D01*
X4384Y3020D02*
X4479Y3020D01*
X4085Y3019D02*
X4178Y3019D01*
X4385Y3019D02*
X4478Y3019D01*
X4086Y3018D02*
X4177Y3018D01*
X4386Y3018D02*
X4477Y3018D01*
X4087Y3017D02*
X4175Y3017D01*
X4387Y3017D02*
X4475Y3017D01*
X4088Y3016D02*
X4174Y3016D01*
X4388Y3016D02*
X4474Y3016D01*
X4090Y3015D02*
X4172Y3015D01*
X4390Y3015D02*
X4472Y3015D01*
X4092Y3014D02*
X4170Y3014D01*
X4392Y3014D02*
X4470Y3014D01*
X4094Y3013D02*
X4168Y3013D01*
X4394Y3013D02*
X4468Y3013D01*
X4097Y3012D02*
X4165Y3012D01*
X4397Y3012D02*
X4465Y3012D01*
X4102Y3011D02*
X4161Y3011D01*
X4402Y3011D02*
X4461Y3011D01*
X4099Y2472D02*
X4163Y2472D01*
X4399Y2472D02*
X4463Y2472D01*
X4096Y2471D02*
X4167Y2471D01*
X4396Y2471D02*
X4466Y2471D01*
X4093Y2470D02*
X4169Y2470D01*
X4393Y2470D02*
X4469Y2470D01*
X4091Y2469D02*
X4171Y2469D01*
X4391Y2469D02*
X4471Y2469D01*
X4089Y2468D02*
X4173Y2468D01*
X4389Y2468D02*
X4473Y2468D01*
X4088Y2467D02*
X4174Y2467D01*
X4388Y2467D02*
X4474Y2467D01*
X4087Y2466D02*
X4176Y2466D01*
X4386Y2466D02*
X4476Y2466D01*
X4085Y2465D02*
X4177Y2465D01*
X4385Y2465D02*
X4477Y2465D01*
X4084Y2464D02*
X4178Y2464D01*
X4384Y2464D02*
X4478Y2464D01*
X4083Y2463D02*
X4179Y2463D01*
X4383Y2463D02*
X4479Y2463D01*
X4082Y2462D02*
X4180Y2462D01*
X4382Y2462D02*
X4480Y2462D01*
X4081Y2461D02*
X4181Y2461D01*
X4381Y2461D02*
X4481Y2461D01*
X4081Y2460D02*
X4182Y2460D01*
X4381Y2460D02*
X4482Y2460D01*
X4080Y2459D02*
X4182Y2459D01*
X4380Y2459D02*
X4482Y2459D01*
X4079Y2458D02*
X4183Y2458D01*
X4379Y2458D02*
X4483Y2458D01*
X4079Y2457D02*
X4184Y2457D01*
X4379Y2457D02*
X4484Y2457D01*
X4078Y2456D02*
X4184Y2456D01*
X4378Y2456D02*
X4484Y2456D01*
X4078Y2455D02*
X4185Y2455D01*
X4378Y2455D02*
X4485Y2455D01*
X4077Y2454D02*
X4185Y2454D01*
X4377Y2454D02*
X4485Y2454D01*
X4077Y2453D02*
X4185Y2453D01*
X4377Y2453D02*
X4485Y2453D01*
X4077Y2452D02*
X4127Y2452D01*
X4136Y2452D02*
X4186Y2452D01*
X4377Y2452D02*
X4427Y2452D01*
X4436Y2452D02*
X4486Y2452D01*
X4076Y2451D02*
X4125Y2451D01*
X4138Y2451D02*
X4186Y2451D01*
X4376Y2451D02*
X4425Y2451D01*
X4438Y2451D02*
X4486Y2451D01*
X4076Y2450D02*
X4123Y2450D01*
X4139Y2450D02*
X4186Y2450D01*
X4376Y2450D02*
X4423Y2450D01*
X4439Y2450D02*
X4486Y2450D01*
X4076Y2449D02*
X4122Y2449D01*
X4140Y2449D02*
X4187Y2449D01*
X4376Y2449D02*
X4422Y2449D01*
X4440Y2449D02*
X4487Y2449D01*
X4075Y2448D02*
X4122Y2448D01*
X4141Y2448D02*
X4187Y2448D01*
X4375Y2448D02*
X4422Y2448D01*
X4441Y2448D02*
X4487Y2448D01*
X4075Y2447D02*
X4121Y2447D01*
X4141Y2447D02*
X4187Y2447D01*
X4375Y2447D02*
X4421Y2447D01*
X4441Y2447D02*
X4487Y2447D01*
X4075Y2446D02*
X4120Y2446D01*
X4142Y2446D02*
X4187Y2446D01*
X4375Y2446D02*
X4420Y2446D01*
X4442Y2446D02*
X4487Y2446D01*
X4075Y2445D02*
X4120Y2445D01*
X4142Y2445D02*
X4187Y2445D01*
X4375Y2445D02*
X4420Y2445D01*
X4442Y2445D02*
X4487Y2445D01*
X4075Y2444D02*
X4120Y2444D01*
X4142Y2444D02*
X4188Y2444D01*
X4375Y2444D02*
X4420Y2444D01*
X4442Y2444D02*
X4488Y2444D01*
X4075Y2443D02*
X4120Y2443D01*
X4143Y2443D02*
X4188Y2443D01*
X4375Y2443D02*
X4420Y2443D01*
X4443Y2443D02*
X4488Y2443D01*
X4075Y2442D02*
X4120Y2442D01*
X4143Y2442D02*
X4188Y2442D01*
X4375Y2442D02*
X4420Y2442D01*
X4443Y2442D02*
X4488Y2442D01*
X4075Y2441D02*
X4120Y2441D01*
X4143Y2441D02*
X4188Y2441D01*
X4375Y2441D02*
X4420Y2441D01*
X4443Y2441D02*
X4488Y2441D01*
X4075Y2440D02*
X4120Y2440D01*
X4143Y2440D02*
X4188Y2440D01*
X4375Y2440D02*
X4420Y2440D01*
X4443Y2440D02*
X4488Y2440D01*
X4075Y2439D02*
X4120Y2439D01*
X4142Y2439D02*
X4188Y2439D01*
X4375Y2439D02*
X4420Y2439D01*
X4442Y2439D02*
X4488Y2439D01*
X4075Y2438D02*
X4120Y2438D01*
X4142Y2438D02*
X4187Y2438D01*
X4375Y2438D02*
X4420Y2438D01*
X4442Y2438D02*
X4487Y2438D01*
X4075Y2437D02*
X4121Y2437D01*
X4142Y2437D02*
X4187Y2437D01*
X4375Y2437D02*
X4421Y2437D01*
X4442Y2437D02*
X4487Y2437D01*
X4075Y2436D02*
X4121Y2436D01*
X4141Y2436D02*
X4187Y2436D01*
X4375Y2436D02*
X4421Y2436D01*
X4441Y2436D02*
X4487Y2436D01*
X4075Y2435D02*
X4122Y2435D01*
X4140Y2435D02*
X4187Y2435D01*
X4375Y2435D02*
X4422Y2435D01*
X4440Y2435D02*
X4487Y2435D01*
X4076Y2434D02*
X4123Y2434D01*
X4139Y2434D02*
X4187Y2434D01*
X4376Y2434D02*
X4423Y2434D01*
X4439Y2434D02*
X4487Y2434D01*
X4076Y2433D02*
X4124Y2433D01*
X4138Y2433D02*
X4186Y2433D01*
X4376Y2433D02*
X4424Y2433D01*
X4438Y2433D02*
X4486Y2433D01*
X4076Y2432D02*
X4125Y2432D01*
X4137Y2432D02*
X4186Y2432D01*
X4376Y2432D02*
X4425Y2432D01*
X4437Y2432D02*
X4486Y2432D01*
X4077Y2431D02*
X4128Y2431D01*
X4134Y2431D02*
X4186Y2431D01*
X4377Y2431D02*
X4428Y2431D01*
X4434Y2431D02*
X4486Y2431D01*
X4077Y2430D02*
X4185Y2430D01*
X4377Y2430D02*
X4485Y2430D01*
X4078Y2429D02*
X4185Y2429D01*
X4377Y2429D02*
X4485Y2429D01*
X4078Y2428D02*
X4184Y2428D01*
X4378Y2428D02*
X4484Y2428D01*
X4078Y2427D02*
X4184Y2427D01*
X4378Y2427D02*
X4484Y2427D01*
X4079Y2426D02*
X4183Y2426D01*
X4379Y2426D02*
X4483Y2426D01*
X4080Y2425D02*
X4183Y2425D01*
X4380Y2425D02*
X4483Y2425D01*
X4080Y2424D02*
X4182Y2424D01*
X4380Y2424D02*
X4482Y2424D01*
X4081Y2423D02*
X4181Y2423D01*
X4381Y2423D02*
X4481Y2423D01*
X4082Y2422D02*
X4181Y2422D01*
X4382Y2422D02*
X4481Y2422D01*
X4083Y2421D02*
X4180Y2421D01*
X4383Y2421D02*
X4480Y2421D01*
X4084Y2420D02*
X4179Y2420D01*
X4384Y2420D02*
X4479Y2420D01*
X4085Y2419D02*
X4178Y2419D01*
X4385Y2419D02*
X4478Y2419D01*
X4086Y2418D02*
X4177Y2418D01*
X4386Y2418D02*
X4477Y2418D01*
X4087Y2417D02*
X4175Y2417D01*
X4387Y2417D02*
X4475Y2417D01*
X4088Y2416D02*
X4174Y2416D01*
X4388Y2416D02*
X4474Y2416D01*
X4090Y2415D02*
X4172Y2415D01*
X4390Y2415D02*
X4472Y2415D01*
X4092Y2414D02*
X4170Y2414D01*
X4392Y2414D02*
X4470Y2414D01*
X4094Y2413D02*
X4168Y2413D01*
X4394Y2413D02*
X4468Y2413D01*
X4097Y2412D02*
X4165Y2412D01*
X4397Y2412D02*
X4465Y2412D01*
X4102Y2411D02*
X4161Y2411D01*
X4402Y2411D02*
X4461Y2411D01*
X4099Y2372D02*
X4163Y2372D01*
X4399Y2372D02*
X4463Y2372D01*
X4096Y2371D02*
X4167Y2371D01*
X4396Y2371D02*
X4466Y2371D01*
X4093Y2370D02*
X4169Y2370D01*
X4393Y2370D02*
X4469Y2370D01*
X4091Y2369D02*
X4171Y2369D01*
X4391Y2369D02*
X4471Y2369D01*
X4089Y2368D02*
X4173Y2368D01*
X4389Y2368D02*
X4473Y2368D01*
X4088Y2367D02*
X4174Y2367D01*
X4388Y2367D02*
X4474Y2367D01*
X4086Y2366D02*
X4176Y2366D01*
X4386Y2366D02*
X4476Y2366D01*
X4085Y2365D02*
X4177Y2365D01*
X4385Y2365D02*
X4477Y2365D01*
X4084Y2364D02*
X4178Y2364D01*
X4384Y2364D02*
X4478Y2364D01*
X4083Y2363D02*
X4179Y2363D01*
X4383Y2363D02*
X4479Y2363D01*
X4082Y2362D02*
X4180Y2362D01*
X4382Y2362D02*
X4480Y2362D01*
X4081Y2361D02*
X4181Y2361D01*
X4381Y2361D02*
X4481Y2361D01*
X4081Y2360D02*
X4182Y2360D01*
X4381Y2360D02*
X4482Y2360D01*
X4080Y2359D02*
X4182Y2359D01*
X4380Y2359D02*
X4482Y2359D01*
X4079Y2358D02*
X4183Y2358D01*
X4379Y2358D02*
X4483Y2358D01*
X4079Y2357D02*
X4184Y2357D01*
X4379Y2357D02*
X4484Y2357D01*
X4078Y2356D02*
X4184Y2356D01*
X4378Y2356D02*
X4484Y2356D01*
X4078Y2355D02*
X4185Y2355D01*
X4378Y2355D02*
X4485Y2355D01*
X4077Y2354D02*
X4185Y2354D01*
X4377Y2354D02*
X4485Y2354D01*
X4077Y2353D02*
X4185Y2353D01*
X4377Y2353D02*
X4485Y2353D01*
X4077Y2352D02*
X4127Y2352D01*
X4136Y2352D02*
X4186Y2352D01*
X4377Y2352D02*
X4427Y2352D01*
X4436Y2352D02*
X4486Y2352D01*
X4076Y2351D02*
X4125Y2351D01*
X4138Y2351D02*
X4186Y2351D01*
X4376Y2351D02*
X4425Y2351D01*
X4438Y2351D02*
X4486Y2351D01*
X4076Y2350D02*
X4123Y2350D01*
X4139Y2350D02*
X4186Y2350D01*
X4376Y2350D02*
X4423Y2350D01*
X4439Y2350D02*
X4486Y2350D01*
X4076Y2349D02*
X4122Y2349D01*
X4140Y2349D02*
X4187Y2349D01*
X4376Y2349D02*
X4422Y2349D01*
X4440Y2349D02*
X4487Y2349D01*
X4075Y2348D02*
X4122Y2348D01*
X4141Y2348D02*
X4187Y2348D01*
X4375Y2348D02*
X4422Y2348D01*
X4441Y2348D02*
X4487Y2348D01*
X4075Y2347D02*
X4121Y2347D01*
X4141Y2347D02*
X4187Y2347D01*
X4375Y2347D02*
X4421Y2347D01*
X4441Y2347D02*
X4487Y2347D01*
X4075Y2346D02*
X4120Y2346D01*
X4142Y2346D02*
X4187Y2346D01*
X4375Y2346D02*
X4420Y2346D01*
X4442Y2346D02*
X4487Y2346D01*
X4075Y2345D02*
X4120Y2345D01*
X4142Y2345D02*
X4187Y2345D01*
X4375Y2345D02*
X4420Y2345D01*
X4442Y2345D02*
X4487Y2345D01*
X4075Y2344D02*
X4120Y2344D01*
X4142Y2344D02*
X4188Y2344D01*
X4375Y2344D02*
X4420Y2344D01*
X4442Y2344D02*
X4488Y2344D01*
X4075Y2343D02*
X4120Y2343D01*
X4143Y2343D02*
X4188Y2343D01*
X4375Y2343D02*
X4420Y2343D01*
X4443Y2343D02*
X4488Y2343D01*
X4075Y2342D02*
X4120Y2342D01*
X4143Y2342D02*
X4188Y2342D01*
X4375Y2342D02*
X4420Y2342D01*
X4443Y2342D02*
X4488Y2342D01*
X4075Y2341D02*
X4120Y2341D01*
X4143Y2341D02*
X4188Y2341D01*
X4375Y2341D02*
X4420Y2341D01*
X4443Y2341D02*
X4488Y2341D01*
X4075Y2340D02*
X4120Y2340D01*
X4143Y2340D02*
X4188Y2340D01*
X4375Y2340D02*
X4420Y2340D01*
X4443Y2340D02*
X4488Y2340D01*
X4075Y2339D02*
X4120Y2339D01*
X4142Y2339D02*
X4188Y2339D01*
X4375Y2339D02*
X4420Y2339D01*
X4442Y2339D02*
X4488Y2339D01*
X4075Y2338D02*
X4120Y2338D01*
X4142Y2338D02*
X4187Y2338D01*
X4375Y2338D02*
X4420Y2338D01*
X4442Y2338D02*
X4487Y2338D01*
X4075Y2337D02*
X4121Y2337D01*
X4142Y2337D02*
X4187Y2337D01*
X4375Y2337D02*
X4421Y2337D01*
X4442Y2337D02*
X4487Y2337D01*
X4075Y2336D02*
X4121Y2336D01*
X4141Y2336D02*
X4187Y2336D01*
X4375Y2336D02*
X4421Y2336D01*
X4441Y2336D02*
X4487Y2336D01*
X4075Y2335D02*
X4122Y2335D01*
X4140Y2335D02*
X4187Y2335D01*
X4375Y2335D02*
X4422Y2335D01*
X4440Y2335D02*
X4487Y2335D01*
X4076Y2334D02*
X4123Y2334D01*
X4139Y2334D02*
X4187Y2334D01*
X4376Y2334D02*
X4423Y2334D01*
X4439Y2334D02*
X4487Y2334D01*
X4076Y2333D02*
X4124Y2333D01*
X4138Y2333D02*
X4186Y2333D01*
X4376Y2333D02*
X4424Y2333D01*
X4438Y2333D02*
X4486Y2333D01*
X4076Y2332D02*
X4125Y2332D01*
X4137Y2332D02*
X4186Y2332D01*
X4376Y2332D02*
X4425Y2332D01*
X4437Y2332D02*
X4486Y2332D01*
X4077Y2331D02*
X4128Y2331D01*
X4134Y2331D02*
X4186Y2331D01*
X4377Y2331D02*
X4428Y2331D01*
X4434Y2331D02*
X4486Y2331D01*
X4077Y2330D02*
X4185Y2330D01*
X4377Y2330D02*
X4485Y2330D01*
X4078Y2329D02*
X4185Y2329D01*
X4378Y2329D02*
X4485Y2329D01*
X4078Y2328D02*
X4184Y2328D01*
X4378Y2328D02*
X4484Y2328D01*
X4078Y2327D02*
X4184Y2327D01*
X4378Y2327D02*
X4484Y2327D01*
X4079Y2326D02*
X4183Y2326D01*
X4379Y2326D02*
X4483Y2326D01*
X4080Y2325D02*
X4183Y2325D01*
X4380Y2325D02*
X4483Y2325D01*
X4080Y2324D02*
X4182Y2324D01*
X4380Y2324D02*
X4482Y2324D01*
X4081Y2323D02*
X4181Y2323D01*
X4381Y2323D02*
X4481Y2323D01*
X4082Y2322D02*
X4181Y2322D01*
X4382Y2322D02*
X4481Y2322D01*
X4083Y2321D02*
X4180Y2321D01*
X4383Y2321D02*
X4480Y2321D01*
X4084Y2320D02*
X4179Y2320D01*
X4384Y2320D02*
X4479Y2320D01*
X4085Y2319D02*
X4178Y2319D01*
X4385Y2319D02*
X4478Y2319D01*
X4086Y2318D02*
X4177Y2318D01*
X4386Y2318D02*
X4477Y2318D01*
X4087Y2317D02*
X4175Y2317D01*
X4387Y2317D02*
X4475Y2317D01*
X4088Y2316D02*
X4174Y2316D01*
X4388Y2316D02*
X4474Y2316D01*
X4090Y2315D02*
X4172Y2315D01*
X4390Y2315D02*
X4472Y2315D01*
X4092Y2314D02*
X4170Y2314D01*
X4392Y2314D02*
X4470Y2314D01*
X4094Y2313D02*
X4168Y2313D01*
X4394Y2313D02*
X4468Y2313D01*
X4097Y2312D02*
X4165Y2312D01*
X4397Y2312D02*
X4465Y2312D01*
X4102Y2311D02*
X4161Y2311D01*
X4402Y2311D02*
X4461Y2311D01*
X4099Y2272D02*
X4163Y2272D01*
X4399Y2272D02*
X4463Y2272D01*
X4096Y2271D02*
X4167Y2271D01*
X4396Y2271D02*
X4466Y2271D01*
X4093Y2270D02*
X4169Y2270D01*
X4393Y2270D02*
X4469Y2270D01*
X4091Y2269D02*
X4171Y2269D01*
X4391Y2269D02*
X4471Y2269D01*
X4089Y2268D02*
X4173Y2268D01*
X4389Y2268D02*
X4473Y2268D01*
X4088Y2267D02*
X4174Y2267D01*
X4388Y2267D02*
X4474Y2267D01*
X4086Y2266D02*
X4176Y2266D01*
X4386Y2266D02*
X4476Y2266D01*
X4085Y2265D02*
X4177Y2265D01*
X4385Y2265D02*
X4477Y2265D01*
X4084Y2264D02*
X4178Y2264D01*
X4384Y2264D02*
X4478Y2264D01*
X4083Y2263D02*
X4179Y2263D01*
X4383Y2263D02*
X4479Y2263D01*
X4082Y2262D02*
X4180Y2262D01*
X4382Y2262D02*
X4480Y2262D01*
X4081Y2261D02*
X4181Y2261D01*
X4381Y2261D02*
X4481Y2261D01*
X4081Y2260D02*
X4182Y2260D01*
X4381Y2260D02*
X4482Y2260D01*
X4080Y2259D02*
X4182Y2259D01*
X4380Y2259D02*
X4482Y2259D01*
X4079Y2258D02*
X4183Y2258D01*
X4379Y2258D02*
X4483Y2258D01*
X4079Y2257D02*
X4184Y2257D01*
X4379Y2257D02*
X4484Y2257D01*
X4078Y2256D02*
X4184Y2256D01*
X4378Y2256D02*
X4484Y2256D01*
X4078Y2255D02*
X4185Y2255D01*
X4378Y2255D02*
X4485Y2255D01*
X4077Y2254D02*
X4185Y2254D01*
X4377Y2254D02*
X4485Y2254D01*
X4077Y2253D02*
X4185Y2253D01*
X4377Y2253D02*
X4485Y2253D01*
X4077Y2252D02*
X4127Y2252D01*
X4136Y2252D02*
X4186Y2252D01*
X4377Y2252D02*
X4427Y2252D01*
X4436Y2252D02*
X4486Y2252D01*
X4076Y2251D02*
X4125Y2251D01*
X4138Y2251D02*
X4186Y2251D01*
X4376Y2251D02*
X4425Y2251D01*
X4438Y2251D02*
X4486Y2251D01*
X4076Y2250D02*
X4123Y2250D01*
X4139Y2250D02*
X4186Y2250D01*
X4376Y2250D02*
X4423Y2250D01*
X4439Y2250D02*
X4486Y2250D01*
X4076Y2249D02*
X4122Y2249D01*
X4140Y2249D02*
X4187Y2249D01*
X4376Y2249D02*
X4422Y2249D01*
X4440Y2249D02*
X4487Y2249D01*
X4075Y2248D02*
X4122Y2248D01*
X4141Y2248D02*
X4187Y2248D01*
X4375Y2248D02*
X4422Y2248D01*
X4441Y2248D02*
X4487Y2248D01*
X4075Y2247D02*
X4121Y2247D01*
X4141Y2247D02*
X4187Y2247D01*
X4375Y2247D02*
X4421Y2247D01*
X4441Y2247D02*
X4487Y2247D01*
X4075Y2246D02*
X4120Y2246D01*
X4142Y2246D02*
X4187Y2246D01*
X4375Y2246D02*
X4420Y2246D01*
X4442Y2246D02*
X4487Y2246D01*
X4075Y2245D02*
X4120Y2245D01*
X4142Y2245D02*
X4187Y2245D01*
X4375Y2245D02*
X4420Y2245D01*
X4442Y2245D02*
X4487Y2245D01*
X4075Y2244D02*
X4120Y2244D01*
X4142Y2244D02*
X4188Y2244D01*
X4375Y2244D02*
X4420Y2244D01*
X4442Y2244D02*
X4488Y2244D01*
X4075Y2243D02*
X4120Y2243D01*
X4143Y2243D02*
X4188Y2243D01*
X4375Y2243D02*
X4420Y2243D01*
X4443Y2243D02*
X4488Y2243D01*
X4075Y2242D02*
X4120Y2242D01*
X4143Y2242D02*
X4188Y2242D01*
X4375Y2242D02*
X4420Y2242D01*
X4443Y2242D02*
X4488Y2242D01*
X4075Y2241D02*
X4120Y2241D01*
X4143Y2241D02*
X4188Y2241D01*
X4375Y2241D02*
X4420Y2241D01*
X4443Y2241D02*
X4488Y2241D01*
X4075Y2240D02*
X4120Y2240D01*
X4143Y2240D02*
X4188Y2240D01*
X4375Y2240D02*
X4420Y2240D01*
X4443Y2240D02*
X4488Y2240D01*
X4075Y2239D02*
X4120Y2239D01*
X4142Y2239D02*
X4188Y2239D01*
X4375Y2239D02*
X4420Y2239D01*
X4442Y2239D02*
X4488Y2239D01*
X4075Y2238D02*
X4120Y2238D01*
X4142Y2238D02*
X4187Y2238D01*
X4375Y2238D02*
X4420Y2238D01*
X4442Y2238D02*
X4487Y2238D01*
X4075Y2237D02*
X4121Y2237D01*
X4142Y2237D02*
X4187Y2237D01*
X4375Y2237D02*
X4421Y2237D01*
X4442Y2237D02*
X4487Y2237D01*
X4075Y2236D02*
X4121Y2236D01*
X4141Y2236D02*
X4187Y2236D01*
X4375Y2236D02*
X4421Y2236D01*
X4441Y2236D02*
X4487Y2236D01*
X4075Y2235D02*
X4122Y2235D01*
X4140Y2235D02*
X4187Y2235D01*
X4375Y2235D02*
X4422Y2235D01*
X4440Y2235D02*
X4487Y2235D01*
X4076Y2234D02*
X4123Y2234D01*
X4139Y2234D02*
X4187Y2234D01*
X4376Y2234D02*
X4423Y2234D01*
X4439Y2234D02*
X4487Y2234D01*
X4076Y2233D02*
X4124Y2233D01*
X4138Y2233D02*
X4186Y2233D01*
X4376Y2233D02*
X4424Y2233D01*
X4438Y2233D02*
X4486Y2233D01*
X4076Y2232D02*
X4125Y2232D01*
X4137Y2232D02*
X4186Y2232D01*
X4376Y2232D02*
X4425Y2232D01*
X4437Y2232D02*
X4486Y2232D01*
X4077Y2231D02*
X4128Y2231D01*
X4134Y2231D02*
X4186Y2231D01*
X4377Y2231D02*
X4428Y2231D01*
X4434Y2231D02*
X4486Y2231D01*
X4077Y2230D02*
X4185Y2230D01*
X4377Y2230D02*
X4485Y2230D01*
X4078Y2229D02*
X4185Y2229D01*
X4378Y2229D02*
X4485Y2229D01*
X4078Y2228D02*
X4184Y2228D01*
X4378Y2228D02*
X4484Y2228D01*
X4078Y2227D02*
X4184Y2227D01*
X4378Y2227D02*
X4484Y2227D01*
X4079Y2226D02*
X4183Y2226D01*
X4379Y2226D02*
X4483Y2226D01*
X4080Y2225D02*
X4183Y2225D01*
X4380Y2225D02*
X4483Y2225D01*
X4080Y2224D02*
X4182Y2224D01*
X4380Y2224D02*
X4482Y2224D01*
X4081Y2223D02*
X4181Y2223D01*
X4381Y2223D02*
X4481Y2223D01*
X4082Y2222D02*
X4181Y2222D01*
X4382Y2222D02*
X4481Y2222D01*
X4083Y2221D02*
X4180Y2221D01*
X4383Y2221D02*
X4480Y2221D01*
X4084Y2220D02*
X4179Y2220D01*
X4384Y2220D02*
X4479Y2220D01*
X4085Y2219D02*
X4178Y2219D01*
X4385Y2219D02*
X4478Y2219D01*
X4086Y2218D02*
X4177Y2218D01*
X4386Y2218D02*
X4477Y2218D01*
X4087Y2217D02*
X4175Y2217D01*
X4387Y2217D02*
X4475Y2217D01*
X4088Y2216D02*
X4174Y2216D01*
X4388Y2216D02*
X4474Y2216D01*
X4090Y2215D02*
X4172Y2215D01*
X4390Y2215D02*
X4472Y2215D01*
X4092Y2214D02*
X4170Y2214D01*
X4392Y2214D02*
X4470Y2214D01*
X4094Y2213D02*
X4168Y2213D01*
X4394Y2213D02*
X4468Y2213D01*
X4097Y2212D02*
X4165Y2212D01*
X4397Y2212D02*
X4465Y2212D01*
X4102Y2211D02*
X4160Y2211D01*
X4402Y2211D02*
X4460Y2211D01*
X4099Y2172D02*
X4163Y2172D01*
X4399Y2172D02*
X4463Y2172D01*
X4096Y2171D02*
X4167Y2171D01*
X4396Y2171D02*
X4467Y2171D01*
X4093Y2170D02*
X4169Y2170D01*
X4393Y2170D02*
X4469Y2170D01*
X4091Y2169D02*
X4171Y2169D01*
X4391Y2169D02*
X4471Y2169D01*
X4089Y2168D02*
X4173Y2168D01*
X4389Y2168D02*
X4473Y2168D01*
X4088Y2167D02*
X4174Y2167D01*
X4388Y2167D02*
X4474Y2167D01*
X4086Y2166D02*
X4176Y2166D01*
X4386Y2166D02*
X4476Y2166D01*
X4085Y2165D02*
X4177Y2165D01*
X4385Y2165D02*
X4477Y2165D01*
X4084Y2164D02*
X4178Y2164D01*
X4384Y2164D02*
X4478Y2164D01*
X4083Y2163D02*
X4179Y2163D01*
X4383Y2163D02*
X4479Y2163D01*
X4082Y2162D02*
X4180Y2162D01*
X4382Y2162D02*
X4480Y2162D01*
X4081Y2161D02*
X4181Y2161D01*
X4381Y2161D02*
X4481Y2161D01*
X4081Y2160D02*
X4182Y2160D01*
X4381Y2160D02*
X4482Y2160D01*
X4080Y2159D02*
X4182Y2159D01*
X4380Y2159D02*
X4482Y2159D01*
X4079Y2158D02*
X4183Y2158D01*
X4379Y2158D02*
X4483Y2158D01*
X4079Y2157D02*
X4184Y2157D01*
X4379Y2157D02*
X4484Y2157D01*
X4078Y2156D02*
X4184Y2156D01*
X4378Y2156D02*
X4484Y2156D01*
X4078Y2155D02*
X4185Y2155D01*
X4378Y2155D02*
X4485Y2155D01*
X4077Y2154D02*
X4185Y2154D01*
X4377Y2154D02*
X4485Y2154D01*
X4077Y2153D02*
X4185Y2153D01*
X4377Y2153D02*
X4485Y2153D01*
X4077Y2152D02*
X4127Y2152D01*
X4136Y2152D02*
X4186Y2152D01*
X4377Y2152D02*
X4427Y2152D01*
X4436Y2152D02*
X4486Y2152D01*
X4076Y2151D02*
X4125Y2151D01*
X4138Y2151D02*
X4186Y2151D01*
X4376Y2151D02*
X4425Y2151D01*
X4438Y2151D02*
X4486Y2151D01*
X4076Y2150D02*
X4123Y2150D01*
X4139Y2150D02*
X4186Y2150D01*
X4376Y2150D02*
X4423Y2150D01*
X4439Y2150D02*
X4486Y2150D01*
X4076Y2149D02*
X4122Y2149D01*
X4140Y2149D02*
X4187Y2149D01*
X4376Y2149D02*
X4422Y2149D01*
X4440Y2149D02*
X4487Y2149D01*
X4075Y2148D02*
X4122Y2148D01*
X4141Y2148D02*
X4187Y2148D01*
X4375Y2148D02*
X4422Y2148D01*
X4441Y2148D02*
X4487Y2148D01*
X4075Y2147D02*
X4121Y2147D01*
X4141Y2147D02*
X4187Y2147D01*
X4375Y2147D02*
X4421Y2147D01*
X4441Y2147D02*
X4487Y2147D01*
X4075Y2146D02*
X4120Y2146D01*
X4142Y2146D02*
X4187Y2146D01*
X4375Y2146D02*
X4420Y2146D01*
X4442Y2146D02*
X4487Y2146D01*
X4075Y2145D02*
X4120Y2145D01*
X4142Y2145D02*
X4187Y2145D01*
X4375Y2145D02*
X4420Y2145D01*
X4442Y2145D02*
X4487Y2145D01*
X4075Y2144D02*
X4120Y2144D01*
X4142Y2144D02*
X4188Y2144D01*
X4375Y2144D02*
X4420Y2144D01*
X4442Y2144D02*
X4488Y2144D01*
X4075Y2143D02*
X4120Y2143D01*
X4143Y2143D02*
X4188Y2143D01*
X4375Y2143D02*
X4420Y2143D01*
X4443Y2143D02*
X4488Y2143D01*
X4075Y2142D02*
X4120Y2142D01*
X4143Y2142D02*
X4188Y2142D01*
X4375Y2142D02*
X4420Y2142D01*
X4443Y2142D02*
X4488Y2142D01*
X4075Y2141D02*
X4120Y2141D01*
X4143Y2141D02*
X4188Y2141D01*
X4375Y2141D02*
X4420Y2141D01*
X4443Y2141D02*
X4488Y2141D01*
X4075Y2140D02*
X4120Y2140D01*
X4143Y2140D02*
X4188Y2140D01*
X4375Y2140D02*
X4420Y2140D01*
X4443Y2140D02*
X4488Y2140D01*
X4075Y2139D02*
X4120Y2139D01*
X4142Y2139D02*
X4188Y2139D01*
X4375Y2139D02*
X4420Y2139D01*
X4442Y2139D02*
X4488Y2139D01*
X4075Y2138D02*
X4120Y2138D01*
X4142Y2138D02*
X4187Y2138D01*
X4375Y2138D02*
X4420Y2138D01*
X4442Y2138D02*
X4487Y2138D01*
X4075Y2137D02*
X4121Y2137D01*
X4142Y2137D02*
X4187Y2137D01*
X4375Y2137D02*
X4421Y2137D01*
X4442Y2137D02*
X4487Y2137D01*
X4075Y2136D02*
X4121Y2136D01*
X4141Y2136D02*
X4187Y2136D01*
X4375Y2136D02*
X4421Y2136D01*
X4441Y2136D02*
X4487Y2136D01*
X4075Y2135D02*
X4122Y2135D01*
X4140Y2135D02*
X4187Y2135D01*
X4375Y2135D02*
X4422Y2135D01*
X4440Y2135D02*
X4487Y2135D01*
X4076Y2134D02*
X4123Y2134D01*
X4139Y2134D02*
X4187Y2134D01*
X4376Y2134D02*
X4423Y2134D01*
X4439Y2134D02*
X4487Y2134D01*
X4076Y2133D02*
X4124Y2133D01*
X4138Y2133D02*
X4186Y2133D01*
X4376Y2133D02*
X4424Y2133D01*
X4438Y2133D02*
X4486Y2133D01*
X4076Y2132D02*
X4125Y2132D01*
X4137Y2132D02*
X4186Y2132D01*
X4376Y2132D02*
X4425Y2132D01*
X4437Y2132D02*
X4486Y2132D01*
X4077Y2131D02*
X4128Y2131D01*
X4134Y2131D02*
X4186Y2131D01*
X4377Y2131D02*
X4428Y2131D01*
X4434Y2131D02*
X4486Y2131D01*
X4077Y2130D02*
X4185Y2130D01*
X4377Y2130D02*
X4485Y2130D01*
X4078Y2129D02*
X4185Y2129D01*
X4378Y2129D02*
X4485Y2129D01*
X4078Y2128D02*
X4184Y2128D01*
X4378Y2128D02*
X4484Y2128D01*
X4078Y2127D02*
X4184Y2127D01*
X4378Y2127D02*
X4484Y2127D01*
X4079Y2126D02*
X4183Y2126D01*
X4379Y2126D02*
X4483Y2126D01*
X4080Y2125D02*
X4183Y2125D01*
X4380Y2125D02*
X4483Y2125D01*
X4080Y2124D02*
X4182Y2124D01*
X4380Y2124D02*
X4482Y2124D01*
X4081Y2123D02*
X4181Y2123D01*
X4381Y2123D02*
X4481Y2123D01*
X4082Y2122D02*
X4181Y2122D01*
X4382Y2122D02*
X4481Y2122D01*
X4083Y2121D02*
X4180Y2121D01*
X4383Y2121D02*
X4480Y2121D01*
X4084Y2120D02*
X4179Y2120D01*
X4384Y2120D02*
X4479Y2120D01*
X4085Y2119D02*
X4178Y2119D01*
X4385Y2119D02*
X4478Y2119D01*
X4086Y2118D02*
X4177Y2118D01*
X4386Y2118D02*
X4477Y2118D01*
X4087Y2117D02*
X4175Y2117D01*
X4387Y2117D02*
X4475Y2117D01*
X4088Y2116D02*
X4174Y2116D01*
X4388Y2116D02*
X4474Y2116D01*
X4090Y2115D02*
X4172Y2115D01*
X4390Y2115D02*
X4472Y2115D01*
X4092Y2114D02*
X4170Y2114D01*
X4392Y2114D02*
X4470Y2114D01*
X4094Y2113D02*
X4168Y2113D01*
X4394Y2113D02*
X4468Y2113D01*
X4097Y2112D02*
X4165Y2112D01*
X4397Y2112D02*
X4465Y2112D01*
X4102Y2111D02*
X4160Y2111D01*
X4402Y2111D02*
X4460Y2111D01*
X4099Y2072D02*
X4163Y2072D01*
X4399Y2072D02*
X4463Y2072D01*
X4096Y2071D02*
X4167Y2071D01*
X4396Y2071D02*
X4467Y2071D01*
X4093Y2070D02*
X4169Y2070D01*
X4393Y2070D02*
X4469Y2070D01*
X4091Y2069D02*
X4171Y2069D01*
X4391Y2069D02*
X4471Y2069D01*
X4089Y2068D02*
X4173Y2068D01*
X4389Y2068D02*
X4473Y2068D01*
X4088Y2067D02*
X4175Y2067D01*
X4388Y2067D02*
X4475Y2067D01*
X4086Y2066D02*
X4176Y2066D01*
X4386Y2066D02*
X4476Y2066D01*
X4085Y2065D02*
X4177Y2065D01*
X4385Y2065D02*
X4477Y2065D01*
X4084Y2064D02*
X4178Y2064D01*
X4384Y2064D02*
X4478Y2064D01*
X4083Y2063D02*
X4179Y2063D01*
X4383Y2063D02*
X4479Y2063D01*
X4082Y2062D02*
X4180Y2062D01*
X4382Y2062D02*
X4480Y2062D01*
X4081Y2061D02*
X4181Y2061D01*
X4381Y2061D02*
X4481Y2061D01*
X4081Y2060D02*
X4182Y2060D01*
X4381Y2060D02*
X4482Y2060D01*
X4080Y2059D02*
X4182Y2059D01*
X4380Y2059D02*
X4482Y2059D01*
X4079Y2058D02*
X4183Y2058D01*
X4379Y2058D02*
X4483Y2058D01*
X4079Y2057D02*
X4184Y2057D01*
X4379Y2057D02*
X4484Y2057D01*
X4078Y2056D02*
X4184Y2056D01*
X4378Y2056D02*
X4484Y2056D01*
X4078Y2055D02*
X4185Y2055D01*
X4378Y2055D02*
X4485Y2055D01*
X4077Y2054D02*
X4185Y2054D01*
X4377Y2054D02*
X4485Y2054D01*
X4077Y2053D02*
X4185Y2053D01*
X4377Y2053D02*
X4485Y2053D01*
X4077Y2052D02*
X4127Y2052D01*
X4136Y2052D02*
X4186Y2052D01*
X4377Y2052D02*
X4427Y2052D01*
X4436Y2052D02*
X4486Y2052D01*
X4076Y2051D02*
X4125Y2051D01*
X4138Y2051D02*
X4186Y2051D01*
X4376Y2051D02*
X4425Y2051D01*
X4438Y2051D02*
X4486Y2051D01*
X4076Y2050D02*
X4123Y2050D01*
X4139Y2050D02*
X4186Y2050D01*
X4376Y2050D02*
X4423Y2050D01*
X4439Y2050D02*
X4486Y2050D01*
X4076Y2049D02*
X4122Y2049D01*
X4140Y2049D02*
X4187Y2049D01*
X4376Y2049D02*
X4422Y2049D01*
X4440Y2049D02*
X4487Y2049D01*
X4075Y2048D02*
X4122Y2048D01*
X4141Y2048D02*
X4187Y2048D01*
X4375Y2048D02*
X4422Y2048D01*
X4441Y2048D02*
X4487Y2048D01*
X4075Y2047D02*
X4121Y2047D01*
X4141Y2047D02*
X4187Y2047D01*
X4375Y2047D02*
X4421Y2047D01*
X4441Y2047D02*
X4487Y2047D01*
X4075Y2046D02*
X4120Y2046D01*
X4142Y2046D02*
X4187Y2046D01*
X4375Y2046D02*
X4420Y2046D01*
X4442Y2046D02*
X4487Y2046D01*
X4075Y2045D02*
X4120Y2045D01*
X4142Y2045D02*
X4187Y2045D01*
X4375Y2045D02*
X4420Y2045D01*
X4442Y2045D02*
X4487Y2045D01*
X4075Y2044D02*
X4120Y2044D01*
X4142Y2044D02*
X4188Y2044D01*
X4375Y2044D02*
X4420Y2044D01*
X4442Y2044D02*
X4488Y2044D01*
X4075Y2043D02*
X4120Y2043D01*
X4143Y2043D02*
X4188Y2043D01*
X4375Y2043D02*
X4420Y2043D01*
X4443Y2043D02*
X4488Y2043D01*
X4075Y2042D02*
X4120Y2042D01*
X4143Y2042D02*
X4188Y2042D01*
X4375Y2042D02*
X4420Y2042D01*
X4443Y2042D02*
X4488Y2042D01*
X4075Y2041D02*
X4120Y2041D01*
X4143Y2041D02*
X4188Y2041D01*
X4375Y2041D02*
X4420Y2041D01*
X4443Y2041D02*
X4488Y2041D01*
X4075Y2040D02*
X4120Y2040D01*
X4143Y2040D02*
X4188Y2040D01*
X4375Y2040D02*
X4420Y2040D01*
X4443Y2040D02*
X4488Y2040D01*
X4075Y2039D02*
X4120Y2039D01*
X4142Y2039D02*
X4188Y2039D01*
X4375Y2039D02*
X4420Y2039D01*
X4442Y2039D02*
X4488Y2039D01*
X4075Y2038D02*
X4120Y2038D01*
X4142Y2038D02*
X4187Y2038D01*
X4375Y2038D02*
X4420Y2038D01*
X4442Y2038D02*
X4487Y2038D01*
X4075Y2037D02*
X4121Y2037D01*
X4142Y2037D02*
X4187Y2037D01*
X4375Y2037D02*
X4421Y2037D01*
X4442Y2037D02*
X4487Y2037D01*
X4075Y2036D02*
X4121Y2036D01*
X4141Y2036D02*
X4187Y2036D01*
X4375Y2036D02*
X4421Y2036D01*
X4441Y2036D02*
X4487Y2036D01*
X4075Y2035D02*
X4122Y2035D01*
X4140Y2035D02*
X4187Y2035D01*
X4375Y2035D02*
X4422Y2035D01*
X4440Y2035D02*
X4487Y2035D01*
X4076Y2034D02*
X4123Y2034D01*
X4139Y2034D02*
X4187Y2034D01*
X4376Y2034D02*
X4423Y2034D01*
X4439Y2034D02*
X4487Y2034D01*
X4076Y2033D02*
X4124Y2033D01*
X4138Y2033D02*
X4186Y2033D01*
X4376Y2033D02*
X4424Y2033D01*
X4438Y2033D02*
X4486Y2033D01*
X4076Y2032D02*
X4125Y2032D01*
X4137Y2032D02*
X4186Y2032D01*
X4376Y2032D02*
X4425Y2032D01*
X4437Y2032D02*
X4486Y2032D01*
X4077Y2031D02*
X4128Y2031D01*
X4134Y2031D02*
X4186Y2031D01*
X4377Y2031D02*
X4428Y2031D01*
X4434Y2031D02*
X4486Y2031D01*
X4077Y2030D02*
X4185Y2030D01*
X4377Y2030D02*
X4485Y2030D01*
X4078Y2029D02*
X4185Y2029D01*
X4378Y2029D02*
X4485Y2029D01*
X4078Y2028D02*
X4184Y2028D01*
X4378Y2028D02*
X4484Y2028D01*
X4078Y2027D02*
X4184Y2027D01*
X4378Y2027D02*
X4484Y2027D01*
X4079Y2026D02*
X4183Y2026D01*
X4379Y2026D02*
X4483Y2026D01*
X4080Y2025D02*
X4183Y2025D01*
X4380Y2025D02*
X4483Y2025D01*
X4080Y2024D02*
X4182Y2024D01*
X4380Y2024D02*
X4482Y2024D01*
X4081Y2023D02*
X4181Y2023D01*
X4381Y2023D02*
X4481Y2023D01*
X4082Y2022D02*
X4181Y2022D01*
X4382Y2022D02*
X4481Y2022D01*
X4083Y2021D02*
X4180Y2021D01*
X4383Y2021D02*
X4480Y2021D01*
X4084Y2020D02*
X4179Y2020D01*
X4384Y2020D02*
X4479Y2020D01*
X4085Y2019D02*
X4178Y2019D01*
X4385Y2019D02*
X4478Y2019D01*
X4086Y2018D02*
X4177Y2018D01*
X4386Y2018D02*
X4477Y2018D01*
X4087Y2017D02*
X4175Y2017D01*
X4387Y2017D02*
X4475Y2017D01*
X4088Y2016D02*
X4174Y2016D01*
X4388Y2016D02*
X4474Y2016D01*
X4090Y2015D02*
X4172Y2015D01*
X4390Y2015D02*
X4472Y2015D01*
X4092Y2014D02*
X4170Y2014D01*
X4392Y2014D02*
X4470Y2014D01*
X4094Y2013D02*
X4168Y2013D01*
X4394Y2013D02*
X4468Y2013D01*
X4097Y2012D02*
X4165Y2012D01*
X4397Y2012D02*
X4465Y2012D01*
X4102Y2011D02*
X4160Y2011D01*
X4402Y2011D02*
X4460Y2011D01*
X4099Y1972D02*
X4163Y1972D01*
X4399Y1972D02*
X4463Y1972D01*
X4096Y1971D02*
X4167Y1971D01*
X4396Y1971D02*
X4467Y1971D01*
X4093Y1970D02*
X4169Y1970D01*
X4393Y1970D02*
X4469Y1970D01*
X4091Y1969D02*
X4171Y1969D01*
X4391Y1969D02*
X4471Y1969D01*
X4089Y1968D02*
X4173Y1968D01*
X4389Y1968D02*
X4473Y1968D01*
X4088Y1967D02*
X4175Y1967D01*
X4388Y1967D02*
X4475Y1967D01*
X4086Y1966D02*
X4176Y1966D01*
X4386Y1966D02*
X4476Y1966D01*
X4085Y1965D02*
X4177Y1965D01*
X4385Y1965D02*
X4477Y1965D01*
X4084Y1964D02*
X4178Y1964D01*
X4384Y1964D02*
X4478Y1964D01*
X4083Y1963D02*
X4179Y1963D01*
X4383Y1963D02*
X4479Y1963D01*
X4082Y1962D02*
X4180Y1962D01*
X4382Y1962D02*
X4480Y1962D01*
X4081Y1961D02*
X4181Y1961D01*
X4381Y1961D02*
X4481Y1961D01*
X4081Y1960D02*
X4182Y1960D01*
X4381Y1960D02*
X4482Y1960D01*
X4080Y1959D02*
X4182Y1959D01*
X4380Y1959D02*
X4482Y1959D01*
X4079Y1958D02*
X4183Y1958D01*
X4379Y1958D02*
X4483Y1958D01*
X4079Y1957D02*
X4184Y1957D01*
X4379Y1957D02*
X4484Y1957D01*
X4078Y1956D02*
X4184Y1956D01*
X4378Y1956D02*
X4484Y1956D01*
X4078Y1955D02*
X4185Y1955D01*
X4378Y1955D02*
X4485Y1955D01*
X4077Y1954D02*
X4185Y1954D01*
X4377Y1954D02*
X4485Y1954D01*
X4077Y1953D02*
X4185Y1953D01*
X4377Y1953D02*
X4485Y1953D01*
X4077Y1952D02*
X4127Y1952D01*
X4136Y1952D02*
X4186Y1952D01*
X4377Y1952D02*
X4427Y1952D01*
X4436Y1952D02*
X4486Y1952D01*
X4076Y1951D02*
X4125Y1951D01*
X4138Y1951D02*
X4186Y1951D01*
X4376Y1951D02*
X4425Y1951D01*
X4438Y1951D02*
X4486Y1951D01*
X4076Y1950D02*
X4123Y1950D01*
X4139Y1950D02*
X4186Y1950D01*
X4376Y1950D02*
X4423Y1950D01*
X4439Y1950D02*
X4486Y1950D01*
X4076Y1949D02*
X4122Y1949D01*
X4140Y1949D02*
X4187Y1949D01*
X4376Y1949D02*
X4422Y1949D01*
X4440Y1949D02*
X4487Y1949D01*
X4075Y1948D02*
X4122Y1948D01*
X4141Y1948D02*
X4187Y1948D01*
X4375Y1948D02*
X4422Y1948D01*
X4441Y1948D02*
X4487Y1948D01*
X4075Y1947D02*
X4121Y1947D01*
X4141Y1947D02*
X4187Y1947D01*
X4375Y1947D02*
X4421Y1947D01*
X4441Y1947D02*
X4487Y1947D01*
X4075Y1946D02*
X4120Y1946D01*
X4142Y1946D02*
X4187Y1946D01*
X4375Y1946D02*
X4420Y1946D01*
X4442Y1946D02*
X4487Y1946D01*
X4075Y1945D02*
X4120Y1945D01*
X4142Y1945D02*
X4187Y1945D01*
X4375Y1945D02*
X4420Y1945D01*
X4442Y1945D02*
X4487Y1945D01*
X4075Y1944D02*
X4120Y1944D01*
X4142Y1944D02*
X4188Y1944D01*
X4375Y1944D02*
X4420Y1944D01*
X4442Y1944D02*
X4488Y1944D01*
X4075Y1943D02*
X4120Y1943D01*
X4143Y1943D02*
X4188Y1943D01*
X4375Y1943D02*
X4420Y1943D01*
X4443Y1943D02*
X4488Y1943D01*
X4075Y1942D02*
X4120Y1942D01*
X4143Y1942D02*
X4188Y1942D01*
X4375Y1942D02*
X4420Y1942D01*
X4443Y1942D02*
X4488Y1942D01*
X4075Y1941D02*
X4120Y1941D01*
X4143Y1941D02*
X4188Y1941D01*
X4375Y1941D02*
X4420Y1941D01*
X4443Y1941D02*
X4488Y1941D01*
X4075Y1940D02*
X4120Y1940D01*
X4143Y1940D02*
X4188Y1940D01*
X4375Y1940D02*
X4420Y1940D01*
X4443Y1940D02*
X4488Y1940D01*
X4075Y1939D02*
X4120Y1939D01*
X4142Y1939D02*
X4188Y1939D01*
X4375Y1939D02*
X4420Y1939D01*
X4442Y1939D02*
X4488Y1939D01*
X4075Y1938D02*
X4120Y1938D01*
X4142Y1938D02*
X4187Y1938D01*
X4375Y1938D02*
X4420Y1938D01*
X4442Y1938D02*
X4487Y1938D01*
X4075Y1937D02*
X4121Y1937D01*
X4142Y1937D02*
X4187Y1937D01*
X4375Y1937D02*
X4421Y1937D01*
X4442Y1937D02*
X4487Y1937D01*
X4075Y1936D02*
X4121Y1936D01*
X4141Y1936D02*
X4187Y1936D01*
X4375Y1936D02*
X4421Y1936D01*
X4441Y1936D02*
X4487Y1936D01*
X4075Y1935D02*
X4122Y1935D01*
X4140Y1935D02*
X4187Y1935D01*
X4375Y1935D02*
X4422Y1935D01*
X4440Y1935D02*
X4487Y1935D01*
X4076Y1934D02*
X4123Y1934D01*
X4139Y1934D02*
X4187Y1934D01*
X4376Y1934D02*
X4423Y1934D01*
X4439Y1934D02*
X4487Y1934D01*
X4076Y1933D02*
X4124Y1933D01*
X4138Y1933D02*
X4186Y1933D01*
X4376Y1933D02*
X4424Y1933D01*
X4438Y1933D02*
X4486Y1933D01*
X4076Y1932D02*
X4125Y1932D01*
X4137Y1932D02*
X4186Y1932D01*
X4376Y1932D02*
X4425Y1932D01*
X4437Y1932D02*
X4486Y1932D01*
X4077Y1931D02*
X4128Y1931D01*
X4134Y1931D02*
X4186Y1931D01*
X4377Y1931D02*
X4428Y1931D01*
X4434Y1931D02*
X4486Y1931D01*
X4077Y1930D02*
X4185Y1930D01*
X4377Y1930D02*
X4485Y1930D01*
X4078Y1929D02*
X4185Y1929D01*
X4378Y1929D02*
X4485Y1929D01*
X4078Y1928D02*
X4184Y1928D01*
X4378Y1928D02*
X4484Y1928D01*
X4078Y1927D02*
X4184Y1927D01*
X4378Y1927D02*
X4484Y1927D01*
X4079Y1926D02*
X4183Y1926D01*
X4379Y1926D02*
X4483Y1926D01*
X4080Y1925D02*
X4183Y1925D01*
X4380Y1925D02*
X4483Y1925D01*
X4080Y1924D02*
X4182Y1924D01*
X4380Y1924D02*
X4482Y1924D01*
X4081Y1923D02*
X4181Y1923D01*
X4381Y1923D02*
X4481Y1923D01*
X4082Y1922D02*
X4181Y1922D01*
X4382Y1922D02*
X4481Y1922D01*
X4083Y1921D02*
X4180Y1921D01*
X4383Y1921D02*
X4480Y1921D01*
X4084Y1920D02*
X4179Y1920D01*
X4384Y1920D02*
X4479Y1920D01*
X4085Y1919D02*
X4178Y1919D01*
X4385Y1919D02*
X4478Y1919D01*
X4086Y1918D02*
X4177Y1918D01*
X4386Y1918D02*
X4477Y1918D01*
X4087Y1917D02*
X4175Y1917D01*
X4387Y1917D02*
X4475Y1917D01*
X4088Y1916D02*
X4174Y1916D01*
X4388Y1916D02*
X4474Y1916D01*
X4090Y1915D02*
X4172Y1915D01*
X4390Y1915D02*
X4472Y1915D01*
X4092Y1914D02*
X4170Y1914D01*
X4392Y1914D02*
X4470Y1914D01*
X4094Y1913D02*
X4168Y1913D01*
X4394Y1913D02*
X4468Y1913D01*
X4097Y1912D02*
X4165Y1912D01*
X4397Y1912D02*
X4465Y1912D01*
X4102Y1911D02*
X4160Y1911D01*
X4402Y1911D02*
X4460Y1911D01*
X4099Y1872D02*
X4163Y1872D01*
X4399Y1872D02*
X4463Y1872D01*
X4096Y1871D02*
X4167Y1871D01*
X4396Y1871D02*
X4467Y1871D01*
X4093Y1870D02*
X4169Y1870D01*
X4393Y1870D02*
X4469Y1870D01*
X4091Y1869D02*
X4171Y1869D01*
X4391Y1869D02*
X4471Y1869D01*
X4089Y1868D02*
X4173Y1868D01*
X4389Y1868D02*
X4473Y1868D01*
X4088Y1867D02*
X4175Y1867D01*
X4388Y1867D02*
X4475Y1867D01*
X4086Y1866D02*
X4176Y1866D01*
X4386Y1866D02*
X4476Y1866D01*
X4085Y1865D02*
X4177Y1865D01*
X4385Y1865D02*
X4477Y1865D01*
X4084Y1864D02*
X4178Y1864D01*
X4384Y1864D02*
X4478Y1864D01*
X4083Y1863D02*
X4179Y1863D01*
X4383Y1863D02*
X4479Y1863D01*
X4082Y1862D02*
X4180Y1862D01*
X4382Y1862D02*
X4480Y1862D01*
X4081Y1861D02*
X4181Y1861D01*
X4381Y1861D02*
X4481Y1861D01*
X4081Y1860D02*
X4182Y1860D01*
X4381Y1860D02*
X4482Y1860D01*
X4080Y1859D02*
X4182Y1859D01*
X4380Y1859D02*
X4482Y1859D01*
X4079Y1858D02*
X4183Y1858D01*
X4379Y1858D02*
X4483Y1858D01*
X4079Y1857D02*
X4184Y1857D01*
X4379Y1857D02*
X4484Y1857D01*
X4078Y1856D02*
X4184Y1856D01*
X4378Y1856D02*
X4484Y1856D01*
X4078Y1855D02*
X4185Y1855D01*
X4378Y1855D02*
X4485Y1855D01*
X4077Y1854D02*
X4185Y1854D01*
X4377Y1854D02*
X4485Y1854D01*
X4077Y1853D02*
X4185Y1853D01*
X4377Y1853D02*
X4485Y1853D01*
X4077Y1852D02*
X4127Y1852D01*
X4136Y1852D02*
X4186Y1852D01*
X4377Y1852D02*
X4427Y1852D01*
X4436Y1852D02*
X4486Y1852D01*
X4076Y1851D02*
X4125Y1851D01*
X4138Y1851D02*
X4186Y1851D01*
X4376Y1851D02*
X4425Y1851D01*
X4438Y1851D02*
X4486Y1851D01*
X4076Y1850D02*
X4123Y1850D01*
X4139Y1850D02*
X4186Y1850D01*
X4376Y1850D02*
X4423Y1850D01*
X4439Y1850D02*
X4486Y1850D01*
X4076Y1849D02*
X4122Y1849D01*
X4140Y1849D02*
X4187Y1849D01*
X4376Y1849D02*
X4422Y1849D01*
X4440Y1849D02*
X4487Y1849D01*
X4075Y1848D02*
X4122Y1848D01*
X4141Y1848D02*
X4187Y1848D01*
X4375Y1848D02*
X4422Y1848D01*
X4441Y1848D02*
X4487Y1848D01*
X4075Y1847D02*
X4121Y1847D01*
X4141Y1847D02*
X4187Y1847D01*
X4375Y1847D02*
X4421Y1847D01*
X4441Y1847D02*
X4487Y1847D01*
X4075Y1846D02*
X4120Y1846D01*
X4142Y1846D02*
X4187Y1846D01*
X4375Y1846D02*
X4420Y1846D01*
X4442Y1846D02*
X4487Y1846D01*
X4075Y1845D02*
X4120Y1845D01*
X4142Y1845D02*
X4187Y1845D01*
X4375Y1845D02*
X4420Y1845D01*
X4442Y1845D02*
X4487Y1845D01*
X4075Y1844D02*
X4120Y1844D01*
X4142Y1844D02*
X4188Y1844D01*
X4375Y1844D02*
X4420Y1844D01*
X4442Y1844D02*
X4488Y1844D01*
X4075Y1843D02*
X4120Y1843D01*
X4143Y1843D02*
X4188Y1843D01*
X4375Y1843D02*
X4420Y1843D01*
X4443Y1843D02*
X4488Y1843D01*
X4075Y1842D02*
X4120Y1842D01*
X4143Y1842D02*
X4188Y1842D01*
X4375Y1842D02*
X4420Y1842D01*
X4443Y1842D02*
X4488Y1842D01*
X4075Y1841D02*
X4120Y1841D01*
X4143Y1841D02*
X4188Y1841D01*
X4375Y1841D02*
X4420Y1841D01*
X4443Y1841D02*
X4488Y1841D01*
X4075Y1840D02*
X4120Y1840D01*
X4143Y1840D02*
X4188Y1840D01*
X4375Y1840D02*
X4420Y1840D01*
X4443Y1840D02*
X4488Y1840D01*
X4075Y1839D02*
X4120Y1839D01*
X4142Y1839D02*
X4188Y1839D01*
X4375Y1839D02*
X4420Y1839D01*
X4442Y1839D02*
X4488Y1839D01*
X4075Y1838D02*
X4120Y1838D01*
X4142Y1838D02*
X4187Y1838D01*
X4375Y1838D02*
X4420Y1838D01*
X4442Y1838D02*
X4487Y1838D01*
X4075Y1837D02*
X4121Y1837D01*
X4142Y1837D02*
X4187Y1837D01*
X4375Y1837D02*
X4421Y1837D01*
X4442Y1837D02*
X4487Y1837D01*
X4075Y1836D02*
X4121Y1836D01*
X4141Y1836D02*
X4187Y1836D01*
X4375Y1836D02*
X4421Y1836D01*
X4441Y1836D02*
X4487Y1836D01*
X4075Y1835D02*
X4122Y1835D01*
X4140Y1835D02*
X4187Y1835D01*
X4375Y1835D02*
X4422Y1835D01*
X4440Y1835D02*
X4487Y1835D01*
X4076Y1834D02*
X4123Y1834D01*
X4139Y1834D02*
X4187Y1834D01*
X4376Y1834D02*
X4423Y1834D01*
X4439Y1834D02*
X4487Y1834D01*
X4076Y1833D02*
X4124Y1833D01*
X4138Y1833D02*
X4186Y1833D01*
X4376Y1833D02*
X4424Y1833D01*
X4438Y1833D02*
X4486Y1833D01*
X4076Y1832D02*
X4125Y1832D01*
X4137Y1832D02*
X4186Y1832D01*
X4376Y1832D02*
X4425Y1832D01*
X4437Y1832D02*
X4486Y1832D01*
X4077Y1831D02*
X4128Y1831D01*
X4134Y1831D02*
X4186Y1831D01*
X4377Y1831D02*
X4428Y1831D01*
X4434Y1831D02*
X4486Y1831D01*
X4077Y1830D02*
X4185Y1830D01*
X4377Y1830D02*
X4485Y1830D01*
X4078Y1829D02*
X4185Y1829D01*
X4378Y1829D02*
X4485Y1829D01*
X4078Y1828D02*
X4184Y1828D01*
X4378Y1828D02*
X4484Y1828D01*
X4079Y1827D02*
X4184Y1827D01*
X4378Y1827D02*
X4484Y1827D01*
X4079Y1826D02*
X4183Y1826D01*
X4379Y1826D02*
X4483Y1826D01*
X4080Y1825D02*
X4183Y1825D01*
X4380Y1825D02*
X4483Y1825D01*
X4080Y1824D02*
X4182Y1824D01*
X4380Y1824D02*
X4482Y1824D01*
X4081Y1823D02*
X4181Y1823D01*
X4381Y1823D02*
X4481Y1823D01*
X4082Y1822D02*
X4181Y1822D01*
X4382Y1822D02*
X4481Y1822D01*
X4083Y1821D02*
X4180Y1821D01*
X4383Y1821D02*
X4480Y1821D01*
X4084Y1820D02*
X4179Y1820D01*
X4384Y1820D02*
X4479Y1820D01*
X4085Y1819D02*
X4178Y1819D01*
X4385Y1819D02*
X4478Y1819D01*
X4086Y1818D02*
X4177Y1818D01*
X4386Y1818D02*
X4477Y1818D01*
X4087Y1817D02*
X4175Y1817D01*
X4387Y1817D02*
X4475Y1817D01*
X4089Y1816D02*
X4174Y1816D01*
X4389Y1816D02*
X4474Y1816D01*
X4090Y1815D02*
X4172Y1815D01*
X4390Y1815D02*
X4472Y1815D01*
X4092Y1814D02*
X4170Y1814D01*
X4392Y1814D02*
X4470Y1814D01*
X4094Y1813D02*
X4168Y1813D01*
X4394Y1813D02*
X4468Y1813D01*
X4097Y1812D02*
X4165Y1812D01*
X4397Y1812D02*
X4465Y1812D01*
X4102Y1811D02*
X4160Y1811D01*
X4402Y1811D02*
X4460Y1811D01*
X4099Y1772D02*
X4163Y1772D01*
X4399Y1772D02*
X4463Y1772D01*
X4096Y1771D02*
X4167Y1771D01*
X4396Y1771D02*
X4467Y1771D01*
X4093Y1770D02*
X4169Y1770D01*
X4393Y1770D02*
X4469Y1770D01*
X4091Y1769D02*
X4171Y1769D01*
X4391Y1769D02*
X4471Y1769D01*
X4089Y1768D02*
X4173Y1768D01*
X4389Y1768D02*
X4473Y1768D01*
X4088Y1767D02*
X4175Y1767D01*
X4388Y1767D02*
X4475Y1767D01*
X4086Y1766D02*
X4176Y1766D01*
X4386Y1766D02*
X4476Y1766D01*
X4085Y1765D02*
X4177Y1765D01*
X4385Y1765D02*
X4477Y1765D01*
X4084Y1764D02*
X4178Y1764D01*
X4384Y1764D02*
X4478Y1764D01*
X4083Y1763D02*
X4179Y1763D01*
X4383Y1763D02*
X4479Y1763D01*
X4082Y1762D02*
X4180Y1762D01*
X4382Y1762D02*
X4480Y1762D01*
X4081Y1761D02*
X4181Y1761D01*
X4381Y1761D02*
X4481Y1761D01*
X4081Y1760D02*
X4182Y1760D01*
X4381Y1760D02*
X4482Y1760D01*
X4080Y1759D02*
X4182Y1759D01*
X4380Y1759D02*
X4482Y1759D01*
X4079Y1758D02*
X4183Y1758D01*
X4379Y1758D02*
X4483Y1758D01*
X4079Y1757D02*
X4184Y1757D01*
X4379Y1757D02*
X4484Y1757D01*
X4078Y1756D02*
X4184Y1756D01*
X4378Y1756D02*
X4484Y1756D01*
X4078Y1755D02*
X4185Y1755D01*
X4378Y1755D02*
X4485Y1755D01*
X4077Y1754D02*
X4185Y1754D01*
X4377Y1754D02*
X4485Y1754D01*
X4077Y1753D02*
X4185Y1753D01*
X4377Y1753D02*
X4485Y1753D01*
X4077Y1752D02*
X4127Y1752D01*
X4136Y1752D02*
X4186Y1752D01*
X4377Y1752D02*
X4427Y1752D01*
X4436Y1752D02*
X4486Y1752D01*
X4076Y1751D02*
X4125Y1751D01*
X4138Y1751D02*
X4186Y1751D01*
X4376Y1751D02*
X4425Y1751D01*
X4438Y1751D02*
X4486Y1751D01*
X4076Y1750D02*
X4123Y1750D01*
X4139Y1750D02*
X4186Y1750D01*
X4376Y1750D02*
X4423Y1750D01*
X4439Y1750D02*
X4486Y1750D01*
X4076Y1749D02*
X4122Y1749D01*
X4140Y1749D02*
X4187Y1749D01*
X4376Y1749D02*
X4422Y1749D01*
X4440Y1749D02*
X4487Y1749D01*
X4075Y1748D02*
X4122Y1748D01*
X4141Y1748D02*
X4187Y1748D01*
X4375Y1748D02*
X4422Y1748D01*
X4441Y1748D02*
X4487Y1748D01*
X4075Y1747D02*
X4121Y1747D01*
X4141Y1747D02*
X4187Y1747D01*
X4375Y1747D02*
X4421Y1747D01*
X4441Y1747D02*
X4487Y1747D01*
X4075Y1746D02*
X4120Y1746D01*
X4142Y1746D02*
X4187Y1746D01*
X4375Y1746D02*
X4420Y1746D01*
X4442Y1746D02*
X4487Y1746D01*
X4075Y1745D02*
X4120Y1745D01*
X4142Y1745D02*
X4187Y1745D01*
X4375Y1745D02*
X4420Y1745D01*
X4442Y1745D02*
X4487Y1745D01*
X4075Y1744D02*
X4120Y1744D01*
X4142Y1744D02*
X4188Y1744D01*
X4375Y1744D02*
X4420Y1744D01*
X4442Y1744D02*
X4488Y1744D01*
X4075Y1743D02*
X4120Y1743D01*
X4143Y1743D02*
X4188Y1743D01*
X4375Y1743D02*
X4420Y1743D01*
X4443Y1743D02*
X4488Y1743D01*
X4075Y1742D02*
X4120Y1742D01*
X4143Y1742D02*
X4188Y1742D01*
X4375Y1742D02*
X4420Y1742D01*
X4443Y1742D02*
X4488Y1742D01*
X4075Y1741D02*
X4120Y1741D01*
X4143Y1741D02*
X4188Y1741D01*
X4375Y1741D02*
X4420Y1741D01*
X4443Y1741D02*
X4488Y1741D01*
X4075Y1740D02*
X4120Y1740D01*
X4143Y1740D02*
X4188Y1740D01*
X4375Y1740D02*
X4420Y1740D01*
X4443Y1740D02*
X4488Y1740D01*
X4075Y1739D02*
X4120Y1739D01*
X4142Y1739D02*
X4188Y1739D01*
X4375Y1739D02*
X4420Y1739D01*
X4442Y1739D02*
X4488Y1739D01*
X4075Y1738D02*
X4120Y1738D01*
X4142Y1738D02*
X4187Y1738D01*
X4375Y1738D02*
X4420Y1738D01*
X4442Y1738D02*
X4487Y1738D01*
X4075Y1737D02*
X4121Y1737D01*
X4142Y1737D02*
X4187Y1737D01*
X4375Y1737D02*
X4421Y1737D01*
X4442Y1737D02*
X4487Y1737D01*
X4075Y1736D02*
X4121Y1736D01*
X4141Y1736D02*
X4187Y1736D01*
X4375Y1736D02*
X4421Y1736D01*
X4441Y1736D02*
X4487Y1736D01*
X4075Y1735D02*
X4122Y1735D01*
X4140Y1735D02*
X4187Y1735D01*
X4375Y1735D02*
X4422Y1735D01*
X4440Y1735D02*
X4487Y1735D01*
X4076Y1734D02*
X4123Y1734D01*
X4139Y1734D02*
X4187Y1734D01*
X4376Y1734D02*
X4423Y1734D01*
X4439Y1734D02*
X4487Y1734D01*
X4076Y1733D02*
X4124Y1733D01*
X4138Y1733D02*
X4186Y1733D01*
X4376Y1733D02*
X4424Y1733D01*
X4438Y1733D02*
X4486Y1733D01*
X4076Y1732D02*
X4126Y1732D01*
X4137Y1732D02*
X4186Y1732D01*
X4376Y1732D02*
X4425Y1732D01*
X4437Y1732D02*
X4486Y1732D01*
X4077Y1731D02*
X4128Y1731D01*
X4134Y1731D02*
X4186Y1731D01*
X4377Y1731D02*
X4428Y1731D01*
X4434Y1731D02*
X4486Y1731D01*
X4077Y1730D02*
X4185Y1730D01*
X4377Y1730D02*
X4485Y1730D01*
X4078Y1729D02*
X4185Y1729D01*
X4378Y1729D02*
X4485Y1729D01*
X4078Y1728D02*
X4184Y1728D01*
X4378Y1728D02*
X4484Y1728D01*
X4079Y1727D02*
X4184Y1727D01*
X4378Y1727D02*
X4484Y1727D01*
X4079Y1726D02*
X4183Y1726D01*
X4379Y1726D02*
X4483Y1726D01*
X4080Y1725D02*
X4183Y1725D01*
X4380Y1725D02*
X4483Y1725D01*
X4080Y1724D02*
X4182Y1724D01*
X4380Y1724D02*
X4482Y1724D01*
X4081Y1723D02*
X4181Y1723D01*
X4381Y1723D02*
X4481Y1723D01*
X4082Y1722D02*
X4181Y1722D01*
X4382Y1722D02*
X4481Y1722D01*
X4083Y1721D02*
X4180Y1721D01*
X4383Y1721D02*
X4480Y1721D01*
X4084Y1720D02*
X4179Y1720D01*
X4384Y1720D02*
X4479Y1720D01*
X4085Y1719D02*
X4178Y1719D01*
X4385Y1719D02*
X4478Y1719D01*
X4086Y1718D02*
X4177Y1718D01*
X4386Y1718D02*
X4477Y1718D01*
X4087Y1717D02*
X4175Y1717D01*
X4387Y1717D02*
X4475Y1717D01*
X4089Y1716D02*
X4174Y1716D01*
X4389Y1716D02*
X4474Y1716D01*
X4090Y1715D02*
X4172Y1715D01*
X4390Y1715D02*
X4472Y1715D01*
X4092Y1714D02*
X4170Y1714D01*
X4392Y1714D02*
X4470Y1714D01*
X4094Y1713D02*
X4168Y1713D01*
X4394Y1713D02*
X4468Y1713D01*
X4097Y1712D02*
X4165Y1712D01*
X4397Y1712D02*
X4465Y1712D01*
X4102Y1711D02*
X4160Y1711D01*
X4402Y1711D02*
X4460Y1711D01*
D02*
G04 End of Mask0*
M02*